<?xml version="1.0" encoding="UTF-8"?>
<!-- Generated by jsxcad -->
<!DOCTYPE svg PUBLIC "-//W3C//DTD SVG 1.1 Tiny//EN" "http://www.w3.org/Graphics/SVG/1.1/DTD/svg11-tiny.dtd">
<svg baseProfile="tiny" height="10 mm" width="10 mm" viewBox="0 0 10 10" version="1.1" stroke="black" stroke-width=".1" fill="none" xmlns="http://www.w3.org/2000/svg">
<path d="M0 0 L0 0 L10 0 z"/>
<path d="M0 0 L10 0 L10 0 z"/>
<path d="M0 10 L10 10 L10 0 z"/>
<path d="M0 10 L10 0 L0 0 z"/>
<path d="M0 10 L0 0 L0 0 z"/>
<path d="M0 10 L0 0 L0 10 z"/>
<path d="M10 10 L10 0 L10 0 z"/>
<path d="M10 10 L10 0 L10 10 z"/>
<path d="M10 10 L10 10 L0 10 z"/>
<path d="M10 10 L0 10 L0 10 z"/>
<path d="M10 10 L0 10 L0 0 z"/>
<path d="M10 10 L0 0 L10 0 z"/>
</svg>