<?xml version="1.0" encoding="UTF-8"?>
<!-- Generated by jsxcad -->
<!DOCTYPE svg PUBLIC "-//W3C//DTD SVG 1.1 Tiny//EN" "http://www.w3.org/Graphics/SVG/1.1/DTD/svg11-tiny.dtd">
<svg baseProfile="tiny" height="20 mm" width="10 mm" viewBox="0 0 10 20" version="1.1" stroke="black" stroke-width=".1" fill="none" xmlns="http://www.w3.org/2000/svg">
<path d="M0 20 L10 20 L10 10 z"/>
<path d="M0 20 L10 10 L0 10 z"/>
<path d="M10 20 L10 20 L0 20 z"/>
<path d="M10 20 L0 20 L0 20 z"/>
<path d="M0 10 L0 20 L0 20 z"/>
<path d="M0 10 L0 20 L0 10 z"/>
<path d="M10 10 L10 10 L10 20 z"/>
<path d="M10 10 L10 20 L10 20 z"/>
<path d="M10 10 L10 20 L0 20 z"/>
<path d="M10 10 L0 20 L0 10 z"/>
<path d="M6.5 0 L5.52095 0 L10 10 z"/>
<path d="M2 0 L2.18093 0 L0 10 z"/>
<path d="M2 0 L0 10 L0 10 z"/>
<path d="M7.29812 0 L6.5 0 L10 10 z"/>
<path d="M7.29812 0 L10 10 L7.81907 0 z"/>
<path d="M3.5 0 L2.70188 0 L0 10 z"/>
<path d="M2.18093 0 L2 0 L0 10 z"/>
<path d="M2.18093 0 L0 10 L2.70188 0 z"/>
<path d="M8 0 L10 10 L7.81907 0 z"/>
<path d="M8 0 L7.81907 0 L10 10 z"/>
<path d="M8 0 L10 10 L10 10 z"/>
<path d="M4.47905 0 L3.5 0 L0 10 z"/>
<path d="M4.47905 0 L0 10 L10 10 z"/>
<path d="M4.47905 0 L10 10 L5.52095 0 z"/>
<path d="M3.5 0 L4.47905 0 L0 10 z"/>
<path d="M5.52095 0 L6.5 0 L10 10 z"/>
<path d="M5.52095 0 L10 10 L0 10 z"/>
<path d="M5.52095 0 L0 10 L4.47905 0 z"/>
<path d="M7.29812 0 L10 10 L6.5 0 z"/>
<path d="M7.29812 0 L7.81907 0 L10 10 z"/>
<path d="M2.70188 0 L2.18093 0 L2 0 z"/>
<path d="M2.70188 0 L2 0 L2.18093 0 z"/>
<path d="M2.70188 0 L2.18093 0 L2.70188 0 z"/>
<path d="M2.70188 0 L2.70188 0 L3.5 0 z"/>
<path d="M2.70188 0 L3.5 0 L4.47905 0 z"/>
<path d="M2.70188 0 L4.47905 0 L5.52095 0 z"/>
<path d="M2.70188 0 L5.52095 0 L6.5 0 z"/>
<path d="M2.70188 0 L6.5 0 L7.29812 0 z"/>
<path d="M2.70188 0 L7.29812 0 L7.81907 0 z"/>
<path d="M2.70188 0 L7.81907 0 L8 0 z"/>
<path d="M2.70188 0 L8 0 L7.81907 0 z"/>
<path d="M2.70188 0 L7.81907 0 L7.29812 0 z"/>
<path d="M2.70188 0 L7.29812 0 L6.5 0 z"/>
<path d="M2.70188 0 L6.5 0 L5.52095 0 z"/>
<path d="M2.70188 0 L5.52095 0 L4.47905 0 z"/>
<path d="M2.70188 0 L4.47905 0 L3.5 0 z"/>
<path d="M2.70188 0 L3.5 0 L0 10 z"/>
<path d="M2.70188 0 L0 10 L2.18093 0 z"/>
</svg>