<?xml version="1.0" encoding="UTF-8"?>
<!-- Generated by jsxcad -->
<!DOCTYPE svg PUBLIC "-//W3C//DTD SVG 1.1 Tiny//EN" "http://www.w3.org/Graphics/SVG/1.1/DTD/svg11-tiny.dtd">
<svg baseProfile="tiny" height="30 mm" width="6 mm" viewBox="0 0 6 30" version="1.1" stroke="black" stroke-width=".1" fill="none" xmlns="http://www.w3.org/2000/svg">
<path d="M1.5 0 L1.5 30 L4.5 30 z"/>
<path d="M1.5 0 L4.5 30 L4.5 0 z"/>
<path d="M6 15 L4.5 0 L4.5 30 z"/>
<path d="M6 15 L6 15 L4.5 0 z"/>
<path d="M6 15 L4.5 0 L4.5 0 z"/>
<path d="M0 15 L1.5 30 L1.5 0 z"/>
<path d="M0 15 L0 15 L1.5 30 z"/>
<path d="M0 15 L1.5 30 L1.5 30 z"/>
<path d="M1.5 0 L0 15 L0 15 z"/>
<path d="M1.5 0 L0 15 L1.5 0 z"/>
<path d="M1.5 0 L1.5 0 L4.5 0 z"/>
<path d="M1.5 0 L4.5 0 L4.5 0 z"/>
<path d="M4.5 30 L4.5 30 L1.5 30 z"/>
<path d="M4.5 30 L1.5 30 L1.5 30 z"/>
<path d="M4.5 30 L6 15 L6 15 z"/>
<path d="M4.5 30 L6 15 L4.5 30 z"/>
<path d="M5.81907 13.97394 L5.29812 13.07163 L4.5 0 z"/>
<path d="M5.81907 13.97394 L4.5 0 L6 15 z"/>
<path d="M4.5 12.40191 L4.5 0 L5.29812 13.07163 z"/>
<path d="M4.5 12.40191 L3.52095 12.04557 L4.5 0 z"/>
<path d="M2.47905 12.04557 L1.5 12.40191 L1.5 0 z"/>
<path d="M2.47905 12.04557 L1.5 0 L4.5 0 z"/>
<path d="M2.47905 12.04557 L4.5 0 L3.52095 12.04557 z"/>
<path d="M0.18093 13.97394 L0 15 L1.5 0 z"/>
<path d="M0.18093 16.02606 L0.70188 16.92837 L1.5 30 z"/>
<path d="M0.18093 16.02606 L1.5 30 L0 15 z"/>
<path d="M1.5 17.59809 L1.5 30 L0.70188 16.92837 z"/>
<path d="M1.5 17.59809 L2.47905 17.95443 L1.5 30 z"/>
<path d="M3.52095 17.95443 L4.5 17.59809 L4.5 30 z"/>
<path d="M3.52095 17.95443 L4.5 30 L1.5 30 z"/>
<path d="M3.52095 17.95443 L1.5 30 L2.47905 17.95443 z"/>
<path d="M5.81907 16.02606 L6 15 L4.5 30 z"/>
<path d="M0.70188 13.07163 L0.18093 13.97394 L1.5 0 z"/>
<path d="M0.70188 13.07163 L1.5 0 L1.5 12.40191 z"/>
<path d="M5.29812 16.92837 L4.5 17.59809 L3.52095 17.95443 z"/>
<path d="M5.29812 16.92837 L3.52095 17.95443 L2.47905 17.95443 z"/>
<path d="M5.29812 16.92837 L2.47905 17.95443 L1.5 17.59809 z"/>
<path d="M5.29812 16.92837 L1.5 17.59809 L0.70188 16.92837 z"/>
<path d="M5.29812 16.92837 L0.70188 16.92837 L0.18093 16.02606 z"/>
<path d="M5.29812 16.92837 L0.18093 16.02606 L0 15 z"/>
<path d="M5.29812 16.92837 L0 15 L0.18093 13.97394 z"/>
<path d="M5.29812 16.92837 L0.18093 13.97394 L0.70188 13.07163 z"/>
<path d="M5.29812 16.92837 L0.70188 13.07163 L1.5 12.40191 z"/>
<path d="M5.29812 16.92837 L1.5 12.40191 L2.47905 12.04557 z"/>
<path d="M5.29812 16.92837 L2.47905 12.04557 L3.52095 12.04557 z"/>
<path d="M5.29812 16.92837 L3.52095 12.04557 L4.5 12.40191 z"/>
<path d="M5.29812 16.92837 L4.5 12.40191 L5.29812 13.07163 z"/>
<path d="M5.29812 16.92837 L5.29812 13.07163 L5.81907 13.97394 z"/>
<path d="M5.29812 16.92837 L5.81907 13.97394 L6 15 z"/>
<path d="M5.29812 16.92837 L6 15 L5.81907 16.02606 z"/>
<path d="M5.29812 16.92837 L5.81907 16.02606 L4.5 30 z"/>
<path d="M5.29812 16.92837 L4.5 30 L4.5 17.59809 z"/>
</svg>