<?xml version="1.0" encoding="UTF-8"?>
<!-- Generated by jsxcad -->
<!DOCTYPE svg PUBLIC "-//W3C//DTD SVG 1.1 Tiny//EN" "http://www.w3.org/Graphics/SVG/1.1/DTD/svg11-tiny.dtd">
<svg baseProfile="tiny" height="105 mm" width="20 mm" viewBox="0 0 20 105" version="1.1" stroke="black" stroke-width=".1" fill="none" xmlns="http://www.w3.org/2000/svg">
<path d="M19.9487 105 L19.9487 5 L19.7953 105 z"/>
<path d="M19.7953 105 L19.9487 5 L19.7953 5 z"/>
<path d="M19.7953 105 L19.7953 5 L19.5414 105 z"/>
<path d="M19.5414 105 L19.7953 5 L19.5414 5 z"/>
<path d="M19.5414 105 L19.5414 5 L19.1896 105 z"/>
<path d="M19.1896 105 L19.5414 5 L19.1896 5 z"/>
<path d="M19.1896 105 L19.1896 5 L18.7435 105 z"/>
<path d="M18.7435 105 L19.1896 5 L18.7435 5 z"/>
<path d="M18.65187 22.09899 L18.2076 105 L18.65187 105 z"/>
<path d="M18.65187 22.09899 L18.65187 5 L18.2076 5 L18.2076 105 z"/>
<path d="M18.7435 5 L18.65187 22.09899 L18.65187 105 L18.7435 105 z"/>
<path d="M18.65187 22.09899 L18.7435 5 L18.65187 5 z"/>
<path d="M18.2076 105 L18.2076 5 L17.5876 105 z"/>
<path d="M17.5876 105 L18.2076 5 L17.5876 5 z"/>
<path d="M17.5876 105 L17.5876 5 L16.8897 105 z"/>
<path d="M16.8897 105 L17.5876 5 L16.8897 5 z"/>
<path d="M16.8897 105 L16.8897 5 L16.1211 105 z"/>
<path d="M16.1211 105 L16.8897 5 L16.1211 5 z"/>
<path d="M16.1211 105 L16.1211 5 L15.2896 105 z"/>
<path d="M15.2896 105 L16.1211 5 L15.2896 5 z"/>
<path d="M15.2896 105 L15.2896 5 L14.4039 105 z"/>
<path d="M14.4039 105 L15.2896 5 L14.4039 5 z"/>
<path d="M14.4039 105 L14.4039 5 L13.4731 105 z"/>
<path d="M13.4731 105 L14.4039 5 L13.4731 5 z"/>
<path d="M13.4731 105 L13.4731 5 L12.5065 105 z"/>
<path d="M12.5065 105 L13.4731 5 L12.5065 5 z"/>
<path d="M12.5065 105 L12.5065 5 L11.5143 105 z"/>
<path d="M11.5143 105 L12.5065 5 L11.5143 5 z"/>
<path d="M11.5143 105 L11.5143 5 L10.5065 105 z"/>
<path d="M10.5065 105 L11.5143 5 L10.5065 5 z"/>
<path d="M10.5065 105 L10.5065 5 L9.4935 105 z"/>
<path d="M9.4935 105 L10.5065 5 L9.4935 5 z"/>
<path d="M9.4935 105 L9.4935 5 L8.4857 105 z"/>
<path d="M8.4857 105 L9.4935 5 L8.4857 5 z"/>
<path d="M8.4857 105 L8.4857 5 L7.4935 105 z"/>
<path d="M7.4935 105 L8.4857 5 L7.4935 5 z"/>
<path d="M7.4935 105 L7.4935 5 L6.5269 105 z"/>
<path d="M6.5269 105 L7.4935 5 L6.5269 5 z"/>
<path d="M6.5269 105 L6.5269 5 L5.5961 105 z"/>
<path d="M5.5961 105 L6.5269 5 L5.5961 5 z"/>
<path d="M5.5961 105 L5.5961 5 L4.7104 105 z"/>
<path d="M4.7104 105 L5.5961 5 L4.7104 5 z"/>
<path d="M4.7104 105 L4.7104 5 L3.8789 105 z"/>
<path d="M3.8789 105 L4.7104 5 L3.8789 5 z"/>
<path d="M3.8789 105 L3.8789 5 L3.1103 105 z"/>
<path d="M3.1103 105 L3.8789 5 L3.1103 5 z"/>
<path d="M3.1103 105 L3.1103 5 L2.4124 105 z"/>
<path d="M2.4124 105 L3.1103 5 L2.4124 5 z"/>
<path d="M2.4124 105 L2.4124 5 L1.7924 105 z"/>
<path d="M1.7924 105 L2.4124 5 L1.7924 5 z"/>
<path d="M1.7924 5 L1.34813 87.90101 L1.34813 105 L1.7924 105 z"/>
<path d="M1.34813 87.90101 L1.7924 5 L1.34813 5 z"/>
<path d="M1.34813 87.90101 L1.2565 105 L1.34813 105 z"/>
<path d="M1.34813 87.90101 L1.34813 5 L1.2565 5 L1.2565 105 z"/>
<path d="M1.2565 105 L1.2565 5 L0.8104 105 z"/>
<path d="M0.8104 105 L1.2565 5 L0.8104 5 z"/>
<path d="M0.8104 105 L0.8104 5 L0.4586 105 z"/>
<path d="M0.4586 105 L0.8104 5 L0.4586 5 z"/>
<path d="M0.4586 105 L0.4586 5 L0.2047 105 z"/>
<path d="M0.2047 105 L0.4586 5 L0.2047 5 z"/>
<path d="M0.2047 105 L0.2047 5 L0.0513 105 z"/>
<path d="M0.0513 105 L0.2047 5 L0.0513 5 z"/>
<path d="M0.0513 105 L0.0513 5 L0 105 z"/>
<path d="M0 105 L0.0513 5 L0 5 z"/>
<path d="M0 105 L0 5 L0.0513 105 z"/>
<path d="M0.0513 105 L0 5 L0.0513 5 z"/>
<path d="M0.0513 105 L0.0513 5 L0.2047 105 z"/>
<path d="M0.2047 105 L0.0513 5 L0.2047 5 z"/>
<path d="M0.2047 105 L0.2047 5 L0.4586 105 z"/>
<path d="M0.4586 105 L0.2047 5 L0.4586 5 z"/>
<path d="M0.4586 105 L0.4586 5 L0.8104 105 z"/>
<path d="M0.8104 105 L0.4586 5 L0.8104 5 z"/>
<path d="M0.8104 105 L0.8104 5 L1.2565 105 z"/>
<path d="M1.2565 105 L0.8104 5 L1.2565 5 z"/>
<path d="M1.2565 105 L1.2565 5 L1.7924 105 z"/>
<path d="M1.7924 105 L1.2565 5 L1.7924 5 z"/>
<path d="M1.7924 105 L1.7924 5 L2.4124 105 z"/>
<path d="M2.4124 105 L1.7924 5 L2.4124 5 z"/>
<path d="M2.4124 105 L2.4124 5 L3.1103 105 z"/>
<path d="M3.1103 105 L2.4124 5 L3.1103 5 z"/>
<path d="M3.1103 105 L3.1103 5 L3.8789 105 z"/>
<path d="M3.8789 105 L3.1103 5 L3.8789 5 z"/>
<path d="M3.8789 105 L3.8789 5 L4.7104 105 z"/>
<path d="M4.7104 105 L3.8789 5 L4.7104 5 z"/>
<path d="M4.7104 5 L5 37.6973 L5 105 L4.7104 105 z"/>
<path d="M5 37.6973 L4.7104 5 L5 5 z"/>
<path d="M5 37.6973 L5.5961 105 L5 105 z"/>
<path d="M5 37.6973 L5 5 L5.5961 5 L5.5961 105 z"/>
<path d="M5.5961 105 L5.5961 5 L6.5269 105 z"/>
<path d="M6.5269 105 L5.5961 5 L6.5269 5 z"/>
<path d="M6.5269 105 L6.5269 5 L7.4935 105 z"/>
<path d="M7.4935 105 L6.5269 5 L7.4935 5 z"/>
<path d="M7.4935 105 L7.4935 5 L8.4857 105 z"/>
<path d="M8.4857 105 L7.4935 5 L8.4857 5 z"/>
<path d="M8.4857 105 L8.4857 5 L9.4935 105 z"/>
<path d="M9.4935 105 L8.4857 5 L9.4935 5 z"/>
<path d="M9.4935 105 L9.4935 5 L10.5065 105 z"/>
<path d="M10.5065 105 L9.4935 5 L10.5065 5 z"/>
<path d="M10.5065 105 L10.5065 5 L11.5143 105 z"/>
<path d="M11.5143 105 L10.5065 5 L11.5143 5 z"/>
<path d="M11.5143 105 L11.5143 5 L12.5065 105 z"/>
<path d="M12.5065 105 L11.5143 5 L12.5065 5 z"/>
<path d="M12.5065 105 L12.5065 5 L13.4731 105 z"/>
<path d="M13.4731 105 L12.5065 5 L13.4731 5 z"/>
<path d="M13.4731 105 L13.4731 5 L14.4039 105 z"/>
<path d="M14.4039 105 L13.4731 5 L14.4039 5 z"/>
<path d="M14.4039 105 L14.4039 5 L15.2896 105 z"/>
<path d="M15.2896 105 L14.4039 5 L15.2896 5 z"/>
<path d="M15.2896 105 L15.2896 5 L16.1211 105 z"/>
<path d="M16.1211 105 L15.2896 5 L16.1211 5 z"/>
<path d="M16.1211 105 L16.1211 5 L16.8897 105 z"/>
<path d="M16.8897 105 L16.1211 5 L16.8897 5 z"/>
<path d="M16.8897 105 L16.8897 5 L17.5876 105 z"/>
<path d="M17.5876 105 L16.8897 5 L17.5876 5 z"/>
<path d="M17.5876 105 L17.5876 5 L18.2076 105 z"/>
<path d="M18.2076 105 L17.5876 5 L18.2076 5 z"/>
<path d="M18.2076 5 L18.65187 87.90101 L18.65187 105 L18.2076 105 z"/>
<path d="M18.65187 87.90101 L18.2076 5 L18.65187 5 z"/>
<path d="M18.65187 87.90101 L18.7435 105 L18.65187 105 z"/>
<path d="M18.65187 87.90101 L18.65187 5 L18.7435 5 L18.7435 105 z"/>
<path d="M18.7435 105 L18.7435 5 L19.1896 105 z"/>
<path d="M19.1896 105 L18.7435 5 L19.1896 5 z"/>
<path d="M19.1896 105 L19.1896 5 L19.5414 105 z"/>
<path d="M19.5414 105 L19.1896 5 L19.5414 5 z"/>
<path d="M19.5414 105 L19.5414 5 L19.7953 105 z"/>
<path d="M19.7953 105 L19.5414 5 L19.7953 5 z"/>
<path d="M19.7953 105 L19.7953 5 L19.9487 105 z"/>
<path d="M19.9487 105 L19.7953 5 L19.9487 5 z"/>
<path d="M19.9487 105 L19.9487 5 L20 105 z"/>
<path d="M20 105 L19.9487 5 L20 5 z"/>
<path d="M20 105 L20 5 L19.9487 105 z"/>
<path d="M19.9487 105 L20 5 L19.9487 5 z"/>
<path d="M1.34813 5 L1.7924 5 L4.06393 5 z"/>
<path d="M4.06393 5 L1.7924 5 L2.4124 5 L6.49953 5 z"/>
<path d="M6.49953 5 L2.4124 5 L3.1103 5 L8.34856 5 z"/>
<path d="M8.34856 5 L3.1103 5 L3.8789 5 L9.80684 5 z"/>
<path d="M9.80684 5 L3.8789 5 L4.7104 5 L10.9917 5 z"/>
<path d="M10.9917 5 L4.7104 5 L5.5961 5 L11.97822 5 z"/>
<path d="M11.97822 5 L5.5961 5 L6.5269 5 L12.81626 5 z"/>
<path d="M12.81626 5 L6.5269 5 L7.4935 5 L13.54056 5 z"/>
<path d="M13.54056 5 L7.4935 5 L8.4857 5 L14.1757 5 z"/>
<path d="M14.1757 5 L8.4857 5 L9.4935 5 L14.74002 5 z"/>
<path d="M14.74002 5 L9.4935 5 L10.5065 5 L15.24717 5 z"/>
<path d="M15.24717 5 L10.5065 5 L11.5143 5 L15.70766 5 z"/>
<path d="M15.70766 5 L11.5143 5 L12.5065 5 L16.12971 5 z"/>
<path d="M16.12971 5 L12.5065 5 L13.4731 5 L16.51991 5 z"/>
<path d="M16.51991 5 L13.4731 5 L14.4039 5 L16.88344 5 z"/>
<path d="M16.88344 5 L14.4039 5 L15.2896 5 L17.22474 5 z"/>
<path d="M17.22474 5 L15.2896 5 L16.1211 5 L17.54742 5 z"/>
<path d="M17.54742 5 L16.1211 5 L16.8897 5 L17.85434 5 z"/>
<path d="M17.85434 5 L16.8897 5 L17.5876 5 L18.14821 5 z"/>
<path d="M18.14821 5 L17.5876 5 L18.2076 5 L18.43121 5 z"/>
<path d="M18.43121 5 L18.2076 5 L18.65187 5 z"/>
<path d="M5 5 L4.7104 5 L5 5 z"/>
<path d="M5 5 L4.7104 5 L3.8789 5 L5 5 z"/>
<path d="M5 5 L3.8789 5 L3.1103 5 L5 5 z"/>
<path d="M5 5 L3.1103 5 L2.4124 5 L5 5 z"/>
<path d="M5 5 L2.4124 5 L1.7924 5 L5 5 z"/>
<path d="M5 5 L1.7924 5 L1.2565 5 L5 5 z"/>
<path d="M5 5 L1.2565 5 L0.8104 5 L5 5 z"/>
<path d="M5 5 L0.8104 5 L0.4586 5 L5 5 z"/>
<path d="M5 5 L0.4586 5 L0.2047 5 L5 5 z"/>
<path d="M5 5 L0.2047 5 L0.0513 5 L5 5 z"/>
<path d="M5 5 L0.0513 5 L0 5 L5 5 z"/>
<path d="M5 5 L0 5 L0.0513 5 L5 5 z"/>
<path d="M5 5 L0.0513 5 L0.2047 5 L5 5 z"/>
<path d="M5 5 L0.2047 5 L0.4586 5 L5 5 z"/>
<path d="M5 5 L0.4586 5 L0.8104 5 L5 5 z"/>
<path d="M5 5 L0.8104 5 L1.2565 5 L5 5 z"/>
<path d="M1.34813 5 L4.06393 5 L5 5 L5 5 L1.2565 5 z"/>
<path d="M5 5 L5 5 L4.06393 5 z"/>
<path d="M18.65187 5 L18.2076 5 L18.43121 5 z"/>
<path d="M18.43121 5 L18.2076 5 L17.5876 5 L18.14821 5 z"/>
<path d="M18.14821 5 L17.5876 5 L16.8897 5 L17.85434 5 z"/>
<path d="M17.85434 5 L16.8897 5 L16.1211 5 L17.54742 5 z"/>
<path d="M17.54742 5 L16.1211 5 L15.2896 5 L17.22474 5 z"/>
<path d="M17.22474 5 L15.2896 5 L14.4039 5 L16.88344 5 z"/>
<path d="M16.88344 5 L14.4039 5 L13.4731 5 L16.51991 5 z"/>
<path d="M16.51991 5 L13.4731 5 L12.5065 5 L16.12971 5 z"/>
<path d="M16.12971 5 L12.5065 5 L11.5143 5 L15.70766 5 z"/>
<path d="M15.70766 5 L11.5143 5 L10.5065 5 L15.24717 5 z"/>
<path d="M15.24717 5 L10.5065 5 L9.4935 5 L14.74002 5 z"/>
<path d="M14.74002 5 L9.4935 5 L8.4857 5 L14.1757 5 z"/>
<path d="M14.1757 5 L8.4857 5 L7.4935 5 L13.54056 5 z"/>
<path d="M13.54056 5 L7.4935 5 L6.5269 5 L12.81626 5 z"/>
<path d="M12.81626 5 L6.5269 5 L5.5961 5 L11.97822 5 z"/>
<path d="M5 5 L5 5 L10.9917 5 L11.97822 5 L5.5961 5 z"/>
<path d="M5 5 L9.80684 5 L10.9917 5 L5 5 z"/>
<path d="M5 5 L8.34856 5 L9.80684 5 L5 5 z"/>
<path d="M5 5 L6.49953 5 L8.34856 5 L5 5 z"/>
<path d="M5 5 L6.49953 5 L5 5 z"/>
<path d="M20 5 L19.9487 5 L19.7953 5 z"/>
<path d="M20 5 L19.7953 5 L19.5414 5 z"/>
<path d="M20 5 L19.5414 5 L19.1896 5 z"/>
<path d="M20 5 L19.1896 5 L18.7435 5 z"/>
<path d="M18.7435 5 L18.65187 5 L18.43121 5 L20 5 z"/>
<path d="M18.43121 5 L18.14821 5 L20 5 z"/>
<path d="M18.14821 5 L17.85434 5 L20 5 z"/>
<path d="M17.85434 5 L17.54742 5 L20 5 z"/>
<path d="M17.54742 5 L17.22474 5 L20 5 z"/>
<path d="M17.22474 5 L16.88344 5 L20 5 z"/>
<path d="M16.88344 5 L16.51991 5 L20 5 z"/>
<path d="M16.51991 5 L16.12971 5 L20 5 z"/>
<path d="M16.12971 5 L15.70766 5 L20 5 z"/>
<path d="M15.70766 5 L15.24717 5 L20 5 z"/>
<path d="M15 5 L15 5 L20 5 L15.24717 5 z"/>
<path d="M15 5 L20 5 L15 5 z"/>
<path d="M15 5 L20 5 L15 5 z"/>
<path d="M15 5 L20 5 L15 5 z"/>
<path d="M15 5 L20 5 L15 5 z"/>
<path d="M15 5 L20 5 L15 5 z"/>
<path d="M15 5 L20 5 L15 5 z"/>
<path d="M15 5 L20 5 L15 5 z"/>
<path d="M15 5 L20 5 L15 5 z"/>
<path d="M15 5 L20 5 L15 5 z"/>
<path d="M15 5 L20 5 L15 5 z"/>
<path d="M15 5 L20 5 L15 5 z"/>
<path d="M15 5 L20 5 L15 5 z"/>
<path d="M15 5 L20 5 L15 5 z"/>
<path d="M15 5 L20 5 L15 5 z"/>
<path d="M15 5 L20 5 L15 5 z"/>
<path d="M15 5 L20 5 L15 5 z"/>
<path d="M15 5 L20 5 L15 5 z"/>
<path d="M15 5 L20 5 L15 5 z"/>
<path d="M15 5 L20 5 L15 5 z"/>
<path d="M15 5 L20 5 L15 5 z"/>
<path d="M15 5 L20 5 L15 5 z"/>
<path d="M15 5 L20 5 L15 5 z"/>
<path d="M15 5 L20 5 L15 5 z"/>
<path d="M15 5 L20 5 L15 5 z"/>
<path d="M15 5 L20 5 L15 5 z"/>
<path d="M15 5 L20 5 L15 5 z"/>
<path d="M15 5 L20 5 L15 5 z"/>
<path d="M15 5 L20 5 L15 5 z"/>
<path d="M15 5 L20 5 L15 5 z"/>
<path d="M15 5 L20 5 L15 5 z"/>
<path d="M15 5 L15.24717 5 L20 5 L15 5 z"/>
<path d="M15.24717 5 L15.70766 5 L20 5 z"/>
<path d="M15.70766 5 L16.12971 5 L20 5 z"/>
<path d="M16.12971 5 L16.51991 5 L20 5 z"/>
<path d="M16.51991 5 L16.88344 5 L20 5 z"/>
<path d="M16.88344 5 L17.22474 5 L20 5 z"/>
<path d="M17.22474 5 L17.54742 5 L20 5 z"/>
<path d="M17.54742 5 L17.85434 5 L20 5 z"/>
<path d="M17.85434 5 L18.14821 5 L20 5 z"/>
<path d="M18.14821 5 L18.43121 5 L20 5 z"/>
<path d="M18.43121 5 L18.65187 5 L18.7435 5 L20 5 z"/>
<path d="M20 5 L18.7435 5 L19.1896 5 z"/>
<path d="M20 5 L19.1896 5 L19.5414 5 z"/>
<path d="M20 5 L19.5414 5 L19.7953 5 z"/>
<path d="M20 5 L19.7953 5 L19.9487 5 z"/>
<path d="M15 5 L15 0 L10 5 z"/>
<path d="M5 0 L5 5 L10 5 L15 0 z"/>
<path d="M5 5 L5 0 L5 5 z"/>
<path d="M5 0 L5 5 L5 5 L5 0 z"/>
<path d="M5 5 L5 0 L10 5 z"/>
<path d="M15 0 L15 5 L10 5 L5 0 z"/>
<path d="M15 5 L15 0 L15 5 z"/>
<path d="M15 0 L15 5 L15 5 L15 0 z"/>
<path d="M15 0 L5 0 L5 0 z"/>
<path d="M15 0 L5 0 L15 0 z"/>
<path d="M18.65187 105 L18.2076 105 L18.47156 105 z"/>
<path d="M18.47156 105 L18.2076 105 L17.5876 105 L18.23718 105 z"/>
<path d="M18.23718 105 L17.5876 105 L16.8897 105 L17.99235 105 z"/>
<path d="M17.99235 105 L16.8897 105 L16.1211 105 L17.73504 105 z"/>
<path d="M17.73504 105 L16.1211 105 L15.2896 105 L17.46273 105 z"/>
<path d="M17.46273 105 L15.2896 105 L14.4039 105 L17.17272 105 z"/>
<path d="M17.17272 105 L14.4039 105 L13.4731 105 L16.86153 105 z"/>
<path d="M16.86153 105 L13.4731 105 L12.5065 105 L16.52485 105 z"/>
<path d="M16.52485 105 L12.5065 105 L11.5143 105 L16.15755 105 z"/>
<path d="M16.15755 105 L11.5143 105 L10.5065 105 L15.75302 105 z"/>
<path d="M15.75302 105 L10.5065 105 L9.4935 105 L15.30289 105 z"/>
<path d="M15.30289 105 L9.4935 105 L8.4857 105 L14.79623 105 z"/>
<path d="M14.79623 105 L8.4857 105 L7.4935 105 L14.21857 105 z"/>
<path d="M14.21857 105 L7.4935 105 L6.5269 105 L13.55001 105 z"/>
<path d="M13.55001 105 L6.5269 105 L5.5961 105 L12.76312 105 z"/>
<path d="M12.76312 105 L5.5961 105 L4.7104 105 L11.81795 105 z"/>
<path d="M11.81795 105 L4.7104 105 L3.8789 105 L10.65487 105 z"/>
<path d="M10.65487 105 L3.8789 105 L3.1103 105 L9.17987 105 z"/>
<path d="M9.17987 105 L3.1103 105 L2.4124 105 L7.23695 105 z"/>
<path d="M7.23695 105 L2.4124 105 L1.7924 105 L4.545 105 z"/>
<path d="M4.545 105 L1.7924 105 L1.34813 105 z"/>
<path d="M5 105 L4.545 105 L5 105 z"/>
<path d="M1.34813 105 L1.2565 105 L5 105 L5 105 L4.545 105 z"/>
<path d="M5 105 L1.2565 105 L0.8104 105 L5 105 z"/>
<path d="M5 105 L0.8104 105 L0.4586 105 L5 105 z"/>
<path d="M5 105 L0.4586 105 L0.2047 105 L5 105 z"/>
<path d="M5 105 L0.2047 105 L0.0513 105 L5 105 z"/>
<path d="M5 105 L0.0513 105 L0 105 L5 105 z"/>
<path d="M5 105 L0 105 L0.0513 105 L5 105 z"/>
<path d="M5 105 L0.0513 105 L0.2047 105 L5 105 z"/>
<path d="M5 105 L0.2047 105 L0.4586 105 L5 105 z"/>
<path d="M5 105 L0.4586 105 L0.8104 105 L5 105 z"/>
<path d="M5 105 L0.8104 105 L1.2565 105 L5 105 z"/>
<path d="M5 105 L1.2565 105 L1.7924 105 L5 105 z"/>
<path d="M5 105 L1.7924 105 L2.4124 105 L5 105 z"/>
<path d="M5 105 L2.4124 105 L3.1103 105 L5 105 z"/>
<path d="M5 105 L3.1103 105 L3.8789 105 L5 105 z"/>
<path d="M5 105 L3.8789 105 L4.7104 105 L5 105 z"/>
<path d="M5 105 L4.7104 105 L5 105 z"/>
<path d="M5 105 L5 105 L5.93975 105 z"/>
<path d="M5 105 L7.69297 105 L5.93975 105 L5 105 z"/>
<path d="M5 105 L9.11773 105 L7.69297 105 L5 105 z"/>
<path d="M5 105 L10.30381 105 L9.11773 105 L5 105 z"/>
<path d="M5 105 L5.5961 105 L11.31145 105 L10.30381 105 L5 105 z"/>
<path d="M11.31145 105 L5.5961 105 L6.5269 105 L12.18219 105 z"/>
<path d="M12.18219 105 L6.5269 105 L7.4935 105 L12.94595 105 z"/>
<path d="M12.94595 105 L7.4935 105 L8.4857 105 L13.6244 105 z"/>
<path d="M13.6244 105 L8.4857 105 L9.4935 105 L14.23417 105 z"/>
<path d="M14.23417 105 L9.4935 105 L10.5065 105 L14.78785 105 z"/>
<path d="M14.78785 105 L10.5065 105 L11.5143 105 L15.29532 105 z"/>
<path d="M15.29532 105 L11.5143 105 L12.5065 105 L15.76443 105 z"/>
<path d="M15.76443 105 L12.5065 105 L13.4731 105 L16.2016 105 z"/>
<path d="M16.2016 105 L13.4731 105 L14.4039 105 L16.6119 105 z"/>
<path d="M16.6119 105 L14.4039 105 L15.2896 105 L16.99978 105 z"/>
<path d="M16.99978 105 L15.2896 105 L16.1211 105 L17.36892 105 z"/>
<path d="M17.36892 105 L16.1211 105 L16.8897 105 L17.72223 105 z"/>
<path d="M17.72223 105 L16.8897 105 L17.5876 105 L18.06252 105 z"/>
<path d="M18.06252 105 L17.5876 105 L18.2076 105 L18.39213 105 z"/>
<path d="M18.39213 105 L18.2076 105 L18.65187 105 z"/>
<path d="M19.9487 105 L19.7953 105 L19.5414 105 z"/>
<path d="M19.9487 105 L19.5414 105 L19.1896 105 z"/>
<path d="M19.9487 105 L19.1896 105 L18.7435 105 z"/>
<path d="M18.7435 105 L18.65187 105 L18.47156 105 L19.9487 105 z"/>
<path d="M18.47156 105 L18.23718 105 L19.9487 105 z"/>
<path d="M18.23718 105 L17.99235 105 L19.9487 105 z"/>
<path d="M17.99235 105 L17.73504 105 L19.9487 105 z"/>
<path d="M17.73504 105 L17.46273 105 L19.9487 105 z"/>
<path d="M17.46273 105 L17.17272 105 L19.9487 105 z"/>
<path d="M17.17272 105 L16.86153 105 L19.9487 105 z"/>
<path d="M16.86153 105 L16.52485 105 L19.9487 105 z"/>
<path d="M16.52485 105 L16.15755 105 L19.9487 105 z"/>
<path d="M16.15755 105 L15.75302 105 L19.9487 105 z"/>
<path d="M15.75302 105 L15.30289 105 L19.9487 105 z"/>
<path d="M15 105 L15 105 L19.9487 105 L15.30289 105 z"/>
<path d="M15 105 L19.9487 105 L15 105 z"/>
<path d="M15 105 L19.9487 105 L15 105 z"/>
<path d="M15 105 L19.9487 105 L15 105 z"/>
<path d="M15 105 L19.9487 105 L15 105 z"/>
<path d="M15 105 L19.9487 105 L15 105 z"/>
<path d="M15 105 L19.9487 105 L15 105 z"/>
<path d="M15 105 L19.9487 105 L15 105 z"/>
<path d="M15 105 L19.9487 105 L15 105 z"/>
<path d="M15 105 L19.9487 105 L15 105 z"/>
<path d="M15 105 L19.9487 105 L15 105 z"/>
<path d="M15 105 L19.9487 105 L15 105 z"/>
<path d="M15 105 L19.9487 105 L15 105 z"/>
<path d="M15 105 L19.9487 105 L15 105 z"/>
<path d="M15 105 L19.9487 105 L15 105 z"/>
<path d="M15 105 L19.9487 105 L15 105 z"/>
<path d="M15 105 L19.9487 105 L15 105 z"/>
<path d="M15 105 L19.9487 105 L15 105 z"/>
<path d="M15 105 L19.9487 105 L15 105 z"/>
<path d="M15 105 L19.9487 105 L15 105 z"/>
<path d="M15 105 L19.9487 105 L15 105 z"/>
<path d="M15 105 L19.9487 105 L15 105 z"/>
<path d="M15 105 L19.9487 105 L15 105 z"/>
<path d="M15 105 L19.9487 105 L15 105 z"/>
<path d="M15 105 L19.9487 105 L15 105 z"/>
<path d="M15 105 L19.9487 105 L15 105 z"/>
<path d="M15 105 L19.9487 105 L15 105 z"/>
<path d="M15 105 L19.9487 105 L15 105 z"/>
<path d="M15 105 L19.9487 105 L15 105 z"/>
<path d="M15 105 L19.9487 105 L15 105 z"/>
<path d="M15 105 L19.9487 105 L15 105 z"/>
<path d="M15 105 L15.29532 105 L19.9487 105 L15 105 z"/>
<path d="M15.29532 105 L15.76443 105 L19.9487 105 z"/>
<path d="M15.76443 105 L16.2016 105 L19.9487 105 z"/>
<path d="M16.2016 105 L16.6119 105 L19.9487 105 z"/>
<path d="M16.6119 105 L16.99978 105 L19.9487 105 z"/>
<path d="M16.99978 105 L17.36892 105 L19.9487 105 z"/>
<path d="M17.36892 105 L17.72223 105 L19.9487 105 z"/>
<path d="M17.72223 105 L18.06252 105 L19.9487 105 z"/>
<path d="M18.06252 105 L18.39213 105 L19.9487 105 z"/>
<path d="M18.39213 105 L18.65187 105 L18.7435 105 L19.9487 105 z"/>
<path d="M19.9487 105 L18.7435 105 L19.1896 105 z"/>
<path d="M19.9487 105 L19.1896 105 L19.5414 105 z"/>
<path d="M19.9487 105 L19.5414 105 L19.7953 105 z"/>
<path d="M19.9487 105 L19.7953 105 L19.9487 105 z"/>
<path d="M19.9487 105 L19.9487 105 L20 105 z"/>
<path d="M15 105 L14.79623 105 L15 105 z"/>
<path d="M14.21857 105 L15 105 L15 105 L14.79623 105 z"/>
<path d="M13.55001 105 L15 105 L15 105 L14.21857 105 z"/>
<path d="M12.76312 105 L15 105 L15 105 L13.55001 105 z"/>
<path d="M11.81795 105 L15 105 L15 105 L12.76312 105 z"/>
<path d="M10.65487 105 L15 105 L15 105 L11.81795 105 z"/>
<path d="M9.17987 105 L15 105 L15 105 L10.65487 105 z"/>
<path d="M7.23695 105 L15 105 L15 105 L9.17987 105 z"/>
<path d="M5 105 L15 105 L15 105 L7.23695 105 L5 105 z"/>
<path d="M15 105 L15 105 L5 105 L5 105 z"/>
<path d="M5 105 L15 105 L15 105 L5 105 z"/>
<path d="M5 105 L15 105 L15 105 L5 105 z"/>
<path d="M5 105 L15 105 L15 105 L5 105 z"/>
<path d="M5 105 L15 105 L15 105 L5 105 z"/>
<path d="M5 105 L15 105 L15 105 L5 105 z"/>
<path d="M5 105 L15 105 L15 105 L5 105 z"/>
<path d="M5 105 L15 105 L15 105 L5 105 z"/>
<path d="M5 105 L15 105 L15 105 L5 105 z"/>
<path d="M5 105 L15 105 L15 105 L5 105 z"/>
<path d="M5 105 L15 105 L15 105 L5 105 z"/>
<path d="M5 105 L15 105 L15 105 L5 105 z"/>
<path d="M5.93975 105 L15 105 L15 105 L5 105 L5 105 z"/>
<path d="M15 105 L15 105 L5.93975 105 L7.69297 105 z"/>
<path d="M15 105 L15 105 L7.69297 105 L9.11773 105 z"/>
<path d="M15 105 L15 105 L9.11773 105 L10.30381 105 z"/>
<path d="M15 105 L15 105 L10.30381 105 L11.31145 105 z"/>
<path d="M12.18219 105 L15 105 L15 105 L11.31145 105 z"/>
<path d="M12.94595 105 L15 105 L15 105 L12.18219 105 z"/>
<path d="M13.6244 105 L15 105 L15 105 L12.94595 105 z"/>
<path d="M14.23417 105 L15 105 L15 105 L13.6244 105 z"/>
<path d="M14.78785 105 L15 105 L15 105 L14.23417 105 z"/>
<path d="M15 105 L15 105 L14.78785 105 z"/>
</svg>