solid JSxCAD
facet normal -1 0 0
outer loop
vertex -150 -125 0
vertex -150 -25 9
vertex -150 -25 0
endloop
endfacet
facet normal -1 0 0
outer loop
vertex -150 -125 0
vertex -150 -125 9
vertex -150 -25 9
endloop
endfacet
facet normal -1 0 0
outer loop
vertex -150 -150 0
vertex -150 -125 9
vertex -150 -125 0
endloop
endfacet
facet normal -1 0 0
outer loop
vertex -150 -125 9
vertex -150 -150 0
vertex -150 -150 9
endloop
endfacet
facet normal -1 0 0
outer loop
vertex -150 125 0
vertex -150 150 9
vertex -150 150 0
endloop
endfacet
facet normal -1 0 0
outer loop
vertex -150 125 0
vertex -150 125 9
vertex -150 150 9
endloop
endfacet
facet normal -1 0 0
outer loop
vertex -150 25 0
vertex -150 125 9
vertex -150 125 0
endloop
endfacet
facet normal -1 0 0
outer loop
vertex -150 125 9
vertex -150 25 0
vertex -150 25 9
endloop
endfacet
facet normal 0 1 0
outer loop
vertex -150 -125 0
vertex -25 -125 9
vertex -25 -125 0
endloop
endfacet
facet normal 0 1 0
outer loop
vertex -25 -125 9
vertex -150 -125 0
vertex -150 -125 9
endloop
endfacet
facet normal 0 1 0
outer loop
vertex 25 -125 0
vertex 150 -125 9
vertex 150 -125 0
endloop
endfacet
facet normal 0 1 0
outer loop
vertex 150 -125 9
vertex 25 -125 0
vertex 25 -125 9
endloop
endfacet
facet normal 1 0 0
outer loop
vertex -25 125 0
vertex -25 150 9
vertex -25 125 9
endloop
endfacet
facet normal 1 0 0
outer loop
vertex -25 150 9
vertex -25 125 0
vertex -25 150 0
endloop
endfacet
facet normal 1 0 0
outer loop
vertex -25 -25 0
vertex -25 25 9
vertex -25 -25 9
endloop
endfacet
facet normal 1 0 0
outer loop
vertex -25 25 9
vertex -25 -25 0
vertex -25 25 0
endloop
endfacet
facet normal 1 0 0
outer loop
vertex -25 -150 0
vertex -25 -125 9
vertex -25 -150 9
endloop
endfacet
facet normal 1 0 0
outer loop
vertex -25 -125 9
vertex -25 -150 0
vertex -25 -125 0
endloop
endfacet
facet normal 0 -1 0
outer loop
vertex -150 -150 9
vertex -25 -150 0
vertex -25 -150 9
endloop
endfacet
facet normal 0 -1 0
outer loop
vertex -25 -150 0
vertex -150 -150 9
vertex -150 -150 0
endloop
endfacet
facet normal 0 -1 0
outer loop
vertex 25 -150 9
vertex 150 -150 0
vertex 150 -150 9
endloop
endfacet
facet normal 0 -1 0
outer loop
vertex 150 -150 0
vertex 25 -150 9
vertex 25 -150 0
endloop
endfacet
facet normal -1 0 0
outer loop
vertex 25 -125 0
vertex 25 -150 9
vertex 25 -125 9
endloop
endfacet
facet normal -1 0 0
outer loop
vertex 25 -150 9
vertex 25 -125 0
vertex 25 -150 0
endloop
endfacet
facet normal -1 0 0
outer loop
vertex 25 25 0
vertex 25 -25 9
vertex 25 25 9
endloop
endfacet
facet normal -1 0 0
outer loop
vertex 25 -25 9
vertex 25 25 0
vertex 25 -25 0
endloop
endfacet
facet normal -1 0 0
outer loop
vertex 25 150 0
vertex 25 125 9
vertex 25 150 9
endloop
endfacet
facet normal -1 0 0
outer loop
vertex 25 125 9
vertex 25 150 0
vertex 25 125 0
endloop
endfacet
facet normal 1 0 0
outer loop
vertex 150 -125 9
vertex 150 -25 0
vertex 150 -25 9
endloop
endfacet
facet normal 1 0 0
outer loop
vertex 150 -125 9
vertex 150 -125 0
vertex 150 -25 0
endloop
endfacet
facet normal 1 0 0
outer loop
vertex 150 -150 9
vertex 150 -125 0
vertex 150 -125 9
endloop
endfacet
facet normal 1 0 0
outer loop
vertex 150 -125 0
vertex 150 -150 9
vertex 150 -150 0
endloop
endfacet
facet normal 1 0 0
outer loop
vertex 150 125 9
vertex 150 150 0
vertex 150 150 9
endloop
endfacet
facet normal 1 0 0
outer loop
vertex 150 125 9
vertex 150 125 0
vertex 150 150 0
endloop
endfacet
facet normal 1 0 0
outer loop
vertex 150 25 9
vertex 150 125 0
vertex 150 125 9
endloop
endfacet
facet normal 1 0 0
outer loop
vertex 150 125 0
vertex 150 25 9
vertex 150 25 0
endloop
endfacet
facet normal 0 1 0
outer loop
vertex 125 -25 0
vertex 150 -25 9
vertex 150 -25 0
endloop
endfacet
facet normal 0 1 0
outer loop
vertex 125 -25 0
vertex 125 -25 9
vertex 150 -25 9
endloop
endfacet
facet normal 0 1 0
outer loop
vertex 25 -25 0
vertex 125 -25 9
vertex 125 -25 0
endloop
endfacet
facet normal 0 1 0
outer loop
vertex 25 -25 0
vertex 25 -25 9
vertex 125 -25 9
endloop
endfacet
facet normal 0 1 0
outer loop
vertex -25 -25 0
vertex 25 -25 9
vertex 25 -25 0
endloop
endfacet
facet normal 0 1 0
outer loop
vertex -25 -25 0
vertex -25 -25 9
vertex 25 -25 9
endloop
endfacet
facet normal 0 1 0
outer loop
vertex -125 -25 0
vertex -25 -25 9
vertex -25 -25 0
endloop
endfacet
facet normal 0 1 0
outer loop
vertex -125 -25 0
vertex -125 -25 9
vertex -25 -25 9
endloop
endfacet
facet normal 0 1 0
outer loop
vertex -150 -25 0
vertex -125 -25 9
vertex -125 -25 0
endloop
endfacet
facet normal 0 1 0
outer loop
vertex -125 -25 9
vertex -150 -25 0
vertex -150 -25 9
endloop
endfacet
facet normal 0 -1 0
outer loop
vertex 25 -125 9
vertex 150 -125 0
vertex 150 -125 9
endloop
endfacet
facet normal 0 -1 0
outer loop
vertex 25 -125 9
vertex 25 -125 0
vertex 150 -125 0
endloop
endfacet
facet normal 0 -1 0
outer loop
vertex -25 -125 9
vertex 25 -125 0
vertex 25 -125 9
endloop
endfacet
facet normal 0 -1 0
outer loop
vertex -25 -125 9
vertex -25 -125 0
vertex 25 -125 0
endloop
endfacet
facet normal 0 -1 0
outer loop
vertex -150 -125 9
vertex -25 -125 0
vertex -25 -125 9
endloop
endfacet
facet normal 0 -1 0
outer loop
vertex -25 -125 0
vertex -150 -125 9
vertex -150 -125 0
endloop
endfacet
facet normal -1 0 0
outer loop
vertex -125 -25 0
vertex -125 25 9
vertex -125 25 0
endloop
endfacet
facet normal -1 0 0
outer loop
vertex -125 25 9
vertex -125 -25 0
vertex -125 -25 9
endloop
endfacet
facet normal 0 1 0
outer loop
vertex -125 25 0
vertex -25 25 9
vertex -25 25 0
endloop
endfacet
facet normal 0 1 0
outer loop
vertex -25 25 9
vertex -125 25 0
vertex -125 25 9
endloop
endfacet
facet normal 0 1 0
outer loop
vertex 25 25 0
vertex 125 25 9
vertex 125 25 0
endloop
endfacet
facet normal 0 1 0
outer loop
vertex 125 25 9
vertex 25 25 0
vertex 25 25 9
endloop
endfacet
facet normal 0 -1 0
outer loop
vertex -125 -25 9
vertex -25 -25 0
vertex -25 -25 9
endloop
endfacet
facet normal 0 -1 0
outer loop
vertex -25 -25 0
vertex -125 -25 9
vertex -125 -25 0
endloop
endfacet
facet normal 0 -1 0
outer loop
vertex 25 -25 9
vertex 125 -25 0
vertex 125 -25 9
endloop
endfacet
facet normal 0 -1 0
outer loop
vertex 125 -25 0
vertex 25 -25 9
vertex 25 -25 0
endloop
endfacet
facet normal 1 0 0
outer loop
vertex 125 -25 9
vertex 125 25 0
vertex 125 25 9
endloop
endfacet
facet normal 1 0 0
outer loop
vertex 125 25 0
vertex 125 -25 9
vertex 125 -25 0
endloop
endfacet
facet normal 0 1 0
outer loop
vertex 25 125 0
vertex 150 125 9
vertex 150 125 0
endloop
endfacet
facet normal 0 1 0
outer loop
vertex 25 125 0
vertex 25 125 9
vertex 150 125 9
endloop
endfacet
facet normal 0 1 0
outer loop
vertex -25 125 0
vertex 25 125 9
vertex 25 125 0
endloop
endfacet
facet normal 0 1 0
outer loop
vertex -25 125 0
vertex -25 125 9
vertex 25 125 9
endloop
endfacet
facet normal 0 1 0
outer loop
vertex -150 125 0
vertex -25 125 9
vertex -25 125 0
endloop
endfacet
facet normal 0 1 0
outer loop
vertex -25 125 9
vertex -150 125 0
vertex -150 125 9
endloop
endfacet
facet normal 0 -1 0
outer loop
vertex 125 25 9
vertex 150 25 0
vertex 150 25 9
endloop
endfacet
facet normal 0 -1 0
outer loop
vertex 125 25 9
vertex 125 25 0
vertex 150 25 0
endloop
endfacet
facet normal 0 -1 0
outer loop
vertex 25 25 9
vertex 125 25 0
vertex 125 25 9
endloop
endfacet
facet normal 0 -1 0
outer loop
vertex 25 25 9
vertex 25 25 0
vertex 125 25 0
endloop
endfacet
facet normal 0 -1 0
outer loop
vertex -25 25 9
vertex 25 25 0
vertex 25 25 9
endloop
endfacet
facet normal 0 -1 0
outer loop
vertex -25 25 9
vertex -25 25 0
vertex 25 25 0
endloop
endfacet
facet normal 0 -1 0
outer loop
vertex -125 25 9
vertex -25 25 0
vertex -25 25 9
endloop
endfacet
facet normal 0 -1 0
outer loop
vertex -125 25 9
vertex -125 25 0
vertex -25 25 0
endloop
endfacet
facet normal 0 -1 0
outer loop
vertex -150 25 9
vertex -125 25 0
vertex -125 25 9
endloop
endfacet
facet normal 0 -1 0
outer loop
vertex -125 25 0
vertex -150 25 9
vertex -150 25 0
endloop
endfacet
facet normal 0 1 0
outer loop
vertex -150 150 0
vertex -25 150 9
vertex -25 150 0
endloop
endfacet
facet normal 0 1 0
outer loop
vertex -25 150 9
vertex -150 150 0
vertex -150 150 9
endloop
endfacet
facet normal 0 1 0
outer loop
vertex 25 150 0
vertex 150 150 9
vertex 150 150 0
endloop
endfacet
facet normal 0 1 0
outer loop
vertex 150 150 9
vertex 25 150 0
vertex 25 150 9
endloop
endfacet
facet normal 0 -1 0
outer loop
vertex -150 125 9
vertex -25 125 0
vertex -25 125 9
endloop
endfacet
facet normal 0 -1 0
outer loop
vertex -25 125 0
vertex -150 125 9
vertex -150 125 0
endloop
endfacet
facet normal 0 -1 0
outer loop
vertex 25 125 9
vertex 150 125 0
vertex 150 125 9
endloop
endfacet
facet normal 0 -1 0
outer loop
vertex 150 125 0
vertex 25 125 9
vertex 25 125 0
endloop
endfacet
facet normal 0 0 1
outer loop
vertex -125 25 9
vertex -25 -25 9
vertex -25 25 9
endloop
endfacet
facet normal 0 0 1
outer loop
vertex -25 -25 9
vertex -125 25 9
vertex -125 -25 9
endloop
endfacet
facet normal 0 0 1
outer loop
vertex -150 -125 9
vertex -25 -150 9
vertex -25 -125 9
endloop
endfacet
facet normal 0 0 1
outer loop
vertex -25 -150 9
vertex -150 -125 9
vertex -150 -150 9
endloop
endfacet
facet normal 0 0 1
outer loop
vertex 25 25 9
vertex 125 -25 9
vertex 125 25 9
endloop
endfacet
facet normal 0 0 1
outer loop
vertex 125 -25 9
vertex 25 25 9
vertex 25 -25 9
endloop
endfacet
facet normal 0 0 1
outer loop
vertex 150 125 9
vertex 125 25 9
vertex 150 25 9
endloop
endfacet
facet normal 0 0 1
outer loop
vertex 25 125 9
vertex 125 25 9
vertex 150 125 9
endloop
endfacet
facet normal 0 0 1
outer loop
vertex 25 125 9
vertex 25 25 9
vertex 125 25 9
endloop
endfacet
facet normal 0 0 1
outer loop
vertex -25 125 9
vertex 25 25 9
vertex 25 125 9
endloop
endfacet
facet normal 0 0 1
outer loop
vertex -25 125 9
vertex -25 25 9
vertex 25 25 9
endloop
endfacet
facet normal 0 0 1
outer loop
vertex -25 125 9
vertex -125 25 9
vertex -25 25 9
endloop
endfacet
facet normal 0 0 1
outer loop
vertex -150 125 9
vertex -125 25 9
vertex -25 125 9
endloop
endfacet
facet normal 0 0 1
outer loop
vertex -125 25 9
vertex -150 125 9
vertex -150 25 9
endloop
endfacet
facet normal 0 0 1
outer loop
vertex 25 150 9
vertex 150 125 9
vertex 150 150 9
endloop
endfacet
facet normal 0 0 1
outer loop
vertex 150 125 9
vertex 25 150 9
vertex 25 125 9
endloop
endfacet
facet normal 0 0 1
outer loop
vertex 125 -25 9
vertex 150 -125 9
vertex 150 -25 9
endloop
endfacet
facet normal 0 0 1
outer loop
vertex 25 -25 9
vertex 150 -125 9
vertex 125 -25 9
endloop
endfacet
facet normal 0 0 1
outer loop
vertex 25 -25 9
vertex 25 -125 9
vertex 150 -125 9
endloop
endfacet
facet normal 0 0 1
outer loop
vertex -25 -25 9
vertex 25 -125 9
vertex 25 -25 9
endloop
endfacet
facet normal 0 0 1
outer loop
vertex -25 -25 9
vertex -25 -125 9
vertex 25 -125 9
endloop
endfacet
facet normal 0 0 1
outer loop
vertex -125 -25 9
vertex -25 -125 9
vertex -25 -25 9
endloop
endfacet
facet normal 0 0 1
outer loop
vertex -150 -25 9
vertex -25 -125 9
vertex -125 -25 9
endloop
endfacet
facet normal 0 0 1
outer loop
vertex -25 -125 9
vertex -150 -25 9
vertex -150 -125 9
endloop
endfacet
facet normal 0 0 1
outer loop
vertex 25 -125 9
vertex 150 -150 9
vertex 150 -125 9
endloop
endfacet
facet normal 0 0 1
outer loop
vertex 150 -150 9
vertex 25 -125 9
vertex 25 -150 9
endloop
endfacet
facet normal 0 0 1
outer loop
vertex -25 150 9
vertex -150 125 9
vertex -25 125 9
endloop
endfacet
facet normal 0 0 1
outer loop
vertex -150 125 9
vertex -25 150 9
vertex -150 150 9
endloop
endfacet
facet normal 0 0 -1
outer loop
vertex -150 -150 0
vertex -25 -125 0
vertex -25 -150 0
endloop
endfacet
facet normal 0 0 -1
outer loop
vertex -25 -125 0
vertex -150 -150 0
vertex -150 -125 0
endloop
endfacet
facet normal 0 0 -1
outer loop
vertex -125 -25 0
vertex -25 25 0
vertex -25 -25 0
endloop
endfacet
facet normal 0 0 -1
outer loop
vertex -25 25 0
vertex -125 -25 0
vertex -125 25 0
endloop
endfacet
facet normal 0 0 -1
outer loop
vertex 150 -150 0
vertex 25 -125 0
vertex 150 -125 0
endloop
endfacet
facet normal 0 0 -1
outer loop
vertex 25 -125 0
vertex 150 -150 0
vertex 25 -150 0
endloop
endfacet
facet normal 0 0 -1
outer loop
vertex -150 125 0
vertex -25 150 0
vertex -25 125 0
endloop
endfacet
facet normal 0 0 -1
outer loop
vertex -25 150 0
vertex -150 125 0
vertex -150 150 0
endloop
endfacet
facet normal 0 0 -1
outer loop
vertex 150 125 0
vertex 25 150 0
vertex 150 150 0
endloop
endfacet
facet normal 0 0 -1
outer loop
vertex 25 150 0
vertex 150 125 0
vertex 25 125 0
endloop
endfacet
facet normal 0 0 -1
outer loop
vertex 125 25 0
vertex 150 125 0
vertex 150 25 0
endloop
endfacet
facet normal 0 0 -1
outer loop
vertex 125 25 0
vertex 25 125 0
vertex 150 125 0
endloop
endfacet
facet normal 0 0 -1
outer loop
vertex 25 25 0
vertex 25 125 0
vertex 125 25 0
endloop
endfacet
facet normal 0 0 -1
outer loop
vertex 25 25 0
vertex -25 125 0
vertex 25 125 0
endloop
endfacet
facet normal 0 0 -1
outer loop
vertex -25 25 0
vertex -25 125 0
vertex 25 25 0
endloop
endfacet
facet normal 0 0 -1
outer loop
vertex -125 25 0
vertex -25 125 0
vertex -25 25 0
endloop
endfacet
facet normal 0 0 -1
outer loop
vertex -125 25 0
vertex -150 125 0
vertex -25 125 0
endloop
endfacet
facet normal 0 0 -1
outer loop
vertex -150 125 0
vertex -125 25 0
vertex -150 25 0
endloop
endfacet
facet normal 0 0 -1
outer loop
vertex 125 -25 0
vertex 25 25 0
vertex 125 25 0
endloop
endfacet
facet normal 0 0 -1
outer loop
vertex 25 25 0
vertex 125 -25 0
vertex 25 -25 0
endloop
endfacet
facet normal 0 0 -1
outer loop
vertex 150 -125 0
vertex 125 -25 0
vertex 150 -25 0
endloop
endfacet
facet normal 0 0 -1
outer loop
vertex 150 -125 0
vertex 25 -25 0
vertex 125 -25 0
endloop
endfacet
facet normal 0 0 -1
outer loop
vertex 25 -125 0
vertex 25 -25 0
vertex 150 -125 0
endloop
endfacet
facet normal 0 0 -1
outer loop
vertex 25 -125 0
vertex -25 -25 0
vertex 25 -25 0
endloop
endfacet
facet normal 0 0 -1
outer loop
vertex -25 -125 0
vertex -25 -25 0
vertex 25 -125 0
endloop
endfacet
facet normal 0 0 -1
outer loop
vertex -25 -125 0
vertex -125 -25 0
vertex -25 -25 0
endloop
endfacet
facet normal 0 0 -1
outer loop
vertex -150 -125 0
vertex -125 -25 0
vertex -25 -125 0
endloop
endfacet
facet normal 0 0 -1
outer loop
vertex -125 -25 0
vertex -150 -125 0
vertex -150 -25 0
endloop
endfacet
endsolid JSxCAD
