<?xml version="1.0" encoding="UTF-8"?>
<!-- Generated by jsxcad -->
<!DOCTYPE svg PUBLIC "-//W3C//DTD SVG 1.1 Tiny//EN" "http://www.w3.org/Graphics/SVG/1.1/DTD/svg11-tiny.dtd">
<svg baseProfile="tiny" height="5.90886 mm" width="6 mm" viewBox="0 0 6 5.90886" version="1.1" stroke="black" stroke-width=".1" fill="none" xmlns="http://www.w3.org/2000/svg">
<path d="M5.81907 1.92837 L5.81907 1.92837 L5.29812 1.02606 z"/>
<path d="M5.29812 1.02606 L5.81907 1.92837 L5.29812 1.02606 z"/>
<path d="M5.29812 1.02606 L5.29812 1.02606 L4.5 0.35634 z"/>
<path d="M4.5 0.35634 L5.29812 1.02606 L4.5 0.35634 z"/>
<path d="M4.5 0.35634 L4.5 0.35634 L3.52095 0 z"/>
<path d="M3.52095 0 L4.5 0.35634 L3.52095 0 z"/>
<path d="M3.52095 0 L3.52095 0 L2.47905 0 z"/>
<path d="M2.47905 0 L3.52095 0 L2.47905 0 z"/>
<path d="M2.47905 0 L2.47905 0 L1.5 0.35634 z"/>
<path d="M1.5 0.35634 L2.47905 0 L1.5 0.35634 z"/>
<path d="M1.5 0.35634 L1.5 0.35634 L0.70188 1.02606 z"/>
<path d="M0.70188 1.02606 L1.5 0.35634 L0.70188 1.02606 z"/>
<path d="M0.70188 1.02606 L0.70188 1.02606 L0.18093 1.92837 z"/>
<path d="M0.18093 1.92837 L0.70188 1.02606 L0.18093 1.92837 z"/>
<path d="M0.18093 1.92837 L0.18093 1.92837 L0 2.95443 z"/>
<path d="M0 2.95443 L0.18093 1.92837 L0 2.95443 z"/>
<path d="M0 2.95443 L0 2.95443 L0.18093 3.98049 z"/>
<path d="M0.18093 3.98049 L0 2.95443 L0.18093 3.98049 z"/>
<path d="M0.18093 3.98049 L0.18093 3.98049 L0.70188 4.8828 z"/>
<path d="M0.70188 4.8828 L0.18093 3.98049 L0.70188 4.8828 z"/>
<path d="M0.70188 4.8828 L0.70188 4.8828 L1.5 5.55252 z"/>
<path d="M1.5 5.55252 L0.70188 4.8828 L1.5 5.55252 z"/>
<path d="M1.5 5.55252 L1.5 5.55252 L2.47905 5.90886 z"/>
<path d="M2.47905 5.90886 L1.5 5.55252 L2.47905 5.90886 z"/>
<path d="M2.47905 5.90886 L2.47905 5.90886 L3.52095 5.90886 z"/>
<path d="M3.52095 5.90886 L2.47905 5.90886 L3.52095 5.90886 z"/>
<path d="M3.52095 5.90886 L3.52095 5.90886 L4.5 5.55252 z"/>
<path d="M4.5 5.55252 L3.52095 5.90886 L4.5 5.55252 z"/>
<path d="M4.5 5.55252 L4.5 5.55252 L5.29812 4.8828 z"/>
<path d="M5.29812 4.8828 L4.5 5.55252 L5.29812 4.8828 z"/>
<path d="M5.29812 4.8828 L5.29812 4.8828 L5.81907 3.98049 z"/>
<path d="M5.81907 3.98049 L5.29812 4.8828 L5.81907 3.98049 z"/>
<path d="M5.81907 3.98049 L5.81907 3.98049 L6 2.95443 z"/>
<path d="M6 2.95443 L5.81907 3.98049 L6 2.95443 z"/>
<path d="M6 2.95443 L6 2.95443 L5.81907 1.92837 z"/>
<path d="M5.81907 1.92837 L6 2.95443 L5.81907 1.92837 z"/>
<path d="M6 2.95443 L5.81907 3.98049 L5.29812 4.8828 z"/>
<path d="M6 2.95443 L5.29812 4.8828 L4.5 5.55252 z"/>
<path d="M6 2.95443 L4.5 5.55252 L3.52095 5.90886 z"/>
<path d="M6 2.95443 L3.52095 5.90886 L2.47905 5.90886 z"/>
<path d="M6 2.95443 L2.47905 5.90886 L1.5 5.55252 z"/>
<path d="M6 2.95443 L1.5 5.55252 L0.70188 4.8828 z"/>
<path d="M6 2.95443 L0.70188 4.8828 L0.18093 3.98049 z"/>
<path d="M6 2.95443 L0.18093 3.98049 L0 2.95443 z"/>
<path d="M6 2.95443 L0 2.95443 L0.18093 1.92837 z"/>
<path d="M6 2.95443 L0.18093 1.92837 L0.70188 1.02606 z"/>
<path d="M6 2.95443 L0.70188 1.02606 L1.5 0.35634 z"/>
<path d="M6 2.95443 L1.5 0.35634 L2.47905 0 z"/>
<path d="M6 2.95443 L2.47905 0 L3.52095 0 z"/>
<path d="M6 2.95443 L3.52095 0 L4.5 0.35634 z"/>
<path d="M6 2.95443 L4.5 0.35634 L5.29812 1.02606 z"/>
<path d="M6 2.95443 L5.29812 1.02606 L5.81907 1.92837 z"/>
<path d="M5.81907 1.92837 L5.29812 1.02606 L4.5 0.35634 z"/>
<path d="M5.81907 1.92837 L4.5 0.35634 L3.52095 0 z"/>
<path d="M5.81907 1.92837 L3.52095 0 L2.47905 0 z"/>
<path d="M5.81907 1.92837 L2.47905 0 L1.5 0.35634 z"/>
<path d="M5.81907 1.92837 L1.5 0.35634 L0.70188 1.02606 z"/>
<path d="M5.81907 1.92837 L0.70188 1.02606 L0.18093 1.92837 z"/>
<path d="M5.81907 1.92837 L0.18093 1.92837 L0 2.95443 z"/>
<path d="M5.81907 1.92837 L0 2.95443 L0.18093 3.98049 z"/>
<path d="M5.81907 1.92837 L0.18093 3.98049 L0.70188 4.8828 z"/>
<path d="M5.81907 1.92837 L0.70188 4.8828 L1.5 5.55252 z"/>
<path d="M5.81907 1.92837 L1.5 5.55252 L2.47905 5.90886 z"/>
<path d="M5.81907 1.92837 L2.47905 5.90886 L3.52095 5.90886 z"/>
<path d="M5.81907 1.92837 L3.52095 5.90886 L4.5 5.55252 z"/>
<path d="M5.81907 1.92837 L4.5 5.55252 L5.29812 4.8828 z"/>
<path d="M5.81907 1.92837 L5.29812 4.8828 L5.81907 3.98049 z"/>
<path d="M5.81907 1.92837 L5.81907 3.98049 L6 2.95443 z"/>
</svg>