<svg viewBox="-250 -250 500 500" width="500" height="500" xmlns="http://www.w3.org/2000/svg"><path d="M-541.4563327622182,155.69103103541107L750.4444134631724,145.60460565827003L-562.0978376181981,155.3937824410197z" style="fill:rgb(127,1,148)"/><path d="M-562.0978376181981,155.3937824410197L755.2524381127469,144.61938659246417L-582.6251832120087,150.58900991463855z" style="fill:rgb(114,7,169)"/><path d="M-593.6596291063261,-44.89910877893933L719.8242670214894,-274.7281710710277L-573.919388642268,-51.8252741040868z" style="fill:rgb(96,246,162)"/><path d="M-582.6251832120087,150.58900991463855L759.2362983291715,134.11504173669118L-602.0833822669791,141.2683261324556z" style="fill:rgb(101,18,189)"/><path d="M-611.8579252093472,-33.64243410465057L726.1607612824603,-258.6432428023651L-593.6596291063261,-44.89910877893933z" style="fill:rgb(85,234,182)"/><path d="M-602.0833822669791,141.2683261324556L762.097921304522,113.59746118661887L-619.4851478733938,127.67107086442358z" style="fill:rgb(90,34,206)"/><path d="M-627.574582250068,-18.380798408943615L733.0406445752881,-232.48746080543512L-611.8579252093472,-33.64243410465057z" style="fill:rgb(76,218,200)"/><path d="M-619.4851478733938,127.67107086442358L763.5610617752534,83.21870180664573L-633.8807200702204,110.30620653494832z" style="fill:rgb(80,53,220)"/><path d="M-639.9295726860205,0.30215977508750047L740.1061294254225,-196.87923897697272L-627.574582250068,-18.380798408943615z" style="fill:rgb(69,199,215)"/><path d="M-633.8807200702204,110.30620653494832L763.4153176542552,43.96091977535288L-644.4398969982419,89.94704208276244z" style="fill:rgb(72,76,230)"/><path d="M-648.1802469696561,21.5744017485641L746.9280433740231,-153.33869908793156L-639.9295726860205,0.30215977508750047z" style="fill:rgb(65,176,227)"/><path d="M-644.4398969982419,89.94704208276244L761.5595895810128,-2.2807787694299875L-650.533290694509,67.59222016700807z" style="fill:rgb(66,100,236)"/><path d="M-651.7989238103677,44.39602615654553L753.0476475631148,-104.27522445215605L-648.1802469696561,21.5744017485641z" style="fill:rgb(63,151,234)"/><path d="M-650.533290694509,67.59222016700807L758.0372847865646,-52.78480615271197L-651.7989238103677,44.39602615654553z" style="fill:rgb(63,126,237)"/><path d="M-562.0978376181981,155.3937824410197L750.4444134631724,145.60460565827003L755.2524381127469,144.61938659246417z" style="fill:rgb(127,1,148)"/><path d="M-573.919388642268,-51.8252741040868L719.8242670214894,-274.7281710710277L714.2966502471195,-280.89300089133513z" style="fill:rgb(96,246,162)"/><path d="M-582.6251832120087,150.58900991463855L755.2524381127469,144.61938659246417L759.2362983291715,134.11504173669118z" style="fill:rgb(114,7,169)"/><path d="M-593.6596291063261,-44.89910877893933L726.1607612824603,-258.6432428023651L719.8242670214894,-274.7281710710277z" style="fill:rgb(85,234,182)"/><path d="M-602.0833822669791,141.2683261324556L759.2362983291715,134.11504173669118L762.097921304522,113.59746118661887z" style="fill:rgb(101,18,189)"/><path d="M-611.8579252093472,-33.64243410465057L733.0406445752881,-232.48746080543512L726.1607612824603,-258.6432428023651z" style="fill:rgb(76,218,200)"/><path d="M-619.4851478733938,127.67107086442358L762.097921304522,113.59746118661887L763.5610617752534,83.21870180664573z" style="fill:rgb(90,34,206)"/><path d="M-627.574582250068,-18.380798408943615L740.1061294254225,-196.87923897697272L733.0406445752881,-232.48746080543512z" style="fill:rgb(69,199,215)"/><path d="M-633.8807200702204,110.30620653494832L763.5610617752534,83.21870180664573L763.4153176542552,43.96091977535288z" style="fill:rgb(80,53,220)"/><path d="M-639.9295726860205,0.30215977508750047L746.9280433740231,-153.33869908793156L740.1061294254225,-196.87923897697272z" style="fill:rgb(65,176,227)"/><path d="M-644.4398969982419,89.94704208276244L763.4153176542552,43.96091977535288L761.5595895810128,-2.2807787694299875z" style="fill:rgb(72,76,230)"/><path d="M-648.1802469696561,21.5744017485641L753.0476475631148,-104.27522445215605L746.9280433740231,-153.33869908793156z" style="fill:rgb(63,151,234)"/><path d="M-650.533290694509,67.59222016700807L761.5595895810128,-2.2807787694299875L758.0372847865646,-52.78480615271197z" style="fill:rgb(66,100,236)"/><path d="M-651.7989238103677,44.39602615654553L758.0372847865646,-52.78480615271197L753.0476475631148,-104.27522445215605z" style="fill:rgb(63,126,237)"/></svg>