solid JSxCAD
facet normal 0.9884673664942781 -0.15143402978150763 0
outer loop
vertex 9.9487 -1.0117 -50
vertex 9.9487 -1.0117 50
vertex 9.7953 -2.013 -50
endloop
endfacet
facet normal 0.9884673664942781 -0.15143402978150763 0
outer loop
vertex 9.7953 -2.013 -50
vertex 9.9487 -1.0117 50
vertex 9.7953 -2.013 50
endloop
endfacet
facet normal 0.9680759045257322 -0.2506572222711434 0
outer loop
vertex 9.7953 -2.013 -50
vertex 9.7953 -2.013 50
vertex 9.5414 -2.9936 -50
endloop
endfacet
facet normal 0.9680759045257322 -0.2506572222711434 0
outer loop
vertex 9.5414 -2.9936 -50
vertex 9.7953 -2.013 50
vertex 9.5414 -2.9936 50
endloop
endfacet
facet normal 0.9377654299705044 -0.34726934554065525 0
outer loop
vertex 9.5414 -2.9936 -50
vertex 9.5414 -2.9936 50
vertex 9.1896 -3.9436 -50
endloop
endfacet
facet normal 0.9377654299705044 -0.34726934554065525 0
outer loop
vertex 9.1896 -3.9436 -50
vertex 9.5414 -2.9936 50
vertex 9.1896 -3.9436 50
endloop
endfacet
facet normal 0.8977975118872962 -0.4404084781756368 0
outer loop
vertex 9.1896 -3.9436 -50
vertex 9.1896 -3.9436 50
vertex 8.7435 -4.853 -50
endloop
endfacet
facet normal 0.8977975118872962 -0.4404084781756368 0
outer loop
vertex 8.7435 -4.853 -50
vertex 9.1896 -3.9436 50
vertex 8.7435 -4.853 50
endloop
endfacet
facet normal 0.8486243640961293 -0.5289959249960631 0
outer loop
vertex 8.7435 -4.853 -50
vertex 8.7435 -4.853 50
vertex 8.2076 -5.7127 -50
endloop
endfacet
facet normal 0.8486243640961293 -0.5289959249960631 0
outer loop
vertex 8.2076 -5.7127 -50
vertex 8.7435 -4.853 50
vertex 8.2076 -5.7127 50
endloop
endfacet
facet normal 0.790785366435497 -0.6120935420599344 0
outer loop
vertex 8.2076 -5.7127 -50
vertex 8.2076 -5.7127 50
vertex 7.5876 -6.5137 -50
endloop
endfacet
facet normal 0.790785366435497 -0.6120935420599344 0
outer loop
vertex 7.5876 -6.5137 -50
vertex 8.2076 -5.7127 50
vertex 7.5876 -6.5137 50
endloop
endfacet
facet normal 0.7247972936935737 -0.6889621782467246 0
outer loop
vertex 7.5876 -6.5137 -50
vertex 7.5876 -6.5137 50
vertex 6.8897 -7.2479 -50
endloop
endfacet
facet normal 0.7247972936935737 -0.6889621782467246 0
outer loop
vertex 6.8897 -7.2479 -50
vertex 7.5876 -6.5137 50
vertex 6.8897 -7.2479 50
endloop
endfacet
facet normal 0.6514171184732325 -0.7587198018768394 0
outer loop
vertex 6.8897 -7.2479 -50
vertex 6.8897 -7.2479 50
vertex 6.1211 -7.9078 -50
endloop
endfacet
facet normal 0.6514171184732325 -0.7587198018768394 0
outer loop
vertex 6.1211 -7.9078 -50
vertex 6.8897 -7.2479 50
vertex 6.1211 -7.9078 50
endloop
endfacet
facet normal 0.5711743917810757 -0.8208287362011142 0
outer loop
vertex 6.1211 -7.9078 -50
vertex 6.1211 -7.9078 50
vertex 5.2896 -8.4864 -50
endloop
endfacet
facet normal 0.5711743917810757 -0.8208287362011142 0
outer loop
vertex 5.2896 -8.4864 -50
vertex 6.1211 -7.9078 50
vertex 5.2896 -8.4864 50
endloop
endfacet
facet normal 0.4852992421548238 -0.8743481260710483 0
outer loop
vertex 5.2896 -8.4864 -50
vertex 5.2896 -8.4864 50
vertex 4.4039 -8.978 -50
endloop
endfacet
facet normal 0.4852992421548238 -0.8743481260710483 0
outer loop
vertex 4.4039 -8.978 -50
vertex 5.2896 -8.4864 50
vertex 4.4039 -8.978 50
endloop
endfacet
facet normal 0.39440776319472765 -0.9189355343720971 0
outer loop
vertex 4.4039 -8.978 -50
vertex 4.4039 -8.978 50
vertex 3.4731 -9.3775 -50
endloop
endfacet
facet normal 0.39440776319472765 -0.9189355343720971 0
outer loop
vertex 3.4731 -9.3775 -50
vertex 4.4039 -8.978 50
vertex 3.4731 -9.3775 50
endloop
endfacet
facet normal 0.29938764986343336 -0.954131560692366 0
outer loop
vertex 3.4731 -9.3775 -50
vertex 3.4731 -9.3775 50
vertex 2.5065 -9.6808 -50
endloop
endfacet
facet normal 0.29938764986343336 -0.954131560692366 0
outer loop
vertex 2.5065 -9.6808 -50
vertex 3.4731 -9.3775 50
vertex 2.5065 -9.6808 50
endloop
endfacet
facet normal 0.20129635723627493 -0.97953038572747 0
outer loop
vertex 2.5065 -9.6808 -50
vertex 2.5065 -9.6808 50
vertex 1.5143 -9.8847 -50
endloop
endfacet
facet normal 0.20129635723627493 -0.97953038572747 0
outer loop
vertex 1.5143 -9.8847 -50
vertex 2.5065 -9.6808 50
vertex 1.5143 -9.8847 50
endloop
endfacet
facet normal 0.10118469436460001 -0.9948676583477536 0
outer loop
vertex 1.5143 -9.8847 -50
vertex 1.5143 -9.8847 50
vertex 0.5065 -9.9872 -50
endloop
endfacet
facet normal 0.10118469436460001 -0.9948676583477536 0
outer loop
vertex 0.5065 -9.9872 -50
vertex 1.5143 -9.8847 50
vertex 0.5065 -9.9872 50
endloop
endfacet
facet normal 0 -1 0
outer loop
vertex 0.5065 -9.9872 -50
vertex 0.5065 -9.9872 50
vertex -0.5065 -9.9872 -50
endloop
endfacet
facet normal 0 -1 0
outer loop
vertex -0.5065 -9.9872 -50
vertex 0.5065 -9.9872 50
vertex -0.5065 -9.9872 50
endloop
endfacet
facet normal -0.10118469436460001 -0.9948676583477536 0
outer loop
vertex -0.5065 -9.9872 -50
vertex -0.5065 -9.9872 50
vertex -1.5143 -9.8847 -50
endloop
endfacet
facet normal -0.10118469436460001 -0.9948676583477536 0
outer loop
vertex -1.5143 -9.8847 -50
vertex -0.5065 -9.9872 50
vertex -1.5143 -9.8847 50
endloop
endfacet
facet normal -0.20129635723627493 -0.97953038572747 0
outer loop
vertex -1.5143 -9.8847 -50
vertex -1.5143 -9.8847 50
vertex -2.5065 -9.6808 -50
endloop
endfacet
facet normal -0.20129635723627493 -0.97953038572747 0
outer loop
vertex -2.5065 -9.6808 -50
vertex -1.5143 -9.8847 50
vertex -2.5065 -9.6808 50
endloop
endfacet
facet normal -0.29938764986343336 -0.954131560692366 0
outer loop
vertex -2.5065 -9.6808 -50
vertex -2.5065 -9.6808 50
vertex -3.4731 -9.3775 -50
endloop
endfacet
facet normal -0.29938764986343336 -0.954131560692366 0
outer loop
vertex -3.4731 -9.3775 -50
vertex -2.5065 -9.6808 50
vertex -3.4731 -9.3775 50
endloop
endfacet
facet normal -0.39440776319472765 -0.9189355343720971 0
outer loop
vertex -3.4731 -9.3775 -50
vertex -3.4731 -9.3775 50
vertex -4.4039 -8.978 -50
endloop
endfacet
facet normal -0.39440776319472765 -0.9189355343720971 0
outer loop
vertex -4.4039 -8.978 -50
vertex -3.4731 -9.3775 50
vertex -4.4039 -8.978 50
endloop
endfacet
facet normal -0.4852992421548238 -0.8743481260710483 0
outer loop
vertex -4.4039 -8.978 -50
vertex -4.4039 -8.978 50
vertex -5.2896 -8.4864 -50
endloop
endfacet
facet normal -0.4852992421548238 -0.8743481260710483 0
outer loop
vertex -5.2896 -8.4864 -50
vertex -4.4039 -8.978 50
vertex -5.2896 -8.4864 50
endloop
endfacet
facet normal -0.5711743917810757 -0.8208287362011142 0
outer loop
vertex -5.2896 -8.4864 -50
vertex -5.2896 -8.4864 50
vertex -6.1211 -7.9078 -50
endloop
endfacet
facet normal -0.5711743917810757 -0.8208287362011142 0
outer loop
vertex -6.1211 -7.9078 -50
vertex -5.2896 -8.4864 50
vertex -6.1211 -7.9078 50
endloop
endfacet
facet normal -0.6514171184732325 -0.7587198018768394 0
outer loop
vertex -6.1211 -7.9078 -50
vertex -6.1211 -7.9078 50
vertex -6.8897 -7.2479 -50
endloop
endfacet
facet normal -0.6514171184732325 -0.7587198018768394 0
outer loop
vertex -6.8897 -7.2479 -50
vertex -6.1211 -7.9078 50
vertex -6.8897 -7.2479 50
endloop
endfacet
facet normal -0.7247972936935737 -0.6889621782467246 0
outer loop
vertex -6.8897 -7.2479 -50
vertex -6.8897 -7.2479 50
vertex -7.5876 -6.5137 -50
endloop
endfacet
facet normal -0.7247972936935737 -0.6889621782467246 0
outer loop
vertex -7.5876 -6.5137 -50
vertex -6.8897 -7.2479 50
vertex -7.5876 -6.5137 50
endloop
endfacet
facet normal -0.790785366435497 -0.6120935420599344 0
outer loop
vertex -7.5876 -6.5137 -50
vertex -7.5876 -6.5137 50
vertex -8.2076 -5.7127 -50
endloop
endfacet
facet normal -0.790785366435497 -0.6120935420599344 0
outer loop
vertex -8.2076 -5.7127 -50
vertex -7.5876 -6.5137 50
vertex -8.2076 -5.7127 50
endloop
endfacet
facet normal -0.8486243640961293 -0.5289959249960631 0
outer loop
vertex -8.2076 -5.7127 -50
vertex -8.2076 -5.7127 50
vertex -8.7435 -4.853 -50
endloop
endfacet
facet normal -0.8486243640961293 -0.5289959249960631 0
outer loop
vertex -8.7435 -4.853 -50
vertex -8.2076 -5.7127 50
vertex -8.7435 -4.853 50
endloop
endfacet
facet normal -0.8977975118872962 -0.4404084781756368 0
outer loop
vertex -8.7435 -4.853 -50
vertex -8.7435 -4.853 50
vertex -9.1896 -3.9436 -50
endloop
endfacet
facet normal -0.8977975118872962 -0.4404084781756368 0
outer loop
vertex -9.1896 -3.9436 -50
vertex -8.7435 -4.853 50
vertex -9.1896 -3.9436 50
endloop
endfacet
facet normal -0.9377654299705044 -0.34726934554065525 0
outer loop
vertex -9.1896 -3.9436 -50
vertex -9.1896 -3.9436 50
vertex -9.5414 -2.9936 -50
endloop
endfacet
facet normal -0.9377654299705044 -0.34726934554065525 0
outer loop
vertex -9.5414 -2.9936 -50
vertex -9.1896 -3.9436 50
vertex -9.5414 -2.9936 50
endloop
endfacet
facet normal -0.9680759045257322 -0.2506572222711434 0
outer loop
vertex -9.5414 -2.9936 -50
vertex -9.5414 -2.9936 50
vertex -9.7953 -2.013 -50
endloop
endfacet
facet normal -0.9680759045257322 -0.2506572222711434 0
outer loop
vertex -9.7953 -2.013 -50
vertex -9.5414 -2.9936 50
vertex -9.7953 -2.013 50
endloop
endfacet
facet normal -0.9884673664942781 -0.15143402978150763 0
outer loop
vertex -9.7953 -2.013 -50
vertex -9.7953 -2.013 50
vertex -9.9487 -1.0117 -50
endloop
endfacet
facet normal -0.9884673664942781 -0.15143402978150763 0
outer loop
vertex -9.9487 -1.0117 -50
vertex -9.7953 -2.013 50
vertex -9.9487 -1.0117 50
endloop
endfacet
facet normal -0.9987168875015401 -0.05064166880382373 0
outer loop
vertex -9.9487 -1.0117 -50
vertex -9.9487 -1.0117 50
vertex -10 0 -50
endloop
endfacet
facet normal -0.9987168875015401 -0.05064166880382373 0
outer loop
vertex -10 0 -50
vertex -9.9487 -1.0117 50
vertex -10 0 50
endloop
endfacet
facet normal -0.9987168875015401 0.05064166880382373 0
outer loop
vertex -10 0 -50
vertex -10 0 50
vertex -9.9487 1.0117 -50
endloop
endfacet
facet normal -0.9987168875015401 0.05064166880382373 0
outer loop
vertex -9.9487 1.0117 -50
vertex -10 0 50
vertex -9.9487 1.0117 50
endloop
endfacet
facet normal -0.9884673664942781 0.15143402978150763 0
outer loop
vertex -9.9487 1.0117 -50
vertex -9.9487 1.0117 50
vertex -9.7953 2.013 -50
endloop
endfacet
facet normal -0.9884673664942781 0.15143402978150763 0
outer loop
vertex -9.7953 2.013 -50
vertex -9.9487 1.0117 50
vertex -9.7953 2.013 50
endloop
endfacet
facet normal -0.9680759045257322 0.2506572222711434 0
outer loop
vertex -9.7953 2.013 -50
vertex -9.7953 2.013 50
vertex -9.5414 2.9936 -50
endloop
endfacet
facet normal -0.9680759045257322 0.2506572222711434 0
outer loop
vertex -9.5414 2.9936 -50
vertex -9.7953 2.013 50
vertex -9.5414 2.9936 50
endloop
endfacet
facet normal -0.9377654299705044 0.34726934554065525 0
outer loop
vertex -9.5414 2.9936 -50
vertex -9.5414 2.9936 50
vertex -9.1896 3.9436 -50
endloop
endfacet
facet normal -0.9377654299705044 0.34726934554065525 0
outer loop
vertex -9.1896 3.9436 -50
vertex -9.5414 2.9936 50
vertex -9.1896 3.9436 50
endloop
endfacet
facet normal -0.8977975118872962 0.4404084781756368 0
outer loop
vertex -9.1896 3.9436 -50
vertex -9.1896 3.9436 50
vertex -8.7435 4.853 -50
endloop
endfacet
facet normal -0.8977975118872962 0.4404084781756368 0
outer loop
vertex -8.7435 4.853 -50
vertex -9.1896 3.9436 50
vertex -8.7435 4.853 50
endloop
endfacet
facet normal -0.8486243640961293 0.5289959249960631 0
outer loop
vertex -8.7435 4.853 -50
vertex -8.7435 4.853 50
vertex -8.2076 5.7127 -50
endloop
endfacet
facet normal -0.8486243640961293 0.5289959249960631 0
outer loop
vertex -8.2076 5.7127 -50
vertex -8.7435 4.853 50
vertex -8.2076 5.7127 50
endloop
endfacet
facet normal -0.790785366435497 0.6120935420599344 0
outer loop
vertex -8.2076 5.7127 -50
vertex -8.2076 5.7127 50
vertex -7.5876 6.5137 -50
endloop
endfacet
facet normal -0.790785366435497 0.6120935420599344 0
outer loop
vertex -7.5876 6.5137 -50
vertex -8.2076 5.7127 50
vertex -7.5876 6.5137 50
endloop
endfacet
facet normal -0.7247972936935737 0.6889621782467246 0
outer loop
vertex -7.5876 6.5137 -50
vertex -7.5876 6.5137 50
vertex -6.8897 7.2479 -50
endloop
endfacet
facet normal -0.7247972936935737 0.6889621782467246 0
outer loop
vertex -6.8897 7.2479 -50
vertex -7.5876 6.5137 50
vertex -6.8897 7.2479 50
endloop
endfacet
facet normal -0.6514171184732325 0.7587198018768394 0
outer loop
vertex -6.8897 7.2479 -50
vertex -6.8897 7.2479 50
vertex -6.1211 7.9078 -50
endloop
endfacet
facet normal -0.6514171184732325 0.7587198018768394 0
outer loop
vertex -6.1211 7.9078 -50
vertex -6.8897 7.2479 50
vertex -6.1211 7.9078 50
endloop
endfacet
facet normal -0.5711743917810757 0.8208287362011142 0
outer loop
vertex -6.1211 7.9078 -50
vertex -6.1211 7.9078 50
vertex -5.2896 8.4864 -50
endloop
endfacet
facet normal -0.5711743917810757 0.8208287362011142 0
outer loop
vertex -5.2896 8.4864 -50
vertex -6.1211 7.9078 50
vertex -5.2896 8.4864 50
endloop
endfacet
facet normal -0.4852992421548238 0.8743481260710483 0
outer loop
vertex -5.2896 8.4864 -50
vertex -5.2896 8.4864 50
vertex -4.4039 8.978 -50
endloop
endfacet
facet normal -0.4852992421548238 0.8743481260710483 0
outer loop
vertex -4.4039 8.978 -50
vertex -5.2896 8.4864 50
vertex -4.4039 8.978 50
endloop
endfacet
facet normal -0.39440776319472765 0.9189355343720971 0
outer loop
vertex -4.4039 8.978 -50
vertex -4.4039 8.978 50
vertex -3.4731 9.3775 -50
endloop
endfacet
facet normal -0.39440776319472765 0.9189355343720971 0
outer loop
vertex -3.4731 9.3775 -50
vertex -4.4039 8.978 50
vertex -3.4731 9.3775 50
endloop
endfacet
facet normal -0.29938764986343336 0.954131560692366 0
outer loop
vertex -3.4731 9.3775 -50
vertex -3.4731 9.3775 50
vertex -2.5065 9.6808 -50
endloop
endfacet
facet normal -0.29938764986343336 0.954131560692366 0
outer loop
vertex -2.5065 9.6808 -50
vertex -3.4731 9.3775 50
vertex -2.5065 9.6808 50
endloop
endfacet
facet normal -0.20129635723627493 0.97953038572747 0
outer loop
vertex -2.5065 9.6808 -50
vertex -2.5065 9.6808 50
vertex -1.5143 9.8847 -50
endloop
endfacet
facet normal -0.20129635723627493 0.97953038572747 0
outer loop
vertex -1.5143 9.8847 -50
vertex -2.5065 9.6808 50
vertex -1.5143 9.8847 50
endloop
endfacet
facet normal -0.10118469436460001 0.9948676583477536 0
outer loop
vertex -1.5143 9.8847 -50
vertex -1.5143 9.8847 50
vertex -0.5065 9.9872 -50
endloop
endfacet
facet normal -0.10118469436460001 0.9948676583477536 0
outer loop
vertex -0.5065 9.9872 -50
vertex -1.5143 9.8847 50
vertex -0.5065 9.9872 50
endloop
endfacet
facet normal 0 1 0
outer loop
vertex -0.5065 9.9872 -50
vertex -0.5065 9.9872 50
vertex 0.5065 9.9872 -50
endloop
endfacet
facet normal 0 1 0
outer loop
vertex 0.5065 9.9872 -50
vertex -0.5065 9.9872 50
vertex 0.5065 9.9872 50
endloop
endfacet
facet normal 0.10118469436460001 0.9948676583477536 0
outer loop
vertex 0.5065 9.9872 -50
vertex 0.5065 9.9872 50
vertex 1.5143 9.8847 -50
endloop
endfacet
facet normal 0.10118469436460001 0.9948676583477536 0
outer loop
vertex 1.5143 9.8847 -50
vertex 0.5065 9.9872 50
vertex 1.5143 9.8847 50
endloop
endfacet
facet normal 0.20129635723627493 0.97953038572747 0
outer loop
vertex 1.5143 9.8847 -50
vertex 1.5143 9.8847 50
vertex 2.5065 9.6808 -50
endloop
endfacet
facet normal 0.20129635723627493 0.97953038572747 0
outer loop
vertex 2.5065 9.6808 -50
vertex 1.5143 9.8847 50
vertex 2.5065 9.6808 50
endloop
endfacet
facet normal 0.29938764986343336 0.954131560692366 0
outer loop
vertex 2.5065 9.6808 -50
vertex 2.5065 9.6808 50
vertex 3.4731 9.3775 -50
endloop
endfacet
facet normal 0.29938764986343336 0.954131560692366 0
outer loop
vertex 3.4731 9.3775 -50
vertex 2.5065 9.6808 50
vertex 3.4731 9.3775 50
endloop
endfacet
facet normal 0.39440776319472765 0.9189355343720971 0
outer loop
vertex 3.4731 9.3775 -50
vertex 3.4731 9.3775 50
vertex 4.4039 8.978 -50
endloop
endfacet
facet normal 0.39440776319472765 0.9189355343720971 0
outer loop
vertex 4.4039 8.978 -50
vertex 3.4731 9.3775 50
vertex 4.4039 8.978 50
endloop
endfacet
facet normal 0.4852992421548238 0.8743481260710483 0
outer loop
vertex 4.4039 8.978 -50
vertex 4.4039 8.978 50
vertex 5.2896 8.4864 -50
endloop
endfacet
facet normal 0.4852992421548238 0.8743481260710483 0
outer loop
vertex 5.2896 8.4864 -50
vertex 4.4039 8.978 50
vertex 5.2896 8.4864 50
endloop
endfacet
facet normal 0.5711743917810757 0.8208287362011142 0
outer loop
vertex 5.2896 8.4864 -50
vertex 5.2896 8.4864 50
vertex 6.1211 7.9078 -50
endloop
endfacet
facet normal 0.5711743917810757 0.8208287362011142 0
outer loop
vertex 6.1211 7.9078 -50
vertex 5.2896 8.4864 50
vertex 6.1211 7.9078 50
endloop
endfacet
facet normal 0.6514171184732325 0.7587198018768394 0
outer loop
vertex 6.1211 7.9078 -50
vertex 6.1211 7.9078 50
vertex 6.8897 7.2479 -50
endloop
endfacet
facet normal 0.6514171184732325 0.7587198018768394 0
outer loop
vertex 6.8897 7.2479 -50
vertex 6.1211 7.9078 50
vertex 6.8897 7.2479 50
endloop
endfacet
facet normal 0.7247972936935737 0.6889621782467246 0
outer loop
vertex 6.8897 7.2479 -50
vertex 6.8897 7.2479 50
vertex 7.5876 6.5137 -50
endloop
endfacet
facet normal 0.7247972936935737 0.6889621782467246 0
outer loop
vertex 7.5876 6.5137 -50
vertex 6.8897 7.2479 50
vertex 7.5876 6.5137 50
endloop
endfacet
facet normal 0.790785366435497 0.6120935420599344 0
outer loop
vertex 7.5876 6.5137 -50
vertex 7.5876 6.5137 50
vertex 8.2076 5.7127 -50
endloop
endfacet
facet normal 0.790785366435497 0.6120935420599344 0
outer loop
vertex 8.2076 5.7127 -50
vertex 7.5876 6.5137 50
vertex 8.2076 5.7127 50
endloop
endfacet
facet normal 0.8486243640961293 0.5289959249960631 0
outer loop
vertex 8.2076 5.7127 -50
vertex 8.2076 5.7127 50
vertex 8.7435 4.853 -50
endloop
endfacet
facet normal 0.8486243640961293 0.5289959249960631 0
outer loop
vertex 8.7435 4.853 -50
vertex 8.2076 5.7127 50
vertex 8.7435 4.853 50
endloop
endfacet
facet normal 0.8977975118872962 0.4404084781756368 0
outer loop
vertex 8.7435 4.853 -50
vertex 8.7435 4.853 50
vertex 9.1896 3.9436 -50
endloop
endfacet
facet normal 0.8977975118872962 0.4404084781756368 0
outer loop
vertex 9.1896 3.9436 -50
vertex 8.7435 4.853 50
vertex 9.1896 3.9436 50
endloop
endfacet
facet normal 0.9377654299705044 0.34726934554065525 0
outer loop
vertex 9.1896 3.9436 -50
vertex 9.1896 3.9436 50
vertex 9.5414 2.9936 -50
endloop
endfacet
facet normal 0.9377654299705044 0.34726934554065525 0
outer loop
vertex 9.5414 2.9936 -50
vertex 9.1896 3.9436 50
vertex 9.5414 2.9936 50
endloop
endfacet
facet normal 0.9680759045257322 0.2506572222711434 0
outer loop
vertex 9.5414 2.9936 -50
vertex 9.5414 2.9936 50
vertex 9.7953 2.013 -50
endloop
endfacet
facet normal 0.9680759045257322 0.2506572222711434 0
outer loop
vertex 9.7953 2.013 -50
vertex 9.5414 2.9936 50
vertex 9.7953 2.013 50
endloop
endfacet
facet normal 0.9884673664942781 0.15143402978150763 0
outer loop
vertex 9.7953 2.013 -50
vertex 9.7953 2.013 50
vertex 9.9487 1.0117 -50
endloop
endfacet
facet normal 0.9884673664942781 0.15143402978150763 0
outer loop
vertex 9.9487 1.0117 -50
vertex 9.7953 2.013 50
vertex 9.9487 1.0117 50
endloop
endfacet
facet normal 0.9987168875015401 0.05064166880382373 0
outer loop
vertex 9.9487 1.0117 -50
vertex 9.9487 1.0117 50
vertex 10 0 -50
endloop
endfacet
facet normal 0.9987168875015401 0.05064166880382373 0
outer loop
vertex 10 0 -50
vertex 9.9487 1.0117 50
vertex 10 0 50
endloop
endfacet
facet normal 0.9987168875015401 -0.05064166880382373 0
outer loop
vertex 10 0 -50
vertex 10 0 50
vertex 9.9487 -1.0117 -50
endloop
endfacet
facet normal 0.9987168875015401 -0.05064166880382373 0
outer loop
vertex 9.9487 -1.0117 -50
vertex 10 0 50
vertex 9.9487 -1.0117 50
endloop
endfacet
facet normal 0 0 1
outer loop
vertex 10 0 50
vertex 9.9487 1.0117 50
vertex 9.7953 2.013 50
endloop
endfacet
facet normal 0 0 1
outer loop
vertex 10 0 50
vertex 9.7953 2.013 50
vertex 9.5414 2.9936 50
endloop
endfacet
facet normal 0 0 1
outer loop
vertex 10 0 50
vertex 9.5414 2.9936 50
vertex 9.1896 3.9436 50
endloop
endfacet
facet normal 0 0 1
outer loop
vertex 10 0 50
vertex 9.1896 3.9436 50
vertex 8.7435 4.853 50
endloop
endfacet
facet normal 0 0 1
outer loop
vertex 10 0 50
vertex 8.7435 4.853 50
vertex 8.2076 5.7127 50
endloop
endfacet
facet normal 0 0 1
outer loop
vertex 10 0 50
vertex 8.2076 5.7127 50
vertex 7.5876 6.5137 50
endloop
endfacet
facet normal 0 0 1
outer loop
vertex 10 0 50
vertex 7.5876 6.5137 50
vertex 6.8897 7.2479 50
endloop
endfacet
facet normal 0 0 1
outer loop
vertex 10 0 50
vertex 6.8897 7.2479 50
vertex 6.1211 7.9078 50
endloop
endfacet
facet normal 0 0 1
outer loop
vertex 10 0 50
vertex 6.1211 7.9078 50
vertex 5.2896 8.4864 50
endloop
endfacet
facet normal 0 0 1
outer loop
vertex 10 0 50
vertex 5.2896 8.4864 50
vertex 4.4039 8.978 50
endloop
endfacet
facet normal 0 0 1
outer loop
vertex 10 0 50
vertex 4.4039 8.978 50
vertex 3.4731 9.3775 50
endloop
endfacet
facet normal 0 0 1
outer loop
vertex 10 0 50
vertex 3.4731 9.3775 50
vertex 2.5065 9.6808 50
endloop
endfacet
facet normal 0 0 1
outer loop
vertex 10 0 50
vertex 2.5065 9.6808 50
vertex 1.5143 9.8847 50
endloop
endfacet
facet normal 0 0 1
outer loop
vertex 10 0 50
vertex 1.5143 9.8847 50
vertex 0.5065 9.9872 50
endloop
endfacet
facet normal 0 0 1
outer loop
vertex 10 0 50
vertex 0.5065 9.9872 50
vertex -0.5065 9.9872 50
endloop
endfacet
facet normal 0 0 1
outer loop
vertex 10 0 50
vertex -0.5065 9.9872 50
vertex -1.5143 9.8847 50
endloop
endfacet
facet normal 0 0 1
outer loop
vertex 10 0 50
vertex -1.5143 9.8847 50
vertex -2.5065 9.6808 50
endloop
endfacet
facet normal 0 0 1
outer loop
vertex 10 0 50
vertex -2.5065 9.6808 50
vertex -3.4731 9.3775 50
endloop
endfacet
facet normal 0 0 1
outer loop
vertex 10 0 50
vertex -3.4731 9.3775 50
vertex -4.4039 8.978 50
endloop
endfacet
facet normal 0 0 1
outer loop
vertex 10 0 50
vertex -4.4039 8.978 50
vertex -5.2896 8.4864 50
endloop
endfacet
facet normal 0 0 1
outer loop
vertex 10 0 50
vertex -5.2896 8.4864 50
vertex -6.1211 7.9078 50
endloop
endfacet
facet normal 0 0 1
outer loop
vertex 10 0 50
vertex -6.1211 7.9078 50
vertex -6.8897 7.2479 50
endloop
endfacet
facet normal 0 0 1
outer loop
vertex 10 0 50
vertex -6.8897 7.2479 50
vertex -7.5876 6.5137 50
endloop
endfacet
facet normal 0 0 1
outer loop
vertex 10 0 50
vertex -7.5876 6.5137 50
vertex -8.2076 5.7127 50
endloop
endfacet
facet normal 0 0 1
outer loop
vertex 10 0 50
vertex -8.2076 5.7127 50
vertex -8.7435 4.853 50
endloop
endfacet
facet normal 0 0 1
outer loop
vertex 10 0 50
vertex -8.7435 4.853 50
vertex -9.1896 3.9436 50
endloop
endfacet
facet normal 0 0 1
outer loop
vertex 10 0 50
vertex -9.1896 3.9436 50
vertex -9.5414 2.9936 50
endloop
endfacet
facet normal 0 0 1
outer loop
vertex 10 0 50
vertex -9.5414 2.9936 50
vertex -9.7953 2.013 50
endloop
endfacet
facet normal 0 0 1
outer loop
vertex 10 0 50
vertex -9.7953 2.013 50
vertex -9.9487 1.0117 50
endloop
endfacet
facet normal 0 0 1
outer loop
vertex 10 0 50
vertex -9.9487 1.0117 50
vertex -10 0 50
endloop
endfacet
facet normal 0 0 1
outer loop
vertex 10 0 50
vertex -10 0 50
vertex -9.9487 -1.0117 50
endloop
endfacet
facet normal 0 0 1
outer loop
vertex 10 0 50
vertex -9.9487 -1.0117 50
vertex -9.7953 -2.013 50
endloop
endfacet
facet normal 0 0 1
outer loop
vertex 10 0 50
vertex -9.7953 -2.013 50
vertex -9.5414 -2.9936 50
endloop
endfacet
facet normal 0 0 1
outer loop
vertex 10 0 50
vertex -9.5414 -2.9936 50
vertex -9.1896 -3.9436 50
endloop
endfacet
facet normal 0 0 1
outer loop
vertex 10 0 50
vertex -9.1896 -3.9436 50
vertex -8.7435 -4.853 50
endloop
endfacet
facet normal 0 0 1
outer loop
vertex 10 0 50
vertex -8.7435 -4.853 50
vertex -8.2076 -5.7127 50
endloop
endfacet
facet normal 0 0 1
outer loop
vertex 10 0 50
vertex -8.2076 -5.7127 50
vertex -7.5876 -6.5137 50
endloop
endfacet
facet normal 0 0 1
outer loop
vertex 10 0 50
vertex -7.5876 -6.5137 50
vertex -6.8897 -7.2479 50
endloop
endfacet
facet normal 0 0 1
outer loop
vertex 10 0 50
vertex -6.8897 -7.2479 50
vertex -6.1211 -7.9078 50
endloop
endfacet
facet normal 0 0 1
outer loop
vertex 10 0 50
vertex -6.1211 -7.9078 50
vertex -5.2896 -8.4864 50
endloop
endfacet
facet normal 0 0 1
outer loop
vertex 10 0 50
vertex -5.2896 -8.4864 50
vertex -4.4039 -8.978 50
endloop
endfacet
facet normal 0 0 1
outer loop
vertex 10 0 50
vertex -4.4039 -8.978 50
vertex -3.4731 -9.3775 50
endloop
endfacet
facet normal 0 0 1
outer loop
vertex 10 0 50
vertex -3.4731 -9.3775 50
vertex -2.5065 -9.6808 50
endloop
endfacet
facet normal 0 0 1
outer loop
vertex 10 0 50
vertex -2.5065 -9.6808 50
vertex -1.5143 -9.8847 50
endloop
endfacet
facet normal 0 0 1
outer loop
vertex 10 0 50
vertex -1.5143 -9.8847 50
vertex -0.5065 -9.9872 50
endloop
endfacet
facet normal 0 0 1
outer loop
vertex 10 0 50
vertex -0.5065 -9.9872 50
vertex 0.5065 -9.9872 50
endloop
endfacet
facet normal 0 0 1
outer loop
vertex 10 0 50
vertex 0.5065 -9.9872 50
vertex 1.5143 -9.8847 50
endloop
endfacet
facet normal 0 0 1
outer loop
vertex 10 0 50
vertex 1.5143 -9.8847 50
vertex 2.5065 -9.6808 50
endloop
endfacet
facet normal 0 0 1
outer loop
vertex 10 0 50
vertex 2.5065 -9.6808 50
vertex 3.4731 -9.3775 50
endloop
endfacet
facet normal 0 0 1
outer loop
vertex 10 0 50
vertex 3.4731 -9.3775 50
vertex 4.4039 -8.978 50
endloop
endfacet
facet normal 0 0 1
outer loop
vertex 10 0 50
vertex 4.4039 -8.978 50
vertex 5.2896 -8.4864 50
endloop
endfacet
facet normal 0 0 1
outer loop
vertex 10 0 50
vertex 5.2896 -8.4864 50
vertex 6.1211 -7.9078 50
endloop
endfacet
facet normal 0 0 1
outer loop
vertex 10 0 50
vertex 6.1211 -7.9078 50
vertex 6.8897 -7.2479 50
endloop
endfacet
facet normal 0 0 1
outer loop
vertex 10 0 50
vertex 6.8897 -7.2479 50
vertex 7.5876 -6.5137 50
endloop
endfacet
facet normal 0 0 1
outer loop
vertex 10 0 50
vertex 7.5876 -6.5137 50
vertex 8.2076 -5.7127 50
endloop
endfacet
facet normal 0 0 1
outer loop
vertex 10 0 50
vertex 8.2076 -5.7127 50
vertex 8.7435 -4.853 50
endloop
endfacet
facet normal 0 0 1
outer loop
vertex 10 0 50
vertex 8.7435 -4.853 50
vertex 9.1896 -3.9436 50
endloop
endfacet
facet normal 0 0 1
outer loop
vertex 10 0 50
vertex 9.1896 -3.9436 50
vertex 9.5414 -2.9936 50
endloop
endfacet
facet normal 0 0 1
outer loop
vertex 10 0 50
vertex 9.5414 -2.9936 50
vertex 9.7953 -2.013 50
endloop
endfacet
facet normal 0 0 1
outer loop
vertex 10 0 50
vertex 9.7953 -2.013 50
vertex 9.9487 -1.0117 50
endloop
endfacet
facet normal 0 0 -1
outer loop
vertex 9.9487 -1.0117 -50
vertex 9.7953 -2.013 -50
vertex 9.5414 -2.9936 -50
endloop
endfacet
facet normal 0 0 -1
outer loop
vertex 9.9487 -1.0117 -50
vertex 9.5414 -2.9936 -50
vertex 9.1896 -3.9436 -50
endloop
endfacet
facet normal 0 0 -1
outer loop
vertex 9.9487 -1.0117 -50
vertex 9.1896 -3.9436 -50
vertex 8.7435 -4.853 -50
endloop
endfacet
facet normal 0 0 -1
outer loop
vertex 9.9487 -1.0117 -50
vertex 8.7435 -4.853 -50
vertex 8.2076 -5.7127 -50
endloop
endfacet
facet normal 0 0 -1
outer loop
vertex 9.9487 -1.0117 -50
vertex 8.2076 -5.7127 -50
vertex 7.5876 -6.5137 -50
endloop
endfacet
facet normal 0 0 -1
outer loop
vertex 9.9487 -1.0117 -50
vertex 7.5876 -6.5137 -50
vertex 6.8897 -7.2479 -50
endloop
endfacet
facet normal 0 0 -1
outer loop
vertex 9.9487 -1.0117 -50
vertex 6.8897 -7.2479 -50
vertex 6.1211 -7.9078 -50
endloop
endfacet
facet normal 0 0 -1
outer loop
vertex 9.9487 -1.0117 -50
vertex 6.1211 -7.9078 -50
vertex 5.2896 -8.4864 -50
endloop
endfacet
facet normal 0 0 -1
outer loop
vertex 9.9487 -1.0117 -50
vertex 5.2896 -8.4864 -50
vertex 4.4039 -8.978 -50
endloop
endfacet
facet normal 0 0 -1
outer loop
vertex 9.9487 -1.0117 -50
vertex 4.4039 -8.978 -50
vertex 3.4731 -9.3775 -50
endloop
endfacet
facet normal 0 0 -1
outer loop
vertex 9.9487 -1.0117 -50
vertex 3.4731 -9.3775 -50
vertex 2.5065 -9.6808 -50
endloop
endfacet
facet normal 0 0 -1
outer loop
vertex 9.9487 -1.0117 -50
vertex 2.5065 -9.6808 -50
vertex 1.5143 -9.8847 -50
endloop
endfacet
facet normal 0 0 -1
outer loop
vertex 9.9487 -1.0117 -50
vertex 1.5143 -9.8847 -50
vertex 0.5065 -9.9872 -50
endloop
endfacet
facet normal 0 0 -1
outer loop
vertex 9.9487 -1.0117 -50
vertex 0.5065 -9.9872 -50
vertex -0.5065 -9.9872 -50
endloop
endfacet
facet normal 0 0 -1
outer loop
vertex 9.9487 -1.0117 -50
vertex -0.5065 -9.9872 -50
vertex -1.5143 -9.8847 -50
endloop
endfacet
facet normal 0 0 -1
outer loop
vertex 9.9487 -1.0117 -50
vertex -1.5143 -9.8847 -50
vertex -2.5065 -9.6808 -50
endloop
endfacet
facet normal 0 0 -1
outer loop
vertex 9.9487 -1.0117 -50
vertex -2.5065 -9.6808 -50
vertex -3.4731 -9.3775 -50
endloop
endfacet
facet normal 0 0 -1
outer loop
vertex 9.9487 -1.0117 -50
vertex -3.4731 -9.3775 -50
vertex -4.4039 -8.978 -50
endloop
endfacet
facet normal 0 0 -1
outer loop
vertex 9.9487 -1.0117 -50
vertex -4.4039 -8.978 -50
vertex -5.2896 -8.4864 -50
endloop
endfacet
facet normal 0 0 -1
outer loop
vertex 9.9487 -1.0117 -50
vertex -5.2896 -8.4864 -50
vertex -6.1211 -7.9078 -50
endloop
endfacet
facet normal 0 0 -1
outer loop
vertex 9.9487 -1.0117 -50
vertex -6.1211 -7.9078 -50
vertex -6.8897 -7.2479 -50
endloop
endfacet
facet normal 0 0 -1
outer loop
vertex 9.9487 -1.0117 -50
vertex -6.8897 -7.2479 -50
vertex -7.5876 -6.5137 -50
endloop
endfacet
facet normal 0 0 -1
outer loop
vertex 9.9487 -1.0117 -50
vertex -7.5876 -6.5137 -50
vertex -8.2076 -5.7127 -50
endloop
endfacet
facet normal 0 0 -1
outer loop
vertex 9.9487 -1.0117 -50
vertex -8.2076 -5.7127 -50
vertex -8.7435 -4.853 -50
endloop
endfacet
facet normal 0 0 -1
outer loop
vertex 9.9487 -1.0117 -50
vertex -8.7435 -4.853 -50
vertex -9.1896 -3.9436 -50
endloop
endfacet
facet normal 0 0 -1
outer loop
vertex 9.9487 -1.0117 -50
vertex -9.1896 -3.9436 -50
vertex -9.5414 -2.9936 -50
endloop
endfacet
facet normal 0 0 -1
outer loop
vertex 9.9487 -1.0117 -50
vertex -9.5414 -2.9936 -50
vertex -9.7953 -2.013 -50
endloop
endfacet
facet normal 0 0 -1
outer loop
vertex 9.9487 -1.0117 -50
vertex -9.7953 -2.013 -50
vertex -9.9487 -1.0117 -50
endloop
endfacet
facet normal 0 0 -1
outer loop
vertex 9.9487 -1.0117 -50
vertex -9.9487 -1.0117 -50
vertex -10 0 -50
endloop
endfacet
facet normal 0 0 -1
outer loop
vertex 9.9487 -1.0117 -50
vertex -10 0 -50
vertex -9.9487 1.0117 -50
endloop
endfacet
facet normal 0 0 -1
outer loop
vertex 9.9487 -1.0117 -50
vertex -9.9487 1.0117 -50
vertex -9.7953 2.013 -50
endloop
endfacet
facet normal 0 0 -1
outer loop
vertex 9.9487 -1.0117 -50
vertex -9.7953 2.013 -50
vertex -9.5414 2.9936 -50
endloop
endfacet
facet normal 0 0 -1
outer loop
vertex 9.9487 -1.0117 -50
vertex -9.5414 2.9936 -50
vertex -9.1896 3.9436 -50
endloop
endfacet
facet normal 0 0 -1
outer loop
vertex 9.9487 -1.0117 -50
vertex -9.1896 3.9436 -50
vertex -8.7435 4.853 -50
endloop
endfacet
facet normal 0 0 -1
outer loop
vertex 9.9487 -1.0117 -50
vertex -8.7435 4.853 -50
vertex -8.2076 5.7127 -50
endloop
endfacet
facet normal 0 0 -1
outer loop
vertex 9.9487 -1.0117 -50
vertex -8.2076 5.7127 -50
vertex -7.5876 6.5137 -50
endloop
endfacet
facet normal 0 0 -1
outer loop
vertex 9.9487 -1.0117 -50
vertex -7.5876 6.5137 -50
vertex -6.8897 7.2479 -50
endloop
endfacet
facet normal 0 0 -1
outer loop
vertex 9.9487 -1.0117 -50
vertex -6.8897 7.2479 -50
vertex -6.1211 7.9078 -50
endloop
endfacet
facet normal 0 0 -1
outer loop
vertex 9.9487 -1.0117 -50
vertex -6.1211 7.9078 -50
vertex -5.2896 8.4864 -50
endloop
endfacet
facet normal 0 0 -1
outer loop
vertex 9.9487 -1.0117 -50
vertex -5.2896 8.4864 -50
vertex -4.4039 8.978 -50
endloop
endfacet
facet normal 0 0 -1
outer loop
vertex 9.9487 -1.0117 -50
vertex -4.4039 8.978 -50
vertex -3.4731 9.3775 -50
endloop
endfacet
facet normal 0 0 -1
outer loop
vertex 9.9487 -1.0117 -50
vertex -3.4731 9.3775 -50
vertex -2.5065 9.6808 -50
endloop
endfacet
facet normal 0 0 -1
outer loop
vertex 9.9487 -1.0117 -50
vertex -2.5065 9.6808 -50
vertex -1.5143 9.8847 -50
endloop
endfacet
facet normal 0 0 -1
outer loop
vertex 9.9487 -1.0117 -50
vertex -1.5143 9.8847 -50
vertex -0.5065 9.9872 -50
endloop
endfacet
facet normal 0 0 -1
outer loop
vertex 9.9487 -1.0117 -50
vertex -0.5065 9.9872 -50
vertex 0.5065 9.9872 -50
endloop
endfacet
facet normal 0 0 -1
outer loop
vertex 9.9487 -1.0117 -50
vertex 0.5065 9.9872 -50
vertex 1.5143 9.8847 -50
endloop
endfacet
facet normal 0 0 -1
outer loop
vertex 9.9487 -1.0117 -50
vertex 1.5143 9.8847 -50
vertex 2.5065 9.6808 -50
endloop
endfacet
facet normal 0 0 -1
outer loop
vertex 9.9487 -1.0117 -50
vertex 2.5065 9.6808 -50
vertex 3.4731 9.3775 -50
endloop
endfacet
facet normal 0 0 -1
outer loop
vertex 9.9487 -1.0117 -50
vertex 3.4731 9.3775 -50
vertex 4.4039 8.978 -50
endloop
endfacet
facet normal 0 0 -1
outer loop
vertex 9.9487 -1.0117 -50
vertex 4.4039 8.978 -50
vertex 5.2896 8.4864 -50
endloop
endfacet
facet normal 0 0 -1
outer loop
vertex 9.9487 -1.0117 -50
vertex 5.2896 8.4864 -50
vertex 6.1211 7.9078 -50
endloop
endfacet
facet normal 0 0 -1
outer loop
vertex 9.9487 -1.0117 -50
vertex 6.1211 7.9078 -50
vertex 6.8897 7.2479 -50
endloop
endfacet
facet normal 0 0 -1
outer loop
vertex 9.9487 -1.0117 -50
vertex 6.8897 7.2479 -50
vertex 7.5876 6.5137 -50
endloop
endfacet
facet normal 0 0 -1
outer loop
vertex 9.9487 -1.0117 -50
vertex 7.5876 6.5137 -50
vertex 8.2076 5.7127 -50
endloop
endfacet
facet normal 0 0 -1
outer loop
vertex 9.9487 -1.0117 -50
vertex 8.2076 5.7127 -50
vertex 8.7435 4.853 -50
endloop
endfacet
facet normal 0 0 -1
outer loop
vertex 9.9487 -1.0117 -50
vertex 8.7435 4.853 -50
vertex 9.1896 3.9436 -50
endloop
endfacet
facet normal 0 0 -1
outer loop
vertex 9.9487 -1.0117 -50
vertex 9.1896 3.9436 -50
vertex 9.5414 2.9936 -50
endloop
endfacet
facet normal 0 0 -1
outer loop
vertex 9.9487 -1.0117 -50
vertex 9.5414 2.9936 -50
vertex 9.7953 2.013 -50
endloop
endfacet
facet normal 0 0 -1
outer loop
vertex 9.9487 -1.0117 -50
vertex 9.7953 2.013 -50
vertex 9.9487 1.0117 -50
endloop
endfacet
facet normal 0 0 -1
outer loop
vertex 9.9487 -1.0117 -50
vertex 9.9487 1.0117 -50
vertex 10 0 -50
endloop
endfacet
endsolid JSxCAD
