<svg viewBox="-250 -250 500 500" width="500" height="500" xmlns="http://www.w3.org/2000/svg"><path d="M83.47275504291486,132.18950274545344L-14.566570229310779,-115.35450309405395L83.80033495212525,133.5241234452989z" style="fill:rgb(246,171,139)"/><path d="M33.66183060663274,154.11817956298563L-69.78222678224351,-91.91014737063819L32.93973982368291,152.945266170613z" style="fill:rgb(11,75,140)"/><path d="M83.80033495212525,133.5241234452989L-14.473775629858046,-114.56061621904504L83.86263122187987,134.9522096426043z" style="fill:rgb(246,166,151)"/><path d="M34.638249913923204,155.17109720132328L-68.98458685419493,-91.41308868830207L33.66183060663274,154.11817956298563z" style="fill:rgb(15,71,152)"/><path d="M83.86263122187987,134.9522096426043L-14.67079975546079,-113.6563951057347L83.65701695421247,136.45953207917944z" style="fill:rgb(245,161,162)"/><path d="M35.860644616184054,156.09212638492272L-67.90913313125073,-91.04688022849776L34.638249913923204,155.17109720132328z" style="fill:rgb(20,68,163)"/><path d="M83.65701695421247,136.45953207917944L-15.157975516060562,-112.65041638064027L83.18376076467173,138.03077204881166z" style="fill:rgb(242,155,174)"/><path d="M37.317894745786866,156.8706883925399L-66.5650196599213,-90.81638117210954L35.860644616184054,156.09212638492272z" style="fill:rgb(26,66,175)"/><path d="M83.18376076467173,138.03077204881166L-15.932411006765827,-111.55247455049722L82.4460043162971,139.64977854870838z" style="fill:rgb(239,149,184)"/><path d="M-12.964850031284444,-5.9648075362489L52.62320462504517,157.76481525344477L54.399306225804246,157.39496687862822z" style="fill:rgb(102,71,239)"/><path d="M38.996221005668424,157.49750116458603L-64.96452929165412,-90.72510168853799L37.317894745786866,156.8706883925399z" style="fill:rgb(32,65,185)"/><path d="M82.4460043162971,139.64977854870838L-16.98806720332804,-110.37352013045627L81.44987901920598,141.2995353671034z" style="fill:rgb(234,143,195)"/><path d="M40.879137605631215,157.9648678808201L-63.12288258794886,-90.775054701981L38.996221005668424,157.49750116458603z" style="fill:rgb(40,64,196)"/><path d="M81.44987901920598,141.2995353671034L-18.315776095034966,-109.12564432096939L80.20446413704035,142.96258902675916z" style="fill:rgb(228,137,204)"/><path d="M42.94767252652588,158.2668033950969L-61.05835731522518,-90.96663822264709L40.879137605631215,157.9648678808201z" style="fill:rgb(49,63,205)"/><path d="M80.20446413704035,142.96258902675916L-19.903008456274616,-107.82176451614791L78.72172620485519,144.62104687634047z" style="fill:rgb(221,130,213)"/><path d="M45.180622261686466,158.3991105904727L-58.79188171955284,-91.29867479850589L42.94767252652588,158.2668033950969z" style="fill:rgb(58,64,214)"/><path d="M78.72172620485519,144.62104687634047L-21.7342640127583,-106.47569480106257L77.01651651935813,146.25693967821806z" style="fill:rgb(213,124,221)"/><path d="M47.55460760516053,158.35944828380607L-56.34702271782816,-91.76837097323241L45.180622261686466,158.3991105904727z" style="fill:rgb(69,65,222)"/><path d="M77.01651651935813,146.25693967821806L-23.790946348776483,-105.10180595339854L75.10639076455074,147.85230877439614z" style="fill:rgb(204,117,228)"/><path d="M50.04439367986391,158.14745610516218L-53.74969721410317,-92.37126026590202L47.55460760516053,158.35944828380607z" style="fill:rgb(79,66,228)"/><path d="M75.10639076455074,147.85230877439614L-26.05174507020632,-103.71508841671756L73.01136160544415,149.38954057850782z" style="fill:rgb(195,111,234)"/><path d="M52.62320462504517,157.76481525344477L-51.02782610797953,-93.10126603595522L50.04439367986391,158.14745610516218z" style="fill:rgb(91,68,234)"/><path d="M73.01136160544415,149.38954057850782L-28.492650215259417,-102.33070572635015L70.75379743295225,150.85160188566158z" style="fill:rgb(184,105,239)"/><path d="M-48.21097707530404,-93.95083658317867L54.399306225804246,157.39496687862822L55.263092919943794,157.21509880627926z" style="fill:rgb(102,71,239)"/><path d="M70.75379743295225,150.85160188566158L-31.08739335200872,-100.96396025714988L68.35808805029413,152.22221957576272z" style="fill:rgb(174,99,242)"/><path d="M57.935140379090065,156.50391261390686L-45.33011010394813,-94.9109156326264L55.263092919943794,157.21509880627926z" style="fill:rgb(114,75,243)"/><path d="M68.35808805029413,152.22221957576272L-33.807705034057065,-99.6300327417382L65.85037701511324,153.48612890435345z" style="fill:rgb(162,93,245)"/><path d="M60.60999122533992,155.63884183115545L-42.41704035748082,-95.971024328959L57.935140379090065,156.50391261390686z" style="fill:rgb(126,79,245)"/><path d="M65.85037701511324,153.48612890435345L-36.62364268215489,-98.34378005631179L63.258154196116095,154.62921453027855z" style="fill:rgb(151,88,246)"/><path d="M63.258154196116095,154.62921453027855L-39.504078494263915,-97.11954715166237L60.60999122533992,155.63884183115545z" style="fill:rgb(139,83,246)"/><path d="M32.93973982368291,152.945266170613L-69.78222678224351,-91.91014737063819L-70.29599607430426,-92.53185198701277z" style="fill:rgb(11,75,140)"/><path d="M83.80033495212525,133.5241234452989L-14.566570229310779,-115.35450309405395L-14.473775629858046,-114.56061621904504z" style="fill:rgb(246,171,139)"/><path d="M33.66183060663274,154.11817956298563L-68.98458685419493,-91.41308868830207L-69.78222678224351,-91.91014737063819z" style="fill:rgb(15,71,152)"/><path d="M83.86263122187987,134.9522096426043L-14.473775629858046,-114.56061621904504L-14.67079975546079,-113.6563951057347z" style="fill:rgb(246,166,151)"/><path d="M34.638249913923204,155.17109720132328L-67.90913313125073,-91.04688022849776L-68.98458685419493,-91.41308868830207z" style="fill:rgb(20,68,163)"/><path d="M83.65701695421247,136.45953207917944L-14.67079975546079,-113.6563951057347L-15.157975516060562,-112.65041638064027z" style="fill:rgb(245,161,162)"/><path d="M35.860644616184054,156.09212638492272L-66.5650196599213,-90.81638117210954L-67.90913313125073,-91.04688022849776z" style="fill:rgb(26,66,175)"/><path d="M83.18376076467173,138.03077204881166L-15.157975516060562,-112.65041638064027L-15.932411006765827,-111.55247455049722z" style="fill:rgb(242,155,174)"/><path d="M-15.91052323974758,-116.7225845151252L-42.73405366196131,-112.1899357114417L-45.49352730483764,-111.0998986570241zM-15.91052323974758,-116.7225845151252L-45.49352730483764,-111.0998986570241L-48.22395620494191,-109.94187173549032zM-15.91052323974758,-116.7225845151252L-39.97160054244608,-113.20164686879883L-42.73405366196131,-112.1899357114417zM-15.91052323974758,-116.7225845151252L-48.22395620494191,-109.94187173549032L-50.89949439872093,-108.72678882911869zM-15.91052323974758,-116.7225845151252L-37.232315284700746,-114.12539674540369L-39.97160054244608,-113.20164686879883zM-15.91052323974758,-116.7225845151252L-50.89949439872093,-108.72678882911869L-53.49475176125926,-107.46606672882295z" style="fill:rgb(82,237,172)"/><path d="M37.317894745786866,156.8706883925399L-64.96452929165412,-90.72510168853799L-66.5650196599213,-90.81638117210954z" style="fill:rgb(32,65,185)"/><path d="M-15.91052323974758,-116.7225845151252L-34.542293655897616,-114.95219729250752L-37.232315284700746,-114.12539674540369z" style="fill:rgb(82,237,172)"/><path d="M82.4460043162971,139.64977854870838L-15.932411006765827,-111.55247455049722L-16.98806720332804,-110.37352013045627z" style="fill:rgb(239,149,184)"/><path d="M-15.91052323974758,-116.7225845151252L-53.49475176125926,-107.46606672882295L-55.984920630524364,-106.17156265877048z" style="fill:rgb(82,237,172)"/><path d="M-12.964850031284444,-5.9648075362489L-51.02782610797953,-93.10126603595522L52.62320462504517,157.76481525344477zM-48.21097707530404,-93.95083658317867L-12.964850031284444,-5.9648075362489L54.399306225804246,157.39496687862822z" style="fill:rgb(102,71,239)"/><path d="M-15.91052323974758,-116.7225845151252L-31.927188634274295,-115.67395001317095L-34.542293655897616,-114.95219729250752zM-15.91052323974758,-116.7225845151252L-55.984920630524364,-106.17156265877048L-58.346008137299535,-104.85557030082684zM-15.91052323974758,-116.7225845151252L-29.412285381562516,-116.28335467323402L-31.927188634274295,-115.67395001317095zM-15.91052323974758,-116.7225845151252L-58.346008137299535,-104.85557030082684L-60.555008661424914,-103.53052086154915z" style="fill:rgb(82,237,172)"/><path d="M38.996221005668424,157.49750116458603L-63.12288258794886,-90.775054701981L-64.96452929165412,-90.72510168853799z" style="fill:rgb(40,64,196)"/><path d="M81.44987901920598,141.2995353671034L-16.98806720332804,-110.37352013045627L-18.315776095034966,-109.12564432096939z" style="fill:rgb(234,143,195)"/><path d="M-15.91052323974758,-116.7225845151252L-27.022098034471064,-116.77414236789095L-29.412285381562516,-116.28335467323402zM-15.91052323974758,-116.7225845151252L-60.555008661424914,-103.53052086154915L-62.590034436866546,-102.20913309720562zM-15.91052323974758,-116.7225845151252L-24.780316239657573,-117.14097625201055L-27.022098034471064,-116.77414236789095zM-15.91052323974758,-116.7225845151252L-62.590034436866546,-102.20913309720562L-64.43064986127894,-100.90410224164462z" style="fill:rgb(82,237,172)"/><path d="M40.879137605631215,157.9648678808201L-61.05835731522518,-90.96663822264709L-63.12288258794886,-90.775054701981z" style="fill:rgb(49,63,205)"/><path d="M80.20446413704035,142.96258902675916L-18.315776095034966,-109.12564432096939L-19.903008456274616,-107.82176451614791z" style="fill:rgb(228,137,204)"/><path d="M-15.91052323974758,-116.7225845151252L-22.709502007660618,-117.3796054223399L-24.780316239657573,-117.14097625201055zM-15.91052323974758,-116.7225845151252L-64.43064986127894,-100.90410224164462L-66.05787133869714,-99.62826830410306z" style="fill:rgb(82,237,172)"/><path d="M42.94767252652588,158.2668033950969L-58.79188171955284,-91.29867479850589L-61.05835731522518,-90.96663822264709z" style="fill:rgb(58,64,214)"/><path d="M78.72172620485519,144.62104687634047L-19.903008456274616,-107.82176451614791L-21.7342640127583,-106.47569480106257z" style="fill:rgb(221,130,213)"/><path d="M-15.91052323974758,-116.7225845151252L-20.830848901309118,-117.48692535143446L-22.709502007660618,-117.3796054223399zM-15.91052323974758,-116.7225845151252L-66.05787133869714,-99.62826830410306L-67.45455426758134,-98.39422071456836z" style="fill:rgb(82,237,172)"/><path d="M45.180622261686466,158.3991105904727L-56.34702271782816,-91.76837097323241L-58.79188171955284,-91.29867479850589z" style="fill:rgb(69,65,222)"/><path d="M-15.91052323974758,-116.7225845151252L-19.164150694272017,-117.46101311259788L-20.830848901309118,-117.48692535143446zM-15.91052323974758,-116.7225845151252L-67.45455426758134,-98.39422071456836L-68.605375449101,-97.21438268849862z" style="fill:rgb(82,237,172)"/><path d="M77.01651651935813,146.25693967821806L-21.7342640127583,-106.47569480106257L-23.790946348776483,-105.10180595339854z" style="fill:rgb(213,124,221)"/><path d="M47.55460760516053,158.35944828380607L-53.74969721410317,-92.37126026590202L-56.34702271782816,-91.76837097323241z" style="fill:rgb(79,66,228)"/><path d="M-15.91052323974758,-116.7225845151252L-17.72734467761,-117.30120946932755L-19.164150694272017,-117.46101311259788z" style="fill:rgb(82,237,172)"/><path d="M75.10639076455074,147.85230877439614L-23.790946348776483,-105.10180595339854L-26.05174507020632,-103.71508841671756z" style="fill:rgb(204,117,228)"/><path d="M-15.91052323974758,-116.7225845151252L-68.605375449101,-97.21438268849862L-69.49720306473631,-96.10081683849845z" style="fill:rgb(82,237,172)"/><path d="M50.04439367986391,158.14745610516218L-51.02782610797953,-93.10126603595522L-53.74969721410317,-92.37126026590202z" style="fill:rgb(91,68,234)"/><path d="M73.01136160544415,149.38954057850782L-26.05174507020632,-103.71508841671756L-28.492650215259417,-102.33070572635015z" style="fill:rgb(195,111,234)"/><path d="M-15.91052323974758,-116.7225845151252L-16.536514033720458,-117.00805704919264L-17.72734467761,-117.30120946932755zM-15.91052323974758,-116.7225845151252L-69.49720306473631,-96.10081683849845L-70.11919118314242,-95.06511518828609z" style="fill:rgb(82,237,172)"/><path d="M70.75379743295225,150.85160188566158L-28.492650215259417,-102.33070572635015L-31.08739335200872,-100.96396025714988z" style="fill:rgb(184,105,239)"/><path d="M55.263092919943794,157.21509880627926L-45.33011010394813,-94.9109156326264L-48.21097707530404,-93.95083658317867z" style="fill:rgb(114,75,243)"/><path d="M68.35808805029413,152.22221957576272L-31.08739335200872,-100.96396025714988L-33.807705034057065,-99.6300327417382z" style="fill:rgb(174,99,242)"/><path d="M-15.91052323974758,-116.7225845151252L-70.11919118314242,-95.06511518828609L-70.46299829638825,-94.1182957508911z" style="fill:rgb(82,237,172)"/><path d="M57.935140379090065,156.50391261390686L-42.41704035748082,-95.971024328959L-45.33011010394813,-94.9109156326264z" style="fill:rgb(126,79,245)"/><path d="M65.85037701511324,153.48612890435345L-33.807705034057065,-99.6300327417382L-36.62364268215489,-98.34378005631179z" style="fill:rgb(162,93,245)"/><path d="M60.60999122533992,155.63884183115545L-39.504078494263915,-97.11954715166237L-42.41704035748082,-95.971024328959z" style="fill:rgb(139,83,246)"/><path d="M63.258154196116095,154.62921453027855L-36.62364268215489,-98.34378005631179L-39.504078494263915,-97.11954715166237z" style="fill:rgb(151,88,246)"/><path d="M-15.91052323974758,-116.7225845151252L-70.46299829638825,-94.1182957508911L-70.52292081964798,-93.27072520050584zM-15.91052323974758,-116.7225845151252L-70.52292081964798,-93.27072520050584L-70.29599607430426,-92.53185198701277zM-15.91052323974758,-116.7225845151252L-70.29599607430426,-92.53185198701277L-69.78222678224351,-91.91014737063819zM-15.91052323974758,-116.7225845151252L-69.78222678224351,-91.91014737063819L-68.98458685419493,-91.41308868830207zM-19.903008456274616,-107.82176451614791L-15.605524584796965,-116.58350270296445L-15.91052323974758,-116.7225845151252zM-15.91052323974758,-116.7225845151252L-68.98458685419493,-91.41308868830207L-67.90913313125073,-91.04688022849776zM-19.903008456274616,-107.82176451614791L-14.9458990475301,-116.03076872269841L-15.605524584796965,-116.58350270296445zM-15.91052323974758,-116.7225845151252L-67.90913313125073,-91.04688022849776L-66.5650196599213,-90.81638117210954zM-19.903008456274616,-107.82176451614791L-14.566570229310779,-115.35450309405395L-14.9458990475301,-116.03076872269841zM-15.91052323974758,-116.7225845151252L-66.5650196599213,-90.81638117210954L-64.96452929165412,-90.72510168853799zM-19.903008456274616,-107.82176451614791L-14.473775629858046,-114.56061621904504L-14.566570229310779,-115.35450309405395zM-15.91052323974758,-116.7225845151252L-64.96452929165412,-90.72510168853799L-63.12288258794886,-90.775054701981zM-19.903008456274616,-107.82176451614791L-14.67079975546079,-113.6563951057347L-14.473775629858046,-114.56061621904504zM-15.91052323974758,-116.7225845151252L-63.12288258794886,-90.775054701981L-61.05835731522518,-90.96663822264709zM-19.903008456274616,-107.82176451614791L-15.157975516060562,-112.65041638064027L-14.67079975546079,-113.6563951057347zM-15.91052323974758,-116.7225845151252L-61.05835731522518,-90.96663822264709L-58.79188171955284,-91.29867479850589zM-15.91052323974758,-116.7225845151252L-58.79188171955284,-91.29867479850589L-56.34702271782816,-91.76837097323241zM-19.903008456274616,-107.82176451614791L-15.91052323974758,-116.7225845151252L-49.132723430797434,-93.6728300532285zM-19.903008456274616,-107.82176451614791L-15.932411006765827,-111.55247455049722L-15.157975516060562,-112.65041638064027zM-15.91052323974758,-116.7225845151252L-56.34702271782816,-91.76837097323241L-53.74969721410317,-92.37126026590202zM-44.98734167855252,-167.63210483403088L-65.38541677772032,-164.20016343129808L-85.3617628572296,-151.81702646570727z" style="fill:rgb(82,237,172)"/><path d="M-12.964850031284444,-5.9648075362489L-49.132723430797434,-93.6728300532285L-51.02782610797953,-93.10126603595522z" style="fill:rgb(102,71,239)"/><path d="M-15.91052323974758,-116.7225845151252L-53.74969721410317,-92.37126026590202L-51.02782610797953,-93.10126603595522z" style="fill:rgb(82,237,172)"/><path d="M-12.964850031284444,-5.9648075362489L-48.21097707530404,-93.95083658317867L-49.132723430797434,-93.6728300532285z" style="fill:rgb(102,71,239)"/><path d="M-19.903008456274616,-107.82176451614791L-16.98806720332804,-110.37352013045627L-15.932411006765827,-111.55247455049722zM-15.91052323974758,-116.7225845151252L-51.02782610797953,-93.10126603595522L-49.132723430797434,-93.6728300532285zM-19.903008456274616,-107.82176451614791L-18.315776095034966,-109.12564432096939L-16.98806720332804,-110.37352013045627zM-19.903008456274616,-107.82176451614791L-23.790946348776483,-105.10180595339854L-21.7342640127583,-106.47569480106257z" style="fill:rgb(82,237,172)"/><path d="M-33.75224973259797,-139.51789201017857L-44.98734167855252,-167.63210483403088L-53.36200327420034,-126.55413964514895z" style="fill:rgb(217,127,217)"/><path d="M-19.903008456274616,-107.82176451614791L-26.05174507020632,-103.71508841671756L-23.790946348776483,-105.10180595339854zM-19.903008456274616,-107.82176451614791L-28.492650215259417,-102.33070572635015L-26.05174507020632,-103.71508841671756z" style="fill:rgb(82,237,172)"/><path d="M-73.74133918033668,-123.94362742886824L-65.0128826810369,-155.048643065562L-85.3617628572296,-151.81702646570727z" style="fill:rgb(49,63,205)"/><path d="M-19.903008456274616,-107.82176451614791L-31.08739335200872,-100.96396025714988L-28.492650215259417,-102.33070572635015zM-19.903008456274616,-107.82176451614791L-49.132723430797434,-93.6728300532285L-48.21097707530404,-93.95083658317867zM-19.903008456274616,-107.82176451614791L-33.807705034057065,-99.6300327417382L-31.08739335200872,-100.96396025714988zM-19.903008456274616,-107.82176451614791L-48.21097707530404,-93.95083658317867L-45.33011010394813,-94.9109156326264zM-19.903008456274616,-107.82176451614791L-36.62364268215489,-98.34378005631179L-33.807705034057065,-99.6300327417382zM-19.903008456274616,-107.82176451614791L-45.33011010394813,-94.9109156326264L-42.41704035748082,-95.971024328959zM-19.903008456274616,-107.82176451614791L-39.504078494263915,-97.11954715166237L-36.62364268215489,-98.34378005631179zM-19.903008456274616,-107.82176451614791L-42.41704035748082,-95.971024328959L-39.504078494263915,-97.11954715166237z" style="fill:rgb(82,237,172)"/><path d="M-53.36200327420034,-126.55413964514895L-65.0128826810369,-155.048643065562L-73.74133918033668,-123.94362742886824z" style="fill:rgb(49,63,205)"/><path d="M-44.98734167855252,-167.63210483403088L-85.3617628572296,-151.81702646570727L-65.0128826810369,-155.048643065562z" style="fill:rgb(82,237,172)"/><path d="M-53.36200327420034,-126.55413964514895L-44.98734167855252,-167.63210483403088L-65.0128826810369,-155.048643065562z" style="fill:rgb(217,127,217)"/></svg>