<?xml version="1.0" encoding="UTF-8"?>
<!-- Generated by jsxcad -->
<!DOCTYPE svg PUBLIC "-//W3C//DTD SVG 1.1 Tiny//EN" "http://www.w3.org/Graphics/SVG/1.1/DTD/svg11-tiny.dtd">
<svg baseProfile="tiny" height="115 mm" width="20 mm" viewBox="0 0 20 115" version="1.1" stroke="black" stroke-width=".1" fill="none" xmlns="http://www.w3.org/2000/svg">
<path d="M15 10 L15 0 L5 10 z"/>
<path d="M5 10 L15 0 L5 0 z"/>
<path d="M18.2076 115 L18.65187 115 L18.65187 32.09899 z"/>
<path d="M18.2076 15 L18.2076 115 L18.65187 32.09899 L18.65187 15 z"/>
<path d="M18.2076 115 L18.2076 15 L17.5876 115 z"/>
<path d="M17.5876 115 L18.2076 15 L17.5876 15 z"/>
<path d="M17.5876 115 L17.5876 15 L16.8897 115 z"/>
<path d="M16.8897 115 L17.5876 15 L16.8897 15 z"/>
<path d="M16.8897 115 L16.8897 15 L16.1211 115 z"/>
<path d="M16.1211 115 L16.8897 15 L16.1211 15 z"/>
<path d="M16.1211 115 L16.1211 15 L15.2896 115 z"/>
<path d="M15.2896 115 L16.1211 15 L15.2896 15 z"/>
<path d="M15.2896 115 L15.2896 15 L14.4039 115 z"/>
<path d="M14.4039 115 L15.2896 15 L14.4039 15 z"/>
<path d="M14.4039 115 L14.4039 15 L13.4731 115 z"/>
<path d="M13.4731 115 L14.4039 15 L13.4731 15 z"/>
<path d="M13.4731 115 L13.4731 15 L12.5065 115 z"/>
<path d="M12.5065 115 L13.4731 15 L12.5065 15 z"/>
<path d="M12.5065 115 L12.5065 15 L11.5143 115 z"/>
<path d="M11.5143 115 L12.5065 15 L11.5143 15 z"/>
<path d="M11.5143 115 L11.5143 15 L10.5065 115 z"/>
<path d="M10.5065 115 L11.5143 15 L10.5065 15 z"/>
<path d="M10.5065 115 L10.5065 15 L9.4935 115 z"/>
<path d="M9.4935 115 L10.5065 15 L9.4935 15 z"/>
<path d="M9.4935 115 L9.4935 15 L8.4857 115 z"/>
<path d="M8.4857 115 L9.4935 15 L8.4857 15 z"/>
<path d="M8.4857 115 L8.4857 15 L7.4935 115 z"/>
<path d="M7.4935 115 L8.4857 15 L7.4935 15 z"/>
<path d="M7.4935 115 L7.4935 15 L6.5269 115 z"/>
<path d="M6.5269 115 L7.4935 15 L6.5269 15 z"/>
<path d="M6.5269 115 L6.5269 15 L5.5961 115 z"/>
<path d="M5.5961 115 L6.5269 15 L5.5961 15 z"/>
<path d="M5.5961 115 L5.5961 15 L4.7104 115 z"/>
<path d="M4.7104 115 L5.5961 15 L4.7104 15 z"/>
<path d="M4.7104 115 L4.7104 15 L3.8789 115 z"/>
<path d="M3.8789 115 L4.7104 15 L3.8789 15 z"/>
<path d="M3.8789 115 L3.8789 15 L3.1103 115 z"/>
<path d="M3.1103 115 L3.8789 15 L3.1103 15 z"/>
<path d="M3.1103 115 L3.1103 15 L2.4124 115 z"/>
<path d="M2.4124 115 L3.1103 15 L2.4124 15 z"/>
<path d="M2.4124 115 L2.4124 15 L1.7924 115 z"/>
<path d="M1.7924 115 L2.4124 15 L1.7924 15 z"/>
<path d="M1.34813 115 L1.7924 115 L1.7924 15 L1.34813 97.90101 z"/>
<path d="M1.34813 97.90101 L1.7924 15 L1.34813 15 z"/>
<path d="M1.7924 15 L4.06393 15 L1.34813 15 z"/>
<path d="M2.4124 15 L6.49953 15 L4.06393 15 L1.7924 15 z"/>
<path d="M3.1103 15 L8.34856 15 L6.49953 15 L2.4124 15 z"/>
<path d="M3.8789 15 L9.80684 15 L8.34856 15 L3.1103 15 z"/>
<path d="M4.7104 15 L10.9917 15 L9.80684 15 L3.8789 15 z"/>
<path d="M5.5961 15 L11.97822 15 L10.9917 15 L4.7104 15 z"/>
<path d="M6.5269 15 L12.81626 15 L11.97822 15 L5.5961 15 z"/>
<path d="M7.4935 15 L13.54056 15 L12.81626 15 L6.5269 15 z"/>
<path d="M8.4857 15 L14.1757 15 L13.54056 15 L7.4935 15 z"/>
<path d="M9.4935 15 L14.74002 15 L14.1757 15 L8.4857 15 z"/>
<path d="M10.5065 15 L15.24717 15 L14.74002 15 L9.4935 15 z"/>
<path d="M11.5143 15 L15.70766 15 L15.24717 15 L10.5065 15 z"/>
<path d="M12.5065 15 L16.12971 15 L15.70766 15 L11.5143 15 z"/>
<path d="M13.4731 15 L16.51991 15 L16.12971 15 L12.5065 15 z"/>
<path d="M14.4039 15 L16.88344 15 L16.51991 15 L13.4731 15 z"/>
<path d="M15.2896 15 L17.22474 15 L16.88344 15 L14.4039 15 z"/>
<path d="M16.1211 15 L17.54742 15 L17.22474 15 L15.2896 15 z"/>
<path d="M16.8897 15 L17.85434 15 L17.54742 15 L16.1211 15 z"/>
<path d="M17.5876 15 L18.14821 15 L17.85434 15 L16.8897 15 z"/>
<path d="M18.2076 15 L18.43121 15 L18.14821 15 L17.5876 15 z"/>
<path d="M18.43121 15 L18.2076 15 L18.65187 15 z"/>
<path d="M18.2076 115 L18.47156 115 L18.65187 115 z"/>
<path d="M17.5876 115 L18.23718 115 L18.47156 115 L18.2076 115 z"/>
<path d="M16.8897 115 L17.99235 115 L18.23718 115 L17.5876 115 z"/>
<path d="M16.1211 115 L17.73504 115 L17.99235 115 L16.8897 115 z"/>
<path d="M15.2896 115 L17.46273 115 L17.73504 115 L16.1211 115 z"/>
<path d="M14.4039 115 L17.17272 115 L17.46273 115 L15.2896 115 z"/>
<path d="M13.4731 115 L16.86153 115 L17.17272 115 L14.4039 115 z"/>
<path d="M12.5065 115 L16.52485 115 L16.86153 115 L13.4731 115 z"/>
<path d="M11.5143 115 L16.15755 115 L16.52485 115 L12.5065 115 z"/>
<path d="M10.5065 115 L15.75302 115 L16.15755 115 L11.5143 115 z"/>
<path d="M9.4935 115 L15.30289 115 L15.75302 115 L10.5065 115 z"/>
<path d="M8.4857 115 L14.79623 115 L15.30289 115 L9.4935 115 z"/>
<path d="M7.4935 115 L14.21857 115 L14.79623 115 L8.4857 115 z"/>
<path d="M6.5269 115 L13.55001 115 L14.21857 115 L7.4935 115 z"/>
<path d="M5.5961 115 L12.76312 115 L13.55001 115 L6.5269 115 z"/>
<path d="M4.7104 115 L11.81795 115 L12.76312 115 L5.5961 115 z"/>
<path d="M3.8789 115 L10.65487 115 L11.81795 115 L4.7104 115 z"/>
<path d="M3.1103 115 L9.17987 115 L10.65487 115 L3.8789 115 z"/>
<path d="M2.4124 115 L7.23695 115 L9.17987 115 L3.1103 115 z"/>
<path d="M1.7924 115 L4.545 115 L7.23695 115 L2.4124 115 z"/>
<path d="M4.545 115 L1.7924 115 L1.34813 115 z"/>
<path d="M5 10 L5 0 L5 10 z"/>
<path d="M5 10 L5 0 L5 0 z"/>
<path d="M1.2565 115 L1.34813 115 L1.34813 97.90101 z"/>
<path d="M1.2565 15 L1.2565 115 L1.34813 97.90101 L1.34813 15 z"/>
<path d="M1.2565 115 L1.2565 15 L0.8104 115 z"/>
<path d="M0.8104 115 L1.2565 15 L0.8104 15 z"/>
<path d="M0.8104 115 L0.8104 15 L0.4586 115 z"/>
<path d="M0.4586 115 L0.8104 15 L0.4586 15 z"/>
<path d="M0.4586 115 L0.4586 15 L0.2047 115 z"/>
<path d="M0.2047 115 L0.4586 15 L0.2047 15 z"/>
<path d="M0.2047 115 L0.2047 15 L0.0513 115 z"/>
<path d="M0.0513 115 L0.2047 15 L0.0513 15 z"/>
<path d="M0.0513 115 L0.0513 15 L0 115 z"/>
<path d="M0 115 L0.0513 15 L0 15 z"/>
<path d="M0 115 L0 15 L0.0513 115 z"/>
<path d="M0.0513 115 L0 15 L0.0513 15 z"/>
<path d="M0.0513 115 L0.0513 15 L0.2047 115 z"/>
<path d="M0.2047 115 L0.0513 15 L0.2047 15 z"/>
<path d="M0.2047 115 L0.2047 15 L0.4586 115 z"/>
<path d="M0.4586 115 L0.2047 15 L0.4586 15 z"/>
<path d="M0.4586 115 L0.4586 15 L0.8104 115 z"/>
<path d="M0.8104 115 L0.4586 15 L0.8104 15 z"/>
<path d="M0.8104 115 L0.8104 15 L1.2565 115 z"/>
<path d="M1.2565 115 L0.8104 15 L1.2565 15 z"/>
<path d="M1.2565 115 L1.2565 15 L1.7924 115 z"/>
<path d="M1.7924 115 L1.2565 15 L1.7924 15 z"/>
<path d="M1.7924 115 L1.7924 15 L2.4124 115 z"/>
<path d="M2.4124 115 L1.7924 15 L2.4124 15 z"/>
<path d="M2.4124 115 L2.4124 15 L3.1103 115 z"/>
<path d="M3.1103 115 L2.4124 15 L3.1103 15 z"/>
<path d="M3.1103 115 L3.1103 15 L3.8789 115 z"/>
<path d="M3.8789 115 L3.1103 15 L3.8789 15 z"/>
<path d="M3.8789 115 L3.8789 15 L4.7104 115 z"/>
<path d="M4.7104 115 L3.8789 15 L4.7104 15 z"/>
<path d="M5 115 L4.7104 115 L4.7104 15 L5 47.6973 z"/>
<path d="M5 47.6973 L4.7104 15 L5 15 z"/>
<path d="M4.7104 15 L5 15 L5 15 z"/>
<path d="M3.8789 15 L5 15 L5 15 L4.7104 15 z"/>
<path d="M3.1103 15 L5 15 L5 15 L3.8789 15 z"/>
<path d="M2.4124 15 L5 15 L5 15 L3.1103 15 z"/>
<path d="M1.7924 15 L5 15 L5 15 L2.4124 15 z"/>
<path d="M1.2565 15 L5 15 L5 15 L1.7924 15 z"/>
<path d="M0.8104 15 L5 15 L5 15 L1.2565 15 z"/>
<path d="M0.4586 15 L5 15 L5 15 L0.8104 15 z"/>
<path d="M0.2047 15 L5 15 L5 15 L0.4586 15 z"/>
<path d="M0.0513 15 L5 15 L5 15 L0.2047 15 z"/>
<path d="M0 15 L5 15 L5 15 L0.0513 15 z"/>
<path d="M0.0513 15 L5 15 L5 15 L0 15 z"/>
<path d="M0.2047 15 L5 15 L5 15 L0.0513 15 z"/>
<path d="M0.4586 15 L5 15 L5 15 L0.2047 15 z"/>
<path d="M0.8104 15 L5 15 L5 15 L0.4586 15 z"/>
<path d="M1.2565 15 L5 15 L5 15 L0.8104 15 z"/>
<path d="M1.34813 15 L4.06393 15 L5 15 L5 15 L1.2565 15 z"/>
<path d="M4.06393 15 L5 15 L5 15 z"/>
<path d="M5 115 L4.545 115 L5 115 z"/>
<path d="M1.34813 115 L1.2565 115 L5 115 L5 115 L4.545 115 z"/>
<path d="M0.8104 115 L5 115 L5 115 L1.2565 115 z"/>
<path d="M0.4586 115 L5 115 L5 115 L0.8104 115 z"/>
<path d="M0.2047 115 L5 115 L5 115 L0.4586 115 z"/>
<path d="M0.0513 115 L5 115 L5 115 L0.2047 115 z"/>
<path d="M0 115 L5 115 L5 115 L0.0513 115 z"/>
<path d="M0.0513 115 L5 115 L5 115 L0 115 z"/>
<path d="M0.2047 115 L5 115 L5 115 L0.0513 115 z"/>
<path d="M0.4586 115 L5 115 L5 115 L0.2047 115 z"/>
<path d="M0.8104 115 L5 115 L5 115 L0.4586 115 z"/>
<path d="M1.2565 115 L5 115 L5 115 L0.8104 115 z"/>
<path d="M1.7924 115 L5 115 L5 115 L1.2565 115 z"/>
<path d="M2.4124 115 L5 115 L5 115 L1.7924 115 z"/>
<path d="M3.1103 115 L5 115 L5 115 L2.4124 115 z"/>
<path d="M3.8789 115 L5 115 L5 115 L3.1103 115 z"/>
<path d="M4.7104 115 L5 115 L5 115 L3.8789 115 z"/>
<path d="M5 115 L4.7104 115 L5 115 z"/>
<path d="M5 10 L5 0 L15 10 z"/>
<path d="M15 10 L5 0 L15 0 z"/>
<path d="M5.5961 115 L5 115 L5 47.6973 z"/>
<path d="M5.5961 15 L5.5961 115 L5 47.6973 L5 15 z"/>
<path d="M5.5961 115 L5.5961 15 L6.5269 115 z"/>
<path d="M6.5269 115 L5.5961 15 L6.5269 15 z"/>
<path d="M6.5269 115 L6.5269 15 L7.4935 115 z"/>
<path d="M7.4935 115 L6.5269 15 L7.4935 15 z"/>
<path d="M7.4935 115 L7.4935 15 L8.4857 115 z"/>
<path d="M8.4857 115 L7.4935 15 L8.4857 15 z"/>
<path d="M8.4857 115 L8.4857 15 L9.4935 115 z"/>
<path d="M9.4935 115 L8.4857 15 L9.4935 15 z"/>
<path d="M9.4935 115 L9.4935 15 L10.5065 115 z"/>
<path d="M10.5065 115 L9.4935 15 L10.5065 15 z"/>
<path d="M10.5065 115 L10.5065 15 L11.5143 115 z"/>
<path d="M11.5143 115 L10.5065 15 L11.5143 15 z"/>
<path d="M11.5143 115 L11.5143 15 L12.5065 115 z"/>
<path d="M12.5065 115 L11.5143 15 L12.5065 15 z"/>
<path d="M12.5065 115 L12.5065 15 L13.4731 115 z"/>
<path d="M13.4731 115 L12.5065 15 L13.4731 15 z"/>
<path d="M13.4731 115 L13.4731 15 L14.4039 115 z"/>
<path d="M14.4039 115 L13.4731 15 L14.4039 15 z"/>
<path d="M14.4039 115 L14.4039 15 L15.2896 115 z"/>
<path d="M15.2896 115 L14.4039 15 L15.2896 15 z"/>
<path d="M15.2896 115 L15.2896 15 L16.1211 115 z"/>
<path d="M16.1211 115 L15.2896 15 L16.1211 15 z"/>
<path d="M16.1211 115 L16.1211 15 L16.8897 115 z"/>
<path d="M16.8897 115 L16.1211 15 L16.8897 15 z"/>
<path d="M16.8897 115 L16.8897 15 L17.5876 115 z"/>
<path d="M17.5876 115 L16.8897 15 L17.5876 15 z"/>
<path d="M17.5876 115 L17.5876 15 L18.2076 115 z"/>
<path d="M18.2076 115 L17.5876 15 L18.2076 15 z"/>
<path d="M18.65187 115 L18.2076 115 L18.2076 15 L18.65187 97.90101 z"/>
<path d="M18.65187 97.90101 L18.2076 15 L18.65187 15 z"/>
<path d="M18.2076 15 L18.43121 15 L18.65187 15 z"/>
<path d="M17.5876 15 L18.14821 15 L18.43121 15 L18.2076 15 z"/>
<path d="M16.8897 15 L17.85434 15 L18.14821 15 L17.5876 15 z"/>
<path d="M16.1211 15 L17.54742 15 L17.85434 15 L16.8897 15 z"/>
<path d="M15.2896 15 L17.22474 15 L17.54742 15 L16.1211 15 z"/>
<path d="M14.4039 15 L16.88344 15 L17.22474 15 L15.2896 15 z"/>
<path d="M13.4731 15 L16.51991 15 L16.88344 15 L14.4039 15 z"/>
<path d="M12.5065 15 L16.12971 15 L16.51991 15 L13.4731 15 z"/>
<path d="M11.5143 15 L15.70766 15 L16.12971 15 L12.5065 15 z"/>
<path d="M10.5065 15 L15.24717 15 L15.70766 15 L11.5143 15 z"/>
<path d="M9.4935 15 L14.74002 15 L15.24717 15 L10.5065 15 z"/>
<path d="M8.4857 15 L14.1757 15 L14.74002 15 L9.4935 15 z"/>
<path d="M7.4935 15 L13.54056 15 L14.1757 15 L8.4857 15 z"/>
<path d="M6.5269 15 L12.81626 15 L13.54056 15 L7.4935 15 z"/>
<path d="M5.5961 15 L11.97822 15 L12.81626 15 L6.5269 15 z"/>
<path d="M5 15 L5 15 L10.9917 15 L11.97822 15 L5.5961 15 z"/>
<path d="M5 15 L5 15 L9.80684 15 L10.9917 15 z"/>
<path d="M5 15 L5 15 L8.34856 15 L9.80684 15 z"/>
<path d="M5 15 L5 15 L6.49953 15 L8.34856 15 z"/>
<path d="M5 15 L5 15 L6.49953 15 z"/>
<path d="M5 115 L5 115 L5.93975 115 z"/>
<path d="M5 115 L5 115 L7.69297 115 L5.93975 115 z"/>
<path d="M5 115 L5 115 L9.11773 115 L7.69297 115 z"/>
<path d="M5 115 L5 115 L10.30381 115 L9.11773 115 z"/>
<path d="M5 115 L5.5961 115 L11.31145 115 L10.30381 115 L5 115 z"/>
<path d="M6.5269 115 L12.18219 115 L11.31145 115 L5.5961 115 z"/>
<path d="M7.4935 115 L12.94595 115 L12.18219 115 L6.5269 115 z"/>
<path d="M8.4857 115 L13.6244 115 L12.94595 115 L7.4935 115 z"/>
<path d="M9.4935 115 L14.23417 115 L13.6244 115 L8.4857 115 z"/>
<path d="M10.5065 115 L14.78785 115 L14.23417 115 L9.4935 115 z"/>
<path d="M11.5143 115 L15.29532 115 L14.78785 115 L10.5065 115 z"/>
<path d="M12.5065 115 L15.76443 115 L15.29532 115 L11.5143 115 z"/>
<path d="M13.4731 115 L16.2016 115 L15.76443 115 L12.5065 115 z"/>
<path d="M14.4039 115 L16.6119 115 L16.2016 115 L13.4731 115 z"/>
<path d="M15.2896 115 L16.99978 115 L16.6119 115 L14.4039 115 z"/>
<path d="M16.1211 115 L17.36892 115 L16.99978 115 L15.2896 115 z"/>
<path d="M16.8897 115 L17.72223 115 L17.36892 115 L16.1211 115 z"/>
<path d="M17.5876 115 L18.06252 115 L17.72223 115 L16.8897 115 z"/>
<path d="M18.2076 115 L18.39213 115 L18.06252 115 L17.5876 115 z"/>
<path d="M18.39213 115 L18.2076 115 L18.65187 115 z"/>
<path d="M15 10 L15 0 L15 10 z"/>
<path d="M15 10 L15 0 L15 0 z"/>
<path d="M19.9487 115 L19.9487 15 L19.7953 115 z"/>
<path d="M19.7953 115 L19.9487 15 L19.7953 15 z"/>
<path d="M19.7953 115 L19.7953 15 L19.5414 115 z"/>
<path d="M19.5414 115 L19.7953 15 L19.5414 15 z"/>
<path d="M19.5414 115 L19.5414 15 L19.1896 115 z"/>
<path d="M19.1896 115 L19.5414 15 L19.1896 15 z"/>
<path d="M19.1896 115 L19.1896 15 L18.7435 115 z"/>
<path d="M18.7435 115 L19.1896 15 L18.7435 15 z"/>
<path d="M18.65187 115 L18.7435 115 L18.7435 15 L18.65187 32.09899 z"/>
<path d="M18.65187 32.09899 L18.7435 15 L18.65187 15 z"/>
<path d="M18.7435 115 L18.65187 115 L18.65187 97.90101 z"/>
<path d="M18.7435 15 L18.7435 115 L18.65187 97.90101 L18.65187 15 z"/>
<path d="M18.7435 115 L18.7435 15 L19.1896 115 z"/>
<path d="M19.1896 115 L18.7435 15 L19.1896 15 z"/>
<path d="M19.1896 115 L19.1896 15 L19.5414 115 z"/>
<path d="M19.5414 115 L19.1896 15 L19.5414 15 z"/>
<path d="M19.5414 115 L19.5414 15 L19.7953 115 z"/>
<path d="M19.7953 115 L19.5414 15 L19.7953 15 z"/>
<path d="M19.7953 115 L19.7953 15 L19.9487 115 z"/>
<path d="M19.9487 115 L19.7953 15 L19.9487 15 z"/>
<path d="M19.9487 115 L19.9487 15 L20 115 z"/>
<path d="M20 115 L19.9487 15 L20 15 z"/>
<path d="M20 115 L20 15 L19.9487 115 z"/>
<path d="M19.9487 115 L20 15 L19.9487 15 z"/>
<path d="M20 15 L19.9487 15 L19.7953 15 z"/>
<path d="M20 15 L19.7953 15 L19.5414 15 z"/>
<path d="M20 15 L19.5414 15 L19.1896 15 z"/>
<path d="M20 15 L19.1896 15 L18.7435 15 z"/>
<path d="M18.43121 15 L20 15 L18.7435 15 L18.65187 15 z"/>
<path d="M18.14821 15 L20 15 L18.43121 15 z"/>
<path d="M17.85434 15 L20 15 L18.14821 15 z"/>
<path d="M17.54742 15 L20 15 L17.85434 15 z"/>
<path d="M17.22474 15 L20 15 L17.54742 15 z"/>
<path d="M16.88344 15 L20 15 L17.22474 15 z"/>
<path d="M16.51991 15 L20 15 L16.88344 15 z"/>
<path d="M16.12971 15 L20 15 L16.51991 15 z"/>
<path d="M15.70766 15 L20 15 L16.12971 15 z"/>
<path d="M15.24717 15 L20 15 L15.70766 15 z"/>
<path d="M15.24717 15 L15 15 L15 15 L20 15 z"/>
<path d="M15 15 L20 15 L15 15 z"/>
<path d="M15 15 L20 15 L15 15 z"/>
<path d="M15 15 L20 15 L15 15 z"/>
<path d="M15 15 L20 15 L15 15 z"/>
<path d="M15 15 L20 15 L15 15 z"/>
<path d="M15 15 L20 15 L15 15 z"/>
<path d="M15 15 L20 15 L15 15 z"/>
<path d="M15 15 L20 15 L15 15 z"/>
<path d="M15 15 L20 15 L15 15 z"/>
<path d="M15 15 L20 15 L15 15 z"/>
<path d="M15 15 L20 15 L15 15 z"/>
<path d="M15 15 L20 15 L15 15 z"/>
<path d="M15 15 L20 15 L15 15 z"/>
<path d="M15 15 L20 15 L15 15 z"/>
<path d="M15 15 L20 15 L15 15 z"/>
<path d="M15 15 L20 15 L15 15 z"/>
<path d="M15 15 L20 15 L15 15 z"/>
<path d="M15 15 L20 15 L15 15 z"/>
<path d="M15 15 L20 15 L15 15 z"/>
<path d="M15 15 L20 15 L15 15 z"/>
<path d="M15 15 L20 15 L15 15 z"/>
<path d="M15 15 L20 15 L15 15 z"/>
<path d="M15 15 L20 15 L15 15 z"/>
<path d="M15 15 L20 15 L15 15 z"/>
<path d="M15 15 L20 15 L15 15 z"/>
<path d="M15 15 L20 15 L15 15 z"/>
<path d="M15 15 L20 15 L15 15 z"/>
<path d="M15 15 L20 15 L15 15 z"/>
<path d="M15 15 L20 15 L15 15 z"/>
<path d="M15 15 L20 15 L15 15 z"/>
<path d="M15 15 L15.24717 15 L20 15 L15 15 z"/>
<path d="M15.70766 15 L20 15 L15.24717 15 z"/>
<path d="M16.12971 15 L20 15 L15.70766 15 z"/>
<path d="M16.51991 15 L20 15 L16.12971 15 z"/>
<path d="M16.88344 15 L20 15 L16.51991 15 z"/>
<path d="M17.22474 15 L20 15 L16.88344 15 z"/>
<path d="M17.54742 15 L20 15 L17.22474 15 z"/>
<path d="M17.85434 15 L20 15 L17.54742 15 z"/>
<path d="M18.14821 15 L20 15 L17.85434 15 z"/>
<path d="M18.43121 15 L20 15 L18.14821 15 z"/>
<path d="M18.7435 15 L20 15 L18.43121 15 L18.65187 15 z"/>
<path d="M20 15 L18.7435 15 L19.1896 15 z"/>
<path d="M20 15 L19.1896 15 L19.5414 15 z"/>
<path d="M20 15 L19.5414 15 L19.7953 15 z"/>
<path d="M20 15 L19.7953 15 L19.9487 15 z"/>
<path d="M19.9487 115 L19.7953 115 L19.5414 115 z"/>
<path d="M19.9487 115 L19.5414 115 L19.1896 115 z"/>
<path d="M19.9487 115 L19.1896 115 L18.7435 115 z"/>
<path d="M18.47156 115 L19.9487 115 L18.7435 115 L18.65187 115 z"/>
<path d="M18.23718 115 L19.9487 115 L18.47156 115 z"/>
<path d="M17.99235 115 L19.9487 115 L18.23718 115 z"/>
<path d="M17.73504 115 L19.9487 115 L17.99235 115 z"/>
<path d="M17.46273 115 L19.9487 115 L17.73504 115 z"/>
<path d="M17.17272 115 L19.9487 115 L17.46273 115 z"/>
<path d="M16.86153 115 L19.9487 115 L17.17272 115 z"/>
<path d="M16.52485 115 L19.9487 115 L16.86153 115 z"/>
<path d="M16.15755 115 L19.9487 115 L16.52485 115 z"/>
<path d="M15.75302 115 L19.9487 115 L16.15755 115 z"/>
<path d="M15.30289 115 L19.9487 115 L15.75302 115 z"/>
<path d="M15.30289 115 L15 115 L15 115 L19.9487 115 z"/>
<path d="M15 115 L19.9487 115 L15 115 z"/>
<path d="M15 115 L19.9487 115 L15 115 z"/>
<path d="M15 115 L19.9487 115 L15 115 z"/>
<path d="M15 115 L19.9487 115 L15 115 z"/>
<path d="M15 115 L19.9487 115 L15 115 z"/>
<path d="M15 115 L19.9487 115 L15 115 z"/>
<path d="M15 115 L19.9487 115 L15 115 z"/>
<path d="M19.9487 115 L15 115 L15 115 z"/>
<path d="M15 115 L19.9487 115 L15 115 z"/>
<path d="M15 115 L19.9487 115 L15 115 z"/>
<path d="M15 115 L19.9487 115 L15 115 z"/>
<path d="M15 115 L19.9487 115 L15 115 z"/>
<path d="M15 115 L19.9487 115 L15 115 z"/>
<path d="M15 115 L19.9487 115 L15 115 z"/>
<path d="M15 115 L19.9487 115 L15 115 z"/>
<path d="M15 115 L19.9487 115 L15 115 z"/>
<path d="M15 115 L19.9487 115 L15 115 z"/>
<path d="M15 115 L19.9487 115 L15 115 z"/>
<path d="M15 115 L19.9487 115 L15 115 z"/>
<path d="M15 115 L19.9487 115 L15 115 z"/>
<path d="M19.9487 115 L15 115 L15 115 z"/>
<path d="M15 115 L19.9487 115 L15 115 z"/>
<path d="M15 115 L19.9487 115 L15 115 z"/>
<path d="M15 115 L19.9487 115 L15 115 z"/>
<path d="M15 115 L19.9487 115 L15 115 z"/>
<path d="M15 115 L19.9487 115 L15 115 z"/>
<path d="M15 115 L19.9487 115 L15 115 z"/>
<path d="M15 115 L19.9487 115 L15 115 z"/>
<path d="M15 115 L19.9487 115 L15 115 z"/>
<path d="M15 115 L19.9487 115 L15 115 z"/>
<path d="M15 115 L15.29532 115 L19.9487 115 L15 115 z"/>
<path d="M15.76443 115 L19.9487 115 L15.29532 115 z"/>
<path d="M16.2016 115 L19.9487 115 L15.76443 115 z"/>
<path d="M16.6119 115 L19.9487 115 L16.2016 115 z"/>
<path d="M16.99978 115 L19.9487 115 L16.6119 115 z"/>
<path d="M17.36892 115 L19.9487 115 L16.99978 115 z"/>
<path d="M17.72223 115 L19.9487 115 L17.36892 115 z"/>
<path d="M18.06252 115 L19.9487 115 L17.72223 115 z"/>
<path d="M18.39213 115 L19.9487 115 L18.06252 115 z"/>
<path d="M18.7435 115 L19.9487 115 L18.39213 115 L18.65187 115 z"/>
<path d="M19.9487 115 L18.7435 115 L19.1896 115 z"/>
<path d="M19.9487 115 L19.1896 115 L19.5414 115 z"/>
<path d="M19.9487 115 L19.5414 115 L19.7953 115 z"/>
<path d="M19.9487 115 L19.7953 115 L19.9487 115 z"/>
<path d="M19.9487 115 L19.9487 115 L20 115 z"/>
<path d="M15 0 L5 0 L5 0 z"/>
<path d="M15 0 L5 0 L15 0 z"/>
<path d="M15 10 L5 10 L5 10 z"/>
<path d="M15 10 L5 10 L15 10 z"/>
<path d="M15 15 L14.74002 15 L15 15 z"/>
<path d="M14.74002 15 L14.1757 15 L15 15 L15 15 z"/>
<path d="M14.1757 15 L13.54056 15 L15 15 L15 15 z"/>
<path d="M13.54056 15 L12.81626 15 L15 15 L15 15 z"/>
<path d="M12.81626 15 L11.97822 15 L15 15 L15 15 z"/>
<path d="M11.97822 15 L10.9917 15 L15 15 L15 15 z"/>
<path d="M10.9917 15 L9.80684 15 L15 15 L15 15 z"/>
<path d="M9.80684 15 L8.34856 15 L15 15 L15 15 z"/>
<path d="M8.34856 15 L6.49953 15 L15 15 L15 15 z"/>
<path d="M6.49953 15 L5 15 L5 15 L15 15 L15 15 z"/>
<path d="M5 15 L5 15 L15 15 L15 15 z"/>
<path d="M5 15 L5 15 L15 15 L15 15 z"/>
<path d="M5 15 L5 15 L15 15 L15 15 z"/>
<path d="M5 15 L5 15 L15 15 L15 15 z"/>
<path d="M5 15 L5 15 L15 15 L15 15 z"/>
<path d="M5 15 L5 15 L15 15 L15 15 z"/>
<path d="M5 15 L5 15 L15 15 L15 15 z"/>
<path d="M5 15 L5 15 L15 15 L15 15 z"/>
<path d="M5 15 L5 15 L15 15 L15 15 z"/>
<path d="M5 15 L5 15 L15 15 L15 15 z"/>
<path d="M5 15 L5 15 L15 15 L15 15 z"/>
<path d="M5 15 L5 15 L15 15 L15 15 z"/>
<path d="M5 15 L5 15 L6.49953 15 L15 15 L15 15 z"/>
<path d="M6.49953 15 L8.34856 15 L15 15 L15 15 z"/>
<path d="M8.34856 15 L9.80684 15 L15 15 L15 15 z"/>
<path d="M9.80684 15 L10.9917 15 L15 15 L15 15 z"/>
<path d="M10.9917 15 L11.97822 15 L15 15 L15 15 z"/>
<path d="M11.97822 15 L12.81626 15 L15 15 L15 15 z"/>
<path d="M12.81626 15 L13.54056 15 L15 15 L15 15 z"/>
<path d="M13.54056 15 L14.1757 15 L15 15 L15 15 z"/>
<path d="M14.1757 15 L14.74002 15 L15 15 L15 15 z"/>
<path d="M14.74002 15 L15 15 L15 15 z"/>
<path d="M15 115 L14.79623 115 L15 115 z"/>
<path d="M14.79623 115 L14.21857 115 L15 115 L15 115 z"/>
<path d="M14.21857 115 L13.55001 115 L15 115 L15 115 z"/>
<path d="M13.55001 115 L12.76312 115 L15 115 L15 115 z"/>
<path d="M12.76312 115 L11.81795 115 L15 115 L15 115 z"/>
<path d="M11.81795 115 L10.65487 115 L15 115 L15 115 z"/>
<path d="M10.65487 115 L9.17987 115 L15 115 L15 115 z"/>
<path d="M9.17987 115 L7.23695 115 L15 115 L15 115 z"/>
<path d="M15 115 L7.23695 115 L5 115 L5 115 L15 115 z"/>
<path d="M5 115 L5 115 L15 115 L15 115 z"/>
<path d="M5 115 L5 115 L15 115 L15 115 z"/>
<path d="M5 115 L5 115 L15 115 L15 115 z"/>
<path d="M5 115 L5 115 L15 115 L15 115 z"/>
<path d="M5 115 L5 115 L15 115 L15 115 z"/>
<path d="M5 115 L5 115 L15 115 L15 115 z"/>
<path d="M5 115 L5 115 L15 115 L15 115 z"/>
<path d="M5 115 L5 115 L15 115 L15 115 z"/>
<path d="M5 115 L5 115 L15 115 L15 115 z"/>
<path d="M5 115 L5 115 L15 115 L15 115 z"/>
<path d="M5 115 L5 115 L15 115 L15 115 z"/>
<path d="M5 115 L5 115 L15 115 L15 115 z"/>
<path d="M15 115 L5 115 L5 115 L5.93975 115 L15 115 z"/>
<path d="M5.93975 115 L7.69297 115 L15 115 L15 115 z"/>
<path d="M7.69297 115 L9.11773 115 L15 115 L15 115 z"/>
<path d="M9.11773 115 L10.30381 115 L15 115 L15 115 z"/>
<path d="M10.30381 115 L11.31145 115 L15 115 L15 115 z"/>
<path d="M11.31145 115 L12.18219 115 L15 115 L15 115 z"/>
<path d="M12.18219 115 L12.94595 115 L15 115 L15 115 z"/>
<path d="M12.94595 115 L13.6244 115 L15 115 L15 115 z"/>
<path d="M13.6244 115 L14.23417 115 L15 115 L15 115 z"/>
<path d="M14.23417 115 L14.78785 115 L15 115 L15 115 z"/>
<path d="M14.78785 115 L15 115 L15 115 z"/>
</svg>