<?xml version="1.0" encoding="UTF-8"?>
<!-- Generated by jsxcad -->
<!DOCTYPE svg PUBLIC "-//W3C//DTD SVG 1.1 Tiny//EN" "http://www.w3.org/Graphics/SVG/1.1/DTD/svg11-tiny.dtd">
<svg viewBox="-250 -250 500 500" width="500" height="500" xmlns="http://www.w3.org/2000/svg"><path d="M-136.1044794318256,2.975150643629246L-111.80034167974895,-65.45301801038336L-124.38197628173067,-86.9511273106408z" style="fill:rgb(247,158,158)"/><path d="M-161.14754193480582,9.626323800384602L-124.38197628173067,-86.9511273106408L-147.3493886992556,-80.34286495890531zM-136.1044794318256,2.975150643629246L-29.741317860833625,-114.18148582835887L-124.38197628173067,-86.9511273106408z" style="fill:rgb(83,212,212)"/><path d="M-111.80034167974895,-65.45301801038336L-136.1044794318256,2.975150643629246L-122.11782283639836,24.585985415095383z" style="fill:rgb(247,158,158)"/><path d="M-124.38197628173067,-86.9511273106408L-161.14754193480582,9.626323800384602L-136.1044794318256,2.975150643629246zM-32.618497638387694,-24.509636777358438L19.66382462576899,-111.6990314139452L-30.27541860083301,-97.53539148713197z" style="fill:rgb(83,212,212)"/><path d="M21.206056863525838,-38.80487049365501L30.03619547463592,-88.53496907248015L19.66382462576899,-111.6990314139452z" style="fill:rgb(247,158,158)"/><path d="M-136.1044794318256,2.975150643629246L-146.7307664319427,30.96408595562919L-122.11782283639836,24.585985415095383z" style="fill:rgb(127,37,217)"/><path d="M32.340983114683816,-15.439863508196956L30.03619547463592,-88.53496907248015L31.53439955785719,-41.02022463090377z" style="fill:rgb(0,127,127)"/><path d="M-146.7307664319427,30.96408595562919L-136.1044794318256,2.975150643629246L-161.14754193480582,9.626323800384602z" style="fill:rgb(127,37,217)"/><path d="M147.35461237644262,-165.13618213854588L170.65946072482367,-51.28316670123043L155.26214863947155,-140.58835553951263z" style="fill:rgb(247,158,158)"/><path d="M22.071593547121967,2.1050290224339836L121.10508977805239,-157.58357875660104L19.312690906381267,-128.29549660212456z" style="fill:rgb(83,212,212)"/><path d="M30.03619547463592,-88.53496907248015L21.206056863525838,-38.80487049365501L32.340983114683816,-15.439863508196956z" style="fill:rgb(247,158,158)"/><path d="M133.30511407948634,-68.57719683959067L147.35461237644262,-165.13618213854588L121.10508977805239,-157.58357875660104zM19.66382462576899,-111.6990314139452L-32.618497638387694,-24.509636777358438L21.206056863525838,-38.80487049365501z" style="fill:rgb(83,212,212)"/><path d="M-37.728271833247966,134.7445675674824L-18.70760699628111,-91.64371449332116L-29.741317860833625,-114.18148582835887z" style="fill:rgb(247,158,158)"/><path d="M21.206056863525838,-38.80487049365501L-20.47874979356044,-1.7523650565908833L32.340983114683816,-15.439863508196956zM-20.47874979356044,-1.7523650565908833L21.206056863525838,-38.80487049365501L-32.618497638387694,-24.509636777358438z" style="fill:rgb(127,37,217)"/><path d="M-29.741317860833625,-114.18148582835887L-136.1044794318256,2.975150643629246L-156.79234998341343,161.67703936919312z" style="fill:rgb(83,212,212)"/><path d="M170.65946072482367,-51.28316670123043L147.35461237644262,-165.13618213854588L162.30197249346256,-76.2784558651709z" style="fill:rgb(247,158,158)"/><path d="M147.35461237644262,-165.13618213854588L133.30511407948634,-68.57719683959067L162.30197249346256,-76.2784558651709z" style="fill:rgb(83,212,212)"/><path d="M121.10508977805239,-157.58357875660104L165.00490029806588,115.59147956769215L129.494864898117,-133.33899626285782z" style="fill:rgb(247,158,158)"/><path d="M162.30197249346256,-76.2784558651709L142.25032969466852,-43.921339915912874L170.65946072482367,-51.28316670123043zM142.25032969466852,-43.921339915912874L162.30197249346256,-76.2784558651709L133.30511407948634,-68.57719683959067z" style="fill:rgb(127,37,217)"/><path d="M-156.79234998341343,161.67703936919312L-126.7984543440921,65.43310701983627L-141.4364052924087,43.87770105018686z" style="fill:rgb(247,158,158)"/><path d="M-185.46142046542022,168.16201980422258L-141.4364052924087,43.87770105018686L-167.41853206093975,50.51555510946872zM121.10508977805239,-157.58357875660104L24.033472003828834,94.83390654587713L133.30511407948634,-68.57719683959067zM121.10508977805239,-157.58357875660104L22.071593547121967,2.1050290224339836L24.033472003828834,94.83390654587713z" style="fill:rgb(83,212,212)"/><path d="M-18.70760699628111,-91.64371449332116L-37.728271833247966,134.7445675674824L-23.6078524990594,157.0599663205795z" style="fill:rgb(247,158,158)"/><path d="M-29.741317860833625,-114.18148582835887L-156.79234998341343,161.67703936919312L-37.728271833247966,134.7445675674824z" style="fill:rgb(83,212,212)"/><path d="M-126.7984543440921,65.43310701983627L-156.79234998341343,161.67703936919312L-140.23617149149015,182.70191560644335z" style="fill:rgb(247,158,158)"/><path d="M-36.90243406625004,109.00602734375738L22.071593547121967,2.1050290224339836L-33.93151361983383,16.41258267937597z" style="fill:rgb(83,212,212)"/><path d="M24.033472003828834,94.83390654587713L33.63131024822332,25.482165533319055L22.071593547121967,2.1050290224339836z" style="fill:rgb(247,158,158)"/><path d="M-141.4364052924087,43.87770105018686L-185.46142046542022,168.16201980422258L-156.79234998341343,161.67703936919312z" style="fill:rgb(83,212,212)"/><path d="M33.63131024822332,25.482165533319055L24.033472003828834,94.83390654587713L36.54763507557717,117.97182372169944zM165.00490029806588,115.59147956769215L121.10508977805239,-157.58357875660104L155.19268574956578,91.10555613968448z" style="fill:rgb(247,158,158)"/><path d="M155.19268574956578,91.10555613968448L169.16591399205726,-35.47431066386722L133.30511407948634,-68.57719683959067z" style="fill:rgb(83,212,212)"/><path d="M169.16591399205726,-35.47431066386722L198.173394275685,108.29904721574212L177.70879648488966,-10.396661601609585z" style="fill:rgb(247,158,158)"/><path d="M-168.34423243881633,188.8817586994162L-37.728271833247966,134.7445675674824L-185.46142046542022,168.16201980422258z" style="fill:rgb(127,37,217)"/><path d="M22.071593547121967,2.1050290224339836L-36.90243406625004,109.00602734375738L24.57967557341394,120.65040620858011z" style="fill:rgb(83,212,212)"/><path d="M-37.728271833247966,134.7445675674824L-168.34423243881633,188.8817586994162L-23.6078524990594,157.0599663205795zM24.033472003828834,94.83390654587713L-23.10354336969871,131.46460256463456L36.54763507557717,117.97182372169944zM-23.10354336969871,131.46460256463456L24.033472003828834,94.83390654587713L-36.90243406625004,109.00602734375738z" style="fill:rgb(127,37,217)"/><path d="M24.033472003828834,94.83390654587713L155.19268574956578,91.10555613968448L133.30511407948634,-68.57719683959067z" style="fill:rgb(83,212,212)"/><path d="M198.173394275685,108.29904721574212L169.16591399205726,-35.47431066386722L189.16605307616274,83.42072977184628z" style="fill:rgb(247,158,158)"/><path d="M169.16591399205726,-35.47431066386722L155.19268574956578,91.10555613968448L189.16605307616274,83.42072977184628zM155.19268574956578,91.10555613968448L24.033472003828834,94.83390654587713L24.57967557341394,120.65040620858011z" style="fill:rgb(83,212,212)"/><path d="M37.35749487192326,143.65609009072224L189.16605307616274,83.42072977184628L24.57967557341394,120.65040620858011zM189.16605307616274,83.42072977184628L37.35749487192326,143.65609009072224L198.173394275685,108.29904721574212z" style="fill:rgb(127,37,217)"/></svg>
