solid JSxCAD
facet normal 0 0 1
outer loop
vertex -5 -5 105
vertex 5 -5 105
vertex 5 5 105
endloop
endfacet
facet normal 0 0 1
outer loop
vertex -5 -5 105
vertex 5 5 105
vertex -5 5 105
endloop
endfacet
facet normal 0.9854773441157212 0.15097595584475476 0.07772171505690609
outer loop
vertex 9.7953 2.013 50
vertex 5 5 105
vertex 9.9487 1.0117 50
endloop
endfacet
facet normal -0.9958932064677039 0 0.09053574604251853
outer loop
vertex -10 0 50
vertex -5 -5 105
vertex -5 5 105
endloop
endfacet
facet normal 0.9950279507905465 -0.05045461488144162 0.08587030326446408
outer loop
vertex 10 0 50
vertex 5 -5 105
vertex 9.9487 -1.0117 50
endloop
endfacet
facet normal 0.9950279507905465 0.05045461488144162 0.08587030326446408
outer loop
vertex 10 0 50
vertex 9.9487 1.0117 50
vertex 5 5 105
endloop
endfacet
facet normal 0.9958932064677039 0 0.09053574604251853
outer loop
vertex 10 0 50
vertex 5 5 105
vertex 5 -5 105
endloop
endfacet
facet normal 0.9854773441157212 -0.15097595584475476 0.07772171505690609
outer loop
vertex 9.7953 -2.013 50
vertex 9.9487 -1.0117 50
vertex 5 -5 105
endloop
endfacet
facet normal 0.9656592970776546 -0.25003150675914376 0.07061421666521663
outer loop
vertex 9.7953 -2.013 50
vertex 5 -5 105
vertex 9.5414 -2.9936 50
endloop
endfacet
facet normal 0.9358049394613966 0.34654334495001937 0.06462836335931395
outer loop
vertex 9.5414 2.9936 50
vertex 9.1896 3.9436 50
vertex 5 5 105
endloop
endfacet
facet normal 0.9656592970776546 0.25003150675914376 0.07061421666521664
outer loop
vertex 9.5414 2.9936 50
vertex 5 5 105
vertex 9.7953 2.013 50
endloop
endfacet
facet normal 0.9987168875015401 0.05064166880382373 0
outer loop
vertex 9.9487 1.0117 -50
vertex 9.9487 1.0117 50
vertex 10 0 50
endloop
endfacet
facet normal 0.9987168875015401 0.05064166880382373 0
outer loop
vertex 9.9487 1.0117 -50
vertex 10 0 50
vertex 10 0 -50
endloop
endfacet
facet normal 0.8961895603909898 0.43961970847858123 0.059822936766860325
outer loop
vertex 8.7435 4.853 50
vertex 5 5 105
vertex 9.1896 3.9436 50
endloop
endfacet
facet normal 0.2987053445656607 0.9519570921766157 0.06747452691610598
outer loop
vertex 2.5065 9.6808 50
vertex 5 5 105
vertex 3.4731 9.3775 50
endloop
endfacet
facet normal 0.9884673664942781 0.15143402978150763 0
outer loop
vertex 9.7953 2.013 -50
vertex 9.7953 2.013 50
vertex 9.9487 1.0117 50
endloop
endfacet
facet normal 0.9884673664942781 0.15143402978150763 0
outer loop
vertex 9.7953 2.013 -50
vertex 9.9487 1.0117 50
vertex 9.9487 1.0117 -50
endloop
endfacet
facet normal 0.5703112229933498 -0.8195882853767209 0.05495590415120497
outer loop
vertex 6.1211 -7.9078 50
vertex 5 -5 105
vertex 5.2896 -8.4864 50
endloop
endfacet
facet normal 0.8977975118872962 0.4404084781756368 0
outer loop
vertex 8.7435 4.853 -50
vertex 8.7435 4.853 50
vertex 9.1896 3.9436 50
endloop
endfacet
facet normal 0.8977975118872962 0.4404084781756368 0
outer loop
vertex 8.7435 4.853 -50
vertex 9.1896 3.9436 50
vertex 9.1896 3.9436 -50
endloop
endfacet
facet normal 0.10084667567079639 0.9915441925954093 0.08167044836700185
outer loop
vertex 1.5143 9.8847 50
vertex 0.5065 9.9872 50
vertex 5 5 105
endloop
endfacet
facet normal 0.2007439491025731 0.9768423065207071 0.07403360784136108
outer loop
vertex 1.5143 9.8847 50
vertex 5 5 105
vertex 2.5065 9.6808 50
endloop
endfacet
facet normal 0.6504906316982829 0.7576407024144568 0.05331513966686732
outer loop
vertex 6.8897 7.2479 50
vertex 6.1211 7.9078 50
vertex 5 5 105
endloop
endfacet
facet normal 0.7237791120268833 0.6879943370792183 0.05298668833304684
outer loop
vertex 6.8897 7.2479 50
vertex 5 5 105
vertex 7.5876 6.5137 50
endloop
endfacet
facet normal 0.29938764986343336 0.954131560692366 0
outer loop
vertex 2.5065 9.6808 -50
vertex 2.5065 9.6808 50
vertex 3.4731 9.3775 50
endloop
endfacet
facet normal 0.29938764986343336 0.954131560692366 0
outer loop
vertex 2.5065 9.6808 -50
vertex 3.4731 9.3775 50
vertex 3.4731 9.3775 -50
endloop
endfacet
facet normal -0.10084667567079639 0.9915441925954093 0.08167044836700184
outer loop
vertex -0.5065 9.9872 50
vertex -1.5143 9.8847 50
vertex -5 5 105
endloop
endfacet
facet normal 0 0.9959140778063049 0.09030586706973825
outer loop
vertex -0.5065 9.9872 50
vertex -5 5 105
vertex 5 5 105
endloop
endfacet
facet normal 0 0.995914077806305 0.09030586706973824
outer loop
vertex -0.5065 9.9872 50
vertex 5 5 105
vertex 0.5065 9.9872 50
endloop
endfacet
facet normal 0 -0.9959140778063049 0.09030586706973825
outer loop
vertex 0.5065 -9.9872 50
vertex 5 -5 105
vertex -5 -5 105
endloop
endfacet
facet normal 0 -0.995914077806305 0.09030586706973824
outer loop
vertex 0.5065 -9.9872 50
vertex -5 -5 105
vertex -0.5065 -9.9872 50
endloop
endfacet
facet normal 0.2987053445656607 -0.9519570921766157 0.06747452691610596
outer loop
vertex 3.4731 -9.3775 50
vertex 5 -5 105
vertex 2.5065 -9.6808 50
endloop
endfacet
facet normal 0.29938764986343336 -0.954131560692366 0
outer loop
vertex 2.5065 -9.6808 -50
vertex 3.4731 -9.3775 -50
vertex 3.4731 -9.3775 50
endloop
endfacet
facet normal 0.29938764986343336 -0.954131560692366 0
outer loop
vertex 2.5065 -9.6808 -50
vertex 3.4731 -9.3775 50
vertex 2.5065 -9.6808 50
endloop
endfacet
facet normal -0.2987053445656607 -0.9519570921766157 0.06747452691610598
outer loop
vertex -2.5065 -9.6808 50
vertex -5 -5 105
vertex -3.4731 -9.3775 50
endloop
endfacet
facet normal 0.9680759045257322 0.2506572222711434 0
outer loop
vertex 9.5414 2.9936 -50
vertex 9.5414 2.9936 50
vertex 9.7953 2.013 50
endloop
endfacet
facet normal 0.9680759045257322 0.2506572222711434 0
outer loop
vertex 9.5414 2.9936 -50
vertex 9.7953 2.013 50
vertex 9.7953 2.013 -50
endloop
endfacet
facet normal 0.9377654299705044 0.34726934554065525 0
outer loop
vertex 9.5414 2.9936 -50
vertex 9.1896 3.9436 -50
vertex 9.1896 3.9436 50
endloop
endfacet
facet normal 0.9377654299705044 0.34726934554065525 0
outer loop
vertex 9.5414 2.9936 -50
vertex 9.1896 3.9436 50
vertex 9.5414 2.9936 50
endloop
endfacet
facet normal 0.9884673664942781 -0.15143402978150763 0
outer loop
vertex 9.9487 -1.0117 -50
vertex 9.9487 -1.0117 50
vertex 9.7953 -2.013 50
endloop
endfacet
facet normal 0.9884673664942781 -0.15143402978150763 0
outer loop
vertex 9.9487 -1.0117 -50
vertex 9.7953 -2.013 50
vertex 9.7953 -2.013 -50
endloop
endfacet
facet normal 0.9987168875015401 -0.05064166880382373 0
outer loop
vertex 9.9487 -1.0117 -50
vertex 10 0 -50
vertex 10 0 50
endloop
endfacet
facet normal 0.9987168875015401 -0.05064166880382373 0
outer loop
vertex 9.9487 -1.0117 -50
vertex 10 0 50
vertex 9.9487 -1.0117 50
endloop
endfacet
facet normal 0.9680759045257322 -0.2506572222711434 0
outer loop
vertex 9.5414 -2.9936 -50
vertex 9.7953 -2.013 -50
vertex 9.7953 -2.013 50
endloop
endfacet
facet normal 0.9680759045257322 -0.2506572222711434 0
outer loop
vertex 9.5414 -2.9936 -50
vertex 9.7953 -2.013 50
vertex 9.5414 -2.9936 50
endloop
endfacet
facet normal 0.7237791120268833 -0.6879943370792183 0.05298668833304684
outer loop
vertex 6.8897 -7.2479 50
vertex 7.5876 -6.5137 50
vertex 5 -5 105
endloop
endfacet
facet normal 0.6504906316982829 -0.7576407024144568 0.05331513966686732
outer loop
vertex 6.8897 -7.2479 50
vertex 5 -5 105
vertex 6.1211 -7.9078 50
endloop
endfacet
facet normal 0.7247972936935737 -0.6889621782467246 0
outer loop
vertex 6.8897 -7.2479 50
vertex 6.8897 -7.2479 -50
vertex 7.5876 -6.5137 -50
endloop
endfacet
facet normal 0.7247972936935737 -0.6889621782467246 0
outer loop
vertex 6.8897 -7.2479 50
vertex 7.5876 -6.5137 -50
vertex 7.5876 -6.5137 50
endloop
endfacet
facet normal 0.6514171184732325 -0.7587198018768394 0
outer loop
vertex 6.1211 -7.9078 -50
vertex 6.8897 -7.2479 -50
vertex 6.8897 -7.2479 50
endloop
endfacet
facet normal 0.6514171184732325 -0.7587198018768394 0
outer loop
vertex 6.1211 -7.9078 -50
vertex 6.8897 -7.2479 50
vertex 6.1211 -7.9078 50
endloop
endfacet
facet normal 0.5711743917810757 -0.8208287362011142 0
outer loop
vertex 6.1211 -7.9078 -50
vertex 6.1211 -7.9078 50
vertex 5.2896 -8.4864 50
endloop
endfacet
facet normal 0.5711743917810757 -0.8208287362011142 0
outer loop
vertex 6.1211 -7.9078 -50
vertex 5.2896 -8.4864 50
vertex 5.2896 -8.4864 -50
endloop
endfacet
facet normal 0.8961895603909898 -0.43961970847858123 0.059822936766860325
outer loop
vertex 9.1896 -3.9436 50
vertex 5 -5 105
vertex 8.7435 -4.853 50
endloop
endfacet
facet normal 0.9377654299705044 -0.34726934554065525 0
outer loop
vertex 9.1896 -3.9436 50
vertex 9.1896 -3.9436 -50
vertex 9.5414 -2.9936 -50
endloop
endfacet
facet normal 0.9377654299705044 -0.34726934554065525 0
outer loop
vertex 9.1896 -3.9436 50
vertex 9.5414 -2.9936 -50
vertex 9.5414 -2.9936 50
endloop
endfacet
facet normal 0.9358049394613966 -0.34654334495001937 0.06462836335931396
outer loop
vertex 9.1896 -3.9436 50
vertex 9.5414 -2.9936 50
vertex 5 -5 105
endloop
endfacet
facet normal 0.790785366435497 -0.6120935420599344 0
outer loop
vertex 8.2076 -5.7127 50
vertex 7.5876 -6.5137 50
vertex 7.5876 -6.5137 -50
endloop
endfacet
facet normal 0.790785366435497 -0.6120935420599344 0
outer loop
vertex 8.2076 -5.7127 50
vertex 7.5876 -6.5137 -50
vertex 8.2076 -5.7127 -50
endloop
endfacet
facet normal 0.847280398154367 -0.5281581544386705 0.05625736221433432
outer loop
vertex 8.2076 -5.7127 50
vertex 8.7435 -4.853 50
vertex 5 -5 105
endloop
endfacet
facet normal 0.7896327805567367 -0.6112014031774983 0.053971442671970744
outer loop
vertex 8.2076 -5.7127 50
vertex 5 -5 105
vertex 7.5876 -6.5137 50
endloop
endfacet
facet normal 0.8977975118872962 -0.4404084781756368 0
outer loop
vertex 8.7435 -4.853 -50
vertex 9.1896 -3.9436 -50
vertex 9.1896 -3.9436 50
endloop
endfacet
facet normal 0.8977975118872962 -0.4404084781756368 0
outer loop
vertex 8.7435 -4.853 -50
vertex 9.1896 -3.9436 50
vertex 8.7435 -4.853 50
endloop
endfacet
facet normal 0.8486243640961293 -0.5289959249960631 0
outer loop
vertex 8.7435 -4.853 -50
vertex 8.7435 -4.853 50
vertex 8.2076 -5.7127 50
endloop
endfacet
facet normal 0.8486243640961293 -0.5289959249960631 0
outer loop
vertex 8.7435 -4.853 -50
vertex 8.2076 -5.7127 50
vertex 8.2076 -5.7127 -50
endloop
endfacet
facet normal 0.6514171184732325 0.7587198018768394 0
outer loop
vertex 6.8897 7.2479 -50
vertex 6.1211 7.9078 -50
vertex 6.1211 7.9078 50
endloop
endfacet
facet normal 0.6514171184732325 0.7587198018768394 0
outer loop
vertex 6.8897 7.2479 -50
vertex 6.1211 7.9078 50
vertex 6.8897 7.2479 50
endloop
endfacet
facet normal 0.7247972936935737 0.6889621782467246 0
outer loop
vertex 6.8897 7.2479 -50
vertex 6.8897 7.2479 50
vertex 7.5876 6.5137 50
endloop
endfacet
facet normal 0.7247972936935737 0.6889621782467246 0
outer loop
vertex 6.8897 7.2479 -50
vertex 7.5876 6.5137 50
vertex 7.5876 6.5137 -50
endloop
endfacet
facet normal 0.39440776319472765 0.9189355343720971 0
outer loop
vertex 4.4039 8.978 50
vertex 4.4039 8.978 -50
vertex 3.4731 9.3775 -50
endloop
endfacet
facet normal 0.39440776319472765 0.9189355343720971 0
outer loop
vertex 4.4039 8.978 50
vertex 3.4731 9.3775 -50
vertex 3.4731 9.3775 50
endloop
endfacet
facet normal 0.3936472772070365 0.9171636686465828 0.06206952603514531
outer loop
vertex 4.4039 8.978 50
vertex 3.4731 9.3775 50
vertex 5 5 105
endloop
endfacet
facet normal 0.20129635723627493 0.97953038572747 0
outer loop
vertex 1.5143 9.8847 -50
vertex 1.5143 9.8847 50
vertex 2.5065 9.6808 50
endloop
endfacet
facet normal 0.20129635723627493 0.97953038572747 0
outer loop
vertex 1.5143 9.8847 -50
vertex 2.5065 9.6808 50
vertex 2.5065 9.6808 -50
endloop
endfacet
facet normal 0.10118469436460001 0.9948676583477536 0
outer loop
vertex 1.5143 9.8847 -50
vertex 0.5065 9.9872 -50
vertex 0.5065 9.9872 50
endloop
endfacet
facet normal 0.10118469436460001 0.9948676583477536 0
outer loop
vertex 1.5143 9.8847 -50
vertex 0.5065 9.9872 50
vertex 1.5143 9.8847 50
endloop
endfacet
facet normal -0.7896327805567367 -0.6112014031774983 0.053971442671970744
outer loop
vertex -7.5876 -6.5137 50
vertex -5 -5 105
vertex -8.2076 -5.7127 50
endloop
endfacet
facet normal -0.7237791120268833 -0.6879943370792183 0.05298668833304684
outer loop
vertex -7.5876 -6.5137 50
vertex -6.8897 -7.2479 50
vertex -5 -5 105
endloop
endfacet
facet normal -0.847280398154367 -0.5281581544386705 0.05625736221433432
outer loop
vertex -8.7435 -4.853 50
vertex -8.2076 -5.7127 50
vertex -5 -5 105
endloop
endfacet
facet normal -0.8961895603909898 -0.43961970847858123 0.059822936766860325
outer loop
vertex -8.7435 -4.853 50
vertex -5 -5 105
vertex -9.1896 -3.9436 50
endloop
endfacet
facet normal -0.9854773441157212 -0.15097595584475476 0.07772171505690609
outer loop
vertex -9.9487 -1.0117 50
vertex -9.7953 -2.013 50
vertex -5 -5 105
endloop
endfacet
facet normal -0.9950279507905465 -0.05045461488144162 0.08587030326446408
outer loop
vertex -9.9487 -1.0117 50
vertex -5 -5 105
vertex -10 0 50
endloop
endfacet
facet normal -0.9358049394613966 -0.34654334495001937 0.06462836335931395
outer loop
vertex -9.5414 -2.9936 50
vertex -9.1896 -3.9436 50
vertex -5 -5 105
endloop
endfacet
facet normal -0.9656592970776546 -0.25003150675914376 0.07061421666521664
outer loop
vertex -9.5414 -2.9936 50
vertex -5 -5 105
vertex -9.7953 -2.013 50
endloop
endfacet
facet normal -0.9656592970776546 0.25003150675914376 0.07061421666521664
outer loop
vertex -9.5414 2.9936 50
vertex -9.7953 2.013 50
vertex -5 5 105
endloop
endfacet
facet normal -0.9358049394613966 0.34654334495001937 0.06462836335931395
outer loop
vertex -9.5414 2.9936 50
vertex -5 5 105
vertex -9.1896 3.9436 50
endloop
endfacet
facet normal -0.9854773441157212 0.15097595584475476 0.07772171505690609
outer loop
vertex -9.9487 1.0117 50
vertex -5 5 105
vertex -9.7953 2.013 50
endloop
endfacet
facet normal -0.9950279507905465 0.05045461488144162 0.08587030326446408
outer loop
vertex -9.9487 1.0117 50
vertex -10 0 50
vertex -5 5 105
endloop
endfacet
facet normal -0.3936472772070365 0.9171636686465828 0.06206952603514531
outer loop
vertex -4.4039 8.978 50
vertex -5 5 105
vertex -3.4731 9.3775 50
endloop
endfacet
facet normal -0.6504906316982829 0.7576407024144568 0.05331513966686732
outer loop
vertex -6.1211 7.9078 50
vertex -6.8897 7.2479 50
vertex -5 5 105
endloop
endfacet
facet normal -0.10118469436460001 0.9948676583477536 0
outer loop
vertex -0.5065 9.9872 -50
vertex -1.5143 9.8847 -50
vertex -1.5143 9.8847 50
endloop
endfacet
facet normal -0.10118469436460001 0.9948676583477536 0
outer loop
vertex -0.5065 9.9872 -50
vertex -1.5143 9.8847 50
vertex -0.5065 9.9872 50
endloop
endfacet
facet normal 0 1 0
outer loop
vertex -0.5065 9.9872 -50
vertex -0.5065 9.9872 50
vertex 0.5065 9.9872 50
endloop
endfacet
facet normal 0 1 0
outer loop
vertex -0.5065 9.9872 -50
vertex 0.5065 9.9872 50
vertex 0.5065 9.9872 -50
endloop
endfacet
facet normal 0.3936472772070365 -0.9171636686465828 0.06206952603514531
outer loop
vertex 4.4039 -8.978 50
vertex 5 -5 105
vertex 3.4731 -9.3775 50
endloop
endfacet
facet normal 0.39440776319472765 -0.9189355343720971 0
outer loop
vertex 4.4039 -8.978 50
vertex 3.4731 -9.3775 50
vertex 3.4731 -9.3775 -50
endloop
endfacet
facet normal 0.39440776319472765 -0.9189355343720971 0
outer loop
vertex 4.4039 -8.978 50
vertex 3.4731 -9.3775 -50
vertex 4.4039 -8.978 -50
endloop
endfacet
facet normal 0.4852992421548238 -0.8743481260710483 0
outer loop
vertex 4.4039 -8.978 50
vertex 4.4039 -8.978 -50
vertex 5.2896 -8.4864 -50
endloop
endfacet
facet normal 0.4852992421548238 -0.8743481260710483 0
outer loop
vertex 4.4039 -8.978 50
vertex 5.2896 -8.4864 -50
vertex 5.2896 -8.4864 50
endloop
endfacet
facet normal 0.4844855978408368 -0.8728822091286189 0.05788224660074042
outer loop
vertex 4.4039 -8.978 50
vertex 5.2896 -8.4864 50
vertex 5 -5 105
endloop
endfacet
facet normal 0.2007439491025731 -0.9768423065207071 0.07403360784136108
outer loop
vertex 1.5143 -9.8847 50
vertex 2.5065 -9.6808 50
vertex 5 -5 105
endloop
endfacet
facet normal 0.10084667567079639 -0.9915441925954093 0.08167044836700185
outer loop
vertex 1.5143 -9.8847 50
vertex 5 -5 105
vertex 0.5065 -9.9872 50
endloop
endfacet
facet normal 0 -1 0
outer loop
vertex 0.5065 -9.9872 -50
vertex 0.5065 -9.9872 50
vertex -0.5065 -9.9872 50
endloop
endfacet
facet normal 0 -1 0
outer loop
vertex 0.5065 -9.9872 -50
vertex -0.5065 -9.9872 50
vertex -0.5065 -9.9872 -50
endloop
endfacet
facet normal -0.2007439491025731 -0.9768423065207071 0.07403360784136108
outer loop
vertex -1.5143 -9.8847 50
vertex -5 -5 105
vertex -2.5065 -9.6808 50
endloop
endfacet
facet normal -0.10084667567079639 -0.9915441925954093 0.08167044836700185
outer loop
vertex -1.5143 -9.8847 50
vertex -0.5065 -9.9872 50
vertex -5 -5 105
endloop
endfacet
facet normal -0.29938764986343336 -0.954131560692366 0
outer loop
vertex -2.5065 -9.6808 -50
vertex -2.5065 -9.6808 50
vertex -3.4731 -9.3775 50
endloop
endfacet
facet normal -0.29938764986343336 -0.954131560692366 0
outer loop
vertex -2.5065 -9.6808 -50
vertex -3.4731 -9.3775 50
vertex -3.4731 -9.3775 -50
endloop
endfacet
facet normal -0.3936472772070365 -0.9171636686465828 0.06206952603514531
outer loop
vertex -4.4039 -8.978 50
vertex -3.4731 -9.3775 50
vertex -5 -5 105
endloop
endfacet
facet normal -0.4844855978408368 -0.8728822091286189 0.05788224660074042
outer loop
vertex -4.4039 -8.978 50
vertex -5 -5 105
vertex -5.2896 -8.4864 50
endloop
endfacet
facet normal -0.6514171184732325 -0.7587198018768394 0
outer loop
vertex -6.1211 -7.9078 50
vertex -6.8897 -7.2479 50
vertex -6.8897 -7.2479 -50
endloop
endfacet
facet normal -0.6514171184732325 -0.7587198018768394 0
outer loop
vertex -6.1211 -7.9078 50
vertex -6.8897 -7.2479 -50
vertex -6.1211 -7.9078 -50
endloop
endfacet
facet normal -0.5711743917810757 -0.8208287362011142 0
outer loop
vertex -6.1211 -7.9078 50
vertex -6.1211 -7.9078 -50
vertex -5.2896 -8.4864 -50
endloop
endfacet
facet normal -0.5711743917810757 -0.8208287362011142 0
outer loop
vertex -6.1211 -7.9078 50
vertex -5.2896 -8.4864 -50
vertex -5.2896 -8.4864 50
endloop
endfacet
facet normal -0.5703112229933498 -0.8195882853767209 0.05495590415120497
outer loop
vertex -6.1211 -7.9078 50
vertex -5.2896 -8.4864 50
vertex -5 -5 105
endloop
endfacet
facet normal -0.6504906316982829 -0.7576407024144568 0.05331513966686732
outer loop
vertex -6.1211 -7.9078 50
vertex -5 -5 105
vertex -6.8897 -7.2479 50
endloop
endfacet
facet normal 0.8486243640961293 0.5289959249960631 0
outer loop
vertex 8.2076 5.7127 50
vertex 8.7435 4.853 50
vertex 8.7435 4.853 -50
endloop
endfacet
facet normal 0.8486243640961293 0.5289959249960631 0
outer loop
vertex 8.2076 5.7127 50
vertex 8.7435 4.853 -50
vertex 8.2076 5.7127 -50
endloop
endfacet
facet normal 0.790785366435497 0.6120935420599344 0
outer loop
vertex 8.2076 5.7127 50
vertex 8.2076 5.7127 -50
vertex 7.5876 6.5137 -50
endloop
endfacet
facet normal 0.790785366435497 0.6120935420599344 0
outer loop
vertex 8.2076 5.7127 50
vertex 7.5876 6.5137 -50
vertex 7.5876 6.5137 50
endloop
endfacet
facet normal 0.7896327805567367 0.6112014031774983 0.053971442671970744
outer loop
vertex 8.2076 5.7127 50
vertex 7.5876 6.5137 50
vertex 5 5 105
endloop
endfacet
facet normal 0.847280398154367 0.5281581544386705 0.05625736221433432
outer loop
vertex 8.2076 5.7127 50
vertex 5 5 105
vertex 8.7435 4.853 50
endloop
endfacet
facet normal 0.4852992421548238 0.8743481260710483 0
outer loop
vertex 5.2896 8.4864 50
vertex 5.2896 8.4864 -50
vertex 4.4039 8.978 -50
endloop
endfacet
facet normal 0.4852992421548238 0.8743481260710483 0
outer loop
vertex 5.2896 8.4864 50
vertex 4.4039 8.978 -50
vertex 4.4039 8.978 50
endloop
endfacet
facet normal 0.4844855978408368 0.8728822091286189 0.05788224660074043
outer loop
vertex 5.2896 8.4864 50
vertex 4.4039 8.978 50
vertex 5 5 105
endloop
endfacet
facet normal 0.5703112229933498 0.8195882853767209 0.05495590415120497
outer loop
vertex 5.2896 8.4864 50
vertex 5 5 105
vertex 6.1211 7.9078 50
endloop
endfacet
facet normal 0.5711743917810757 0.8208287362011142 0
outer loop
vertex 5.2896 8.4864 50
vertex 6.1211 7.9078 50
vertex 6.1211 7.9078 -50
endloop
endfacet
facet normal 0.5711743917810757 0.8208287362011142 0
outer loop
vertex 5.2896 8.4864 50
vertex 6.1211 7.9078 -50
vertex 5.2896 8.4864 -50
endloop
endfacet
facet normal -0.790785366435497 -0.6120935420599344 0
outer loop
vertex -7.5876 -6.5137 -50
vertex -7.5876 -6.5137 50
vertex -8.2076 -5.7127 50
endloop
endfacet
facet normal -0.790785366435497 -0.6120935420599344 0
outer loop
vertex -7.5876 -6.5137 -50
vertex -8.2076 -5.7127 50
vertex -8.2076 -5.7127 -50
endloop
endfacet
facet normal -0.7247972936935737 -0.6889621782467246 0
outer loop
vertex -7.5876 -6.5137 -50
vertex -6.8897 -7.2479 -50
vertex -6.8897 -7.2479 50
endloop
endfacet
facet normal -0.7247972936935737 -0.6889621782467246 0
outer loop
vertex -7.5876 -6.5137 -50
vertex -6.8897 -7.2479 50
vertex -7.5876 -6.5137 50
endloop
endfacet
facet normal -0.8486243640961293 -0.5289959249960631 0
outer loop
vertex -8.7435 -4.853 -50
vertex -8.2076 -5.7127 -50
vertex -8.2076 -5.7127 50
endloop
endfacet
facet normal -0.8486243640961293 -0.5289959249960631 0
outer loop
vertex -8.7435 -4.853 -50
vertex -8.2076 -5.7127 50
vertex -8.7435 -4.853 50
endloop
endfacet
facet normal -0.8977975118872962 -0.4404084781756368 0
outer loop
vertex -8.7435 -4.853 -50
vertex -8.7435 -4.853 50
vertex -9.1896 -3.9436 50
endloop
endfacet
facet normal -0.8977975118872962 -0.4404084781756368 0
outer loop
vertex -8.7435 -4.853 -50
vertex -9.1896 -3.9436 50
vertex -9.1896 -3.9436 -50
endloop
endfacet
facet normal -0.9884673664942781 -0.15143402978150763 0
outer loop
vertex -9.9487 -1.0117 -50
vertex -9.7953 -2.013 -50
vertex -9.7953 -2.013 50
endloop
endfacet
facet normal -0.9884673664942781 -0.15143402978150763 0
outer loop
vertex -9.9487 -1.0117 -50
vertex -9.7953 -2.013 50
vertex -9.9487 -1.0117 50
endloop
endfacet
facet normal -0.9987168875015401 -0.05064166880382373 0
outer loop
vertex -9.9487 -1.0117 -50
vertex -9.9487 -1.0117 50
vertex -10 0 50
endloop
endfacet
facet normal -0.9987168875015401 -0.05064166880382373 0
outer loop
vertex -9.9487 -1.0117 -50
vertex -10 0 50
vertex -10 0 -50
endloop
endfacet
facet normal -0.9377654299705044 -0.34726934554065525 0
outer loop
vertex -9.5414 -2.9936 -50
vertex -9.1896 -3.9436 -50
vertex -9.1896 -3.9436 50
endloop
endfacet
facet normal -0.9377654299705044 -0.34726934554065525 0
outer loop
vertex -9.5414 -2.9936 -50
vertex -9.1896 -3.9436 50
vertex -9.5414 -2.9936 50
endloop
endfacet
facet normal -0.9680759045257322 -0.2506572222711434 0
outer loop
vertex -9.5414 -2.9936 -50
vertex -9.5414 -2.9936 50
vertex -9.7953 -2.013 50
endloop
endfacet
facet normal -0.9680759045257322 -0.2506572222711434 0
outer loop
vertex -9.5414 -2.9936 -50
vertex -9.7953 -2.013 50
vertex -9.7953 -2.013 -50
endloop
endfacet
facet normal -0.790785366435497 0.6120935420599344 0
outer loop
vertex -7.5876 6.5137 50
vertex -7.5876 6.5137 -50
vertex -8.2076 5.7127 -50
endloop
endfacet
facet normal -0.790785366435497 0.6120935420599344 0
outer loop
vertex -7.5876 6.5137 50
vertex -8.2076 5.7127 -50
vertex -8.2076 5.7127 50
endloop
endfacet
facet normal -0.7896327805567367 0.6112014031774983 0.053971442671970744
outer loop
vertex -7.5876 6.5137 50
vertex -8.2076 5.7127 50
vertex -5 5 105
endloop
endfacet
facet normal -0.7237791120268833 0.6879943370792183 0.05298668833304684
outer loop
vertex -7.5876 6.5137 50
vertex -5 5 105
vertex -6.8897 7.2479 50
endloop
endfacet
facet normal -0.7247972936935737 0.6889621782467246 0
outer loop
vertex -7.5876 6.5137 50
vertex -6.8897 7.2479 50
vertex -6.8897 7.2479 -50
endloop
endfacet
facet normal -0.7247972936935737 0.6889621782467246 0
outer loop
vertex -7.5876 6.5137 50
vertex -6.8897 7.2479 -50
vertex -7.5876 6.5137 -50
endloop
endfacet
facet normal -0.39440776319472765 0.9189355343720971 0
outer loop
vertex -4.4039 8.978 -50
vertex -4.4039 8.978 50
vertex -3.4731 9.3775 50
endloop
endfacet
facet normal -0.39440776319472765 0.9189355343720971 0
outer loop
vertex -4.4039 8.978 -50
vertex -3.4731 9.3775 50
vertex -3.4731 9.3775 -50
endloop
endfacet
facet normal -0.6514171184732325 0.7587198018768394 0
outer loop
vertex -6.1211 7.9078 -50
vertex -6.8897 7.2479 -50
vertex -6.8897 7.2479 50
endloop
endfacet
facet normal -0.6514171184732325 0.7587198018768394 0
outer loop
vertex -6.1211 7.9078 -50
vertex -6.8897 7.2479 50
vertex -6.1211 7.9078 50
endloop
endfacet
facet normal -0.4852992421548238 0.8743481260710483 0
outer loop
vertex -5.2896 8.4864 50
vertex -4.4039 8.978 50
vertex -4.4039 8.978 -50
endloop
endfacet
facet normal -0.4852992421548238 0.8743481260710483 0
outer loop
vertex -5.2896 8.4864 50
vertex -4.4039 8.978 -50
vertex -5.2896 8.4864 -50
endloop
endfacet
facet normal -0.5711743917810757 0.8208287362011142 0
outer loop
vertex -5.2896 8.4864 50
vertex -5.2896 8.4864 -50
vertex -6.1211 7.9078 -50
endloop
endfacet
facet normal -0.5711743917810757 0.8208287362011142 0
outer loop
vertex -5.2896 8.4864 50
vertex -6.1211 7.9078 -50
vertex -6.1211 7.9078 50
endloop
endfacet
facet normal -0.5703112229933498 0.8195882853767209 0.05495590415120497
outer loop
vertex -5.2896 8.4864 50
vertex -6.1211 7.9078 50
vertex -5 5 105
endloop
endfacet
facet normal -0.4844855978408368 0.8728822091286189 0.05788224660074043
outer loop
vertex -5.2896 8.4864 50
vertex -5 5 105
vertex -4.4039 8.978 50
endloop
endfacet
facet normal -0.20129635723627493 0.97953038572747 0
outer loop
vertex -2.5065 9.6808 50
vertex -1.5143 9.8847 50
vertex -1.5143 9.8847 -50
endloop
endfacet
facet normal -0.20129635723627493 0.97953038572747 0
outer loop
vertex -2.5065 9.6808 50
vertex -1.5143 9.8847 -50
vertex -2.5065 9.6808 -50
endloop
endfacet
facet normal -0.29938764986343336 0.954131560692366 0
outer loop
vertex -2.5065 9.6808 50
vertex -2.5065 9.6808 -50
vertex -3.4731 9.3775 -50
endloop
endfacet
facet normal -0.29938764986343336 0.954131560692366 0
outer loop
vertex -2.5065 9.6808 50
vertex -3.4731 9.3775 -50
vertex -3.4731 9.3775 50
endloop
endfacet
facet normal -0.2987053445656607 0.9519570921766157 0.06747452691610598
outer loop
vertex -2.5065 9.6808 50
vertex -3.4731 9.3775 50
vertex -5 5 105
endloop
endfacet
facet normal -0.2007439491025731 0.9768423065207071 0.07403360784136108
outer loop
vertex -2.5065 9.6808 50
vertex -5 5 105
vertex -1.5143 9.8847 50
endloop
endfacet
facet normal 0.10118469436460001 -0.9948676583477536 0
outer loop
vertex 1.5143 -9.8847 -50
vertex 1.5143 -9.8847 50
vertex 0.5065 -9.9872 50
endloop
endfacet
facet normal 0.10118469436460001 -0.9948676583477536 0
outer loop
vertex 1.5143 -9.8847 -50
vertex 0.5065 -9.9872 50
vertex 0.5065 -9.9872 -50
endloop
endfacet
facet normal 0.20129635723627493 -0.97953038572747 0
outer loop
vertex 1.5143 -9.8847 -50
vertex 2.5065 -9.6808 -50
vertex 2.5065 -9.6808 50
endloop
endfacet
facet normal 0.20129635723627493 -0.97953038572747 0
outer loop
vertex 1.5143 -9.8847 -50
vertex 2.5065 -9.6808 50
vertex 1.5143 -9.8847 50
endloop
endfacet
facet normal -0.20129635723627493 -0.97953038572747 0
outer loop
vertex -1.5143 -9.8847 -50
vertex -1.5143 -9.8847 50
vertex -2.5065 -9.6808 50
endloop
endfacet
facet normal -0.20129635723627493 -0.97953038572747 0
outer loop
vertex -1.5143 -9.8847 -50
vertex -2.5065 -9.6808 50
vertex -2.5065 -9.6808 -50
endloop
endfacet
facet normal -0.10118469436460001 -0.9948676583477536 0
outer loop
vertex -1.5143 -9.8847 -50
vertex -0.5065 -9.9872 -50
vertex -0.5065 -9.9872 50
endloop
endfacet
facet normal -0.10118469436460001 -0.9948676583477536 0
outer loop
vertex -1.5143 -9.8847 -50
vertex -0.5065 -9.9872 50
vertex -1.5143 -9.8847 50
endloop
endfacet
facet normal -0.39440776319472765 -0.9189355343720971 0
outer loop
vertex -4.4039 -8.978 -50
vertex -3.4731 -9.3775 -50
vertex -3.4731 -9.3775 50
endloop
endfacet
facet normal -0.39440776319472765 -0.9189355343720971 0
outer loop
vertex -4.4039 -8.978 -50
vertex -3.4731 -9.3775 50
vertex -4.4039 -8.978 50
endloop
endfacet
facet normal -0.4852992421548238 -0.8743481260710483 0
outer loop
vertex -4.4039 -8.978 -50
vertex -4.4039 -8.978 50
vertex -5.2896 -8.4864 50
endloop
endfacet
facet normal -0.4852992421548238 -0.8743481260710483 0
outer loop
vertex -4.4039 -8.978 -50
vertex -5.2896 -8.4864 50
vertex -5.2896 -8.4864 -50
endloop
endfacet
facet normal -0.8486243640961293 0.5289959249960631 0
outer loop
vertex -8.7435 4.853 50
vertex -8.2076 5.7127 50
vertex -8.2076 5.7127 -50
endloop
endfacet
facet normal -0.8486243640961293 0.5289959249960631 0
outer loop
vertex -8.7435 4.853 50
vertex -8.2076 5.7127 -50
vertex -8.7435 4.853 -50
endloop
endfacet
facet normal -0.8977975118872962 0.4404084781756368 0
outer loop
vertex -8.7435 4.853 50
vertex -8.7435 4.853 -50
vertex -9.1896 3.9436 -50
endloop
endfacet
facet normal -0.8977975118872962 0.4404084781756368 0
outer loop
vertex -8.7435 4.853 50
vertex -9.1896 3.9436 -50
vertex -9.1896 3.9436 50
endloop
endfacet
facet normal -0.8961895603909898 0.43961970847858123 0.059822936766860325
outer loop
vertex -8.7435 4.853 50
vertex -9.1896 3.9436 50
vertex -5 5 105
endloop
endfacet
facet normal -0.847280398154367 0.5281581544386705 0.05625736221433432
outer loop
vertex -8.7435 4.853 50
vertex -5 5 105
vertex -8.2076 5.7127 50
endloop
endfacet
facet normal -0.9680759045257322 0.2506572222711434 0
outer loop
vertex -9.5414 2.9936 -50
vertex -9.7953 2.013 -50
vertex -9.7953 2.013 50
endloop
endfacet
facet normal -0.9680759045257322 0.2506572222711434 0
outer loop
vertex -9.5414 2.9936 -50
vertex -9.7953 2.013 50
vertex -9.5414 2.9936 50
endloop
endfacet
facet normal -0.9377654299705044 0.34726934554065525 0
outer loop
vertex -9.5414 2.9936 -50
vertex -9.5414 2.9936 50
vertex -9.1896 3.9436 50
endloop
endfacet
facet normal -0.9377654299705044 0.34726934554065525 0
outer loop
vertex -9.5414 2.9936 -50
vertex -9.1896 3.9436 50
vertex -9.1896 3.9436 -50
endloop
endfacet
facet normal -0.9884673664942781 0.15143402978150763 0
outer loop
vertex -9.9487 1.0117 -50
vertex -9.9487 1.0117 50
vertex -9.7953 2.013 50
endloop
endfacet
facet normal -0.9884673664942781 0.15143402978150763 0
outer loop
vertex -9.9487 1.0117 -50
vertex -9.7953 2.013 50
vertex -9.7953 2.013 -50
endloop
endfacet
facet normal 0 0 -1
outer loop
vertex -9.9487 1.0117 -50
vertex -9.7953 2.013 -50
vertex -9.5414 2.9936 -50
endloop
endfacet
facet normal 0 0 -1
outer loop
vertex -9.9487 1.0117 -50
vertex -9.5414 2.9936 -50
vertex -9.1896 3.9436 -50
endloop
endfacet
facet normal 0 0 -1
outer loop
vertex -9.9487 1.0117 -50
vertex -9.1896 3.9436 -50
vertex -8.7435 4.853 -50
endloop
endfacet
facet normal 0 0 -1
outer loop
vertex -9.9487 1.0117 -50
vertex -8.7435 4.853 -50
vertex -8.2076 5.7127 -50
endloop
endfacet
facet normal 0 0 -1
outer loop
vertex -9.9487 1.0117 -50
vertex -8.2076 5.7127 -50
vertex -7.5876 6.5137 -50
endloop
endfacet
facet normal 0 0 -1
outer loop
vertex -9.9487 1.0117 -50
vertex -7.5876 6.5137 -50
vertex -6.8897 7.2479 -50
endloop
endfacet
facet normal 0 0 -1
outer loop
vertex -9.9487 1.0117 -50
vertex -6.8897 7.2479 -50
vertex -6.1211 7.9078 -50
endloop
endfacet
facet normal 0 0 -1
outer loop
vertex -9.9487 1.0117 -50
vertex -6.1211 7.9078 -50
vertex -5.2896 8.4864 -50
endloop
endfacet
facet normal 0 0 -1
outer loop
vertex -9.9487 1.0117 -50
vertex -5.2896 8.4864 -50
vertex -4.4039 8.978 -50
endloop
endfacet
facet normal 0 0 -1
outer loop
vertex -9.9487 1.0117 -50
vertex -4.4039 8.978 -50
vertex -3.4731 9.3775 -50
endloop
endfacet
facet normal 0 0 -1
outer loop
vertex -9.9487 1.0117 -50
vertex -3.4731 9.3775 -50
vertex -2.5065 9.6808 -50
endloop
endfacet
facet normal 0 0 -1
outer loop
vertex -9.9487 1.0117 -50
vertex -2.5065 9.6808 -50
vertex -1.5143 9.8847 -50
endloop
endfacet
facet normal 0 0 -1
outer loop
vertex -9.9487 1.0117 -50
vertex -1.5143 9.8847 -50
vertex -0.5065 9.9872 -50
endloop
endfacet
facet normal 0 0 -1
outer loop
vertex -9.9487 1.0117 -50
vertex -0.5065 9.9872 -50
vertex 0.5065 9.9872 -50
endloop
endfacet
facet normal 0 0 -1
outer loop
vertex -9.9487 1.0117 -50
vertex 0.5065 9.9872 -50
vertex 1.5143 9.8847 -50
endloop
endfacet
facet normal 0 0 -1
outer loop
vertex -9.9487 1.0117 -50
vertex 1.5143 9.8847 -50
vertex 2.5065 9.6808 -50
endloop
endfacet
facet normal 0 0 -1
outer loop
vertex -9.9487 1.0117 -50
vertex 2.5065 9.6808 -50
vertex 3.4731 9.3775 -50
endloop
endfacet
facet normal 0 0 -1
outer loop
vertex -9.9487 1.0117 -50
vertex 3.4731 9.3775 -50
vertex 4.4039 8.978 -50
endloop
endfacet
facet normal 0 0 -1
outer loop
vertex -9.9487 1.0117 -50
vertex 4.4039 8.978 -50
vertex 5.2896 8.4864 -50
endloop
endfacet
facet normal 0 0 -1
outer loop
vertex -9.9487 1.0117 -50
vertex 5.2896 8.4864 -50
vertex 6.1211 7.9078 -50
endloop
endfacet
facet normal 0 0 -1
outer loop
vertex -9.9487 1.0117 -50
vertex 6.1211 7.9078 -50
vertex 6.8897 7.2479 -50
endloop
endfacet
facet normal 0 0 -1
outer loop
vertex -9.9487 1.0117 -50
vertex 6.8897 7.2479 -50
vertex 7.5876 6.5137 -50
endloop
endfacet
facet normal 0 0 -1
outer loop
vertex -9.9487 1.0117 -50
vertex 7.5876 6.5137 -50
vertex 8.2076 5.7127 -50
endloop
endfacet
facet normal 0 0 -1
outer loop
vertex -9.9487 1.0117 -50
vertex 8.2076 5.7127 -50
vertex 8.7435 4.853 -50
endloop
endfacet
facet normal 0 0 -1
outer loop
vertex -9.9487 1.0117 -50
vertex 8.7435 4.853 -50
vertex 9.1896 3.9436 -50
endloop
endfacet
facet normal 0 0 -1
outer loop
vertex -9.9487 1.0117 -50
vertex 9.1896 3.9436 -50
vertex 9.5414 2.9936 -50
endloop
endfacet
facet normal 0 0 -1
outer loop
vertex -9.9487 1.0117 -50
vertex 9.5414 2.9936 -50
vertex 9.7953 2.013 -50
endloop
endfacet
facet normal 0 0 -1
outer loop
vertex -9.9487 1.0117 -50
vertex 9.7953 2.013 -50
vertex 9.9487 1.0117 -50
endloop
endfacet
facet normal 0 0 -1
outer loop
vertex -9.9487 1.0117 -50
vertex 9.9487 1.0117 -50
vertex 10 0 -50
endloop
endfacet
facet normal 0 0 -1
outer loop
vertex -9.9487 1.0117 -50
vertex 10 0 -50
vertex 9.9487 -1.0117 -50
endloop
endfacet
facet normal 0 0 -1
outer loop
vertex -9.9487 1.0117 -50
vertex 9.9487 -1.0117 -50
vertex 9.7953 -2.013 -50
endloop
endfacet
facet normal 0 0 -1
outer loop
vertex -9.9487 1.0117 -50
vertex 9.7953 -2.013 -50
vertex 9.5414 -2.9936 -50
endloop
endfacet
facet normal 0 0 -1
outer loop
vertex -9.9487 1.0117 -50
vertex 9.5414 -2.9936 -50
vertex 9.1896 -3.9436 -50
endloop
endfacet
facet normal 0 0 -1
outer loop
vertex -9.9487 1.0117 -50
vertex 9.1896 -3.9436 -50
vertex 8.7435 -4.853 -50
endloop
endfacet
facet normal 0 0 -1
outer loop
vertex -9.9487 1.0117 -50
vertex 8.7435 -4.853 -50
vertex 8.2076 -5.7127 -50
endloop
endfacet
facet normal 0 0 -1
outer loop
vertex -9.9487 1.0117 -50
vertex 8.2076 -5.7127 -50
vertex 7.5876 -6.5137 -50
endloop
endfacet
facet normal 0 0 -1
outer loop
vertex -9.9487 1.0117 -50
vertex 7.5876 -6.5137 -50
vertex 6.8897 -7.2479 -50
endloop
endfacet
facet normal 0 0 -1
outer loop
vertex -9.9487 1.0117 -50
vertex 6.8897 -7.2479 -50
vertex 6.1211 -7.9078 -50
endloop
endfacet
facet normal 0 0 -1
outer loop
vertex -9.9487 1.0117 -50
vertex 6.1211 -7.9078 -50
vertex 5.2896 -8.4864 -50
endloop
endfacet
facet normal 0 0 -1
outer loop
vertex -9.9487 1.0117 -50
vertex 5.2896 -8.4864 -50
vertex 4.4039 -8.978 -50
endloop
endfacet
facet normal 0 0 -1
outer loop
vertex -9.9487 1.0117 -50
vertex 4.4039 -8.978 -50
vertex 3.4731 -9.3775 -50
endloop
endfacet
facet normal 0 0 -1
outer loop
vertex -9.9487 1.0117 -50
vertex 3.4731 -9.3775 -50
vertex 2.5065 -9.6808 -50
endloop
endfacet
facet normal 0 0 -1
outer loop
vertex -9.9487 1.0117 -50
vertex 2.5065 -9.6808 -50
vertex 1.5143 -9.8847 -50
endloop
endfacet
facet normal 0 0 -1
outer loop
vertex -9.9487 1.0117 -50
vertex 1.5143 -9.8847 -50
vertex 0.5065 -9.9872 -50
endloop
endfacet
facet normal 0 0 -1
outer loop
vertex -9.9487 1.0117 -50
vertex 0.5065 -9.9872 -50
vertex -0.5065 -9.9872 -50
endloop
endfacet
facet normal 0 0 -1
outer loop
vertex -9.9487 1.0117 -50
vertex -0.5065 -9.9872 -50
vertex -1.5143 -9.8847 -50
endloop
endfacet
facet normal 0 0 -1
outer loop
vertex -9.9487 1.0117 -50
vertex -1.5143 -9.8847 -50
vertex -2.5065 -9.6808 -50
endloop
endfacet
facet normal 0 0 -1
outer loop
vertex -9.9487 1.0117 -50
vertex -2.5065 -9.6808 -50
vertex -3.4731 -9.3775 -50
endloop
endfacet
facet normal 0 0 -1
outer loop
vertex -9.9487 1.0117 -50
vertex -3.4731 -9.3775 -50
vertex -4.4039 -8.978 -50
endloop
endfacet
facet normal 0 0 -1
outer loop
vertex -9.9487 1.0117 -50
vertex -4.4039 -8.978 -50
vertex -5.2896 -8.4864 -50
endloop
endfacet
facet normal 0 0 -1
outer loop
vertex -9.9487 1.0117 -50
vertex -5.2896 -8.4864 -50
vertex -6.1211 -7.9078 -50
endloop
endfacet
facet normal 0 0 -1
outer loop
vertex -9.9487 1.0117 -50
vertex -6.1211 -7.9078 -50
vertex -6.8897 -7.2479 -50
endloop
endfacet
facet normal 0 0 -1
outer loop
vertex -9.9487 1.0117 -50
vertex -6.8897 -7.2479 -50
vertex -7.5876 -6.5137 -50
endloop
endfacet
facet normal 0 0 -1
outer loop
vertex -9.9487 1.0117 -50
vertex -7.5876 -6.5137 -50
vertex -8.2076 -5.7127 -50
endloop
endfacet
facet normal 0 0 -1
outer loop
vertex -9.9487 1.0117 -50
vertex -8.2076 -5.7127 -50
vertex -8.7435 -4.853 -50
endloop
endfacet
facet normal 0 0 -1
outer loop
vertex -9.9487 1.0117 -50
vertex -8.7435 -4.853 -50
vertex -9.1896 -3.9436 -50
endloop
endfacet
facet normal 0 0 -1
outer loop
vertex -9.9487 1.0117 -50
vertex -9.1896 -3.9436 -50
vertex -9.5414 -2.9936 -50
endloop
endfacet
facet normal 0 0 -1
outer loop
vertex -9.9487 1.0117 -50
vertex -9.5414 -2.9936 -50
vertex -9.7953 -2.013 -50
endloop
endfacet
facet normal 0 0 -1
outer loop
vertex -9.9487 1.0117 -50
vertex -9.7953 -2.013 -50
vertex -9.9487 -1.0117 -50
endloop
endfacet
facet normal 0 0 -1
outer loop
vertex -9.9487 1.0117 -50
vertex -9.9487 -1.0117 -50
vertex -10 0 -50
endloop
endfacet
facet normal -0.9987168875015401 0.05064166880382373 0
outer loop
vertex -9.9487 1.0117 -50
vertex -10 0 -50
vertex -10 0 50
endloop
endfacet
facet normal -0.9987168875015401 0.05064166880382373 0
outer loop
vertex -9.9487 1.0117 -50
vertex -10 0 50
vertex -9.9487 1.0117 50
endloop
endfacet
endsolid JSxCAD
