<?xml version="1.0" encoding="UTF-8"?>
<!-- Generated by jsxcad -->
<!DOCTYPE svg PUBLIC "-//W3C//DTD SVG 1.1 Tiny//EN" "http://www.w3.org/Graphics/SVG/1.1/DTD/svg11-tiny.dtd">
<svg viewBox="-250 -250 500 500" width="500" height="500" xmlns="http://www.w3.org/2000/svg"><path d="M33.25355342166635,119.97001215512614L-69.93969014671588,-67.57043149313706L30.869072489445358,116.9313301995431z" style="fill:rgb(21,57,142)"/><path d="M-13.98460789966975,-94.9029027357851L78.38683070582067,98.22303549547627L77.6351896679982,94.39212517835279z" style="fill:rgb(246,167,149)"/><path d="M36.43722360595425,122.40868250422986L-67.5170581436783,-64.72757073204863L33.25355342166635,119.97001215512614z" style="fill:rgb(34,46,160)"/><path d="M78.38683070582067,98.22303549547627L-14.101655247736417,-86.98335173540633L78.17598696147994,102.30194160463343z" style="fill:rgb(246,149,167)"/><path d="M40.30293489716847,124.14515171849942L-64.11157575889271,-62.565899304855776L36.43722360595425,122.40868250422986z" style="fill:rgb(51,38,177)"/><path d="M78.17598696147994,102.30194160463343L-15.847872614549361,-82.65722568046559L77.00136684470607,106.47015568581963z" style="fill:rgb(242,130,183)"/><path d="M-54.88083102453433,-60.63220713304841L40.30293489716847,124.14515171849942L44.703453137753584,125.10382149969467z" style="fill:rgb(71,33,192)"/><path d="M77.00136684470607,106.47015568581963L-18.657436116993292,-78.31183614776516L74.90116801315283,110.56234089802392z" style="fill:rgb(233,112,197)"/><path d="M-49.4102402338665,-60.95461391444971L44.703453137753584,125.10382149969467L49.466840421991776,125.24003921894345z" style="fill:rgb(92,32,204)"/><path d="M74.90116801315283,110.56234089802392L-22.42619341219531,-74.12300413438824L71.95274827519896,114.4136454161652z" style="fill:rgb(220,94,208)"/><path d="M-43.652709319298005,-62.140241832987165L49.466840421991776,125.24003921894345L54.40346166064614,124.54300494101564z" style="fill:rgb(115,34,214)"/><path d="M71.95274827519896,114.4136454161652L-27.007205505546473,-70.26260133936316L68.27021893731788,117.86715976528467z" style="fill:rgb(203,77,216)"/><path d="M-27.007205505546473,-70.26260133936316L63.9999636727321,120.78140161261409L68.27021893731788,117.86715976528467z" style="fill:rgb(183,62,221)"/><path d="M-37.84212341259228,-64.14536310438766L54.40346166064614,124.54300494101564L59.31428436637777,123.03710389449172z" style="fill:rgb(139,40,220)"/><path d="M-32.216653445137645,-66.8902479266371L59.31428436637777,123.03710389449172L63.9999636727321,120.78140161261409z" style="fill:rgb(162,50,222)"/><path d="M-69.93969014671588,-67.57043149313706L33.25355342166635,119.97001215512614L-67.5170581436783,-64.72757073204863z" style="fill:rgb(21,57,142)"/><path d="M78.38683070582067,98.22303549547627L-13.98460789966975,-94.9029027357851L-13.476830634345925,-91.11860653104505z" style="fill:rgb(246,167,149)"/><path d="M-67.5170581436783,-64.72757073204863L36.43722360595425,122.40868250422986L-64.11157575889271,-62.565899304855776z" style="fill:rgb(34,46,160)"/><path d="M-14.101655247736417,-86.98335173540633L78.38683070582067,98.22303549547627L-13.476830634345925,-91.11860653104505z" style="fill:rgb(246,149,167)"/><path d="M-64.11157575889271,-62.565899304855776L40.30293489716847,124.14515171849942L-59.84584779730669,-61.17938445414812z" style="fill:rgb(51,38,177)"/><path d="M-15.847872614549361,-82.65722568046559L78.17598696147994,102.30194160463343L-14.101655247736417,-86.98335173540633z" style="fill:rgb(242,130,183)"/><path d="M40.30293489716847,124.14515171849942L-54.88083102453433,-60.63220713304841L-59.84584779730669,-61.17938445414812z" style="fill:rgb(71,33,192)"/><path d="M-18.657436116993292,-78.31183614776516L77.00136684470607,106.47015568581963L-15.847872614549361,-82.65722568046559z" style="fill:rgb(233,112,197)"/><path d="M44.703453137753584,125.10382149969467L-49.4102402338665,-60.95461391444971L-54.88083102453433,-60.63220713304841z" style="fill:rgb(92,32,204)"/><path d="M-22.42619341219531,-74.12300413438824L74.90116801315283,110.56234089802392L-18.657436116993292,-78.31183614776516z" style="fill:rgb(220,94,208)"/><path d="M49.466840421991776,125.24003921894345L-43.652709319298005,-62.140241832987165L-49.4102402338665,-60.95461391444971z" style="fill:rgb(115,34,214)"/><path d="M-27.007205505546473,-70.26260133936316L71.95274827519896,114.4136454161652L-22.42619341219531,-74.12300413438824z" style="fill:rgb(203,77,216)"/><path d="M54.40346166064614,124.54300494101564L-37.84212341259228,-64.14536310438766L-43.652709319298005,-62.140241832987165z" style="fill:rgb(139,40,220)"/><path d="M63.9999636727321,120.78140161261409L-27.007205505546473,-70.26260133936316L-32.216653445137645,-66.8902479266371z" style="fill:rgb(183,62,221)"/><path d="M59.31428436637777,123.03710389449172L-32.216653445137645,-66.8902479266371L-37.84212341259228,-64.14536310438766z" style="fill:rgb(162,50,222)"/><path d="M-57.77983280944164,-95.0090527137023L-59.84584779730669,-61.17938445414812L-52.77710537509635,-98.21673955649266zM-65.9537466592797,-87.33519580380705L-64.11157575889271,-62.565899304855776L-62.22649870114818,-91.33829554217292zM-62.22649870114818,-91.33829554217292L-59.84584779730669,-61.17938445414812L-57.77983280944164,-95.0090527137023zM-68.82092972639134,-83.14334908025967L-67.5170581436783,-64.72757073204863L-65.9537466592797,-87.33519580380705zM-70.71509190732397,-78.91519535136894L-69.93969014671588,-67.57043149313706L-68.82092972639134,-83.14334908025967zM-52.77710537509635,-98.21673955649266L-49.4102402338665,-60.95461391444971L-47.39925353796131,-100.84701076008784zM-71.29856266800957,-70.97606343836526L-70.71509190732397,-78.91519535136894L-71.55565326115348,-74.80747046744281zM-47.39925353796131,-100.84701076008784L-43.652709319298005,-62.140241832987165L-41.839459146202195,-102.80505409624134zM-41.839459146202195,-102.80505409624134L-43.652709319298005,-62.140241832987165L-36.29768118082566,-104.01827861022896zM-36.29768118082566,-104.01827861022896L-32.216653445137645,-66.8902479266371L-30.97496339985633,-104.43875641498887zM-70.71509190732397,-78.91519535136894L-71.29856266800957,-70.97606343836526L-69.93969014671588,-67.57043149313706zM-30.97496339985633,-104.43875641498887L-27.007205505546473,-70.26260133936316L-26.067442420807215,-104.045172470579zM-68.82092972639134,-83.14334908025967L-69.93969014671588,-67.57043149313706L-67.5170581436783,-64.72757073204863zM-65.9537466592797,-87.33519580380705L-67.5170581436783,-64.72757073204863L-64.11157575889271,-62.565899304855776zM-26.067442420807215,-104.045172470579L-27.007205505546473,-70.26260133936316L-21.760097417868963,-102.844357527839zM-21.760097417868963,-102.844357527839L-18.657436116993292,-78.31183614776516L-18.22025547274759,-100.8722590968126zM-62.22649870114818,-91.33829554217292L-64.11157575889271,-62.565899304855776L-59.84584779730669,-61.17938445414812zM-18.22025547274759,-100.8722590968126L-15.847872614549361,-82.65722568046559L-15.590976535708995,-98.19397854610563zM-52.77710537509635,-98.21673955649266L-59.84584779730669,-61.17938445414812L-54.88083102453433,-60.63220713304841zM-15.590976535708995,-98.19397854610563L-14.101655247736417,-86.98335173540633L-13.98460789966975,-94.9029027357851zM-52.77710537509635,-98.21673955649266L-54.88083102453433,-60.63220713304841L-49.4102402338665,-60.95461391444971zM-47.39925353796131,-100.84701076008784L-49.4102402338665,-60.95461391444971L-43.652709319298005,-62.140241832987165zM-13.98460789966975,-94.9029027357851L-14.101655247736417,-86.98335173540633L-13.476830634345925,-91.11860653104505zM-15.590976535708995,-98.19397854610563L-15.847872614549361,-82.65722568046559L-14.101655247736417,-86.98335173540633zM-36.29768118082566,-104.01827861022896L-43.652709319298005,-62.140241832987165L-37.84212341259228,-64.14536310438766zM-36.29768118082566,-104.01827861022896L-37.84212341259228,-64.14536310438766L-32.216653445137645,-66.8902479266371zM-18.22025547274759,-100.8722590968126L-18.657436116993292,-78.31183614776516L-15.847872614549361,-82.65722568046559zM-30.97496339985633,-104.43875641498887L-32.216653445137645,-66.8902479266371L-27.007205505546473,-70.26260133936316zM-21.760097417868963,-102.844357527839L-22.42619341219531,-74.12300413438824L-18.657436116993292,-78.31183614776516zM-21.760097417868963,-102.844357527839L-27.007205505546473,-70.26260133936316L-22.42619341219531,-74.12300413438824z" style="fill:rgb(83,212,212)"/><path d="M-51.096156370580886,-143.96247232690732L-40.104557981590254,-99.80312502825853L-39.24280018906094,-120.02986103675285z" style="fill:rgb(247,158,158)"/><path d="M-80.83531215580872,-135.13841546987499L-52.24184622420798,-123.84627246153174L-51.096156370580886,-143.96247232690732z" style="fill:rgb(83,212,212)"/><path d="M-52.24184622420798,-123.84627246153174L-69.96485117221798,-91.29655267117876L-40.104557981590254,-99.80312502825853z" style="fill:rgb(127,37,217)"/><path d="M-40.104557981590254,-99.80312502825853L-51.096156370580886,-143.96247232690732L-52.24184622420798,-123.84627246153174z" style="fill:rgb(247,158,158)"/><path d="M-52.24184622420798,-123.84627246153174L-80.83531215580872,-135.13841546987499L-82.63402892131256,-114.97892968137252z" style="fill:rgb(83,212,212)"/><path d="M-69.96485117221798,-91.29655267117876L-52.24184622420798,-123.84627246153174L-82.63402892131256,-114.97892968137252z" style="fill:rgb(127,37,217)"/></svg>
