<?xml version="1.0" encoding="UTF-8"?>
<!-- Generated by jsxcad -->
<!DOCTYPE svg PUBLIC "-//W3C//DTD SVG 1.1 Tiny//EN" "http://www.w3.org/Graphics/SVG/1.1/DTD/svg11-tiny.dtd">
<svg viewBox="-250 -250 500 500" width="500" height="500" xmlns="http://www.w3.org/2000/svg"><path d="M29.1926247860663,123.1970356584459L-92.96935705227115,-96.29459565316131L26.348219356525153,119.53573074476604z" style="fill:rgb(21,57,142)"/><path d="M-23.89246375473005,-130.1139312895362L83.41240262355046,97.07374657468736L82.48841198584769,92.47929957462128z" style="fill:rgb(246,167,149)"/><path d="M33.002487552283355,126.14172687603394L-90.09888662325277,-92.93538002837109L29.1926247860663,123.1970356584459z" style="fill:rgb(34,46,160)"/><path d="M83.41240262355046,97.07374657468736L-24.13997846350256,-120.67637027043055L83.17924559201732,101.97307200081336z" style="fill:rgb(246,149,167)"/><path d="M37.63899221313232,128.2444338056962L-86.00133778274069,-90.40577156984028L33.002487552283355,126.14172687603394z" style="fill:rgb(51,38,177)"/><path d="M83.17924559201732,101.97307200081336L-26.348214249165864,-115.46822628502028L81.78428792223059,106.98628413229892z" style="fill:rgb(242,130,183)"/><path d="M-74.75247722263519,-88.25307056498532L37.63899221313232,128.2444338056962L42.92596349834678,129.41152861513962z" style="fill:rgb(71,33,192)"/><path d="M81.78428792223059,106.98628413229892L-29.870969253963523,-110.20531253042346L79.27103326842023,111.91333392314183z" style="fill:rgb(233,112,197)"/><path d="M-68.03245634918757,-88.74260279082144L42.92596349834678,129.41152861513962L48.65621769780046,129.58681382440892z" style="fill:rgb(92,32,204)"/><path d="M79.27103326842023,111.91333392314183L-34.57859302810239,-105.1027898176929L75.73112820412199,116.5539201516589z" style="fill:rgb(220,94,208)"/><path d="M-60.93187730633368,-90.27785467474445L48.65621769780046,129.58681382440892L54.6000671532827,128.75544922145616z" style="fill:rgb(115,34,214)"/><path d="M75.73112820412199,116.5539201516589L-40.286789325780994,-100.37295544537272L71.30171337090492,120.71681014605545z" style="fill:rgb(203,77,216)"/><path d="M-40.286789325780994,-100.37295544537272L66.16004861030764,124.22930443717195L71.30171337090492,120.71681014605545z" style="fill:rgb(183,62,221)"/><path d="M-53.742758407909164,-92.80228351569463L54.6000671532827,128.75544922145616L60.51558147576313,126.9458630521226z" style="fill:rgb(139,40,220)"/><path d="M-46.764116289245194,-96.21453435081577L60.51558147576313,126.9458630521226L66.16004861030764,124.22930443717195z" style="fill:rgb(162,50,222)"/><path d="M-92.96935705227115,-96.29459565316131L29.1926247860663,123.1970356584459L-90.09888662325277,-92.93538002837109z" style="fill:rgb(21,57,142)"/><path d="M83.41240262355046,97.07374657468736L-23.89246375473005,-130.1139312895362L-23.31735372563566,-125.62202866392249z" style="fill:rgb(246,167,149)"/><path d="M-90.09888662325277,-92.93538002837109L33.002487552283355,126.14172687603394L-86.00133778274069,-90.40577156984028z" style="fill:rgb(34,46,160)"/><path d="M-24.13997846350256,-120.67637027043055L83.41240262355046,97.07374657468736L-23.31735372563566,-125.62202866392249z" style="fill:rgb(246,149,167)"/><path d="M-86.00133778274069,-90.40577156984028L37.63899221313232,128.2444338056962L-80.82117827205636,-88.8192653989707z" style="fill:rgb(51,38,177)"/><path d="M-26.348214249165864,-115.46822628502028L83.17924559201732,101.97307200081336L-24.13997846350256,-120.67637027043055z" style="fill:rgb(242,130,183)"/><path d="M37.63899221313232,128.2444338056962L-74.75247722263519,-88.25307056498532L-80.82117827205636,-88.8192653989707z" style="fill:rgb(71,33,192)"/><path d="M-29.870969253963523,-110.20531253042346L81.78428792223059,106.98628413229892L-26.348214249165864,-115.46822628502028z" style="fill:rgb(233,112,197)"/><path d="M42.92596349834678,129.41152861513962L-68.03245634918757,-88.74260279082144L-74.75247722263519,-88.25307056498532z" style="fill:rgb(92,32,204)"/><path d="M-34.57859302810239,-105.1027898176929L79.27103326842023,111.91333392314183L-29.870969253963523,-110.20531253042346z" style="fill:rgb(220,94,208)"/><path d="M48.65621769780046,129.58681382440892L-60.93187730633368,-90.27785467474445L-68.03245634918757,-88.74260279082144z" style="fill:rgb(115,34,214)"/><path d="M-40.286789325780994,-100.37295544537272L75.73112820412199,116.5539201516589L-34.57859302810239,-105.1027898176929z" style="fill:rgb(203,77,216)"/><path d="M54.6000671532827,128.75544922145616L-53.742758407909164,-92.80228351569463L-60.93187730633368,-90.27785467474445z" style="fill:rgb(139,40,220)"/><path d="M66.16004861030764,124.22930443717195L-40.286789325780994,-100.37295544537272L-46.764116289245194,-96.21453435081577z" style="fill:rgb(183,62,221)"/><path d="M60.51558147576313,126.9458630521226L-46.764116289245194,-96.21453435081577L-53.742758407909164,-92.80228351569463z" style="fill:rgb(162,50,222)"/><path d="M-83.60305461449235,-136.2314505244086L-78.58968625342264,-147.3407156285828L-82.82396219067265,-144.6640280691481zM-78.58968625342264,-147.3407156285828L-34.97293063088797,-150.6842409868599L-71.90950994960902,-150.61947394138727z" style="fill:rgb(83,212,212)"/><path d="M-47.99236225390058,-146.81489746209888L-76.11343746755465,-121.9962135825622L-40.87050219306788,-132.3242480028973z" style="fill:rgb(127,37,217)"/><path d="M-71.90950994960902,-150.61947394138727L-34.97293063088797,-150.6842409868599L-65.02676362722147,-153.11507032586215z" style="fill:rgb(83,212,212)"/><path d="M-76.11343746755465,-121.9962135825622L-47.99236225390058,-146.81489746209888L-83.60305461449235,-136.2314505244086z" style="fill:rgb(127,37,217)"/><path d="M-65.02676362722147,-153.11507032586215L-34.97293063088797,-150.6842409868599L-58.18491714438142,-154.73607994519688zM-78.12354429330432,-97.7228339848783L-40.87050219306788,-132.3242480028973L-76.11343746755465,-121.9962135825622zM-78.58968625342264,-147.3407156285828L-83.60305461449235,-136.2314505244086L-34.97293063088797,-150.6842409868599zM-58.18491714438142,-154.73607994519688L-34.97293063088797,-150.6842409868599L-51.628702097106526,-155.41883051471905zM-84.83136290889408,-143.3950535080394L-85.83869240486229,-112.03382203661528L-82.82396219067265,-144.6640280691481zM-51.628702097106526,-155.41883051471905L-34.97293063088797,-150.6842409868599L-45.59731138414979,-155.12991805288493zM-90.41233968412507,-138.92057250482927L-85.83869240486229,-112.03382203661528L-84.83136290889408,-143.3950535080394z" style="fill:rgb(83,212,212)"/><path d="M-85.83869240486229,-112.03382203661528L-76.11343746755465,-121.9962135825622L-83.60305461449235,-136.2314505244086z" style="fill:rgb(247,158,158)"/><path d="M-95.13008085678507,-134.07373720055514L-85.83869240486229,-112.03382203661528L-90.41233968412507,-138.92057250482927zM-98.80776561663038,-129.0256411573274L-98.87617736419786,-108.23657009910791L-95.13008085678507,-134.07373720055514zM-45.59731138414979,-155.12991805288493L-34.97293063088797,-150.6842409868599L-40.31716365743566,-153.86845250042677zM-101.3003386664789,-123.95756099867398L-100.81595649875284,-110.4881007797462L-98.80776561663038,-129.0256411573274zM-102.34419237010738,-114.50665515815285L-101.3003386664789,-123.95756099867398L-102.50046208088914,-119.05596766384839zM-40.31716365743566,-153.86845250042677L-34.97293063088797,-150.6842409868599L-35.994129395384384,-151.66782760233525z" style="fill:rgb(83,212,212)"/><path d="M-76.11343746755465,-121.9962135825622L-85.83869240486229,-112.03382203661528L-78.12354429330432,-97.7228339848783z" style="fill:rgb(247,158,158)"/><path d="M-40.87050219306788,-132.3242480028973L-78.12354429330432,-97.7228339848783L-41.95970237948062,-108.1049002282636zM-101.3003386664789,-123.95756099867398L-102.34419237010738,-114.50665515815285L-100.81595649875284,-110.4881007797462z" style="fill:rgb(83,212,212)"/><path d="M-91.02489688476156,-94.01906346942482L-100.81595649875284,-110.4881007797462L-92.96935705227115,-96.29459565316131z" style="fill:rgb(21,57,142)"/><path d="M-98.80776561663038,-129.0256411573274L-100.81595649875284,-110.4881007797462L-98.87617736419786,-108.23657009910791z" style="fill:rgb(83,212,212)"/><path d="M-30.891050696261523,-144.75790031111168L-23.31735372563566,-125.62202866392249L-23.89246375473005,-130.1139312895362z" style="fill:rgb(246,167,149)"/><path d="M-95.13008085678507,-134.07373720055514L-98.87617736419786,-108.23657009910791L-85.83869240486229,-112.03382203661528z" style="fill:rgb(83,212,212)"/><path d="M-90.09888662325277,-92.93538002837109L-98.87617736419786,-108.23657009910791L-91.02489688476156,-94.01906346942482zM-100.81595649875284,-110.4881007797462L-91.02489688476156,-94.01906346942482L-98.87617736419786,-108.23657009910791z" style="fill:rgb(21,57,142)"/><path d="M-86.00133778274069,-90.40577156984028L-97.95233103395965,-107.16424511584997L-90.09888662325277,-92.93538002837109z" style="fill:rgb(34,46,160)"/><path d="M-47.99236225390058,-146.81489746209888L-35.91993245521112,-126.57298847367299L-34.97293063088797,-150.6842409868599z" style="fill:rgb(83,212,212)"/><path d="M-98.87617736419786,-108.23657009910791L-90.09888662325277,-92.93538002837109L-97.95233103395965,-107.16424511584997z" style="fill:rgb(21,57,142)"/><path d="M-23.31735372563566,-125.62202866392249L-30.891050696261523,-144.75790031111168L-30.346467437924332,-140.2885480453207z" style="fill:rgb(246,167,149)"/><path d="M-34.97293063088797,-150.6842409868599L-33.483488837028226,-130.14719912123482L-32.80536763847564,-148.59652295586767z" style="fill:rgb(83,212,212)"/><path d="M-23.31735372563566,-125.62202866392249L-31.215108982347182,-135.3547725680922L-24.13997846350256,-120.67637027043055z" style="fill:rgb(246,149,167)"/><path d="M-32.80536763847564,-148.59652295586767L-31.215108982347182,-135.3547725680922L-30.891050696261523,-144.75790031111168z" style="fill:rgb(83,212,212)"/><path d="M-80.82117827205636,-88.8192653989707L-93.84402657034312,-104.6768550575695L-86.00133778274069,-90.40577156984028z" style="fill:rgb(51,38,177)"/><path d="M-97.95233103395965,-107.16424511584997L-86.00133778274069,-90.40577156984028L-93.84402657034312,-104.6768550575695z" style="fill:rgb(34,46,160)"/><path d="M-31.215108982347182,-135.3547725680922L-23.31735372563566,-125.62202866392249L-30.346467437924332,-140.2885480453207z" style="fill:rgb(246,149,167)"/><path d="M-24.13997846350256,-120.67637027043055L-33.483488837028226,-130.14719912123482L-26.348214249165864,-115.46822628502028z" style="fill:rgb(242,130,183)"/><path d="M-30.891050696261523,-144.75790031111168L-31.215108982347182,-135.3547725680922L-30.346467437924332,-140.2885480453207zM-35.91993245521112,-126.57298847367299L-47.99236225390058,-146.81489746209888L-49.28757489113653,-122.67957801489311zM-32.80536763847564,-148.59652295586767L-33.483488837028226,-130.14719912123482L-31.215108982347182,-135.3547725680922zM-97.95233103395965,-107.16424511584997L-35.91993245521112,-126.57298847367299L-98.87617736419786,-108.23657009910791z" style="fill:rgb(83,212,212)"/><path d="M-93.84402657034312,-104.6768550575695L-80.82117827205636,-88.8192653989707L-88.63549998935241,-103.13805326659094z" style="fill:rgb(51,38,177)"/><path d="M-82.5216774774344,-102.62340617153494L-80.82117827205636,-88.8192653989707L-74.75247722263519,-88.25307056498532z" style="fill:rgb(71,33,192)"/><path d="M-33.483488837028226,-130.14719912123482L-24.13997846350256,-120.67637027043055L-31.215108982347182,-135.3547725680922z" style="fill:rgb(242,130,183)"/><path d="M-34.97293063088797,-150.6842409868599L-35.91993245521112,-126.57298847367299L-33.483488837028226,-130.14719912123482z" style="fill:rgb(83,212,212)"/><path d="M-26.348214249165864,-115.46822628502028L-35.91993245521112,-126.57298847367299L-28.735764449831887,-111.90128701161457z" style="fill:rgb(233,112,197)"/><path d="M-35.91993245521112,-126.57298847367299L-97.95233103395965,-107.16424511584997L-93.84402657034312,-104.6768550575695z" style="fill:rgb(83,212,212)"/><path d="M-28.735764449831887,-111.90128701161457L-37.07844016217897,-124.87348632295146L-29.870969253963523,-110.20531253042346z" style="fill:rgb(233,112,197)"/><path d="M-80.82117827205636,-88.8192653989707L-82.5216774774344,-102.62340617153494L-88.63549998935241,-103.13805326659094z" style="fill:rgb(71,33,192)"/><path d="M-75.74144187599403,-103.16643543518057L-74.75247722263519,-88.25307056498532L-68.03245634918757,-88.74260279082144z" style="fill:rgb(92,32,204)"/><path d="M-35.91993245521112,-126.57298847367299L-26.348214249165864,-115.46822628502028L-33.483488837028226,-130.14719912123482z" style="fill:rgb(233,112,197)"/><path d="M-29.870969253963523,-110.20531253042346L-41.86756268632074,-119.74926617952369L-34.57859302810239,-105.1027898176929z" style="fill:rgb(220,94,208)"/><path d="M-35.91993245521112,-126.57298847367299L-93.84402657034312,-104.6768550575695L-88.63549998935241,-103.13805326659094z" style="fill:rgb(83,212,212)"/><path d="M-37.07844016217897,-124.87348632295146L-28.735764449831887,-111.90128701161457L-35.91993245521112,-126.57298847367299z" style="fill:rgb(233,112,197)"/><path d="M-68.56807876662079,-104.75508078077489L-68.03245634918757,-88.74260279082144L-60.93187730633368,-90.27785467474445z" style="fill:rgb(115,34,214)"/><path d="M-74.75247722263519,-88.25307056498532L-75.74144187599403,-103.16643543518057L-82.5216774774344,-102.62340617153494z" style="fill:rgb(92,32,204)"/><path d="M-34.57859302810239,-105.1027898176929L-47.663223231732545,-114.98784540271149L-40.286789325780994,-100.37295544537272z" style="fill:rgb(203,77,216)"/><path d="M-61.29676826269925,-107.33058975913566L-60.93187730633368,-90.27785467474445L-53.742758407909164,-92.80228351569463z" style="fill:rgb(139,40,220)"/><path d="M-47.663223231732545,-114.98784540271149L-46.764116289245194,-96.21453435081577L-40.286789325780994,-100.37295544537272z" style="fill:rgb(183,62,221)"/><path d="M-41.86756268632074,-119.74926617952369L-29.870969253963523,-110.20531253042346L-37.07844016217897,-124.87348632295146z" style="fill:rgb(220,94,208)"/><path d="M-54.230219534403844,-110.78942179863508L-53.742758407909164,-92.80228351569463L-46.764116289245194,-96.21453435081577z" style="fill:rgb(162,50,222)"/><path d="M-35.91993245521112,-126.57298847367299L-88.63549998935241,-103.13805326659094L-82.5216774774344,-102.62340617153494z" style="fill:rgb(83,212,212)"/><path d="M-68.03245634918757,-88.74260279082144L-68.56807876662079,-104.75508078077489L-75.74144187599403,-103.16643543518057z" style="fill:rgb(115,34,214)"/><path d="M-47.663223231732545,-114.98784540271149L-34.57859302810239,-105.1027898176929L-41.86756268632074,-119.74926617952369z" style="fill:rgb(203,77,216)"/><path d="M-35.91993245521112,-126.57298847367299L-82.5216774774344,-102.62340617153494L-75.74144187599403,-103.16643543518057z" style="fill:rgb(83,212,212)"/><path d="M-60.93187730633368,-90.27785467474445L-61.29676826269925,-107.33058975913566L-68.56807876662079,-104.75508078077489z" style="fill:rgb(139,40,220)"/><path d="M-35.91993245521112,-126.57298847367299L-41.86756268632074,-119.74926617952369L-37.07844016217897,-124.87348632295146z" style="fill:rgb(83,212,212)"/><path d="M-46.764116289245194,-96.21453435081577L-47.663223231732545,-114.98784540271149L-54.230219534403844,-110.78942179863508z" style="fill:rgb(183,62,221)"/><path d="M-53.742758407909164,-92.80228351569463L-54.230219534403844,-110.78942179863508L-61.29676826269925,-107.33058975913566z" style="fill:rgb(162,50,222)"/><path d="M-35.91993245521112,-126.57298847367299L-75.74144187599403,-103.16643543518057L-68.56807876662079,-104.75508078077489zM-35.91993245521112,-126.57298847367299L-47.663223231732545,-114.98784540271149L-41.86756268632074,-119.74926617952369zM-35.91993245521112,-126.57298847367299L-68.56807876662079,-104.75508078077489L-61.29676826269925,-107.33058975913566zM-35.91993245521112,-126.57298847367299L-54.230219534403844,-110.78942179863508L-47.663223231732545,-114.98784540271149zM-35.91993245521112,-126.57298847367299L-61.29676826269925,-107.33058975913566L-54.230219534403844,-110.78942179863508z" style="fill:rgb(83,212,212)"/></svg>
