<?xml version="1.0" encoding="UTF-8"?>
<!-- Generated by jsxcad -->
<!DOCTYPE svg PUBLIC "-//W3C//DTD SVG 1.1 Tiny//EN" "http://www.w3.org/Graphics/SVG/1.1/DTD/svg11-tiny.dtd">
<svg viewBox="-250 -250 500 500" width="500" height="500" xmlns="http://www.w3.org/2000/svg"><path d="M-9.732017952626391,9.836150495538753L9.731999761955633,-9.627867316363378L-9.731999761955638,-9.627867316363371zM9.731999761955633,-9.627867316363378L-9.732017952626391,9.836150495538753L9.732017952626398,9.836150495538746z" style="fill:rgb(127,127,254)"/><path d="M9.823810993850277,-9.719678548717079L-9.731999761955638,-9.627867316363371L9.731999761955633,-9.627867316363378z" style="fill:rgb(127,0,127)"/><path d="M9.732017952626398,9.836150495538746L9.823810993850277,-9.719678548717079L9.731999761955633,-9.627867316363378z" style="fill:rgb(0,127,127)"/><path d="M-9.731999761955638,-9.627867316363371L-9.823829529360205,9.92796207273162L-9.732017952626391,9.836150495538753z" style="fill:rgb(255,127,127)"/><path d="M-9.823829529360205,9.92796207273162L9.732017952626398,9.836150495538746L-9.732017952626391,9.836150495538753z" style="fill:rgb(127,254,127)"/><path d="M-9.731999761955638,-9.627867316363371L9.823810993850277,-9.719678548717079L-9.823810993850282,-9.719678548717072z" style="fill:rgb(127,0,127)"/><path d="M-9.823829529360205,9.92796207273162L-9.731999761955638,-9.627867316363371L-9.823810993850282,-9.719678548717072z" style="fill:rgb(255,127,127)"/><path d="M9.823810993850277,-9.719678548717079L9.732017952626398,9.836150495538746L9.823829529360212,9.927962072731615z" style="fill:rgb(0,127,127)"/><path d="M9.732017952626398,9.836150495538746L-9.823829529360205,9.92796207273162L9.823829529360212,9.927962072731615z" style="fill:rgb(127,254,127)"/><path d="M-1.9877151028918827,-19.442665827111597L9.823810993850277,-9.719678548717079L1.9877151028918691,-19.442665827111597zM1.9877151028918691,-19.442665827111597L9.823810993850277,-9.719678548717079L5.881768230586868,-18.642418502661585zM-5.8817682305868795,-18.642418502661577L9.823810993850277,-9.719678548717079L-1.9877151028918827,-19.442665827111597zM5.881768230586868,-18.642418502661585L9.823810993850277,-9.719678548717079L9.535022949933712,-17.074687682259178zM-9.535022949933722,-17.074687682259174L9.823810993850277,-9.719678548717079L-5.8817682305868795,-18.642418502661577zM-12.797914019713588,-14.80365294069003L-9.823810993850282,-9.719678548717072L-9.535022949933722,-17.074687682259174zM9.535022949933712,-17.074687682259178L9.823810993850277,-9.719678548717079L12.797914019713577,-14.803652940690041zM-9.823810993850282,-9.719678548717072L9.823810993850277,-9.719678548717079L-9.535022949933722,-17.074687682259174zM-15.536859298862554,-11.922292119286487L-9.823810993850282,-9.719678548717072L-12.797914019713588,-14.80365294069003zM12.797914019713577,-14.803652940690041L16.90976456775499,-9.71967854871708L15.536859298862547,-11.922292119286496zM12.797914019713577,-14.803652940690041L9.823810993850277,-9.719678548717079L16.90976456775499,-9.71967854871708zM-9.823810993850282,-9.719678548717072L-15.536859298862554,-11.922292119286487L-16.909764567754998,-9.71967854871707zM-16.909764567754998,-9.71967854871707L-9.823829529360205,9.92796207273162L-9.823810993850282,-9.719678548717072zM9.823810993850277,-9.719678548717079L16.95301819002583,9.927962072731614L16.90976456775499,-9.71967854871708zM-17.63972632947517,-8.548566564927745L-16.953018190025823,9.927962072731622L-16.909764567754998,-9.71967854871707zM16.90976456775499,-9.71967854871708L16.95301819002583,9.927962072731614L17.639726329475163,-8.548566564927757zM-19.020421616706308,-4.820595963946697L-18.42462924584095,6.927865707030474L-17.63972632947517,-8.548566564927745zM17.639726329475163,-8.548566564927757L18.424629245840958,6.927865707030462L19.020421616706308,-4.820595963946709zM-19.42107657238035,3.07933197692616L-19.020421616706308,-4.820595963946697L-19.622421787581697,-0.8910040240970468zM19.020421616706308,-4.820595963946709L19.42107657238035,3.079331976926147L19.622421787581697,-0.8910040240970598zM-19.020421616706308,-4.820595963946697L-19.42107657238035,3.07933197692616L-18.42462924584095,6.927865707030474zM19.020421616706308,-4.820595963946709L18.424629245840958,6.927865707030462L19.42107657238035,3.079331976926147zM-17.63972632947517,-8.548566564927745L-18.42462924584095,6.927865707030474L-16.953018190025823,9.927962072731622zM17.639726329475163,-8.548566564927757L16.95301819002583,9.927962072731614L18.424629245840958,6.927865707030462zM-16.909764567754998,-9.71967854871707L-16.953018190025823,9.927962072731622L-9.823829529360205,9.92796207273162zM16.95301819002583,9.927962072731614L9.823810993850277,-9.719678548717079L9.823829529360212,9.927962072731615zM-16.673873926869046,10.497037341882626L-9.823829529360205,9.92796207273162L-16.953018190025823,9.927962072731622zM16.95301819002583,9.927962072731614L14.240486243142316,13.640724964169168L16.673873926869053,10.497037341882615zM-9.823829529360205,9.92796207273162L-16.673873926869046,10.497037341882626L-14.240486243142305,13.640724964169177zM9.823829529360212,9.927962072731615L11.224090103286512,16.230221731018883L16.95301819002583,9.927962072731614zM-9.823829529360205,9.92796207273162L-7.748175324074853,18.15951651151631L9.823829529360212,9.927962072731615zM16.95301819002583,9.927962072731614L11.224090103286512,16.230221731018883L14.240486243142316,13.640724964169168zM-9.823829529360205,9.92796207273162L-14.240486243142305,13.640724964169177L-11.224090103286503,16.23022173101889zM11.224090103286512,16.230221731018883L9.823829529360212,9.927962072731615L7.748175324074866,18.159516511516305zM-9.823829529360205,9.92796207273162L-11.224090103286503,16.23022173101889L-7.748175324074853,18.15951651151631zM9.823829529360212,9.927962072731615L3.9550483263565415,19.349620557709557L7.748175324074866,18.159516511516305zM9.823829529360212,9.927962072731615L-7.748175324074853,18.15951651151631L-3.9550483263565277,19.349620557709557zM9.823829529360212,9.927962072731615L6.5716180419335656e-15,19.75181018677345L3.9550483263565415,19.349620557709557zM9.823829529360212,9.927962072731615L-3.9550483263565277,19.349620557709557L6.5716180419335656e-15,19.75181018677345zM-9.91738989969732,10.021522443536538L9.917371009448836,-9.81323856478344L-9.917371009448843,-9.813238564783433zM9.917371009448836,-9.81323856478344L-9.91738989969732,10.021522443536538L9.917389899697326,10.021522443536531z" style="fill:rgb(127,127,254)"/></svg>
