<?xml version="1.0" encoding="UTF-8"?>
<!-- Generated by jsxcad -->
<!DOCTYPE svg PUBLIC "-//W3C//DTD SVG 1.1 Tiny//EN" "http://www.w3.org/Graphics/SVG/1.1/DTD/svg11-tiny.dtd">
<svg viewBox="-250 -250 500 500" width="500" height="500" xmlns="http://www.w3.org/2000/svg"><path d="M30.353691605062494,122.27439864141965L-84.44883967689157,-84.64245508919211L27.640109283658365,118.79148558598726z" style="fill:rgb(21,57,142)"/><path d="M-19.383757704704706,-116.46886449585897L81.97527676659236,97.40240568469692L81.10128602203754,93.02601594598855z" style="fill:rgb(246,167,149)"/><path d="M33.985004580117405,125.07388254697796L-81.70301777938518,-81.42057001793131L30.353691605062494,122.27439864141965z" style="fill:rgb(34,46,160)"/><path d="M81.97527676659236,97.40240568469692L-19.572742918078752,-107.45385456638721L81.74780792871027,102.0671563033914z" style="fill:rgb(246,149,167)"/><path d="M38.40136770039543,127.07128126374906L-77.80565414242632,-78.98389204037348L33.985004580117405,125.07388254697796z" style="fill:rgb(51,38,177)"/><path d="M81.74780792871027,102.0671563033914L-21.631163053681323,-102.49782208762927L80.41529405219127,106.83854924332144z" style="fill:rgb(242,130,183)"/><path d="M-67.15583525273644,-76.86460985956892L38.40136770039543,127.07128126374906L43.43485033059165,128.17825482399138z" style="fill:rgb(71,33,192)"/><path d="M80.41529405219127,106.83854924332144L-24.92813384389015,-97.5010055324271L78.01980222813809,111.52650831123984z" style="fill:rgb(233,112,197)"/><path d="M-60.81205194772677,-77.2902627060197L43.43485033059165,128.17825482399138L48.88837050818203,128.3419617167212z" style="fill:rgb(92,32,204)"/><path d="M78.01980222813809,111.52650831123984L-29.34208402664567,-92.66707285243803L74.64894949876843,115.94092417878835z" style="fill:rgb(220,94,208)"/><path d="M-54.11875832557164,-78.70917974241738L48.88837050818203,128.3419617167212L54.54374671350442,127.5487851240826z" style="fill:rgb(115,34,214)"/><path d="M74.64894949876843,115.94092417878835L-34.700452452020166,-88.1963200657933L70.43329119777782,119.90048467088681z" style="fill:rgb(203,77,216)"/><path d="M-34.700452452020166,-88.1963200657933L65.54119804990619,123.24150106725115L70.43329119777782,119.90048467088681z" style="fill:rgb(183,62,221)"/><path d="M-47.35021331376987,-81.0691410082214L54.54374671350442,127.5487851240826L60.17142718197015,125.82604941812822z" style="fill:rgb(139,40,220)"/><path d="M-40.78668371864634,-84.27569365557463L60.17142718197015,125.82604941812822L65.54119804990619,123.24150106725115z" style="fill:rgb(162,50,222)"/><path d="M-84.44883967689157,-84.64245508919211L30.353691605062494,122.27439864141965L-81.70301777938518,-81.42057001793131z" style="fill:rgb(21,57,142)"/><path d="M81.97527676659236,97.40240568469692L-19.383757704704706,-116.46886449585897L-18.819733068756314,-112.17172721961502z" style="fill:rgb(246,167,149)"/><path d="M-81.70301777938518,-81.42057001793131L33.985004580117405,125.07388254697796L-77.80565414242632,-78.98389204037348z" style="fill:rgb(34,46,160)"/><path d="M-19.572742918078752,-107.45385456638721L81.97527676659236,97.40240568469692L-18.819733068756314,-112.17172721961502z" style="fill:rgb(246,149,167)"/><path d="M-77.80565414242632,-78.98389204037348L38.40136770039543,127.07128126374906L-72.89511353341324,-77.44062151878944z" style="fill:rgb(51,38,177)"/><path d="M-21.631163053681323,-102.49782208762927L81.74780792871027,102.0671563033914L-19.572742918078752,-107.45385456638721z" style="fill:rgb(242,130,183)"/><path d="M38.40136770039543,127.07128126374906L-67.15583525273644,-76.86460985956892L-72.89511353341324,-77.44062151878944z" style="fill:rgb(71,33,192)"/><path d="M-24.92813384389015,-97.5010055324271L80.41529405219127,106.83854924332144L-21.631163053681323,-102.49782208762927z" style="fill:rgb(233,112,197)"/><path d="M43.43485033059165,128.17825482399138L-60.81205194772677,-77.2902627060197L-67.15583525273644,-76.86460985956892z" style="fill:rgb(92,32,204)"/><path d="M-29.34208402664567,-92.66707285243803L78.01980222813809,111.52650831123984L-24.92813384389015,-97.5010055324271z" style="fill:rgb(220,94,208)"/><path d="M48.88837050818203,128.3419617167212L-54.11875832557164,-78.70917974241738L-60.81205194772677,-77.2902627060197z" style="fill:rgb(115,34,214)"/><path d="M-34.700452452020166,-88.1963200657933L74.64894949876843,115.94092417878835L-29.34208402664567,-92.66707285243803z" style="fill:rgb(203,77,216)"/><path d="M54.54374671350442,127.5487851240826L-47.35021331376987,-81.0691410082214L-54.11875832557164,-78.70917974241738z" style="fill:rgb(139,40,220)"/><path d="M65.54119804990619,123.24150106725115L-34.700452452020166,-88.1963200657933L-40.78668371864634,-84.27569365557463z" style="fill:rgb(183,62,221)"/><path d="M60.17142718197015,125.82604941812822L-40.78668371864634,-84.27569365557463L-47.35021331376987,-81.0691410082214z" style="fill:rgb(162,50,222)"/><path d="M-71.0277481565455,-132.9495720126111L-29.802355614246352,-135.79421742478957L-64.7289145685409,-136.03797586431062zM-75.01522208650269,-130.4183792474881L-29.802355614246352,-135.79421742478957L-71.0277481565455,-132.9495720126111z" style="fill:rgb(83,212,212)"/><path d="M-42.078524321129585,-132.19596065432546L-68.70880938845951,-109.08364877890453L-35.43507220332969,-118.70843311799003z" style="fill:rgb(127,37,217)"/><path d="M-64.7289145685409,-136.03797586431062L-29.802355614246352,-135.79421742478957L-58.232586544751406,-138.37359017202994z" style="fill:rgb(83,212,212)"/><path d="M-68.70880938845951,-109.08364877890453L-42.078524321129585,-132.19596065432546L-75.68006546665194,-122.34704697871913z" style="fill:rgb(127,37,217)"/><path d="M-58.232586544751406,-138.37359017202994L-29.802355614246352,-135.79421742478957L-51.76970679739891,-139.87055476308575zM-70.41707633848634,-85.91105607790223L-35.43507220332969,-118.70843311799003L-68.70880938845951,-109.08364877890453zM-51.76970679739891,-139.87055476308575L-29.802355614246352,-135.79421742478957L-45.57239674489696,-140.46992455534237zM-29.802355614246352,-135.79421742478957L-75.01522208650269,-130.4183792474881L-75.68006546665194,-122.34704697871913zM-76.90553182135895,-129.218433983957L-77.58388925734022,-99.23428261106655L-75.01522208650269,-130.4183792474881zM-45.57239674489696,-140.46992455534237L-29.802355614246352,-135.79421742478957L-39.867417297555825,-140.1420878265779zM-82.15201900124235,-124.97581944949826L-77.58388925734022,-99.23428261106655L-76.90553182135895,-129.218433983957z" style="fill:rgb(83,212,212)"/><path d="M-77.58388925734022,-99.23428261106655L-68.70880938845951,-109.08364877890453L-75.68006546665194,-122.34704697871913z" style="fill:rgb(247,158,158)"/><path d="M-86.57613272073591,-120.37089070967042L-77.58388925734022,-99.23428261106655L-82.15201900124235,-124.97581944949826zM-90.01170579186781,-115.56695428517588L-89.87663468317683,-95.70103273322493L-86.57613272073591,-120.37089070967042zM-39.867417297555825,-140.1420878265779L-29.802355614246352,-135.79421742478957L-34.86918308585709,-138.8888101242269zM-92.32326674630433,-110.73717684395402L-91.73340832812846,-97.8634641914415L-90.01170579186781,-115.56695428517588zM-93.21888950694971,-101.71161801275981L-92.32326674630433,-110.73717684395402L-93.41157572407354,-106.05961112215532zM-34.86918308585709,-138.8888101242269L-29.802355614246352,-135.79421742478957L-30.772352752983622,-136.74462994728654z" style="fill:rgb(83,212,212)"/><path d="M-68.70880938845951,-109.08364877890453L-77.58388925734022,-99.23428261106655L-70.41707633848634,-85.91105607790223z" style="fill:rgb(247,158,158)"/><path d="M-35.43507220332969,-118.70843311799003L-70.41707633848634,-85.91105607790223L-36.32362795789045,-95.57849091183678zM-92.32326674630433,-110.73717684395402L-93.21888950694971,-101.71161801275981L-91.73340832812846,-97.8634641914415z" style="fill:rgb(83,212,212)"/><path d="M-82.58863058217437,-82.45972965966119L-91.73340832812846,-97.8634641914415L-84.44883967689157,-84.64245508919211z" style="fill:rgb(21,57,142)"/><path d="M-90.01170579186781,-115.56695428517588L-91.73340832812846,-97.8634641914415L-89.87663468317683,-95.70103273322493z" style="fill:rgb(83,212,212)"/><path d="M-25.916487879607818,-130.08853553644693L-18.819733068756314,-112.17172721961502L-19.383757704704706,-116.46886449585897z" style="fill:rgb(246,167,149)"/><path d="M-86.57613272073591,-120.37089070967042L-89.87663468317683,-95.70103273322493L-77.58388925734022,-99.23428261106655z" style="fill:rgb(83,212,212)"/><path d="M-81.70301777938518,-81.42057001793131L-89.87663468317683,-95.70103273322493L-82.58863058217437,-82.45972965966119zM-91.73340832812846,-97.8634641914415L-82.58863058217437,-82.45972965966119L-89.87663468317683,-95.70103273322493z" style="fill:rgb(21,57,142)"/><path d="M-77.80565414242632,-78.98389204037348L-88.9926044372422,-94.67147295614132L-81.70301777938518,-81.42057001793131z" style="fill:rgb(34,46,160)"/><path d="M-42.078524321129585,-132.19596065432546L-30.560952898576886,-112.74989219194056L-29.802355614246352,-135.79421742478957z" style="fill:rgb(83,212,212)"/><path d="M-89.87663468317683,-95.70103273322493L-81.70301777938518,-81.42057001793131L-88.9926044372422,-94.67147295614132z" style="fill:rgb(21,57,142)"/><path d="M-18.819733068756314,-112.17172721961502L-25.916487879607818,-130.08853553644693L-25.378945633013963,-125.80971710536132z" style="fill:rgb(246,167,149)"/><path d="M-29.802355614246352,-135.79421742478957L-28.28331251126334,-116.14392984732889L-27.744121724529055,-133.77753604401218z" style="fill:rgb(83,212,212)"/><path d="M-18.819733068756314,-112.17172721961502L-26.172166190818558,-121.10081531687787L-19.572742918078752,-107.45385456638721z" style="fill:rgb(246,149,167)"/><path d="M-50.13346939157251,-123.01363864324335L-35.43507220332969,-118.70843311799003L-48.87824660133152,-146.00075480198126zM-35.43507220332969,-118.70843311799003L-50.13346939157251,-123.01363864324335L-36.32362795789045,-95.57849091183678z" style="fill:rgb(247,158,158)"/><path d="M-27.744121724529055,-133.77753604401218L-26.172166190818558,-121.10081531687787L-25.916487879607818,-130.08853553644693z" style="fill:rgb(83,212,212)"/><path d="M-72.89511353341324,-77.44062151878944L-85.08473635287247,-92.27081372013787L-77.80565414242632,-78.98389204037348z" style="fill:rgb(51,38,177)"/><path d="M-88.9926044372422,-94.67147295614132L-77.80565414242632,-78.98389204037348L-85.08473635287247,-92.27081372013787z" style="fill:rgb(34,46,160)"/><path d="M-26.172166190818558,-121.10081531687787L-18.819733068756314,-112.17172721961502L-25.378945633013963,-125.80971710536132z" style="fill:rgb(246,149,167)"/><path d="M-84.92211145874727,-112.87616159381857L-48.87824660133152,-146.00075480198126L-82.81391408201256,-135.9197980622402z" style="fill:rgb(83,212,212)"/><path d="M-19.572742918078752,-107.45385456638721L-28.28331251126334,-116.14392984732889L-21.631163053681323,-102.49782208762927z" style="fill:rgb(242,130,183)"/><path d="M-25.916487879607818,-130.08853553644693L-26.172166190818558,-121.10081531687787L-25.378945633013963,-125.80971710536132zM-30.560952898576886,-112.74989219194056L-42.078524321129585,-132.19596065432546L-43.146245669283545,-109.13255500777107zM-27.744121724529055,-133.77753604401218L-28.28331251126334,-116.14392984732889L-26.172166190818558,-121.10081531687787z" style="fill:rgb(83,212,212)"/><path d="M-50.13346939157251,-123.01363864324335L-70.41707633848634,-85.91105607790223L-36.32362795789045,-95.57849091183678z" style="fill:rgb(127,37,217)"/><path d="M-88.9926044372422,-94.67147295614132L-30.560952898576886,-112.74989219194056L-89.87663468317683,-95.70103273322493z" style="fill:rgb(83,212,212)"/><path d="M-85.08473635287247,-92.27081372013787L-72.89511353341324,-77.44062151878944L-80.14823061394428,-90.76851587251606z" style="fill:rgb(51,38,177)"/><path d="M-74.36829660846843,-90.23702140048029L-72.89511353341324,-77.44062151878944L-67.15583525273644,-76.86460985956892z" style="fill:rgb(71,33,192)"/><path d="M-28.28331251126334,-116.14392984732889L-19.572742918078752,-107.45385456638721L-26.172166190818558,-121.10081531687787z" style="fill:rgb(242,130,183)"/><path d="M-29.802355614246352,-135.79421742478957L-30.560952898576886,-112.74989219194056L-28.28331251126334,-116.14392984732889z" style="fill:rgb(83,212,212)"/><path d="M-21.631163053681323,-102.49782208762927L-30.560952898576886,-112.74989219194056L-23.86584714130402,-99.11098661421036z" style="fill:rgb(233,112,197)"/><path d="M-30.560952898576886,-112.74989219194056L-88.9926044372422,-94.67147295614132L-85.08473635287247,-92.27081372013787z" style="fill:rgb(83,212,212)"/><path d="M-23.86584714130402,-99.11098661421036L-31.643702729007003,-111.13642941572535L-24.92813384389015,-97.5010055324271z" style="fill:rgb(233,112,197)"/><path d="M-72.89511353341324,-77.44062151878944L-74.36829660846843,-90.23702140048029L-80.14823061394428,-90.76851587251606z" style="fill:rgb(71,33,192)"/><path d="M-67.97071959449511,-90.70910280930123L-67.15583525273644,-76.86460985956892L-60.81205194772677,-77.2902627060197z" style="fill:rgb(92,32,204)"/><path d="M-30.560952898576886,-112.74989219194056L-21.631163053681323,-102.49782208762927L-28.28331251126334,-116.14392984732889z" style="fill:rgb(233,112,197)"/><path d="M-24.92813384389015,-97.5010055324271L-36.129349229721115,-106.28245292901232L-29.34208402664567,-92.66707285243803z" style="fill:rgb(220,94,208)"/><path d="M-70.41707633848634,-85.91105607790223L-50.13346939157251,-123.01363864324335L-84.92211145874727,-112.87616159381857z" style="fill:rgb(127,37,217)"/><path d="M-30.560952898576886,-112.74989219194056L-85.08473635287247,-92.27081372013787L-80.14823061394428,-90.76851587251606z" style="fill:rgb(83,212,212)"/><path d="M-31.643702729007003,-111.13642941572535L-23.86584714130402,-99.11098661421036L-30.560952898576886,-112.74989219194056z" style="fill:rgb(233,112,197)"/><path d="M-61.2127117413936,-92.17458644523882L-60.81205194772677,-77.2902627060197L-54.11875832557164,-78.70917974241738z" style="fill:rgb(115,34,214)"/><path d="M-67.15583525273644,-76.86460985956892L-67.97071959449511,-90.70910280930123L-74.36829660846843,-90.23702140048029z" style="fill:rgb(92,32,204)"/><path d="M-29.34208402664567,-92.66707285243803L-41.56476702102122,-101.78321961543092L-34.700452452020166,-88.1963200657933z" style="fill:rgb(203,77,216)"/><path d="M-48.87824660133152,-146.00075480198126L-84.92211145874727,-112.87616159381857L-50.13346939157251,-123.01363864324335z" style="fill:rgb(83,212,212)"/><path d="M-54.37134145203009,-94.57933438382702L-54.11875832557164,-78.70917974241738L-47.35021331376987,-81.0691410082214z" style="fill:rgb(139,40,220)"/><path d="M-41.56476702102122,-101.78321961543092L-40.78668371864634,-84.27569365557463L-34.700452452020166,-88.1963200657933z" style="fill:rgb(183,62,221)"/><path d="M-36.129349229721115,-106.28245292901232L-24.92813384389015,-97.5010055324271L-31.643702729007003,-111.13642941572535z" style="fill:rgb(220,94,208)"/><path d="M-47.730113546268434,-97.82699122852011L-47.35021331376987,-81.0691410082214L-40.78668371864634,-84.27569365557463z" style="fill:rgb(162,50,222)"/><path d="M-30.560952898576886,-112.74989219194056L-80.14823061394428,-90.76851587251606L-74.36829660846843,-90.23702140048029z" style="fill:rgb(83,212,212)"/><path d="M-60.81205194772677,-77.2902627060197L-61.2127117413936,-92.17458644523882L-67.97071959449511,-90.70910280930123z" style="fill:rgb(115,34,214)"/><path d="M-41.56476702102122,-101.78321961543092L-29.34208402664567,-92.66707285243803L-36.129349229721115,-106.28245292901232z" style="fill:rgb(203,77,216)"/><path d="M-30.560952898576886,-112.74989219194056L-74.36829660846843,-90.23702140048029L-67.97071959449511,-90.70910280930123z" style="fill:rgb(83,212,212)"/><path d="M-54.11875832557164,-78.70917974241738L-54.37134145203009,-94.57933438382702L-61.2127117413936,-92.17458644523882z" style="fill:rgb(139,40,220)"/><path d="M-30.560952898576886,-112.74989219194056L-36.129349229721115,-106.28245292901232L-31.643702729007003,-111.13642941572535z" style="fill:rgb(83,212,212)"/><path d="M-40.78668371864634,-84.27569365557463L-41.56476702102122,-101.78321961543092L-47.730113546268434,-97.82699122852011z" style="fill:rgb(183,62,221)"/><path d="M-47.35021331376987,-81.0691410082214L-47.730113546268434,-97.82699122852011L-54.37134145203009,-94.57933438382702z" style="fill:rgb(162,50,222)"/><path d="M-30.560952898576886,-112.74989219194056L-67.97071959449511,-90.70910280930123L-61.2127117413936,-92.17458644523882zM-30.560952898576886,-112.74989219194056L-41.56476702102122,-101.78321961543092L-36.129349229721115,-106.28245292901232zM-30.560952898576886,-112.74989219194056L-61.2127117413936,-92.17458644523882L-54.37134145203009,-94.57933438382702zM-30.560952898576886,-112.74989219194056L-47.730113546268434,-97.82699122852011L-41.56476702102122,-101.78321961543092zM-30.560952898576886,-112.74989219194056L-54.37134145203009,-94.57933438382702L-47.730113546268434,-97.82699122852011z" style="fill:rgb(83,212,212)"/></svg>
