solid JSxCAD
facet normal -1 0 0
outer loop
vertex -5 5 95
vertex -5 -5 105
vertex -5 5 105
endloop
endfacet
facet normal -1 0 0
outer loop
vertex -5 -5 105
vertex -5 5 95
vertex -5 -5 95
endloop
endfacet
facet normal 0 1 0
outer loop
vertex -5 5 95
vertex 5 5 105
vertex 5 5 95
endloop
endfacet
facet normal 0 1 0
outer loop
vertex 5 5 105
vertex -5 5 95
vertex -5 5 105
endloop
endfacet
facet normal 1 0 0
outer loop
vertex 5 -5 95
vertex 5 5 105
vertex 5 -5 105
endloop
endfacet
facet normal 1 0 0
outer loop
vertex 5 5 105
vertex 5 -5 95
vertex 5 5 95
endloop
endfacet
facet normal 0 -1 0
outer loop
vertex -5 -5 105
vertex 5 -5 95
vertex 5 -5 105
endloop
endfacet
facet normal 0 -1 0
outer loop
vertex 5 -5 95
vertex -5 -5 105
vertex -5 -5 95
endloop
endfacet
facet normal 0 0 1
outer loop
vertex -5 5 105
vertex 5 -5 105
vertex 5 5 105
endloop
endfacet
facet normal 0 0 1
outer loop
vertex 5 -5 105
vertex -5 5 105
vertex -5 -5 105
endloop
endfacet
facet normal 0 0 -1
outer loop
vertex 5 -5 95
vertex -5 5 95
vertex 5 5 95
endloop
endfacet
facet normal 0 0 -1
outer loop
vertex -5 5 95
vertex 5 -5 95
vertex -5 -5 95
endloop
endfacet
endsolid JSxCAD
