<?xml version="1.0" encoding="UTF-8"?>
<!-- Generated by jsxcad -->
<!DOCTYPE svg PUBLIC "-//W3C//DTD SVG 1.1 Tiny//EN" "http://www.w3.org/Graphics/SVG/1.1/DTD/svg11-tiny.dtd">
<svg viewBox="-250 -250 500 500" width="500" height="500" xmlns="http://www.w3.org/2000/svg"><path d="M38.64706897818695,87.45526401953715L29.436560288474663,77.5907692896639L38.927672215830675,95.64944720987776z" style="fill:rgb(247,158,158)"/><path d="M29.436560288474663,77.5907692896639L28.905565545015186,97.9698244065649L38.927672215830675,95.64944720987776z" style="fill:rgb(127,37,217)"/><path d="M29.436560288474663,77.5907692896639L38.64706897818695,87.45526401953715L29.220350739224394,69.37393275346963z" style="fill:rgb(247,158,158)"/><path d="M28.905565545015186,97.9698244065649L29.436560288474663,77.5907692896639L19.247316353960283,80.00048593256051zM68.34229039656785,68.38970345463257L66.9761283783687,89.15548218543736L77.18659409413854,86.79148494299378zM66.9761283783687,89.15548218543736L68.34229039656785,68.38970345463257L57.95784996872572,70.84558989329686z" style="fill:rgb(127,37,217)"/><path d="M29.849453133933167,121.69480061852063L19.582255814781632,103.21075928970232L29.429984930151974,121.10196028921109z" style="fill:rgb(19,60,139)"/><path d="M195.53519294292997,62.60635572592194L-94.15275364585362,106.81918824126235L-96.04532867944958,129.89397591363823z" style="fill:rgb(83,212,212)"/><path d="M-84.32928526753177,146.79125821958795L195.53519294292997,62.60635572592194L-96.04532867944958,129.89397591363823z" style="fill:rgb(127,37,217)"/><path d="M39.71970263310574,118.77832477611825L30.273418465446113,109.39474555355193L40.01304434128742,127.34449706518816z" style="fill:rgb(247,158,158)"/><path d="M30.273418465446113,109.39474555355193L37.94208802120053,126.85441321646742L40.01304434128742,127.34449706518816z" style="fill:rgb(69,33,191)"/><path d="M30.273418465446113,109.39474555355193L39.71970263310574,118.77832477611825L30.04715414658353,100.79579302701492z" style="fill:rgb(247,158,158)"/><path d="M69.83856470613784,91.61318470776466L78.47083477272214,110.72324041911602L78.83580004305416,109.94506633188738z" style="fill:rgb(235,115,194)"/><path d="M-94.15275364585362,106.81918824126235L195.53519294292997,62.60635572592194L191.4037867367866,39.28611538061386z" style="fill:rgb(83,212,212)"/><path d="M195.53519294292997,62.60635572592194L-84.32928526753177,146.79125821958795L202.30336461385266,82.06343219901831z" style="fill:rgb(127,37,217)"/><path d="M195.53519294292997,62.60635572592194L198.11215396225091,58.7939995039881L191.4037867367866,39.28611538061386zM198.11215396225091,58.7939995039881L195.53519294292997,62.60635572592194L202.30336461385266,82.06343219901831z" style="fill:rgb(247,158,158)"/><path d="M33.46740882434263,124.69450692838312L-89.51076677229679,-95.19692679239228L29.849453133933167,121.69480061852063z" style="fill:rgb(32,47,158)"/><path d="M37.94208802120053,126.85441321646742L-85.64464798481357,-92.59342890695267L33.46740882434263,124.69450692838312z" style="fill:rgb(49,39,175)"/><path d="M19.582255814781632,103.21075928970232L29.849453133933167,121.69480061852063L-89.51076677229679,-95.19692679239228zM19.582255814781632,103.21075928970232L-92.11486909654505,-98.62202376853985L17.373905710944477,100.10431720472732z" style="fill:rgb(19,60,139)"/><path d="M-26.315589928597216,-131.28506765849178L73.00522923161003,77.77072268134427L71.81323483641282,73.36108635762389z" style="fill:rgb(245,171,144)"/><path d="M78.47083477272214,110.72324041911602L-35.49067199329351,-106.95422994362013L75.13056236601552,115.33206003061728z" style="fill:rgb(222,96,207)"/><path d="M-78.28846770696622,-90.68058021885349L37.94208802120053,126.85441321646742L30.273418465446113,109.39474555355193z" style="fill:rgb(69,33,191)"/><path d="M73.00522923161003,77.77072268134427L-25.874839995362393,-122.25213503621502L73.01181757038081,82.54662317012522z" style="fill:rgb(247,153,162)"/><path d="M75.13056236601552,115.33206003061728L-41.00035384268574,-102.25941308477486L70.87001722550663,119.48044908266965z" style="fill:rgb(205,79,215)"/><path d="M-41.00035384268574,-102.25941308477486L68.85672198696025,120.89189785959543L70.87001722550663,119.48044908266965z" style="fill:rgb(185,63,221)"/><path d="M69.83856470613784,91.61318470776466L-31.019671670413437,-111.99977784880576L78.47083477272214,110.72324041911602z" style="fill:rgb(235,115,194)"/><path d="M73.01181757038081,82.54662317012522L-27.77247858717934,-117.17369675004642L71.81815965194835,87.49185062973903z" style="fill:rgb(243,134,179)"/><path d="M-74.7575536279095,-90.30322771190697L30.273418465446113,109.39474555355193L33.394564405487614,110.10230572172253z" style="fill:rgb(69,33,191)"/><path d="M71.81815965194835,87.49185062973903L-30.500259215171262,-112.82738289889416L69.83856470613784,91.61318470776466z" style="fill:rgb(235,115,194)"/><path d="M-68.17970186023634,-90.74044341835057L33.394564405487614,110.10230572172253L39.09208932269808,110.27535833227442z" style="fill:rgb(91,32,204)"/><path d="M-61.208694044195006,-92.23687027413953L39.09208932269808,110.27535833227442L45.0247031803482,109.42271039486357z" style="fill:rgb(115,34,214)"/><path d="M-54.14890809708188,-94.73376739353864L45.0247031803482,109.42271039486357L50.93569754011898,107.5757449806878z" style="fill:rgb(139,40,220)"/><path d="M-43.54150952398708,-100.59463174156136L56.56720841654195,104.81202936758412L59.61740578097358,102.6853403233848z" style="fill:rgb(185,63,221)"/><path d="M-47.31201711518625,-98.12445689640145L50.93569754011898,107.5757449806878L56.56720841654195,104.81202936758412z" style="fill:rgb(163,50,222)"/><path d="M-89.51076677229679,-95.19692679239228L33.46740882434263,124.69450692838312L-85.64464798481357,-92.59342890695267z" style="fill:rgb(32,47,158)"/><path d="M-92.11486909654505,-98.62202376853985L19.582255814781632,103.21075928970232L-89.92782456138744,-95.74547357997933z" style="fill:rgb(19,60,139)"/><path d="M73.00522923161003,77.77072268134427L-26.315589928597216,-131.28506765849178L-25.389358329396643,-127.02089125041289z" style="fill:rgb(245,171,144)"/><path d="M19.582255814781632,103.21075928970232L-89.51076677229679,-95.19692679239228L-89.92782456138744,-95.74547357997933z" style="fill:rgb(19,60,139)"/><path d="M-85.64464798481357,-92.59342890695267L37.94208802120053,126.85441321646742L-80.66086483302762,-90.9341159548675z" style="fill:rgb(49,39,175)"/><path d="M-25.874839995362393,-122.25213503621502L73.00522923161003,77.77072268134427L-25.389358329396643,-127.02089125041289z" style="fill:rgb(247,153,162)"/><path d="M37.94208802120053,126.85441321646742L-78.28846770696622,-90.68058021885349L-80.66086483302762,-90.9341159548675z" style="fill:rgb(69,33,191)"/><path d="M-27.77247858717934,-117.17369675004642L73.01181757038081,82.54662317012522L-25.874839995362393,-122.25213503621502z" style="fill:rgb(243,134,179)"/><path d="M-35.49067199329351,-106.95422994362013L78.47083477272214,110.72324041911602L-31.019671670413437,-111.99977784880576z" style="fill:rgb(222,96,207)"/><path d="M-30.500259215171262,-112.82738289889416L71.81815965194835,87.49185062973903L-27.77247858717934,-117.17369675004642z" style="fill:rgb(235,115,194)"/><path d="M30.273418465446113,109.39474555355193L-74.7575536279095,-90.30322771190697L-78.28846770696622,-90.68058021885349z" style="fill:rgb(69,33,191)"/><path d="M-41.00035384268574,-102.25941308477486L75.13056236601552,115.33206003061728L-35.49067199329351,-106.95422994362013z" style="fill:rgb(205,79,215)"/><path d="M68.85672198696025,120.89189785959543L-41.00035384268574,-102.25941308477486L-43.54150952398708,-100.59463174156136z" style="fill:rgb(185,63,221)"/><path d="M-31.019671670413437,-111.99977784880576L69.83856470613784,91.61318470776466L-30.500259215171262,-112.82738289889416z" style="fill:rgb(235,115,194)"/><path d="M33.394564405487614,110.10230572172253L-68.17970186023634,-90.74044341835057L-74.7575536279095,-90.30322771190697z" style="fill:rgb(91,32,204)"/><path d="M39.09208932269808,110.27535833227442L-61.208694044195006,-92.23687027413953L-68.17970186023634,-90.74044341835057z" style="fill:rgb(115,34,214)"/><path d="M45.0247031803482,109.42271039486357L-54.14890809708188,-94.73376739353864L-61.208694044195006,-92.23687027413953z" style="fill:rgb(139,40,220)"/><path d="M56.56720841654195,104.81202936758412L-43.54150952398708,-100.59463174156136L-47.31201711518625,-98.12445689640145z" style="fill:rgb(185,63,221)"/><path d="M50.93569754011898,107.5757449806878L-47.31201711518625,-98.12445689640145L-54.14890809708188,-94.73376739353864z" style="fill:rgb(163,50,222)"/><path d="M-80.20367365870756,-126.72675501135406L-75.67530186882698,-122.40489169760471L-74.5011242665838,-130.91016252615017zM-85.1061163137736,-122.09392363840738L-75.67530186882698,-122.40489169760471L-80.20367365870756,-126.72675501135406zM-74.5011242665838,-130.91016252615017L-42.07585332386075,-132.25365575763917L-68.21784336798807,-134.48759527225974zM-68.21784336798807,-134.48759527225974L-42.07585332386075,-132.25365575763917L-61.59218786364646,-137.32441588236364zM-75.67530186882698,-122.40489169760471L-85.1061163137736,-122.09392363840738L-87.65507918403624,-118.8933375458321zM-61.59218786364646,-137.32441588236364L-42.07585332386075,-132.25365575763917L-54.87460425701948,-139.31168982717892z" style="fill:rgb(83,212,212)"/><path d="M-42.07585332386075,-132.25365575763917L-68.70453387041358,-109.1416460598696L-35.43284875453236,-118.76631158190946z" style="fill:rgb(127,37,217)"/><path d="M-54.87460425701948,-139.31168982717892L-42.07585332386075,-132.25365575763917L-48.32056915861636,-140.36943740735956z" style="fill:rgb(83,212,212)"/><path d="M-68.70453387041358,-109.1416460598696L-42.07585332386075,-132.25365575763917L-75.67530186882698,-122.40489169760471z" style="fill:rgb(127,37,217)"/><path d="M-70.41258558511059,-85.9719730200087L-35.43284875453236,-118.76631158190946L-68.70453387041358,-109.1416460598696zM-74.5011242665838,-130.91016252615017L-75.67530186882698,-122.40489169760471L-42.07585332386075,-132.25365575763917zM-48.32056915861636,-140.36943740735956L-42.07585332386075,-132.25365575763917L-42.18311203241655,-140.44971864944236zM-42.18311203241655,-140.44971864944236L-42.07585332386075,-132.25365575763917L-36.70488327157172,-139.53920382258036z" style="fill:rgb(83,212,212)"/><path d="M-77.5788829848201,-99.29505966285244L-68.70453387041358,-109.1416460598696L-75.67530186882698,-122.40489169760471z" style="fill:rgb(247,158,158)"/><path d="M-89.01483239850428,-117.18597591622184L-89.92782456138744,-95.74547357997933L-87.65507918403624,-118.8933375458321zM-91.76874396727125,-112.19022128141035L-92.11486909654505,-98.62202376853985L-89.01483239850428,-117.18597591622184zM-93.36979248660576,-102.7154281548948L-91.76874396727125,-112.19022128141035L-93.24589482809083,-107.30141586177767zM-87.65507918403624,-118.8933375458321L-77.5788829848201,-99.29505966285244L-75.67530186882698,-122.40489169760471zM-36.70488327157172,-139.53920382258036L-29.818203850486864,-135.8466587039689L-32.10968477329182,-137.6612268420424zM-36.70488327157172,-139.53920382258036L-42.07585332386075,-132.25365575763917L-29.818203850486864,-135.8466587039689z" style="fill:rgb(83,212,212)"/><path d="M-68.70453387041358,-109.1416460598696L-77.5788829848201,-99.29505966285244L-70.41258558511059,-85.9719730200087z" style="fill:rgb(247,158,158)"/><path d="M-91.76874396727125,-112.19022128141035L-93.36979248660576,-102.7154281548948L-92.11486909654505,-98.62202376853985zM-35.43284875453236,-118.76631158190946L-70.41258558511059,-85.9719730200087L-36.32129160603899,-95.63931539001399zM-89.01483239850428,-117.18597591622184L-92.11486909654505,-98.62202376853985L-89.92782456138744,-95.74547357997933zM-87.65507918403624,-118.8933375458321L-89.92782456138744,-95.74547357997933L-77.5788829848201,-99.29505966285244zM-42.07585332386075,-132.25365575763917L-30.500259215171262,-112.82738289889416L-29.818203850486864,-135.8466587039689zM-29.818203850486864,-135.8466587039689L-30.500259215171262,-112.82738289889416L-28.59353272771883,-134.87686644169645zM-28.59353272771883,-134.87686644169645L-27.77247858717934,-117.17369675004642L-26.315589928597216,-131.28506765849178zM-89.51076677229679,-95.19692679239228L-77.5788829848201,-99.29505966285244L-89.92782456138744,-95.74547357997933zM-26.315589928597216,-131.28506765849178L-25.874839995362393,-122.25213503621502L-25.389358329396643,-127.02089125041289zM-77.5788829848201,-99.29505966285244L-89.51076677229679,-95.19692679239228L-85.64464798481357,-92.59342890695267zM-30.500259215171262,-112.82738289889416L-42.07585332386075,-132.25365575763917L-43.14343740635699,-109.19321512958045zM-26.315589928597216,-131.28506765849178L-27.77247858717934,-117.17369675004642L-25.874839995362393,-122.25213503621502zM-28.59353272771883,-134.87686644169645L-30.500259215171262,-112.82738289889416L-27.77247858717934,-117.17369675004642zM-77.5788829848201,-99.29505966285244L-85.64464798481357,-92.59342890695267L-80.66086483302762,-90.9341159548675zM-77.5788829848201,-99.29505966285244L-80.66086483302762,-90.9341159548675L-74.7575536279095,-90.30322771190697zM-77.5788829848201,-99.29505966285244L-74.7575536279095,-90.30322771190697L-43.14343740635699,-109.19321512958045zM-43.14343740635699,-109.19321512958045L-74.7575536279095,-90.30322771190697L-68.17970186023634,-90.74044341835057zM-43.14343740635699,-109.19321512958045L-41.00035384268574,-102.25941308477486L-30.500259215171262,-112.82738289889416zM-30.500259215171262,-112.82738289889416L-35.49067199329351,-106.95422994362013L-31.019671670413437,-111.99977784880576zM-43.14343740635699,-109.19321512958045L-68.17970186023634,-90.74044341835057L-61.208694044195006,-92.23687027413953zM-43.14343740635699,-109.19321512958045L-61.208694044195006,-92.23687027413953L-54.14890809708188,-94.73376739353864zM-43.14343740635699,-109.19321512958045L-47.31201711518625,-98.12445689640145L-41.00035384268574,-102.25941308477486zM-30.500259215171262,-112.82738289889416L-41.00035384268574,-102.25941308477486L-35.49067199329351,-106.95422994362013zM-43.14343740635699,-109.19321512958045L-54.14890809708188,-94.73376739353864L-47.31201711518625,-98.12445689640145z" style="fill:rgb(83,212,212)"/></svg>
