solid JSxCAD
facet normal 0 0 1
outer loop
vertex 10 0 100
vertex 9.80785 1.9509 100
vertex 9.2388 3.82683 100
endloop
endfacet
facet normal 0 0 1
outer loop
vertex 10 0 100
vertex 9.2388 3.82683 100
vertex 8.3147 5.5557 100
endloop
endfacet
facet normal 0 0 1
outer loop
vertex 10 0 100
vertex 8.3147 5.5557 100
vertex 7.07107 7.07107 100
endloop
endfacet
facet normal 0 0 1
outer loop
vertex 10 0 100
vertex 7.07107 7.07107 100
vertex 5.5557 8.3147 100
endloop
endfacet
facet normal 0 0 1
outer loop
vertex 10 0 100
vertex 5.5557 8.3147 100
vertex 3.82683 9.2388 100
endloop
endfacet
facet normal 0 0 1
outer loop
vertex 10 0 100
vertex 3.82683 9.2388 100
vertex 1.9509 9.80785 100
endloop
endfacet
facet normal 0 0 1
outer loop
vertex 10 0 100
vertex 1.9509 9.80785 100
vertex 0 10 100
endloop
endfacet
facet normal 0 0 1
outer loop
vertex 10 0 100
vertex 0 10 100
vertex -1.9509 9.80785 100
endloop
endfacet
facet normal 0 0 1
outer loop
vertex 10 0 100
vertex -1.9509 9.80785 100
vertex -3.82683 9.2388 100
endloop
endfacet
facet normal 0 0 1
outer loop
vertex 10 0 100
vertex -3.82683 9.2388 100
vertex -5.5557 8.3147 100
endloop
endfacet
facet normal 0 0 1
outer loop
vertex 10 0 100
vertex -5.5557 8.3147 100
vertex -7.07107 7.07107 100
endloop
endfacet
facet normal 0 0 1
outer loop
vertex 10 0 100
vertex -7.07107 7.07107 100
vertex -8.3147 5.5557 100
endloop
endfacet
facet normal 0 0 1
outer loop
vertex 10 0 100
vertex -8.3147 5.5557 100
vertex -9.2388 3.82683 100
endloop
endfacet
facet normal 0 0 1
outer loop
vertex 10 0 100
vertex -9.2388 3.82683 100
vertex -9.80785 1.9509 100
endloop
endfacet
facet normal 0 0 1
outer loop
vertex 10 0 100
vertex -9.80785 1.9509 100
vertex -10 0 100
endloop
endfacet
facet normal 0 0 1
outer loop
vertex 10 0 100
vertex -10 0 100
vertex -9.80785 -1.9509 100
endloop
endfacet
facet normal 0 0 1
outer loop
vertex 10 0 100
vertex -9.80785 -1.9509 100
vertex -9.2388 -3.82683 100
endloop
endfacet
facet normal 0 0 1
outer loop
vertex 10 0 100
vertex -9.2388 -3.82683 100
vertex -8.3147 -5.5557 100
endloop
endfacet
facet normal 0 0 1
outer loop
vertex 10 0 100
vertex -8.3147 -5.5557 100
vertex -7.07107 -7.07107 100
endloop
endfacet
facet normal 0 0 1
outer loop
vertex 10 0 100
vertex -7.07107 -7.07107 100
vertex -5.5557 -8.3147 100
endloop
endfacet
facet normal 0 0 1
outer loop
vertex 10 0 100
vertex -5.5557 -8.3147 100
vertex -3.82683 -9.2388 100
endloop
endfacet
facet normal 0 0 1
outer loop
vertex 10 0 100
vertex -3.82683 -9.2388 100
vertex -1.9509 -9.80785 100
endloop
endfacet
facet normal 0 0 1
outer loop
vertex 10 0 100
vertex -1.9509 -9.80785 100
vertex 0 -10 100
endloop
endfacet
facet normal 0 0 1
outer loop
vertex 10 0 100
vertex 0 -10 100
vertex 1.9509 -9.80785 100
endloop
endfacet
facet normal 0 0 1
outer loop
vertex 10 0 100
vertex 1.9509 -9.80785 100
vertex 3.82683 -9.2388 100
endloop
endfacet
facet normal 0 0 1
outer loop
vertex 10 0 100
vertex 3.82683 -9.2388 100
vertex 5.5557 -8.3147 100
endloop
endfacet
facet normal 0 0 1
outer loop
vertex 10 0 100
vertex 5.5557 -8.3147 100
vertex 7.07107 -7.07107 100
endloop
endfacet
facet normal 0 0 1
outer loop
vertex 10 0 100
vertex 7.07107 -7.07107 100
vertex 8.3147 -5.5557 100
endloop
endfacet
facet normal 0 0 1
outer loop
vertex 10 0 100
vertex 8.3147 -5.5557 100
vertex 9.2388 -3.82683 100
endloop
endfacet
facet normal 0 0 1
outer loop
vertex 10 0 100
vertex 9.2388 -3.82683 100
vertex 9.80785 -1.9509 100
endloop
endfacet
facet normal 0 0 -1
outer loop
vertex 9.80785 -1.9509 0
vertex 9.2388 -3.82683 0
vertex 8.3147 -5.5557 0
endloop
endfacet
facet normal 0 0 -1
outer loop
vertex 9.80785 -1.9509 0
vertex 8.3147 -5.5557 0
vertex 7.07107 -7.07107 0
endloop
endfacet
facet normal 0 0 -1
outer loop
vertex 9.80785 -1.9509 0
vertex 7.07107 -7.07107 0
vertex 5.5557 -8.3147 0
endloop
endfacet
facet normal 0 0 -1
outer loop
vertex 9.80785 -1.9509 0
vertex 5.5557 -8.3147 0
vertex 3.82683 -9.2388 0
endloop
endfacet
facet normal 0 0 -1
outer loop
vertex 9.80785 -1.9509 0
vertex 3.82683 -9.2388 0
vertex 1.9509 -9.80785 0
endloop
endfacet
facet normal 0 0 -1
outer loop
vertex 9.80785 -1.9509 0
vertex 1.9509 -9.80785 0
vertex 0 -10 0
endloop
endfacet
facet normal 0 0 -1
outer loop
vertex 9.80785 -1.9509 0
vertex 0 -10 0
vertex -1.9509 -9.80785 0
endloop
endfacet
facet normal 0 0 -1
outer loop
vertex 9.80785 -1.9509 0
vertex -1.9509 -9.80785 0
vertex -3.82683 -9.2388 0
endloop
endfacet
facet normal 0 0 -1
outer loop
vertex 9.80785 -1.9509 0
vertex -3.82683 -9.2388 0
vertex -5.5557 -8.3147 0
endloop
endfacet
facet normal 0 0 -1
outer loop
vertex 9.80785 -1.9509 0
vertex -5.5557 -8.3147 0
vertex -7.07107 -7.07107 0
endloop
endfacet
facet normal 0 0 -1
outer loop
vertex 9.80785 -1.9509 0
vertex -7.07107 -7.07107 0
vertex -8.3147 -5.5557 0
endloop
endfacet
facet normal 0 0 -1
outer loop
vertex 9.80785 -1.9509 0
vertex -8.3147 -5.5557 0
vertex -9.2388 -3.82683 0
endloop
endfacet
facet normal 0 0 -1
outer loop
vertex 9.80785 -1.9509 0
vertex -9.2388 -3.82683 0
vertex -9.80785 -1.9509 0
endloop
endfacet
facet normal 0 0 -1
outer loop
vertex 9.80785 -1.9509 0
vertex -9.80785 -1.9509 0
vertex -10 0 0
endloop
endfacet
facet normal 0 0 -1
outer loop
vertex 9.80785 -1.9509 0
vertex -10 0 0
vertex -9.80785 1.9509 0
endloop
endfacet
facet normal 0 0 -1
outer loop
vertex 9.80785 -1.9509 0
vertex -9.80785 1.9509 0
vertex -9.2388 3.82683 0
endloop
endfacet
facet normal 0 0 -1
outer loop
vertex 9.80785 -1.9509 0
vertex -9.2388 3.82683 0
vertex -8.3147 5.5557 0
endloop
endfacet
facet normal 0 0 -1
outer loop
vertex 9.80785 -1.9509 0
vertex -8.3147 5.5557 0
vertex -7.07107 7.07107 0
endloop
endfacet
facet normal 0 0 -1
outer loop
vertex 9.80785 -1.9509 0
vertex -7.07107 7.07107 0
vertex -5.5557 8.3147 0
endloop
endfacet
facet normal 0 0 -1
outer loop
vertex 9.80785 -1.9509 0
vertex -5.5557 8.3147 0
vertex -3.82683 9.2388 0
endloop
endfacet
facet normal 0 0 -1
outer loop
vertex 9.80785 -1.9509 0
vertex -3.82683 9.2388 0
vertex -1.9509 9.80785 0
endloop
endfacet
facet normal 0 0 -1
outer loop
vertex 9.80785 -1.9509 0
vertex -1.9509 9.80785 0
vertex 0 10 0
endloop
endfacet
facet normal 0 0 -1
outer loop
vertex 9.80785 -1.9509 0
vertex 0 10 0
vertex 1.9509 9.80785 0
endloop
endfacet
facet normal 0 0 -1
outer loop
vertex 9.80785 -1.9509 0
vertex 1.9509 9.80785 0
vertex 3.82683 9.2388 0
endloop
endfacet
facet normal 0 0 -1
outer loop
vertex 9.80785 -1.9509 0
vertex 3.82683 9.2388 0
vertex 5.5557 8.3147 0
endloop
endfacet
facet normal 0 0 -1
outer loop
vertex 9.80785 -1.9509 0
vertex 5.5557 8.3147 0
vertex 7.07107 7.07107 0
endloop
endfacet
facet normal 0 0 -1
outer loop
vertex 9.80785 -1.9509 0
vertex 7.07107 7.07107 0
vertex 8.3147 5.5557 0
endloop
endfacet
facet normal 0 0 -1
outer loop
vertex 9.80785 -1.9509 0
vertex 8.3147 5.5557 0
vertex 9.2388 3.82683 0
endloop
endfacet
facet normal 0 0 -1
outer loop
vertex 9.80785 -1.9509 0
vertex 9.2388 3.82683 0
vertex 9.80785 1.9509 0
endloop
endfacet
facet normal 0 0 -1
outer loop
vertex 9.80785 -1.9509 0
vertex 9.80785 1.9509 0
vertex 10 0 0
endloop
endfacet
facet normal 0.9569413480748427 -0.2902813399870943 0
outer loop
vertex 9.80785 -1.9509 0
vertex 9.80785 -1.9509 100
vertex 9.2388 -3.82683 100
endloop
endfacet
facet normal 0.9569413480748427 -0.2902813399870943 0
outer loop
vertex 9.80785 -1.9509 0
vertex 9.2388 -3.82683 100
vertex 9.2388 -3.82683 0
endloop
endfacet
facet normal 0.8819213211012736 -0.4713966306487396 0
outer loop
vertex 9.2388 -3.82683 0
vertex 9.2388 -3.82683 100
vertex 8.3147 -5.5557 100
endloop
endfacet
facet normal 0.8819213211012736 -0.4713966306487396 0
outer loop
vertex 9.2388 -3.82683 0
vertex 8.3147 -5.5557 100
vertex 8.3147 -5.5557 0
endloop
endfacet
facet normal 0.7730109584919856 -0.6343926686613754 0
outer loop
vertex 8.3147 -5.5557 0
vertex 8.3147 -5.5557 100
vertex 7.07107 -7.07107 100
endloop
endfacet
facet normal 0.7730109584919856 -0.6343926686613754 0
outer loop
vertex 8.3147 -5.5557 0
vertex 7.07107 -7.07107 100
vertex 7.07107 -7.07107 0
endloop
endfacet
facet normal 0.6343926686613754 -0.7730109584919856 0
outer loop
vertex 7.07107 -7.07107 0
vertex 7.07107 -7.07107 100
vertex 5.5557 -8.3147 100
endloop
endfacet
facet normal 0.6343926686613754 -0.7730109584919856 0
outer loop
vertex 7.07107 -7.07107 0
vertex 5.5557 -8.3147 100
vertex 5.5557 -8.3147 0
endloop
endfacet
facet normal 0.4713966306487396 -0.8819213211012736 0
outer loop
vertex 5.5557 -8.3147 0
vertex 5.5557 -8.3147 100
vertex 3.82683 -9.2388 100
endloop
endfacet
facet normal 0.4713966306487396 -0.8819213211012736 0
outer loop
vertex 5.5557 -8.3147 0
vertex 3.82683 -9.2388 100
vertex 3.82683 -9.2388 0
endloop
endfacet
facet normal 0.2902813399870943 -0.9569413480748427 0
outer loop
vertex 3.82683 -9.2388 0
vertex 3.82683 -9.2388 100
vertex 1.9509 -9.80785 100
endloop
endfacet
facet normal 0.2902813399870943 -0.9569413480748427 0
outer loop
vertex 3.82683 -9.2388 0
vertex 1.9509 -9.80785 100
vertex 1.9509 -9.80785 0
endloop
endfacet
facet normal 0.09801871720095075 -0.9951845713626595 0
outer loop
vertex 1.9509 -9.80785 0
vertex 1.9509 -9.80785 100
vertex 0 -10 100
endloop
endfacet
facet normal 0.09801871720095075 -0.9951845713626595 0
outer loop
vertex 1.9509 -9.80785 0
vertex 0 -10 100
vertex 0 -10 0
endloop
endfacet
facet normal -0.09801871720095075 -0.9951845713626595 0
outer loop
vertex 0 -10 0
vertex 0 -10 100
vertex -1.9509 -9.80785 100
endloop
endfacet
facet normal -0.09801871720095075 -0.9951845713626595 0
outer loop
vertex 0 -10 0
vertex -1.9509 -9.80785 100
vertex -1.9509 -9.80785 0
endloop
endfacet
facet normal -0.2902813399870943 -0.9569413480748427 0
outer loop
vertex -1.9509 -9.80785 0
vertex -1.9509 -9.80785 100
vertex -3.82683 -9.2388 100
endloop
endfacet
facet normal -0.2902813399870943 -0.9569413480748427 0
outer loop
vertex -1.9509 -9.80785 0
vertex -3.82683 -9.2388 100
vertex -3.82683 -9.2388 0
endloop
endfacet
facet normal -0.4713966306487396 -0.8819213211012736 0
outer loop
vertex -3.82683 -9.2388 0
vertex -3.82683 -9.2388 100
vertex -5.5557 -8.3147 100
endloop
endfacet
facet normal -0.4713966306487396 -0.8819213211012736 0
outer loop
vertex -3.82683 -9.2388 0
vertex -5.5557 -8.3147 100
vertex -5.5557 -8.3147 0
endloop
endfacet
facet normal -0.6343926686613754 -0.7730109584919856 0
outer loop
vertex -5.5557 -8.3147 0
vertex -5.5557 -8.3147 100
vertex -7.07107 -7.07107 100
endloop
endfacet
facet normal -0.6343926686613754 -0.7730109584919856 0
outer loop
vertex -5.5557 -8.3147 0
vertex -7.07107 -7.07107 100
vertex -7.07107 -7.07107 0
endloop
endfacet
facet normal -0.7730109584919856 -0.6343926686613754 0
outer loop
vertex -7.07107 -7.07107 0
vertex -7.07107 -7.07107 100
vertex -8.3147 -5.5557 100
endloop
endfacet
facet normal -0.7730109584919856 -0.6343926686613754 0
outer loop
vertex -7.07107 -7.07107 0
vertex -8.3147 -5.5557 100
vertex -8.3147 -5.5557 0
endloop
endfacet
facet normal -0.8819213211012736 -0.4713966306487396 0
outer loop
vertex -8.3147 -5.5557 0
vertex -8.3147 -5.5557 100
vertex -9.2388 -3.82683 100
endloop
endfacet
facet normal -0.8819213211012736 -0.4713966306487396 0
outer loop
vertex -8.3147 -5.5557 0
vertex -9.2388 -3.82683 100
vertex -9.2388 -3.82683 0
endloop
endfacet
facet normal -0.9569413480748427 -0.2902813399870943 0
outer loop
vertex -9.2388 -3.82683 0
vertex -9.2388 -3.82683 100
vertex -9.80785 -1.9509 100
endloop
endfacet
facet normal -0.9569413480748427 -0.2902813399870943 0
outer loop
vertex -9.2388 -3.82683 0
vertex -9.80785 -1.9509 100
vertex -9.80785 -1.9509 0
endloop
endfacet
facet normal -0.9951845713626595 -0.09801871720095075 0
outer loop
vertex -9.80785 -1.9509 0
vertex -9.80785 -1.9509 100
vertex -10 0 100
endloop
endfacet
facet normal -0.9951845713626595 -0.09801871720095075 0
outer loop
vertex -9.80785 -1.9509 0
vertex -10 0 100
vertex -10 0 0
endloop
endfacet
facet normal -0.9951845713626595 0.09801871720095075 0
outer loop
vertex -10 0 0
vertex -10 0 100
vertex -9.80785 1.9509 100
endloop
endfacet
facet normal -0.9951845713626595 0.09801871720095075 0
outer loop
vertex -10 0 0
vertex -9.80785 1.9509 100
vertex -9.80785 1.9509 0
endloop
endfacet
facet normal -0.9569413480748427 0.2902813399870943 0
outer loop
vertex -9.80785 1.9509 0
vertex -9.80785 1.9509 100
vertex -9.2388 3.82683 100
endloop
endfacet
facet normal -0.9569413480748427 0.2902813399870943 0
outer loop
vertex -9.80785 1.9509 0
vertex -9.2388 3.82683 100
vertex -9.2388 3.82683 0
endloop
endfacet
facet normal -0.8819213211012736 0.4713966306487396 0
outer loop
vertex -9.2388 3.82683 0
vertex -9.2388 3.82683 100
vertex -8.3147 5.5557 100
endloop
endfacet
facet normal -0.8819213211012736 0.4713966306487396 0
outer loop
vertex -9.2388 3.82683 0
vertex -8.3147 5.5557 100
vertex -8.3147 5.5557 0
endloop
endfacet
facet normal -0.7730109584919856 0.6343926686613754 0
outer loop
vertex -8.3147 5.5557 0
vertex -8.3147 5.5557 100
vertex -7.07107 7.07107 100
endloop
endfacet
facet normal -0.7730109584919856 0.6343926686613754 0
outer loop
vertex -8.3147 5.5557 0
vertex -7.07107 7.07107 100
vertex -7.07107 7.07107 0
endloop
endfacet
facet normal -0.6343926686613754 0.7730109584919856 0
outer loop
vertex -7.07107 7.07107 0
vertex -7.07107 7.07107 100
vertex -5.5557 8.3147 100
endloop
endfacet
facet normal -0.6343926686613754 0.7730109584919856 0
outer loop
vertex -7.07107 7.07107 0
vertex -5.5557 8.3147 100
vertex -5.5557 8.3147 0
endloop
endfacet
facet normal -0.4713966306487396 0.8819213211012736 0
outer loop
vertex -5.5557 8.3147 0
vertex -5.5557 8.3147 100
vertex -3.82683 9.2388 100
endloop
endfacet
facet normal -0.4713966306487396 0.8819213211012736 0
outer loop
vertex -5.5557 8.3147 0
vertex -3.82683 9.2388 100
vertex -3.82683 9.2388 0
endloop
endfacet
facet normal -0.2902813399870943 0.9569413480748427 0
outer loop
vertex -3.82683 9.2388 0
vertex -3.82683 9.2388 100
vertex -1.9509 9.80785 100
endloop
endfacet
facet normal -0.2902813399870943 0.9569413480748427 0
outer loop
vertex -3.82683 9.2388 0
vertex -1.9509 9.80785 100
vertex -1.9509 9.80785 0
endloop
endfacet
facet normal -0.09801871720095075 0.9951845713626595 0
outer loop
vertex -1.9509 9.80785 0
vertex -1.9509 9.80785 100
vertex 0 10 100
endloop
endfacet
facet normal -0.09801871720095075 0.9951845713626595 0
outer loop
vertex -1.9509 9.80785 0
vertex 0 10 100
vertex 0 10 0
endloop
endfacet
facet normal 0.09801871720095075 0.9951845713626595 0
outer loop
vertex 0 10 0
vertex 0 10 100
vertex 1.9509 9.80785 100
endloop
endfacet
facet normal 0.09801871720095075 0.9951845713626595 0
outer loop
vertex 0 10 0
vertex 1.9509 9.80785 100
vertex 1.9509 9.80785 0
endloop
endfacet
facet normal 0.2902813399870943 0.9569413480748427 0
outer loop
vertex 1.9509 9.80785 0
vertex 1.9509 9.80785 100
vertex 3.82683 9.2388 100
endloop
endfacet
facet normal 0.2902813399870943 0.9569413480748427 0
outer loop
vertex 1.9509 9.80785 0
vertex 3.82683 9.2388 100
vertex 3.82683 9.2388 0
endloop
endfacet
facet normal 0.4713966306487396 0.8819213211012736 0
outer loop
vertex 3.82683 9.2388 0
vertex 3.82683 9.2388 100
vertex 5.5557 8.3147 100
endloop
endfacet
facet normal 0.4713966306487396 0.8819213211012736 0
outer loop
vertex 3.82683 9.2388 0
vertex 5.5557 8.3147 100
vertex 5.5557 8.3147 0
endloop
endfacet
facet normal 0.6343926686613754 0.7730109584919856 0
outer loop
vertex 5.5557 8.3147 0
vertex 5.5557 8.3147 100
vertex 7.07107 7.07107 100
endloop
endfacet
facet normal 0.6343926686613754 0.7730109584919856 0
outer loop
vertex 5.5557 8.3147 0
vertex 7.07107 7.07107 100
vertex 7.07107 7.07107 0
endloop
endfacet
facet normal 0.7730109584919856 0.6343926686613754 0
outer loop
vertex 7.07107 7.07107 0
vertex 7.07107 7.07107 100
vertex 8.3147 5.5557 100
endloop
endfacet
facet normal 0.7730109584919856 0.6343926686613754 0
outer loop
vertex 7.07107 7.07107 0
vertex 8.3147 5.5557 100
vertex 8.3147 5.5557 0
endloop
endfacet
facet normal 0.8819213211012736 0.4713966306487396 0
outer loop
vertex 8.3147 5.5557 0
vertex 8.3147 5.5557 100
vertex 9.2388 3.82683 100
endloop
endfacet
facet normal 0.8819213211012736 0.4713966306487396 0
outer loop
vertex 8.3147 5.5557 0
vertex 9.2388 3.82683 100
vertex 9.2388 3.82683 0
endloop
endfacet
facet normal 0.9569413480748427 0.2902813399870943 0
outer loop
vertex 9.2388 3.82683 0
vertex 9.2388 3.82683 100
vertex 9.80785 1.9509 100
endloop
endfacet
facet normal 0.9569413480748427 0.2902813399870943 0
outer loop
vertex 9.2388 3.82683 0
vertex 9.80785 1.9509 100
vertex 9.80785 1.9509 0
endloop
endfacet
facet normal 0.9951845713626595 0.09801871720095075 0
outer loop
vertex 9.80785 1.9509 0
vertex 9.80785 1.9509 100
vertex 10 0 100
endloop
endfacet
facet normal 0.9951845713626595 0.09801871720095075 0
outer loop
vertex 9.80785 1.9509 0
vertex 10 0 100
vertex 10 0 0
endloop
endfacet
facet normal 0.9951845713626595 -0.09801871720095075 0
outer loop
vertex 10 0 0
vertex 10 0 100
vertex 9.80785 -1.9509 100
endloop
endfacet
facet normal 0.9951845713626595 -0.09801871720095075 0
outer loop
vertex 10 0 0
vertex 9.80785 -1.9509 100
vertex 9.80785 -1.9509 0
endloop
endfacet
endsolid JSxCAD
