<?xml version="1.0" encoding="UTF-8"?>
<!-- Generated by jsxcad -->
<!DOCTYPE svg PUBLIC "-//W3C//DTD SVG 1.1 Tiny//EN" "http://www.w3.org/Graphics/SVG/1.1/DTD/svg11-tiny.dtd">
<svg viewBox="-250 -250 500 500" width="500" height="500" xmlns="http://www.w3.org/2000/svg"><path d="M-142.76237956388462,-72.81285371317045L-131.14203497425854,10.64264963096801L-119.92319660798333,-79.3324525672356z" style="fill:rgb(83,212,212)"/><path d="M-131.14203497425854,10.64264963096801L-116.14901856372822,-72.88355756568146L-119.92319660798333,-79.3324525672356z" style="fill:rgb(247,158,158)"/><path d="M-131.14203497425854,10.64264963096801L-142.76237956388462,-72.81285371317045L-156.0329227670805,17.19628551431517z" style="fill:rgb(83,212,212)"/><path d="M-116.14901856372822,-72.88355756568146L-131.14203497425854,10.64264963096801L-126.94645367990483,17.125247700429625z" style="fill:rgb(247,158,158)"/><path d="M-28.309799471792967,-16.43251493120033L23.342178595057483,-103.4843566610313L-26.29053540601484,-89.52056479493363z" style="fill:rgb(83,212,212)"/><path d="M25.1588482837096,-30.51051769955091L26.453599158724217,-96.53578427131502L23.342178595057483,-103.4843566610313z" style="fill:rgb(247,158,158)"/><path d="M-151.70831409016168,23.596978463377003L-131.14203497425854,10.64264963096801L-156.0329227670805,17.19628551431517zM-131.14203497425854,10.64264963096801L-151.70831409016168,23.596978463377003L-126.94645367990483,17.125247700429625z" style="fill:rgb(127,37,217)"/><path d="M-150.90627000193584,169.15185004778382L-25.829939757109734,-106.19199521301057L-119.92319660798333,-79.3324525672356z" style="fill:rgb(83,212,212)"/><path d="M150.15932899057574,-156.42930621580604L167.7771871903969,-59.90336564757979L152.53136748890057,-149.06566942777505z" style="fill:rgb(247,158,158)"/><path d="M124.08061501775354,-148.98496881044053L165.2702256102327,-67.40107551071829L150.15932899057574,-156.42930621580604zM23.342178595057483,-103.4843566610313L-28.309799471792967,-16.43251493120033L25.1588482837096,-30.51051769955091z" style="fill:rgb(83,212,212)"/><path d="M26.453599158724217,-96.53578427131502L25.1588482837096,-30.51051769955091L28.49896382516242,-23.50177749917735zM-25.829939757109734,-106.19199521301057L-28.470257263792483,149.37559099022323L-22.52011776957303,-99.4312646270048z" style="fill:rgb(247,158,158)"/><path d="M-24.668259940011843,-9.60605658073687L25.1588482837096,-30.51051769955091L-28.309799471792967,-16.43251493120033zM25.1588482837096,-30.51051769955091L-24.668259940011843,-9.60605658073687L28.49896382516242,-23.50177749917735z" style="fill:rgb(127,37,217)"/><path d="M165.2702256102327,-67.40107551071829L124.08061501775354,-148.98496881044053L136.48179918448471,-59.8212423344522z" style="fill:rgb(83,212,212)"/><path d="M167.7771871903969,-59.90336564757979L150.15932899057574,-156.42930621580604L165.2702256102327,-67.40107551071829z" style="fill:rgb(247,158,158)"/><path d="M29.125732258312855,128.83531216399078L124.08061501775354,-148.98496881044053L22.92827732431927,-120.11035539356546z" style="fill:rgb(83,212,212)"/><path d="M144.9197337290628,-11.541554547677423L126.59731408604391,-141.71228768748534L139.16506262726597,-52.42533327648368z" style="fill:rgb(0,127,127)"/><path d="M124.08061501775354,-148.98496881044053L161.62866572224155,107.1662323729751L126.59731408604391,-141.71228768748534z" style="fill:rgb(247,158,158)"/><path d="M139.16506262726597,-52.42533327648368L165.2702256102327,-67.40107551071829L136.48179918448471,-59.8212423344522zM165.2702256102327,-67.40107551071829L139.16506262726597,-52.42533327648368L167.7771871903969,-59.90336564757979z" style="fill:rgb(127,37,217)"/><path d="M-162.0586169101731,58.066316244950535L-150.90627000193584,169.15185004778382L-136.24015197757376,51.52955684140919z" style="fill:rgb(83,212,212)"/><path d="M-150.90627000193584,169.15185004778382L-131.84923679568394,57.99547758987123L-136.24015197757376,51.52955684140919z" style="fill:rgb(247,158,158)"/><path d="M-25.829939757109734,-106.19199521301057L-150.90627000193584,169.15185004778382L-32.705785740486284,142.68192107683313z" style="fill:rgb(83,212,212)"/><path d="M-28.470257263792483,149.37559099022323L-25.829939757109734,-106.19199521301057L-32.705785740486284,142.68192107683313z" style="fill:rgb(247,158,158)"/><path d="M-31.996016268357742,116.99152957209292L26.177517237475765,10.408411860036939L-29.44039522515514,24.48983732617334zM-150.90627000193584,169.15185004778382L-162.0586169101731,58.066316244950535L-179.37656960069344,175.52750800903144z" style="fill:rgb(83,212,212)"/><path d="M-131.84923679568394,57.99547758987123L-150.90627000193584,169.15185004778382L-145.94006917644805,175.45846769599333zM28.484133341912813,103.06290500790534L29.6450250320013,17.42072731370238L26.177517237475765,10.408411860036939z" style="fill:rgb(247,158,158)"/><path d="M124.08061501775354,-148.98496881044053L29.125732258312855,128.83531216399078L158.6854489520857,99.82158605828258zM26.177517237475765,10.408411860036939L-31.996016268357742,116.99152957209292L28.484133341912813,103.06290500790534z" style="fill:rgb(83,212,212)"/><path d="M29.6450250320013,17.42072731370238L28.484133341912813,103.06290500790534L32.23786028737955,110.00331959283196zM161.62866572224155,107.1662323729751L124.08061501775354,-148.98496881044053L158.6854489520857,99.82158605828258z" style="fill:rgb(247,158,158)"/><path d="M-174.2420786741336,181.74260894590483L-32.705785740486284,142.68192107683313L-179.37656960069344,175.52750800903144z" style="fill:rgb(127,37,217)"/><path d="M172.2018613822631,-26.56224916921933L195.0745176229152,99.73994659585564L174.76441039912817,-19.039904495056668z" style="fill:rgb(247,158,158)"/><path d="M142.1652578321083,-18.95753612059358L192.37273183076857,92.27762077441571L172.2018613822631,-26.56224916921933z" style="fill:rgb(83,212,212)"/><path d="M-27.856907448264543,123.72819540478552L28.484133341912813,103.06290500790534L-31.996016268357742,116.99152957209292zM-32.705785740486284,142.68192107683313L-174.2420786741336,181.74260894590483L-28.470257263792483,149.37559099022323zM28.484133341912813,103.06290500790534L-27.856907448264543,123.72819540478552L32.23786028737955,110.00331959283196z" style="fill:rgb(127,37,217)"/><path d="M192.37273183076857,92.27762077441571L142.1652578321083,-18.95753612059358L158.6854489520857,99.82158605828258z" style="fill:rgb(83,212,212)"/><path d="M195.0745176229152,99.73994659585564L172.2018613822631,-26.56224916921933L192.37273183076857,92.27762077441571z" style="fill:rgb(247,158,158)"/><path d="M32.958521142212504,135.73600795810563L192.37273183076857,92.27762077441571L29.125732258312855,128.83531216399078zM192.37273183076857,92.27762077441571L32.958521142212504,135.73600795810563L195.0745176229152,99.73994659585564z" style="fill:rgb(127,37,217)"/></svg>
