<?xml version="1.0" encoding="UTF-8"?>
<!-- Generated by jsxcad -->
<!DOCTYPE svg PUBLIC "-//W3C//DTD SVG 1.1 Tiny//EN" "http://www.w3.org/Graphics/SVG/1.1/DTD/svg11-tiny.dtd">
<svg viewBox="-250 -250 500 500" width="500" height="500" xmlns="http://www.w3.org/2000/svg"><path d="M30.353691605062494,122.27439864141965L-91.73340832812846,-97.8634641914415L27.640109283658365,118.79148558598726z" style="fill:rgb(21,57,142)"/><path d="M-25.916487879607818,-130.08853553644693L81.97527676659236,97.40240568469692L81.10128602203754,93.02601594598855z" style="fill:rgb(246,167,149)"/><path d="M33.985004580117405,125.07388254697796L-88.9926044372422,-94.67147295614132L30.353691605062494,122.27439864141965z" style="fill:rgb(34,46,160)"/><path d="M81.97527676659236,97.40240568469692L-26.172166190818558,-121.10081531687787L81.74780792871027,102.0671563033914z" style="fill:rgb(246,149,167)"/><path d="M38.40136770039543,127.07128126374906L-85.08473635287247,-92.27081372013787L33.985004580117405,125.07388254697796z" style="fill:rgb(51,38,177)"/><path d="M81.74780792871027,102.0671563033914L-28.28331251126334,-116.14392984732889L80.41529405219127,106.83854924332144z" style="fill:rgb(242,130,183)"/><path d="M-74.36829660846843,-90.23702140048029L38.40136770039543,127.07128126374906L43.43485033059165,128.17825482399138z" style="fill:rgb(71,33,192)"/><path d="M80.41529405219127,106.83854924332144L-31.643702729007003,-111.13642941572535L78.01980222813809,111.52650831123984z" style="fill:rgb(233,112,197)"/><path d="M-67.97071959449511,-90.70910280930123L43.43485033059165,128.17825482399138L48.88837050818203,128.3419617167212z" style="fill:rgb(92,32,204)"/><path d="M78.01980222813809,111.52650831123984L-36.129349229721115,-106.28245292901232L74.64894949876843,115.94092417878835z" style="fill:rgb(220,94,208)"/><path d="M-61.2127117413936,-92.17458644523882L48.88837050818203,128.3419617167212L54.54374671350442,127.5487851240826z" style="fill:rgb(115,34,214)"/><path d="M74.64894949876843,115.94092417878835L-41.56476702102122,-101.78321961543092L70.43329119777782,119.90048467088681z" style="fill:rgb(203,77,216)"/><path d="M-41.56476702102122,-101.78321961543092L65.54119804990619,123.24150106725115L70.43329119777782,119.90048467088681z" style="fill:rgb(183,62,221)"/><path d="M-54.37134145203009,-94.57933438382702L54.54374671350442,127.5487851240826L60.17142718197015,125.82604941812822z" style="fill:rgb(139,40,220)"/><path d="M-47.730113546268434,-97.82699122852011L60.17142718197015,125.82604941812822L65.54119804990619,123.24150106725115z" style="fill:rgb(162,50,222)"/><path d="M-91.73340832812846,-97.8634641914415L30.353691605062494,122.27439864141965L-88.9926044372422,-94.67147295614132z" style="fill:rgb(21,57,142)"/><path d="M81.97527676659236,97.40240568469692L-25.916487879607818,-130.08853553644693L-25.378945633013963,-125.80971710536132z" style="fill:rgb(246,167,149)"/><path d="M-88.9926044372422,-94.67147295614132L33.985004580117405,125.07388254697796L-85.08473635287247,-92.27081372013787z" style="fill:rgb(34,46,160)"/><path d="M-26.172166190818558,-121.10081531687787L81.97527676659236,97.40240568469692L-25.378945633013963,-125.80971710536132z" style="fill:rgb(246,149,167)"/><path d="M-85.08473635287247,-92.27081372013787L38.40136770039543,127.07128126374906L-80.14823061394428,-90.76851587251606z" style="fill:rgb(51,38,177)"/><path d="M-28.28331251126334,-116.14392984732889L81.74780792871027,102.0671563033914L-26.172166190818558,-121.10081531687787z" style="fill:rgb(242,130,183)"/><path d="M38.40136770039543,127.07128126374906L-74.36829660846843,-90.23702140048029L-80.14823061394428,-90.76851587251606z" style="fill:rgb(71,33,192)"/><path d="M-31.643702729007003,-111.13642941572535L80.41529405219127,106.83854924332144L-28.28331251126334,-116.14392984732889z" style="fill:rgb(233,112,197)"/><path d="M43.43485033059165,128.17825482399138L-67.97071959449511,-90.70910280930123L-74.36829660846843,-90.23702140048029z" style="fill:rgb(92,32,204)"/><path d="M-36.129349229721115,-106.28245292901232L78.01980222813809,111.52650831123984L-31.643702729007003,-111.13642941572535z" style="fill:rgb(220,94,208)"/><path d="M48.88837050818203,128.3419617167212L-61.2127117413936,-92.17458644523882L-67.97071959449511,-90.70910280930123z" style="fill:rgb(115,34,214)"/><path d="M-41.56476702102122,-101.78321961543092L74.64894949876843,115.94092417878835L-36.129349229721115,-106.28245292901232z" style="fill:rgb(203,77,216)"/><path d="M54.54374671350442,127.5487851240826L-54.37134145203009,-94.57933438382702L-61.2127117413936,-92.17458644523882z" style="fill:rgb(139,40,220)"/><path d="M65.54119804990619,123.24150106725115L-41.56476702102122,-101.78321961543092L-47.730113546268434,-97.82699122852011z" style="fill:rgb(183,62,221)"/><path d="M60.17142718197015,125.82604941812822L-47.730113546268434,-97.82699122852011L-54.37134145203009,-94.57933438382702z" style="fill:rgb(162,50,222)"/><path d="M-76.90553182135895,-129.218433983957L-80.14823061394428,-90.76851587251606L-71.0277481565455,-132.9495720126111zM-86.57613272073591,-120.37089070967042L-85.08473635287247,-92.27081372013787L-82.15201900124235,-124.97581944949826zM-82.15201900124235,-124.97581944949826L-80.14823061394428,-90.76851587251606L-76.90553182135895,-129.218433983957zM-90.01170579186781,-115.56695428517588L-88.9926044372422,-94.67147295614132L-86.57613272073591,-120.37089070967042zM-92.32326674630433,-110.73717684395402L-91.73340832812846,-97.8634641914415L-90.01170579186781,-115.56695428517588zM-71.0277481565455,-132.9495720126111L-67.97071959449511,-90.70910280930123L-64.7289145685409,-136.03797586431062zM-93.21888950694971,-101.71161801275981L-92.32326674630433,-110.73717684395402L-93.41157572407354,-106.05961112215532zM-64.7289145685409,-136.03797586431062L-61.2127117413936,-92.17458644523882L-58.232586544751406,-138.37359017202994zM-58.232586544751406,-138.37359017202994L-61.2127117413936,-92.17458644523882L-51.76970679739891,-139.87055476308575zM-92.32326674630433,-110.73717684395402L-93.21888950694971,-101.71161801275981L-91.73340832812846,-97.8634641914415zM-51.76970679739891,-139.87055476308575L-47.730113546268434,-97.82699122852011L-45.57239674489696,-140.46992455534237zM-45.57239674489696,-140.46992455534237L-41.56476702102122,-101.78321961543092L-39.867417297555825,-140.1420878265779zM-90.01170579186781,-115.56695428517588L-91.73340832812846,-97.8634641914415L-88.9926044372422,-94.67147295614132zM-39.867417297555825,-140.1420878265779L-36.129349229721115,-106.28245292901232L-34.86918308585709,-138.8888101242269zM-86.57613272073591,-120.37089070967042L-88.9926044372422,-94.67147295614132L-85.08473635287247,-92.27081372013787zM-34.86918308585709,-138.8888101242269L-31.643702729007003,-111.13642941572535L-30.772352752983622,-136.74462994728654zM-82.15201900124235,-124.97581944949826L-85.08473635287247,-92.27081372013787L-80.14823061394428,-90.76851587251606zM-30.772352752983622,-136.74462994728654L-28.28331251126334,-116.14392984732889L-27.744121724529055,-133.77753604401218zM-71.0277481565455,-132.9495720126111L-80.14823061394428,-90.76851587251606L-74.36829660846843,-90.23702140048029zM-27.744121724529055,-133.77753604401218L-26.172166190818558,-121.10081531687787L-25.916487879607818,-130.08853553644693zM-71.0277481565455,-132.9495720126111L-74.36829660846843,-90.23702140048029L-67.97071959449511,-90.70910280930123zM-84.92211145874727,-112.87616159381857L-48.87824660133152,-146.00075480198126L-82.81391408201256,-135.9197980622402zM-64.7289145685409,-136.03797586431062L-67.97071959449511,-90.70910280930123L-61.2127117413936,-92.17458644523882z" style="fill:rgb(83,212,212)"/><path d="M-50.13346939157251,-123.01363864324335L-42.078524321129585,-132.19596065432546L-48.87824660133152,-146.00075480198126z" style="fill:rgb(247,158,158)"/><path d="M-25.916487879607818,-130.08853553644693L-26.172166190818558,-121.10081531687787L-25.378945633013963,-125.80971710536132zM-27.744121724529055,-133.77753604401218L-28.28331251126334,-116.14392984732889L-26.172166190818558,-121.10081531687787zM-51.76970679739891,-139.87055476308575L-61.2127117413936,-92.17458644523882L-54.37134145203009,-94.57933438382702zM-51.76970679739891,-139.87055476308575L-54.37134145203009,-94.57933438382702L-47.730113546268434,-97.82699122852011zM-30.772352752983622,-136.74462994728654L-31.643702729007003,-111.13642941572535L-28.28331251126334,-116.14392984732889zM-45.57239674489696,-140.46992455534237L-47.730113546268434,-97.82699122852011L-41.56476702102122,-101.78321961543092zM-34.86918308585709,-138.8888101242269L-36.129349229721115,-106.28245292901232L-31.643702729007003,-111.13642941572535zM-39.867417297555825,-140.1420878265779L-41.56476702102122,-101.78321961543092L-36.129349229721115,-106.28245292901232z" style="fill:rgb(83,212,212)"/><path d="M-42.078524321129585,-132.19596065432546L-50.13346939157251,-123.01363864324335L-43.146245669283545,-109.13255500777107z" style="fill:rgb(247,158,158)"/><path d="M-48.87824660133152,-146.00075480198126L-84.92211145874727,-112.87616159381857L-50.13346939157251,-123.01363864324335z" style="fill:rgb(83,212,212)"/><path d="M-50.13346939157251,-123.01363864324335L-77.58388925734022,-99.23428261106655L-43.146245669283545,-109.13255500777107zM-77.58388925734022,-99.23428261106655L-50.13346939157251,-123.01363864324335L-84.92211145874727,-112.87616159381857z" style="fill:rgb(127,37,217)"/></svg>
