<svg viewBox="-250 -250 500 500" width="500" height="500" xmlns="http://www.w3.org/2000/svg"><path d="M-551.9896055821155,156.05121592789823L752.983451428173,146.15437120468133L-562.3574314675527,155.3477456757067z" style="fill:rgb(123,2,153)"/><path d="M-584.1881412134135,-49.00451862558627L716.9823998860275,-279.30767482464825L-574.1799005234498,-51.915585624041796z" style="fill:rgb(99,248,156)"/><path d="M-562.3574314675527,155.3477456757067L755.305046023647,144.5193624497718L-572.6980601425796,153.51392296887062z" style="fill:rgb(117,5,164)"/><path d="M-593.9289864903967,-44.989474620974555L719.8619421289661,-275.0225583189017L-584.1881412134135,-49.00451862558627z" style="fill:rgb(93,243,167)"/><path d="M-572.6980601425796,153.51392296887062L757.4206602329862,140.49691613065073L-582.8937062376732,150.541147501574z" style="fill:rgb(110,10,174)"/><path d="M-603.2844271983726,-39.88764988681569L722.9452638112351,-268.2472003088544L-593.9289864903967,-44.989474620974555z" style="fill:rgb(88,237,177)"/><path d="M-582.8937062376732,150.541147501574L759.2926389674268,134.0065625883719L-592.8224322871108,146.43518769358965z" style="fill:rgb(104,15,184)"/><path d="M-612.1356963351959,-33.73175538914061L726.2026552063392,-258.94006195059256L-603.2844271983726,-39.88764988681569z" style="fill:rgb(83,231,187)"/><path d="M-592.8224322871108,146.43518769358965L760.8836270010821,125.0013184361079L-602.3604223267029,141.21762351584945z" style="fill:rgb(98,22,193)"/><path d="M-620.3653349884962,-26.570234523846587L729.5973793288977,-247.10156288882996L-612.1356963351959,-33.73175538914061z" style="fill:rgb(78,223,196)"/><path d="M-602.3604223267029,141.21762351584945L762.1575038585393,113.47555300228716L-611.3835109025853,134.9263282290218z" style="fill:rgb(93,30,202)"/><path d="M-627.8597975110841,-18.46794929877676L733.0871892101982,-232.78062910109512L-620.3653349884962,-26.570234523846587z" style="fill:rgb(74,214,204)"/><path d="M-611.3835109025853,134.9263282290218L763.0804270715471,99.46977473680585L-619.7697769362242,127.61660730277094z" style="fill:rgb(87,38,210)"/><path d="M-634.5113216800291,-9.506109162760985L736.6245996570588,-216.0804747723905L-627.8597975110841,-18.46794929877676z" style="fill:rgb(71,204,212)"/><path d="M-619.7697769362242,127.61660730277094L763.6230801476427,83.07831584443001L-627.4023480003207,119.36045473294114z" style="fill:rgb(82,48,217)"/><path d="M-640.2208669199799,0.21827969298191688L740.1572689273058,-197.1617002863432L-634.5113216800291,-9.506109162760985z" style="fill:rgb(68,193,219)"/><path d="M-627.4023480003207,119.36045473294114L763.7614351254285,64.45103532783529L-634.1716148472547,110.24721638928328z" style="fill:rgb(78,59,223)"/><path d="M-634.1716148472547,110.24721638928328L763.4786919313517,43.79752081032772L-639.9781048879165,100.38162483980192z" style="fill:rgb(74,70,228)"/><path d="M-644.9004164680596,10.593561037346491L743.6294395357711,-176.24425572528156L-640.2208669199799,0.21827969298191688z" style="fill:rgb(66,182,224)"/><path d="M-639.9781048879165,100.38162483980192L762.765721854138,21.38385635451455L-644.7352257267559,89.88294134480685z" style="fill:rgb(70,82,232)"/><path d="M-648.4758298736382,21.49472281647924L746.9836877768118,-153.60434406540443L-644.9004164680596,10.593561037346491z" style="fill:rgb(64,170,229)"/><path d="M-644.7352257267559,89.88294134480685L761.6229702066861,-2.470323934080615L-648.371121594932,78.88270845706128z" style="fill:rgb(68,94,235)"/><path d="M-650.8883903812128,32.78548223842623L750.1613763728097,-129.5713966336716L-648.4758298736382,21.49472281647924z" style="fill:rgb(63,158,233)"/><path d="M-648.371121594932,78.88270845706128L760.0608089903665,-27.39937006643627L-650.8309992541582,67.52275739052989z" style="fill:rgb(65,106,237)"/><path d="M-652.0966913709442,44.32125363873489L753.1070273607038,-104.51836604527493L-650.8883903812128,32.78548223842623z" style="fill:rgb(62,145,235)"/><path d="M-650.8309992541582,67.52275739052989L758.09930394128,-53.001738236653765L-652.0785308531946,55.95136781491519z" style="fill:rgb(64,119,237)"/><path d="M-652.0785308531946,55.95136781491519L755.768193214809,-78.8526074454786L-652.0966913709442,44.32125363873489z" style="fill:rgb(63,132,237)"/><path d="M-562.3574314675527,155.3477456757067L752.983451428173,146.15437120468133L755.305046023647,144.5193624497718z" style="fill:rgb(123,2,153)"/><path d="M-574.1799005234498,-51.915585624041796L716.9823998860275,-279.30767482464825L714.3305068511415,-281.17976187050664z" style="fill:rgb(99,248,156)"/><path d="M-572.6980601425796,153.51392296887062L755.305046023647,144.5193624497718L757.4206602329862,140.49691613065073z" style="fill:rgb(117,5,164)"/><path d="M-584.1881412134135,-49.00451862558627L719.8619421289661,-275.0225583189017L716.9823998860275,-279.30767482464825z" style="fill:rgb(93,243,167)"/><path d="M-582.8937062376732,150.541147501574L757.4206602329862,140.49691613065073L759.2926389674268,134.0065625883719z" style="fill:rgb(110,10,174)"/><path d="M-593.9289864903967,-44.989474620974555L722.9452638112351,-268.2472003088544L719.8619421289661,-275.0225583189017z" style="fill:rgb(88,237,177)"/><path d="M-592.8224322871108,146.43518769358965L759.2926389674268,134.0065625883719L760.8836270010821,125.0013184361079z" style="fill:rgb(104,15,184)"/><path d="M-603.2844271983726,-39.88764988681569L726.2026552063392,-258.94006195059256L722.9452638112351,-268.2472003088544z" style="fill:rgb(83,231,187)"/><path d="M-602.3604223267029,141.21762351584945L760.8836270010821,125.0013184361079L762.1575038585393,113.47555300228716z" style="fill:rgb(98,22,193)"/><path d="M-612.1356963351959,-33.73175538914061L729.5973793288977,-247.10156288882996L726.2026552063392,-258.94006195059256z" style="fill:rgb(78,223,196)"/><path d="M-611.3835109025853,134.9263282290218L762.1575038585393,113.47555300228716L763.0804270715471,99.46977473680585z" style="fill:rgb(93,30,202)"/><path d="M-620.3653349884962,-26.570234523846587L733.0871892101982,-232.78062910109512L729.5973793288977,-247.10156288882996z" style="fill:rgb(74,214,204)"/><path d="M-619.7697769362242,127.61660730277094L763.0804270715471,99.46977473680585L763.6230801476427,83.07831584443001z" style="fill:rgb(87,38,210)"/><path d="M-627.8597975110841,-18.46794929877676L736.6245996570588,-216.0804747723905L733.0871892101982,-232.78062910109512z" style="fill:rgb(71,204,212)"/><path d="M-627.4023480003207,119.36045473294114L763.6230801476427,83.07831584443001L763.7614351254285,64.45103532783529z" style="fill:rgb(82,48,217)"/><path d="M-634.5113216800291,-9.506109162760985L740.1572689273058,-197.1617002863432L736.6245996570588,-216.0804747723905z" style="fill:rgb(68,193,219)"/><path d="M-634.1716148472547,110.24721638928328L763.7614351254285,64.45103532783529L763.4786919313517,43.79752081032772z" style="fill:rgb(78,59,223)"/><path d="M-640.2208669199799,0.21827969298191688L743.6294395357711,-176.24425572528156L740.1572689273058,-197.1617002863432z" style="fill:rgb(66,182,224)"/><path d="M-639.9781048879165,100.38162483980192L763.4786919313517,43.79752081032772L762.765721854138,21.38385635451455z" style="fill:rgb(74,70,228)"/><path d="M-644.9004164680596,10.593561037346491L746.9836877768118,-153.60434406540443L743.6294395357711,-176.24425572528156z" style="fill:rgb(64,170,229)"/><path d="M-644.7352257267559,89.88294134480685L762.765721854138,21.38385635451455L761.6229702066861,-2.470323934080615z" style="fill:rgb(70,82,232)"/><path d="M-648.4758298736382,21.49472281647924L750.1613763728097,-129.5713966336716L746.9836877768118,-153.60434406540443z" style="fill:rgb(63,158,233)"/><path d="M-648.371121594932,78.88270845706128L761.6229702066861,-2.470323934080615L760.0608089903665,-27.39937006643627z" style="fill:rgb(68,94,235)"/><path d="M-650.8883903812128,32.78548223842623L753.1070273607038,-104.51836604527493L750.1613763728097,-129.5713966336716z" style="fill:rgb(62,145,235)"/><path d="M-650.8309992541582,67.52275739052989L760.0608089903665,-27.39937006643627L758.09930394128,-53.001738236653765z" style="fill:rgb(65,106,237)"/><path d="M-652.0966913709442,44.32125363873489L755.768193214809,-78.8526074454786L753.1070273607038,-104.51836604527493z" style="fill:rgb(63,132,237)"/><path d="M-652.0785308531946,55.95136781491519L758.09930394128,-53.001738236653765L755.768193214809,-78.8526074454786z" style="fill:rgb(64,119,237)"/></svg>