<?xml version="1.0" encoding="UTF-8"?>
<!-- Generated by jsxcad -->
<!DOCTYPE svg PUBLIC "-//W3C//DTD SVG 1.1 Tiny//EN" "http://www.w3.org/Graphics/SVG/1.1/DTD/svg11-tiny.dtd">
<svg viewBox="-250 -250 500 500" width="500" height="500" xmlns="http://www.w3.org/2000/svg"><path d="M-124.38197628173067,-86.9511273106408L-122.11782283639833,24.58598541509538L-111.80034167974893,-65.45301801038335z" style="fill:rgb(247,158,158)"/><path d="M-124.38197628173067,-86.9511273106408L-147.34938869925557,-80.3428649589053L-161.1475419348058,9.626323800384602zM-136.1044794318256,2.9751506436292456L-29.74131786083362,-114.18148582835886L-124.38197628173067,-86.9511273106408zM19.663824625768985,-111.69903141394519L121.10508977805236,-157.583578756601L19.312690906381263,-128.29549660212453zM-29.74131786083362,-114.18148582835886L-136.1044794318256,2.9751506436292456L-30.275418600833007,-97.53539148713196z" style="fill:rgb(83,212,212)"/><path d="M-122.11782283639833,24.58598541509538L-124.38197628173067,-86.9511273106408L-136.1044794318256,2.9751506436292456z" style="fill:rgb(247,158,158)"/><path d="M-32.61849763838769,-24.509636777358434L19.312690906381263,-128.29549660212453L-29.74131786083362,-114.18148582835886z" style="fill:rgb(83,212,212)"/><path d="M21.206056863525834,-38.804870493655L30.036195474635917,-88.53496907248014L19.663824625768985,-111.69903141394519z" style="fill:rgb(247,158,158)"/><path d="M-136.1044794318256,2.9751506436292456L-146.73076643194267,30.964085955629184L-122.11782283639833,24.58598541509538zM-146.73076643194267,30.964085955629184L-136.1044794318256,2.9751506436292456L-161.1475419348058,9.626323800384602z" style="fill:rgb(127,37,217)"/><path d="M121.10508977805236,-157.583578756601L19.663824625768985,-111.69903141394519L21.206056863525834,-38.804870493655z" style="fill:rgb(83,212,212)"/><path d="M30.036195474635917,-88.53496907248014L21.206056863525834,-38.804870493655L32.340983114683816,-15.439863508196952zM162.30197249346253,-76.27845586517088L155.26214863947152,-140.5883555395126L147.3546123764426,-165.13618213854585z" style="fill:rgb(247,158,158)"/><path d="M19.312690906381263,-128.29549660212453L-32.61849763838769,-24.509636777358434L21.206056863525834,-38.804870493655zM162.30197249346253,-76.27845586517088L147.3546123764426,-165.13618213854585L121.10508977805236,-157.583578756601z" style="fill:rgb(83,212,212)"/><path d="M-37.72827183324796,134.74456756748236L-18.70760699628111,-91.64371449332116L-29.74131786083362,-114.18148582835886z" style="fill:rgb(247,158,158)"/><path d="M21.206056863525834,-38.804870493655L-20.478749793560436,-1.752365056590883L32.340983114683816,-15.439863508196952zM-20.478749793560436,-1.752365056590883L21.206056863525834,-38.804870493655L-32.61849763838769,-24.509636777358434z" style="fill:rgb(127,37,217)"/><path d="M155.26214863947152,-140.5883555395126L162.30197249346253,-76.27845586517088L170.65946072482365,-51.283166701230414z" style="fill:rgb(247,158,158)"/><path d="M121.10508977805236,-157.583578756601L21.206056863525834,-38.804870493655L22.071593547121964,2.105029022433983z" style="fill:rgb(83,212,212)"/><path d="M121.10508977805236,-157.583578756601L165.00490029806582,115.59147956769212L129.49486489811693,-133.33899626285776z" style="fill:rgb(247,158,158)"/><path d="M-136.1044794318256,2.9751506436292456L-37.72827183324796,134.74456756748236L-30.275418600833007,-97.53539148713196z" style="fill:rgb(83,212,212)"/><path d="M29.51042856038422,-105.20938300756697L33.631310248223315,25.48216553331905L37.35749487192326,143.65609009072222z" style="fill:rgb(0,127,127)"/><path d="M162.30197249346253,-76.27845586517088L142.2503296946685,-43.92133991591287L170.65946072482365,-51.283166701230414z" style="fill:rgb(127,37,217)"/><path d="M-141.43640529240866,43.87770105018685L-140.23617149149013,182.70191560644332L-126.79845434409206,65.43310701983627z" style="fill:rgb(247,158,158)"/><path d="M142.2503296946685,-43.92133991591287L162.30197249346253,-76.27845586517088L133.30511407948634,-68.57719683959066z" style="fill:rgb(127,37,217)"/><path d="M-185.4614204654202,168.16201980422255L-141.43640529240866,43.87770105018685L-167.41853206093973,50.515555109468714zM121.10508977805236,-157.583578756601L22.071593547121964,2.105029022433983L24.03347200382883,94.83390654587711z" style="fill:rgb(83,212,212)"/><path d="M-18.70760699628111,-91.64371449332116L-37.72827183324796,134.74456756748236L-23.607852499059398,157.0599663205795z" style="fill:rgb(247,158,158)"/><path d="M121.10508977805236,-157.583578756601L24.03347200382883,94.83390654587711L138.90227252576955,-27.742621790767494z" style="fill:rgb(83,212,212)"/><path d="M133.30511407948634,-68.57719683959066L155.19268574956575,91.10555613968445L121.10508977805236,-157.583578756601z" style="fill:rgb(0,127,127)"/><path d="M-36.90243406625004,109.00602734375738L22.071593547121964,2.105029022433983L-33.93151361983382,16.412582679375966z" style="fill:rgb(83,212,212)"/><path d="M-140.23617149149013,182.70191560644332L-141.43640529240866,43.87770105018685L-156.79234998341343,161.67703936919312zM24.03347200382883,94.83390654587711L33.631310248223315,25.48216553331905L22.071593547121964,2.105029022433983z" style="fill:rgb(247,158,158)"/><path d="M-141.43640529240866,43.87770105018685L-185.4614204654202,168.16201980422255L-156.79234998341343,161.67703936919312zM-136.1044794318256,2.9751506436292456L-156.79234998341343,161.67703936919312L-37.72827183324796,134.74456756748236zM36.54763507557716,117.97182372169942L-21.284805377472374,39.157623737763004L37.35749487192326,143.65609009072222z" style="fill:rgb(83,212,212)"/><path d="M33.631310248223315,25.48216553331905L24.03347200382883,94.83390654587711L36.54763507557716,117.97182372169942z" style="fill:rgb(247,158,158)"/><path d="M155.19268574956575,91.10555613968445L133.30511407948634,-68.57719683959066L138.90227252576955,-27.742621790767494z" style="fill:rgb(0,127,127)"/><path d="M165.00490029806582,115.59147956769212L121.10508977805236,-157.583578756601L155.19268574956575,91.10555613968445z" style="fill:rgb(247,158,158)"/><path d="M-168.3442324388163,188.88175869941617L-37.72827183324796,134.74456756748236L-185.4614204654202,168.16201980422255z" style="fill:rgb(127,37,217)"/><path d="M22.071593547121964,2.105029022433983L-36.90243406625004,109.00602734375738L24.579675573413933,120.65040620858007z" style="fill:rgb(83,212,212)"/><path d="M-37.72827183324796,134.74456756748236L-168.3442324388163,188.88175869941617L-23.607852499059398,157.0599663205795zM24.03347200382883,94.83390654587711L-23.103543369698706,131.46460256463453L36.54763507557716,117.97182372169942z" style="fill:rgb(127,37,217)"/><path d="M189.1660530761627,83.42072977184627L177.70879648488963,-10.396661601609583L169.16591399205723,-35.47431066386722z" style="fill:rgb(247,158,158)"/><path d="M-23.103543369698706,131.46460256463453L24.03347200382883,94.83390654587711L-36.90243406625004,109.00602734375738z" style="fill:rgb(127,37,217)"/><path d="M24.03347200382883,94.83390654587711L155.19268574956575,91.10555613968445L138.90227252576955,-27.742621790767494z" style="fill:rgb(83,212,212)"/><path d="M177.70879648488963,-10.396661601609583L189.1660530761627,83.42072977184627L198.17339427568496,108.29904721574209z" style="fill:rgb(247,158,158)"/><path d="M189.1660530761627,83.42072977184627L169.16591399205723,-35.47431066386722L155.19268574956575,91.10555613968445zM155.19268574956575,91.10555613968445L24.03347200382883,94.83390654587711L24.579675573413933,120.65040620858007z" style="fill:rgb(83,212,212)"/><path d="M37.35749487192326,143.65609009072222L189.1660530761627,83.42072977184627L24.579675573413933,120.65040620858007zM189.1660530761627,83.42072977184627L37.35749487192326,143.65609009072222L198.17339427568496,108.29904721574209z" style="fill:rgb(127,37,217)"/></svg>
