<?xml version="1.0" encoding="UTF-8"?>
<!-- Generated by jsxcad -->
<!DOCTYPE svg PUBLIC "-//W3C//DTD SVG 1.1 Tiny//EN" "http://www.w3.org/Graphics/SVG/1.1/DTD/svg11-tiny.dtd">
<svg viewBox="-250 -250 500 500" width="500" height="500" xmlns="http://www.w3.org/2000/svg"><path d="M-141.46309211750707,-70.67994850800989L-129.73762024434933,12.812612641596616L-118.66029435932558,-77.1745421002379z" style="fill:rgb(83,212,212)"/><path d="M-118.66029435932558,-77.1745421002379L-128.33910551331223,14.97345955635797L-117.40224372888308,-75.02493105737888z" style="fill:rgb(247,158,158)"/><path d="M23.952029394683024,-117.7927460685934L24.383533056980337,-101.15875425846595L124.92294482327121,-146.55082276620772zM-129.73762024434933,12.812612641596616L-141.46309211750707,-70.67994850800989L-154.58535614350095,19.338774868099947z" style="fill:rgb(83,212,212)"/><path d="M-128.33910551331223,14.97345955635797L-118.66029435932558,-77.1745421002379L-129.73762024434933,12.812612641596616z" style="fill:rgb(247,158,158)"/><path d="M-25.162276810055037,-87.25128298082119L26.277095449248392,-28.16404388008819L24.383533056980337,-101.15875425846595z" style="fill:rgb(83,212,212)"/><path d="M26.277095449248392,-28.16404388008819L25.42066415829813,-98.84258844255515L24.383533056980337,-101.15875425846595z" style="fill:rgb(247,158,158)"/><path d="M-153.14383230262638,21.472320524646996L-129.73762024434933,12.812612641596616L-154.58535614350095,19.338774868099947zM-129.73762024434933,12.812612641596616L-153.14383230262638,21.472320524646996L-128.33910551331223,14.97345955635797z" style="fill:rgb(127,37,217)"/><path d="M26.277095449248392,-28.16404388008819L-25.162276810055037,-87.25128298082119L-27.090709607779935,-14.147198238218284zM124.92294482327121,-146.55082276620772L166.10966320101178,-64.89052568288263L150.95326152882234,-153.9646713488193z" style="fill:rgb(83,212,212)"/><path d="M166.10966320101178,-64.89052568288263L151.74393514234316,-151.51014181261726L150.95326152882234,-153.9646713488193z" style="fill:rgb(247,158,158)"/><path d="M-118.66029435932558,-77.1745421002379L-31.28689962164699,144.924273950388L-24.72231680457375,-103.92953647245811z" style="fill:rgb(83,212,212)"/><path d="M25.42066415829813,-98.84258844255515L26.277095449248392,-28.16404388008819L27.390455923240967,-25.827819482639278z" style="fill:rgb(247,158,158)"/><path d="M124.92294482327121,-146.55082276620772L24.383533056980337,-101.15875425846595L143.08771695124415,-16.473963896620315z" style="fill:rgb(83,212,212)"/><path d="M-31.28689962164699,144.924273950388L-23.619051896923533,-101.67597134002571L-24.72231680457375,-103.92953647245811z" style="fill:rgb(247,158,158)"/><path d="M-25.876875114917517,-11.871733310699033L26.277095449248392,-28.16404388008819L-27.090709607779935,-14.147198238218284z" style="fill:rgb(127,37,217)"/><path d="M-129.73762024434933,12.812612641596616L-31.28689962164699,144.924273950388L-118.66029435932558,-77.1745421002379z" style="fill:rgb(83,212,212)"/><path d="M26.277095449248392,-28.16404388008819L-25.876875114917517,-11.871733310699033L27.390455923240967,-25.827819482639278z" style="fill:rgb(127,37,217)"/><path d="M166.10966320101178,-64.89052568288263L124.92294482327121,-146.55082276620772L137.38024253412428,-57.34485287461468z" style="fill:rgb(83,212,212)"/><path d="M151.74393514234316,-151.51014181261726L166.10966320101178,-64.89052568288263L166.94530851432214,-62.39131311577215zM159.67164788494566,102.2826003014269L125.7618381664705,-144.12661129968802L124.92294482327121,-146.55082276620772z" style="fill:rgb(247,158,158)"/><path d="M138.27465465810843,-54.87957472716798L166.10966320101178,-64.89052568288263L137.38024253412428,-57.34485287461468zM166.10966320101178,-64.89052568288263L138.27465465810843,-54.87957472716798L166.94530851432214,-62.39131311577215z" style="fill:rgb(127,37,217)"/><path d="M-160.5421805346723,60.20258749730851L-149.24285247248307,171.26422312160472L-134.77011282846925,53.694289304119906z" style="fill:rgb(83,212,212)"/><path d="M-134.77011282846925,53.694289304119906L-147.58747247839025,173.3664119253297L-133.30648839979898,55.84957565543177z" style="fill:rgb(247,158,158)"/><path d="M26.277095449248392,-28.16404388008819L159.67164788494566,102.2826003014269L24.383533056980337,-101.15875425846595z" style="fill:rgb(83,212,212)"/><path d="M-23.619051896923533,-101.67597134002571L-31.28689962164699,144.924273950388L-29.875074955592055,147.15547524507645z" style="fill:rgb(247,158,158)"/><path d="M143.08771695124415,-16.473963896620315L24.383533056980337,-101.15875425846595L159.67164788494566,102.2826003014269zM-149.24285247248307,171.26422312160472L-160.5421805346723,60.20258749730851L-177.6568440509385,177.60917387310604zM-28.170188955171877,26.774297796087822L29.74157677833138,105.38784212484508L27.338618835990722,12.756496004860105zM-31.28689962164699,144.924273950388L-129.73762024434933,12.812612641596616L-149.24285247248307,171.26422312160472z" style="fill:rgb(83,212,212)"/><path d="M-147.58747247839025,173.3664119253297L-134.77011282846925,53.694289304119906L-149.24285247248307,171.26422312160472zM29.74157677833138,105.38784212484508L28.4944420490552,15.093910302127833L27.338618835990722,12.756496004860105z" style="fill:rgb(247,158,158)"/><path d="M27.338618835990722,12.756496004860105L159.67164788494566,102.2826003014269L26.277095449248392,-28.16404388008819zM29.74157677833138,105.38784212484508L-28.170188955171877,26.774297796087822L-30.609579198349305,119.24804911546698zM27.90220547198085,34.482131948252146L159.67164788494566,102.2826003014269L27.338618835990722,12.756496004860105z" style="fill:rgb(83,212,212)"/><path d="M28.4944420490552,15.093910302127833L29.74157677833138,105.38784212484508L30.99280313964174,107.7012794232882zM125.7618381664705,-144.12661129968802L159.67164788494566,102.2826003014269L160.6527057036688,104.73077474075794z" style="fill:rgb(247,158,158)"/><path d="M-175.94536788943523,179.68085775287565L-31.28689962164699,144.924273950388L-177.6568440509385,177.60917387310604z" style="fill:rgb(127,37,217)"/><path d="M143.08771695124415,-16.473963896620315L193.2780744164266,94.77817240136221L173.06007436490515,-24.04297257672335z" style="fill:rgb(83,212,212)"/><path d="M193.2780744164266,94.77817240136221L173.91424762903245,-21.535552145448744L173.06007436490515,-24.04297257672335z" style="fill:rgb(247,158,158)"/><path d="M-29.229893648798853,121.49357197521282L29.74157677833138,105.38784212484508L-30.609579198349305,119.24804911546698zM-31.28689962164699,144.924273950388L-175.94536788943523,179.68085775287565L-29.875074955592055,147.15547524507645zM29.74157677833138,105.38784212484508L-29.229893648798853,121.49357197521282L30.99280313964174,107.7012794232882z" style="fill:rgb(127,37,217)"/><path d="M159.67164788494566,102.2826003014269L27.90220547198085,34.482131948252146L30.409802696110063,131.14719423514873zM193.2780744164266,94.77817240136221L143.08771695124415,-16.473963896620315L159.67164788494566,102.2826003014269z" style="fill:rgb(83,212,212)"/><path d="M173.91424762903245,-21.535552145448744L193.2780744164266,94.77817240136221L194.17865591796203,97.26557229927404z" style="fill:rgb(247,158,158)"/><path d="M31.68738159361523,133.44740259271322L193.2780744164266,94.77817240136221L30.409802696110063,131.14719423514873zM193.2780744164266,94.77817240136221L31.68738159361523,133.44740259271322L194.17865591796203,97.26557229927404z" style="fill:rgb(127,37,217)"/></svg>
