solid JSxCAD
facet normal 0.8660249555150848 -0.5000007764244921 0
outer loop
vertex 2.81907 -1.02606 -5
vertex 2.81907 -1.02606 5
vertex 2.29812 -1.92837 -5
endloop
endfacet
facet normal 0.8660249555150848 -0.5000007764244921 0
outer loop
vertex 2.29812 -1.92837 -5
vertex 2.81907 -1.02606 5
vertex 2.29812 -1.92837 5
endloop
endfacet
facet normal 0.6427976365302772 -0.76603602948627 0
outer loop
vertex 2.29812 -1.92837 -5
vertex 2.29812 -1.92837 5
vertex 1.5 -2.59809 -5
endloop
endfacet
facet normal 0.6427976365302772 -0.76603602948627 0
outer loop
vertex 1.5 -2.59809 -5
vertex 2.29812 -1.92837 5
vertex 1.5 -2.59809 5
endloop
endfacet
facet normal 0.3420158566530247 -0.9396941809960822 0
outer loop
vertex 1.5 -2.59809 -5
vertex 1.5 -2.59809 5
vertex 0.52095 -2.95443 -5
endloop
endfacet
facet normal 0.3420158566530247 -0.9396941809960822 0
outer loop
vertex 0.52095 -2.95443 -5
vertex 1.5 -2.59809 5
vertex 0.52095 -2.95443 5
endloop
endfacet
facet normal 0 -1 0
outer loop
vertex 0.52095 -2.95443 -5
vertex 0.52095 -2.95443 5
vertex -0.52095 -2.95443 -5
endloop
endfacet
facet normal 0 -1 0
outer loop
vertex -0.52095 -2.95443 -5
vertex 0.52095 -2.95443 5
vertex -0.52095 -2.95443 5
endloop
endfacet
facet normal -0.3420158566530247 -0.9396941809960822 0
outer loop
vertex -0.52095 -2.95443 -5
vertex -0.52095 -2.95443 5
vertex -1.5 -2.59809 -5
endloop
endfacet
facet normal -0.3420158566530247 -0.9396941809960822 0
outer loop
vertex -1.5 -2.59809 -5
vertex -0.52095 -2.95443 5
vertex -1.5 -2.59809 5
endloop
endfacet
facet normal -0.6427976365302772 -0.76603602948627 0
outer loop
vertex -1.5 -2.59809 -5
vertex -1.5 -2.59809 5
vertex -2.29812 -1.92837 -5
endloop
endfacet
facet normal -0.6427976365302772 -0.76603602948627 0
outer loop
vertex -2.29812 -1.92837 -5
vertex -1.5 -2.59809 5
vertex -2.29812 -1.92837 5
endloop
endfacet
facet normal -0.8660249555150848 -0.5000007764244921 0
outer loop
vertex -2.29812 -1.92837 -5
vertex -2.29812 -1.92837 5
vertex -2.81907 -1.02606 -5
endloop
endfacet
facet normal -0.8660249555150848 -0.5000007764244921 0
outer loop
vertex -2.81907 -1.02606 -5
vertex -2.29812 -1.92837 5
vertex -2.81907 -1.02606 5
endloop
endfacet
facet normal -0.9848064500564027 -0.17365556693439463 0
outer loop
vertex -2.81907 -1.02606 -5
vertex -2.81907 -1.02606 5
vertex -3 0 -5
endloop
endfacet
facet normal -0.9848064500564027 -0.17365556693439463 0
outer loop
vertex -3 0 -5
vertex -2.81907 -1.02606 5
vertex -3 0 5
endloop
endfacet
facet normal -0.9848064500564027 0.17365556693439463 0
outer loop
vertex -3 0 -5
vertex -3 0 5
vertex -2.81907 1.02606 -5
endloop
endfacet
facet normal -0.9848064500564027 0.17365556693439463 0
outer loop
vertex -2.81907 1.02606 -5
vertex -3 0 5
vertex -2.81907 1.02606 5
endloop
endfacet
facet normal -0.8660249555150848 0.5000007764244921 0
outer loop
vertex -2.81907 1.02606 -5
vertex -2.81907 1.02606 5
vertex -2.29812 1.92837 -5
endloop
endfacet
facet normal -0.8660249555150848 0.5000007764244921 0
outer loop
vertex -2.29812 1.92837 -5
vertex -2.81907 1.02606 5
vertex -2.29812 1.92837 5
endloop
endfacet
facet normal -0.6427976365302772 0.76603602948627 0
outer loop
vertex -2.29812 1.92837 -5
vertex -2.29812 1.92837 5
vertex -1.5 2.59809 -5
endloop
endfacet
facet normal -0.6427976365302772 0.76603602948627 0
outer loop
vertex -1.5 2.59809 -5
vertex -2.29812 1.92837 5
vertex -1.5 2.59809 5
endloop
endfacet
facet normal -0.3420158566530247 0.9396941809960822 0
outer loop
vertex -1.5 2.59809 -5
vertex -1.5 2.59809 5
vertex -0.52095 2.95443 -5
endloop
endfacet
facet normal -0.3420158566530247 0.9396941809960822 0
outer loop
vertex -0.52095 2.95443 -5
vertex -1.5 2.59809 5
vertex -0.52095 2.95443 5
endloop
endfacet
facet normal 0 1 0
outer loop
vertex -0.52095 2.95443 -5
vertex -0.52095 2.95443 5
vertex 0.52095 2.95443 -5
endloop
endfacet
facet normal 0 1 0
outer loop
vertex 0.52095 2.95443 -5
vertex -0.52095 2.95443 5
vertex 0.52095 2.95443 5
endloop
endfacet
facet normal 0.3420158566530247 0.9396941809960822 0
outer loop
vertex 0.52095 2.95443 -5
vertex 0.52095 2.95443 5
vertex 1.5 2.59809 -5
endloop
endfacet
facet normal 0.3420158566530247 0.9396941809960822 0
outer loop
vertex 1.5 2.59809 -5
vertex 0.52095 2.95443 5
vertex 1.5 2.59809 5
endloop
endfacet
facet normal 0.6427976365302772 0.76603602948627 0
outer loop
vertex 1.5 2.59809 -5
vertex 1.5 2.59809 5
vertex 2.29812 1.92837 -5
endloop
endfacet
facet normal 0.6427976365302772 0.76603602948627 0
outer loop
vertex 2.29812 1.92837 -5
vertex 1.5 2.59809 5
vertex 2.29812 1.92837 5
endloop
endfacet
facet normal 0.8660249555150848 0.5000007764244921 0
outer loop
vertex 2.29812 1.92837 -5
vertex 2.29812 1.92837 5
vertex 2.81907 1.02606 -5
endloop
endfacet
facet normal 0.8660249555150848 0.5000007764244921 0
outer loop
vertex 2.81907 1.02606 -5
vertex 2.29812 1.92837 5
vertex 2.81907 1.02606 5
endloop
endfacet
facet normal 0.9848064500564027 0.17365556693439463 0
outer loop
vertex 2.81907 1.02606 -5
vertex 2.81907 1.02606 5
vertex 3 0 -5
endloop
endfacet
facet normal 0.9848064500564027 0.17365556693439463 0
outer loop
vertex 3 0 -5
vertex 2.81907 1.02606 5
vertex 3 0 5
endloop
endfacet
facet normal 0.9848064500564027 -0.17365556693439463 0
outer loop
vertex 3 0 -5
vertex 3 0 5
vertex 2.81907 -1.02606 -5
endloop
endfacet
facet normal 0.9848064500564027 -0.17365556693439463 0
outer loop
vertex 2.81907 -1.02606 -5
vertex 3 0 5
vertex 2.81907 -1.02606 5
endloop
endfacet
facet normal 0 0 1
outer loop
vertex 3 0 5
vertex 2.81907 1.02606 5
vertex 2.29812 1.92837 5
endloop
endfacet
facet normal 0 0 1
outer loop
vertex 3 0 5
vertex 2.29812 1.92837 5
vertex 1.5 2.59809 5
endloop
endfacet
facet normal 0 0 1
outer loop
vertex 3 0 5
vertex 1.5 2.59809 5
vertex 0.52095 2.95443 5
endloop
endfacet
facet normal 0 0 1
outer loop
vertex 3 0 5
vertex 0.52095 2.95443 5
vertex -0.52095 2.95443 5
endloop
endfacet
facet normal 0 0 1
outer loop
vertex 3 0 5
vertex -0.52095 2.95443 5
vertex -1.5 2.59809 5
endloop
endfacet
facet normal 0 0 1
outer loop
vertex 3 0 5
vertex -1.5 2.59809 5
vertex -2.29812 1.92837 5
endloop
endfacet
facet normal 0 0 1
outer loop
vertex 3 0 5
vertex -2.29812 1.92837 5
vertex -2.81907 1.02606 5
endloop
endfacet
facet normal 0 0 1
outer loop
vertex 3 0 5
vertex -2.81907 1.02606 5
vertex -3 0 5
endloop
endfacet
facet normal 0 0 1
outer loop
vertex 3 0 5
vertex -3 0 5
vertex -2.81907 -1.02606 5
endloop
endfacet
facet normal 0 0 1
outer loop
vertex 3 0 5
vertex -2.81907 -1.02606 5
vertex -2.29812 -1.92837 5
endloop
endfacet
facet normal 0 0 1
outer loop
vertex 3 0 5
vertex -2.29812 -1.92837 5
vertex -1.5 -2.59809 5
endloop
endfacet
facet normal 0 0 1
outer loop
vertex 3 0 5
vertex -1.5 -2.59809 5
vertex -0.52095 -2.95443 5
endloop
endfacet
facet normal 0 0 1
outer loop
vertex 3 0 5
vertex -0.52095 -2.95443 5
vertex 0.52095 -2.95443 5
endloop
endfacet
facet normal 0 0 1
outer loop
vertex 3 0 5
vertex 0.52095 -2.95443 5
vertex 1.5 -2.59809 5
endloop
endfacet
facet normal 0 0 1
outer loop
vertex 3 0 5
vertex 1.5 -2.59809 5
vertex 2.29812 -1.92837 5
endloop
endfacet
facet normal 0 0 1
outer loop
vertex 3 0 5
vertex 2.29812 -1.92837 5
vertex 2.81907 -1.02606 5
endloop
endfacet
facet normal 0 0 -1
outer loop
vertex 2.81907 -1.02606 -5
vertex 2.29812 -1.92837 -5
vertex 1.5 -2.59809 -5
endloop
endfacet
facet normal 0 0 -1
outer loop
vertex 2.81907 -1.02606 -5
vertex 1.5 -2.59809 -5
vertex 0.52095 -2.95443 -5
endloop
endfacet
facet normal 0 0 -1
outer loop
vertex 2.81907 -1.02606 -5
vertex 0.52095 -2.95443 -5
vertex -0.52095 -2.95443 -5
endloop
endfacet
facet normal 0 0 -1
outer loop
vertex 2.81907 -1.02606 -5
vertex -0.52095 -2.95443 -5
vertex -1.5 -2.59809 -5
endloop
endfacet
facet normal 0 0 -1
outer loop
vertex 2.81907 -1.02606 -5
vertex -1.5 -2.59809 -5
vertex -2.29812 -1.92837 -5
endloop
endfacet
facet normal 0 0 -1
outer loop
vertex 2.81907 -1.02606 -5
vertex -2.29812 -1.92837 -5
vertex -2.81907 -1.02606 -5
endloop
endfacet
facet normal 0 0 -1
outer loop
vertex 2.81907 -1.02606 -5
vertex -2.81907 -1.02606 -5
vertex -3 0 -5
endloop
endfacet
facet normal 0 0 -1
outer loop
vertex 2.81907 -1.02606 -5
vertex -3 0 -5
vertex -2.81907 1.02606 -5
endloop
endfacet
facet normal 0 0 -1
outer loop
vertex 2.81907 -1.02606 -5
vertex -2.81907 1.02606 -5
vertex -2.29812 1.92837 -5
endloop
endfacet
facet normal 0 0 -1
outer loop
vertex 2.81907 -1.02606 -5
vertex -2.29812 1.92837 -5
vertex -1.5 2.59809 -5
endloop
endfacet
facet normal 0 0 -1
outer loop
vertex 2.81907 -1.02606 -5
vertex -1.5 2.59809 -5
vertex -0.52095 2.95443 -5
endloop
endfacet
facet normal 0 0 -1
outer loop
vertex 2.81907 -1.02606 -5
vertex -0.52095 2.95443 -5
vertex 0.52095 2.95443 -5
endloop
endfacet
facet normal 0 0 -1
outer loop
vertex 2.81907 -1.02606 -5
vertex 0.52095 2.95443 -5
vertex 1.5 2.59809 -5
endloop
endfacet
facet normal 0 0 -1
outer loop
vertex 2.81907 -1.02606 -5
vertex 1.5 2.59809 -5
vertex 2.29812 1.92837 -5
endloop
endfacet
facet normal 0 0 -1
outer loop
vertex 2.81907 -1.02606 -5
vertex 2.29812 1.92837 -5
vertex 2.81907 1.02606 -5
endloop
endfacet
facet normal 0 0 -1
outer loop
vertex 2.81907 -1.02606 -5
vertex 2.81907 1.02606 -5
vertex 3 0 -5
endloop
endfacet
endsolid JSxCAD
