solid JSxCAD
facet normal 0 -1 0
outer loop
vertex 5 -5 55
vertex 5 -5 65
vertex -5 -5 55
endloop
endfacet
facet normal 0 -1 0
outer loop
vertex -5 -5 55
vertex 5 -5 65
vertex -5 -5 65
endloop
endfacet
facet normal -1 0 0
outer loop
vertex -5 -5 55
vertex -5 -5 65
vertex -5 5 55
endloop
endfacet
facet normal -1 0 0
outer loop
vertex -5 5 55
vertex -5 -5 65
vertex -5 5 65
endloop
endfacet
facet normal 0 1 0
outer loop
vertex -5 5 55
vertex -5 5 65
vertex 5 5 55
endloop
endfacet
facet normal 0 1 0
outer loop
vertex 5 5 55
vertex -5 5 65
vertex 5 5 65
endloop
endfacet
facet normal 1 0 0
outer loop
vertex 5 5 55
vertex 5 5 65
vertex 5 -5 55
endloop
endfacet
facet normal 1 0 0
outer loop
vertex 5 -5 55
vertex 5 5 65
vertex 5 -5 65
endloop
endfacet
facet normal 0 0 1
outer loop
vertex 5 5 65
vertex -5 5 65
vertex -5 -5 65
endloop
endfacet
facet normal 0 0 1
outer loop
vertex 5 5 65
vertex -5 -5 65
vertex 5 -5 65
endloop
endfacet
facet normal 0 0 -1
outer loop
vertex 5 -5 55
vertex -5 -5 55
vertex -5 5 55
endloop
endfacet
facet normal 0 0 -1
outer loop
vertex 5 -5 55
vertex -5 5 55
vertex 5 5 55
endloop
endfacet
endsolid JSxCAD
