<?xml version="1.0" encoding="UTF-8"?>
<!-- Generated by jsxcad -->
<!DOCTYPE svg PUBLIC "-//W3C//DTD SVG 1.1 Tiny//EN" "http://www.w3.org/Graphics/SVG/1.1/DTD/svg11-tiny.dtd">
<svg baseProfile="tiny" height="100 mm" width="20 mm" viewBox="0 0 20 100" version="1.1" stroke="black" stroke-width=".1" fill="none" xmlns="http://www.w3.org/2000/svg">
<path d="M0 0 L20 0 L20 100 L19.94869 100 L19.89739 100 L19.84582 100 L19.79371 100 L19.74079 100 L19.68675 100 L19.63128 100 L19.57401 100 L19.51455 100 L19.45244 100 L19.38716 100 L19.31811 100 L19.24454 100 L19.16559 100 L19.08019 100 L18.98702 100 L18.8844 100 L18.77022 100 L18.64171 100 L18.49517 100 L18.3256 100 L18.12599 100 L17.88624 100 L17.59119 100 L17.21707 100 L16.72423 100 L16.04134 100 L15.02579 100 L13.34477 100 L10 100 L0 100 z"/>
</svg>