<?xml version="1.0" encoding="UTF-8"?>
<!-- Generated by jsxcad -->
<!DOCTYPE svg PUBLIC "-//W3C//DTD SVG 1.1 Tiny//EN" "http://www.w3.org/Graphics/SVG/1.1/DTD/svg11-tiny.dtd">
<svg baseProfile="tiny" height="10 mm" width="10 mm" viewBox="0 0 10 10" version="1.1" stroke="black" stroke-width=".1" fill="none" xmlns="http://www.w3.org/2000/svg">
<path d="M0 10 L10 10 L10 0 z"/>
<path d="M0 10 L10 0 L0 0 z"/>
<path d="M10 10 L10 10 L0 10 z"/>
<path d="M10 10 L0 10 L0 10 z"/>
<path d="M0 0 L0 10 L0 10 z"/>
<path d="M0 0 L0 10 L0 0 z"/>
<path d="M10 0 L0 0 L0 0 z"/>
<path d="M10 0 L0 0 L10 0 z"/>
<path d="M10 0 L10 0 L10 10 z"/>
<path d="M10 0 L10 10 L10 10 z"/>
<path d="M8 5 L7.81907 3.97394 L10 0 z"/>
<path d="M8 5 L10 0 L10 10 z"/>
<path d="M6.5 7.59809 L7.29812 6.92837 L10 10 z"/>
<path d="M2 5 L2.18093 6.02606 L0 10 z"/>
<path d="M2 5 L0 10 L0 0 z"/>
<path d="M2 5 L0 0 L2.18093 3.97394 z"/>
<path d="M3.5 7.59809 L4.47905 7.95443 L0 10 z"/>
<path d="M6.5 2.40191 L5.52095 2.04557 L10 0 z"/>
<path d="M7.81907 6.02606 L8 5 L10 10 z"/>
<path d="M7.81907 6.02606 L10 10 L7.29812 6.92837 z"/>
<path d="M5.52095 7.95443 L6.5 7.59809 L10 10 z"/>
<path d="M5.52095 7.95443 L10 10 L0 10 z"/>
<path d="M5.52095 7.95443 L0 10 L4.47905 7.95443 z"/>
<path d="M2.70188 6.92837 L3.5 7.59809 L0 10 z"/>
<path d="M2.70188 6.92837 L0 10 L2.18093 6.02606 z"/>
<path d="M7.29812 3.07163 L6.5 2.40191 L10 0 z"/>
<path d="M7.29812 3.07163 L10 0 L7.81907 3.97394 z"/>
<path d="M2.70188 3.07163 L0 0 L3.5 2.40191 z"/>
<path d="M2.70188 3.07163 L2.18093 3.97394 L0 0 z"/>
<path d="M4.47905 2.04557 L5.52095 2.04557 L6.5 2.40191 z"/>
<path d="M4.47905 2.04557 L6.5 2.40191 L7.29812 3.07163 z"/>
<path d="M4.47905 2.04557 L7.29812 3.07163 L7.81907 3.97394 z"/>
<path d="M4.47905 2.04557 L7.81907 3.97394 L8 5 z"/>
<path d="M4.47905 2.04557 L8 5 L7.81907 6.02606 z"/>
<path d="M4.47905 2.04557 L7.81907 6.02606 L7.29812 6.92837 z"/>
<path d="M4.47905 2.04557 L7.29812 6.92837 L6.5 7.59809 z"/>
<path d="M4.47905 2.04557 L6.5 7.59809 L5.52095 7.95443 z"/>
<path d="M4.47905 2.04557 L5.52095 7.95443 L4.47905 7.95443 z"/>
<path d="M4.47905 2.04557 L4.47905 7.95443 L3.5 7.59809 z"/>
<path d="M4.47905 2.04557 L3.5 7.59809 L2.70188 6.92837 z"/>
<path d="M4.47905 2.04557 L2.70188 6.92837 L2.18093 6.02606 z"/>
<path d="M4.47905 2.04557 L2.18093 6.02606 L2 5 z"/>
<path d="M4.47905 2.04557 L2 5 L2.18093 3.97394 z"/>
<path d="M4.47905 2.04557 L2.18093 3.97394 L2.70188 3.07163 z"/>
<path d="M4.47905 2.04557 L2.70188 3.07163 L3.5 2.40191 z"/>
<path d="M4.47905 2.04557 L3.5 2.40191 L0 0 z"/>
<path d="M4.47905 2.04557 L0 0 L10 0 z"/>
<path d="M4.47905 2.04557 L10 0 L5.52095 2.04557 z"/>
</svg>