<?xml version="1.0" encoding="UTF-8"?>
<!-- Generated by jsxcad -->
<!DOCTYPE svg PUBLIC "-//W3C//DTD SVG 1.1 Tiny//EN" "http://www.w3.org/Graphics/SVG/1.1/DTD/svg11-tiny.dtd">
<svg baseProfile="tiny" height="155 mm" width="20 mm" viewBox="0 0 20 155" version="1.1" stroke="black" stroke-width=".1" fill="none" xmlns="http://www.w3.org/2000/svg">
<path d="M19.7953 55 L15 0 L19.9487 55 z"/>
<path d="M20 55 L15 0 L19.9487 55 z"/>
<path d="M20 55 L19.9487 55 L15 0 z"/>
<path d="M20 55 L15 0 L15 0 z"/>
<path d="M19.7953 55 L19.9487 55 L15 0 z"/>
<path d="M19.7953 55 L15 0 L19.5414 55 z"/>
<path d="M19.5414 55 L19.1896 55 L15 0 z"/>
<path d="M19.5414 55 L15 0 L19.7953 55 z"/>
<path d="M19.7953 155 L19.7953 55 L19.9487 55 z"/>
<path d="M19.7953 155 L19.9487 55 L19.9487 155 z"/>
<path d="M5 0 L15 0 L15 0 z"/>
<path d="M5 0 L15 0 L5 0 z"/>
<path d="M0.2047 55 L0.0513 55 L5 0 z"/>
<path d="M3.8789 55 L3.1103 55 L5 0 z"/>
<path d="M3.8789 55 L5 0 L4.7104 55 z"/>
<path d="M18.7435 55 L15 0 L19.1896 55 z"/>
<path d="M12.5065 55 L15 0 L13.4731 55 z"/>
<path d="M20 155 L19.9487 155 L19.9487 55 z"/>
<path d="M20 155 L19.9487 55 L20 55 z"/>
<path d="M20 155 L20 55 L19.9487 55 z"/>
<path d="M20 155 L19.9487 55 L19.9487 155 z"/>
<path d="M19.5414 155 L19.5414 55 L19.7953 55 z"/>
<path d="M19.5414 155 L19.7953 55 L19.7953 155 z"/>
<path d="M19.5414 155 L19.1896 155 L19.1896 55 z"/>
<path d="M19.5414 155 L19.1896 55 L19.5414 55 z"/>
<path d="M3.8789 55 L4.7104 55 L5 0 z"/>
<path d="M4.7104 155 L4.7104 55 L3.8789 55 z"/>
<path d="M4.7104 155 L3.8789 55 L3.8789 155 z"/>
<path d="M0.8104 55 L1.2565 55 L5 0 z"/>
<path d="M0.8104 55 L5 0 L0.4586 55 z"/>
<path d="M1.7924 55 L2.4124 55 L5 0 z"/>
<path d="M1.7924 55 L5 0 L1.2565 55 z"/>
<path d="M0.4586 55 L0.2047 55 L5 0 z"/>
<path d="M0.4586 55 L5 0 L0.8104 55 z"/>
<path d="M7.4935 55 L6.5269 55 L5 0 z"/>
<path d="M7.4935 55 L5 0 L8.4857 55 z"/>
<path d="M9.4935 55 L9.4935 155 L8.4857 155 z"/>
<path d="M9.4935 55 L8.4857 155 L8.4857 55 z"/>
<path d="M9.4935 55 L8.4857 55 L5 0 z"/>
<path d="M9.4935 55 L5 0 L15 0 z"/>
<path d="M9.4935 55 L15 0 L10.5065 55 z"/>
<path d="M9.4935 55 L10.5065 55 L10.5065 155 z"/>
<path d="M9.4935 55 L10.5065 155 L9.4935 155 z"/>
<path d="M18.7435 155 L18.7435 55 L19.1896 55 z"/>
<path d="M18.7435 155 L19.1896 55 L19.1896 155 z"/>
<path d="M11.5143 55 L10.5065 55 L15 0 z"/>
<path d="M11.5143 55 L15 0 L12.5065 55 z"/>
<path d="M16.8897 55 L16.1211 55 L15 0 z"/>
<path d="M16.8897 55 L15 0 L17.5876 55 z"/>
<path d="M12.5065 155 L12.5065 55 L13.4731 55 z"/>
<path d="M12.5065 155 L13.4731 55 L13.4731 155 z"/>
<path d="M16.1211 55 L15 0 L15.2896 55 z"/>
<path d="M19.7953 155 L19.7953 55 L19.5414 55 z"/>
<path d="M19.7953 155 L19.5414 55 L19.5414 155 z"/>
<path d="M19.7953 155 L19.9487 155 L19.9487 55 z"/>
<path d="M19.7953 155 L19.9487 55 L19.7953 55 z"/>
<path d="M15.2896 155 L16.1211 155 L16.1211 55 z"/>
<path d="M15.2896 155 L16.1211 55 L15.2896 55 z"/>
<path d="M13.4731 55 L15 0 L12.5065 55 z"/>
<path d="M11.5143 55 L12.5065 55 L15 0 z"/>
<path d="M11.5143 55 L15 0 L10.5065 55 z"/>
<path d="M9.4935 55 L10.5065 55 L15 0 z"/>
<path d="M9.4935 55 L15 0 L5 0 z"/>
<path d="M9.4935 55 L5 0 L8.4857 55 z"/>
<path d="M9.4935 55 L8.4857 55 L8.4857 155 z"/>
<path d="M9.4935 55 L8.4857 155 L9.4935 155 z"/>
<path d="M10.5065 155 L10.5065 55 L9.4935 55 z"/>
<path d="M10.5065 155 L9.4935 55 L9.4935 155 z"/>
<path d="M3.1103 55 L2.4124 55 L2.4124 155 z"/>
<path d="M3.1103 55 L2.4124 155 L3.1103 155 z"/>
<path d="M3.1103 55 L3.1103 155 L3.8789 155 z"/>
<path d="M3.1103 55 L3.8789 155 L3.8789 55 z"/>
<path d="M3.1103 55 L3.8789 55 L5 0 z"/>
<path d="M3.1103 55 L5 0 L2.4124 55 z"/>
<path d="M7.4935 55 L8.4857 55 L5 0 z"/>
<path d="M7.4935 55 L5 0 L6.5269 55 z"/>
<path d="M7.4935 55 L7.4935 155 L8.4857 155 z"/>
<path d="M7.4935 55 L8.4857 155 L8.4857 55 z"/>
<path d="M5.5961 55 L6.5269 55 L5 0 z"/>
<path d="M5.5961 55 L5 0 L4.7104 55 z"/>
<path d="M5.5961 55 L4.7104 55 L4.7104 155 z"/>
<path d="M5.5961 55 L4.7104 155 L5.5961 155 z"/>
<path d="M6.5269 155 L7.4935 155 L7.4935 55 z"/>
<path d="M6.5269 155 L7.4935 55 L6.5269 55 z"/>
<path d="M6.5269 155 L6.5269 55 L5.5961 55 z"/>
<path d="M6.5269 155 L5.5961 55 L5.5961 155 z"/>
<path d="M0.2047 55 L5 0 L0.0513 55 z"/>
<path d="M0.2047 55 L0.0513 55 L0.0513 155 z"/>
<path d="M0.2047 55 L0.0513 155 L0.2047 155 z"/>
<path d="M0.2047 55 L0.2047 155 L0.4586 155 z"/>
<path d="M0.2047 55 L0.4586 155 L0.4586 55 z"/>
<path d="M0.2047 55 L0.4586 55 L5 0 z"/>
<path d="M0 55 L0.0513 55 L0.0513 155 z"/>
<path d="M0 55 L0.0513 155 L0 155 z"/>
<path d="M0 55 L0 155 L0.0513 155 z"/>
<path d="M0 55 L0.0513 155 L0.0513 55 z"/>
<path d="M0 55 L0.0513 55 L5 0 z"/>
<path d="M0 55 L5 0 L5 0 z"/>
<path d="M0 55 L5 0 L0.0513 55 z"/>
<path d="M0.8104 155 L1.2565 155 L1.2565 55 z"/>
<path d="M0.8104 155 L1.2565 55 L0.8104 55 z"/>
<path d="M0.8104 155 L0.8104 55 L0.4586 55 z"/>
<path d="M0.8104 155 L0.4586 55 L0.4586 155 z"/>
<path d="M1.7924 155 L2.4124 155 L2.4124 55 z"/>
<path d="M1.7924 155 L2.4124 55 L1.7924 55 z"/>
<path d="M1.7924 155 L1.7924 55 L1.2565 55 z"/>
<path d="M1.7924 155 L1.2565 55 L1.2565 155 z"/>
<path d="M0.2047 155 L0.0513 155 L0.0513 55 z"/>
<path d="M0.2047 155 L0.0513 55 L0.2047 55 z"/>
<path d="M1.2565 55 L0.8104 55 L5 0 z"/>
<path d="M1.2565 55 L5 0 L1.7924 55 z"/>
<path d="M2.4124 55 L2.4124 155 L1.7924 155 z"/>
<path d="M2.4124 55 L1.7924 155 L1.7924 55 z"/>
<path d="M2.4124 55 L1.7924 55 L5 0 z"/>
<path d="M2.4124 55 L5 0 L3.1103 55 z"/>
<path d="M2.4124 55 L3.1103 55 L3.1103 155 z"/>
<path d="M2.4124 55 L3.1103 155 L2.4124 155 z"/>
<path d="M3.8789 155 L3.8789 55 L4.7104 55 z"/>
<path d="M3.8789 155 L4.7104 55 L4.7104 155 z"/>
<path d="M3.8789 155 L3.1103 155 L3.1103 55 z"/>
<path d="M3.8789 155 L3.1103 55 L3.8789 55 z"/>
<path d="M7.4935 155 L6.5269 155 L6.5269 55 z"/>
<path d="M7.4935 155 L6.5269 55 L7.4935 55 z"/>
<path d="M7.4935 155 L7.4935 55 L8.4857 55 z"/>
<path d="M7.4935 155 L8.4857 55 L8.4857 155 z"/>
<path d="M16.8897 155 L16.1211 155 L16.1211 55 z"/>
<path d="M16.8897 155 L16.1211 55 L16.8897 55 z"/>
<path d="M16.8897 155 L16.8897 55 L17.5876 55 z"/>
<path d="M16.8897 155 L17.5876 55 L17.5876 155 z"/>
<path d="M14.4039 55 L14.4039 155 L13.4731 155 z"/>
<path d="M14.4039 55 L13.4731 155 L13.4731 55 z"/>
<path d="M14.4039 55 L13.4731 55 L15 0 z"/>
<path d="M11.5143 155 L11.5143 55 L12.5065 55 z"/>
<path d="M11.5143 155 L12.5065 55 L12.5065 155 z"/>
<path d="M11.5143 155 L10.5065 155 L10.5065 55 z"/>
<path d="M11.5143 155 L10.5065 55 L11.5143 55 z"/>
<path d="M18.2076 55 L17.5876 55 L17.5876 155 z"/>
<path d="M18.2076 55 L17.5876 155 L18.2076 155 z"/>
<path d="M18.2076 55 L18.2076 155 L18.7435 155 z"/>
<path d="M18.2076 55 L18.7435 155 L18.7435 55 z"/>
<path d="M18.2076 55 L18.7435 55 L15 0 z"/>
<path d="M18.2076 55 L15 0 L17.5876 55 z"/>
<path d="M19.1896 55 L15 0 L18.7435 55 z"/>
<path d="M19.1896 55 L18.7435 55 L18.7435 155 z"/>
<path d="M19.1896 55 L18.7435 155 L19.1896 155 z"/>
<path d="M19.1896 55 L19.1896 155 L19.5414 155 z"/>
<path d="M19.1896 55 L19.5414 155 L19.5414 55 z"/>
<path d="M19.1896 55 L19.5414 55 L15 0 z"/>
<path d="M14.4039 55 L15.2896 55 L15 0 z"/>
<path d="M14.4039 55 L15 0 L13.4731 55 z"/>
<path d="M14.4039 55 L14.4039 155 L15.2896 155 z"/>
<path d="M14.4039 55 L15.2896 155 L15.2896 55 z"/>
<path d="M13.4731 155 L14.4039 155 L14.4039 55 z"/>
<path d="M13.4731 155 L14.4039 55 L13.4731 55 z"/>
<path d="M13.4731 155 L13.4731 55 L12.5065 55 z"/>
<path d="M13.4731 155 L12.5065 55 L12.5065 155 z"/>
<path d="M11.5143 155 L11.5143 55 L10.5065 55 z"/>
<path d="M11.5143 155 L10.5065 55 L10.5065 155 z"/>
<path d="M11.5143 155 L12.5065 155 L12.5065 55 z"/>
<path d="M11.5143 155 L12.5065 55 L11.5143 55 z"/>
<path d="M0.4586 155 L0.2047 155 L0.2047 55 z"/>
<path d="M0.4586 155 L0.2047 55 L0.4586 55 z"/>
<path d="M0.4586 155 L0.4586 55 L0.8104 55 z"/>
<path d="M0.4586 155 L0.8104 55 L0.8104 155 z"/>
<path d="M1.2565 155 L0.8104 155 L0.8104 55 z"/>
<path d="M1.2565 155 L0.8104 55 L1.2565 55 z"/>
<path d="M1.2565 155 L1.2565 55 L1.7924 55 z"/>
<path d="M1.2565 155 L1.7924 55 L1.7924 155 z"/>
<path d="M1.2565 155 L1.7924 155 L2.4124 155 z"/>
<path d="M1.2565 155 L2.4124 155 L3.1103 155 z"/>
<path d="M1.2565 155 L3.1103 155 L3.8789 155 z"/>
<path d="M1.2565 155 L3.8789 155 L4.7104 155 z"/>
<path d="M1.2565 155 L4.7104 155 L5.5961 155 z"/>
<path d="M1.2565 155 L5.5961 155 L6.5269 155 z"/>
<path d="M1.2565 155 L6.5269 155 L7.4935 155 z"/>
<path d="M1.2565 155 L7.4935 155 L8.4857 155 z"/>
<path d="M1.2565 155 L8.4857 155 L9.4935 155 z"/>
<path d="M1.2565 155 L9.4935 155 L10.5065 155 z"/>
<path d="M1.2565 155 L10.5065 155 L11.5143 155 z"/>
<path d="M1.2565 155 L11.5143 155 L12.5065 155 z"/>
<path d="M1.2565 155 L12.5065 155 L13.4731 155 z"/>
<path d="M1.2565 155 L13.4731 155 L14.4039 155 z"/>
<path d="M1.2565 155 L14.4039 155 L15.2896 155 z"/>
<path d="M1.2565 155 L15.2896 155 L16.1211 155 z"/>
<path d="M1.2565 155 L16.1211 155 L16.8897 155 z"/>
<path d="M1.2565 155 L16.8897 155 L17.5876 155 z"/>
<path d="M1.2565 155 L17.5876 155 L18.2076 155 z"/>
<path d="M1.2565 155 L18.2076 155 L18.7435 155 z"/>
<path d="M1.2565 155 L18.7435 155 L19.1896 155 z"/>
<path d="M1.2565 155 L19.1896 155 L19.5414 155 z"/>
<path d="M1.2565 155 L19.5414 155 L19.7953 155 z"/>
<path d="M1.2565 155 L19.7953 155 L19.9487 155 z"/>
<path d="M1.2565 155 L19.9487 155 L20 155 z"/>
<path d="M1.2565 155 L20 155 L19.9487 155 z"/>
<path d="M1.2565 155 L19.9487 155 L19.7953 155 z"/>
<path d="M1.2565 155 L19.7953 155 L19.5414 155 z"/>
<path d="M1.2565 155 L19.5414 155 L19.1896 155 z"/>
<path d="M1.2565 155 L19.1896 155 L18.7435 155 z"/>
<path d="M1.2565 155 L18.7435 155 L18.2076 155 z"/>
<path d="M1.2565 155 L18.2076 155 L17.5876 155 z"/>
<path d="M1.2565 155 L17.5876 155 L16.8897 155 z"/>
<path d="M1.2565 155 L16.8897 155 L16.1211 155 z"/>
<path d="M1.2565 155 L16.1211 155 L15.2896 155 z"/>
<path d="M1.2565 155 L15.2896 155 L14.4039 155 z"/>
<path d="M1.2565 155 L14.4039 155 L13.4731 155 z"/>
<path d="M1.2565 155 L13.4731 155 L12.5065 155 z"/>
<path d="M1.2565 155 L12.5065 155 L11.5143 155 z"/>
<path d="M1.2565 155 L11.5143 155 L10.5065 155 z"/>
<path d="M1.2565 155 L10.5065 155 L9.4935 155 z"/>
<path d="M1.2565 155 L9.4935 155 L8.4857 155 z"/>
<path d="M1.2565 155 L8.4857 155 L7.4935 155 z"/>
<path d="M1.2565 155 L7.4935 155 L6.5269 155 z"/>
<path d="M1.2565 155 L6.5269 155 L5.5961 155 z"/>
<path d="M1.2565 155 L5.5961 155 L4.7104 155 z"/>
<path d="M1.2565 155 L4.7104 155 L3.8789 155 z"/>
<path d="M1.2565 155 L3.8789 155 L3.1103 155 z"/>
<path d="M1.2565 155 L3.1103 155 L2.4124 155 z"/>
<path d="M1.2565 155 L2.4124 155 L1.7924 155 z"/>
<path d="M1.2565 155 L1.7924 155 L1.2565 155 z"/>
<path d="M1.2565 155 L1.2565 155 L0.8104 155 z"/>
<path d="M1.2565 155 L0.8104 155 L0.4586 155 z"/>
<path d="M1.2565 155 L0.4586 155 L0.2047 155 z"/>
<path d="M1.2565 155 L0.2047 155 L0.0513 155 z"/>
<path d="M1.2565 155 L0.0513 155 L0 155 z"/>
<path d="M1.2565 155 L0 155 L0.0513 155 z"/>
<path d="M1.2565 155 L0.0513 155 L0.2047 155 z"/>
<path d="M1.2565 155 L0.2047 155 L0.4586 155 z"/>
<path d="M1.2565 155 L0.4586 155 L0.8104 155 z"/>
<path d="M5.5961 55 L6.5269 55 L6.5269 155 z"/>
<path d="M5.5961 55 L6.5269 155 L5.5961 155 z"/>
<path d="M5.5961 55 L5.5961 155 L4.7104 155 z"/>
<path d="M5.5961 55 L4.7104 155 L4.7104 55 z"/>
<path d="M5.5961 55 L4.7104 55 L5 0 z"/>
<path d="M5.5961 55 L5 0 L6.5269 55 z"/>
<path d="M18.2076 55 L18.7435 55 L18.7435 155 z"/>
<path d="M18.2076 55 L18.7435 155 L18.2076 155 z"/>
<path d="M18.2076 55 L18.2076 155 L17.5876 155 z"/>
<path d="M18.2076 55 L17.5876 155 L17.5876 55 z"/>
<path d="M18.2076 55 L17.5876 55 L15 0 z"/>
<path d="M18.2076 55 L15 0 L18.7435 55 z"/>
<path d="M15.2896 55 L15.2896 155 L14.4039 155 z"/>
<path d="M15.2896 55 L14.4039 155 L14.4039 55 z"/>
<path d="M15.2896 55 L14.4039 55 L15 0 z"/>
<path d="M15.2896 55 L15 0 L16.1211 55 z"/>
<path d="M15.2896 55 L16.1211 55 L16.1211 155 z"/>
<path d="M15.2896 55 L16.1211 155 L15.2896 155 z"/>
<path d="M16.8897 55 L16.1211 55 L16.1211 155 z"/>
<path d="M16.8897 55 L16.1211 155 L16.8897 155 z"/>
<path d="M16.8897 55 L16.8897 155 L17.5876 155 z"/>
<path d="M16.8897 55 L17.5876 155 L17.5876 55 z"/>
<path d="M16.8897 55 L17.5876 55 L15 0 z"/>
<path d="M16.8897 55 L15 0 L16.1211 55 z"/>
</svg>