solid JSxCAD
facet normal -1 0 0
outer loop
vertex -150 -125 0
vertex -150 -25 3
vertex -150 -25 0
endloop
endfacet
facet normal -1 0 0
outer loop
vertex -150 -125 0
vertex -150 -125 3
vertex -150 -25 3
endloop
endfacet
facet normal -1 0 0
outer loop
vertex -150 -150 0
vertex -150 -125 3
vertex -150 -125 0
endloop
endfacet
facet normal -1 0 0
outer loop
vertex -150 -125 3
vertex -150 -150 0
vertex -150 -150 3
endloop
endfacet
facet normal -1 0 0
outer loop
vertex -150 125 0
vertex -150 150 3
vertex -150 150 0
endloop
endfacet
facet normal -1 0 0
outer loop
vertex -150 125 0
vertex -150 125 3
vertex -150 150 3
endloop
endfacet
facet normal -1 0 0
outer loop
vertex -150 25 0
vertex -150 125 3
vertex -150 125 0
endloop
endfacet
facet normal -1 0 0
outer loop
vertex -150 125 3
vertex -150 25 0
vertex -150 25 3
endloop
endfacet
facet normal 0 1 0
outer loop
vertex -150 -125 0
vertex -25 -125 3
vertex -25 -125 0
endloop
endfacet
facet normal 0 1 0
outer loop
vertex -25 -125 3
vertex -150 -125 0
vertex -150 -125 3
endloop
endfacet
facet normal 0 1 0
outer loop
vertex 25 -125 0
vertex 150 -125 3
vertex 150 -125 0
endloop
endfacet
facet normal 0 1 0
outer loop
vertex 150 -125 3
vertex 25 -125 0
vertex 25 -125 3
endloop
endfacet
facet normal 1 0 0
outer loop
vertex -25 125 0
vertex -25 150 3
vertex -25 125 3
endloop
endfacet
facet normal 1 0 0
outer loop
vertex -25 150 3
vertex -25 125 0
vertex -25 150 0
endloop
endfacet
facet normal 1 0 0
outer loop
vertex -25 -25 0
vertex -25 25 3
vertex -25 -25 3
endloop
endfacet
facet normal 1 0 0
outer loop
vertex -25 25 3
vertex -25 -25 0
vertex -25 25 0
endloop
endfacet
facet normal 1 0 0
outer loop
vertex -25 -150 0
vertex -25 -125 3
vertex -25 -150 3
endloop
endfacet
facet normal 1 0 0
outer loop
vertex -25 -125 3
vertex -25 -150 0
vertex -25 -125 0
endloop
endfacet
facet normal 0 -1 0
outer loop
vertex -150 -150 3
vertex -25 -150 0
vertex -25 -150 3
endloop
endfacet
facet normal 0 -1 0
outer loop
vertex -25 -150 0
vertex -150 -150 3
vertex -150 -150 0
endloop
endfacet
facet normal 0 -1 0
outer loop
vertex 25 -150 3
vertex 150 -150 0
vertex 150 -150 3
endloop
endfacet
facet normal 0 -1 0
outer loop
vertex 150 -150 0
vertex 25 -150 3
vertex 25 -150 0
endloop
endfacet
facet normal -1 0 0
outer loop
vertex 25 -125 0
vertex 25 -150 3
vertex 25 -125 3
endloop
endfacet
facet normal -1 0 0
outer loop
vertex 25 -150 3
vertex 25 -125 0
vertex 25 -150 0
endloop
endfacet
facet normal -1 0 0
outer loop
vertex 25 25 0
vertex 25 -25 3
vertex 25 25 3
endloop
endfacet
facet normal -1 0 0
outer loop
vertex 25 -25 3
vertex 25 25 0
vertex 25 -25 0
endloop
endfacet
facet normal -1 0 0
outer loop
vertex 25 150 0
vertex 25 125 3
vertex 25 150 3
endloop
endfacet
facet normal -1 0 0
outer loop
vertex 25 125 3
vertex 25 150 0
vertex 25 125 0
endloop
endfacet
facet normal 1 0 0
outer loop
vertex 150 -150 0
vertex 150 -25 3
vertex 150 -150 3
endloop
endfacet
facet normal 1 0 0
outer loop
vertex 150 -125 0
vertex 150 -25 3
vertex 150 -150 0
endloop
endfacet
facet normal 1 0 0
outer loop
vertex 150 -25 3
vertex 150 -125 0
vertex 150 -25 0
endloop
endfacet
facet normal 1 0 0
outer loop
vertex 150 25 0
vertex 150 150 3
vertex 150 25 3
endloop
endfacet
facet normal 1 0 0
outer loop
vertex 150 125 0
vertex 150 150 3
vertex 150 25 0
endloop
endfacet
facet normal 1 0 0
outer loop
vertex 150 150 3
vertex 150 125 0
vertex 150 150 0
endloop
endfacet
facet normal 0 1 0
outer loop
vertex 125 -25 0
vertex 150 -25 3
vertex 150 -25 0
endloop
endfacet
facet normal 0 1 0
outer loop
vertex 125 -25 0
vertex 125 -25 3
vertex 150 -25 3
endloop
endfacet
facet normal 0 1 0
outer loop
vertex 25 -25 0
vertex 125 -25 3
vertex 125 -25 0
endloop
endfacet
facet normal 0 1 0
outer loop
vertex 25 -25 0
vertex 25 -25 3
vertex 125 -25 3
endloop
endfacet
facet normal 0 1 0
outer loop
vertex -25 -25 0
vertex 25 -25 3
vertex 25 -25 0
endloop
endfacet
facet normal 0 1 0
outer loop
vertex -25 -25 0
vertex -25 -25 3
vertex 25 -25 3
endloop
endfacet
facet normal 0 1 0
outer loop
vertex -125 -25 0
vertex -25 -25 3
vertex -25 -25 0
endloop
endfacet
facet normal 0 1 0
outer loop
vertex -125 -25 0
vertex -125 -25 3
vertex -25 -25 3
endloop
endfacet
facet normal 0 1 0
outer loop
vertex -150 -25 0
vertex -125 -25 3
vertex -125 -25 0
endloop
endfacet
facet normal 0 1 0
outer loop
vertex -125 -25 3
vertex -150 -25 0
vertex -150 -25 3
endloop
endfacet
facet normal 0 -1 0
outer loop
vertex 25 -125 3
vertex 150 -125 0
vertex 150 -125 3
endloop
endfacet
facet normal 0 -1 0
outer loop
vertex 25 -125 3
vertex 25 -125 0
vertex 150 -125 0
endloop
endfacet
facet normal 0 -1 0
outer loop
vertex -25 -125 3
vertex 25 -125 0
vertex 25 -125 3
endloop
endfacet
facet normal 0 -1 0
outer loop
vertex -25 -125 3
vertex -25 -125 0
vertex 25 -125 0
endloop
endfacet
facet normal 0 -1 0
outer loop
vertex -150 -125 3
vertex -25 -125 0
vertex -25 -125 3
endloop
endfacet
facet normal 0 -1 0
outer loop
vertex -25 -125 0
vertex -150 -125 3
vertex -150 -125 0
endloop
endfacet
facet normal -1 0 0
outer loop
vertex -125 -25 0
vertex -125 25 3
vertex -125 25 0
endloop
endfacet
facet normal -1 0 0
outer loop
vertex -125 25 3
vertex -125 -25 0
vertex -125 -25 3
endloop
endfacet
facet normal 0 1 0
outer loop
vertex -125 25 0
vertex -25 25 3
vertex -25 25 0
endloop
endfacet
facet normal 0 1 0
outer loop
vertex -25 25 3
vertex -125 25 0
vertex -125 25 3
endloop
endfacet
facet normal 0 1 0
outer loop
vertex 25 25 0
vertex 125 25 3
vertex 125 25 0
endloop
endfacet
facet normal 0 1 0
outer loop
vertex 125 25 3
vertex 25 25 0
vertex 25 25 3
endloop
endfacet
facet normal 0 -1 0
outer loop
vertex -125 -25 3
vertex -25 -25 0
vertex -25 -25 3
endloop
endfacet
facet normal 0 -1 0
outer loop
vertex -25 -25 0
vertex -125 -25 3
vertex -125 -25 0
endloop
endfacet
facet normal 0 -1 0
outer loop
vertex 25 -25 3
vertex 125 -25 0
vertex 125 -25 3
endloop
endfacet
facet normal 0 -1 0
outer loop
vertex 125 -25 0
vertex 25 -25 3
vertex 25 -25 0
endloop
endfacet
facet normal 1 0 0
outer loop
vertex 125 -25 3
vertex 125 25 0
vertex 125 25 3
endloop
endfacet
facet normal 1 0 0
outer loop
vertex 125 25 0
vertex 125 -25 3
vertex 125 -25 0
endloop
endfacet
facet normal 0 1 0
outer loop
vertex 25 125 0
vertex 150 125 3
vertex 150 125 0
endloop
endfacet
facet normal 0 1 0
outer loop
vertex 25 125 0
vertex 25 125 3
vertex 150 125 3
endloop
endfacet
facet normal 0 1 0
outer loop
vertex -25 125 0
vertex 25 125 3
vertex 25 125 0
endloop
endfacet
facet normal 0 1 0
outer loop
vertex -25 125 0
vertex -25 125 3
vertex 25 125 3
endloop
endfacet
facet normal 0 1 0
outer loop
vertex -150 125 0
vertex -25 125 3
vertex -25 125 0
endloop
endfacet
facet normal 0 1 0
outer loop
vertex -25 125 3
vertex -150 125 0
vertex -150 125 3
endloop
endfacet
facet normal 0 -1 0
outer loop
vertex 125 25 3
vertex 150 25 0
vertex 150 25 3
endloop
endfacet
facet normal 0 -1 0
outer loop
vertex 125 25 3
vertex 125 25 0
vertex 150 25 0
endloop
endfacet
facet normal 0 -1 0
outer loop
vertex 25 25 3
vertex 125 25 0
vertex 125 25 3
endloop
endfacet
facet normal 0 -1 0
outer loop
vertex 25 25 3
vertex 25 25 0
vertex 125 25 0
endloop
endfacet
facet normal 0 -1 0
outer loop
vertex -25 25 3
vertex 25 25 0
vertex 25 25 3
endloop
endfacet
facet normal 0 -1 0
outer loop
vertex -25 25 3
vertex -25 25 0
vertex 25 25 0
endloop
endfacet
facet normal 0 -1 0
outer loop
vertex -125 25 3
vertex -25 25 0
vertex -25 25 3
endloop
endfacet
facet normal 0 -1 0
outer loop
vertex -125 25 3
vertex -125 25 0
vertex -25 25 0
endloop
endfacet
facet normal 0 -1 0
outer loop
vertex -150 25 3
vertex -125 25 0
vertex -125 25 3
endloop
endfacet
facet normal 0 -1 0
outer loop
vertex -125 25 0
vertex -150 25 3
vertex -150 25 0
endloop
endfacet
facet normal 0 1 0
outer loop
vertex -150 150 0
vertex -25 150 3
vertex -25 150 0
endloop
endfacet
facet normal 0 1 0
outer loop
vertex -25 150 3
vertex -150 150 0
vertex -150 150 3
endloop
endfacet
facet normal 0 1 0
outer loop
vertex 25 150 0
vertex 150 150 3
vertex 150 150 0
endloop
endfacet
facet normal 0 1 0
outer loop
vertex 150 150 3
vertex 25 150 0
vertex 25 150 3
endloop
endfacet
facet normal 0 -1 0
outer loop
vertex -150 125 3
vertex -25 125 0
vertex -25 125 3
endloop
endfacet
facet normal 0 -1 0
outer loop
vertex -25 125 0
vertex -150 125 3
vertex -150 125 0
endloop
endfacet
facet normal 0 -1 0
outer loop
vertex 25 125 3
vertex 150 125 0
vertex 150 125 3
endloop
endfacet
facet normal 0 -1 0
outer loop
vertex 150 125 0
vertex 25 125 3
vertex 25 125 0
endloop
endfacet
facet normal 0 0 1
outer loop
vertex -125 25 3
vertex -25 -25 3
vertex -25 25 3
endloop
endfacet
facet normal 0 0 1
outer loop
vertex -25 -25 3
vertex -125 25 3
vertex -125 -25 3
endloop
endfacet
facet normal 0 0 1
outer loop
vertex -150 -125 3
vertex -25 -150 3
vertex -25 -125 3
endloop
endfacet
facet normal 0 0 1
outer loop
vertex -25 -150 3
vertex -150 -125 3
vertex -150 -150 3
endloop
endfacet
facet normal 0 0 1
outer loop
vertex 25 25 3
vertex 125 -25 3
vertex 125 25 3
endloop
endfacet
facet normal 0 0 1
outer loop
vertex 125 -25 3
vertex 25 25 3
vertex 25 -25 3
endloop
endfacet
facet normal 0 0 1
outer loop
vertex 150 125 3
vertex 125 25 3
vertex 150 25 3
endloop
endfacet
facet normal 0 0 1
outer loop
vertex 25 125 3
vertex 125 25 3
vertex 150 125 3
endloop
endfacet
facet normal 0 0 1
outer loop
vertex 25 125 3
vertex 25 25 3
vertex 125 25 3
endloop
endfacet
facet normal 0 0 1
outer loop
vertex -25 125 3
vertex 25 25 3
vertex 25 125 3
endloop
endfacet
facet normal 0 0 1
outer loop
vertex -25 125 3
vertex -25 25 3
vertex 25 25 3
endloop
endfacet
facet normal 0 0 1
outer loop
vertex -25 125 3
vertex -125 25 3
vertex -25 25 3
endloop
endfacet
facet normal 0 0 1
outer loop
vertex -150 125 3
vertex -125 25 3
vertex -25 125 3
endloop
endfacet
facet normal 0 0 1
outer loop
vertex -125 25 3
vertex -150 125 3
vertex -150 25 3
endloop
endfacet
facet normal 0 0 1
outer loop
vertex 25 150 3
vertex 150 125 3
vertex 150 150 3
endloop
endfacet
facet normal 0 0 1
outer loop
vertex 150 125 3
vertex 25 150 3
vertex 25 125 3
endloop
endfacet
facet normal 0 0 1
outer loop
vertex 125 -25 3
vertex 150 -125 3
vertex 150 -25 3
endloop
endfacet
facet normal 0 0 1
outer loop
vertex 25 -25 3
vertex 150 -125 3
vertex 125 -25 3
endloop
endfacet
facet normal 0 0 1
outer loop
vertex 25 -25 3
vertex 25 -125 3
vertex 150 -125 3
endloop
endfacet
facet normal 0 0 1
outer loop
vertex -25 -25 3
vertex 25 -125 3
vertex 25 -25 3
endloop
endfacet
facet normal 0 0 1
outer loop
vertex -25 -25 3
vertex -25 -125 3
vertex 25 -125 3
endloop
endfacet
facet normal 0 0 1
outer loop
vertex -125 -25 3
vertex -25 -125 3
vertex -25 -25 3
endloop
endfacet
facet normal 0 0 1
outer loop
vertex -150 -25 3
vertex -25 -125 3
vertex -125 -25 3
endloop
endfacet
facet normal 0 0 1
outer loop
vertex -25 -125 3
vertex -150 -25 3
vertex -150 -125 3
endloop
endfacet
facet normal 0 0 1
outer loop
vertex 25 -125 3
vertex 150 -150 3
vertex 150 -125 3
endloop
endfacet
facet normal 0 0 1
outer loop
vertex 150 -150 3
vertex 25 -125 3
vertex 25 -150 3
endloop
endfacet
facet normal 0 0 1
outer loop
vertex -25 150 3
vertex -150 125 3
vertex -25 125 3
endloop
endfacet
facet normal 0 0 1
outer loop
vertex -150 125 3
vertex -25 150 3
vertex -150 150 3
endloop
endfacet
facet normal 0 0 -1
outer loop
vertex -150 -150 0
vertex -25 -125 0
vertex -25 -150 0
endloop
endfacet
facet normal 0 0 -1
outer loop
vertex -25 -125 0
vertex -150 -150 0
vertex -150 -125 0
endloop
endfacet
facet normal 0 0 -1
outer loop
vertex -125 -25 0
vertex -25 25 0
vertex -25 -25 0
endloop
endfacet
facet normal 0 0 -1
outer loop
vertex -25 25 0
vertex -125 -25 0
vertex -125 25 0
endloop
endfacet
facet normal 0 0 -1
outer loop
vertex 150 -150 0
vertex 25 -125 0
vertex 150 -125 0
endloop
endfacet
facet normal 0 0 -1
outer loop
vertex 25 -125 0
vertex 150 -150 0
vertex 25 -150 0
endloop
endfacet
facet normal 0 0 -1
outer loop
vertex -150 125 0
vertex -25 150 0
vertex -25 125 0
endloop
endfacet
facet normal 0 0 -1
outer loop
vertex -25 150 0
vertex -150 125 0
vertex -150 150 0
endloop
endfacet
facet normal 0 0 -1
outer loop
vertex 150 125 0
vertex 25 150 0
vertex 150 150 0
endloop
endfacet
facet normal 0 0 -1
outer loop
vertex 25 150 0
vertex 150 125 0
vertex 25 125 0
endloop
endfacet
facet normal 0 0 -1
outer loop
vertex 125 25 0
vertex 150 125 0
vertex 150 25 0
endloop
endfacet
facet normal 0 0 -1
outer loop
vertex 125 25 0
vertex 25 125 0
vertex 150 125 0
endloop
endfacet
facet normal 0 0 -1
outer loop
vertex 25 25 0
vertex 25 125 0
vertex 125 25 0
endloop
endfacet
facet normal 0 0 -1
outer loop
vertex 25 25 0
vertex -25 125 0
vertex 25 125 0
endloop
endfacet
facet normal 0 0 -1
outer loop
vertex -25 25 0
vertex -25 125 0
vertex 25 25 0
endloop
endfacet
facet normal 0 0 -1
outer loop
vertex -125 25 0
vertex -25 125 0
vertex -25 25 0
endloop
endfacet
facet normal 0 0 -1
outer loop
vertex -125 25 0
vertex -150 125 0
vertex -25 125 0
endloop
endfacet
facet normal 0 0 -1
outer loop
vertex -150 125 0
vertex -125 25 0
vertex -150 25 0
endloop
endfacet
facet normal 0 0 -1
outer loop
vertex 125 -25 0
vertex 25 25 0
vertex 125 25 0
endloop
endfacet
facet normal 0 0 -1
outer loop
vertex 25 25 0
vertex 125 -25 0
vertex 25 -25 0
endloop
endfacet
facet normal 0 0 -1
outer loop
vertex 150 -125 0
vertex 125 -25 0
vertex 150 -25 0
endloop
endfacet
facet normal 0 0 -1
outer loop
vertex 150 -125 0
vertex 25 -25 0
vertex 125 -25 0
endloop
endfacet
facet normal 0 0 -1
outer loop
vertex 25 -125 0
vertex 25 -25 0
vertex 150 -125 0
endloop
endfacet
facet normal 0 0 -1
outer loop
vertex 25 -125 0
vertex -25 -25 0
vertex 25 -25 0
endloop
endfacet
facet normal 0 0 -1
outer loop
vertex -25 -125 0
vertex -25 -25 0
vertex 25 -125 0
endloop
endfacet
facet normal 0 0 -1
outer loop
vertex -25 -125 0
vertex -125 -25 0
vertex -25 -25 0
endloop
endfacet
facet normal 0 0 -1
outer loop
vertex -150 -125 0
vertex -125 -25 0
vertex -25 -125 0
endloop
endfacet
facet normal 0 0 -1
outer loop
vertex -125 -25 0
vertex -150 -125 0
vertex -150 -25 0
endloop
endfacet
endsolid JSxCAD
