<?xml version="1.0" encoding="UTF-8"?>
<!-- Generated by jsxcad -->
<!DOCTYPE svg PUBLIC "-//W3C//DTD SVG 1.1 Tiny//EN" "http://www.w3.org/Graphics/SVG/1.1/DTD/svg11-tiny.dtd">
<svg viewBox="-250 -250 500 500" width="500" height="500" xmlns="http://www.w3.org/2000/svg"><path d="M28.663917895399777,122.5876206752032L-101.21096344028733,-111.27976896931891L25.916750365743997,118.69349292761423z" style="fill:rgb(19,60,139)"/><path d="M-31.30687586950242,-146.00496980871802L83.27891854830725,95.78927431273048L82.00506416597818,91.16623844534703z" style="fill:rgb(245,171,144)"/><path d="M32.459331954674134,125.74259228845419L-98.49468339279714,-107.71104462860663L28.663917895399777,122.5876206752032z" style="fill:rgb(32,47,158)"/><path d="M83.27891854830725,95.78927431273048L-30.893068590208976,-136.56223008227292L83.3294485823139,100.7869704828377z" style="fill:rgb(247,153,162)"/><path d="M37.15674352909883,128.016094737005L-94.43302610326458,-105.01095526913633L32.459331954674134,125.74259228845419z" style="fill:rgb(49,39,175)"/><path d="M83.3294485823139,100.7869704828377L-32.93552226728812,-131.22987760035457L82.13905296504115,105.95308340194805z" style="fill:rgb(243,134,179)"/><path d="M-82.93322424298032,-102.68998471991141L37.15674352909883,128.016094737005L42.56677956945403,129.3009711430116z" style="fill:rgb(69,33,191)"/><path d="M82.13905296504115,105.95308340194805L-36.41114784301694,-125.7832739774131L79.74438556791706,111.06901181116247z" style="fill:rgb(235,115,194)"/><path d="M-75.96254297740735,-103.197770532095L42.56677956945403,129.3009711430116L48.464071050505055,129.53191951600354z" style="fill:rgb(91,32,204)"/><path d="M79.74438556791706,111.06901181116247L-41.185703542099105,-120.45869730144403L76.2369592976249,115.91381460692514z" style="fill:rgb(222,96,207)"/><path d="M-68.56328960289542,-104.82048131661286L48.464071050505055,129.53191951600354L54.597030408770266,128.69038331568638z" style="fill:rgb(115,34,214)"/><path d="M76.2369592976249,115.91381460692514L-47.06127446642887,-115.49175477254836L71.76060686194904,120.27517116746776z" style="fill:rgb(205,79,215)"/><path d="M-47.06127446642887,-115.49175477254836L66.5056169589797,123.96042904320153L71.76060686194904,120.27517116746776z" style="fill:rgb(185,63,221)"/><path d="M-61.05973068928299,-107.49435225741303L54.597030408770266,128.69038331568638L60.699798523423105,126.80686095490806z" style="fill:rgb(139,40,220)"/><path d="M-53.78464405726977,-111.10476182885935L60.699798523423105,126.80686095490806L66.5056169589797,123.96042904320153z" style="fill:rgb(163,50,222)"/><path d="M-101.21096344028733,-111.27976896931891L28.663917895399777,122.5876206752032L-98.49468339279714,-107.71104462860663z" style="fill:rgb(19,60,139)"/><path d="M83.27891854830725,95.78927431273048L-31.30687586950242,-146.00496980871802L-30.3504141684148,-141.55519421402164z" style="fill:rgb(245,171,144)"/><path d="M-98.49468339279714,-107.71104462860663L32.459331954674134,125.74259228845419L-94.43302610326458,-105.01095526913633z" style="fill:rgb(32,47,158)"/><path d="M-30.893068590208976,-136.56223008227292L83.27891854830725,95.78927431273048L-30.3504141684148,-141.55519421402164z" style="fill:rgb(247,153,162)"/><path d="M-94.43302610326458,-105.01095526913633L37.15674352909883,128.016094737005L-89.17642284580826,-103.30795471418708z" style="fill:rgb(49,39,175)"/><path d="M-32.93552226728812,-131.22987760035457L83.3294485823139,100.7869704828377L-30.893068590208976,-136.56223008227292z" style="fill:rgb(243,134,179)"/><path d="M37.15674352909883,128.016094737005L-82.93322424298032,-102.68998471991141L-89.17642284580826,-103.30795471418708z" style="fill:rgb(69,33,191)"/><path d="M-36.41114784301694,-125.7832739774131L82.13905296504115,105.95308340194805L-32.93552226728812,-131.22987760035457z" style="fill:rgb(235,115,194)"/><path d="M42.56677956945403,129.3009711430116L-75.96254297740735,-103.197770532095L-82.93322424298032,-102.68998471991141z" style="fill:rgb(91,32,204)"/><path d="M-41.185703542099105,-120.45869730144403L79.74438556791706,111.06901181116247L-36.41114784301694,-125.7832739774131z" style="fill:rgb(222,96,207)"/><path d="M48.464071050505055,129.53191951600354L-68.56328960289542,-104.82048131661286L-75.96254297740735,-103.197770532095z" style="fill:rgb(115,34,214)"/><path d="M-47.06127446642887,-115.49175477254836L76.2369592976249,115.91381460692514L-41.185703542099105,-120.45869730144403z" style="fill:rgb(205,79,215)"/><path d="M54.597030408770266,128.69038331568638L-61.05973068928299,-107.49435225741303L-68.56328960289542,-104.82048131661286z" style="fill:rgb(139,40,220)"/><path d="M66.5056169589797,123.96042904320153L-47.06127446642887,-115.49175477254836L-53.78464405726977,-111.10476182885935z" style="fill:rgb(185,63,221)"/><path d="M60.699798523423105,126.80686095490806L-53.78464405726977,-111.10476182885935L-61.05973068928299,-107.49435225741303z" style="fill:rgb(163,50,222)"/><path d="M-93.56034516047602,-135.88588825999105L-94.43302610326458,-105.01095526913633L-88.33790669449525,-140.76542664354zM-97.7381070413437,-130.72583725078937L-98.49468339279714,-107.71104462860663L-93.56034516047602,-135.88588825999105zM-88.33790669449525,-140.76542664354L-89.17642284580826,-103.30795471418708L-82.27646358588858,-145.18177575835483zM-100.69911000561832,-125.48140709038353L-101.21096344028733,-111.27976896931891L-97.7381070413437,-130.72583725078937zM-82.27646358588858,-145.18177575835483L-82.93322424298032,-102.68998471991141L-75.60824392351203,-148.9705462543732zM-102.49271378160888,-115.55635509127984L-100.69911000561832,-125.48140709038353L-102.31196519242444,-120.35652950129919zM-75.60824392351203,-148.9705462543732L-75.96254297740735,-103.197770532095L-68.58497006381864,-151.98993489018915zM-68.58497006381864,-151.98993489018915L-68.56328960289542,-104.82048131661286L-61.47080973237017,-154.12444315959652zM-100.69911000561832,-125.48140709038353L-102.49271378160888,-115.55635509127984L-101.21096344028733,-111.27976896931891zM-61.47080973237017,-154.12444315959652L-61.05973068928299,-107.49435225741303L-54.535080859491785,-155.28844720141052zM-97.7381070413437,-130.72583725078937L-101.21096344028733,-111.27976896931891L-98.49468339279714,-107.71104462860663zM-54.535080859491785,-155.28844720141052L-53.78464405726977,-111.10476182885935L-48.04459820468694,-155.42931582863446zM-48.04459820468694,-155.42931582863446L-47.06127446642887,-115.49175477254836L-42.25546419112552,-154.53022121827283zM-93.56034516047602,-135.88588825999105L-98.49468339279714,-107.71104462860663L-94.43302610326458,-105.01095526913633zM-42.25546419112552,-154.53022121827283L-41.185703542099105,-120.45869730144403L-37.40420998626009,-152.61252750906462zM-88.33790669449525,-140.76542664354L-94.43302610326458,-105.01095526913633L-89.17642284580826,-103.30795471418708zM-37.40420998626009,-152.61252750906462L-36.41114784301694,-125.7832739774131L-33.69838617009327,-149.73718075944532zM-82.27646358588858,-145.18177575835483L-89.17642284580826,-103.30795471418708L-82.93322424298032,-102.68998471991141zM-33.69838617009327,-149.73718075944532L-32.93552226728812,-131.22987760035457L-31.30687586950242,-146.00496980871802zM-75.60824392351203,-148.9705462543732L-82.93322424298032,-102.68998471991141L-75.96254297740735,-103.197770532095zM-31.30687586950242,-146.00496980871802L-30.893068590208976,-136.56223008227292L-30.3504141684148,-141.55519421402164zM-68.58497006381864,-151.98993489018915L-75.96254297740735,-103.197770532095L-68.56328960289542,-104.82048131661286zM-61.47080973237017,-154.12444315959652L-68.56328960289542,-104.82048131661286L-61.05973068928299,-107.49435225741303zM-31.30687586950242,-146.00496980871802L-32.93552226728812,-131.22987760035457L-30.893068590208976,-136.56223008227292zM-54.535080859491785,-155.28844720141052L-61.05973068928299,-107.49435225741303L-53.78464405726977,-111.10476182885935zM-33.69838617009327,-149.73718075944532L-36.41114784301694,-125.7832739774131L-32.93552226728812,-131.22987760035457zM-48.04459820468694,-155.42931582863446L-53.78464405726977,-111.10476182885935L-47.06127446642887,-115.49175477254836zM-37.40420998626009,-152.61252750906462L-41.185703542099105,-120.45869730144403L-36.41114784301694,-125.7832739774131zM-42.25546419112552,-154.53022121827283L-47.06127446642887,-115.49175477254836L-41.185703542099105,-120.45869730144403z" style="fill:rgb(83,212,212)"/></svg>
