solid JSxCAD
facet normal -1 0 0
outer loop
vertex -15 -12.5 0
vertex -15 -2.5 3
vertex -15 -2.5 0
endloop
endfacet
facet normal -1 0 0
outer loop
vertex -15 -12.5 0
vertex -15 -12.5 3
vertex -15 -2.5 3
endloop
endfacet
facet normal -1 0 0
outer loop
vertex -15 -15 0
vertex -15 -12.5 3
vertex -15 -12.5 0
endloop
endfacet
facet normal -1 0 0
outer loop
vertex -15 -12.5 3
vertex -15 -15 0
vertex -15 -15 3
endloop
endfacet
facet normal -1 0 0
outer loop
vertex -15 12.5 0
vertex -15 15 3
vertex -15 15 0
endloop
endfacet
facet normal -1 0 0
outer loop
vertex -15 12.5 0
vertex -15 12.5 3
vertex -15 15 3
endloop
endfacet
facet normal -1 0 0
outer loop
vertex -15 2.5 0
vertex -15 12.5 3
vertex -15 12.5 0
endloop
endfacet
facet normal -1 0 0
outer loop
vertex -15 12.5 3
vertex -15 2.5 0
vertex -15 2.5 3
endloop
endfacet
facet normal 0 1 0
outer loop
vertex -15 -12.5 0
vertex -2.5 -12.5 3
vertex -2.5 -12.5 0
endloop
endfacet
facet normal 0 1 0
outer loop
vertex -2.5 -12.5 3
vertex -15 -12.5 0
vertex -15 -12.5 3
endloop
endfacet
facet normal 0 1 0
outer loop
vertex 2.5 -12.5 0
vertex 15 -12.5 3
vertex 15 -12.5 0
endloop
endfacet
facet normal 0 1 0
outer loop
vertex 15 -12.5 3
vertex 2.5 -12.5 0
vertex 2.5 -12.5 3
endloop
endfacet
facet normal 1 0 0
outer loop
vertex -2.5 -15 3
vertex -2.5 -12.5 0
vertex -2.5 -12.5 3
endloop
endfacet
facet normal 1 0 0
outer loop
vertex -2.5 -12.5 0
vertex -2.5 -15 3
vertex -2.5 -15 0
endloop
endfacet
facet normal 1 0 0
outer loop
vertex -2.5 -2.5 3
vertex -2.5 2.5 0
vertex -2.5 2.5 3
endloop
endfacet
facet normal 1 0 0
outer loop
vertex -2.5 2.5 0
vertex -2.5 -2.5 3
vertex -2.5 -2.5 0
endloop
endfacet
facet normal 1 0 0
outer loop
vertex -2.5 12.5 3
vertex -2.5 15 0
vertex -2.5 15 3
endloop
endfacet
facet normal 1 0 0
outer loop
vertex -2.5 15 0
vertex -2.5 12.5 3
vertex -2.5 12.5 0
endloop
endfacet
facet normal 0 -1 0
outer loop
vertex -15 -15 3
vertex -2.5 -15 0
vertex -2.5 -15 3
endloop
endfacet
facet normal 0 -1 0
outer loop
vertex -2.5 -15 0
vertex -15 -15 3
vertex -15 -15 0
endloop
endfacet
facet normal 0 -1 0
outer loop
vertex 2.5 -15 3
vertex 15 -15 0
vertex 15 -15 3
endloop
endfacet
facet normal 0 -1 0
outer loop
vertex 15 -15 0
vertex 2.5 -15 3
vertex 2.5 -15 0
endloop
endfacet
facet normal -1 0 0
outer loop
vertex 2.5 -12.5 0
vertex 2.5 -15 3
vertex 2.5 -12.5 3
endloop
endfacet
facet normal -1 0 0
outer loop
vertex 2.5 -15 3
vertex 2.5 -12.5 0
vertex 2.5 -15 0
endloop
endfacet
facet normal -1 0 0
outer loop
vertex 2.5 2.5 0
vertex 2.5 -2.5 3
vertex 2.5 2.5 3
endloop
endfacet
facet normal -1 0 0
outer loop
vertex 2.5 -2.5 3
vertex 2.5 2.5 0
vertex 2.5 -2.5 0
endloop
endfacet
facet normal -1 0 0
outer loop
vertex 2.5 15 0
vertex 2.5 12.5 3
vertex 2.5 15 3
endloop
endfacet
facet normal -1 0 0
outer loop
vertex 2.5 12.5 3
vertex 2.5 15 0
vertex 2.5 12.5 0
endloop
endfacet
facet normal 1 0 0
outer loop
vertex 15 -12.5 3
vertex 15 -2.5 0
vertex 15 -2.5 3
endloop
endfacet
facet normal 1 0 0
outer loop
vertex 15 -12.5 3
vertex 15 -12.5 0
vertex 15 -2.5 0
endloop
endfacet
facet normal 1 0 0
outer loop
vertex 15 -15 3
vertex 15 -12.5 0
vertex 15 -12.5 3
endloop
endfacet
facet normal 1 0 0
outer loop
vertex 15 -12.5 0
vertex 15 -15 3
vertex 15 -15 0
endloop
endfacet
facet normal 1 0 0
outer loop
vertex 15 12.5 3
vertex 15 15 0
vertex 15 15 3
endloop
endfacet
facet normal 1 0 0
outer loop
vertex 15 12.5 3
vertex 15 12.5 0
vertex 15 15 0
endloop
endfacet
facet normal 1 0 0
outer loop
vertex 15 2.5 3
vertex 15 12.5 0
vertex 15 12.5 3
endloop
endfacet
facet normal 1 0 0
outer loop
vertex 15 12.5 0
vertex 15 2.5 3
vertex 15 2.5 0
endloop
endfacet
facet normal 0 1 0
outer loop
vertex 12.5 -2.5 0
vertex 15 -2.5 3
vertex 15 -2.5 0
endloop
endfacet
facet normal 0 1 0
outer loop
vertex 12.5 -2.5 0
vertex 12.5 -2.5 3
vertex 15 -2.5 3
endloop
endfacet
facet normal 0 1 0
outer loop
vertex 2.5 -2.5 0
vertex 12.5 -2.5 3
vertex 12.5 -2.5 0
endloop
endfacet
facet normal 0 1 0
outer loop
vertex 2.5 -2.5 0
vertex 2.5 -2.5 3
vertex 12.5 -2.5 3
endloop
endfacet
facet normal 0 1 0
outer loop
vertex -2.5 -2.5 0
vertex 2.5 -2.5 3
vertex 2.5 -2.5 0
endloop
endfacet
facet normal 0 1 0
outer loop
vertex -2.5 -2.5 0
vertex -2.5 -2.5 3
vertex 2.5 -2.5 3
endloop
endfacet
facet normal 0 1 0
outer loop
vertex -12.5 -2.5 0
vertex -2.5 -2.5 3
vertex -2.5 -2.5 0
endloop
endfacet
facet normal 0 1 0
outer loop
vertex -12.5 -2.5 0
vertex -12.5 -2.5 3
vertex -2.5 -2.5 3
endloop
endfacet
facet normal 0 1 0
outer loop
vertex -15 -2.5 0
vertex -12.5 -2.5 3
vertex -12.5 -2.5 0
endloop
endfacet
facet normal 0 1 0
outer loop
vertex -12.5 -2.5 3
vertex -15 -2.5 0
vertex -15 -2.5 3
endloop
endfacet
facet normal 0 -1 0
outer loop
vertex 2.5 -12.5 3
vertex 15 -12.5 0
vertex 15 -12.5 3
endloop
endfacet
facet normal 0 -1 0
outer loop
vertex 2.5 -12.5 3
vertex 2.5 -12.5 0
vertex 15 -12.5 0
endloop
endfacet
facet normal 0 -1 0
outer loop
vertex -2.5 -12.5 3
vertex 2.5 -12.5 0
vertex 2.5 -12.5 3
endloop
endfacet
facet normal 0 -1 0
outer loop
vertex -2.5 -12.5 3
vertex -2.5 -12.5 0
vertex 2.5 -12.5 0
endloop
endfacet
facet normal 0 -1 0
outer loop
vertex -15 -12.5 3
vertex -2.5 -12.5 0
vertex -2.5 -12.5 3
endloop
endfacet
facet normal 0 -1 0
outer loop
vertex -2.5 -12.5 0
vertex -15 -12.5 3
vertex -15 -12.5 0
endloop
endfacet
facet normal -1 0 0
outer loop
vertex -12.5 -2.5 0
vertex -12.5 2.5 3
vertex -12.5 2.5 0
endloop
endfacet
facet normal -1 0 0
outer loop
vertex -12.5 2.5 3
vertex -12.5 -2.5 0
vertex -12.5 -2.5 3
endloop
endfacet
facet normal 0 1 0
outer loop
vertex -12.5 2.5 0
vertex -2.5 2.5 3
vertex -2.5 2.5 0
endloop
endfacet
facet normal 0 1 0
outer loop
vertex -2.5 2.5 3
vertex -12.5 2.5 0
vertex -12.5 2.5 3
endloop
endfacet
facet normal 0 1 0
outer loop
vertex 2.5 2.5 0
vertex 12.5 2.5 3
vertex 12.5 2.5 0
endloop
endfacet
facet normal 0 1 0
outer loop
vertex 12.5 2.5 3
vertex 2.5 2.5 0
vertex 2.5 2.5 3
endloop
endfacet
facet normal 0 -1 0
outer loop
vertex -12.5 -2.5 3
vertex -2.5 -2.5 0
vertex -2.5 -2.5 3
endloop
endfacet
facet normal 0 -1 0
outer loop
vertex -2.5 -2.5 0
vertex -12.5 -2.5 3
vertex -12.5 -2.5 0
endloop
endfacet
facet normal 0 -1 0
outer loop
vertex 2.5 -2.5 3
vertex 12.5 -2.5 0
vertex 12.5 -2.5 3
endloop
endfacet
facet normal 0 -1 0
outer loop
vertex 12.5 -2.5 0
vertex 2.5 -2.5 3
vertex 2.5 -2.5 0
endloop
endfacet
facet normal 1 0 0
outer loop
vertex 12.5 -2.5 3
vertex 12.5 2.5 0
vertex 12.5 2.5 3
endloop
endfacet
facet normal 1 0 0
outer loop
vertex 12.5 2.5 0
vertex 12.5 -2.5 3
vertex 12.5 -2.5 0
endloop
endfacet
facet normal 0 1 0
outer loop
vertex 2.5 12.5 0
vertex 15 12.5 3
vertex 15 12.5 0
endloop
endfacet
facet normal 0 1 0
outer loop
vertex 2.5 12.5 0
vertex 2.5 12.5 3
vertex 15 12.5 3
endloop
endfacet
facet normal 0 1 0
outer loop
vertex -2.5 12.5 0
vertex 2.5 12.5 3
vertex 2.5 12.5 0
endloop
endfacet
facet normal 0 1 0
outer loop
vertex -2.5 12.5 0
vertex -2.5 12.5 3
vertex 2.5 12.5 3
endloop
endfacet
facet normal 0 1 0
outer loop
vertex -15 12.5 0
vertex -2.5 12.5 3
vertex -2.5 12.5 0
endloop
endfacet
facet normal 0 1 0
outer loop
vertex -2.5 12.5 3
vertex -15 12.5 0
vertex -15 12.5 3
endloop
endfacet
facet normal 0 -1 0
outer loop
vertex 12.5 2.5 3
vertex 15 2.5 0
vertex 15 2.5 3
endloop
endfacet
facet normal 0 -1 0
outer loop
vertex 12.5 2.5 3
vertex 12.5 2.5 0
vertex 15 2.5 0
endloop
endfacet
facet normal 0 -1 0
outer loop
vertex 2.5 2.5 3
vertex 12.5 2.5 0
vertex 12.5 2.5 3
endloop
endfacet
facet normal 0 -1 0
outer loop
vertex 2.5 2.5 3
vertex 2.5 2.5 0
vertex 12.5 2.5 0
endloop
endfacet
facet normal 0 -1 0
outer loop
vertex -2.5 2.5 3
vertex 2.5 2.5 0
vertex 2.5 2.5 3
endloop
endfacet
facet normal 0 -1 0
outer loop
vertex -2.5 2.5 3
vertex -2.5 2.5 0
vertex 2.5 2.5 0
endloop
endfacet
facet normal 0 -1 0
outer loop
vertex -12.5 2.5 3
vertex -2.5 2.5 0
vertex -2.5 2.5 3
endloop
endfacet
facet normal 0 -1 0
outer loop
vertex -12.5 2.5 3
vertex -12.5 2.5 0
vertex -2.5 2.5 0
endloop
endfacet
facet normal 0 -1 0
outer loop
vertex -15 2.5 3
vertex -12.5 2.5 0
vertex -12.5 2.5 3
endloop
endfacet
facet normal 0 -1 0
outer loop
vertex -12.5 2.5 0
vertex -15 2.5 3
vertex -15 2.5 0
endloop
endfacet
facet normal 0 1 0
outer loop
vertex -15 15 0
vertex -2.5 15 3
vertex -2.5 15 0
endloop
endfacet
facet normal 0 1 0
outer loop
vertex -2.5 15 3
vertex -15 15 0
vertex -15 15 3
endloop
endfacet
facet normal 0 1 0
outer loop
vertex 2.5 15 0
vertex 15 15 3
vertex 15 15 0
endloop
endfacet
facet normal 0 1 0
outer loop
vertex 15 15 3
vertex 2.5 15 0
vertex 2.5 15 3
endloop
endfacet
facet normal 0 -1 0
outer loop
vertex -15 12.5 3
vertex -2.5 12.5 0
vertex -2.5 12.5 3
endloop
endfacet
facet normal 0 -1 0
outer loop
vertex -2.5 12.5 0
vertex -15 12.5 3
vertex -15 12.5 0
endloop
endfacet
facet normal 0 -1 0
outer loop
vertex 2.5 12.5 3
vertex 15 12.5 0
vertex 15 12.5 3
endloop
endfacet
facet normal 0 -1 0
outer loop
vertex 15 12.5 0
vertex 2.5 12.5 3
vertex 2.5 12.5 0
endloop
endfacet
facet normal 0 0 1
outer loop
vertex -12.5 2.5 3
vertex -2.5 -2.5 3
vertex -2.5 2.5 3
endloop
endfacet
facet normal 0 0 1
outer loop
vertex -2.5 -2.5 3
vertex -12.5 2.5 3
vertex -12.5 -2.5 3
endloop
endfacet
facet normal 0 0 1
outer loop
vertex -15 -12.5 3
vertex -2.5 -15 3
vertex -2.5 -12.5 3
endloop
endfacet
facet normal 0 0 1
outer loop
vertex -2.5 -15 3
vertex -15 -12.5 3
vertex -15 -15 3
endloop
endfacet
facet normal 0 0 1
outer loop
vertex 2.5 2.5 3
vertex 12.5 -2.5 3
vertex 12.5 2.5 3
endloop
endfacet
facet normal 0 0 1
outer loop
vertex 12.5 -2.5 3
vertex 2.5 2.5 3
vertex 2.5 -2.5 3
endloop
endfacet
facet normal 0 0 1
outer loop
vertex 15 12.5 3
vertex 12.5 2.5 3
vertex 15 2.5 3
endloop
endfacet
facet normal 0 0 1
outer loop
vertex 2.5 12.5 3
vertex 12.5 2.5 3
vertex 15 12.5 3
endloop
endfacet
facet normal 0 0 1
outer loop
vertex 2.5 12.5 3
vertex 2.5 2.5 3
vertex 12.5 2.5 3
endloop
endfacet
facet normal 0 0 1
outer loop
vertex -2.5 12.5 3
vertex 2.5 2.5 3
vertex 2.5 12.5 3
endloop
endfacet
facet normal 0 0 1
outer loop
vertex -2.5 12.5 3
vertex -2.5 2.5 3
vertex 2.5 2.5 3
endloop
endfacet
facet normal 0 0 1
outer loop
vertex -2.5 12.5 3
vertex -12.5 2.5 3
vertex -2.5 2.5 3
endloop
endfacet
facet normal 0 0 1
outer loop
vertex -15 12.5 3
vertex -12.5 2.5 3
vertex -2.5 12.5 3
endloop
endfacet
facet normal 0 0 1
outer loop
vertex -12.5 2.5 3
vertex -15 12.5 3
vertex -15 2.5 3
endloop
endfacet
facet normal 0 0 1
outer loop
vertex 2.5 15 3
vertex 15 12.5 3
vertex 15 15 3
endloop
endfacet
facet normal 0 0 1
outer loop
vertex 15 12.5 3
vertex 2.5 15 3
vertex 2.5 12.5 3
endloop
endfacet
facet normal 0 0 1
outer loop
vertex 12.5 -2.5 3
vertex 15 -12.5 3
vertex 15 -2.5 3
endloop
endfacet
facet normal 0 0 1
outer loop
vertex 2.5 -2.5 3
vertex 15 -12.5 3
vertex 12.5 -2.5 3
endloop
endfacet
facet normal 0 0 1
outer loop
vertex 2.5 -2.5 3
vertex 2.5 -12.5 3
vertex 15 -12.5 3
endloop
endfacet
facet normal 0 0 1
outer loop
vertex -2.5 -2.5 3
vertex 2.5 -12.5 3
vertex 2.5 -2.5 3
endloop
endfacet
facet normal 0 0 1
outer loop
vertex -2.5 -2.5 3
vertex -2.5 -12.5 3
vertex 2.5 -12.5 3
endloop
endfacet
facet normal 0 0 1
outer loop
vertex -12.5 -2.5 3
vertex -2.5 -12.5 3
vertex -2.5 -2.5 3
endloop
endfacet
facet normal 0 0 1
outer loop
vertex -15 -2.5 3
vertex -2.5 -12.5 3
vertex -12.5 -2.5 3
endloop
endfacet
facet normal 0 0 1
outer loop
vertex -2.5 -12.5 3
vertex -15 -2.5 3
vertex -15 -12.5 3
endloop
endfacet
facet normal 0 0 1
outer loop
vertex 2.5 -12.5 3
vertex 15 -15 3
vertex 15 -12.5 3
endloop
endfacet
facet normal 0 0 1
outer loop
vertex 15 -15 3
vertex 2.5 -12.5 3
vertex 2.5 -15 3
endloop
endfacet
facet normal 0 0 1
outer loop
vertex -2.5 15 3
vertex -15 12.5 3
vertex -2.5 12.5 3
endloop
endfacet
facet normal 0 0 1
outer loop
vertex -15 12.5 3
vertex -2.5 15 3
vertex -15 15 3
endloop
endfacet
facet normal 0 0 -1
outer loop
vertex -12.5 -2.5 0
vertex -2.5 2.5 0
vertex -2.5 -2.5 0
endloop
endfacet
facet normal 0 0 -1
outer loop
vertex -2.5 2.5 0
vertex -12.5 -2.5 0
vertex -12.5 2.5 0
endloop
endfacet
facet normal 0 0 -1
outer loop
vertex -15 -15 0
vertex -2.5 -12.5 0
vertex -2.5 -15 0
endloop
endfacet
facet normal 0 0 -1
outer loop
vertex -2.5 -12.5 0
vertex -15 -15 0
vertex -15 -12.5 0
endloop
endfacet
facet normal 0 0 -1
outer loop
vertex 15 -15 0
vertex 2.5 -12.5 0
vertex 15 -12.5 0
endloop
endfacet
facet normal 0 0 -1
outer loop
vertex 2.5 -12.5 0
vertex 15 -15 0
vertex 2.5 -15 0
endloop
endfacet
facet normal 0 0 -1
outer loop
vertex 15 12.5 0
vertex 2.5 15 0
vertex 15 15 0
endloop
endfacet
facet normal 0 0 -1
outer loop
vertex 2.5 15 0
vertex 15 12.5 0
vertex 2.5 12.5 0
endloop
endfacet
facet normal 0 0 -1
outer loop
vertex 12.5 2.5 0
vertex 15 12.5 0
vertex 15 2.5 0
endloop
endfacet
facet normal 0 0 -1
outer loop
vertex 12.5 2.5 0
vertex 2.5 12.5 0
vertex 15 12.5 0
endloop
endfacet
facet normal 0 0 -1
outer loop
vertex 2.5 2.5 0
vertex 2.5 12.5 0
vertex 12.5 2.5 0
endloop
endfacet
facet normal 0 0 -1
outer loop
vertex -2.5 2.5 0
vertex 2.5 12.5 0
vertex 2.5 2.5 0
endloop
endfacet
facet normal 0 0 -1
outer loop
vertex -2.5 2.5 0
vertex -2.5 12.5 0
vertex 2.5 12.5 0
endloop
endfacet
facet normal 0 0 -1
outer loop
vertex -12.5 2.5 0
vertex -2.5 12.5 0
vertex -2.5 2.5 0
endloop
endfacet
facet normal 0 0 -1
outer loop
vertex -12.5 2.5 0
vertex -15 12.5 0
vertex -2.5 12.5 0
endloop
endfacet
facet normal 0 0 -1
outer loop
vertex -15 12.5 0
vertex -12.5 2.5 0
vertex -15 2.5 0
endloop
endfacet
facet normal 0 0 -1
outer loop
vertex 12.5 -2.5 0
vertex 2.5 2.5 0
vertex 12.5 2.5 0
endloop
endfacet
facet normal 0 0 -1
outer loop
vertex 2.5 2.5 0
vertex 12.5 -2.5 0
vertex 2.5 -2.5 0
endloop
endfacet
facet normal 0 0 -1
outer loop
vertex 15 -12.5 0
vertex 12.5 -2.5 0
vertex 15 -2.5 0
endloop
endfacet
facet normal 0 0 -1
outer loop
vertex 15 -12.5 0
vertex 2.5 -2.5 0
vertex 12.5 -2.5 0
endloop
endfacet
facet normal 0 0 -1
outer loop
vertex 2.5 -12.5 0
vertex 2.5 -2.5 0
vertex 15 -12.5 0
endloop
endfacet
facet normal 0 0 -1
outer loop
vertex -2.5 -12.5 0
vertex 2.5 -2.5 0
vertex 2.5 -12.5 0
endloop
endfacet
facet normal 0 0 -1
outer loop
vertex -2.5 -12.5 0
vertex -2.5 -2.5 0
vertex 2.5 -2.5 0
endloop
endfacet
facet normal 0 0 -1
outer loop
vertex -2.5 -12.5 0
vertex -12.5 -2.5 0
vertex -2.5 -2.5 0
endloop
endfacet
facet normal 0 0 -1
outer loop
vertex -15 -12.5 0
vertex -12.5 -2.5 0
vertex -2.5 -12.5 0
endloop
endfacet
facet normal 0 0 -1
outer loop
vertex -12.5 -2.5 0
vertex -15 -12.5 0
vertex -15 -2.5 0
endloop
endfacet
facet normal 0 0 -1
outer loop
vertex -15 12.5 0
vertex -2.5 15 0
vertex -2.5 12.5 0
endloop
endfacet
facet normal 0 0 -1
outer loop
vertex -2.5 15 0
vertex -15 12.5 0
vertex -15 15 0
endloop
endfacet
endsolid JSxCAD
