<?xml version="1.0" encoding="UTF-8"?>
<!-- Generated by jsxcad -->
<!DOCTYPE svg PUBLIC "-//W3C//DTD SVG 1.1 Tiny//EN" "http://www.w3.org/Graphics/SVG/1.1/DTD/svg11-tiny.dtd">
<svg baseProfile="tiny" height="111 mm" width="20 mm" viewBox="0 0 20 111" version="1.1" stroke="black" stroke-width=".1" fill="none" xmlns="http://www.w3.org/2000/svg">
<path d="M19.9487 111 L19.9487 11 L19.7953 111 z"/>
<path d="M19.7953 111 L19.9487 11 L19.7953 11 z"/>
<path d="M19.7953 111 L19.7953 11 L19.5414 111 z"/>
<path d="M19.5414 111 L19.7953 11 L19.5414 11 z"/>
<path d="M19.5414 111 L19.5414 11 L19.1896 111 z"/>
<path d="M19.1896 111 L19.5414 11 L19.1896 11 z"/>
<path d="M19.1896 111 L19.1896 11 L18.7435 111 z"/>
<path d="M18.7435 111 L19.1896 11 L18.7435 11 z"/>
<path d="M18.65187 28.09899 L18.2076 111 L18.65187 111 z"/>
<path d="M18.65187 28.09899 L18.65187 11 L18.2076 11 L18.2076 111 z"/>
<path d="M18.7435 11 L18.65187 28.09899 L18.65187 111 L18.7435 111 z"/>
<path d="M18.65187 28.09899 L18.7435 11 L18.65187 11 z"/>
<path d="M18.2076 111 L18.2076 11 L17.5876 111 z"/>
<path d="M17.5876 111 L18.2076 11 L17.5876 11 z"/>
<path d="M17.5876 111 L17.5876 11 L16.8897 111 z"/>
<path d="M16.8897 111 L17.5876 11 L16.8897 11 z"/>
<path d="M16.8897 111 L16.8897 11 L16.1211 111 z"/>
<path d="M16.1211 111 L16.8897 11 L16.1211 11 z"/>
<path d="M16.1211 111 L16.1211 11 L15.2896 111 z"/>
<path d="M15.2896 111 L16.1211 11 L15.2896 11 z"/>
<path d="M15.2896 111 L15.2896 11 L14.4039 111 z"/>
<path d="M14.4039 111 L15.2896 11 L14.4039 11 z"/>
<path d="M14.4039 111 L14.4039 11 L13.4731 111 z"/>
<path d="M13.4731 111 L14.4039 11 L13.4731 11 z"/>
<path d="M13.4731 111 L13.4731 11 L12.5065 111 z"/>
<path d="M12.5065 111 L13.4731 11 L12.5065 11 z"/>
<path d="M12.5065 111 L12.5065 11 L11.5143 111 z"/>
<path d="M11.5143 111 L12.5065 11 L11.5143 11 z"/>
<path d="M11.5143 111 L11.5143 11 L10.5065 111 z"/>
<path d="M10.5065 111 L11.5143 11 L10.5065 11 z"/>
<path d="M10.5065 111 L10.5065 11 L9.4935 111 z"/>
<path d="M9.4935 111 L10.5065 11 L9.4935 11 z"/>
<path d="M9.4935 111 L9.4935 11 L8.4857 111 z"/>
<path d="M8.4857 111 L9.4935 11 L8.4857 11 z"/>
<path d="M8.4857 111 L8.4857 11 L7.4935 111 z"/>
<path d="M7.4935 111 L8.4857 11 L7.4935 11 z"/>
<path d="M7.4935 111 L7.4935 11 L6.5269 111 z"/>
<path d="M6.5269 111 L7.4935 11 L6.5269 11 z"/>
<path d="M6.5269 111 L6.5269 11 L5.5961 111 z"/>
<path d="M5.5961 111 L6.5269 11 L5.5961 11 z"/>
<path d="M5.5961 111 L5.5961 11 L4.7104 111 z"/>
<path d="M4.7104 111 L5.5961 11 L4.7104 11 z"/>
<path d="M4.7104 111 L4.7104 11 L3.8789 111 z"/>
<path d="M3.8789 111 L4.7104 11 L3.8789 11 z"/>
<path d="M3.8789 111 L3.8789 11 L3.1103 111 z"/>
<path d="M3.1103 111 L3.8789 11 L3.1103 11 z"/>
<path d="M3.1103 111 L3.1103 11 L2.4124 111 z"/>
<path d="M2.4124 111 L3.1103 11 L2.4124 11 z"/>
<path d="M2.4124 111 L2.4124 11 L1.7924 111 z"/>
<path d="M1.7924 111 L2.4124 11 L1.7924 11 z"/>
<path d="M1.7924 11 L1.34813 93.90101 L1.34813 111 L1.7924 111 z"/>
<path d="M1.34813 93.90101 L1.7924 11 L1.34813 11 z"/>
<path d="M1.34813 93.90101 L1.2565 111 L1.34813 111 z"/>
<path d="M1.34813 93.90101 L1.34813 11 L1.2565 11 L1.2565 111 z"/>
<path d="M1.2565 111 L1.2565 11 L0.8104 111 z"/>
<path d="M0.8104 111 L1.2565 11 L0.8104 11 z"/>
<path d="M0.8104 111 L0.8104 11 L0.4586 111 z"/>
<path d="M0.4586 111 L0.8104 11 L0.4586 11 z"/>
<path d="M0.4586 111 L0.4586 11 L0.2047 111 z"/>
<path d="M0.2047 111 L0.4586 11 L0.2047 11 z"/>
<path d="M0.2047 111 L0.2047 11 L0.0513 111 z"/>
<path d="M0.0513 111 L0.2047 11 L0.0513 11 z"/>
<path d="M0.0513 111 L0.0513 11 L0 111 z"/>
<path d="M0 111 L0.0513 11 L0 11 z"/>
<path d="M0 111 L0 11 L0.0513 111 z"/>
<path d="M0.0513 111 L0 11 L0.0513 11 z"/>
<path d="M0.0513 111 L0.0513 11 L0.2047 111 z"/>
<path d="M0.2047 111 L0.0513 11 L0.2047 11 z"/>
<path d="M0.2047 111 L0.2047 11 L0.4586 111 z"/>
<path d="M0.4586 111 L0.2047 11 L0.4586 11 z"/>
<path d="M0.4586 111 L0.4586 11 L0.8104 111 z"/>
<path d="M0.8104 111 L0.4586 11 L0.8104 11 z"/>
<path d="M0.8104 111 L0.8104 11 L1.2565 111 z"/>
<path d="M1.2565 111 L0.8104 11 L1.2565 11 z"/>
<path d="M1.2565 111 L1.2565 11 L1.7924 111 z"/>
<path d="M1.7924 111 L1.2565 11 L1.7924 11 z"/>
<path d="M1.7924 111 L1.7924 11 L2.4124 111 z"/>
<path d="M2.4124 111 L1.7924 11 L2.4124 11 z"/>
<path d="M2.4124 111 L2.4124 11 L3.1103 111 z"/>
<path d="M3.1103 111 L2.4124 11 L3.1103 11 z"/>
<path d="M3.1103 111 L3.1103 11 L3.8789 111 z"/>
<path d="M3.8789 111 L3.1103 11 L3.8789 11 z"/>
<path d="M3.8789 111 L3.8789 11 L4.7104 111 z"/>
<path d="M4.7104 111 L3.8789 11 L4.7104 11 z"/>
<path d="M4.7104 11 L5 43.6973 L5 111 L4.7104 111 z"/>
<path d="M5 43.6973 L4.7104 11 L5 11 z"/>
<path d="M5 43.6973 L5.5961 111 L5 111 z"/>
<path d="M5 43.6973 L5 11 L5.5961 11 L5.5961 111 z"/>
<path d="M5.5961 111 L5.5961 11 L6.5269 111 z"/>
<path d="M6.5269 111 L5.5961 11 L6.5269 11 z"/>
<path d="M6.5269 111 L6.5269 11 L7.4935 111 z"/>
<path d="M7.4935 111 L6.5269 11 L7.4935 11 z"/>
<path d="M7.4935 111 L7.4935 11 L8.4857 111 z"/>
<path d="M8.4857 111 L7.4935 11 L8.4857 11 z"/>
<path d="M8.4857 111 L8.4857 11 L9.4935 111 z"/>
<path d="M9.4935 111 L8.4857 11 L9.4935 11 z"/>
<path d="M9.4935 111 L9.4935 11 L10.5065 111 z"/>
<path d="M10.5065 111 L9.4935 11 L10.5065 11 z"/>
<path d="M10.5065 111 L10.5065 11 L11.5143 111 z"/>
<path d="M11.5143 111 L10.5065 11 L11.5143 11 z"/>
<path d="M11.5143 111 L11.5143 11 L12.5065 111 z"/>
<path d="M12.5065 111 L11.5143 11 L12.5065 11 z"/>
<path d="M12.5065 111 L12.5065 11 L13.4731 111 z"/>
<path d="M13.4731 111 L12.5065 11 L13.4731 11 z"/>
<path d="M13.4731 111 L13.4731 11 L14.4039 111 z"/>
<path d="M14.4039 111 L13.4731 11 L14.4039 11 z"/>
<path d="M14.4039 111 L14.4039 11 L15.2896 111 z"/>
<path d="M15.2896 111 L14.4039 11 L15.2896 11 z"/>
<path d="M15.2896 111 L15.2896 11 L16.1211 111 z"/>
<path d="M16.1211 111 L15.2896 11 L16.1211 11 z"/>
<path d="M16.1211 111 L16.1211 11 L16.8897 111 z"/>
<path d="M16.8897 111 L16.1211 11 L16.8897 11 z"/>
<path d="M16.8897 111 L16.8897 11 L17.5876 111 z"/>
<path d="M17.5876 111 L16.8897 11 L17.5876 11 z"/>
<path d="M17.5876 111 L17.5876 11 L18.2076 111 z"/>
<path d="M18.2076 111 L17.5876 11 L18.2076 11 z"/>
<path d="M18.2076 11 L18.65187 93.90101 L18.65187 111 L18.2076 111 z"/>
<path d="M18.65187 93.90101 L18.2076 11 L18.65187 11 z"/>
<path d="M18.65187 93.90101 L18.7435 111 L18.65187 111 z"/>
<path d="M18.65187 93.90101 L18.65187 11 L18.7435 11 L18.7435 111 z"/>
<path d="M18.7435 111 L18.7435 11 L19.1896 111 z"/>
<path d="M19.1896 111 L18.7435 11 L19.1896 11 z"/>
<path d="M19.1896 111 L19.1896 11 L19.5414 111 z"/>
<path d="M19.5414 111 L19.1896 11 L19.5414 11 z"/>
<path d="M19.5414 111 L19.5414 11 L19.7953 111 z"/>
<path d="M19.7953 111 L19.5414 11 L19.7953 11 z"/>
<path d="M19.7953 111 L19.7953 11 L19.9487 111 z"/>
<path d="M19.9487 111 L19.7953 11 L19.9487 11 z"/>
<path d="M19.9487 111 L19.9487 11 L20 111 z"/>
<path d="M20 111 L19.9487 11 L20 11 z"/>
<path d="M20 111 L20 11 L19.9487 111 z"/>
<path d="M19.9487 111 L20 11 L19.9487 11 z"/>
<path d="M1.34813 11 L1.7924 11 L4.06393 11 z"/>
<path d="M4.06393 11 L1.7924 11 L2.4124 11 L6.49953 11 z"/>
<path d="M6.49953 11 L2.4124 11 L3.1103 11 L8.34856 11 z"/>
<path d="M8.34856 11 L3.1103 11 L3.8789 11 L9.80684 11 z"/>
<path d="M9.80684 11 L3.8789 11 L4.7104 11 L10.9917 11 z"/>
<path d="M10.9917 11 L4.7104 11 L5.5961 11 L11.97822 11 z"/>
<path d="M11.97822 11 L5.5961 11 L6.5269 11 L12.81626 11 z"/>
<path d="M12.81626 11 L6.5269 11 L7.4935 11 L13.54056 11 z"/>
<path d="M13.54056 11 L7.4935 11 L8.4857 11 L14.1757 11 z"/>
<path d="M14.1757 11 L8.4857 11 L9.4935 11 L14.74002 11 z"/>
<path d="M14.74002 11 L9.4935 11 L10.5065 11 L15.24717 11 z"/>
<path d="M15.24717 11 L10.5065 11 L11.5143 11 L15.70766 11 z"/>
<path d="M15.70766 11 L11.5143 11 L12.5065 11 L16.12971 11 z"/>
<path d="M16.12971 11 L12.5065 11 L13.4731 11 L16.51991 11 z"/>
<path d="M16.51991 11 L13.4731 11 L14.4039 11 L16.88344 11 z"/>
<path d="M16.88344 11 L14.4039 11 L15.2896 11 L17.22474 11 z"/>
<path d="M17.22474 11 L15.2896 11 L16.1211 11 L17.54742 11 z"/>
<path d="M17.54742 11 L16.1211 11 L16.8897 11 L17.85434 11 z"/>
<path d="M17.85434 11 L16.8897 11 L17.5876 11 L18.14821 11 z"/>
<path d="M18.14821 11 L17.5876 11 L18.2076 11 L18.43121 11 z"/>
<path d="M18.43121 11 L18.2076 11 L18.65187 11 z"/>
<path d="M5 11 L4.7104 11 L5 11 z"/>
<path d="M5 11 L4.7104 11 L3.8789 11 L5 11 z"/>
<path d="M5 11 L3.8789 11 L3.1103 11 L5 11 z"/>
<path d="M5 11 L3.1103 11 L2.4124 11 L5 11 z"/>
<path d="M5 11 L2.4124 11 L1.7924 11 L5 11 z"/>
<path d="M5 11 L1.7924 11 L1.2565 11 L5 11 z"/>
<path d="M5 11 L1.2565 11 L0.8104 11 L5 11 z"/>
<path d="M5 11 L0.8104 11 L0.4586 11 L5 11 z"/>
<path d="M5 11 L0.4586 11 L0.2047 11 L5 11 z"/>
<path d="M5 11 L0.2047 11 L0.0513 11 L5 11 z"/>
<path d="M5 11 L0.0513 11 L0 11 L5 11 z"/>
<path d="M5 11 L0 11 L0.0513 11 L5 11 z"/>
<path d="M5 11 L0.0513 11 L0.2047 11 L5 11 z"/>
<path d="M5 11 L0.2047 11 L0.4586 11 L5 11 z"/>
<path d="M5 11 L0.4586 11 L0.8104 11 L5 11 z"/>
<path d="M5 11 L0.8104 11 L1.2565 11 L5 11 z"/>
<path d="M1.34813 11 L4.06393 11 L5 11 L5 11 L1.2565 11 z"/>
<path d="M5 11 L5 11 L4.06393 11 z"/>
<path d="M18.65187 11 L18.2076 11 L18.43121 11 z"/>
<path d="M18.43121 11 L18.2076 11 L17.5876 11 L18.14821 11 z"/>
<path d="M18.14821 11 L17.5876 11 L16.8897 11 L17.85434 11 z"/>
<path d="M17.85434 11 L16.8897 11 L16.1211 11 L17.54742 11 z"/>
<path d="M17.54742 11 L16.1211 11 L15.2896 11 L17.22474 11 z"/>
<path d="M17.22474 11 L15.2896 11 L14.4039 11 L16.88344 11 z"/>
<path d="M16.88344 11 L14.4039 11 L13.4731 11 L16.51991 11 z"/>
<path d="M16.51991 11 L13.4731 11 L12.5065 11 L16.12971 11 z"/>
<path d="M16.12971 11 L12.5065 11 L11.5143 11 L15.70766 11 z"/>
<path d="M15.70766 11 L11.5143 11 L10.5065 11 L15.24717 11 z"/>
<path d="M15.24717 11 L10.5065 11 L9.4935 11 L14.74002 11 z"/>
<path d="M14.74002 11 L9.4935 11 L8.4857 11 L14.1757 11 z"/>
<path d="M14.1757 11 L8.4857 11 L7.4935 11 L13.54056 11 z"/>
<path d="M13.54056 11 L7.4935 11 L6.5269 11 L12.81626 11 z"/>
<path d="M12.81626 11 L6.5269 11 L5.5961 11 L11.97822 11 z"/>
<path d="M5 11 L5 11 L10.9917 11 L11.97822 11 L5.5961 11 z"/>
<path d="M5 11 L9.80684 11 L10.9917 11 L5 11 z"/>
<path d="M5 11 L8.34856 11 L9.80684 11 L5 11 z"/>
<path d="M5 11 L6.49953 11 L8.34856 11 L5 11 z"/>
<path d="M5 11 L6.49953 11 L5 11 z"/>
<path d="M20 11 L19.9487 11 L19.7953 11 z"/>
<path d="M20 11 L19.7953 11 L19.5414 11 z"/>
<path d="M20 11 L19.5414 11 L19.1896 11 z"/>
<path d="M20 11 L19.1896 11 L18.7435 11 z"/>
<path d="M18.7435 11 L18.65187 11 L18.43121 11 L20 11 z"/>
<path d="M18.43121 11 L18.14821 11 L20 11 z"/>
<path d="M18.14821 11 L17.85434 11 L20 11 z"/>
<path d="M17.85434 11 L17.54742 11 L20 11 z"/>
<path d="M17.54742 11 L17.22474 11 L20 11 z"/>
<path d="M17.22474 11 L16.88344 11 L20 11 z"/>
<path d="M16.88344 11 L16.51991 11 L20 11 z"/>
<path d="M16.51991 11 L16.12971 11 L20 11 z"/>
<path d="M16.12971 11 L15.70766 11 L20 11 z"/>
<path d="M15.70766 11 L15.24717 11 L20 11 z"/>
<path d="M15 11 L15 11 L20 11 L15.24717 11 z"/>
<path d="M15 11 L20 11 L15 11 z"/>
<path d="M15 11 L20 11 L15 11 z"/>
<path d="M15 11 L20 11 L15 11 z"/>
<path d="M15 11 L20 11 L15 11 z"/>
<path d="M15 11 L20 11 L15 11 z"/>
<path d="M15 11 L20 11 L15 11 z"/>
<path d="M15 11 L20 11 L15 11 z"/>
<path d="M15 11 L20 11 L15 11 z"/>
<path d="M15 11 L20 11 L15 11 z"/>
<path d="M15 11 L20 11 L15 11 z"/>
<path d="M15 11 L20 11 L15 11 z"/>
<path d="M15 11 L20 11 L15 11 z"/>
<path d="M15 11 L20 11 L15 11 z"/>
<path d="M15 11 L20 11 L15 11 z"/>
<path d="M15 11 L20 11 L15 11 z"/>
<path d="M15 11 L20 11 L15 11 z"/>
<path d="M15 11 L20 11 L15 11 z"/>
<path d="M15 11 L20 11 L15 11 z"/>
<path d="M15 11 L20 11 L15 11 z"/>
<path d="M15 11 L20 11 L15 11 z"/>
<path d="M15 11 L20 11 L15 11 z"/>
<path d="M15 11 L20 11 L15 11 z"/>
<path d="M15 11 L20 11 L15 11 z"/>
<path d="M15 11 L20 11 L15 11 z"/>
<path d="M15 11 L20 11 L15 11 z"/>
<path d="M15 11 L20 11 L15 11 z"/>
<path d="M15 11 L20 11 L15 11 z"/>
<path d="M15 11 L20 11 L15 11 z"/>
<path d="M15 11 L20 11 L15 11 z"/>
<path d="M15 11 L20 11 L15 11 z"/>
<path d="M15 11 L15.24717 11 L20 11 L15 11 z"/>
<path d="M15.24717 11 L15.70766 11 L20 11 z"/>
<path d="M15.70766 11 L16.12971 11 L20 11 z"/>
<path d="M16.12971 11 L16.51991 11 L20 11 z"/>
<path d="M16.51991 11 L16.88344 11 L20 11 z"/>
<path d="M16.88344 11 L17.22474 11 L20 11 z"/>
<path d="M17.22474 11 L17.54742 11 L20 11 z"/>
<path d="M17.54742 11 L17.85434 11 L20 11 z"/>
<path d="M17.85434 11 L18.14821 11 L20 11 z"/>
<path d="M18.14821 11 L18.43121 11 L20 11 z"/>
<path d="M18.43121 11 L18.65187 11 L18.7435 11 L20 11 z"/>
<path d="M20 11 L18.7435 11 L19.1896 11 z"/>
<path d="M20 11 L19.1896 11 L19.5414 11 z"/>
<path d="M20 11 L19.5414 11 L19.7953 11 z"/>
<path d="M20 11 L19.7953 11 L19.9487 11 z"/>
<path d="M15 11 L14.74002 11 L15 11 z"/>
<path d="M14.1757 11 L15 11 L15 11 L14.74002 11 z"/>
<path d="M13.54056 11 L15 11 L15 11 L14.1757 11 z"/>
<path d="M12.81626 11 L15 11 L15 11 L13.54056 11 z"/>
<path d="M11.97822 11 L15 11 L15 11 L12.81626 11 z"/>
<path d="M15 11 L15 11 L11.97822 11 L10.9917 11 z"/>
<path d="M15 11 L15 11 L10.9917 11 L9.80684 11 z"/>
<path d="M15 11 L15 11 L9.80684 11 L8.34856 11 z"/>
<path d="M15 11 L15 11 L8.34856 11 L6.49953 11 z"/>
<path d="M5 11 L15 11 L15 11 L6.49953 11 L5 11 z"/>
<path d="M5 11 L15 11 L15 11 L5 11 z"/>
<path d="M5 11 L15 11 L15 11 L5 11 z"/>
<path d="M5 11 L15 11 L15 11 L5 11 z"/>
<path d="M5 11 L15 11 L15 11 L5 11 z"/>
<path d="M5 11 L15 11 L15 11 L5 11 z"/>
<path d="M5 11 L15 11 L15 11 L5 11 z"/>
<path d="M5 11 L15 11 L15 11 L5 11 z"/>
<path d="M5 11 L15 11 L15 11 L5 11 z"/>
<path d="M5 11 L15 11 L15 11 L5 11 z"/>
<path d="M5 11 L15 11 L15 11 L5 11 z"/>
<path d="M5 11 L15 11 L15 11 L5 11 z"/>
<path d="M15 11 L15 11 L5 11 L5 11 z"/>
<path d="M6.49953 11 L15 11 L15 11 L5 11 L5 11 z"/>
<path d="M8.34856 11 L15 11 L15 11 L6.49953 11 z"/>
<path d="M9.80684 11 L15 11 L15 11 L8.34856 11 z"/>
<path d="M10.9917 11 L15 11 L15 11 L9.80684 11 z"/>
<path d="M11.97822 11 L15 11 L15 11 L10.9917 11 z"/>
<path d="M12.81626 11 L15 11 L15 11 L11.97822 11 z"/>
<path d="M13.54056 11 L15 11 L15 11 L12.81626 11 z"/>
<path d="M14.1757 11 L15 11 L15 11 L13.54056 11 z"/>
<path d="M14.74002 11 L15 11 L15 11 L14.1757 11 z"/>
<path d="M15 11 L15 11 L14.74002 11 z"/>
<path d="M15 10 L15 0 L5 10 z"/>
<path d="M5 10 L15 0 L5 0 z"/>
<path d="M5 10 L5 0 L5 10 z"/>
<path d="M5 10 L5 0 L5 0 z"/>
<path d="M5 10 L5 0 L15 10 z"/>
<path d="M15 10 L5 0 L15 0 z"/>
<path d="M15 10 L15 0 L15 10 z"/>
<path d="M15 10 L15 0 L15 0 z"/>
<path d="M15 0 L5 0 L5 0 z"/>
<path d="M15 0 L5 0 L15 0 z"/>
<path d="M15 10 L5 10 L5 10 z"/>
<path d="M15 10 L5 10 L15 10 z"/>
<path d="M18.65187 111 L18.2076 111 L18.47156 111 z"/>
<path d="M18.47156 111 L18.2076 111 L17.5876 111 L18.23718 111 z"/>
<path d="M18.23718 111 L17.5876 111 L16.8897 111 L17.99235 111 z"/>
<path d="M17.99235 111 L16.8897 111 L16.1211 111 L17.73504 111 z"/>
<path d="M17.73504 111 L16.1211 111 L15.2896 111 L17.46273 111 z"/>
<path d="M17.46273 111 L15.2896 111 L14.4039 111 L17.17272 111 z"/>
<path d="M17.17272 111 L14.4039 111 L13.4731 111 L16.86153 111 z"/>
<path d="M16.86153 111 L13.4731 111 L12.5065 111 L16.52485 111 z"/>
<path d="M16.52485 111 L12.5065 111 L11.5143 111 L16.15755 111 z"/>
<path d="M16.15755 111 L11.5143 111 L10.5065 111 L15.75302 111 z"/>
<path d="M15.75302 111 L10.5065 111 L9.4935 111 L15.30289 111 z"/>
<path d="M15.30289 111 L9.4935 111 L8.4857 111 L14.79623 111 z"/>
<path d="M14.79623 111 L8.4857 111 L7.4935 111 L14.21857 111 z"/>
<path d="M14.21857 111 L7.4935 111 L6.5269 111 L13.55001 111 z"/>
<path d="M13.55001 111 L6.5269 111 L5.5961 111 L12.76312 111 z"/>
<path d="M12.76312 111 L5.5961 111 L4.7104 111 L11.81795 111 z"/>
<path d="M11.81795 111 L4.7104 111 L3.8789 111 L10.65487 111 z"/>
<path d="M10.65487 111 L3.8789 111 L3.1103 111 L9.17987 111 z"/>
<path d="M9.17987 111 L3.1103 111 L2.4124 111 L7.23695 111 z"/>
<path d="M7.23695 111 L2.4124 111 L1.7924 111 L4.545 111 z"/>
<path d="M4.545 111 L1.7924 111 L1.34813 111 z"/>
<path d="M5 111 L4.545 111 L5 111 z"/>
<path d="M1.34813 111 L1.2565 111 L5 111 L5 111 L4.545 111 z"/>
<path d="M5 111 L1.2565 111 L0.8104 111 L5 111 z"/>
<path d="M5 111 L0.8104 111 L0.4586 111 L5 111 z"/>
<path d="M5 111 L0.4586 111 L0.2047 111 L5 111 z"/>
<path d="M5 111 L0.2047 111 L0.0513 111 L5 111 z"/>
<path d="M5 111 L0.0513 111 L0 111 L5 111 z"/>
<path d="M5 111 L0 111 L0.0513 111 L5 111 z"/>
<path d="M5 111 L0.0513 111 L0.2047 111 L5 111 z"/>
<path d="M5 111 L0.2047 111 L0.4586 111 L5 111 z"/>
<path d="M5 111 L0.4586 111 L0.8104 111 L5 111 z"/>
<path d="M5 111 L0.8104 111 L1.2565 111 L5 111 z"/>
<path d="M5 111 L1.2565 111 L1.7924 111 L5 111 z"/>
<path d="M5 111 L1.7924 111 L2.4124 111 L5 111 z"/>
<path d="M5 111 L2.4124 111 L3.1103 111 L5 111 z"/>
<path d="M5 111 L3.1103 111 L3.8789 111 L5 111 z"/>
<path d="M5 111 L3.8789 111 L4.7104 111 L5 111 z"/>
<path d="M5 111 L4.7104 111 L5 111 z"/>
<path d="M5 111 L5 111 L5.93975 111 z"/>
<path d="M5 111 L7.69297 111 L5.93975 111 L5 111 z"/>
<path d="M5 111 L9.11773 111 L7.69297 111 L5 111 z"/>
<path d="M5 111 L10.30381 111 L9.11773 111 L5 111 z"/>
<path d="M5 111 L5.5961 111 L11.31145 111 L10.30381 111 L5 111 z"/>
<path d="M11.31145 111 L5.5961 111 L6.5269 111 L12.18219 111 z"/>
<path d="M12.18219 111 L6.5269 111 L7.4935 111 L12.94595 111 z"/>
<path d="M12.94595 111 L7.4935 111 L8.4857 111 L13.6244 111 z"/>
<path d="M13.6244 111 L8.4857 111 L9.4935 111 L14.23417 111 z"/>
<path d="M14.23417 111 L9.4935 111 L10.5065 111 L14.78785 111 z"/>
<path d="M14.78785 111 L10.5065 111 L11.5143 111 L15.29532 111 z"/>
<path d="M15.29532 111 L11.5143 111 L12.5065 111 L15.76443 111 z"/>
<path d="M15.76443 111 L12.5065 111 L13.4731 111 L16.2016 111 z"/>
<path d="M16.2016 111 L13.4731 111 L14.4039 111 L16.6119 111 z"/>
<path d="M16.6119 111 L14.4039 111 L15.2896 111 L16.99978 111 z"/>
<path d="M16.99978 111 L15.2896 111 L16.1211 111 L17.36892 111 z"/>
<path d="M17.36892 111 L16.1211 111 L16.8897 111 L17.72223 111 z"/>
<path d="M17.72223 111 L16.8897 111 L17.5876 111 L18.06252 111 z"/>
<path d="M18.06252 111 L17.5876 111 L18.2076 111 L18.39213 111 z"/>
<path d="M18.39213 111 L18.2076 111 L18.65187 111 z"/>
<path d="M19.9487 111 L19.7953 111 L19.5414 111 z"/>
<path d="M19.9487 111 L19.5414 111 L19.1896 111 z"/>
<path d="M19.9487 111 L19.1896 111 L18.7435 111 z"/>
<path d="M18.7435 111 L18.65187 111 L18.47156 111 L19.9487 111 z"/>
<path d="M18.47156 111 L18.23718 111 L19.9487 111 z"/>
<path d="M18.23718 111 L17.99235 111 L19.9487 111 z"/>
<path d="M17.99235 111 L17.73504 111 L19.9487 111 z"/>
<path d="M17.73504 111 L17.46273 111 L19.9487 111 z"/>
<path d="M17.46273 111 L17.17272 111 L19.9487 111 z"/>
<path d="M17.17272 111 L16.86153 111 L19.9487 111 z"/>
<path d="M16.86153 111 L16.52485 111 L19.9487 111 z"/>
<path d="M16.52485 111 L16.15755 111 L19.9487 111 z"/>
<path d="M16.15755 111 L15.75302 111 L19.9487 111 z"/>
<path d="M15.75302 111 L15.30289 111 L19.9487 111 z"/>
<path d="M15 111 L15 111 L19.9487 111 L15.30289 111 z"/>
<path d="M15 111 L19.9487 111 L15 111 z"/>
<path d="M15 111 L19.9487 111 L15 111 z"/>
<path d="M15 111 L19.9487 111 L15 111 z"/>
<path d="M15 111 L19.9487 111 L15 111 z"/>
<path d="M15 111 L19.9487 111 L15 111 z"/>
<path d="M15 111 L19.9487 111 L15 111 z"/>
<path d="M15 111 L19.9487 111 L15 111 z"/>
<path d="M15 111 L19.9487 111 L15 111 z"/>
<path d="M15 111 L19.9487 111 L15 111 z"/>
<path d="M15 111 L19.9487 111 L15 111 z"/>
<path d="M15 111 L19.9487 111 L15 111 z"/>
<path d="M15 111 L19.9487 111 L15 111 z"/>
<path d="M15 111 L19.9487 111 L15 111 z"/>
<path d="M15 111 L19.9487 111 L15 111 z"/>
<path d="M15 111 L19.9487 111 L15 111 z"/>
<path d="M15 111 L19.9487 111 L15 111 z"/>
<path d="M15 111 L19.9487 111 L15 111 z"/>
<path d="M15 111 L19.9487 111 L15 111 z"/>
<path d="M15 111 L19.9487 111 L15 111 z"/>
<path d="M15 111 L19.9487 111 L15 111 z"/>
<path d="M15 111 L19.9487 111 L15 111 z"/>
<path d="M15 111 L19.9487 111 L15 111 z"/>
<path d="M15 111 L19.9487 111 L15 111 z"/>
<path d="M15 111 L19.9487 111 L15 111 z"/>
<path d="M15 111 L19.9487 111 L15 111 z"/>
<path d="M15 111 L19.9487 111 L15 111 z"/>
<path d="M15 111 L19.9487 111 L15 111 z"/>
<path d="M15 111 L19.9487 111 L15 111 z"/>
<path d="M15 111 L19.9487 111 L15 111 z"/>
<path d="M15 111 L19.9487 111 L15 111 z"/>
<path d="M15 111 L15.29532 111 L19.9487 111 L15 111 z"/>
<path d="M15.29532 111 L15.76443 111 L19.9487 111 z"/>
<path d="M15.76443 111 L16.2016 111 L19.9487 111 z"/>
<path d="M16.2016 111 L16.6119 111 L19.9487 111 z"/>
<path d="M16.6119 111 L16.99978 111 L19.9487 111 z"/>
<path d="M16.99978 111 L17.36892 111 L19.9487 111 z"/>
<path d="M17.36892 111 L17.72223 111 L19.9487 111 z"/>
<path d="M17.72223 111 L18.06252 111 L19.9487 111 z"/>
<path d="M18.06252 111 L18.39213 111 L19.9487 111 z"/>
<path d="M18.39213 111 L18.65187 111 L18.7435 111 L19.9487 111 z"/>
<path d="M19.9487 111 L18.7435 111 L19.1896 111 z"/>
<path d="M19.9487 111 L19.1896 111 L19.5414 111 z"/>
<path d="M19.9487 111 L19.5414 111 L19.7953 111 z"/>
<path d="M19.9487 111 L19.7953 111 L19.9487 111 z"/>
<path d="M19.9487 111 L19.9487 111 L20 111 z"/>
<path d="M15 111 L14.79623 111 L15 111 z"/>
<path d="M14.21857 111 L15 111 L15 111 L14.79623 111 z"/>
<path d="M13.55001 111 L15 111 L15 111 L14.21857 111 z"/>
<path d="M12.76312 111 L15 111 L15 111 L13.55001 111 z"/>
<path d="M11.81795 111 L15 111 L15 111 L12.76312 111 z"/>
<path d="M10.65487 111 L15 111 L15 111 L11.81795 111 z"/>
<path d="M9.17987 111 L15 111 L15 111 L10.65487 111 z"/>
<path d="M7.23695 111 L15 111 L15 111 L9.17987 111 z"/>
<path d="M5 111 L15 111 L15 111 L7.23695 111 L5 111 z"/>
<path d="M15 111 L15 111 L5 111 L5 111 z"/>
<path d="M5 111 L15 111 L15 111 L5 111 z"/>
<path d="M5 111 L15 111 L15 111 L5 111 z"/>
<path d="M5 111 L15 111 L15 111 L5 111 z"/>
<path d="M5 111 L15 111 L15 111 L5 111 z"/>
<path d="M5 111 L15 111 L15 111 L5 111 z"/>
<path d="M5 111 L15 111 L15 111 L5 111 z"/>
<path d="M5 111 L15 111 L15 111 L5 111 z"/>
<path d="M5 111 L15 111 L15 111 L5 111 z"/>
<path d="M5 111 L15 111 L15 111 L5 111 z"/>
<path d="M5 111 L15 111 L15 111 L5 111 z"/>
<path d="M5 111 L15 111 L15 111 L5 111 z"/>
<path d="M5.93975 111 L15 111 L15 111 L5 111 L5 111 z"/>
<path d="M15 111 L15 111 L5.93975 111 L7.69297 111 z"/>
<path d="M15 111 L15 111 L7.69297 111 L9.11773 111 z"/>
<path d="M15 111 L15 111 L9.11773 111 L10.30381 111 z"/>
<path d="M15 111 L15 111 L10.30381 111 L11.31145 111 z"/>
<path d="M12.18219 111 L15 111 L15 111 L11.31145 111 z"/>
<path d="M12.94595 111 L15 111 L15 111 L12.18219 111 z"/>
<path d="M13.6244 111 L15 111 L15 111 L12.94595 111 z"/>
<path d="M14.23417 111 L15 111 L15 111 L13.6244 111 z"/>
<path d="M14.78785 111 L15 111 L15 111 L14.23417 111 z"/>
<path d="M15 111 L15 111 L14.78785 111 z"/>
</svg>