solid JSxCAD
facet normal 0.9884690704933199 -0.1514229067151734 0
outer loop
vertex 9.94869 -1.01168 -50
vertex 9.94869 -1.01168 50
vertex 9.7953 -2.01299 -50
endloop
endfacet
facet normal 0.9884690704933199 -0.1514229067151734 0
outer loop
vertex 9.7953 -2.01299 -50
vertex 9.94869 -1.01168 50
vertex 9.7953 -2.01299 50
endloop
endfacet
facet normal 0.9680759900255813 -0.2506568920576304 0
outer loop
vertex 9.7953 -2.01299 -50
vertex 9.7953 -2.01299 50
vertex 9.54139 -2.99363 -50
endloop
endfacet
facet normal 0.9680759900255813 -0.2506568920576304 0
outer loop
vertex 9.54139 -2.99363 -50
vertex 9.7953 -2.01299 50
vertex 9.54139 -2.99363 50
endloop
endfacet
facet normal 0.9377538811078928 -0.3473005304733697 0
outer loop
vertex 9.54139 -2.99363 -50
vertex 9.54139 -2.99363 50
vertex 9.18958 -3.94356 -50
endloop
endfacet
facet normal 0.9377538811078928 -0.3473005304733697 0
outer loop
vertex 9.18958 -3.94356 -50
vertex 9.54139 -2.99363 50
vertex 9.18958 -3.94356 50
endloop
endfacet
facet normal 0.8978050968886258 -0.44039301538603587 0
outer loop
vertex 9.18958 -3.94356 -50
vertex 9.18958 -3.94356 50
vertex 8.74347 -4.85302 -50
endloop
endfacet
facet normal 0.8978050968886258 -0.44039301538603587 0
outer loop
vertex 8.74347 -4.85302 -50
vertex 9.18958 -3.94356 50
vertex 8.74347 -4.85302 50
endloop
endfacet
facet normal 0.848639903597774 -0.5289709954445148 0
outer loop
vertex 8.74347 -4.85302 -50
vertex 8.74347 -4.85302 50
vertex 8.20763 -5.71268 -50
endloop
endfacet
facet normal 0.848639903597774 -0.5289709954445148 0
outer loop
vertex 8.20763 -5.71268 -50
vertex 8.74347 -4.85302 50
vertex 8.20763 -5.71268 50
endloop
endfacet
facet normal 0.79077626903439 -0.6121052951347914 0
outer loop
vertex 8.20763 -5.71268 -50
vertex 8.20763 -5.71268 50
vertex 7.58758 -6.51372 -50
endloop
endfacet
facet normal 0.79077626903439 -0.6121052951347914 0
outer loop
vertex 7.58758 -6.51372 -50
vertex 8.20763 -5.71268 50
vertex 7.58758 -6.51372 50
endloop
endfacet
facet normal 0.7247970499683982 -0.6889624346487312 0
outer loop
vertex 7.58758 -6.51372 -50
vertex 7.58758 -6.51372 50
vertex 6.88967 -7.24793 -50
endloop
endfacet
facet normal 0.7247970499683982 -0.6889624346487312 0
outer loop
vertex 6.88967 -7.24793 -50
vertex 7.58758 -6.51372 50
vertex 6.88967 -7.24793 50
endloop
endfacet
facet normal 0.6513724588664767 -0.758758143172276 0
outer loop
vertex 6.88967 -7.24793 -50
vertex 6.88967 -7.24793 50
vertex 6.12106 -7.90776 -50
endloop
endfacet
facet normal 0.6513724588664767 -0.758758143172276 0
outer loop
vertex 6.12106 -7.90776 -50
vertex 6.88967 -7.24793 50
vertex 6.12106 -7.90776 50
endloop
endfacet
facet normal 0.5712646246981277 -0.8207659401854511 0
outer loop
vertex 6.12106 -7.90776 -50
vertex 6.12106 -7.90776 50
vertex 5.28964 -8.48644 -50
endloop
endfacet
facet normal 0.5712646246981277 -0.8207659401854511 0
outer loop
vertex 5.28964 -8.48644 -50
vertex 6.12106 -7.90776 50
vertex 5.28964 -8.48644 50
endloop
endfacet
facet normal 0.48530678896428303 -0.8743439372381883 0
outer loop
vertex 5.28964 -8.48644 -50
vertex 5.28964 -8.48644 50
vertex 4.40394 -8.97805 -50
endloop
endfacet
facet normal 0.48530678896428303 -0.8743439372381883 0
outer loop
vertex 4.40394 -8.97805 -50
vertex 5.28964 -8.48644 50
vertex 4.40394 -8.97805 50
endloop
endfacet
facet normal 0.3943505526725249 -0.9189600870586677 0
outer loop
vertex 4.40394 -8.97805 -50
vertex 4.40394 -8.97805 50
vertex 3.47305 -9.37752 -50
endloop
endfacet
facet normal 0.3943505526725249 -0.9189600870586677 0
outer loop
vertex 3.47305 -9.37752 -50
vertex 4.40394 -8.97805 50
vertex 3.47305 -9.37752 50
endloop
endfacet
facet normal 0.29936527420340614 -0.954138581444603 0
outer loop
vertex 3.47305 -9.37752 -50
vertex 3.47305 -9.37752 50
vertex 2.50653 -9.68077 -50
endloop
endfacet
facet normal 0.29936527420340614 -0.954138581444603 0
outer loop
vertex 2.50653 -9.68077 -50
vertex 3.47305 -9.37752 50
vertex 2.50653 -9.68077 50
endloop
endfacet
facet normal 0.20129609662326398 -0.9795304392841693 0
outer loop
vertex 2.50653 -9.68077 -50
vertex 2.50653 -9.68077 50
vertex 1.51428 -9.88468 -50
endloop
endfacet
facet normal 0.20129609662326398 -0.9795304392841693 0
outer loop
vertex 1.51428 -9.88468 -50
vertex 2.50653 -9.68077 50
vertex 1.51428 -9.88468 50
endloop
endfacet
facet normal 0.10117591739398023 -0.9948685509852477 0
outer loop
vertex 1.51428 -9.88468 -50
vertex 1.51428 -9.88468 50
vertex 0.50649 -9.98717 -50
endloop
endfacet
facet normal 0.10117591739398023 -0.9948685509852477 0
outer loop
vertex 0.50649 -9.98717 -50
vertex 1.51428 -9.88468 50
vertex 0.50649 -9.98717 50
endloop
endfacet
facet normal 0 -1 0
outer loop
vertex 0.50649 -9.98717 -50
vertex 0.50649 -9.98717 50
vertex -0.50649 -9.98717 -50
endloop
endfacet
facet normal 0 -1 0
outer loop
vertex -0.50649 -9.98717 -50
vertex 0.50649 -9.98717 50
vertex -0.50649 -9.98717 50
endloop
endfacet
facet normal -0.10117591739398023 -0.9948685509852477 0
outer loop
vertex -0.50649 -9.98717 -50
vertex -0.50649 -9.98717 50
vertex -1.51428 -9.88468 -50
endloop
endfacet
facet normal -0.10117591739398023 -0.9948685509852477 0
outer loop
vertex -1.51428 -9.88468 -50
vertex -0.50649 -9.98717 50
vertex -1.51428 -9.88468 50
endloop
endfacet
facet normal -0.20129609662326398 -0.9795304392841693 0
outer loop
vertex -1.51428 -9.88468 -50
vertex -1.51428 -9.88468 50
vertex -2.50653 -9.68077 -50
endloop
endfacet
facet normal -0.20129609662326398 -0.9795304392841693 0
outer loop
vertex -2.50653 -9.68077 -50
vertex -1.51428 -9.88468 50
vertex -2.50653 -9.68077 50
endloop
endfacet
facet normal -0.29936527420340614 -0.954138581444603 0
outer loop
vertex -2.50653 -9.68077 -50
vertex -2.50653 -9.68077 50
vertex -3.47305 -9.37752 -50
endloop
endfacet
facet normal -0.29936527420340614 -0.954138581444603 0
outer loop
vertex -3.47305 -9.37752 -50
vertex -2.50653 -9.68077 50
vertex -3.47305 -9.37752 50
endloop
endfacet
facet normal -0.3943505526725249 -0.9189600870586677 0
outer loop
vertex -3.47305 -9.37752 -50
vertex -3.47305 -9.37752 50
vertex -4.40394 -8.97805 -50
endloop
endfacet
facet normal -0.3943505526725249 -0.9189600870586677 0
outer loop
vertex -4.40394 -8.97805 -50
vertex -3.47305 -9.37752 50
vertex -4.40394 -8.97805 50
endloop
endfacet
facet normal -0.48530678896428303 -0.8743439372381883 0
outer loop
vertex -4.40394 -8.97805 -50
vertex -4.40394 -8.97805 50
vertex -5.28964 -8.48644 -50
endloop
endfacet
facet normal -0.48530678896428303 -0.8743439372381883 0
outer loop
vertex -5.28964 -8.48644 -50
vertex -4.40394 -8.97805 50
vertex -5.28964 -8.48644 50
endloop
endfacet
facet normal -0.5712646246981277 -0.8207659401854511 0
outer loop
vertex -5.28964 -8.48644 -50
vertex -5.28964 -8.48644 50
vertex -6.12106 -7.90776 -50
endloop
endfacet
facet normal -0.5712646246981277 -0.8207659401854511 0
outer loop
vertex -6.12106 -7.90776 -50
vertex -5.28964 -8.48644 50
vertex -6.12106 -7.90776 50
endloop
endfacet
facet normal -0.6513724588664767 -0.758758143172276 0
outer loop
vertex -6.12106 -7.90776 -50
vertex -6.12106 -7.90776 50
vertex -6.88967 -7.24793 -50
endloop
endfacet
facet normal -0.6513724588664767 -0.758758143172276 0
outer loop
vertex -6.88967 -7.24793 -50
vertex -6.12106 -7.90776 50
vertex -6.88967 -7.24793 50
endloop
endfacet
facet normal -0.7247970499683982 -0.6889624346487312 0
outer loop
vertex -6.88967 -7.24793 -50
vertex -6.88967 -7.24793 50
vertex -7.58758 -6.51372 -50
endloop
endfacet
facet normal -0.7247970499683982 -0.6889624346487312 0
outer loop
vertex -7.58758 -6.51372 -50
vertex -6.88967 -7.24793 50
vertex -7.58758 -6.51372 50
endloop
endfacet
facet normal -0.79077626903439 -0.6121052951347914 0
outer loop
vertex -7.58758 -6.51372 -50
vertex -7.58758 -6.51372 50
vertex -8.20763 -5.71268 -50
endloop
endfacet
facet normal -0.79077626903439 -0.6121052951347914 0
outer loop
vertex -8.20763 -5.71268 -50
vertex -7.58758 -6.51372 50
vertex -8.20763 -5.71268 50
endloop
endfacet
facet normal -0.848639903597774 -0.5289709954445148 0
outer loop
vertex -8.20763 -5.71268 -50
vertex -8.20763 -5.71268 50
vertex -8.74347 -4.85302 -50
endloop
endfacet
facet normal -0.848639903597774 -0.5289709954445148 0
outer loop
vertex -8.74347 -4.85302 -50
vertex -8.20763 -5.71268 50
vertex -8.74347 -4.85302 50
endloop
endfacet
facet normal -0.8978050968886258 -0.44039301538603587 0
outer loop
vertex -8.74347 -4.85302 -50
vertex -8.74347 -4.85302 50
vertex -9.18958 -3.94356 -50
endloop
endfacet
facet normal -0.8978050968886258 -0.44039301538603587 0
outer loop
vertex -9.18958 -3.94356 -50
vertex -8.74347 -4.85302 50
vertex -9.18958 -3.94356 50
endloop
endfacet
facet normal -0.9377538811078928 -0.3473005304733697 0
outer loop
vertex -9.18958 -3.94356 -50
vertex -9.18958 -3.94356 50
vertex -9.54139 -2.99363 -50
endloop
endfacet
facet normal -0.9377538811078928 -0.3473005304733697 0
outer loop
vertex -9.54139 -2.99363 -50
vertex -9.18958 -3.94356 50
vertex -9.54139 -2.99363 50
endloop
endfacet
facet normal -0.9680759900255813 -0.2506568920576304 0
outer loop
vertex -9.54139 -2.99363 -50
vertex -9.54139 -2.99363 50
vertex -9.7953 -2.01299 -50
endloop
endfacet
facet normal -0.9680759900255813 -0.2506568920576304 0
outer loop
vertex -9.7953 -2.01299 -50
vertex -9.54139 -2.99363 50
vertex -9.7953 -2.01299 50
endloop
endfacet
facet normal -0.9884690704933199 -0.1514229067151734 0
outer loop
vertex -9.7953 -2.01299 -50
vertex -9.7953 -2.01299 50
vertex -9.94869 -1.01168 -50
endloop
endfacet
facet normal -0.9884690704933199 -0.1514229067151734 0
outer loop
vertex -9.94869 -1.01168 -50
vertex -9.7953 -2.01299 50
vertex -9.94869 -1.01168 50
endloop
endfacet
facet normal -0.9987163375223298 -0.0506525139157358 0
outer loop
vertex -9.94869 -1.01168 -50
vertex -9.94869 -1.01168 50
vertex -10 0 -50
endloop
endfacet
facet normal -0.9987163375223298 -0.0506525139157358 0
outer loop
vertex -10 0 -50
vertex -9.94869 -1.01168 50
vertex -10 0 50
endloop
endfacet
facet normal -0.9987163375223298 0.0506525139157358 0
outer loop
vertex -10 0 -50
vertex -10 0 50
vertex -9.94869 1.01168 -50
endloop
endfacet
facet normal -0.9987163375223298 0.0506525139157358 0
outer loop
vertex -9.94869 1.01168 -50
vertex -10 0 50
vertex -9.94869 1.01168 50
endloop
endfacet
facet normal -0.9884690704933199 0.1514229067151734 0
outer loop
vertex -9.94869 1.01168 -50
vertex -9.94869 1.01168 50
vertex -9.7953 2.01299 -50
endloop
endfacet
facet normal -0.9884690704933199 0.1514229067151734 0
outer loop
vertex -9.7953 2.01299 -50
vertex -9.94869 1.01168 50
vertex -9.7953 2.01299 50
endloop
endfacet
facet normal -0.9680759900255813 0.2506568920576304 0
outer loop
vertex -9.7953 2.01299 -50
vertex -9.7953 2.01299 50
vertex -9.54139 2.99363 -50
endloop
endfacet
facet normal -0.9680759900255813 0.2506568920576304 0
outer loop
vertex -9.54139 2.99363 -50
vertex -9.7953 2.01299 50
vertex -9.54139 2.99363 50
endloop
endfacet
facet normal -0.9377538811078928 0.3473005304733697 0
outer loop
vertex -9.54139 2.99363 -50
vertex -9.54139 2.99363 50
vertex -9.18958 3.94356 -50
endloop
endfacet
facet normal -0.9377538811078928 0.3473005304733697 0
outer loop
vertex -9.18958 3.94356 -50
vertex -9.54139 2.99363 50
vertex -9.18958 3.94356 50
endloop
endfacet
facet normal -0.8978050968886258 0.44039301538603587 0
outer loop
vertex -9.18958 3.94356 -50
vertex -9.18958 3.94356 50
vertex -8.74347 4.85302 -50
endloop
endfacet
facet normal -0.8978050968886258 0.44039301538603587 0
outer loop
vertex -8.74347 4.85302 -50
vertex -9.18958 3.94356 50
vertex -8.74347 4.85302 50
endloop
endfacet
facet normal -0.848639903597774 0.5289709954445148 0
outer loop
vertex -8.74347 4.85302 -50
vertex -8.74347 4.85302 50
vertex -8.20763 5.71268 -50
endloop
endfacet
facet normal -0.848639903597774 0.5289709954445148 0
outer loop
vertex -8.20763 5.71268 -50
vertex -8.74347 4.85302 50
vertex -8.20763 5.71268 50
endloop
endfacet
facet normal -0.79077626903439 0.6121052951347914 0
outer loop
vertex -8.20763 5.71268 -50
vertex -8.20763 5.71268 50
vertex -7.58758 6.51372 -50
endloop
endfacet
facet normal -0.79077626903439 0.6121052951347914 0
outer loop
vertex -7.58758 6.51372 -50
vertex -8.20763 5.71268 50
vertex -7.58758 6.51372 50
endloop
endfacet
facet normal -0.7247970499683982 0.6889624346487312 0
outer loop
vertex -7.58758 6.51372 -50
vertex -7.58758 6.51372 50
vertex -6.88967 7.24793 -50
endloop
endfacet
facet normal -0.7247970499683982 0.6889624346487312 0
outer loop
vertex -6.88967 7.24793 -50
vertex -7.58758 6.51372 50
vertex -6.88967 7.24793 50
endloop
endfacet
facet normal -0.6513724588664767 0.758758143172276 0
outer loop
vertex -6.88967 7.24793 -50
vertex -6.88967 7.24793 50
vertex -6.12106 7.90776 -50
endloop
endfacet
facet normal -0.6513724588664767 0.758758143172276 0
outer loop
vertex -6.12106 7.90776 -50
vertex -6.88967 7.24793 50
vertex -6.12106 7.90776 50
endloop
endfacet
facet normal -0.5712646246981277 0.8207659401854511 0
outer loop
vertex -6.12106 7.90776 -50
vertex -6.12106 7.90776 50
vertex -5.28964 8.48644 -50
endloop
endfacet
facet normal -0.5712646246981277 0.8207659401854511 0
outer loop
vertex -5.28964 8.48644 -50
vertex -6.12106 7.90776 50
vertex -5.28964 8.48644 50
endloop
endfacet
facet normal -0.48530678896428303 0.8743439372381883 0
outer loop
vertex -5.28964 8.48644 -50
vertex -5.28964 8.48644 50
vertex -4.40394 8.97805 -50
endloop
endfacet
facet normal -0.48530678896428303 0.8743439372381883 0
outer loop
vertex -4.40394 8.97805 -50
vertex -5.28964 8.48644 50
vertex -4.40394 8.97805 50
endloop
endfacet
facet normal -0.3943505526725249 0.9189600870586677 0
outer loop
vertex -4.40394 8.97805 -50
vertex -4.40394 8.97805 50
vertex -3.47305 9.37752 -50
endloop
endfacet
facet normal -0.3943505526725249 0.9189600870586677 0
outer loop
vertex -3.47305 9.37752 -50
vertex -4.40394 8.97805 50
vertex -3.47305 9.37752 50
endloop
endfacet
facet normal -0.29936527420340614 0.954138581444603 0
outer loop
vertex -3.47305 9.37752 -50
vertex -3.47305 9.37752 50
vertex -2.50653 9.68077 -50
endloop
endfacet
facet normal -0.29936527420340614 0.954138581444603 0
outer loop
vertex -2.50653 9.68077 -50
vertex -3.47305 9.37752 50
vertex -2.50653 9.68077 50
endloop
endfacet
facet normal -0.20129609662326398 0.9795304392841693 0
outer loop
vertex -2.50653 9.68077 -50
vertex -2.50653 9.68077 50
vertex -1.51428 9.88468 -50
endloop
endfacet
facet normal -0.20129609662326398 0.9795304392841693 0
outer loop
vertex -1.51428 9.88468 -50
vertex -2.50653 9.68077 50
vertex -1.51428 9.88468 50
endloop
endfacet
facet normal -0.10117591739398023 0.9948685509852477 0
outer loop
vertex -1.51428 9.88468 -50
vertex -1.51428 9.88468 50
vertex -0.50649 9.98717 -50
endloop
endfacet
facet normal -0.10117591739398023 0.9948685509852477 0
outer loop
vertex -0.50649 9.98717 -50
vertex -1.51428 9.88468 50
vertex -0.50649 9.98717 50
endloop
endfacet
facet normal 0 1 0
outer loop
vertex -0.50649 9.98717 -50
vertex -0.50649 9.98717 50
vertex 0.50649 9.98717 -50
endloop
endfacet
facet normal 0 1 0
outer loop
vertex 0.50649 9.98717 -50
vertex -0.50649 9.98717 50
vertex 0.50649 9.98717 50
endloop
endfacet
facet normal 0.10117591739398023 0.9948685509852477 0
outer loop
vertex 0.50649 9.98717 -50
vertex 0.50649 9.98717 50
vertex 1.51428 9.88468 -50
endloop
endfacet
facet normal 0.10117591739398023 0.9948685509852477 0
outer loop
vertex 1.51428 9.88468 -50
vertex 0.50649 9.98717 50
vertex 1.51428 9.88468 50
endloop
endfacet
facet normal 0.20129609662326398 0.9795304392841693 0
outer loop
vertex 1.51428 9.88468 -50
vertex 1.51428 9.88468 50
vertex 2.50653 9.68077 -50
endloop
endfacet
facet normal 0.20129609662326398 0.9795304392841693 0
outer loop
vertex 2.50653 9.68077 -50
vertex 1.51428 9.88468 50
vertex 2.50653 9.68077 50
endloop
endfacet
facet normal 0.29936527420340614 0.954138581444603 0
outer loop
vertex 2.50653 9.68077 -50
vertex 2.50653 9.68077 50
vertex 3.47305 9.37752 -50
endloop
endfacet
facet normal 0.29936527420340614 0.954138581444603 0
outer loop
vertex 3.47305 9.37752 -50
vertex 2.50653 9.68077 50
vertex 3.47305 9.37752 50
endloop
endfacet
facet normal 0.3943505526725249 0.9189600870586677 0
outer loop
vertex 3.47305 9.37752 -50
vertex 3.47305 9.37752 50
vertex 4.40394 8.97805 -50
endloop
endfacet
facet normal 0.3943505526725249 0.9189600870586677 0
outer loop
vertex 4.40394 8.97805 -50
vertex 3.47305 9.37752 50
vertex 4.40394 8.97805 50
endloop
endfacet
facet normal 0.48530678896428303 0.8743439372381883 0
outer loop
vertex 4.40394 8.97805 -50
vertex 4.40394 8.97805 50
vertex 5.28964 8.48644 -50
endloop
endfacet
facet normal 0.48530678896428303 0.8743439372381883 0
outer loop
vertex 5.28964 8.48644 -50
vertex 4.40394 8.97805 50
vertex 5.28964 8.48644 50
endloop
endfacet
facet normal 0.5712646246981277 0.8207659401854511 0
outer loop
vertex 5.28964 8.48644 -50
vertex 5.28964 8.48644 50
vertex 6.12106 7.90776 -50
endloop
endfacet
facet normal 0.5712646246981277 0.8207659401854511 0
outer loop
vertex 6.12106 7.90776 -50
vertex 5.28964 8.48644 50
vertex 6.12106 7.90776 50
endloop
endfacet
facet normal 0.6513724588664767 0.758758143172276 0
outer loop
vertex 6.12106 7.90776 -50
vertex 6.12106 7.90776 50
vertex 6.88967 7.24793 -50
endloop
endfacet
facet normal 0.6513724588664767 0.758758143172276 0
outer loop
vertex 6.88967 7.24793 -50
vertex 6.12106 7.90776 50
vertex 6.88967 7.24793 50
endloop
endfacet
facet normal 0.7247970499683982 0.6889624346487312 0
outer loop
vertex 6.88967 7.24793 -50
vertex 6.88967 7.24793 50
vertex 7.58758 6.51372 -50
endloop
endfacet
facet normal 0.7247970499683982 0.6889624346487312 0
outer loop
vertex 7.58758 6.51372 -50
vertex 6.88967 7.24793 50
vertex 7.58758 6.51372 50
endloop
endfacet
facet normal 0.79077626903439 0.6121052951347914 0
outer loop
vertex 7.58758 6.51372 -50
vertex 7.58758 6.51372 50
vertex 8.20763 5.71268 -50
endloop
endfacet
facet normal 0.79077626903439 0.6121052951347914 0
outer loop
vertex 8.20763 5.71268 -50
vertex 7.58758 6.51372 50
vertex 8.20763 5.71268 50
endloop
endfacet
facet normal 0.848639903597774 0.5289709954445148 0
outer loop
vertex 8.20763 5.71268 -50
vertex 8.20763 5.71268 50
vertex 8.74347 4.85302 -50
endloop
endfacet
facet normal 0.848639903597774 0.5289709954445148 0
outer loop
vertex 8.74347 4.85302 -50
vertex 8.20763 5.71268 50
vertex 8.74347 4.85302 50
endloop
endfacet
facet normal 0.8978050968886258 0.44039301538603587 0
outer loop
vertex 8.74347 4.85302 -50
vertex 8.74347 4.85302 50
vertex 9.18958 3.94356 -50
endloop
endfacet
facet normal 0.8978050968886258 0.44039301538603587 0
outer loop
vertex 9.18958 3.94356 -50
vertex 8.74347 4.85302 50
vertex 9.18958 3.94356 50
endloop
endfacet
facet normal 0.9377538811078928 0.3473005304733697 0
outer loop
vertex 9.18958 3.94356 -50
vertex 9.18958 3.94356 50
vertex 9.54139 2.99363 -50
endloop
endfacet
facet normal 0.9377538811078928 0.3473005304733697 0
outer loop
vertex 9.54139 2.99363 -50
vertex 9.18958 3.94356 50
vertex 9.54139 2.99363 50
endloop
endfacet
facet normal 0.9680759900255813 0.2506568920576304 0
outer loop
vertex 9.54139 2.99363 -50
vertex 9.54139 2.99363 50
vertex 9.7953 2.01299 -50
endloop
endfacet
facet normal 0.9680759900255813 0.2506568920576304 0
outer loop
vertex 9.7953 2.01299 -50
vertex 9.54139 2.99363 50
vertex 9.7953 2.01299 50
endloop
endfacet
facet normal 0.9884690704933199 0.1514229067151734 0
outer loop
vertex 9.7953 2.01299 -50
vertex 9.7953 2.01299 50
vertex 9.94869 1.01168 -50
endloop
endfacet
facet normal 0.9884690704933199 0.1514229067151734 0
outer loop
vertex 9.94869 1.01168 -50
vertex 9.7953 2.01299 50
vertex 9.94869 1.01168 50
endloop
endfacet
facet normal 0.9987163375223298 0.0506525139157358 0
outer loop
vertex 9.94869 1.01168 -50
vertex 9.94869 1.01168 50
vertex 10 0 -50
endloop
endfacet
facet normal 0.9987163375223298 0.0506525139157358 0
outer loop
vertex 10 0 -50
vertex 9.94869 1.01168 50
vertex 10 0 50
endloop
endfacet
facet normal 0.9987163375223298 -0.0506525139157358 0
outer loop
vertex 10 0 -50
vertex 10 0 50
vertex 9.94869 -1.01168 -50
endloop
endfacet
facet normal 0.9987163375223298 -0.0506525139157358 0
outer loop
vertex 9.94869 -1.01168 -50
vertex 10 0 50
vertex 9.94869 -1.01168 50
endloop
endfacet
facet normal 0 0 1
outer loop
vertex 10 0 50
vertex 9.94869 1.01168 50
vertex 9.7953 2.01299 50
endloop
endfacet
facet normal 0 0 1
outer loop
vertex 10 0 50
vertex 9.7953 2.01299 50
vertex 9.54139 2.99363 50
endloop
endfacet
facet normal 0 0 1
outer loop
vertex 10 0 50
vertex 9.54139 2.99363 50
vertex 9.18958 3.94356 50
endloop
endfacet
facet normal 0 0 1
outer loop
vertex 10 0 50
vertex 9.18958 3.94356 50
vertex 8.74347 4.85302 50
endloop
endfacet
facet normal 0 0 1
outer loop
vertex 10 0 50
vertex 8.74347 4.85302 50
vertex 8.20763 5.71268 50
endloop
endfacet
facet normal 0 0 1
outer loop
vertex 10 0 50
vertex 8.20763 5.71268 50
vertex 7.58758 6.51372 50
endloop
endfacet
facet normal 0 0 1
outer loop
vertex 10 0 50
vertex 7.58758 6.51372 50
vertex 6.88967 7.24793 50
endloop
endfacet
facet normal 0 0 1
outer loop
vertex 10 0 50
vertex 6.88967 7.24793 50
vertex 6.12106 7.90776 50
endloop
endfacet
facet normal 0 0 1
outer loop
vertex 10 0 50
vertex 6.12106 7.90776 50
vertex 5.28964 8.48644 50
endloop
endfacet
facet normal 0 0 1
outer loop
vertex 10 0 50
vertex 5.28964 8.48644 50
vertex 4.40394 8.97805 50
endloop
endfacet
facet normal 0 0 1
outer loop
vertex 10 0 50
vertex 4.40394 8.97805 50
vertex 3.47305 9.37752 50
endloop
endfacet
facet normal 0 0 1
outer loop
vertex 10 0 50
vertex 3.47305 9.37752 50
vertex 2.50653 9.68077 50
endloop
endfacet
facet normal 0 0 1
outer loop
vertex 10 0 50
vertex 2.50653 9.68077 50
vertex 1.51428 9.88468 50
endloop
endfacet
facet normal 0 0 1
outer loop
vertex 10 0 50
vertex 1.51428 9.88468 50
vertex 0.50649 9.98717 50
endloop
endfacet
facet normal 0 0 1
outer loop
vertex 10 0 50
vertex 0.50649 9.98717 50
vertex -0.50649 9.98717 50
endloop
endfacet
facet normal 0 0 1
outer loop
vertex 10 0 50
vertex -0.50649 9.98717 50
vertex -1.51428 9.88468 50
endloop
endfacet
facet normal 0 0 1
outer loop
vertex 10 0 50
vertex -1.51428 9.88468 50
vertex -2.50653 9.68077 50
endloop
endfacet
facet normal 0 0 1
outer loop
vertex 10 0 50
vertex -2.50653 9.68077 50
vertex -3.47305 9.37752 50
endloop
endfacet
facet normal 0 0 1
outer loop
vertex 10 0 50
vertex -3.47305 9.37752 50
vertex -4.40394 8.97805 50
endloop
endfacet
facet normal 0 0 1
outer loop
vertex 10 0 50
vertex -4.40394 8.97805 50
vertex -5.28964 8.48644 50
endloop
endfacet
facet normal 0 0 1
outer loop
vertex 10 0 50
vertex -5.28964 8.48644 50
vertex -6.12106 7.90776 50
endloop
endfacet
facet normal 0 0 1
outer loop
vertex 10 0 50
vertex -6.12106 7.90776 50
vertex -6.88967 7.24793 50
endloop
endfacet
facet normal 0 0 1
outer loop
vertex 10 0 50
vertex -6.88967 7.24793 50
vertex -7.58758 6.51372 50
endloop
endfacet
facet normal 0 0 1
outer loop
vertex 10 0 50
vertex -7.58758 6.51372 50
vertex -8.20763 5.71268 50
endloop
endfacet
facet normal 0 0 1
outer loop
vertex 10 0 50
vertex -8.20763 5.71268 50
vertex -8.74347 4.85302 50
endloop
endfacet
facet normal 0 0 1
outer loop
vertex 10 0 50
vertex -8.74347 4.85302 50
vertex -9.18958 3.94356 50
endloop
endfacet
facet normal 0 0 1
outer loop
vertex 10 0 50
vertex -9.18958 3.94356 50
vertex -9.54139 2.99363 50
endloop
endfacet
facet normal 0 0 1
outer loop
vertex 10 0 50
vertex -9.54139 2.99363 50
vertex -9.7953 2.01299 50
endloop
endfacet
facet normal 0 0 1
outer loop
vertex 10 0 50
vertex -9.7953 2.01299 50
vertex -9.94869 1.01168 50
endloop
endfacet
facet normal 0 0 1
outer loop
vertex 10 0 50
vertex -9.94869 1.01168 50
vertex -10 0 50
endloop
endfacet
facet normal 0 0 1
outer loop
vertex 10 0 50
vertex -10 0 50
vertex -9.94869 -1.01168 50
endloop
endfacet
facet normal 0 0 1
outer loop
vertex 10 0 50
vertex -9.94869 -1.01168 50
vertex -9.7953 -2.01299 50
endloop
endfacet
facet normal 0 0 1
outer loop
vertex 10 0 50
vertex -9.7953 -2.01299 50
vertex -9.54139 -2.99363 50
endloop
endfacet
facet normal 0 0 1
outer loop
vertex 10 0 50
vertex -9.54139 -2.99363 50
vertex -9.18958 -3.94356 50
endloop
endfacet
facet normal 0 0 1
outer loop
vertex 10 0 50
vertex -9.18958 -3.94356 50
vertex -8.74347 -4.85302 50
endloop
endfacet
facet normal 0 0 1
outer loop
vertex 10 0 50
vertex -8.74347 -4.85302 50
vertex -8.20763 -5.71268 50
endloop
endfacet
facet normal 0 0 1
outer loop
vertex 10 0 50
vertex -8.20763 -5.71268 50
vertex -7.58758 -6.51372 50
endloop
endfacet
facet normal 0 0 1
outer loop
vertex 10 0 50
vertex -7.58758 -6.51372 50
vertex -6.88967 -7.24793 50
endloop
endfacet
facet normal 0 0 1
outer loop
vertex 10 0 50
vertex -6.88967 -7.24793 50
vertex -6.12106 -7.90776 50
endloop
endfacet
facet normal 0 0 1
outer loop
vertex 10 0 50
vertex -6.12106 -7.90776 50
vertex -5.28964 -8.48644 50
endloop
endfacet
facet normal 0 0 1
outer loop
vertex 10 0 50
vertex -5.28964 -8.48644 50
vertex -4.40394 -8.97805 50
endloop
endfacet
facet normal 0 0 1
outer loop
vertex 10 0 50
vertex -4.40394 -8.97805 50
vertex -3.47305 -9.37752 50
endloop
endfacet
facet normal 0 0 1
outer loop
vertex 10 0 50
vertex -3.47305 -9.37752 50
vertex -2.50653 -9.68077 50
endloop
endfacet
facet normal 0 0 1
outer loop
vertex 10 0 50
vertex -2.50653 -9.68077 50
vertex -1.51428 -9.88468 50
endloop
endfacet
facet normal 0 0 1
outer loop
vertex 10 0 50
vertex -1.51428 -9.88468 50
vertex -0.50649 -9.98717 50
endloop
endfacet
facet normal 0 0 1
outer loop
vertex 10 0 50
vertex -0.50649 -9.98717 50
vertex 0.50649 -9.98717 50
endloop
endfacet
facet normal 0 0 1
outer loop
vertex 10 0 50
vertex 0.50649 -9.98717 50
vertex 1.51428 -9.88468 50
endloop
endfacet
facet normal 0 0 1
outer loop
vertex 10 0 50
vertex 1.51428 -9.88468 50
vertex 2.50653 -9.68077 50
endloop
endfacet
facet normal 0 0 1
outer loop
vertex 10 0 50
vertex 2.50653 -9.68077 50
vertex 3.47305 -9.37752 50
endloop
endfacet
facet normal 0 0 1
outer loop
vertex 10 0 50
vertex 3.47305 -9.37752 50
vertex 4.40394 -8.97805 50
endloop
endfacet
facet normal 0 0 1
outer loop
vertex 10 0 50
vertex 4.40394 -8.97805 50
vertex 5.28964 -8.48644 50
endloop
endfacet
facet normal 0 0 1
outer loop
vertex 10 0 50
vertex 5.28964 -8.48644 50
vertex 6.12106 -7.90776 50
endloop
endfacet
facet normal 0 0 1
outer loop
vertex 10 0 50
vertex 6.12106 -7.90776 50
vertex 6.88967 -7.24793 50
endloop
endfacet
facet normal 0 0 1
outer loop
vertex 10 0 50
vertex 6.88967 -7.24793 50
vertex 7.58758 -6.51372 50
endloop
endfacet
facet normal 0 0 1
outer loop
vertex 10 0 50
vertex 7.58758 -6.51372 50
vertex 8.20763 -5.71268 50
endloop
endfacet
facet normal 0 0 1
outer loop
vertex 10 0 50
vertex 8.20763 -5.71268 50
vertex 8.74347 -4.85302 50
endloop
endfacet
facet normal 0 0 1
outer loop
vertex 10 0 50
vertex 8.74347 -4.85302 50
vertex 9.18958 -3.94356 50
endloop
endfacet
facet normal 0 0 1
outer loop
vertex 10 0 50
vertex 9.18958 -3.94356 50
vertex 9.54139 -2.99363 50
endloop
endfacet
facet normal 0 0 1
outer loop
vertex 10 0 50
vertex 9.54139 -2.99363 50
vertex 9.7953 -2.01299 50
endloop
endfacet
facet normal 0 0 1
outer loop
vertex 10 0 50
vertex 9.7953 -2.01299 50
vertex 9.94869 -1.01168 50
endloop
endfacet
facet normal 0 0 -1
outer loop
vertex 9.94869 -1.01168 -50
vertex 9.7953 -2.01299 -50
vertex 9.54139 -2.99363 -50
endloop
endfacet
facet normal 0 0 -1
outer loop
vertex 9.94869 -1.01168 -50
vertex 9.54139 -2.99363 -50
vertex 9.18958 -3.94356 -50
endloop
endfacet
facet normal 0 0 -1
outer loop
vertex 9.94869 -1.01168 -50
vertex 9.18958 -3.94356 -50
vertex 8.74347 -4.85302 -50
endloop
endfacet
facet normal 0 0 -1
outer loop
vertex 9.94869 -1.01168 -50
vertex 8.74347 -4.85302 -50
vertex 8.20763 -5.71268 -50
endloop
endfacet
facet normal 0 0 -1
outer loop
vertex 9.94869 -1.01168 -50
vertex 8.20763 -5.71268 -50
vertex 7.58758 -6.51372 -50
endloop
endfacet
facet normal 0 0 -1
outer loop
vertex 9.94869 -1.01168 -50
vertex 7.58758 -6.51372 -50
vertex 6.88967 -7.24793 -50
endloop
endfacet
facet normal 0 0 -1
outer loop
vertex 9.94869 -1.01168 -50
vertex 6.88967 -7.24793 -50
vertex 6.12106 -7.90776 -50
endloop
endfacet
facet normal 0 0 -1
outer loop
vertex 9.94869 -1.01168 -50
vertex 6.12106 -7.90776 -50
vertex 5.28964 -8.48644 -50
endloop
endfacet
facet normal 0 0 -1
outer loop
vertex 9.94869 -1.01168 -50
vertex 5.28964 -8.48644 -50
vertex 4.40394 -8.97805 -50
endloop
endfacet
facet normal 0 0 -1
outer loop
vertex 9.94869 -1.01168 -50
vertex 4.40394 -8.97805 -50
vertex 3.47305 -9.37752 -50
endloop
endfacet
facet normal 0 0 -1
outer loop
vertex 9.94869 -1.01168 -50
vertex 3.47305 -9.37752 -50
vertex 2.50653 -9.68077 -50
endloop
endfacet
facet normal 0 0 -1
outer loop
vertex 9.94869 -1.01168 -50
vertex 2.50653 -9.68077 -50
vertex 1.51428 -9.88468 -50
endloop
endfacet
facet normal 0 0 -1
outer loop
vertex 9.94869 -1.01168 -50
vertex 1.51428 -9.88468 -50
vertex 0.50649 -9.98717 -50
endloop
endfacet
facet normal 0 0 -1
outer loop
vertex 9.94869 -1.01168 -50
vertex 0.50649 -9.98717 -50
vertex -0.50649 -9.98717 -50
endloop
endfacet
facet normal 0 0 -1
outer loop
vertex 9.94869 -1.01168 -50
vertex -0.50649 -9.98717 -50
vertex -1.51428 -9.88468 -50
endloop
endfacet
facet normal 0 0 -1
outer loop
vertex 9.94869 -1.01168 -50
vertex -1.51428 -9.88468 -50
vertex -2.50653 -9.68077 -50
endloop
endfacet
facet normal 0 0 -1
outer loop
vertex 9.94869 -1.01168 -50
vertex -2.50653 -9.68077 -50
vertex -3.47305 -9.37752 -50
endloop
endfacet
facet normal 0 0 -1
outer loop
vertex 9.94869 -1.01168 -50
vertex -3.47305 -9.37752 -50
vertex -4.40394 -8.97805 -50
endloop
endfacet
facet normal 0 0 -1
outer loop
vertex 9.94869 -1.01168 -50
vertex -4.40394 -8.97805 -50
vertex -5.28964 -8.48644 -50
endloop
endfacet
facet normal 0 0 -1
outer loop
vertex 9.94869 -1.01168 -50
vertex -5.28964 -8.48644 -50
vertex -6.12106 -7.90776 -50
endloop
endfacet
facet normal 0 0 -1
outer loop
vertex 9.94869 -1.01168 -50
vertex -6.12106 -7.90776 -50
vertex -6.88967 -7.24793 -50
endloop
endfacet
facet normal 0 0 -1
outer loop
vertex 9.94869 -1.01168 -50
vertex -6.88967 -7.24793 -50
vertex -7.58758 -6.51372 -50
endloop
endfacet
facet normal 0 0 -1
outer loop
vertex 9.94869 -1.01168 -50
vertex -7.58758 -6.51372 -50
vertex -8.20763 -5.71268 -50
endloop
endfacet
facet normal 0 0 -1
outer loop
vertex 9.94869 -1.01168 -50
vertex -8.20763 -5.71268 -50
vertex -8.74347 -4.85302 -50
endloop
endfacet
facet normal 0 0 -1
outer loop
vertex 9.94869 -1.01168 -50
vertex -8.74347 -4.85302 -50
vertex -9.18958 -3.94356 -50
endloop
endfacet
facet normal 0 0 -1
outer loop
vertex 9.94869 -1.01168 -50
vertex -9.18958 -3.94356 -50
vertex -9.54139 -2.99363 -50
endloop
endfacet
facet normal 0 0 -1
outer loop
vertex 9.94869 -1.01168 -50
vertex -9.54139 -2.99363 -50
vertex -9.7953 -2.01299 -50
endloop
endfacet
facet normal 0 0 -1
outer loop
vertex 9.94869 -1.01168 -50
vertex -9.7953 -2.01299 -50
vertex -9.94869 -1.01168 -50
endloop
endfacet
facet normal 0 0 -1
outer loop
vertex 9.94869 -1.01168 -50
vertex -9.94869 -1.01168 -50
vertex -10 0 -50
endloop
endfacet
facet normal 0 0 -1
outer loop
vertex 9.94869 -1.01168 -50
vertex -10 0 -50
vertex -9.94869 1.01168 -50
endloop
endfacet
facet normal 0 0 -1
outer loop
vertex 9.94869 -1.01168 -50
vertex -9.94869 1.01168 -50
vertex -9.7953 2.01299 -50
endloop
endfacet
facet normal 0 0 -1
outer loop
vertex 9.94869 -1.01168 -50
vertex -9.7953 2.01299 -50
vertex -9.54139 2.99363 -50
endloop
endfacet
facet normal 0 0 -1
outer loop
vertex 9.94869 -1.01168 -50
vertex -9.54139 2.99363 -50
vertex -9.18958 3.94356 -50
endloop
endfacet
facet normal 0 0 -1
outer loop
vertex 9.94869 -1.01168 -50
vertex -9.18958 3.94356 -50
vertex -8.74347 4.85302 -50
endloop
endfacet
facet normal 0 0 -1
outer loop
vertex 9.94869 -1.01168 -50
vertex -8.74347 4.85302 -50
vertex -8.20763 5.71268 -50
endloop
endfacet
facet normal 0 0 -1
outer loop
vertex 9.94869 -1.01168 -50
vertex -8.20763 5.71268 -50
vertex -7.58758 6.51372 -50
endloop
endfacet
facet normal 0 0 -1
outer loop
vertex 9.94869 -1.01168 -50
vertex -7.58758 6.51372 -50
vertex -6.88967 7.24793 -50
endloop
endfacet
facet normal 0 0 -1
outer loop
vertex 9.94869 -1.01168 -50
vertex -6.88967 7.24793 -50
vertex -6.12106 7.90776 -50
endloop
endfacet
facet normal 0 0 -1
outer loop
vertex 9.94869 -1.01168 -50
vertex -6.12106 7.90776 -50
vertex -5.28964 8.48644 -50
endloop
endfacet
facet normal 0 0 -1
outer loop
vertex 9.94869 -1.01168 -50
vertex -5.28964 8.48644 -50
vertex -4.40394 8.97805 -50
endloop
endfacet
facet normal 0 0 -1
outer loop
vertex 9.94869 -1.01168 -50
vertex -4.40394 8.97805 -50
vertex -3.47305 9.37752 -50
endloop
endfacet
facet normal 0 0 -1
outer loop
vertex 9.94869 -1.01168 -50
vertex -3.47305 9.37752 -50
vertex -2.50653 9.68077 -50
endloop
endfacet
facet normal 0 0 -1
outer loop
vertex 9.94869 -1.01168 -50
vertex -2.50653 9.68077 -50
vertex -1.51428 9.88468 -50
endloop
endfacet
facet normal 0 0 -1
outer loop
vertex 9.94869 -1.01168 -50
vertex -1.51428 9.88468 -50
vertex -0.50649 9.98717 -50
endloop
endfacet
facet normal 0 0 -1
outer loop
vertex 9.94869 -1.01168 -50
vertex -0.50649 9.98717 -50
vertex 0.50649 9.98717 -50
endloop
endfacet
facet normal 0 0 -1
outer loop
vertex 9.94869 -1.01168 -50
vertex 0.50649 9.98717 -50
vertex 1.51428 9.88468 -50
endloop
endfacet
facet normal 0 0 -1
outer loop
vertex 9.94869 -1.01168 -50
vertex 1.51428 9.88468 -50
vertex 2.50653 9.68077 -50
endloop
endfacet
facet normal 0 0 -1
outer loop
vertex 9.94869 -1.01168 -50
vertex 2.50653 9.68077 -50
vertex 3.47305 9.37752 -50
endloop
endfacet
facet normal 0 0 -1
outer loop
vertex 9.94869 -1.01168 -50
vertex 3.47305 9.37752 -50
vertex 4.40394 8.97805 -50
endloop
endfacet
facet normal 0 0 -1
outer loop
vertex 9.94869 -1.01168 -50
vertex 4.40394 8.97805 -50
vertex 5.28964 8.48644 -50
endloop
endfacet
facet normal 0 0 -1
outer loop
vertex 9.94869 -1.01168 -50
vertex 5.28964 8.48644 -50
vertex 6.12106 7.90776 -50
endloop
endfacet
facet normal 0 0 -1
outer loop
vertex 9.94869 -1.01168 -50
vertex 6.12106 7.90776 -50
vertex 6.88967 7.24793 -50
endloop
endfacet
facet normal 0 0 -1
outer loop
vertex 9.94869 -1.01168 -50
vertex 6.88967 7.24793 -50
vertex 7.58758 6.51372 -50
endloop
endfacet
facet normal 0 0 -1
outer loop
vertex 9.94869 -1.01168 -50
vertex 7.58758 6.51372 -50
vertex 8.20763 5.71268 -50
endloop
endfacet
facet normal 0 0 -1
outer loop
vertex 9.94869 -1.01168 -50
vertex 8.20763 5.71268 -50
vertex 8.74347 4.85302 -50
endloop
endfacet
facet normal 0 0 -1
outer loop
vertex 9.94869 -1.01168 -50
vertex 8.74347 4.85302 -50
vertex 9.18958 3.94356 -50
endloop
endfacet
facet normal 0 0 -1
outer loop
vertex 9.94869 -1.01168 -50
vertex 9.18958 3.94356 -50
vertex 9.54139 2.99363 -50
endloop
endfacet
facet normal 0 0 -1
outer loop
vertex 9.94869 -1.01168 -50
vertex 9.54139 2.99363 -50
vertex 9.7953 2.01299 -50
endloop
endfacet
facet normal 0 0 -1
outer loop
vertex 9.94869 -1.01168 -50
vertex 9.7953 2.01299 -50
vertex 9.94869 1.01168 -50
endloop
endfacet
facet normal 0 0 -1
outer loop
vertex 9.94869 -1.01168 -50
vertex 9.94869 1.01168 -50
vertex 10 0 -50
endloop
endfacet
endsolid JSxCAD
