<?xml version="1.0" encoding="UTF-8"?>
<!-- Generated by jsxcad -->
<!DOCTYPE svg PUBLIC "-//W3C//DTD SVG 1.1 Tiny//EN" "http://www.w3.org/Graphics/SVG/1.1/DTD/svg11-tiny.dtd">
<svg viewBox="-250 -250 500 500" width="500" height="500" xmlns="http://www.w3.org/2000/svg"><path d="M29.849453133933167,121.69480061852063L-84.83354489310271,-85.40614796941935L27.228080969163493,117.99002636327579z" style="fill:rgb(19,60,139)"/><path d="M-19.788313091805744,-117.67253202943108L81.84975439856687,96.1790935946801L80.64274530723229,91.77488860314963z" style="fill:rgb(245,171,144)"/><path d="M33.46740882434263,124.69450692838312L-82.22147906536836,-81.95141992462786L29.849453133933167,121.69480061852063z" style="fill:rgb(32,47,158)"/><path d="M81.84975439856687,96.1790935946801L-19.28608677166812,-108.60652669657728L81.89206131094056,100.93802487193577z" style="fill:rgb(247,153,162)"/><path d="M37.94208802120053,126.85441321646742L-78.36385702852427,-79.31159150965206L33.46740882434263,124.69450692838312z" style="fill:rgb(49,39,175)"/><path d="M81.89206131094056,100.93802487193577L-21.13188268254768,-103.52681947273489L80.7538663807933,105.85533126187464z" style="fill:rgb(243,134,179)"/><path d="M80.7538663807933,105.85533126187464L-24.315419947098018,-98.36214240598432L78.47083477272214,110.72324041911602z" style="fill:rgb(235,115,194)"/><path d="M-61.01962403149737,-77.32323673733022L43.09292496231269,128.0733256643065L48.70551348597882,128.28987107636715z" style="fill:rgb(91,32,204)"/><path d="M78.47083477272214,110.72324041911602L-28.713494681661942,-93.33592164675461L75.13056236601552,115.33206003061728z" style="fill:rgb(222,96,207)"/><path d="M-74.7575536279095,-90.30322771190697L37.94208802120053,126.85441321646742L43.09292496231269,128.0733256643065z" style="fill:rgb(69,33,191)"/><path d="M-54.1152484266132,-78.77159716017957L48.70551348597882,128.28987107636715L54.54086022788231,127.48694448513324z" style="fill:rgb(115,34,214)"/><path d="M75.13056236601552,115.33206003061728L-34.14412100545594,-88.66957170396492L70.87001722550663,119.48044908266965z" style="fill:rgb(205,79,215)"/><path d="M-47.130726651570356,-81.22231821429705L54.54086022788231,127.48694448513324L60.34669462637133,125.69384866229282z" style="fill:rgb(139,40,220)"/><path d="M-40.374174065071536,-84.57082089259733L60.34669462637133,125.69384866229282L65.87000400056007,122.98579012112512z" style="fill:rgb(163,50,222)"/><path d="M-41.00035384268574,-102.25941308477486L65.87000400056007,122.98579012112512L70.87001722550663,119.48044908266965z" style="fill:rgb(185,63,221)"/><path d="M-84.83354489310271,-85.40614796941935L29.849453133933167,121.69480061852063L-82.22147906536836,-81.95141992462786z" style="fill:rgb(19,60,139)"/><path d="M81.84975439856687,96.1790935946801L-19.788313091805744,-117.67253202943108L-18.838764969179042,-113.38693642912023z" style="fill:rgb(245,171,144)"/><path d="M-19.28608677166812,-108.60652669657728L81.84975439856687,96.1790935946801L-18.838764969179042,-113.38693642912023z" style="fill:rgb(247,153,162)"/><path d="M-82.22147906536836,-81.95141992462786L33.46740882434263,124.69450692838312L-78.36385702852427,-79.31159150965206z" style="fill:rgb(32,47,158)"/><path d="M-21.13188268254768,-103.52681947273489L81.89206131094056,100.93802487193577L-19.28608677166812,-108.60652669657728z" style="fill:rgb(243,134,179)"/><path d="M-78.36385702852427,-79.31159150965206L37.94208802120053,126.85441321646742L-73.40510958964245,-77.61049522305278z" style="fill:rgb(49,39,175)"/><path d="M-24.315419947098018,-98.36214240598432L80.7538663807933,105.85533126187464L-21.13188268254768,-103.52681947273489z" style="fill:rgb(235,115,194)"/><path d="M43.09292496231269,128.0733256643065L-61.01962403149737,-77.32323673733022L-67.54257603128809,-76.9338937393129z" style="fill:rgb(91,32,204)"/><path d="M-28.713494681661942,-93.33592164675461L78.47083477272214,110.72324041911602L-24.315419947098018,-98.36214240598432z" style="fill:rgb(222,96,207)"/><path d="M48.70551348597882,128.28987107636715L-54.1152484266132,-78.77159716017957L-61.01962403149737,-77.32323673733022z" style="fill:rgb(115,34,214)"/><path d="M-34.14412100545594,-88.66957170396492L75.13056236601552,115.33206003061728L-28.713494681661942,-93.33592164675461z" style="fill:rgb(205,79,215)"/><path d="M54.54086022788231,127.48694448513324L-47.130726651570356,-81.22231821429705L-54.1152484266132,-78.77159716017957z" style="fill:rgb(139,40,220)"/><path d="M37.94208802120053,126.85441321646742L-74.7575536279095,-90.30322771190697L-80.66086483302762,-90.9341159548675z" style="fill:rgb(69,33,191)"/><path d="M60.34669462637133,125.69384866229282L-40.374174065071536,-84.57082089259733L-47.130726651570356,-81.22231821429705z" style="fill:rgb(163,50,222)"/><path d="M65.87000400056007,122.98579012112512L-41.00035384268574,-102.25941308477486L-47.31201711518625,-98.12445689640145z" style="fill:rgb(185,63,221)"/><path d="M-74.5011242665838,-130.91016252615017L-42.07585332386075,-132.25365575763917L-68.21784336798807,-134.48759527225974zM-68.21784336798807,-134.48759527225974L-42.07585332386075,-132.25365575763917L-61.59218786364646,-137.32441588236364zM-61.59218786364646,-137.32441588236364L-42.07585332386075,-132.25365575763917L-54.87460425701948,-139.31168982717892z" style="fill:rgb(83,212,212)"/><path d="M-42.07585332386075,-132.25365575763917L-68.70453387041358,-109.1416460598696L-35.43284875453236,-118.76631158190946z" style="fill:rgb(127,37,217)"/><path d="M-54.87460425701948,-139.31168982717892L-42.07585332386075,-132.25365575763917L-48.32056915861636,-140.36943740735956z" style="fill:rgb(83,212,212)"/><path d="M-68.70453387041358,-109.1416460598696L-42.07585332386075,-132.25365575763917L-75.67530186882698,-122.40489169760471z" style="fill:rgb(127,37,217)"/><path d="M-74.5011242665838,-130.91016252615017L-75.67530186882698,-122.40489169760471L-42.07585332386075,-132.25365575763917zM-48.32056915861636,-140.36943740735956L-42.07585332386075,-132.25365575763917L-42.18311203241655,-140.44971864944236zM-68.70453387041358,-109.1416460598696L-36.32129160603899,-95.63931539001399L-35.43284875453236,-118.76631158190946zM-42.18311203241655,-140.44971864944236L-42.07585332386075,-132.25365575763917L-36.70488327157172,-139.53920382258036z" style="fill:rgb(83,212,212)"/><path d="M-77.5788829848201,-99.29505966285244L-68.70453387041358,-109.1416460598696L-75.67530186882698,-122.40489169760471z" style="fill:rgb(247,158,158)"/><path d="M-85.1061163137736,-122.09392363840738L-85.64464798481357,-92.59342890695267L-80.20367365870756,-126.72675501135406zM-89.01483239850428,-117.18597591622184L-89.51076677229679,-95.19692679239228L-85.1061163137736,-122.09392363840738zM-80.20367365870756,-126.72675501135406L-80.66086483302762,-90.9341159548675L-74.5011242665838,-130.91016252615017zM-91.76874396727125,-112.19022128141035L-92.11486909654505,-98.62202376853985L-89.01483239850428,-117.18597591622184zM-93.36979248660576,-102.7154281548948L-91.76874396727125,-112.19022128141035L-93.24589482809083,-107.30141586177767zM-36.32129160603899,-95.63931539001399L-68.70453387041358,-109.1416460598696L-70.41258558511059,-85.9719730200087zM-74.5011242665838,-130.91016252615017L-80.66086483302762,-90.9341159548675L-75.67530186882698,-122.40489169760471z" style="fill:rgb(83,212,212)"/><path d="M-68.70453387041358,-109.1416460598696L-77.5788829848201,-99.29505966285244L-70.41258558511059,-85.9719730200087z" style="fill:rgb(247,158,158)"/><path d="M-91.76874396727125,-112.19022128141035L-93.36979248660576,-102.7154281548948L-92.11486909654505,-98.62202376853985z" style="fill:rgb(83,212,212)"/><path d="M-82.22147906536836,-81.95141992462786L-92.11486909654505,-98.62202376853985L-84.83354489310271,-85.40614796941935z" style="fill:rgb(19,60,139)"/><path d="M-26.315589928597216,-131.28506765849178L-18.838764969179042,-113.38693642912023L-19.788313091805744,-117.67253202943108z" style="fill:rgb(245,171,144)"/><path d="M-89.01483239850428,-117.18597591622184L-92.11486909654505,-98.62202376853985L-89.51076677229679,-95.19692679239228zM-85.1061163137736,-122.09392363840738L-89.51076677229679,-95.19692679239228L-85.64464798481357,-92.59342890695267zM-36.70488327157172,-139.53920382258036L-42.07585332386075,-132.25365575763917L-43.14343740635699,-109.19321512958045z" style="fill:rgb(83,212,212)"/><path d="M-78.36385702852427,-79.31159150965206L-89.51076677229679,-95.19692679239228L-82.22147906536836,-81.95141992462786z" style="fill:rgb(32,47,158)"/><path d="M-92.11486909654505,-98.62202376853985L-82.22147906536836,-81.95141992462786L-89.51076677229679,-95.19692679239228z" style="fill:rgb(19,60,139)"/><path d="M-36.70488327157172,-139.53920382258036L-35.49067199329351,-106.95422994362013L-32.10968477329182,-137.6612268420424zM-80.20367365870756,-126.72675501135406L-85.64464798481357,-92.59342890695267L-80.66086483302762,-90.9341159548675z" style="fill:rgb(83,212,212)"/><path d="M-18.838764969179042,-113.38693642912023L-26.315589928597216,-131.28506765849178L-25.389358329396643,-127.02089125041289z" style="fill:rgb(245,171,144)"/><path d="M-80.66086483302762,-90.9341159548675L-77.5788829848201,-99.29505966285244L-75.67530186882698,-122.40489169760471z" style="fill:rgb(83,212,212)"/><path d="M-18.838764969179042,-113.38693642912023L-25.874839995362393,-122.25213503621502L-19.28608677166812,-108.60652669657728z" style="fill:rgb(247,153,162)"/><path d="M-32.10968477329182,-137.6612268420424L-31.019671670413437,-111.99977784880576L-28.59353272771883,-134.87686644169645z" style="fill:rgb(83,212,212)"/><path d="M-50.13016698951457,-123.07411611409478L-35.43284875453236,-118.76631158190946L-48.875107492458554,-146.05824185595986z" style="fill:rgb(247,158,158)"/><path d="M-73.40510958964245,-77.61049522305278L-85.64464798481357,-92.59342890695267L-78.36385702852427,-79.31159150965206z" style="fill:rgb(49,39,175)"/><path d="M-35.43284875453236,-118.76631158190946L-50.13016698951457,-123.07411611409478L-36.32129160603899,-95.63931539001399z" style="fill:rgb(247,158,158)"/><path d="M-25.874839995362393,-122.25213503621502L-18.838764969179042,-113.38693642912023L-25.389358329396643,-127.02089125041289z" style="fill:rgb(247,153,162)"/><path d="M-28.59353272771883,-134.87686644169645L-27.77247858717934,-117.17369675004642L-26.315589928597216,-131.28506765849178z" style="fill:rgb(83,212,212)"/><path d="M-89.51076677229679,-95.19692679239228L-78.36385702852427,-79.31159150965206L-85.64464798481357,-92.59342890695267z" style="fill:rgb(32,47,158)"/><path d="M-26.315589928597216,-131.28506765849178L-25.874839995362393,-122.25213503621502L-25.389358329396643,-127.02089125041289z" style="fill:rgb(83,212,212)"/><path d="M-19.28608677166812,-108.60652669657728L-27.77247858717934,-117.17369675004642L-21.13188268254768,-103.52681947273489z" style="fill:rgb(243,134,179)"/><path d="M-82.80864066805849,-135.97745301844645L-50.13016698951457,-123.07411611409478L-48.875107492458554,-146.05824185595986z" style="fill:rgb(83,212,212)"/><path d="M-27.77247858717934,-117.17369675004642L-19.28608677166812,-108.60652669657728L-25.874839995362393,-122.25213503621502z" style="fill:rgb(243,134,179)"/><path d="M-36.70488327157172,-139.53920382258036L-43.14343740635699,-109.19321512958045L-41.00035384268574,-102.25941308477486z" style="fill:rgb(83,212,212)"/><path d="M-50.13016698951457,-123.07411611409478L-70.41258558511059,-85.9719730200087L-36.32129160603899,-95.63931539001399z" style="fill:rgb(127,37,217)"/><path d="M-85.64464798481357,-92.59342890695267L-73.40510958964245,-77.61049522305278L-80.66086483302762,-90.9341159548675z" style="fill:rgb(49,39,175)"/><path d="M-26.315589928597216,-131.28506765849178L-27.77247858717934,-117.17369675004642L-25.874839995362393,-122.25213503621502zM-28.59353272771883,-134.87686644169645L-31.019671670413437,-111.99977784880576L-27.77247858717934,-117.17369675004642z" style="fill:rgb(83,212,212)"/><path d="M-21.13188268254768,-103.52681947273489L-31.019671670413437,-111.99977784880576L-24.315419947098018,-98.36214240598432z" style="fill:rgb(235,115,194)"/><path d="M-32.10968477329182,-137.6612268420424L-35.49067199329351,-106.95422994362013L-31.019671670413437,-111.99977784880576zM-36.70488327157172,-139.53920382258036L-41.00035384268574,-102.25941308477486L-35.49067199329351,-106.95422994362013z" style="fill:rgb(83,212,212)"/><path d="M-68.17970186023634,-90.74044341835057L-67.54257603128809,-76.9338937393129L-61.01962403149737,-77.32323673733022z" style="fill:rgb(91,32,204)"/><path d="M-31.019671670413437,-111.99977784880576L-21.13188268254768,-103.52681947273489L-27.77247858717934,-117.17369675004642z" style="fill:rgb(235,115,194)"/><path d="M-77.5788829848201,-99.29505966285244L-80.66086483302762,-90.9341159548675L-74.7575536279095,-90.30322771190697z" style="fill:rgb(83,212,212)"/><path d="M-24.315419947098018,-98.36214240598432L-35.49067199329351,-106.95422994362013L-28.713494681661942,-93.33592164675461z" style="fill:rgb(222,96,207)"/><path d="M-50.13016698951457,-123.07411611409478L-82.80864066805849,-135.97745301844645L-84.9165661453527,-112.93677460253318zM-77.5788829848201,-99.29505966285244L-74.7575536279095,-90.30322771190697L-43.14343740635699,-109.19321512958045z" style="fill:rgb(83,212,212)"/><path d="M-70.41258558511059,-85.9719730200087L-50.13016698951457,-123.07411611409478L-84.9165661453527,-112.93677460253318z" style="fill:rgb(127,37,217)"/><path d="M-61.208694044195006,-92.23687027413953L-61.01962403149737,-77.32323673733022L-54.1152484266132,-78.77159716017957z" style="fill:rgb(115,34,214)"/><path d="M-67.54257603128809,-76.9338937393129L-68.17970186023634,-90.74044341835057L-74.7575536279095,-90.30322771190697z" style="fill:rgb(91,32,204)"/><path d="M-28.713494681661942,-93.33592164675461L-41.00035384268574,-102.25941308477486L-34.14412100545594,-88.66957170396492z" style="fill:rgb(205,79,215)"/><path d="M-35.49067199329351,-106.95422994362013L-24.315419947098018,-98.36214240598432L-31.019671670413437,-111.99977784880576z" style="fill:rgb(222,96,207)"/><path d="M-54.14890809708188,-94.73376739353864L-54.1152484266132,-78.77159716017957L-47.130726651570356,-81.22231821429705z" style="fill:rgb(139,40,220)"/><path d="M-47.31201711518625,-98.12445689640145L-47.130726651570356,-81.22231821429705L-40.374174065071536,-84.57082089259733z" style="fill:rgb(163,50,222)"/><path d="M-61.01962403149737,-77.32323673733022L-61.208694044195006,-92.23687027413953L-68.17970186023634,-90.74044341835057z" style="fill:rgb(115,34,214)"/><path d="M-43.14343740635699,-109.19321512958045L-74.7575536279095,-90.30322771190697L-68.17970186023634,-90.74044341835057z" style="fill:rgb(83,212,212)"/><path d="M-41.00035384268574,-102.25941308477486L-28.713494681661942,-93.33592164675461L-35.49067199329351,-106.95422994362013z" style="fill:rgb(205,79,215)"/><path d="M-54.1152484266132,-78.77159716017957L-54.14890809708188,-94.73376739353864L-61.208694044195006,-92.23687027413953z" style="fill:rgb(139,40,220)"/><path d="M-43.14343740635699,-109.19321512958045L-68.17970186023634,-90.74044341835057L-61.208694044195006,-92.23687027413953z" style="fill:rgb(83,212,212)"/><path d="M-47.130726651570356,-81.22231821429705L-47.31201711518625,-98.12445689640145L-54.14890809708188,-94.73376739353864z" style="fill:rgb(163,50,222)"/><path d="M-43.14343740635699,-109.19321512958045L-61.208694044195006,-92.23687027413953L-54.14890809708188,-94.73376739353864zM-43.14343740635699,-109.19321512958045L-47.31201711518625,-98.12445689640145L-41.00035384268574,-102.25941308477486zM-43.14343740635699,-109.19321512958045L-54.14890809708188,-94.73376739353864L-47.31201711518625,-98.12445689640145z" style="fill:rgb(83,212,212)"/></svg>
