<?xml version="1.0" encoding="UTF-8"?>
<!-- Generated by jsxcad -->
<!DOCTYPE svg PUBLIC "-//W3C//DTD SVG 1.1 Tiny//EN" "http://www.w3.org/Graphics/SVG/1.1/DTD/svg11-tiny.dtd">
<svg baseProfile="tiny" height="155 mm" width="20 mm" viewBox="0 0 20 155" version="1.1" stroke="black" stroke-width=".1" fill="none" xmlns="http://www.w3.org/2000/svg">
<path d="M15 10 L15 0 L5 10 z"/>
<path d="M5 10 L15 0 L5 0 z"/>
<path d="M18.2076 155 L18.65187 155 L18.65187 72.09899 z"/>
<path d="M18.2076 55 L18.2076 155 L18.65187 72.09899 L18.65187 55 z"/>
<path d="M18.2076 155 L18.2076 55 L17.5876 155 z"/>
<path d="M17.5876 155 L18.2076 55 L17.5876 55 z"/>
<path d="M17.5876 155 L17.5876 55 L16.8897 155 z"/>
<path d="M16.8897 155 L17.5876 55 L16.8897 55 z"/>
<path d="M16.8897 155 L16.8897 55 L16.1211 155 z"/>
<path d="M16.1211 155 L16.8897 55 L16.1211 55 z"/>
<path d="M16.1211 155 L16.1211 55 L15.2896 155 z"/>
<path d="M15.2896 155 L16.1211 55 L15.2896 55 z"/>
<path d="M15.2896 155 L15.2896 55 L14.4039 155 z"/>
<path d="M14.4039 155 L15.2896 55 L14.4039 55 z"/>
<path d="M14.4039 155 L14.4039 55 L13.4731 155 z"/>
<path d="M13.4731 155 L14.4039 55 L13.4731 55 z"/>
<path d="M13.4731 155 L13.4731 55 L12.5065 155 z"/>
<path d="M12.5065 155 L13.4731 55 L12.5065 55 z"/>
<path d="M12.5065 155 L12.5065 55 L11.5143 155 z"/>
<path d="M11.5143 155 L12.5065 55 L11.5143 55 z"/>
<path d="M11.5143 155 L11.5143 55 L10.5065 155 z"/>
<path d="M10.5065 155 L11.5143 55 L10.5065 55 z"/>
<path d="M10.5065 155 L10.5065 55 L9.4935 155 z"/>
<path d="M9.4935 155 L10.5065 55 L9.4935 55 z"/>
<path d="M9.4935 155 L9.4935 55 L8.4857 155 z"/>
<path d="M8.4857 155 L9.4935 55 L8.4857 55 z"/>
<path d="M8.4857 155 L8.4857 55 L7.4935 155 z"/>
<path d="M7.4935 155 L8.4857 55 L7.4935 55 z"/>
<path d="M7.4935 155 L7.4935 55 L6.5269 155 z"/>
<path d="M6.5269 155 L7.4935 55 L6.5269 55 z"/>
<path d="M6.5269 155 L6.5269 55 L5.5961 155 z"/>
<path d="M5.5961 155 L6.5269 55 L5.5961 55 z"/>
<path d="M5.5961 155 L5.5961 55 L4.7104 155 z"/>
<path d="M4.7104 155 L5.5961 55 L4.7104 55 z"/>
<path d="M4.7104 155 L4.7104 55 L3.8789 155 z"/>
<path d="M3.8789 155 L4.7104 55 L3.8789 55 z"/>
<path d="M3.8789 155 L3.8789 55 L3.1103 155 z"/>
<path d="M3.1103 155 L3.8789 55 L3.1103 55 z"/>
<path d="M3.1103 155 L3.1103 55 L2.4124 155 z"/>
<path d="M2.4124 155 L3.1103 55 L2.4124 55 z"/>
<path d="M2.4124 155 L2.4124 55 L1.7924 155 z"/>
<path d="M1.7924 155 L2.4124 55 L1.7924 55 z"/>
<path d="M1.34813 155 L1.7924 155 L1.7924 55 L1.34813 137.90101 z"/>
<path d="M1.34813 137.90101 L1.7924 55 L1.34813 55 z"/>
<path d="M1.7924 55 L4.06393 55 L1.34813 55 z"/>
<path d="M2.4124 55 L6.49953 55 L4.06393 55 L1.7924 55 z"/>
<path d="M3.1103 55 L8.34856 55 L6.49953 55 L2.4124 55 z"/>
<path d="M3.8789 55 L9.80684 55 L8.34856 55 L3.1103 55 z"/>
<path d="M4.7104 55 L10.9917 55 L9.80684 55 L3.8789 55 z"/>
<path d="M5.5961 55 L11.97822 55 L10.9917 55 L4.7104 55 z"/>
<path d="M6.5269 55 L12.81626 55 L11.97822 55 L5.5961 55 z"/>
<path d="M7.4935 55 L13.54056 55 L12.81626 55 L6.5269 55 z"/>
<path d="M8.4857 55 L14.1757 55 L13.54056 55 L7.4935 55 z"/>
<path d="M9.4935 55 L14.74002 55 L14.1757 55 L8.4857 55 z"/>
<path d="M10.5065 55 L15.24717 55 L14.74002 55 L9.4935 55 z"/>
<path d="M11.5143 55 L15.70766 55 L15.24717 55 L10.5065 55 z"/>
<path d="M12.5065 55 L16.12971 55 L15.70766 55 L11.5143 55 z"/>
<path d="M13.4731 55 L16.51991 55 L16.12971 55 L12.5065 55 z"/>
<path d="M14.4039 55 L16.88344 55 L16.51991 55 L13.4731 55 z"/>
<path d="M15.2896 55 L17.22474 55 L16.88344 55 L14.4039 55 z"/>
<path d="M16.1211 55 L17.54742 55 L17.22474 55 L15.2896 55 z"/>
<path d="M16.8897 55 L17.85434 55 L17.54742 55 L16.1211 55 z"/>
<path d="M17.5876 55 L18.14821 55 L17.85434 55 L16.8897 55 z"/>
<path d="M18.2076 55 L18.43121 55 L18.14821 55 L17.5876 55 z"/>
<path d="M18.43121 55 L18.2076 55 L18.65187 55 z"/>
<path d="M18.2076 155 L18.47156 155 L18.65187 155 z"/>
<path d="M17.5876 155 L18.23718 155 L18.47156 155 L18.2076 155 z"/>
<path d="M16.8897 155 L17.99235 155 L18.23718 155 L17.5876 155 z"/>
<path d="M16.1211 155 L17.73504 155 L17.99235 155 L16.8897 155 z"/>
<path d="M15.2896 155 L17.46273 155 L17.73504 155 L16.1211 155 z"/>
<path d="M14.4039 155 L17.17272 155 L17.46273 155 L15.2896 155 z"/>
<path d="M13.4731 155 L16.86153 155 L17.17272 155 L14.4039 155 z"/>
<path d="M12.5065 155 L16.52485 155 L16.86153 155 L13.4731 155 z"/>
<path d="M11.5143 155 L16.15755 155 L16.52485 155 L12.5065 155 z"/>
<path d="M10.5065 155 L15.75302 155 L16.15755 155 L11.5143 155 z"/>
<path d="M9.4935 155 L15.30289 155 L15.75302 155 L10.5065 155 z"/>
<path d="M8.4857 155 L14.79623 155 L15.30289 155 L9.4935 155 z"/>
<path d="M7.4935 155 L14.21857 155 L14.79623 155 L8.4857 155 z"/>
<path d="M6.5269 155 L13.55001 155 L14.21857 155 L7.4935 155 z"/>
<path d="M5.5961 155 L12.76312 155 L13.55001 155 L6.5269 155 z"/>
<path d="M4.7104 155 L11.81795 155 L12.76312 155 L5.5961 155 z"/>
<path d="M3.8789 155 L10.65487 155 L11.81795 155 L4.7104 155 z"/>
<path d="M3.1103 155 L9.17987 155 L10.65487 155 L3.8789 155 z"/>
<path d="M2.4124 155 L7.23695 155 L9.17987 155 L3.1103 155 z"/>
<path d="M1.7924 155 L4.545 155 L7.23695 155 L2.4124 155 z"/>
<path d="M4.545 155 L1.7924 155 L1.34813 155 z"/>
<path d="M5 10 L5 0 L5 10 z"/>
<path d="M5 10 L5 0 L5 0 z"/>
<path d="M1.2565 155 L1.34813 155 L1.34813 137.90101 z"/>
<path d="M1.2565 55 L1.2565 155 L1.34813 137.90101 L1.34813 55 z"/>
<path d="M1.2565 155 L1.2565 55 L0.8104 155 z"/>
<path d="M0.8104 155 L1.2565 55 L0.8104 55 z"/>
<path d="M0.8104 155 L0.8104 55 L0.4586 155 z"/>
<path d="M0.4586 155 L0.8104 55 L0.4586 55 z"/>
<path d="M0.4586 155 L0.4586 55 L0.2047 155 z"/>
<path d="M0.2047 155 L0.4586 55 L0.2047 55 z"/>
<path d="M0.2047 155 L0.2047 55 L0.0513 155 z"/>
<path d="M0.0513 155 L0.2047 55 L0.0513 55 z"/>
<path d="M0.0513 155 L0.0513 55 L0 155 z"/>
<path d="M0 155 L0.0513 55 L0 55 z"/>
<path d="M0 155 L0 55 L0.0513 155 z"/>
<path d="M0.0513 155 L0 55 L0.0513 55 z"/>
<path d="M0.0513 155 L0.0513 55 L0.2047 155 z"/>
<path d="M0.2047 155 L0.0513 55 L0.2047 55 z"/>
<path d="M0.2047 155 L0.2047 55 L0.4586 155 z"/>
<path d="M0.4586 155 L0.2047 55 L0.4586 55 z"/>
<path d="M0.4586 155 L0.4586 55 L0.8104 155 z"/>
<path d="M0.8104 155 L0.4586 55 L0.8104 55 z"/>
<path d="M0.8104 155 L0.8104 55 L1.2565 155 z"/>
<path d="M1.2565 155 L0.8104 55 L1.2565 55 z"/>
<path d="M1.2565 155 L1.2565 55 L1.7924 155 z"/>
<path d="M1.7924 155 L1.2565 55 L1.7924 55 z"/>
<path d="M1.7924 155 L1.7924 55 L2.4124 155 z"/>
<path d="M2.4124 155 L1.7924 55 L2.4124 55 z"/>
<path d="M2.4124 155 L2.4124 55 L3.1103 155 z"/>
<path d="M3.1103 155 L2.4124 55 L3.1103 55 z"/>
<path d="M3.1103 155 L3.1103 55 L3.8789 155 z"/>
<path d="M3.8789 155 L3.1103 55 L3.8789 55 z"/>
<path d="M3.8789 155 L3.8789 55 L4.7104 155 z"/>
<path d="M4.7104 155 L3.8789 55 L4.7104 55 z"/>
<path d="M5 155 L4.7104 155 L4.7104 55 L5 87.6973 z"/>
<path d="M5 87.6973 L4.7104 55 L5 55 z"/>
<path d="M4.7104 55 L5 55 L5 55 z"/>
<path d="M3.8789 55 L5 55 L5 55 L4.7104 55 z"/>
<path d="M3.1103 55 L5 55 L5 55 L3.8789 55 z"/>
<path d="M2.4124 55 L5 55 L5 55 L3.1103 55 z"/>
<path d="M1.7924 55 L5 55 L5 55 L2.4124 55 z"/>
<path d="M1.2565 55 L5 55 L5 55 L1.7924 55 z"/>
<path d="M0.8104 55 L5 55 L5 55 L1.2565 55 z"/>
<path d="M0.4586 55 L5 55 L5 55 L0.8104 55 z"/>
<path d="M0.2047 55 L5 55 L5 55 L0.4586 55 z"/>
<path d="M0.0513 55 L5 55 L5 55 L0.2047 55 z"/>
<path d="M0 55 L5 55 L5 55 L0.0513 55 z"/>
<path d="M0.0513 55 L5 55 L5 55 L0 55 z"/>
<path d="M0.2047 55 L5 55 L5 55 L0.0513 55 z"/>
<path d="M0.4586 55 L5 55 L5 55 L0.2047 55 z"/>
<path d="M0.8104 55 L5 55 L5 55 L0.4586 55 z"/>
<path d="M1.2565 55 L5 55 L5 55 L0.8104 55 z"/>
<path d="M1.34813 55 L4.06393 55 L5 55 L5 55 L1.2565 55 z"/>
<path d="M4.06393 55 L5 55 L5 55 z"/>
<path d="M5 155 L4.545 155 L5 155 z"/>
<path d="M1.34813 155 L1.2565 155 L5 155 L5 155 L4.545 155 z"/>
<path d="M0.8104 155 L5 155 L5 155 L1.2565 155 z"/>
<path d="M0.4586 155 L5 155 L5 155 L0.8104 155 z"/>
<path d="M0.2047 155 L5 155 L5 155 L0.4586 155 z"/>
<path d="M0.0513 155 L5 155 L5 155 L0.2047 155 z"/>
<path d="M0 155 L5 155 L5 155 L0.0513 155 z"/>
<path d="M0.0513 155 L5 155 L5 155 L0 155 z"/>
<path d="M0.2047 155 L5 155 L5 155 L0.0513 155 z"/>
<path d="M0.4586 155 L5 155 L5 155 L0.2047 155 z"/>
<path d="M0.8104 155 L5 155 L5 155 L0.4586 155 z"/>
<path d="M1.2565 155 L5 155 L5 155 L0.8104 155 z"/>
<path d="M1.7924 155 L5 155 L5 155 L1.2565 155 z"/>
<path d="M2.4124 155 L5 155 L5 155 L1.7924 155 z"/>
<path d="M3.1103 155 L5 155 L5 155 L2.4124 155 z"/>
<path d="M3.8789 155 L5 155 L5 155 L3.1103 155 z"/>
<path d="M4.7104 155 L5 155 L5 155 L3.8789 155 z"/>
<path d="M5 155 L4.7104 155 L5 155 z"/>
<path d="M5 10 L5 0 L15 10 z"/>
<path d="M15 10 L5 0 L15 0 z"/>
<path d="M5.5961 155 L5 155 L5 87.6973 z"/>
<path d="M5.5961 55 L5.5961 155 L5 87.6973 L5 55 z"/>
<path d="M5.5961 155 L5.5961 55 L6.5269 155 z"/>
<path d="M6.5269 155 L5.5961 55 L6.5269 55 z"/>
<path d="M6.5269 155 L6.5269 55 L7.4935 155 z"/>
<path d="M7.4935 155 L6.5269 55 L7.4935 55 z"/>
<path d="M7.4935 155 L7.4935 55 L8.4857 155 z"/>
<path d="M8.4857 155 L7.4935 55 L8.4857 55 z"/>
<path d="M8.4857 155 L8.4857 55 L9.4935 155 z"/>
<path d="M9.4935 155 L8.4857 55 L9.4935 55 z"/>
<path d="M9.4935 155 L9.4935 55 L10.5065 155 z"/>
<path d="M10.5065 155 L9.4935 55 L10.5065 55 z"/>
<path d="M10.5065 155 L10.5065 55 L11.5143 155 z"/>
<path d="M11.5143 155 L10.5065 55 L11.5143 55 z"/>
<path d="M11.5143 155 L11.5143 55 L12.5065 155 z"/>
<path d="M12.5065 155 L11.5143 55 L12.5065 55 z"/>
<path d="M12.5065 155 L12.5065 55 L13.4731 155 z"/>
<path d="M13.4731 155 L12.5065 55 L13.4731 55 z"/>
<path d="M13.4731 155 L13.4731 55 L14.4039 155 z"/>
<path d="M14.4039 155 L13.4731 55 L14.4039 55 z"/>
<path d="M14.4039 155 L14.4039 55 L15.2896 155 z"/>
<path d="M15.2896 155 L14.4039 55 L15.2896 55 z"/>
<path d="M15.2896 155 L15.2896 55 L16.1211 155 z"/>
<path d="M16.1211 155 L15.2896 55 L16.1211 55 z"/>
<path d="M16.1211 155 L16.1211 55 L16.8897 155 z"/>
<path d="M16.8897 155 L16.1211 55 L16.8897 55 z"/>
<path d="M16.8897 155 L16.8897 55 L17.5876 155 z"/>
<path d="M17.5876 155 L16.8897 55 L17.5876 55 z"/>
<path d="M17.5876 155 L17.5876 55 L18.2076 155 z"/>
<path d="M18.2076 155 L17.5876 55 L18.2076 55 z"/>
<path d="M18.65187 155 L18.2076 155 L18.2076 55 L18.65187 137.90101 z"/>
<path d="M18.65187 137.90101 L18.2076 55 L18.65187 55 z"/>
<path d="M18.2076 55 L18.43121 55 L18.65187 55 z"/>
<path d="M17.5876 55 L18.14821 55 L18.43121 55 L18.2076 55 z"/>
<path d="M16.8897 55 L17.85434 55 L18.14821 55 L17.5876 55 z"/>
<path d="M16.1211 55 L17.54742 55 L17.85434 55 L16.8897 55 z"/>
<path d="M15.2896 55 L17.22474 55 L17.54742 55 L16.1211 55 z"/>
<path d="M14.4039 55 L16.88344 55 L17.22474 55 L15.2896 55 z"/>
<path d="M13.4731 55 L16.51991 55 L16.88344 55 L14.4039 55 z"/>
<path d="M12.5065 55 L16.12971 55 L16.51991 55 L13.4731 55 z"/>
<path d="M11.5143 55 L15.70766 55 L16.12971 55 L12.5065 55 z"/>
<path d="M10.5065 55 L15.24717 55 L15.70766 55 L11.5143 55 z"/>
<path d="M9.4935 55 L14.74002 55 L15.24717 55 L10.5065 55 z"/>
<path d="M8.4857 55 L14.1757 55 L14.74002 55 L9.4935 55 z"/>
<path d="M7.4935 55 L13.54056 55 L14.1757 55 L8.4857 55 z"/>
<path d="M6.5269 55 L12.81626 55 L13.54056 55 L7.4935 55 z"/>
<path d="M5.5961 55 L11.97822 55 L12.81626 55 L6.5269 55 z"/>
<path d="M5 55 L5 55 L10.9917 55 L11.97822 55 L5.5961 55 z"/>
<path d="M5 55 L5 55 L9.80684 55 L10.9917 55 z"/>
<path d="M5 55 L5 55 L8.34856 55 L9.80684 55 z"/>
<path d="M5 55 L5 55 L6.49953 55 L8.34856 55 z"/>
<path d="M5 55 L5 55 L6.49953 55 z"/>
<path d="M5 155 L5 155 L5.93975 155 z"/>
<path d="M5 155 L5 155 L7.69297 155 L5.93975 155 z"/>
<path d="M5 155 L5 155 L9.11773 155 L7.69297 155 z"/>
<path d="M5 155 L5 155 L10.30381 155 L9.11773 155 z"/>
<path d="M5 155 L5.5961 155 L11.31145 155 L10.30381 155 L5 155 z"/>
<path d="M6.5269 155 L12.18219 155 L11.31145 155 L5.5961 155 z"/>
<path d="M7.4935 155 L12.94595 155 L12.18219 155 L6.5269 155 z"/>
<path d="M8.4857 155 L13.6244 155 L12.94595 155 L7.4935 155 z"/>
<path d="M9.4935 155 L14.23417 155 L13.6244 155 L8.4857 155 z"/>
<path d="M10.5065 155 L14.78785 155 L14.23417 155 L9.4935 155 z"/>
<path d="M11.5143 155 L15.29532 155 L14.78785 155 L10.5065 155 z"/>
<path d="M12.5065 155 L15.76443 155 L15.29532 155 L11.5143 155 z"/>
<path d="M13.4731 155 L16.2016 155 L15.76443 155 L12.5065 155 z"/>
<path d="M14.4039 155 L16.6119 155 L16.2016 155 L13.4731 155 z"/>
<path d="M15.2896 155 L16.99978 155 L16.6119 155 L14.4039 155 z"/>
<path d="M16.1211 155 L17.36892 155 L16.99978 155 L15.2896 155 z"/>
<path d="M16.8897 155 L17.72223 155 L17.36892 155 L16.1211 155 z"/>
<path d="M17.5876 155 L18.06252 155 L17.72223 155 L16.8897 155 z"/>
<path d="M18.2076 155 L18.39213 155 L18.06252 155 L17.5876 155 z"/>
<path d="M18.39213 155 L18.2076 155 L18.65187 155 z"/>
<path d="M15 10 L15 0 L15 10 z"/>
<path d="M15 10 L15 0 L15 0 z"/>
<path d="M19.9487 155 L19.9487 55 L19.7953 155 z"/>
<path d="M19.7953 155 L19.9487 55 L19.7953 55 z"/>
<path d="M19.7953 155 L19.7953 55 L19.5414 155 z"/>
<path d="M19.5414 155 L19.7953 55 L19.5414 55 z"/>
<path d="M19.5414 155 L19.5414 55 L19.1896 155 z"/>
<path d="M19.1896 155 L19.5414 55 L19.1896 55 z"/>
<path d="M19.1896 155 L19.1896 55 L18.7435 155 z"/>
<path d="M18.7435 155 L19.1896 55 L18.7435 55 z"/>
<path d="M18.65187 155 L18.7435 155 L18.7435 55 L18.65187 72.09899 z"/>
<path d="M18.65187 72.09899 L18.7435 55 L18.65187 55 z"/>
<path d="M18.7435 155 L18.65187 155 L18.65187 137.90101 z"/>
<path d="M18.7435 55 L18.7435 155 L18.65187 137.90101 L18.65187 55 z"/>
<path d="M18.7435 155 L18.7435 55 L19.1896 155 z"/>
<path d="M19.1896 155 L18.7435 55 L19.1896 55 z"/>
<path d="M19.1896 155 L19.1896 55 L19.5414 155 z"/>
<path d="M19.5414 155 L19.1896 55 L19.5414 55 z"/>
<path d="M19.5414 155 L19.5414 55 L19.7953 155 z"/>
<path d="M19.7953 155 L19.5414 55 L19.7953 55 z"/>
<path d="M19.7953 155 L19.7953 55 L19.9487 155 z"/>
<path d="M19.9487 155 L19.7953 55 L19.9487 55 z"/>
<path d="M19.9487 155 L19.9487 55 L20 155 z"/>
<path d="M20 155 L19.9487 55 L20 55 z"/>
<path d="M20 155 L20 55 L19.9487 155 z"/>
<path d="M19.9487 155 L20 55 L19.9487 55 z"/>
<path d="M20 55 L19.9487 55 L19.7953 55 z"/>
<path d="M20 55 L19.7953 55 L19.5414 55 z"/>
<path d="M20 55 L19.5414 55 L19.1896 55 z"/>
<path d="M20 55 L19.1896 55 L18.7435 55 z"/>
<path d="M18.43121 55 L20 55 L18.7435 55 L18.65187 55 z"/>
<path d="M18.14821 55 L20 55 L18.43121 55 z"/>
<path d="M17.85434 55 L20 55 L18.14821 55 z"/>
<path d="M17.54742 55 L20 55 L17.85434 55 z"/>
<path d="M17.22474 55 L20 55 L17.54742 55 z"/>
<path d="M16.88344 55 L20 55 L17.22474 55 z"/>
<path d="M16.51991 55 L20 55 L16.88344 55 z"/>
<path d="M16.12971 55 L20 55 L16.51991 55 z"/>
<path d="M15.70766 55 L20 55 L16.12971 55 z"/>
<path d="M15.24717 55 L20 55 L15.70766 55 z"/>
<path d="M15.24717 55 L15 55 L15 55 L20 55 z"/>
<path d="M15 55 L20 55 L15 55 z"/>
<path d="M15 55 L20 55 L15 55 z"/>
<path d="M15 55 L20 55 L15 55 z"/>
<path d="M15 55 L20 55 L15 55 z"/>
<path d="M15 55 L20 55 L15 55 z"/>
<path d="M15 55 L20 55 L15 55 z"/>
<path d="M15 55 L20 55 L15 55 z"/>
<path d="M15 55 L20 55 L15 55 z"/>
<path d="M15 55 L20 55 L15 55 z"/>
<path d="M15 55 L20 55 L15 55 z"/>
<path d="M15 55 L20 55 L15 55 z"/>
<path d="M15 55 L20 55 L15 55 z"/>
<path d="M15 55 L20 55 L15 55 z"/>
<path d="M15 55 L20 55 L15 55 z"/>
<path d="M15 55 L20 55 L15 55 z"/>
<path d="M15 55 L20 55 L15 55 z"/>
<path d="M15 55 L20 55 L15 55 z"/>
<path d="M15 55 L20 55 L15 55 z"/>
<path d="M15 55 L20 55 L15 55 z"/>
<path d="M15 55 L20 55 L15 55 z"/>
<path d="M15 55 L20 55 L15 55 z"/>
<path d="M15 55 L20 55 L15 55 z"/>
<path d="M15 55 L20 55 L15 55 z"/>
<path d="M15 55 L20 55 L15 55 z"/>
<path d="M15 55 L20 55 L15 55 z"/>
<path d="M15 55 L20 55 L15 55 z"/>
<path d="M15 55 L20 55 L15 55 z"/>
<path d="M15 55 L20 55 L15 55 z"/>
<path d="M15 55 L20 55 L15 55 z"/>
<path d="M15 55 L20 55 L15 55 z"/>
<path d="M15 55 L15.24717 55 L20 55 L15 55 z"/>
<path d="M15.70766 55 L20 55 L15.24717 55 z"/>
<path d="M16.12971 55 L20 55 L15.70766 55 z"/>
<path d="M16.51991 55 L20 55 L16.12971 55 z"/>
<path d="M16.88344 55 L20 55 L16.51991 55 z"/>
<path d="M17.22474 55 L20 55 L16.88344 55 z"/>
<path d="M17.54742 55 L20 55 L17.22474 55 z"/>
<path d="M17.85434 55 L20 55 L17.54742 55 z"/>
<path d="M18.14821 55 L20 55 L17.85434 55 z"/>
<path d="M18.43121 55 L20 55 L18.14821 55 z"/>
<path d="M18.7435 55 L20 55 L18.43121 55 L18.65187 55 z"/>
<path d="M20 55 L18.7435 55 L19.1896 55 z"/>
<path d="M20 55 L19.1896 55 L19.5414 55 z"/>
<path d="M20 55 L19.5414 55 L19.7953 55 z"/>
<path d="M20 55 L19.7953 55 L19.9487 55 z"/>
<path d="M19.9487 155 L19.7953 155 L19.5414 155 z"/>
<path d="M19.9487 155 L19.5414 155 L19.1896 155 z"/>
<path d="M19.9487 155 L19.1896 155 L18.7435 155 z"/>
<path d="M18.47156 155 L19.9487 155 L18.7435 155 L18.65187 155 z"/>
<path d="M18.23718 155 L19.9487 155 L18.47156 155 z"/>
<path d="M17.99235 155 L19.9487 155 L18.23718 155 z"/>
<path d="M17.73504 155 L19.9487 155 L17.99235 155 z"/>
<path d="M17.46273 155 L19.9487 155 L17.73504 155 z"/>
<path d="M17.17272 155 L19.9487 155 L17.46273 155 z"/>
<path d="M16.86153 155 L19.9487 155 L17.17272 155 z"/>
<path d="M16.52485 155 L19.9487 155 L16.86153 155 z"/>
<path d="M16.15755 155 L19.9487 155 L16.52485 155 z"/>
<path d="M15.75302 155 L19.9487 155 L16.15755 155 z"/>
<path d="M15.30289 155 L19.9487 155 L15.75302 155 z"/>
<path d="M15.30289 155 L15 155 L15 155 L19.9487 155 z"/>
<path d="M15 155 L19.9487 155 L15 155 z"/>
<path d="M15 155 L19.9487 155 L15 155 z"/>
<path d="M15 155 L19.9487 155 L15 155 z"/>
<path d="M15 155 L19.9487 155 L15 155 z"/>
<path d="M15 155 L19.9487 155 L15 155 z"/>
<path d="M15 155 L19.9487 155 L15 155 z"/>
<path d="M15 155 L19.9487 155 L15 155 z"/>
<path d="M19.9487 155 L15 155 L15 155 z"/>
<path d="M15 155 L19.9487 155 L15 155 z"/>
<path d="M15 155 L19.9487 155 L15 155 z"/>
<path d="M15 155 L19.9487 155 L15 155 z"/>
<path d="M15 155 L19.9487 155 L15 155 z"/>
<path d="M15 155 L19.9487 155 L15 155 z"/>
<path d="M15 155 L19.9487 155 L15 155 z"/>
<path d="M15 155 L19.9487 155 L15 155 z"/>
<path d="M15 155 L19.9487 155 L15 155 z"/>
<path d="M15 155 L19.9487 155 L15 155 z"/>
<path d="M15 155 L19.9487 155 L15 155 z"/>
<path d="M15 155 L19.9487 155 L15 155 z"/>
<path d="M15 155 L19.9487 155 L15 155 z"/>
<path d="M19.9487 155 L15 155 L15 155 z"/>
<path d="M15 155 L19.9487 155 L15 155 z"/>
<path d="M15 155 L19.9487 155 L15 155 z"/>
<path d="M15 155 L19.9487 155 L15 155 z"/>
<path d="M15 155 L19.9487 155 L15 155 z"/>
<path d="M15 155 L19.9487 155 L15 155 z"/>
<path d="M15 155 L19.9487 155 L15 155 z"/>
<path d="M15 155 L19.9487 155 L15 155 z"/>
<path d="M15 155 L19.9487 155 L15 155 z"/>
<path d="M15 155 L19.9487 155 L15 155 z"/>
<path d="M15 155 L15.29532 155 L19.9487 155 L15 155 z"/>
<path d="M15.76443 155 L19.9487 155 L15.29532 155 z"/>
<path d="M16.2016 155 L19.9487 155 L15.76443 155 z"/>
<path d="M16.6119 155 L19.9487 155 L16.2016 155 z"/>
<path d="M16.99978 155 L19.9487 155 L16.6119 155 z"/>
<path d="M17.36892 155 L19.9487 155 L16.99978 155 z"/>
<path d="M17.72223 155 L19.9487 155 L17.36892 155 z"/>
<path d="M18.06252 155 L19.9487 155 L17.72223 155 z"/>
<path d="M18.39213 155 L19.9487 155 L18.06252 155 z"/>
<path d="M18.7435 155 L19.9487 155 L18.39213 155 L18.65187 155 z"/>
<path d="M19.9487 155 L18.7435 155 L19.1896 155 z"/>
<path d="M19.9487 155 L19.1896 155 L19.5414 155 z"/>
<path d="M19.9487 155 L19.5414 155 L19.7953 155 z"/>
<path d="M19.9487 155 L19.7953 155 L19.9487 155 z"/>
<path d="M19.9487 155 L19.9487 155 L20 155 z"/>
<path d="M15 0 L5 0 L5 0 z"/>
<path d="M15 0 L5 0 L15 0 z"/>
<path d="M15 10 L5 10 L5 10 z"/>
<path d="M15 10 L5 10 L15 10 z"/>
<path d="M15 55 L14.74002 55 L15 55 z"/>
<path d="M14.74002 55 L14.1757 55 L15 55 L15 55 z"/>
<path d="M14.1757 55 L13.54056 55 L15 55 L15 55 z"/>
<path d="M13.54056 55 L12.81626 55 L15 55 L15 55 z"/>
<path d="M12.81626 55 L11.97822 55 L15 55 L15 55 z"/>
<path d="M11.97822 55 L10.9917 55 L15 55 L15 55 z"/>
<path d="M10.9917 55 L9.80684 55 L15 55 L15 55 z"/>
<path d="M9.80684 55 L8.34856 55 L15 55 L15 55 z"/>
<path d="M8.34856 55 L6.49953 55 L15 55 L15 55 z"/>
<path d="M6.49953 55 L5 55 L5 55 L15 55 L15 55 z"/>
<path d="M5 55 L5 55 L15 55 L15 55 z"/>
<path d="M5 55 L5 55 L15 55 L15 55 z"/>
<path d="M5 55 L5 55 L15 55 L15 55 z"/>
<path d="M5 55 L5 55 L15 55 L15 55 z"/>
<path d="M5 55 L5 55 L15 55 L15 55 z"/>
<path d="M5 55 L5 55 L15 55 L15 55 z"/>
<path d="M5 55 L5 55 L15 55 L15 55 z"/>
<path d="M5 55 L5 55 L15 55 L15 55 z"/>
<path d="M5 55 L5 55 L15 55 L15 55 z"/>
<path d="M5 55 L5 55 L15 55 L15 55 z"/>
<path d="M5 55 L5 55 L15 55 L15 55 z"/>
<path d="M5 55 L5 55 L15 55 L15 55 z"/>
<path d="M5 55 L5 55 L6.49953 55 L15 55 L15 55 z"/>
<path d="M6.49953 55 L8.34856 55 L15 55 L15 55 z"/>
<path d="M8.34856 55 L9.80684 55 L15 55 L15 55 z"/>
<path d="M9.80684 55 L10.9917 55 L15 55 L15 55 z"/>
<path d="M10.9917 55 L11.97822 55 L15 55 L15 55 z"/>
<path d="M11.97822 55 L12.81626 55 L15 55 L15 55 z"/>
<path d="M12.81626 55 L13.54056 55 L15 55 L15 55 z"/>
<path d="M13.54056 55 L14.1757 55 L15 55 L15 55 z"/>
<path d="M14.1757 55 L14.74002 55 L15 55 L15 55 z"/>
<path d="M14.74002 55 L15 55 L15 55 z"/>
<path d="M15 155 L14.79623 155 L15 155 z"/>
<path d="M14.79623 155 L14.21857 155 L15 155 L15 155 z"/>
<path d="M14.21857 155 L13.55001 155 L15 155 L15 155 z"/>
<path d="M13.55001 155 L12.76312 155 L15 155 L15 155 z"/>
<path d="M12.76312 155 L11.81795 155 L15 155 L15 155 z"/>
<path d="M11.81795 155 L10.65487 155 L15 155 L15 155 z"/>
<path d="M10.65487 155 L9.17987 155 L15 155 L15 155 z"/>
<path d="M9.17987 155 L7.23695 155 L15 155 L15 155 z"/>
<path d="M15 155 L7.23695 155 L5 155 L5 155 L15 155 z"/>
<path d="M5 155 L5 155 L15 155 L15 155 z"/>
<path d="M5 155 L5 155 L15 155 L15 155 z"/>
<path d="M5 155 L5 155 L15 155 L15 155 z"/>
<path d="M5 155 L5 155 L15 155 L15 155 z"/>
<path d="M5 155 L5 155 L15 155 L15 155 z"/>
<path d="M5 155 L5 155 L15 155 L15 155 z"/>
<path d="M5 155 L5 155 L15 155 L15 155 z"/>
<path d="M5 155 L5 155 L15 155 L15 155 z"/>
<path d="M5 155 L5 155 L15 155 L15 155 z"/>
<path d="M5 155 L5 155 L15 155 L15 155 z"/>
<path d="M5 155 L5 155 L15 155 L15 155 z"/>
<path d="M5 155 L5 155 L15 155 L15 155 z"/>
<path d="M15 155 L5 155 L5 155 L5.93975 155 L15 155 z"/>
<path d="M5.93975 155 L7.69297 155 L15 155 L15 155 z"/>
<path d="M7.69297 155 L9.11773 155 L15 155 L15 155 z"/>
<path d="M9.11773 155 L10.30381 155 L15 155 L15 155 z"/>
<path d="M10.30381 155 L11.31145 155 L15 155 L15 155 z"/>
<path d="M11.31145 155 L12.18219 155 L15 155 L15 155 z"/>
<path d="M12.18219 155 L12.94595 155 L15 155 L15 155 z"/>
<path d="M12.94595 155 L13.6244 155 L15 155 L15 155 z"/>
<path d="M13.6244 155 L14.23417 155 L15 155 L15 155 z"/>
<path d="M14.23417 155 L14.78785 155 L15 155 L15 155 z"/>
<path d="M14.78785 155 L15 155 L15 155 z"/>
</svg>