<?xml version="1.0" encoding="UTF-8"?>
<!-- Generated by jsxcad -->
<!DOCTYPE svg PUBLIC "-//W3C//DTD SVG 1.1 Tiny//EN" "http://www.w3.org/Graphics/SVG/1.1/DTD/svg11-tiny.dtd">
<svg viewBox="-250 -250 500 500" width="500" height="500" xmlns="http://www.w3.org/2000/svg"><path d="M-22.52011776957303,-99.4312646270048L-25.829939757109734,-106.19199521301057L-26.29053540601484,-89.52056479493363zM-26.29053540601484,-89.52056479493363L-22.919285561635593,-82.73993651744783L-22.52011776957303,-99.4312646270048z" style="fill:rgb(247,158,158)"/><path d="M150.15932899057574,-156.42930621580604L22.92827732431927,-120.11035539356546L23.342178595057483,-103.4843566610313zM-142.76237956388462,-72.81285371317045L-156.0329227670805,17.19628551431517L-131.14203497425854,10.64264963096801zM-29.44039522515514,24.48983732617334L-25.829939757109734,-106.19199521301057L-142.76237956388462,-72.81285371317045zM23.342178595057483,-103.4843566610313L-26.29053540601484,-89.52056479493363L-28.309799471792967,-16.43251493120033z" style="fill:rgb(83,212,212)"/><path d="M-156.0329227670805,17.19628551431517L-151.70831409016168,23.596978463377003L-126.94645367990483,17.125247700429625z" style="fill:rgb(127,37,217)"/><path d="M-29.44039522515514,24.48983732617334L-142.76237956388462,-72.81285371317045L-131.14203497425854,10.64264963096801z" style="fill:rgb(83,212,212)"/><path d="M-126.94645367990483,17.125247700429625L-131.14203497425854,10.64264963096801L-156.0329227670805,17.19628551431517z" style="fill:rgb(127,37,217)"/><path d="M136.48179918448471,-59.8212423344522L150.15932899057574,-156.42930621580604L23.342178595057483,-103.4843566610313z" style="fill:rgb(83,212,212)"/><path d="M167.7771871903969,-59.90336564757979L152.53136748890057,-149.06566942777505L150.15932899057574,-156.42930621580604z" style="fill:rgb(247,158,158)"/><path d="M23.342178595057483,-103.4843566610313L-28.309799471792967,-16.43251493120033L25.1588482837096,-30.51051769955091z" style="fill:rgb(83,212,212)"/><path d="M-29.44039522515514,24.48983732617334L-28.309799471792967,-16.43251493120033L-26.29053540601484,-89.52056479493363z" style="fill:rgb(255,127,127)"/><path d="M29.6450250320013,17.42072731370238L28.49896382516242,-23.50177749917735L26.453599158724217,-96.53578427131502z" style="fill:rgb(0,127,127)"/><path d="M-28.309799471792967,-16.43251493120033L-24.668259940011843,-9.60605658073687L28.49896382516242,-23.50177749917735zM28.49896382516242,-23.50177749917735L25.1588482837096,-30.51051769955091L-28.309799471792967,-16.43251493120033z" style="fill:rgb(127,37,217)"/><path d="M-24.668259940011843,-9.60605658073687L-28.309799471792967,-16.43251493120033L-29.44039522515514,24.48983732617334z" style="fill:rgb(247,158,158)"/><path d="M142.1652578321083,-18.95753612059358L23.342178595057483,-103.4843566610313L25.1588482837096,-30.51051769955091zM136.48179918448471,-59.8212423344522L165.2702256102327,-67.40107551071829L150.15932899057574,-156.42930621580604z" style="fill:rgb(83,212,212)"/><path d="M150.15932899057574,-156.42930621580604L165.2702256102327,-67.40107551071829L167.7771871903969,-59.90336564757979z" style="fill:rgb(247,158,158)"/><path d="M142.1652578321083,-18.95753612059358L136.48179918448471,-59.8212423344522L23.342178595057483,-103.4843566610313z" style="fill:rgb(83,212,212)"/><path d="M-29.44039522515514,24.48983732617334L-25.64681628390727,31.31256859841821L-24.668259940011843,-9.60605658073687z" style="fill:rgb(247,158,158)"/><path d="M136.48179918448471,-59.8212423344522L139.16506262726597,-52.42533327648368L167.7771871903969,-59.90336564757979z" style="fill:rgb(127,37,217)"/><path d="M-131.14203497425854,10.64264963096801L-136.24015197757376,51.52955684140919L-31.996016268357742,116.99152957209292z" style="fill:rgb(83,212,212)"/><path d="M167.7771871903969,-59.90336564757979L165.2702256102327,-67.40107551071829L136.48179918448471,-59.8212423344522z" style="fill:rgb(127,37,217)"/><path d="M-136.24015197757376,51.52955684140919L-162.0586169101731,58.066316244950535L-179.37656960069344,175.52750800903144zM-29.44039522515514,24.48983732617334L-131.14203497425854,10.64264963096801L-31.996016268357742,116.99152957209292zM142.1652578321083,-18.95753612059358L25.1588482837096,-30.51051769955091L26.177517237475765,10.408411860036939z" style="fill:rgb(83,212,212)"/><path d="M139.16506262726597,-52.42533327648368L136.48179918448471,-59.8212423344522L142.1652578321083,-18.95753612059358zM139.16506262726597,-52.42533327648368L142.1652578321083,-18.95753612059358L144.9197337290628,-11.541554547677423z" style="fill:rgb(247,158,158)"/><path d="M26.177517237475765,10.408411860036939L-29.44039522515514,24.48983732617334L-31.996016268357742,116.99152957209292zM-136.24015197757376,51.52955684140919L-179.37656960069344,175.52750800903144L-31.996016268357742,116.99152957209292zM26.177517237475765,10.408411860036939L-31.996016268357742,116.99152957209292L142.1652578321083,-18.95753612059358zM-31.996016268357742,116.99152957209292L28.484133341912813,103.06290500790534L142.1652578321083,-18.95753612059358z" style="fill:rgb(83,212,212)"/><path d="M-32.705785740486284,142.68192107683313L-179.37656960069344,175.52750800903144L-174.2420786741336,181.74260894590483z" style="fill:rgb(127,37,217)"/><path d="M195.0745176229152,99.73994659585564L174.76441039912817,-19.039904495056668L172.2018613822631,-26.56224916921933z" style="fill:rgb(247,158,158)"/><path d="M32.23786028737955,110.00331959283196L-31.996016268357742,116.99152957209292L-27.856907448264543,123.72819540478552z" style="fill:rgb(127,37,217)"/><path d="M192.37273183076857,92.27762077441571L172.2018613822631,-26.56224916921933L142.1652578321083,-18.95753612059358zM-179.37656960069344,175.52750800903144L-32.705785740486284,142.68192107683313L-31.996016268357742,116.99152957209292z" style="fill:rgb(83,212,212)"/><path d="M-174.2420786741336,181.74260894590483L-28.470257263792483,149.37559099022323L-32.705785740486284,142.68192107683313z" style="fill:rgb(127,37,217)"/><path d="M-27.856907448264543,123.72819540478552L-31.996016268357742,116.99152957209292L-32.705785740486284,142.68192107683313z" style="fill:rgb(247,158,158)"/><path d="M32.23786028737955,110.00331959283196L28.484133341912813,103.06290500790534L-31.996016268357742,116.99152957209292z" style="fill:rgb(127,37,217)"/><path d="M-32.705785740486284,142.68192107683313L-28.470257263792483,149.37559099022323L-27.856907448264543,123.72819540478552z" style="fill:rgb(247,158,158)"/><path d="M28.484133341912813,103.06290500790534L192.37273183076857,92.27762077441571L142.1652578321083,-18.95753612059358z" style="fill:rgb(83,212,212)"/><path d="M172.2018613822631,-26.56224916921933L192.37273183076857,92.27762077441571L195.0745176229152,99.73994659585564z" style="fill:rgb(247,158,158)"/><path d="M28.484133341912813,103.06290500790534L29.125732258312855,128.83531216399078L192.37273183076857,92.27762077441571z" style="fill:rgb(83,212,212)"/><path d="M192.37273183076857,92.27762077441571L29.125732258312855,128.83531216399078L32.958521142212504,135.73600795810563zM32.958521142212504,135.73600795810563L195.0745176229152,99.73994659585564L192.37273183076857,92.27762077441571z" style="fill:rgb(127,37,217)"/></svg>
