<?xml version="1.0" encoding="UTF-8"?>
<!-- Generated by jsxcad -->
<!DOCTYPE svg PUBLIC "-//W3C//DTD SVG 1.1 Tiny//EN" "http://www.w3.org/Graphics/SVG/1.1/DTD/svg11-tiny.dtd">
<svg baseProfile="tiny" height="20 mm" width="20 mm" viewBox="0 0 20 20" version="1.1" stroke="black" stroke-width=".1" fill="none" xmlns="http://www.w3.org/2000/svg">
<path d="M20 10 L15 0 L15 0 z"/>
<path d="M10.5065 10 L9.4935 10 L5 0 z"/>
<path d="M10.5065 10 L5 0 L15 0 z"/>
<path d="M5 0 L15 0 L15 0 z"/>
<path d="M5 0 L15 0 L5 0 z"/>
<path d="M0 10 L5 0 L5 0 z"/>
<path d="M11.5143 10 L10.5065 10 L15 0 z"/>
<path d="M11.5143 10 L15 0 L12.5065 10 z"/>
<path d="M15.2896 10 L14.4039 10 L15 0 z"/>
<path d="M15.2896 10 L15 0 L16.1211 10 z"/>
<path d="M13.4731 10 L14.4039 10 L14.4039 20 z"/>
<path d="M13.4731 10 L14.4039 20 L13.4731 20 z"/>
<path d="M13.4731 10 L13.4731 20 L12.5065 20 z"/>
<path d="M13.4731 10 L12.5065 20 L12.5065 10 z"/>
<path d="M13.4731 10 L12.5065 10 L15 0 z"/>
<path d="M13.4731 10 L15 0 L14.4039 10 z"/>
<path d="M16.8897 10 L16.1211 10 L15 0 z"/>
<path d="M16.8897 10 L15 0 L17.5876 10 z"/>
<path d="M9.4935 20 L9.4935 10 L10.5065 10 z"/>
<path d="M9.4935 20 L10.5065 10 L10.5065 20 z"/>
<path d="M13.4731 10 L14.4039 10 L15 0 z"/>
<path d="M13.4731 10 L15 0 L12.5065 10 z"/>
<path d="M14.4039 20 L14.4039 10 L13.4731 10 z"/>
<path d="M14.4039 20 L13.4731 10 L13.4731 20 z"/>
<path d="M19.1896 10 L15 0 L18.7435 10 z"/>
<path d="M19.9487 10 L20 10 L15 0 z"/>
<path d="M19.9487 10 L15 0 L19.7953 10 z"/>
<path d="M19.9487 10 L19.9487 20 L20 20 z"/>
<path d="M19.9487 10 L20 20 L20 10 z"/>
<path d="M19.7953 20 L19.9487 20 L19.9487 10 z"/>
<path d="M19.7953 20 L19.9487 10 L19.7953 10 z"/>
<path d="M17.5876 10 L15 0 L16.8897 10 z"/>
<path d="M16.1211 10 L16.8897 10 L15 0 z"/>
<path d="M0.0513 10 L5 0 L0 10 z"/>
<path d="M0.0513 10 L0 10 L5 0 z"/>
<path d="M7.4935 10 L6.5269 10 L5 0 z"/>
<path d="M5.5961 10 L5 0 L6.5269 10 z"/>
<path d="M19.5414 10 L19.1896 10 L15 0 z"/>
<path d="M19.5414 10 L15 0 L19.7953 10 z"/>
<path d="M19.9487 10 L19.9487 20 L19.7953 20 z"/>
<path d="M19.9487 10 L19.7953 20 L19.7953 10 z"/>
<path d="M19.9487 10 L19.7953 10 L15 0 z"/>
<path d="M19.9487 10 L15 0 L20 10 z"/>
<path d="M19.9487 10 L20 10 L20 20 z"/>
<path d="M19.9487 10 L20 20 L19.9487 20 z"/>
<path d="M11.5143 20 L11.5143 10 L12.5065 10 z"/>
<path d="M11.5143 20 L12.5065 10 L12.5065 20 z"/>
<path d="M11.5143 20 L10.5065 20 L10.5065 10 z"/>
<path d="M11.5143 20 L10.5065 10 L11.5143 10 z"/>
<path d="M15.2896 20 L14.4039 20 L14.4039 10 z"/>
<path d="M15.2896 20 L14.4039 10 L15.2896 10 z"/>
<path d="M15.2896 20 L15.2896 10 L16.1211 10 z"/>
<path d="M15.2896 20 L16.1211 10 L16.1211 20 z"/>
<path d="M12.5065 20 L13.4731 20 L13.4731 10 z"/>
<path d="M12.5065 20 L13.4731 10 L12.5065 10 z"/>
<path d="M9.4935 10 L10.5065 10 L15 0 z"/>
<path d="M9.4935 10 L15 0 L5 0 z"/>
<path d="M9.4935 10 L5 0 L8.4857 10 z"/>
<path d="M10.5065 20 L10.5065 10 L9.4935 10 z"/>
<path d="M10.5065 20 L9.4935 10 L9.4935 20 z"/>
<path d="M11.5143 10 L12.5065 10 L15 0 z"/>
<path d="M11.5143 10 L15 0 L10.5065 10 z"/>
<path d="M11.5143 10 L10.5065 10 L10.5065 20 z"/>
<path d="M11.5143 10 L10.5065 20 L11.5143 20 z"/>
<path d="M11.5143 10 L11.5143 20 L12.5065 20 z"/>
<path d="M11.5143 10 L12.5065 20 L12.5065 10 z"/>
<path d="M19.5414 10 L19.7953 10 L15 0 z"/>
<path d="M19.5414 10 L15 0 L19.1896 10 z"/>
<path d="M19.5414 10 L19.5414 20 L19.7953 20 z"/>
<path d="M19.5414 10 L19.7953 20 L19.7953 10 z"/>
<path d="M19.1896 20 L19.5414 20 L19.5414 10 z"/>
<path d="M19.1896 20 L19.5414 10 L19.1896 10 z"/>
<path d="M19.1896 20 L19.1896 10 L18.7435 10 z"/>
<path d="M19.1896 20 L18.7435 10 L18.7435 20 z"/>
<path d="M18.2076 10 L15 0 L17.5876 10 z"/>
<path d="M18.2076 10 L18.7435 10 L15 0 z"/>
<path d="M17.5876 20 L17.5876 10 L16.8897 10 z"/>
<path d="M17.5876 20 L16.8897 10 L16.8897 20 z"/>
<path d="M16.1211 20 L16.8897 20 L16.8897 10 z"/>
<path d="M16.1211 20 L16.8897 10 L16.1211 10 z"/>
<path d="M15.2896 10 L14.4039 10 L14.4039 20 z"/>
<path d="M15.2896 10 L14.4039 20 L15.2896 20 z"/>
<path d="M15.2896 10 L15.2896 20 L16.1211 20 z"/>
<path d="M15.2896 10 L16.1211 20 L16.1211 10 z"/>
<path d="M15.2896 10 L16.1211 10 L15 0 z"/>
<path d="M15.2896 10 L15 0 L14.4039 10 z"/>
<path d="M8.4857 20 L9.4935 20 L9.4935 10 z"/>
<path d="M8.4857 20 L9.4935 10 L8.4857 10 z"/>
<path d="M3.8789 10 L5 0 L3.1103 10 z"/>
<path d="M3.8789 10 L3.1103 10 L3.1103 20 z"/>
<path d="M3.8789 10 L3.1103 20 L3.8789 20 z"/>
<path d="M6.5269 10 L5 0 L5.5961 10 z"/>
<path d="M2.4124 10 L2.4124 20 L3.1103 20 z"/>
<path d="M2.4124 10 L3.1103 20 L3.1103 10 z"/>
<path d="M2.4124 10 L3.1103 10 L5 0 z"/>
<path d="M0.8104 10 L0.4586 10 L0.4586 20 z"/>
<path d="M0.8104 10 L0.4586 20 L0.8104 20 z"/>
<path d="M0.8104 10 L1.2565 10 L5 0 z"/>
<path d="M0.8104 10 L5 0 L0.4586 10 z"/>
<path d="M1.2565 20 L1.2565 10 L0.8104 10 z"/>
<path d="M1.2565 20 L0.8104 10 L0.8104 20 z"/>
<path d="M2.4124 10 L1.7924 10 L5 0 z"/>
<path d="M0.8104 10 L0.4586 10 L5 0 z"/>
<path d="M0.4586 20 L0.4586 10 L0.8104 10 z"/>
<path d="M0.4586 20 L0.8104 10 L0.8104 20 z"/>
<path d="M0.2047 10 L0.4586 10 L5 0 z"/>
<path d="M0.2047 10 L5 0 L0.0513 10 z"/>
<path d="M0.2047 10 L0.2047 20 L0.4586 20 z"/>
<path d="M0.2047 10 L0.4586 20 L0.4586 10 z"/>
<path d="M0.0513 20 L0.2047 20 L0.2047 10 z"/>
<path d="M0.0513 20 L0.2047 10 L0.0513 10 z"/>
<path d="M0.0513 20 L0.0513 10 L0 10 z"/>
<path d="M0.0513 20 L0 10 L0 20 z"/>
<path d="M0.2047 10 L0.0513 10 L5 0 z"/>
<path d="M0.2047 10 L5 0 L0.4586 10 z"/>
<path d="M0.2047 10 L0.4586 10 L0.4586 20 z"/>
<path d="M0.2047 10 L0.4586 20 L0.2047 20 z"/>
<path d="M0.0513 20 L0 20 L0 10 z"/>
<path d="M0.0513 20 L0 10 L0.0513 10 z"/>
<path d="M0.0513 20 L0.0513 10 L0.2047 10 z"/>
<path d="M0.0513 20 L0.2047 10 L0.2047 20 z"/>
<path d="M7.4935 20 L6.5269 20 L6.5269 10 z"/>
<path d="M7.4935 20 L6.5269 10 L7.4935 10 z"/>
<path d="M8.4857 10 L9.4935 10 L9.4935 20 z"/>
<path d="M8.4857 10 L9.4935 20 L8.4857 20 z"/>
<path d="M8.4857 10 L8.4857 20 L7.4935 20 z"/>
<path d="M8.4857 10 L7.4935 20 L7.4935 10 z"/>
<path d="M8.4857 10 L7.4935 10 L5 0 z"/>
<path d="M8.4857 10 L5 0 L9.4935 10 z"/>
<path d="M4.7104 10 L3.8789 10 L5 0 z"/>
<path d="M4.7104 10 L5 0 L5.5961 10 z"/>
<path d="M4.7104 10 L4.7104 20 L3.8789 20 z"/>
<path d="M4.7104 10 L3.8789 20 L3.8789 10 z"/>
<path d="M5.5961 20 L4.7104 20 L4.7104 10 z"/>
<path d="M5.5961 20 L4.7104 10 L5.5961 10 z"/>
<path d="M5.5961 20 L5.5961 10 L6.5269 10 z"/>
<path d="M5.5961 20 L6.5269 10 L6.5269 20 z"/>
<path d="M16.8897 20 L16.8897 10 L17.5876 10 z"/>
<path d="M16.8897 20 L17.5876 10 L17.5876 20 z"/>
<path d="M16.8897 20 L16.1211 20 L16.1211 10 z"/>
<path d="M16.8897 20 L16.1211 10 L16.8897 10 z"/>
<path d="M19.5414 20 L19.1896 20 L19.1896 10 z"/>
<path d="M19.5414 20 L19.1896 10 L19.5414 10 z"/>
<path d="M19.5414 20 L19.5414 10 L19.7953 10 z"/>
<path d="M19.5414 20 L19.7953 10 L19.7953 20 z"/>
<path d="M18.2076 20 L18.2076 10 L17.5876 10 z"/>
<path d="M18.2076 20 L17.5876 10 L17.5876 20 z"/>
<path d="M18.2076 20 L18.7435 20 L18.7435 10 z"/>
<path d="M18.2076 20 L18.7435 10 L18.2076 10 z"/>
<path d="M4.7104 10 L5.5961 10 L5 0 z"/>
<path d="M4.7104 10 L5 0 L3.8789 10 z"/>
<path d="M6.5269 20 L6.5269 10 L5.5961 10 z"/>
<path d="M6.5269 20 L5.5961 10 L5.5961 20 z"/>
<path d="M7.4935 10 L8.4857 10 L5 0 z"/>
<path d="M7.4935 10 L5 0 L6.5269 10 z"/>
<path d="M7.4935 10 L6.5269 10 L6.5269 20 z"/>
<path d="M7.4935 10 L6.5269 20 L7.4935 20 z"/>
<path d="M7.4935 10 L7.4935 20 L8.4857 20 z"/>
<path d="M7.4935 10 L8.4857 20 L8.4857 10 z"/>
<path d="M1.7924 10 L1.2565 10 L1.2565 20 z"/>
<path d="M1.7924 10 L1.2565 20 L1.7924 20 z"/>
<path d="M1.7924 10 L1.7924 20 L2.4124 20 z"/>
<path d="M1.7924 10 L2.4124 20 L2.4124 10 z"/>
<path d="M1.7924 10 L2.4124 10 L5 0 z"/>
<path d="M1.7924 10 L5 0 L1.2565 10 z"/>
<path d="M3.1103 10 L3.8789 10 L3.8789 20 z"/>
<path d="M3.1103 10 L3.8789 20 L3.1103 20 z"/>
<path d="M3.1103 10 L2.4124 10 L5 0 z"/>
<path d="M3.1103 10 L5 0 L3.8789 10 z"/>
<path d="M1.2565 10 L0.8104 10 L5 0 z"/>
<path d="M1.2565 10 L5 0 L1.7924 10 z"/>
<path d="M2.4124 20 L1.7924 20 L1.7924 10 z"/>
<path d="M2.4124 20 L1.7924 10 L2.4124 10 z"/>
<path d="M2.4124 20 L2.4124 10 L3.1103 10 z"/>
<path d="M2.4124 20 L3.1103 10 L3.1103 20 z"/>
<path d="M18.2076 10 L17.5876 10 L15 0 z"/>
<path d="M4.7104 20 L5.5961 20 L5.5961 10 z"/>
<path d="M4.7104 20 L5.5961 10 L4.7104 10 z"/>
<path d="M4.7104 20 L4.7104 10 L3.8789 10 z"/>
<path d="M4.7104 20 L3.8789 10 L3.8789 20 z"/>
<path d="M1.2565 20 L0.8104 20 L0.8104 10 z"/>
<path d="M1.2565 20 L0.8104 10 L1.2565 10 z"/>
<path d="M1.2565 20 L1.2565 10 L1.7924 10 z"/>
<path d="M1.2565 20 L1.7924 10 L1.7924 20 z"/>
<path d="M18.2076 20 L17.5876 20 L17.5876 10 z"/>
<path d="M18.2076 20 L17.5876 10 L18.2076 10 z"/>
<path d="M18.2076 20 L18.7435 20 L19.1896 20 z"/>
<path d="M18.2076 20 L19.1896 20 L19.5414 20 z"/>
<path d="M18.2076 20 L19.5414 20 L19.7953 20 z"/>
<path d="M18.2076 20 L19.7953 20 L19.9487 20 z"/>
<path d="M18.2076 20 L19.9487 20 L20 20 z"/>
<path d="M18.2076 20 L20 20 L19.9487 20 z"/>
<path d="M18.2076 20 L19.9487 20 L19.7953 20 z"/>
<path d="M18.2076 20 L19.7953 20 L19.5414 20 z"/>
<path d="M18.2076 20 L19.5414 20 L19.1896 20 z"/>
<path d="M18.2076 20 L19.1896 20 L18.7435 20 z"/>
<path d="M18.2076 20 L18.7435 20 L18.2076 20 z"/>
<path d="M18.2076 20 L18.2076 20 L17.5876 20 z"/>
<path d="M18.2076 20 L17.5876 20 L16.8897 20 z"/>
<path d="M18.2076 20 L16.8897 20 L16.1211 20 z"/>
<path d="M18.2076 20 L16.1211 20 L15.2896 20 z"/>
<path d="M18.2076 20 L15.2896 20 L14.4039 20 z"/>
<path d="M18.2076 20 L14.4039 20 L13.4731 20 z"/>
<path d="M18.2076 20 L13.4731 20 L12.5065 20 z"/>
<path d="M18.2076 20 L12.5065 20 L11.5143 20 z"/>
<path d="M18.2076 20 L11.5143 20 L10.5065 20 z"/>
<path d="M18.2076 20 L10.5065 20 L9.4935 20 z"/>
<path d="M18.2076 20 L9.4935 20 L8.4857 20 z"/>
<path d="M18.2076 20 L8.4857 20 L7.4935 20 z"/>
<path d="M18.2076 20 L7.4935 20 L6.5269 20 z"/>
<path d="M18.2076 20 L6.5269 20 L5.5961 20 z"/>
<path d="M18.2076 20 L5.5961 20 L4.7104 20 z"/>
<path d="M18.2076 20 L4.7104 20 L3.8789 20 z"/>
<path d="M18.2076 20 L3.8789 20 L3.1103 20 z"/>
<path d="M18.2076 20 L3.1103 20 L2.4124 20 z"/>
<path d="M18.2076 20 L2.4124 20 L1.7924 20 z"/>
<path d="M18.2076 20 L1.7924 20 L1.2565 20 z"/>
<path d="M18.2076 20 L1.2565 20 L0.8104 20 z"/>
<path d="M18.2076 20 L0.8104 20 L0.4586 20 z"/>
<path d="M18.2076 20 L0.4586 20 L0.2047 20 z"/>
<path d="M18.2076 20 L0.2047 20 L0.0513 20 z"/>
<path d="M18.2076 20 L0.0513 20 L0 20 z"/>
<path d="M18.2076 20 L0 20 L0.0513 20 z"/>
<path d="M18.2076 20 L0.0513 20 L0.2047 20 z"/>
<path d="M18.2076 20 L0.2047 20 L0.4586 20 z"/>
<path d="M18.2076 20 L0.4586 20 L0.8104 20 z"/>
<path d="M18.2076 20 L0.8104 20 L1.2565 20 z"/>
<path d="M18.2076 20 L1.2565 20 L1.7924 20 z"/>
<path d="M18.2076 20 L1.7924 20 L2.4124 20 z"/>
<path d="M18.2076 20 L2.4124 20 L3.1103 20 z"/>
<path d="M18.2076 20 L3.1103 20 L3.8789 20 z"/>
<path d="M18.2076 20 L3.8789 20 L4.7104 20 z"/>
<path d="M18.2076 20 L4.7104 20 L5.5961 20 z"/>
<path d="M18.2076 20 L5.5961 20 L6.5269 20 z"/>
<path d="M18.2076 20 L6.5269 20 L7.4935 20 z"/>
<path d="M18.2076 20 L7.4935 20 L8.4857 20 z"/>
<path d="M18.2076 20 L8.4857 20 L9.4935 20 z"/>
<path d="M18.2076 20 L9.4935 20 L10.5065 20 z"/>
<path d="M18.2076 20 L10.5065 20 L11.5143 20 z"/>
<path d="M18.2076 20 L11.5143 20 L12.5065 20 z"/>
<path d="M18.2076 20 L12.5065 20 L13.4731 20 z"/>
<path d="M18.2076 20 L13.4731 20 L14.4039 20 z"/>
<path d="M18.2076 20 L14.4039 20 L15.2896 20 z"/>
<path d="M18.2076 20 L15.2896 20 L16.1211 20 z"/>
<path d="M18.2076 20 L16.1211 20 L16.8897 20 z"/>
<path d="M18.2076 20 L16.8897 20 L17.5876 20 z"/>
<path d="M18.7435 10 L19.1896 10 L19.1896 20 z"/>
<path d="M18.7435 10 L19.1896 20 L18.7435 20 z"/>
<path d="M18.7435 10 L18.7435 20 L18.2076 20 z"/>
<path d="M18.7435 10 L18.2076 20 L18.2076 10 z"/>
<path d="M18.7435 10 L18.2076 10 L15 0 z"/>
<path d="M18.7435 10 L15 0 L19.1896 10 z"/>
</svg>