<?xml version="1.0" encoding="UTF-8"?>
<!-- Generated by jsxcad -->
<!DOCTYPE svg PUBLIC "-//W3C//DTD SVG 1.1 Tiny//EN" "http://www.w3.org/Graphics/SVG/1.1/DTD/svg11-tiny.dtd">
<svg viewBox="-250 -250 500 500" width="500" height="500" xmlns="http://www.w3.org/2000/svg"><path d="M8.677700666326347,-8.573568215462595L8.824774767818388,-15.147134164430433L8.67769540017759,-14.892946752864939z" style="fill:rgb(0,127,127)"/><path d="M-8.677695400177598,-14.892946752864935L-8.824780213993282,-8.72064776386492L-8.677700666326352,-8.57356821546259z" style="fill:rgb(255,127,127)"/><path d="M15.190128950386352,-8.720647763864926L8.677700666326347,-8.573568215462595L14.936960345520419,-8.573568215462597zM-8.677700666326352,-8.57356821546259L-15.190128950386358,-8.720647763864918L-14.936960345520424,-8.573568215462588z" style="fill:rgb(127,0,127)"/><path d="M-15.228980980839108,8.928927709636799L-8.677715129172842,8.781847666813686L-14.975164419644656,8.781847666813688zM8.67771512917285,8.781847666813679L15.228980980839115,8.928927709636788L14.975164419644662,8.781847666813679z" style="fill:rgb(127,254,127)"/><path d="M8.677720340445731,15.03537515485361L8.824795171260558,8.92892770963679L8.67771512917285,8.781847666813679z" style="fill:rgb(0,127,127)"/><path d="M-8.677715129172842,8.781847666813686L-8.82480056068402,15.288447433377852L-8.677720340445722,15.035375154853616zM-8.824780213993282,-8.72064776386492L-8.677695400177598,-14.892946752864935L-8.824774767818397,-15.147134164430426z" style="fill:rgb(255,127,127)"/><path d="M8.824774767818388,-15.147134164430433L8.677700666326347,-8.573568215462595L8.824780213993277,-8.720647763864925z" style="fill:rgb(0,127,127)"/><path d="M8.677700666326347,-8.573568215462595L15.190128950386352,-8.720647763864926L8.824780213993277,-8.720647763864925zM-15.190128950386358,-8.720647763864918L-8.677700666326352,-8.57356821546259L-8.824780213993282,-8.72064776386492z" style="fill:rgb(127,0,127)"/><path d="M-8.677715129172842,8.781847666813686L-15.228980980839108,8.928927709636799L-8.824795171260552,8.928927709636797zM15.228980980839115,8.928927709636788L8.67771512917285,8.781847666813679L8.824795171260558,8.92892770963679z" style="fill:rgb(127,254,127)"/><path d="M-8.82480056068402,15.288447433377852L-8.677715129172842,8.781847666813686L-8.824795171260552,8.928927709636797z" style="fill:rgb(255,127,127)"/><path d="M8.824795171260558,8.92892770963679L8.677720340445731,15.03537515485361L8.824800560684027,15.288447433377847z" style="fill:rgb(0,127,127)"/><path d="M-88.24780213993279,-8.720647763864891L88.24795171260556,8.928927709636763L88.24780213993279,-8.720647763864951zM88.24795171260556,8.928927709636763L-88.24780213993279,-8.720647763864891L-88.24795171260556,8.928927709636824zM-10.310158205396519,10.41429075119958L10.310137789261871,-10.206005346560309L-10.310137789261878,-10.206005346560302zM10.310137789261871,-10.206005346560309L-10.310158205396519,10.41429075119958L10.310158205396526,10.414290751199573z" style="fill:rgb(127,127,254)"/><path d="M10.413239064053215,-10.30910662186716L-10.310137789261878,-10.206005346560302L10.310137789261871,-10.206005346560309z" style="fill:rgb(127,0,127)"/><path d="M10.310158205396526,10.414290751199573L10.413239064053215,-10.30910662186716L10.310137789261871,-10.206005346560309z" style="fill:rgb(0,127,127)"/><path d="M-10.310137789261878,-10.206005346560302L-10.413259890552169,10.51739243687074L-10.310158205396519,10.41429075119958z" style="fill:rgb(255,127,127)"/><path d="M-10.310158205396519,10.41429075119958L10.413259890552176,10.51739243687073L10.310158205396526,10.414290751199573z" style="fill:rgb(127,254,127)"/><path d="M-10.310137789261878,-10.206005346560302L10.413239064053215,-10.30910662186716L-10.413239064053222,-10.309106621867153z" style="fill:rgb(127,0,127)"/><path d="M-10.413259890552169,10.51739243687074L-10.310137789261878,-10.206005346560302L-10.413239064053222,-10.309106621867153z" style="fill:rgb(255,127,127)"/><path d="M10.413239064053215,-10.30910662186716L10.310158205396526,10.414290751199573L10.413259890552176,10.51739243687073z" style="fill:rgb(0,127,127)"/><path d="M10.413259890552176,10.51739243687073L-10.310158205396519,10.41429075119958L-10.413259890552169,10.51739243687074z" style="fill:rgb(127,254,127)"/><path d="M-2.1069777717638525,-20.615471392816843L10.413239064053215,-10.30910662186716L2.1069777717638383,-20.615471392816843zM2.1069777717638383,-20.615471392816843L10.413239064053215,-10.30910662186716L6.2346736509802625,-19.767209416062123zM-6.234673650980275,-19.767209416062116L10.413239064053215,-10.30910662186716L-2.1069777717638525,-20.615471392816843zM6.2346736509802625,-19.767209416062123L10.413239064053215,-10.30910662186716L10.107123326501647,-18.105415090423765zM-10.107123326501657,-18.105415090423758L10.413239064053215,-10.30910662186716L-6.234673650980275,-19.767209416062116zM-13.565787695635624,-15.698118709420235L-10.413239064053222,-10.309106621867153L-10.107123326501657,-18.105415090423758zM10.107123326501647,-18.105415090423765L10.413239064053215,-10.30910662186716L13.565787695635615,-15.698118709420246zM-10.413239064053222,-10.309106621867153L10.413239064053215,-10.30910662186716L-10.107123326501657,-18.105415090423758zM-16.469069715571138,-12.6438767127263L-10.413239064053222,-10.309106621867153L-13.565787695635624,-15.698118709420235zM13.565787695635615,-15.698118709420246L17.924349427235416,-10.309106621867162L16.46906971557113,-12.64387671272631zM13.565787695635615,-15.698118709420246L10.413239064053215,-10.30910662186716L17.924349427235416,-10.309106621867162zM-10.413239064053222,-10.309106621867153L-16.469069715571138,-12.6438767127263L-17.924349427235423,-10.309106621867151zM-17.924349427235423,-10.309106621867151L-10.413259890552169,10.51739243687074L-10.413239064053222,-10.309106621867153zM10.413239064053215,-10.30910662186716L17.97020029860947,10.517392436870729L17.924349427235416,-10.309106621867162zM-18.69810897703259,-9.067728051207162L-17.970200298609463,10.517392436870741L-17.924349427235423,-10.309106621867151zM17.924349427235416,-10.309106621867162L17.97020029860947,10.517392436870729L18.698108977032582,-9.067728051207176zM-20.161646341606943,-5.116079523311226L-19.530107768468383,7.337289984187565L-18.69810897703259,-9.067728051207162zM18.698108977032582,-9.067728051207176L19.53010776846839,7.337289984187552L20.161646341606943,-5.116079523311241zM-20.58634151963013,3.25784399994995L-20.161646341606943,-5.116079523311226L-20.799766975573476,-0.9507122091496647zM20.161646341606943,-5.116079523311241L20.58634151963013,3.257843999949937L20.799766975573476,-0.9507122091496785zM-20.161646341606943,-5.116079523311226L-20.58634151963013,3.25784399994995L-19.530107768468383,7.337289984187565zM20.161646341606943,-5.116079523311241L19.53010776846839,7.337289984187552L20.58634151963013,3.257843999949937zM-18.69810897703259,-9.067728051207162L-19.530107768468383,7.337289984187565L-17.970200298609463,10.517392436870741zM18.698108977032582,-9.067728051207176L17.97020029860947,10.517392436870729L19.53010776846839,7.337289984187552zM-17.924349427235423,-10.309106621867151L-17.970200298609463,10.517392436870741L-10.413259890552169,10.51739243687074zM17.97020029860947,10.517392436870729L10.413239064053215,-10.30910662186716L10.413259890552176,10.51739243687073zM-17.674307420867773,11.120612292437835L10.413259890552176,10.51739243687073L-17.970200298609463,10.517392436870741zM17.97020029860947,10.517392436870729L15.094916595079377,14.45292163151748L17.67430742086778,11.120612292437825zM10.413259890552176,10.51739243687073L-17.674307420867773,11.120612292437835L-15.094916595079368,14.452921631517492zM10.413259890552176,10.51739243687073L11.897536614964187,17.19778867351193L17.97020029860947,10.517392436870729zM17.97020029860947,10.517392436870729L11.897536614964187,17.19778867351193L15.094916595079377,14.45292163151748zM10.413259890552176,10.51739243687073L-15.094916595079368,14.452921631517492L-11.897536614964176,17.197788673511937zM10.413259890552176,10.51739243687073L8.213066697950467,19.242841543612123L11.897536614964187,17.19778867351193zM10.413259890552176,10.51739243687073L-11.897536614964176,17.197788673511937L-8.213066697950453,19.24284154361213zM10.413259890552176,10.51739243687073L4.1923516908294385,20.504352103705255L8.213066697950467,19.242841543612123zM10.413259890552176,10.51739243687073L-8.213066697950453,19.24284154361213L-4.192351690829423,20.504352103705255zM10.413259890552176,10.51739243687073L6.9642583019978e-15,20.93067320605075L4.1923516908294385,20.504352103705255zM10.413259890552176,10.51739243687073L-4.192351690829423,20.504352103705255L6.9642583019978e-15,20.93067320605075z" style="fill:rgb(127,127,254)"/></svg>
