<?xml version="1.0" encoding="UTF-8"?>
<!-- Generated by jsxcad -->
<!DOCTYPE svg PUBLIC "-//W3C//DTD SVG 1.1 Tiny//EN" "http://www.w3.org/Graphics/SVG/1.1/DTD/svg11-tiny.dtd">
<svg viewBox="-250 -250 500 500" width="500" height="500" xmlns="http://www.w3.org/2000/svg"><path d="M37.92329611779171,86.64938470637061L28.22951020443036,76.26644337291584L38.2122176719178,95.24136340023591z" style="fill:rgb(247,158,158)"/><path d="M28.22951020443036,76.26644337291584L27.69917804866543,97.67688728449305L38.2122176719178,95.24136340023591z" style="fill:rgb(127,37,217)"/><path d="M28.22951020443036,76.26644337291584L37.92329611779171,86.64938470637061L28.0118207159419,67.64983151163463z" style="fill:rgb(247,158,158)"/><path d="M27.69917804866543,97.67688728449305L28.22951020443036,76.26644337291584L17.532426226957753,78.80048923744877zM69.0990815992406,66.58478965234144L67.64814424405367,88.422029355626L78.36863107119565,85.93844018078165zM67.64814424405367,88.422029355626L69.0990815992406,66.58478965234144L58.186626220382706,69.16986106189697z" style="fill:rgb(127,37,217)"/><path d="M28.663917895399763,122.58762067520314L17.847258314321113,103.17402410354316L28.224237800008797,121.96438020810508z" style="fill:rgb(19,60,139)"/><path d="M203.14828870671323,60.39243700189154L-101.33835184413992,106.95994988100595L-103.47662974374067,131.18480532126384z" style="fill:rgb(83,212,212)"/><path d="M-91.04502425885703,148.88066784219788L203.14828870671323,60.39243700189154L-103.47662974374067,131.18480532126384z" style="fill:rgb(127,37,217)"/><path d="M39.02883641316769,119.52602647074751L29.07361465466556,109.67785935081622L39.33170100807793,128.53264457792838zM29.07361465466556,109.67785935081622L39.02883641316769,119.52602647074751L28.845152888346323,100.63487029057556z" style="fill:rgb(247,158,158)"/><path d="M70.68971098375569,90.9739588372632L79.74438556791702,111.06901181116241L80.1272425250582,110.25107139181195z" style="fill:rgb(235,115,194)"/><path d="M71.760606861949,120.27517116746769L59.9396695372933,102.62051045125419L69.64469960215517,121.75904157347283z" style="fill:rgb(185,63,221)"/><path d="M-101.33835184413992,106.95994988100595L203.14828870671323,60.39243700189154L198.63117042402115,35.899755073373534z" style="fill:rgb(83,212,212)"/><path d="M203.14828870671323,60.39243700189154L-91.04502425885703,148.88066784219788L210.11225729838318,80.91648952381574z" style="fill:rgb(127,37,217)"/><path d="M203.14828870671323,60.39243700189154L205.5358939840492,56.47797468173396L198.63117042402115,35.899755073373534zM205.5358939840492,56.47797468173396L203.14828870671323,60.39243700189154L210.11225729838318,80.91648952381574z" style="fill:rgb(247,158,158)"/><path d="M32.45933195467411,125.7425922884541L-98.49468339279707,-107.71104462860656L28.663917895399763,122.58762067520314z" style="fill:rgb(32,47,158)"/><path d="M37.15674352909881,128.01609473700495L-94.43302610326452,-105.01095526913628L32.45933195467411,125.7425922884541z" style="fill:rgb(49,39,175)"/><path d="M17.847258314321113,103.17402410354316L28.663917895399763,122.58762067520314L-98.49468339279707,-107.71104462860656zM17.847258314321113,103.17402410354316L-101.21096344028727,-111.27976896931882L15.532888099173205,99.90915315808356z" style="fill:rgb(19,60,139)"/><path d="M-86.66782384478849,-103.05965024272135L37.15674352909881,128.01609473700495L39.33170100807793,128.53264457792838z" style="fill:rgb(69,33,191)"/><path d="M-31.306875869502406,-146.0049698087179L74.00959984658458,76.42787931078985L72.75210511134395,71.79902664109794z" style="fill:rgb(245,171,144)"/><path d="M79.74438556791702,111.06901181116241L-41.18570354209908,-120.45869730144398L76.23695929762488,115.91381460692509z" style="fill:rgb(222,96,207)"/><path d="M74.00959984658458,76.42787931078985L-30.893068590208955,-136.56223008227283L74.0208865029373,81.44419343022417z" style="fill:rgb(247,153,162)"/><path d="M76.23695929762488,115.91381460692509L-47.061274466428834,-115.49175477254829L71.760606861949,120.27517116746769z" style="fill:rgb(205,79,215)"/><path d="M70.68971098375569,90.9739588372632L-36.41114784301692,-125.78327397741302L79.74438556791702,111.06901181116241z" style="fill:rgb(235,115,194)"/><path d="M74.0208865029373,81.44419343022417L-32.9355222672881,-131.22987760035448L72.76940507849005,86.6410761485315z" style="fill:rgb(243,134,179)"/><path d="M-47.061274466428834,-115.49175477254829L59.9396695372933,102.62051045125419L71.760606861949,120.27517116746769z" style="fill:rgb(185,63,221)"/><path d="M-82.93322424298026,-102.68998471991134L29.07361465466556,109.67785935081622L32.35422956523653,110.42272965158739z" style="fill:rgb(69,33,191)"/><path d="M72.76940507849005,86.6410761485315L-35.85507856122587,-126.65467901289398L70.68971098375569,90.9739588372632z" style="fill:rgb(235,115,194)"/><path d="M-75.9625429774073,-103.19777053209494L32.35422956523653,110.42272965158739L38.34534499250883,110.60568398222564z" style="fill:rgb(91,32,204)"/><path d="M-68.56328960289538,-104.82048131661278L38.34534499250883,110.60568398222564L44.585832962659396,109.709241365289z" style="fill:rgb(115,34,214)"/><path d="M-61.05973068928294,-107.49435225741293L44.585832962659396,109.709241365289L50.80491007390264,107.76617263871219z" style="fill:rgb(139,40,220)"/><path d="M-49.768088095208576,-113.7255659418016L56.73040170283725,104.85818605729028L59.9396695372933,102.62051045125419z" style="fill:rgb(185,63,221)"/><path d="M-53.78464405726974,-111.10476182885928L50.80491007390264,107.76617263871219L56.73040170283725,104.85818605729028z" style="fill:rgb(163,50,222)"/><path d="M-98.49468339279707,-107.71104462860656L32.45933195467411,125.7425922884541L-94.43302610326452,-105.01095526913628z" style="fill:rgb(32,47,158)"/><path d="M-101.21096344028727,-111.27976896931882L17.847258314321113,103.17402410354316L-98.92982836989579,-108.28275243598195z" style="fill:rgb(19,60,139)"/><path d="M74.00959984658458,76.42787931078985L-31.306875869502406,-146.0049698087179L-30.35041416841478,-141.55519421402153z" style="fill:rgb(245,171,144)"/><path d="M17.847258314321113,103.17402410354316L-98.49468339279707,-107.71104462860656L-98.92982836989579,-108.28275243598195z" style="fill:rgb(19,60,139)"/><path d="M-94.43302610326452,-105.01095526913628L37.15674352909881,128.01609473700495L-89.17642284580818,-103.30795471418698z" style="fill:rgb(49,39,175)"/><path d="M-30.893068590208955,-136.56223008227283L74.00959984658458,76.42787931078985L-30.35041416841478,-141.55519421402153z" style="fill:rgb(247,153,162)"/><path d="M37.15674352909881,128.01609473700495L-86.66782384478849,-103.05965024272135L-89.17642284580818,-103.30795471418698z" style="fill:rgb(69,33,191)"/><path d="M-32.9355222672881,-131.22987760035448L74.0208865029373,81.44419343022417L-30.893068590208955,-136.56223008227283z" style="fill:rgb(243,134,179)"/><path d="M-41.18570354209908,-120.45869730144398L79.74438556791702,111.06901181116241L-36.41114784301692,-125.78327397741302z" style="fill:rgb(222,96,207)"/><path d="M-35.85507856122587,-126.65467901289398L72.76940507849005,86.6410761485315L-32.9355222672881,-131.22987760035448z" style="fill:rgb(235,115,194)"/><path d="M29.07361465466556,109.67785935081622L-82.93322424298026,-102.68998471991134L-86.66782384478849,-103.05965024272135z" style="fill:rgb(69,33,191)"/><path d="M-47.061274466428834,-115.49175477254829L76.23695929762488,115.91381460692509L-41.18570354209908,-120.45869730144398z" style="fill:rgb(205,79,215)"/><path d="M-36.41114784301692,-125.78327397741302L70.68971098375569,90.9739588372632L-35.85507856122587,-126.65467901289398z" style="fill:rgb(235,115,194)"/><path d="M32.35422956523653,110.42272965158739L-75.9625429774073,-103.19777053209494L-82.93322424298026,-102.68998471991134z" style="fill:rgb(91,32,204)"/><path d="M38.34534499250883,110.60568398222564L-68.56328960289538,-104.82048131661278L-75.9625429774073,-103.19777053209494z" style="fill:rgb(115,34,214)"/><path d="M44.585832962659396,109.709241365289L-61.05973068928294,-107.49435225741293L-68.56328960289538,-104.82048131661278z" style="fill:rgb(139,40,220)"/><path d="M59.9396695372933,102.62051045125419L-47.061274466428834,-115.49175477254829L-49.768088095208576,-113.7255659418016zM56.73040170283725,104.85818605729028L-49.768088095208576,-113.7255659418016L-53.78464405726974,-111.10476182885928z" style="fill:rgb(185,63,221)"/><path d="M50.80491007390264,107.76617263871219L-53.78464405726974,-111.10476182885928L-61.05973068928294,-107.49435225741293z" style="fill:rgb(163,50,222)"/><path d="M-88.33790669449519,-140.7654266435399L-83.59746943573856,-136.29190221345377L-82.27646358588852,-145.18177575835475zM-93.56034516047596,-135.88588825999094L-83.59746943573856,-136.29190221345377L-88.33790669449519,-140.7654266435399zM-83.59746943573856,-136.29190221345377L-93.56034516047596,-135.88588825999094L-96.28457008549982,-132.52113622152348zM-82.27646358588852,-145.18177575835475L-34.98938926542645,-150.73886254325822L-75.60824392351199,-148.9705462543731zM-75.60824392351199,-148.9705462543731L-34.98938926542645,-150.73886254325822L-68.58497006381859,-151.98993489018906z" style="fill:rgb(83,212,212)"/><path d="M-47.98912727125489,-146.87517894586037L-76.10841409405728,-122.05687416547211L-40.86778085909127,-132.3847593164391z" style="fill:rgb(127,37,217)"/><path d="M-68.58497006381859,-151.98993489018906L-34.98938926542645,-150.73886254325822L-61.470809732370135,-154.12444315959644z" style="fill:rgb(83,212,212)"/><path d="M-76.10841409405728,-122.05687416547211L-47.98912727125489,-146.87517894586037L-83.59746943573856,-136.29190221345377z" style="fill:rgb(127,37,217)"/><path d="M-61.470809732370135,-154.12444315959644L-34.98938926542645,-150.73886254325822L-54.53508085949174,-155.28844720141043zM-82.27646358588852,-145.18177575835475L-83.59746943573856,-136.29190221345377L-34.98938926542645,-150.73886254325822zM-54.53508085949174,-155.28844720141043L-34.98938926542645,-150.73886254325822L-48.04459820468691,-155.42931582863437zM-76.10841409405728,-122.05687416547211L-41.956833467413894,-108.16868559001027L-40.86778085909127,-132.3847593164391z" style="fill:rgb(83,212,212)"/><path d="M-85.83280453507415,-112.09754992953692L-76.10841409405728,-122.05687416547211L-83.59746943573856,-136.29190221345377z" style="fill:rgb(247,158,158)"/><path d="M-48.04459820468691,-155.42931582863437L-34.98938926542645,-150.73886254325822L-42.2554641911255,-154.53022121827271zM-97.73810704134364,-130.7258372507893L-98.92982836989579,-108.28275243598195L-96.28457008549982,-132.52113622152348zM-100.69911000561825,-125.48140709038344L-101.21096344028727,-111.27976896931882L-97.73810704134364,-130.7258372507893zM-102.4927137816088,-115.55635509127976L-100.69911000561825,-125.48140709038344L-102.31196519242438,-120.35652950129912zM-96.28457008549982,-132.52113622152348L-85.83280453507415,-112.09754992953692L-83.59746943573856,-136.29190221345377zM-42.2554641911255,-154.53022121827271L-34.98938926542645,-150.73886254325822L-37.40420998626007,-152.6125275090645zM-41.956833467413894,-108.16868559001027L-76.10841409405728,-122.05687416547211L-78.11825209734627,-97.78674077816324z" style="fill:rgb(83,212,212)"/><path d="M-76.10841409405728,-122.05687416547211L-85.83280453507415,-112.09754992953692L-78.11825209734627,-97.78674077816324z" style="fill:rgb(247,158,158)"/><path d="M-100.69911000561825,-125.48140709038344L-102.4927137816088,-115.55635509127976L-101.21096344028727,-111.27976896931882zM-97.73810704134364,-130.7258372507893L-101.21096344028727,-111.27976896931882L-98.92982836989579,-108.28275243598195zM-96.28457008549982,-132.52113622152348L-98.92982836989579,-108.28275243598195L-85.83280453507415,-112.09754992953692zM-49.28416223036554,-122.74315524072168L-34.98938926542645,-150.73886254325822L-47.98912727125489,-146.87517894586037zM-34.98938926542645,-150.73886254325822L-35.85507856122587,-126.65467901289398L-33.698386170093244,-149.7371807594452zM-33.698386170093244,-149.7371807594452L-32.9355222672881,-131.22987760035448L-31.306875869502406,-146.0049698087179zM-98.49468339279707,-107.71104462860656L-85.83280453507415,-112.09754992953692L-98.92982836989579,-108.28275243598195zM-31.306875869502406,-146.0049698087179L-30.893068590208955,-136.56223008227283L-30.35041416841478,-141.55519421402153zM-85.83280453507415,-112.09754992953692L-98.49468339279707,-107.71104462860656L-94.43302610326452,-105.01095526913628zM-31.306875869502406,-146.0049698087179L-32.9355222672881,-131.22987760035448L-30.893068590208955,-136.56223008227283zM-34.98938926542645,-150.73886254325822L-49.28416223036554,-122.74315524072168L-35.85507856122587,-126.65467901289398zM-33.698386170093244,-149.7371807594452L-35.85507856122587,-126.65467901289398L-32.9355222672881,-131.22987760035448zM-85.83280453507415,-112.09754992953692L-94.43302610326452,-105.01095526913628L-89.17642284580818,-103.30795471418698zM-85.83280453507415,-112.09754992953692L-89.17642284580818,-103.30795471418698L-82.93322424298026,-102.68998471991134zM-85.83280453507415,-112.09754992953692L-82.93322424298026,-102.68998471991134L-35.85507856122587,-126.65467901289398zM-35.85507856122587,-126.65467901289398L-82.93322424298026,-102.68998471991134L-75.9625429774073,-103.19777053209494zM-35.85507856122587,-126.65467901289398L-41.18570354209908,-120.45869730144398L-36.41114784301692,-125.78327397741302zM-35.85507856122587,-126.65467901289398L-75.9625429774073,-103.19777053209494L-68.56328960289538,-104.82048131661278zM-35.85507856122587,-126.65467901289398L-47.061274466428834,-115.49175477254829L-41.18570354209908,-120.45869730144398zM-35.85507856122587,-126.65467901289398L-68.56328960289538,-104.82048131661278L-61.05973068928294,-107.49435225741293zM-35.85507856122587,-126.65467901289398L-53.78464405726974,-111.10476182885928L-47.061274466428834,-115.49175477254829zM-35.85507856122587,-126.65467901289398L-61.05973068928294,-107.49435225741293L-53.78464405726974,-111.10476182885928z" style="fill:rgb(83,212,212)"/></svg>
