<?xml version="1.0" encoding="UTF-8"?>
<!-- Generated by jsxcad -->
<!DOCTYPE svg PUBLIC "-//W3C//DTD SVG 1.1 Tiny//EN" "http://www.w3.org/Graphics/SVG/1.1/DTD/svg11-tiny.dtd">
<svg baseProfile="tiny" height="19.97434 mm" width="20 mm" viewBox="0 0 20 19.97434" version="1.1" stroke="black" stroke-width=".1" fill="none" xmlns="http://www.w3.org/2000/svg">
<path d="M9.49351 0 L10 0 L10.50649 0 L11.01038 0.05125 L11.51428 0.10249 L12.0104 0.20444 L12.50653 0.3064 L12.98979 0.45802 L13.47305 0.60965 L13.9385 0.80939 L14.40394 1.00912 L14.84679 1.25493 L15.28964 1.50073 L15.70535 1.79007 L16.12106 2.07941 L16.50536 2.40933 L16.88967 2.73924 L17.23863 3.10634 L17.58758 3.47345 L17.89761 3.87397 L18.20763 4.27449 L18.47555 4.70432 L18.74347 5.13415 L18.96652 5.58888 L19.18958 6.04361 L19.36549 6.51858 L19.54139 6.99354 L19.66835 7.48386 L19.7953 7.97418 L19.872 8.47484 L19.94869 8.97549 L19.97435 9.48133 L20 9.98717 L19.97435 10.49301 L19.94869 10.99885 L19.872 11.4995 L19.7953 12.00016 L19.66835 12.49048 L19.54139 12.9808 L19.36549 13.45576 L19.18958 13.93073 L18.96652 14.38546 L18.74347 14.84019 L18.47555 15.27002 L18.20763 15.69985 L17.89761 16.10037 L17.58758 16.50089 L17.23863 16.868 L16.88967 17.2351 L16.50536 17.56501 L16.12106 17.89493 L15.70535 18.18427 L15.28964 18.47361 L14.84679 18.71941 L14.40394 18.96522 L13.9385 19.16495 L13.47305 19.36469 L12.98979 19.51632 L12.50653 19.66794 L12.0104 19.7699 L11.51428 19.87185 L11.01038 19.92309 L10.50649 19.97434 L10 19.97434 L9.49351 19.97434 L8.98962 19.92309 L8.48572 19.87185 L7.9896 19.7699 L7.49347 19.66794 L7.01021 19.51632 L6.52695 19.36469 L6.0615 19.16495 L5.59606 18.96522 L5.15321 18.71941 L4.71036 18.47361 L4.29465 18.18427 L3.87894 17.89493 L3.49464 17.56501 L3.11033 17.2351 L2.76137 16.868 L2.41242 16.50089 L2.10239 16.10037 L1.79237 15.69985 L1.52445 15.27002 L1.25653 14.84019 L1.03348 14.38546 L0.81042 13.93073 L0.63451 13.45576 L0.45861 12.9808 L0.33165 12.49048 L0.2047 12.00016 L0.128 11.4995 L0.05131 10.99885 L0.02565 10.49301 L0 9.98717 L0.02565 9.48133 L0.05131 8.97549 L0.128 8.47484 L0.2047 7.97418 L0.33165 7.48386 L0.45861 6.99354 L0.63451 6.51858 L0.81042 6.04361 L1.03348 5.58888 L1.25653 5.13415 L1.52445 4.70432 L1.79237 4.27449 L2.10239 3.87397 L2.41242 3.47345 L2.76137 3.10634 L3.11033 2.73924 L3.49464 2.40933 L3.87894 2.07941 L4.29465 1.79007 L4.71036 1.50073 L5.15321 1.25493 L5.59606 1.00912 L6.0615 0.80939 L6.52695 0.60965 L7.01021 0.45802 L7.49347 0.3064 L7.9896 0.20444 L8.48572 0.10249 L8.98962 0.05125 z"/>
</svg>