<?xml version="1.0" encoding="UTF-8"?>
<!-- Generated by jsxcad -->
<!DOCTYPE svg PUBLIC "-//W3C//DTD SVG 1.1 Tiny//EN" "http://www.w3.org/Graphics/SVG/1.1/DTD/svg11-tiny.dtd">
<svg viewBox="-250 -250 500 500" width="500" height="500" xmlns="http://www.w3.org/2000/svg"><path d="M-124.3819762817307,-86.95112731064081L-122.11782283639837,24.585985415095386L-111.80034167974897,-65.45301801038337z" style="fill:rgb(247,158,158)"/><path d="M-161.14754193480584,9.626323800384604L-124.3819762817307,-86.95112731064081L-147.34938869925563,-80.34286495890532zM-136.10447943182564,2.9751506436292465L-29.741317860833632,-114.18148582835889L-124.3819762817307,-86.95112731064081zM19.663824625768992,-111.69903141394522L121.1050897780524,-157.58357875660107L19.31269090638127,-128.2954966021246z" style="fill:rgb(83,212,212)"/><path d="M-122.11782283639837,24.585985415095386L-124.3819762817307,-86.95112731064081L-136.10447943182564,2.9751506436292465z" style="fill:rgb(247,158,158)"/><path d="M-31.403313143259663,-62.38278456068455L19.663824625768992,-111.69903141394522L-30.275418600833017,-97.535391487132zM-124.3819762817307,-86.95112731064081L-161.14754193480584,9.626323800384604L-136.10447943182564,2.9751506436292465z" style="fill:rgb(83,212,212)"/><path d="M21.20605686352584,-38.80487049365501L30.03619547463592,-88.53496907248015L19.663824625768992,-111.69903141394522z" style="fill:rgb(247,158,158)"/><path d="M121.1050897780524,-157.58357875660107L19.663824625768992,-111.69903141394522L21.20605686352584,-38.80487049365501zM19.663824625768992,-111.69903141394522L-31.403313143259663,-62.38278456068455L-32.618497638387694,-24.50963677735844z" style="fill:rgb(83,212,212)"/><path d="M30.03619547463592,-88.53496907248015L21.20605686352584,-38.80487049365501L32.340983114683816,-15.439863508196956zM162.30197249346259,-76.2784558651709L155.26214863947158,-140.58835553951266L147.35461237644265,-165.1361821385459z" style="fill:rgb(247,158,158)"/><path d="M133.30511407948637,-68.57719683959067L147.35461237644265,-165.1361821385459L121.1050897780524,-157.58357875660107zM19.663824625768992,-111.69903141394522L-32.618497638387694,-24.50963677735844L21.20605686352584,-38.80487049365501z" style="fill:rgb(83,212,212)"/><path d="M-37.72827183324797,134.74456756748242L-18.707606996281115,-91.64371449332117L-29.741317860833632,-114.18148582835889z" style="fill:rgb(247,158,158)"/><path d="M-146.73076643194273,30.964085955629194L162.30197249346259,-76.2784558651709L-161.14754193480584,9.626323800384604z" style="fill:rgb(127,37,217)"/><path d="M-122.11782283639837,24.585985415095386L-33.93151361983383,16.412582679375973L-136.10447943182564,2.9751506436292465z" style="fill:rgb(73,33,194)"/><path d="M-31.403313143259663,-62.38278456068455L-33.93151361983383,16.412582679375973L-32.618497638387694,-24.50963677735844z" style="fill:rgb(255,127,127)"/><path d="M155.26214863947158,-140.58835553951266L162.30197249346259,-76.2784558651709L170.6594607248237,-51.283166701230435z" style="fill:rgb(247,158,158)"/><path d="M-29.741317860833632,-114.18148582835889L-136.10447943182564,2.9751506436292465L-156.79234998341352,161.67703936919318z" style="fill:rgb(83,212,212)"/><path d="M-33.93151361983383,16.412582679375973L-122.11782283639837,24.585985415095386L-21.28480537747238,39.15762373776301z" style="fill:rgb(73,33,194)"/><path d="M162.30197249346259,-76.2784558651709L-146.73076643194273,30.964085955629194L170.6594607248237,-51.283166701230435z" style="fill:rgb(127,37,217)"/><path d="M147.35461237644265,-165.1361821385459L133.30511407948637,-68.57719683959067L162.30197249346259,-76.2784558651709zM-29.741317860833632,-114.18148582835889L-156.79234998341352,161.67703936919318L-33.93151361983383,16.412582679375973z" style="fill:rgb(83,212,212)"/><path d="M155.1926857495658,91.10555613968448L129.494864898117,-133.33899626285782L121.1050897780524,-157.58357875660107z" style="fill:rgb(247,158,158)"/><path d="M32.340983114683816,-15.439863508196956L138.9022725257696,-27.742621790767508L21.20605686352584,-38.80487049365501z" style="fill:rgb(73,33,194)"/><path d="M-141.4364052924087,43.877701050186865L-140.23617149149015,182.70191560644338L-126.79845434409212,65.43310701983629z" style="fill:rgb(247,158,158)"/><path d="M-185.46142046542025,168.1620198042226L-141.4364052924087,43.877701050186865L-167.41853206093978,50.51555510946873zM121.1050897780524,-157.58357875660107L21.20605686352584,-38.80487049365501L24.579675573413944,120.65040620858012z" style="fill:rgb(83,212,212)"/><path d="M138.9022725257696,-27.742621790767508L32.340983114683816,-15.439863508196956L148.08497907476232,-3.0196049782290366z" style="fill:rgb(73,33,194)"/><path d="M-18.707606996281115,-91.64371449332117L-37.72827183324797,134.74456756748242L-23.607852499059405,157.05996632057952zM-140.23617149149015,182.70191560644338L-141.4364052924087,43.877701050186865L-156.79234998341352,161.67703936919318z" style="fill:rgb(247,158,158)"/><path d="M-141.4364052924087,43.877701050186865L-185.46142046542025,168.1620198042226L-156.79234998341352,161.67703936919318zM-37.72827183324797,134.74456756748242L22.07159354712197,2.105029022433984L-33.93151361983383,16.412582679375973z" style="fill:rgb(83,212,212)"/><path d="M24.579675573413944,120.65040620858012L33.63131024822332,25.482165533319055L22.07159354712197,2.105029022433984z" style="fill:rgb(247,158,158)"/><path d="M-33.93151361983383,16.412582679375973L-156.79234998341352,161.67703936919318L-37.72827183324797,134.74456756748242z" style="fill:rgb(83,212,212)"/><path d="M129.494864898117,-133.33899626285782L155.1926857495658,91.10555613968448L165.00490029806588,115.59147956769215z" style="fill:rgb(247,158,158)"/><path d="M121.1050897780524,-157.58357875660107L24.579675573413944,120.65040620858012L155.1926857495658,91.10555613968448z" style="fill:rgb(83,212,212)"/><path d="M33.63131024822332,25.482165533319055L24.579675573413944,120.65040620858012L37.357494871923265,143.65609009072224zM189.1660530761628,83.4207297718463L177.70879648488966,-10.396661601609587L169.16591399205728,-35.47431066386723z" style="fill:rgb(247,158,158)"/><path d="M22.07159354712197,2.105029022433984L-37.72827183324797,134.74456756748242L24.579675573413944,120.65040620858012zM155.1926857495658,91.10555613968448L169.16591399205728,-35.47431066386723L138.9022725257696,-27.742621790767508z" style="fill:rgb(83,212,212)"/><path d="M-168.34423243881636,188.88175869941622L189.1660530761628,83.4207297718463L-185.46142046542025,168.1620198042226z" style="fill:rgb(127,37,217)"/><path d="M177.70879648488966,-10.396661601609587L189.1660530761628,83.4207297718463L198.17339427568504,108.29904721574212z" style="fill:rgb(247,158,158)"/><path d="M189.1660530761628,83.4207297718463L-168.34423243881636,188.88175869941622L198.17339427568504,108.29904721574212z" style="fill:rgb(127,37,217)"/><path d="M169.16591399205728,-35.47431066386723L155.1926857495658,91.10555613968448L189.1660530761628,83.4207297718463z" style="fill:rgb(83,212,212)"/></svg>
