<svg viewBox="-250 -250 500 500" width="500" height="500" xmlns="http://www.w3.org/2000/svg"><path d="M-11.988692833144846,9.046225039904746L-13.642470592183228,6.275549684402629L-12.970328780831045,7.421262725515917z" style="fill:rgb(17,62,130)"/><path d="M-13.117084142211324,-7.341533218546277L-10.922507913841239,-10.323809740518385L-12.30976464982918,-8.484283680322816z" style="fill:rgb(24,202,131)"/><path d="M14.988523840658381,-0.1829402912076361L14.874624012850344,-1.8132312503199017L14.834947576979978,-1.6726633304931293z" style="fill:rgb(254,136,131)"/><path d="M14.874624012850344,-1.8132312503199017L14.606640663515456,-3.4125996815108306L14.649930221979226,-2.7773654111244626z" style="fill:rgb(253,148,132)"/><path d="M5.640612355496654,13.80366364389916L7.899411032191449,12.785165828570392L6.6120750081377055,13.346187869469844z" style="fill:rgb(179,11,130)"/><path d="M8.198533175539744,-12.594205890954786L6.056991875696143,-13.691299372699426L4.693106468325345,-14.249471495252864z" style="fill:rgb(182,242,134)"/><path d="M-13.771763807299543,-5.87925281187696L-14.368684728126485,-4.279390566809703L-14.74236181632115,-2.9254026520970866z" style="fill:rgb(5,164,134)"/><path d="M14.988523840658381,-0.1829402912076361L14.883009140000484,0.5582368237915312L14.944222730545357,1.4167180090972482z" style="fill:rgb(254,124,132)"/><path d="M-9.832816151116708,-11.238888941023285L-9.109652248221034,-11.771980916844765L-7.900779062429246,-12.787379980154647z" style="fill:rgb(47,226,130)"/><path d="M14.19488401714997,-4.920859038195991L14.649930221979226,-2.7773654111244626L14.606640663515456,-3.4125996815108306z" style="fill:rgb(250,159,134)"/><path d="M-9.832816151116708,-11.238888941023285L-10.922507913841239,-10.323809740518385L-9.109652248221034,-11.771980916844765z" style="fill:rgb(47,226,130)"/><path d="M5.640612355496654,13.80366364389916L6.6120750081377055,13.346187869469844L4.270485807239113,14.400942423142224z" style="fill:rgb(179,11,130)"/><path d="M10.031384504266818,-11.008590218583475L9.381872487662907,-11.639343498657333L8.198533175539744,-12.594205890954786zM10.031384504266818,-11.008590218583475L11.03673300632957,-10.197568669762525L9.381872487662907,-11.639343498657333z" style="fill:rgb(209,224,131)"/><path d="M-11.988692833144846,9.046225039904746L-11.02376878228375,10.185590164448625L-9.406298672649916,11.669647124910314z" style="fill:rgb(36,39,137)"/><path d="M14.883009140000484,0.5582368237915312L14.743263579425872,2.9255815935858003L14.944222730545357,1.4167180090972482z" style="fill:rgb(253,113,136)"/><path d="M-6.070183210369133,13.721117228796167L-9.406298672649916,11.669647124910314L-8.189601642482428,12.580485684688252z" style="fill:rgb(61,19,138)"/><path d="M-4.682695423536768,14.217860900659298L-2.2403008692499866,14.863246515459892L-3.7099617754227565,14.336541000138467z" style="fill:rgb(92,5,134)"/><path d="M12.272684096170845,-8.357450438403301L11.969336742835102,-9.031619648702863L11.03673300632957,-10.197568669762525z" style="fill:rgb(230,202,135)"/><path d="M-11.988692833144846,9.046225039904746L-12.84506706864443,7.586408597644651L-13.642470592183228,6.275549684402629z" style="fill:rgb(17,62,130)"/><path d="M13.654433470022521,-6.281052619794689L14.365495585928784,-3.8189233688932855L14.19488401714997,-4.920859038195991z" style="fill:rgb(247,169,138)"/><path d="M-4.682695423536768,14.217860900659298L-3.7099617754227565,14.336541000138467L-6.070183210369133,13.721117228796167z" style="fill:rgb(92,5,134)"/><path d="M-13.558909662638335,5.862241575695759L-14.20243770847089,4.923477633047156L-13.642470592183228,6.275549684402629z" style="fill:rgb(11,74,138)"/><path d="M0.7918179519406858,-14.886571306717187L4.693106468325345,-14.249471495252864L2.23875484915563,-14.85298946557302z" style="fill:rgb(150,252,141)"/><path d="M-13.117084142211324,-7.341533218546277L-11.87126271428939,-8.98055820619972L-10.922507913841239,-10.323809740518385z" style="fill:rgb(24,202,131)"/><path d="M13.905762299855105,5.44769694766677L12.341659489529315,8.506266624403914L13.112129000007988,7.338759862768405z" style="fill:rgb(239,68,140)"/><path d="M14.988523840658381,-0.1829402912076361L14.834947576979978,-1.6726633304931293L14.913631382748473,-0.5466141846009043z" style="fill:rgb(254,136,131)"/><path d="M-4.263998175487187,-14.379064815877284L-3.1919640451855584,-14.37873312939383L-1.7737056815005914,-14.919389952897795z" style="fill:rgb(95,250,137)"/><path d="M14.874624012850344,-1.8132312503199017L14.649930221979226,-2.7773654111244626L14.834947576979978,-1.6726633304931293z" style="fill:rgb(253,148,132)"/><path d="M12.272684096170845,-8.357450438403301L13.005560736922789,-7.44142147452811L11.969336742835102,-9.031619648702863z" style="fill:rgb(230,202,135)"/><path d="M14.988523840658381,-0.1829402912076361L14.913631382748473,-0.5466141846009043L14.883009140000484,0.5582368237915312z" style="fill:rgb(254,124,132)"/><path d="M1.771364163114917,14.89969444972528L4.270485807239113,14.400942423142224L2.8267309771864024,14.437719466827124z" style="fill:rgb(146,1,138)"/><path d="M-14.52616193046268,-2.2307321708189063L-14.74236181632115,-2.9254026520970866L-14.960578156229582,-1.418268509684593z" style="fill:rgb(2,150,141)"/><path d="M11.448871140417005,9.318654606441447L10.912252858802082,10.314116798389827L12.341659489529315,8.506266624403914zM11.448871140417005,9.318654606441447L9.861293836405327,11.271438877616557L10.912252858802082,10.314116798389827z" style="fill:rgb(222,42,138)"/><path d="M-13.771763807299543,-5.87925281187696L-14.74236181632115,-2.9254026520970866L-14.248030209902804,-4.153251135760574z" style="fill:rgb(5,164,134)"/><path d="M-4.263998175487187,-14.379064815877284L-5.658870439983571,-13.848344689352539L-3.1919640451855584,-14.37873312939383z" style="fill:rgb(95,250,137)"/><path d="M14.743263579425872,2.9255815935858003L14.502250064361048,2.5387186308219363L14.392770057781252,4.286563842197542z" style="fill:rgb(251,103,141)"/><path d="M14.19488401714997,-4.920859038195991L14.365495585928784,-3.8189233688932855L14.649930221979226,-2.7773654111244626z" style="fill:rgb(250,159,134)"/><path d="M8.198533175539744,-12.594205890954786L4.693106468325345,-14.249471495252864L6.973607882141734,-13.095131329033858z" style="fill:rgb(182,242,134)"/><path d="M1.771364163114917,14.89969444972528L2.8267309771864024,14.437719466827124L0.2952414281581412,14.938385160273903z" style="fill:rgb(146,1,138)"/><path d="M-13.558909662638335,5.862241575695759L-13.642470592183228,6.275549684402629L-12.84506706864443,7.586408597644651z" style="fill:rgb(11,74,138)"/><path d="M-14.101673648889403,3.9407893719489344L-14.627967317463142,3.417582301001373L-14.20243770847089,4.923477633047156z" style="fill:rgb(7,88,144)"/><path d="M-15.014706648666179,0.18325986173802794L-14.52616193046268,-2.2307321708189063L-14.960578156229582,-1.418268509684593z" style="fill:rgb(1,135,146)"/><path d="M14.883009140000484,0.5582368237915312L14.744140009727367,1.5998947065457423L14.743263579425872,2.9255815935858003z" style="fill:rgb(253,113,136)"/><path d="M8.705103734418959,11.77400477202282L7.899411032191449,12.785165828570392L9.861293836405327,11.271438877616557z" style="fill:rgb(197,22,142)"/><path d="M-11.988692833144846,9.046225039904746L-9.406298672649916,11.669647124910314L-10.540797645383998,10.329522361246372z" style="fill:rgb(36,39,137)"/><path d="M-14.101673648889403,3.9407893719489344L-14.902445712117444,1.8166227427365427L-14.627967317463142,3.417582301001373z" style="fill:rgb(3,103,147)"/><path d="M10.031384504266818,-11.008590218583475L12.272684096170845,-8.357450438403301L11.03673300632957,-10.197568669762525z" style="fill:rgb(222,210,146)"/><path d="M10.031384504266818,-11.008590218583475L8.198533175539744,-12.594205890954786L6.973607882141734,-13.095131329033858z" style="fill:rgb(200,230,147)"/><path d="M13.654433470022521,-6.281052619794689L13.005560736922789,-7.44142147452811L13.544831617151036,-5.557382466409863z" style="fill:rgb(242,178,145)"/><path d="M-13.117084142211324,-7.341533218546277L-13.771763807299543,-5.87925281187696L-12.64104505419446,-7.259509460394808z" style="fill:rgb(18,190,144)"/><path d="M-6.070183210369133,13.721117228796167L-7.420250706461289,12.709446720325577L-9.406298672649916,11.669647124910314z" style="fill:rgb(61,19,138)"/><path d="M8.705103734418959,11.77400477202282L6.6120750081377055,13.346187869469844L7.899411032191449,12.785165828570392z" style="fill:rgb(197,22,142)"/><path d="M-15.014706648666179,0.18325986173802794L-14.902445712117444,1.8166227427365427L-14.451744762176716,1.897710766444623z" style="fill:rgb(1,119,148)"/><path d="M-7.900779062429246,-12.787379980154647L-6.939224848041588,-12.7710952758039L-5.658870439983571,-13.848344689352539z" style="fill:rgb(64,236,145)"/><path d="M13.654433470022521,-6.281052619794689L13.992519843502857,-4.757531353051995L14.365495585928784,-3.8189233688932855z" style="fill:rgb(247,169,138)"/><path d="M-14.52616193046268,-2.2307321708189063L-14.248030209902804,-4.153251135760574L-14.74236181632115,-2.9254026520970866z" style="fill:rgb(2,150,141)"/><path d="M14.743263579425872,2.9255815935858003L14.744140009727367,1.5998947065457423L14.502250064361048,2.5387186308219363z" style="fill:rgb(251,103,141)"/><path d="M13.905762299855105,5.44769694766677L14.392770057781252,4.286563842197542L14.502250064361048,2.5387186308219363z" style="fill:rgb(248,93,148)"/><path d="M0.7918179519406858,-14.886571306717187L-1.7737056815005914,-14.919389952897795L-3.1919640451855584,-14.37873312939383z" style="fill:rgb(117,252,150)"/><path d="M-13.117084142211324,-7.341533218546277L-12.64104505419446,-7.259509460394808L-11.87126271428939,-8.98055820619972z" style="fill:rgb(18,190,144)"/><path d="M13.905762299855105,5.44769694766677L13.300424951005661,6.364386405841287L12.341659489529315,8.506266624403914z" style="fill:rgb(239,68,140)"/><path d="M-7.900779062429246,-12.787379980154647L-9.109652248221034,-11.771980916844765L-6.939224848041588,-12.7710952758039z" style="fill:rgb(64,236,145)"/><path d="M-2.2403008692499866,14.863246515459892L0.2952414281581412,14.938385160273903L-1.1992629891562832,14.400664400008814z" style="fill:rgb(112,2,147)"/><path d="M0.7918179519406858,-14.886571306717187L3.333866674121288,-14.279713117796959L4.693106468325345,-14.249471495252864z" style="fill:rgb(150,252,141)"/><path d="M-14.101673648889403,3.9407893719489344L-14.20243770847089,4.923477633047156L-13.558909662638335,5.862241575695759z" style="fill:rgb(7,88,144)"/><path d="M13.654433470022521,-6.281052619794689L13.544831617151036,-5.557382466409863L13.992519843502857,-4.757531353051995z" style="fill:rgb(242,178,145)"/><path d="M-10.922507913841239,-10.323809740518385L-11.87126271428939,-8.98055820619972L-10.162266866516957,-10.279423573696807zM-10.922507913841239,-10.323809740518385L-10.162266866516957,-10.279423573696807L-9.109652248221034,-11.771980916844765z" style="fill:rgb(38,215,147)"/><path d="M6.973607882141734,-13.095131329033858L4.693106468325345,-14.249471495252864L3.333866674121288,-14.279713117796959z" style="fill:rgb(171,244,153)"/><path d="M-11.988692833144846,9.046225039904746L-11.548134667586723,8.610651268262538L-12.84506706864443,7.586408597644651z" style="fill:rgb(27,51,150)"/><path d="M-2.2403008692499866,14.863246515459892L-1.1992629891562832,14.400664400008814L-3.7099617754227565,14.336541000138467z" style="fill:rgb(112,2,147)"/><path d="M11.448871140417005,9.318654606441447L12.341659489529315,8.506266624403914L13.300424951005661,6.364386405841287z" style="fill:rgb(233,60,152)"/><path d="M5.2557730515479655,13.378600326536452L4.270485807239113,14.400942423142224L6.6120750081377055,13.346187869469844z" style="fill:rgb(167,8,150)"/><path d="M-15.014706648666179,0.18325986173802794L-14.595141579808189,-0.1870340317161057L-14.52616193046268,-2.2307321708189063z" style="fill:rgb(1,135,146)"/><path d="M11.448871140417005,9.318654606441447L8.705103734418959,11.77400477202282L9.861293836405327,11.271438877616557z" style="fill:rgb(213,37,154)"/><path d="M13.039383062990632,-6.188036112211179L13.005560736922789,-7.44142147452811L12.272684096170845,-8.357450438403301z" style="fill:rgb(237,186,152)"/><path d="M-11.988692833144846,9.046225039904746L-10.540797645383998,10.329522361246372L-11.548134667586723,8.610651268262538z" style="fill:rgb(27,51,150)"/><path d="M-14.101673648889403,3.9407893719489344L-14.451744762176716,1.897710766444623L-14.902445712117444,1.8166227427365427z" style="fill:rgb(3,103,147)"/><path d="M-15.014706648666179,0.18325986173802794L-14.451744762176716,1.897710766444623L-14.595141579808189,-0.1870340317161057z" style="fill:rgb(1,119,148)"/><path d="M10.031384504266818,-11.008590218583475L11.483023421877908,-8.993337795486374L12.272684096170845,-8.357450438403301z" style="fill:rgb(222,210,146)"/><path d="M5.2557730515479655,13.378600326536452L2.8267309771864024,14.437719466827124L4.270485807239113,14.400942423142224z" style="fill:rgb(167,8,150)"/><path d="M14.26253181976873,-0.8911869660821305L14.913631382748473,-0.5466141846009043L14.834947576979978,-1.6726633304931293z" style="fill:rgb(251,137,156)"/><path d="M10.031384504266818,-11.008590218583475L6.973607882141734,-13.095131329033858L8.991354171495333,-11.43255247630578z" style="fill:rgb(200,230,147)"/><path d="M-6.939224848041588,-12.7710952758039L-3.1919640451855584,-14.37873312939383L-5.658870439983571,-13.848344689352539z" style="fill:rgb(84,243,158)"/><path d="M-6.070183210369133,13.721117228796167L-3.7099617754227565,14.336541000138467L-5.140416291473485,13.262086255750178z" style="fill:rgb(80,12,153)"/><path d="M14.127638139892733,-2.0314118266207113L14.834947576979978,-1.6726633304931293L14.649930221979226,-2.7773654111244626z" style="fill:rgb(250,144,156)"/><path d="M13.905762299855105,5.44769694766677L14.502250064361048,2.5387186308219363L14.166241969522739,3.338876598747936z" style="fill:rgb(248,93,148)"/><path d="M14.26253181976873,-0.8911869660821305L14.883009140000484,0.5582368237915312L14.913631382748473,-0.5466141846009043z" style="fill:rgb(251,129,157)"/><path d="M-13.771763807299543,-5.87925281187696L-14.248030209902804,-4.153251135760574L-13.200881160935284,-5.226734350642682z" style="fill:rgb(12,175,156)"/><path d="M13.039383062990632,-6.188036112211179L13.544831617151036,-5.557382466409863L13.005560736922789,-7.44142147452811z" style="fill:rgb(237,186,152)"/><path d="M-6.070183210369133,13.721117228796167L-5.140416291473485,13.262086255750178L-7.420250706461289,12.709446720325577z" style="fill:rgb(80,12,153)"/><path d="M14.127638139892733,-2.0314118266207113L14.649930221979226,-2.7773654111244626L14.365495585928784,-3.8189233688932855z" style="fill:rgb(248,151,158)"/><path d="M2.8267309771864024,14.437719466827124L-1.1992629891562832,14.400664400008814L0.2952414281581412,14.938385160273903z" style="fill:rgb(134,4,160)"/><path d="M-13.558909662638335,5.862241575695759L-12.84506706864443,7.586408597644651L-11.548134667586723,8.610651268262538z" style="fill:rgb(20,66,160)"/><path d="M-8.679676420949464,11.219191222417L-10.540797645383998,10.329522361246372L-9.406298672649916,11.669647124910314zM-8.679676420949464,11.219191222417L-9.406298672649916,11.669647124910314L-7.420250706461289,12.709446720325577z" style="fill:rgb(50,29,155)"/><path d="M13.905762299855105,5.44769694766677L13.748760604276647,3.969541866149257L13.300424951005661,6.364386405841287z" style="fill:rgb(244,86,156)"/><path d="M0.7918179519406858,-14.886571306717187L-3.1919640451855584,-14.37873312939383L-0.594933823978621,-14.355561470022822z" style="fill:rgb(117,252,150)"/><path d="M14.175755217072618,0.20578564210379896L14.744140009727367,1.5998947065457423L14.883009140000484,0.5582368237915312z" style="fill:rgb(250,123,159)"/><path d="M5.2557730515479655,13.378600326536452L6.6120750081377055,13.346187869469844L8.705103734418959,11.77400477202282z" style="fill:rgb(186,20,161)"/><path d="M-10.162266866516957,-10.279423573696807L-11.87126271428939,-8.98055820619972L-12.64104505419446,-7.259509460394808z" style="fill:rgb(30,202,163)"/><path d="M-13.771763807299543,-5.87925281187696L-13.200881160935284,-5.226734350642682L-12.64104505419446,-7.259509460394808z" style="fill:rgb(12,175,156)"/><path d="M11.448871140417005,9.318654606441447L13.300424951005661,6.364386405841287L12.599075971636303,7.000711783430586z" style="fill:rgb(233,60,152)"/><path d="M-10.162266866516957,-10.279423573696807L-6.939224848041588,-12.7710952758039L-9.109652248221034,-11.771980916844765z" style="fill:rgb(54,225,163)"/><path d="M13.905762299855105,5.44769694766677L14.166241969522739,3.338876598747936L13.748760604276647,3.969541866149257z" style="fill:rgb(244,86,156)"/><path d="M13.791507840901806,-3.0428224734576483L14.365495585928784,-3.8189233688932855L13.992519843502857,-4.757531353051995z" style="fill:rgb(246,157,160)"/><path d="M6.973607882141734,-13.095131329033858L3.333866674121288,-14.279713117796959L5.753539602861672,-13.120120350855656z" style="fill:rgb(171,244,153)"/><path d="M-14.52616193046268,-2.2307321708189063L-13.200881160935284,-5.226734350642682L-14.248030209902804,-4.153251135760574z" style="fill:rgb(9,158,164)"/><path d="M10.031384504266818,-11.008590218583475L10.666939733469631,-9.324177863193977L11.483023421877908,-8.993337795486374z" style="fill:rgb(214,214,159)"/><path d="M14.051901355452253,0.6849549143756242L14.502250064361048,2.5387186308219363L14.744140009727367,1.5998947065457423z" style="fill:rgb(249,116,162)"/><path d="M10.031384504266818,-11.008590218583475L8.991354171495333,-11.43255247630578L10.666939733469631,-9.324177863193977z" style="fill:rgb(214,214,159)"/><path d="M11.448871140417005,9.318654606441447L10.467133781767927,9.743223132486694L8.705103734418959,11.77400477202282z" style="fill:rgb(213,37,154)"/><path d="M2.031670049500832,-13.777593621936173L3.333866674121288,-14.279713117796959L0.7918179519406858,-14.886571306717187z" style="fill:rgb(139,249,161)"/><path d="M14.26253181976873,-0.8911869660821305L14.834947576979978,-1.6726633304931293L14.222395287626208,-1.466764385658286z" style="fill:rgb(251,137,156)"/><path d="M12.495466726921595,-6.62503187998433L12.272684096170845,-8.357450438403301L11.483023421877908,-8.993337795486374z" style="fill:rgb(232,192,161)"/><path d="M14.127638139892733,-2.0314118266207113L14.222395287626208,-1.466764385658286L14.834947576979978,-1.6726633304931293z" style="fill:rgb(250,144,156)"/><path d="M13.791507840901806,-3.0428224734576483L13.992519843502857,-4.757531353051995L13.544831617151036,-5.557382466409863z" style="fill:rgb(244,163,164)"/><path d="M14.26253181976873,-0.8911869660821305L14.246764972110723,-0.3264648419669347L14.883009140000484,0.5582368237915312z" style="fill:rgb(251,129,157)"/><path d="M-14.101673648889403,3.9407893719489344L-13.558909662638335,5.862241575695759L-12.388273515559629,6.57937866517537z" style="fill:rgb(14,83,167)"/><path d="M12.495466726921595,-6.62503187998433L13.039383062990632,-6.188036112211179L12.272684096170845,-8.357450438403301z" style="fill:rgb(232,191,161)"/><path d="M14.175755217072618,0.20578564210379896L14.883009140000484,0.5582368237915312L14.246764972110723,-0.3264648419669347z" style="fill:rgb(250,123,159)"/><path d="M7.956209034677616,-11.450848380725258L8.991354171495333,-11.43255247630578L6.973607882141734,-13.095131329033858z" style="fill:rgb(190,232,163)"/><path d="M14.127638139892733,-2.0314118266207113L14.365495585928784,-3.8189233688932855L13.982243224944414,-2.563573523321475z" style="fill:rgb(248,151,158)"/><path d="M2.031670049500832,-13.777593621936173L0.7918179519406858,-14.886571306717187L-0.594933823978621,-14.355561470022822z" style="fill:rgb(139,249,161)"/><path d="M14.051901355452253,0.6849549143756242L14.166241969522739,3.338876598747936L14.502250064361048,2.5387186308219363z" style="fill:rgb(247,111,166)"/><path d="M-6.939224848041588,-12.7710952758039L-4.493697766753766,-13.279912778123032L-3.1919640451855584,-14.37873312939383z" style="fill:rgb(84,243,158)"/><path d="M13.791507840901806,-3.0428224734576483L13.982243224944414,-2.563573523321475L14.365495585928784,-3.8189233688932855z" style="fill:rgb(246,157,160)"/><path d="M-13.558909662638335,5.862241575695759L-11.548134667586723,8.610651268262538L-12.388273515559629,6.57937866517537z" style="fill:rgb(20,66,160)"/><path d="M7.956209034677616,-11.450848380725258L6.973607882141734,-13.095131329033858L5.753539602861672,-13.120120350855656z" style="fill:rgb(190,232,163)"/><path d="M13.265625794747736,4.406375146484427L12.599075971636303,7.000711783430586L13.300424951005661,6.364386405841287z" style="fill:rgb(239,80,165)"/><path d="M14.051901355452253,0.6849549143756242L14.744140009727367,1.5998947065457423L14.175755217072618,0.20578564210379896z" style="fill:rgb(249,116,162)"/><path d="M2.8267309771864024,14.437719466827124L1.3649049406887175,13.908586952308363L-1.1992629891562832,14.400664400008814z" style="fill:rgb(134,4,160)"/><path d="M11.448871140417005,9.318654606441447L12.599075971636303,7.000711783430586L11.828621180342507,7.331563224207141z" style="fill:rgb(225,56,166)"/><path d="M-0.594933823978621,-14.355561470022822L-3.1919640451855584,-14.37873312939383L-4.493697766753766,-13.279912778123032z" style="fill:rgb(105,245,171)"/><path d="M-8.679676420949464,11.219191222417L-7.420250706461289,12.709446720325577L-5.140416291473485,13.262086255750178z" style="fill:rgb(68,23,171)"/><path d="M5.2557730515479655,13.378600326536452L1.3649049406887175,13.908586952308363L2.8267309771864024,14.437719466827124z" style="fill:rgb(155,11,171)"/><path d="M13.265625794747736,4.406375146484427L13.300424951005661,6.364386405841287L13.748760604276647,3.969541866149257z" style="fill:rgb(239,80,165)"/><path d="M13.039383062990632,-6.188036112211179L13.562803762434191,-3.451007138093155L13.544831617151036,-5.557382466409863z" style="fill:rgb(240,168,169)"/><path d="M-14.52616193046268,-2.2307321708189063L-14.595141579808189,-0.1870340317161057L-13.608781455804518,-0.5519677526612261z" style="fill:rgb(8,140,170)"/><path d="M11.448871140417005,9.318654606441447L11.828621180342507,7.331563224207141L10.467133781767927,9.743223132486694z" style="fill:rgb(225,56,166)"/><path d="M-2.654496491987303,13.30369746212751L-3.7099617754227565,14.336541000138467L-1.1992629891562832,14.400664400008814z" style="fill:rgb(100,9,167)"/><path d="M5.2557730515479655,13.378600326536452L8.705103734418959,11.77400477202282L7.487322018371526,11.799828930071948z" style="fill:rgb(186,20,161)"/><path d="M2.031670049500832,-13.777593621936173L5.753539602861672,-13.120120350855656L3.333866674121288,-14.279713117796959z" style="fill:rgb(160,242,172)"/><path d="M-14.101673648889403,3.9407893719489344L-13.439657115873448,1.905728235274918L-14.451744762176716,1.897710766444623z" style="fill:rgb(10,101,171)"/><path d="M-13.608781455804518,-0.5519677526612261L-14.595141579808189,-0.1870340317161057L-14.451744762176716,1.897710766444623z" style="fill:rgb(8,121,172)"/><path d="M-10.162266866516957,-10.279423573696807L-12.64104505419446,-7.259509460394808L-11.016721591932436,-8.365300264745086z" style="fill:rgb(30,202,163)"/><path d="M-9.79848154620671,9.306635243577382L-11.548134667586723,8.610651268262538L-10.540797645383998,10.329522361246372z" style="fill:rgb(41,43,169)"/><path d="M12.495466726921595,-6.62503187998433L11.483023421877908,-8.993337795486374L10.666939733469631,-9.324177863193977z" style="fill:rgb(226,195,171)"/><path d="M-2.654496491987303,13.30369746212751L-5.140416291473485,13.262086255750178L-3.7099617754227565,14.336541000138467z" style="fill:rgb(100,9,167)"/><path d="M-14.52616193046268,-2.2307321708189063L-13.528025557228062,-2.9612283814355416L-13.200881160935284,-5.226734350642682z" style="fill:rgb(9,158,164)"/><path d="M-10.162266866516957,-10.279423573696807L-8.054261719300962,-11.185768401638185L-6.939224848041588,-12.7710952758039z" style="fill:rgb(54,225,163)"/><path d="M13.880218066331818,1.0928986657693942L13.748760604276647,3.969541866149257L14.166241969522739,3.338876598747936z" style="fill:rgb(245,106,171)"/><path d="M13.791507840901806,-3.0428224734576483L13.544831617151036,-5.557382466409863L13.562803762434191,-3.451007138093155z" style="fill:rgb(244,163,164)"/><path d="M-9.79848154620671,9.306635243577382L-10.540797645383998,10.329522361246372L-8.679676420949464,11.219191222417z" style="fill:rgb(41,43,169)"/><path d="M7.956209034677616,-11.450848380725258L10.666939733469631,-9.324177863193977L8.991354171495333,-11.43255247630578z" style="fill:rgb(206,216,173)"/><path d="M8.705103734418959,11.77400477202282L10.467133781767927,9.743223132486694L9.433728614559806,9.761801290787748z" style="fill:rgb(203,35,171)"/><path d="M-13.200881160935284,-5.226734350642682L-11.016721591932436,-8.365300264745086L-12.64104505419446,-7.259509460394808z" style="fill:rgb(24,185,176)"/><path d="M14.051901355452253,0.6849549143756242L13.880218066331818,1.0928986657693942L14.166241969522739,3.338876598747936z" style="fill:rgb(247,111,166)"/><path d="M-14.101673648889403,3.9407893719489344L-12.388273515559629,6.57937866517537L-13.027367060841,4.314593766434817z" style="fill:rgb(14,83,167)"/><path d="M-14.52616193046268,-2.2307321708189063L-13.608781455804518,-0.5519677526612261L-13.528025557228062,-2.9612283814355416z" style="fill:rgb(8,140,170)"/><path d="M8.705103734418959,11.77400477202282L9.433728614559806,9.761801290787748L7.487322018371526,11.799828930071948z" style="fill:rgb(203,35,171)"/><path d="M13.265625794747736,4.406375146484427L11.828621180342507,7.331563224207141L12.599075971636303,7.000711783430586z" style="fill:rgb(234,77,175)"/><path d="M13.039383062990632,-6.188036112211179L13.304754011790106,-3.772242060963871L13.562803762434191,-3.451007138093155z" style="fill:rgb(240,168,169)"/><path d="M13.027241407651232,-3.994139070053435L13.039383062990632,-6.188036112211179L12.495466726921595,-6.62503187998433z" style="fill:rgb(237,171,174)"/><path d="M-14.101673648889403,3.9407893719489344L-13.027367060841,4.314593766434817L-13.439657115873448,1.905728235274918z" style="fill:rgb(10,101,171)"/><path d="M-2.654496491987303,13.30369746212751L-1.1992629891562832,14.400664400008814L1.3649049406887175,13.908586952308363z" style="fill:rgb(121,11,180)"/><path d="M12.495466726921595,-6.62503187998433L10.666939733469631,-9.324177863193977L11.933609989292332,-6.850735939831478z" style="fill:rgb(226,195,171)"/><path d="M-9.79848154620671,9.306635243577382L-12.388273515559629,6.57937866517537L-11.548134667586723,8.610651268262538z" style="fill:rgb(33,60,180)"/><path d="M13.880218066331818,1.0928986657693942L13.666949424800492,1.413988459103336L13.748760604276647,3.969541866149257z" style="fill:rgb(245,106,171)"/><path d="M13.027241407651232,-3.994139070053435L13.304754011790106,-3.772242060963871L13.039383062990632,-6.188036112211179z" style="fill:rgb(237,171,174)"/><path d="M-13.608781455804518,-0.5519677526612261L-14.451744762176716,1.897710766444623L-13.439657115873448,1.905728235274918z" style="fill:rgb(8,121,172)"/><path d="M-0.594933823978621,-14.355561470022822L-4.493697766753766,-13.279912778123032L-1.8675036972081263,-13.276472571268961z" style="fill:rgb(105,245,171)"/><path d="M5.2557730515479655,13.378600326536452L3.8824546204827652,12.877175234455143L1.3649049406887175,13.908586952308363z" style="fill:rgb(155,11,171)"/><path d="M14.26253181976873,-0.8911869660821305L14.222395287626208,-1.466764385658286L13.05589255388786,-1.2028821769053275z" style="fill:rgb(243,137,180)"/><path d="M13.420356866048074,1.6356696028697766L13.265625794747736,4.406375146484427L13.748760604276647,3.969541866149257z" style="fill:rgb(242,102,177)"/><path d="M14.127638139892733,-2.0314118266207113L13.05589255388786,-1.2028821769053275L14.222395287626208,-1.466764385658286z" style="fill:rgb(242,140,180)"/><path d="M-8.679676420949464,11.219191222417L-5.140416291473485,13.262086255750178L-6.475495384729822,11.67825048923048z" style="fill:rgb(68,23,171)"/><path d="M14.26253181976873,-0.8911869660821305L13.05589255388786,-1.2028821769053275L14.246764972110723,-0.3264648419669347z" style="fill:rgb(243,135,180)"/><path d="M7.956209034677616,-11.450848380725258L5.753539602861672,-13.120120350855656L4.585397134632971,-12.665313001367826z" style="fill:rgb(180,230,180)"/><path d="M2.031670049500832,-13.777593621936173L-0.594933823978621,-14.355561470022822L-1.8675036972081263,-13.276472571268961z" style="fill:rgb(128,242,181)"/><path d="M2.031670049500832,-13.777593621936173L4.585397134632971,-12.665313001367826L5.753539602861672,-13.120120350855656z" style="fill:rgb(160,242,172)"/><path d="M-6.939224848041588,-12.7710952758039L-5.627223095157946,-11.66217065464049L-4.493697766753766,-13.279912778123032z" style="fill:rgb(74,231,178)"/><path d="M14.127638139892733,-2.0314118266207113L13.982243224944414,-2.563573523321475L13.05589255388786,-1.2028821769053275z" style="fill:rgb(242,142,180)"/><path d="M7.956209034677616,-11.450848380725258L9.855159095381511,-9.335704684922838L10.666939733469631,-9.324177863193977z" style="fill:rgb(206,216,173)"/><path d="M14.175755217072618,0.20578564210379896L14.246764972110723,-0.3264648419669347L13.05589255388786,-1.2028821769053275z" style="fill:rgb(243,132,181)"/><path d="M13.420356866048074,1.6356696028697766L13.748760604276647,3.969541866149257L13.666949424800492,1.413988459103336z" style="fill:rgb(242,102,177)"/><path d="M13.791507840901806,-3.0428224734576483L13.05589255388786,-1.2028821769053275L13.982243224944414,-2.563573523321475z" style="fill:rgb(241,144,181)"/><path d="M11.01802827818714,7.342778780147618L10.467133781767927,9.743223132486694L11.828621180342507,7.331563224207141z" style="fill:rgb(217,54,179)"/><path d="M-6.939224848041588,-12.7710952758039L-8.054261719300962,-11.185768401638185L-5.627223095157946,-11.66217065464049z" style="fill:rgb(74,231,178)"/><path d="M13.027241407651232,-3.994139070053435L12.495466726921595,-6.62503187998433L11.933609989292332,-6.850735939831478z" style="fill:rgb(233,173,180)"/><path d="M5.2557730515479655,13.378600326536452L7.487322018371526,11.799828930071948L6.2547622501552205,11.345211047721197z" style="fill:rgb(175,22,180)"/><path d="M14.051901355452253,0.6849549143756242L14.175755217072618,0.20578564210379896L13.05589255388786,-1.2028821769053275z" style="fill:rgb(242,130,182)"/><path d="M13.265625794747736,4.406375146484427L12.735044245219697,4.63194651463857L11.828621180342507,7.331563224207141z" style="fill:rgb(234,77,175)"/><path d="M-10.162266866516957,-10.279423573696807L-11.016721591932436,-8.365300264745086L-8.959139510900625,-9.151663995539371z" style="fill:rgb(46,210,180)"/><path d="M13.791507840901806,-3.0428224734576483L13.562803762434191,-3.451007138093155L13.05589255388786,-1.2028821769053275z" style="fill:rgb(240,146,182)"/><path d="M-10.162266866516957,-10.279423573696807L-8.959139510900625,-9.151663995539371L-8.054261719300962,-11.185768401638185z" style="fill:rgb(46,210,180)"/><path d="M10.666939733469631,-9.324177863193977L11.375412267742327,-6.856395983940984L11.933609989292332,-6.850735939831478z" style="fill:rgb(220,196,181)"/><path d="M-13.200881160935284,-5.226734350642682L-11.637922882271827,-6.102976726500143L-11.016721591932436,-8.365300264745086z" style="fill:rgb(24,185,176)"/><path d="M11.01802827818714,7.342778780147618L9.433728614559806,9.761801290787748L10.467133781767927,9.743223132486694z" style="fill:rgb(217,54,179)"/><path d="M-6.475495384729822,11.67825048923048L-5.140416291473485,13.262086255750178L-2.654496491987303,13.30369746212751z" style="fill:rgb(88,21,186)"/><path d="M14.051901355452253,0.6849549143756242L13.05589255388786,-1.2028821769053275L13.880218066331818,1.0928986657693942z" style="fill:rgb(241,128,183)"/><path d="M-9.79848154620671,9.306635243577382L-8.679676420949464,11.219191222417L-6.475495384729822,11.67825048923048z" style="fill:rgb(58,38,187)"/><path d="M10.666939733469631,-9.324177863193977L9.855159095381511,-9.335704684922838L11.375412267742327,-6.856395983940984z" style="fill:rgb(220,196,181)"/><path d="M13.420356866048074,1.6356696028697766L12.735044245219697,4.63194651463857L13.265625794747736,4.406375146484427z" style="fill:rgb(238,100,183)"/><path d="M13.562803762434191,-3.451007138093155L13.304754011790106,-3.772242060963871L13.05589255388786,-1.2028821769053275z" style="fill:rgb(239,147,184)"/><path d="M5.2557730515479655,13.378600326536452L6.2547622501552205,11.345211047721197L3.8824546204827652,12.877175234455143z" style="fill:rgb(175,22,180)"/><path d="M-13.200881160935284,-5.226734350642682L-13.528025557228062,-2.9612283814355416L-12.000750295428443,-3.5805901399802225z" style="fill:rgb(20,165,185)"/><path d="M13.880218066331818,1.0928986657693942L13.05589255388786,-1.2028821769053275L13.666949424800492,1.413988459103336z" style="fill:rgb(241,127,185)"/><path d="M13.027241407651232,-3.994139070053435L11.933609989292332,-6.850735939831478L12.740791364256166,-4.108191585760055z" style="fill:rgb(233,173,180)"/><path d="M13.027241407651232,-3.994139070053435L13.05589255388786,-1.2028821769053275L13.304754011790106,-3.772242060963871z" style="fill:rgb(238,149,186)"/><path d="M9.433728614559806,9.761801290787748L6.2547622501552205,11.345211047721197L7.487322018371526,11.799828930071948z" style="fill:rgb(194,37,188)"/><path d="M12.17736038400577,4.637121653921539L11.828621180342507,7.331563224207141L12.735044245219697,4.63194651463857z" style="fill:rgb(228,76,186)"/><path d="M7.956209034677616,-11.450848380725258L4.585397134632971,-12.665313001367826L6.965826648170027,-11.060987048196804z" style="fill:rgb(180,230,180)"/><path d="M-9.79848154620671,9.306635243577382L-10.732071607986914,7.045025180893751L-12.388273515559629,6.57937866517537z" style="fill:rgb(33,60,180)"/><path d="M-2.654496491987303,13.30369746212751L1.3649049406887175,13.908586952308363L-0.058584843162814405,12.830081791520978z" style="fill:rgb(121,11,180)"/><path d="M-5.627223095157946,-11.66217065464049L-1.8675036972081263,-13.276472571268961L-4.493697766753766,-13.279912778123032z" style="fill:rgb(95,233,190)"/><path d="M7.956209034677616,-11.450848380725258L9.079263140122569,-9.026378156535543L9.855159095381511,-9.335704684922838z" style="fill:rgb(198,214,187)"/><path d="M13.420356866048074,1.6356696028697766L13.666949424800492,1.413988459103336L13.05589255388786,-1.2028821769053275z" style="fill:rgb(240,126,187)"/><path d="M13.420356866048074,1.6356696028697766L13.149765081553603,1.7495234618002682L12.735044245219697,4.63194651463857z" style="fill:rgb(238,100,183)"/><path d="M-11.442571563607213,4.522917467539701L-13.027367060841,4.314593766434817L-12.388273515559629,6.57937866517537z" style="fill:rgb(26,79,189)"/><path d="M12.456490363722184,-4.109735156440757L12.740791364256166,-4.108191585760055L11.933609989292332,-6.850735939831478z" style="fill:rgb(230,174,187)"/><path d="M12.17736038400577,4.637121653921539L11.01802827818714,7.342778780147618L11.828621180342507,7.331563224207141z" style="fill:rgb(228,76,186)"/><path d="M2.031670049500832,-13.777593621936173L-1.8675036972081263,-13.276472571268961L0.837375542337613,-12.758791502440536z" style="fill:rgb(128,242,181)"/><path d="M12.456490363722184,-4.109735156440757L11.933609989292332,-6.850735939831478L11.375412267742327,-6.856395983940984z" style="fill:rgb(230,174,187)"/><path d="M-13.608781455804518,-0.5519677526612261L-12.000750295428443,-3.5805901399802225L-13.528025557228062,-2.9612283814355416z" style="fill:rgb(18,144,192)"/><path d="M13.027241407651232,-3.994139070053435L12.740791364256166,-4.108191585760055L13.05589255388786,-1.2028821769053275z" style="fill:rgb(237,149,188)"/><path d="M-13.200881160935284,-5.226734350642682L-12.000750295428443,-3.5805901399802225L-11.637922882271827,-6.102976726500143z" style="fill:rgb(20,165,185)"/><path d="M7.956209034677616,-11.450848380725258L6.965826648170027,-11.060987048196804L9.079263140122569,-9.026378156535543z" style="fill:rgb(198,214,187)"/><path d="M13.420356866048074,1.6356696028697766L13.05589255388786,-1.2028821769053275L13.149765081553603,1.7495234618002682z" style="fill:rgb(238,125,189)"/><path d="M2.031670049500832,-13.777593621936173L3.514749504876881,-11.74571307592475L4.585397134632971,-12.665313001367826z" style="fill:rgb(150,235,190)"/><path d="M-11.637922882271827,-6.102976726500143L-8.959139510900625,-9.151663995539371L-11.016721591932436,-8.365300264745086z" style="fill:rgb(40,192,194)"/><path d="M13.149765081553603,1.7495234618002682L12.17736038400577,4.637121653921539L12.735044245219697,4.63194651463857z" style="fill:rgb(235,100,189)"/><path d="M2.545555362433929,11.858184887850092L1.3649049406887175,13.908586952308363L3.8824546204827652,12.877175234455143z" style="fill:rgb(143,17,190)"/><path d="M-13.439657115873448,1.905728235274918L-13.027367060841,4.314593766434817L-11.442571563607213,4.522917467539701z" style="fill:rgb(22,100,193)"/><path d="M-8.959139510900625,-9.151663995539371L-5.627223095157946,-11.66217065464049L-8.054261719300962,-11.185768401638185z" style="fill:rgb(65,215,195)"/><path d="M10.842404506959923,-6.641083972690014L11.375412267742327,-6.856395983940984L9.855159095381511,-9.335704684922838z" style="fill:rgb(214,195,191)"/><path d="M12.456490363722184,-4.109735156440757L13.05589255388786,-1.2028821769053275L12.740791364256166,-4.108191585760055z" style="fill:rgb(236,150,190)"/><path d="M11.01802827818714,7.342778780147618L8.388378106901683,9.371328229525986L9.433728614559806,9.761801290787748z" style="fill:rgb(209,55,193)"/><path d="M-13.608781455804518,-0.5519677526612261L-13.439657115873448,1.905728235274918L-11.901438339755707,1.8398985810054225z" style="fill:rgb(19,122,194)"/><path d="M-11.442571563607213,4.522917467539701L-12.388273515559629,6.57937866517537L-10.732071607986914,7.045025180893751z" style="fill:rgb(26,79,189)"/><path d="M-6.475495384729822,11.67825048923048L-2.654496491987303,13.30369746212751L-4.012873069410978,11.686389217780269z" style="fill:rgb(88,21,186)"/><path d="M13.149765081553603,1.7495234618002682L13.05589255388786,-1.2028821769053275L12.865706219520867,1.750860265992794z" style="fill:rgb(237,125,191)"/><path d="M-9.79848154620671,9.306635243577382L-6.475495384729822,11.67825048923048L-7.662072997107734,9.644615145880646z" style="fill:rgb(58,38,187)"/><path d="M13.149765081553603,1.7495234618002682L12.865706219520867,1.750860265992794L12.17736038400577,4.637121653921539z" style="fill:rgb(235,100,189)"/><path d="M2.545555362433929,11.858184887850092L-0.058584843162814405,12.830081791520978L1.3649049406887175,13.908586952308363z" style="fill:rgb(143,17,190)"/><path d="M2.031670049500832,-13.777593621936173L0.837375542337613,-12.758791502440536L3.514749504876881,-11.74571307592475z" style="fill:rgb(150,235,190)"/><path d="M9.433728614559806,9.761801290787748L8.388378106901683,9.371328229525986L6.2547622501552205,11.345211047721197z" style="fill:rgb(194,37,188)"/><path d="M10.842404506959923,-6.641083972690014L9.855159095381511,-9.335704684922838L9.079263140122569,-9.026378156535543z" style="fill:rgb(214,195,191)"/><path d="M12.456490363722184,-4.109735156440757L11.375412267742327,-6.856395983940984L10.842404506959923,-6.641083972690014z" style="fill:rgb(226,173,193)"/><path d="M12.456490363722184,-4.109735156440757L12.18534939195469,-3.9984710784159914L13.05589255388786,-1.2028821769053275z" style="fill:rgb(234,149,192)"/><path d="M12.578845219971248,1.6393618768998262L12.865706219520867,1.750860265992794L13.05589255388786,-1.2028821769053275z" style="fill:rgb(236,125,193)"/><path d="M12.17736038400577,4.637121653921539L10.198496067836853,7.032795364923717L11.01802827818714,7.342778780147618z" style="fill:rgb(222,77,196)"/><path d="M12.578845219971248,1.6393618768998262L12.17736038400577,4.637121653921539L12.865706219520867,1.750860265992794z" style="fill:rgb(231,100,196)"/><path d="M12.456490363722184,-4.109735156440757L10.842404506959923,-6.641083972690014L12.18534939195469,-3.9984710784159914z" style="fill:rgb(226,173,193)"/><path d="M6.058805907607107,-10.27585569618928L6.965826648170027,-11.060987048196804L4.585397134632971,-12.665313001367826z" style="fill:rgb(171,224,196)"/><path d="M-5.627223095157946,-11.66217065464049L-2.975078102143162,-11.687630076084384L-1.8675036972081263,-13.276472571268961z" style="fill:rgb(95,233,190)"/><path d="M11.937673619846219,-3.7788734620808673L13.05589255388786,-1.2028821769053275L12.18534939195469,-3.9984710784159914z" style="fill:rgb(233,149,194)"/><path d="M-13.608781455804518,-0.5519677526612261L-12.089860508227174,-0.8975713126409068L-12.000750295428443,-3.5805901399802225z" style="fill:rgb(18,144,192)"/><path d="M11.01802827818714,7.342778780147618L10.198496067836853,7.032795364923717L8.388378106901683,9.371328229525986z" style="fill:rgb(209,55,193)"/><path d="M5.055225706576685,10.424513524306358L3.8824546204827652,12.877175234455143L6.2547622501552205,11.345211047721197z" style="fill:rgb(164,28,198)"/><path d="M12.578845219971248,1.6393618768998262L13.05589255388786,-1.2028821769053275L12.300439375837522,1.4193671894698596z" style="fill:rgb(235,126,195)"/><path d="M12.578845219971248,1.6393618768998262L11.613919241308627,4.420990904733429L12.17736038400577,4.637121653921539z" style="fill:rgb(231,100,196)"/><path d="M-13.439657115873448,1.905728235274918L-11.442571563607213,4.522917467539701L-11.901438339755707,1.8398985810054225z" style="fill:rgb(22,100,193)"/><path d="M10.842404506959923,-6.641083972690014L11.937673619846219,-3.7788734620808673L12.18534939195469,-3.9984710784159914z" style="fill:rgb(223,171,199)"/><path d="M-1.387419848764544,11.240961570726615L-2.654496491987303,13.30369746212751L-0.058584843162814405,12.830081791520978z" style="fill:rgb(110,23,198)"/><path d="M-13.608781455804518,-0.5519677526612261L-11.901438339755707,1.8398985810054225L-12.089860508227174,-0.8975713126409068z" style="fill:rgb(19,122,194)"/><path d="M-9.79848154620671,9.306635243577382L-8.65234571774042,7.239336675770544L-10.732071607986914,7.045025180893751z" style="fill:rgb(49,56,199)"/><path d="M11.937673619846219,-3.7788734620808673L11.723063662503675,-3.4589811459790423L13.05589255388786,-1.2028821769053275z" style="fill:rgb(232,147,196)"/><path d="M12.17736038400577,4.637121653921539L11.613919241308627,4.420990904733429L10.198496067836853,7.032795364923717z" style="fill:rgb(222,77,196)"/><path d="M6.058805907607107,-10.27585569618928L4.585397134632971,-12.665313001367826L3.514749504876881,-11.74571307592475z" style="fill:rgb(171,224,196)"/><path d="M8.369343639218743,-8.40678870639222L9.079263140122569,-9.026378156535543L6.965826648170027,-11.060987048196804z" style="fill:rgb(191,210,200)"/><path d="M-11.637922882271827,-6.102976726500143L-9.61707570405164,-6.74623263058034L-8.959139510900625,-9.151663995539371z" style="fill:rgb(40,192,194)"/><path d="M-0.20175821339772082,-11.259778858244838L0.837375542337613,-12.758791502440536L-1.8675036972081263,-13.276472571268961z" style="fill:rgb(118,231,200)"/><path d="M12.300439375837522,1.4193671894698596L13.05589255388786,-1.2028821769053275L12.041042136053168,1.0990298164005339z" style="fill:rgb(234,127,197)"/><path d="M-1.387419848764544,11.240961570726615L-4.012873069410978,11.686389217780269L-2.654496491987303,13.30369746212751z" style="fill:rgb(110,23,198)"/><path d="M-8.959139510900625,-9.151663995539371L-6.546886641795757,-9.585628625493547L-5.627223095157946,-11.66217065464049z" style="fill:rgb(65,215,195)"/><path d="M10.842404506959923,-6.641083972690014L9.079263140122569,-9.026378156535543L8.369343639218743,-8.40678870639222z" style="fill:rgb(208,191,201)"/><path d="M-9.79848154620671,9.306635243577382L-7.662072997107734,9.644615145880646L-8.65234571774042,7.239336675770544z" style="fill:rgb(49,56,199)"/><path d="M5.055225706576685,10.424513524306358L2.545555362433929,11.858184887850092L3.8824546204827652,12.877175234455143z" style="fill:rgb(164,28,198)"/><path d="M11.549983733172208,-3.051166429462634L13.05589255388786,-1.2028821769053275L11.723063662503675,-3.4589811459790423z" style="fill:rgb(231,146,198)"/><path d="M10.842404506959923,-6.641083972690014L10.354996387623514,-6.212322196547031L11.937673619846219,-3.7788734620808673z" style="fill:rgb(223,171,199)"/><path d="M5.055225706576685,10.424513524306358L6.2547622501552205,11.345211047721197L8.388378106901683,9.371328229525986z" style="fill:rgb(184,42,204)"/><path d="M11.811050540600839,0.6907782490549935L12.041042136053168,1.0990298164005339L13.05589255388786,-1.2028821769053275z" style="fill:rgb(233,128,198)"/><path d="M-0.20175821339772082,-11.259778858244838L-1.8675036972081263,-13.276472571268961L-2.975078102143162,-11.687630076084384z" style="fill:rgb(118,231,200)"/><path d="M-6.475495384729822,11.67825048923048L-4.012873069410978,11.686389217780269L-5.220546960685668,9.609504881487824z" style="fill:rgb(77,37,202)"/><path d="M8.369343639218743,-8.40678870639222L6.965826648170027,-11.060987048196804L6.058805907607107,-10.27585569618928z" style="fill:rgb(191,210,200)"/><path d="M-6.475495384729822,11.67825048923048L-5.220546960685668,9.609504881487824L-7.662072997107734,9.644615145880646z" style="fill:rgb(77,37,202)"/><path d="M12.578845219971248,1.6393618768998262L11.066565792849223,3.991553642557419L11.613919241308627,4.420990904733429z" style="fill:rgb(227,102,202)"/><path d="M11.424890546647646,-2.571037757134781L13.05589255388786,-1.2028821769053275L11.549983733172208,-3.051166429462634z" style="fill:rgb(231,144,199)"/><path d="M12.578845219971248,1.6393618768998262L12.300439375837522,1.4193671894698596L11.066565792849223,3.991553642557419z" style="fill:rgb(227,102,202)"/><path d="M-11.637922882271827,-6.102976726500143L-12.000750295428443,-3.5805901399802225L-10.000839822894918,-4.063810202620198z" style="fill:rgb(35,171,204)"/><path d="M-6.546886641795757,-9.585628625493547L-2.975078102143162,-11.687630076084384L-5.627223095157946,-11.66217065464049z" style="fill:rgb(87,217,207)"/><path d="M11.811050540600839,0.6907782490549935L13.05589255388786,-1.2028821769053275L11.618972624222604,0.21033251599267122z" style="fill:rgb(232,130,200)"/><path d="M10.842404506959923,-6.641083972690014L8.369343639218743,-8.40678870639222L10.354996387623514,-6.212322196547031z" style="fill:rgb(208,191,201)"/><path d="M-11.442571563607213,4.522917467539701L-10.732071607986914,7.045025180893751L-8.65234571774042,7.239336675770544z" style="fill:rgb(42,77,208)"/><path d="M11.424890546647646,-2.571037757134781L11.352880175424813,-2.0369464598306672L13.05589255388786,-1.2028821769053275z" style="fill:rgb(230,142,200)"/><path d="M-0.20175821339772082,-11.259778858244838L3.514749504876881,-11.74571307592475L0.837375542337613,-12.758791502440536z" style="fill:rgb(141,225,207)"/><path d="M9.401685782343758,6.412114627101302L8.388378106901683,9.371328229525986L10.198496067836853,7.032795364923717z" style="fill:rgb(201,60,206)"/><path d="M11.618972624222604,0.21033251599267122L13.05589255388786,-1.2028821769053275L11.472495968671252,-0.32391325911699237z" style="fill:rgb(231,132,201)"/><path d="M2.545555362433929,11.858184887850092L-1.387419848764544,11.240961570726615L-0.058584843162814405,12.830081791520978z" style="fill:rgb(132,29,208)"/><path d="M11.336810118712991,-1.4696083402122286L13.05589255388786,-1.2028821769053275L11.352880175424813,-2.0369464598306672z" style="fill:rgb(230,140,201)"/><path d="M9.401685782343758,6.412114627101302L10.198496067836853,7.032795364923717L11.613919241308627,4.420990904733429z" style="fill:rgb(216,80,205)"/><path d="M11.37708009896332,-0.8912132055185149L11.472495968671252,-0.32391325911699237L13.05589255388786,-1.2028821769053275z" style="fill:rgb(230,135,201)"/><path d="M11.937673619846219,-3.7788734620808673L9.932352477407782,-5.586135519113528L11.723063662503675,-3.4589811459790423z" style="fill:rgb(220,167,205)"/><path d="M11.336810118712991,-1.4696083402122286L11.37708009896332,-0.8912132055185149L13.05589255388786,-1.2028821769053275z" style="fill:rgb(230,137,201)"/><path d="M11.937673619846219,-3.7788734620808673L10.354996387623514,-6.212322196547031L9.932352477407782,-5.586135519113528z" style="fill:rgb(220,167,205)"/><path d="M-11.637922882271827,-6.102976726500143L-10.000839822894918,-4.063810202620198L-9.61707570405164,-6.74623263058034z" style="fill:rgb(35,171,204)"/><path d="M12.300439375837522,1.4193671894698596L12.041042136053168,1.0990298164005339L10.55634665196256,3.3645901130333167z" style="fill:rgb(224,106,207)"/><path d="M9.401685782343758,6.412114627101302L11.613919241308627,4.420990904733429L11.066565792849223,3.991553642557419z" style="fill:rgb(216,80,205)"/><path d="M-12.089860508227174,-0.8975713126409068L-10.000839822894918,-4.063810202620198L-12.000750295428443,-3.5805901399802225z" style="fill:rgb(34,148,211)"/><path d="M11.549983733172208,-3.051166429462634L11.723063662503675,-3.4589811459790423L9.932352477407782,-5.586135519113528z" style="fill:rgb(217,163,210)"/><path d="M5.055225706576685,10.424513524306358L8.388378106901683,9.371328229525986L7.371151103575758,8.585138866475305z" style="fill:rgb(184,42,204)"/><path d="M9.401685782343758,6.412114627101302L7.371151103575758,8.585138866475305L8.388378106901683,9.371328229525986z" style="fill:rgb(201,60,206)"/><path d="M12.300439375837522,1.4193671894698596L10.55634665196256,3.3645901130333167L11.066565792849223,3.991553642557419z" style="fill:rgb(224,106,207)"/><path d="M-8.959139510900625,-9.151663995539371L-9.61707570405164,-6.74623263058034L-7.2152838595867665,-7.129901410905349z" style="fill:rgb(58,196,209)"/><path d="M11.811050540600839,0.6907782490549935L10.55634665196256,3.3645901130333167L12.041042136053168,1.0990298164005339z" style="fill:rgb(221,110,212)"/><path d="M2.583741741978443,-10.394083823660992L6.058805907607107,-10.27585569618928L3.514749504876881,-11.74571307592475z" style="fill:rgb(163,215,212)"/><path d="M-8.959139510900625,-9.151663995539371L-7.2152838595867665,-7.129901410905349L-6.546886641795757,-9.585628625493547z" style="fill:rgb(58,196,209)"/><path d="M7.75300935570361,-7.499845719942688L10.354996387623514,-6.212322196547031L8.369343639218743,-8.40678870639222z" style="fill:rgb(204,186,210)"/><path d="M-11.442571563607213,4.522917467539701L-9.893864796954421,1.7024271836897427L-11.901438339755707,1.8398985810054225z" style="fill:rgb(37,100,213)"/><path d="M7.75300935570361,-7.499845719942688L8.369343639218743,-8.40678870639222L6.058805907607107,-10.27585569618928z" style="fill:rgb(185,202,213)"/><path d="M-8.65234571774042,7.239336675770544L-7.662072997107734,9.644615145880646L-5.220546960685668,9.609504881487824z" style="fill:rgb(68,56,215)"/><path d="M-12.089860508227174,-0.8975713126409068L-11.901438339755707,1.8398985810054225L-9.893864796954421,1.7024271836897427z" style="fill:rgb(34,124,214)"/><path d="M11.424890546647646,-2.571037757134781L11.549983733172208,-3.051166429462634L9.590968289577672,-4.786470980312383z" style="fill:rgb(215,157,214)"/><path d="M-0.20175821339772082,-11.259778858244838L2.583741741978443,-10.394083823660992L3.514749504876881,-11.74571307592475z" style="fill:rgb(141,225,207)"/><path d="M7.75300935570361,-7.499845719942688L9.932352477407782,-5.586135519113528L10.354996387623514,-6.212322196547031z" style="fill:rgb(204,186,210)"/><path d="M5.055225706576685,10.424513524306358L1.2974631190714105,10.358042524400647L2.545555362433929,11.858184887850092z" style="fill:rgb(154,38,215)"/><path d="M9.401685782343758,6.412114627101302L11.066565792849223,3.991553642557419L10.55634665196256,3.3645901130333167z" style="fill:rgb(211,86,214)"/><path d="M-11.442571563607213,4.522917467539701L-8.65234571774042,7.239336675770544L-9.406498405844767,4.556502086537987z" style="fill:rgb(42,77,208)"/><path d="M-6.546886641795757,-9.585628625493547L-3.873421237100176,-9.648636756381682L-2.975078102143162,-11.687630076084384z" style="fill:rgb(87,217,207)"/><path d="M11.549983733172208,-3.051166429462634L9.932352477407782,-5.586135519113528L9.590968289577672,-4.786470980312383z" style="fill:rgb(217,163,210)"/><path d="M2.545555362433929,11.858184887850092L1.2974631190714105,10.358042524400647L-1.387419848764544,11.240961570726615z" style="fill:rgb(132,29,208)"/><path d="M-0.20175821339772082,-11.259778858244838L-2.975078102143162,-11.687630076084384L-3.873421237100176,-9.648636756381682z" style="fill:rgb(110,216,217)"/><path d="M-2.5690373157987954,9.20081767478306L-4.012873069410978,11.686389217780269L-1.387419848764544,11.240961570726615z" style="fill:rgb(99,38,214)"/><path d="M11.811050540600839,0.6907782490549935L11.618972624222604,0.21033251599267122L9.725034679388445,1.6208509855579007z" style="fill:rgb(218,116,216)"/><path d="M11.811050540600839,0.6907782490549935L10.10328231755067,2.564122794337177L10.55634665196256,3.3645901130333167z" style="fill:rgb(221,110,212)"/><path d="M7.75300935570361,-7.499845719942688L6.058805907607107,-10.27585569618928L5.270789911758977,-9.123943532243585z" style="fill:rgb(185,202,213)"/><path d="M2.583741741978443,-10.394083823660992L5.270789911758977,-9.123943532243585L6.058805907607107,-10.27585569618928z" style="fill:rgb(163,215,212)"/><path d="M-12.089860508227174,-0.8975713126409068L-10.094533788776385,-1.209754108474271L-10.000839822894918,-4.063810202620198z" style="fill:rgb(34,148,211)"/><path d="M-2.5690373157987954,9.20081767478306L-5.220546960685668,9.609504881487824L-4.012873069410978,11.686389217780269z" style="fill:rgb(99,38,214)"/><path d="M11.424890546647646,-2.571037757134781L9.201891696905658,-2.79504799995333L11.352880175424813,-2.0369464598306672z" style="fill:rgb(214,151,217)"/><path d="M-11.442571563607213,4.522917467539701L-9.406498405844767,4.556502086537987L-9.893864796954421,1.7024271836897427z" style="fill:rgb(37,100,213)"/><path d="M7.75300935570361,-7.499845719942688L9.590968289577672,-4.786470980312383L9.932352477407782,-5.586135519113528z" style="fill:rgb(200,178,218)"/><path d="M5.055225706576685,10.424513524306358L7.371151103575758,8.585138866475305L6.422227385855698,7.431756881419363z" style="fill:rgb(175,52,218)"/><path d="M11.618972624222604,0.21033251599267122L11.472495968671252,-0.32391325911699237L9.436541068193367,0.5714682704462256z" style="fill:rgb(216,122,218)"/><path d="M-10.000839822894918,-4.063810202620198L-7.2152838595867665,-7.129901410905349L-9.61707570405164,-6.74623263058034z" style="fill:rgb(54,174,220)"/><path d="M9.401685782343758,6.412114627101302L10.55634665196256,3.3645901130333167L8.658532567541204,5.503856014939514z" style="fill:rgb(211,86,214)"/><path d="M11.424890546647646,-2.571037757134781L9.590968289577672,-4.786470980312383L9.344199559634976,-3.8440188725930753z" style="fill:rgb(215,157,214)"/><path d="M9.401685782343758,6.412114627101302L6.422227385855698,7.431756881419363L7.371151103575758,8.585138866475305z" style="fill:rgb(194,68,218)"/><path d="M-12.089860508227174,-0.8975713126409068L-9.893864796954421,1.7024271836897427L-10.094533788776385,-1.209754108474271z" style="fill:rgb(34,124,214)"/><path d="M9.436541068193367,0.5714682704462256L11.472495968671252,-0.32391325911699237L11.37708009896332,-0.8912132055185149z" style="fill:rgb(214,129,220)"/><path d="M9.169685996618064,-1.6803769421107184L11.336810118712991,-1.4696083402122286L11.352880175424813,-2.0369464598306672z" style="fill:rgb(213,144,219)"/><path d="M9.169685996618064,-1.6803769421107184L11.37708009896332,-0.8912132055185149L11.336810118712991,-1.4696083402122286z" style="fill:rgb(214,137,220)"/><path d="M11.811050540600839,0.6907782490549935L9.725034679388445,1.6208509855579007L10.10328231755067,2.564122794337177z" style="fill:rgb(218,116,216)"/><path d="M5.055225706576685,10.424513524306358L3.935632607159062,9.071519875094085L1.2974631190714105,10.358042524400647z" style="fill:rgb(154,38,215)"/><path d="M-8.65234571774042,7.239336675770544L-5.220546960685668,9.609504881487824L-6.228745845586415,7.152989543996107z" style="fill:rgb(68,56,215)"/><path d="M11.424890546647646,-2.571037757134781L9.344199559634976,-3.8440188725930753L9.201891696905658,-2.79504799995333z" style="fill:rgb(214,151,217)"/><path d="M9.401685782343758,6.412114627101302L8.658532567541204,5.503856014939514L6.422227385855698,7.431756881419363z" style="fill:rgb(194,68,218)"/><path d="M5.055225706576685,10.424513524306358L6.422227385855698,7.431756881419363L3.935632607159062,9.071519875094085z" style="fill:rgb(175,52,218)"/><path d="M-2.5690373157987954,9.20081767478306L-1.387419848764544,11.240961570726615L1.2974631190714105,10.358042524400647z" style="fill:rgb(121,44,223)"/><path d="M7.75300935570361,-7.499845719942688L7.254770143047361,-6.339810814631795L9.590968289577672,-4.786470980312383z" style="fill:rgb(200,178,218)"/><path d="M-0.20175821339772082,-11.259778858244838L-3.873421237100176,-9.648636756381682L-1.0439292602061019,-9.336619413094907z" style="fill:rgb(110,216,217)"/><path d="M11.618972624222604,0.21033251599267122L9.436541068193367,0.5714682704462256L9.725034679388445,1.6208509855579007z" style="fill:rgb(216,122,218)"/><path d="M-0.20175821339772082,-11.259778858244838L1.829611458005768,-8.661283214611506L2.583741741978443,-10.394083823660992z" style="fill:rgb(133,211,223)"/><path d="M-4.52600769508327,-7.237128173939069L-3.873421237100176,-9.648636756381682L-6.546886641795757,-9.585628625493547z" style="fill:rgb(80,198,222)"/><path d="M7.998425231698182,4.342512822587967L10.55634665196256,3.3645901130333167L10.10328231755067,2.564122794337177z" style="fill:rgb(205,93,222)"/><path d="M9.169685996618064,-1.6803769421107184L11.352880175424813,-2.0369464598306672L9.201891696905658,-2.79504799995333z" style="fill:rgb(213,144,219)"/><path d="M-4.52600769508327,-7.237128173939069L-6.546886641795757,-9.585628625493547L-7.2152838595867665,-7.129901410905349z" style="fill:rgb(80,198,222)"/><path d="M7.998425231698182,4.342512822587967L8.658532567541204,5.503856014939514L10.55634665196256,3.3645901130333167z" style="fill:rgb(205,93,222)"/><path d="M7.75300935570361,-7.499845719942688L5.270789911758977,-9.123943532243585L4.6330470634427225,-7.648931745891878z" style="fill:rgb(179,192,224)"/><path d="M-6.996769470301741,4.413134935204526L-9.406498405844767,4.556502086537987L-8.65234571774042,7.239336675770544z" style="fill:rgb(61,78,224)"/><path d="M9.436541068193367,0.5714682704462256L11.37708009896332,-0.8912132055185149L9.248992654673874,-0.5434317887340826z" style="fill:rgb(214,129,220)"/><path d="M2.583741741978443,-10.394083823660992L4.6330470634427225,-7.648931745891878L5.270789911758977,-9.123943532243585z" style="fill:rgb(157,203,225)"/><path d="M9.169685996618064,-1.6803769421107184L9.248992654673874,-0.5434317887340826L11.37708009896332,-0.8912132055185149z" style="fill:rgb(214,137,220)"/><path d="M-2.5690373157987954,9.20081767478306L-6.228745845586415,7.152989543996107L-5.220546960685668,9.609504881487824z" style="fill:rgb(90,58,227)"/><path d="M-10.000839822894918,-4.063810202620198L-7.604773043855805,-4.390617763996397L-7.2152838595867665,-7.129901410905349z" style="fill:rgb(54,174,220)"/><path d="M-0.20175821339772082,-11.259778858244838L-1.0439292602061019,-9.336619413094907L1.829611458005768,-8.661283214611506z" style="fill:rgb(133,211,223)"/><path d="M6.894212358849576,-4.971059219569565L9.344199559634976,-3.8440188725930753L9.590968289577672,-4.786470980312383z" style="fill:rgb(196,169,225)"/><path d="M7.75300935570361,-7.499845719942688L4.6330470634427225,-7.648931745891878L7.254770143047361,-6.339810814631795z" style="fill:rgb(179,192,224)"/><path d="M9.725034679388445,1.6208509855579007L7.998425231698182,4.342512822587967L10.10328231755067,2.564122794337177z" style="fill:rgb(201,102,228)"/><path d="M-6.996769470301741,4.413134935204526L-8.65234571774042,7.239336675770544L-6.228745845586415,7.152989543996107z" style="fill:rgb(61,78,224)"/><path d="M7.998425231698182,4.342512822587967L6.422227385855698,7.431756881419363L8.658532567541204,5.503856014939514z" style="fill:rgb(187,78,228)"/><path d="M-10.000839822894918,-4.063810202620198L-10.094533788776385,-1.209754108474271L-7.698928789440487,-1.4759436860894735z" style="fill:rgb(52,151,227)"/><path d="M6.894212358849576,-4.971059219569565L9.590968289577672,-4.786470980312383L7.254770143047361,-6.339810814631795z" style="fill:rgb(196,169,225)"/><path d="M-6.996769470301741,4.413134935204526L-9.893864796954421,1.7024271836897427L-9.406498405844767,4.556502086537987z" style="fill:rgb(56,101,229)"/><path d="M2.583741741978443,-10.394083823660992L1.829611458005768,-8.661283214611506L4.6330470634427225,-7.648931745891878z" style="fill:rgb(157,203,225)"/><path d="M-2.5690373157987954,9.20081767478306L1.2974631190714105,10.358042524400647L0.1876056035238079,8.43346320599045z" style="fill:rgb(121,44,223)"/><path d="M2.9401469152329,7.337005693748893L1.2974631190714105,10.358042524400647L3.935632607159062,9.071519875094085z" style="fill:rgb(144,52,229)"/><path d="M-1.0439292602061019,-9.336619413094907L-3.873421237100176,-9.648636756381682L-4.52600769508327,-7.237128173939069z" style="fill:rgb(103,197,231)"/><path d="M6.894212358849576,-4.971059219569565L9.201891696905658,-2.79504799995333L9.344199559634976,-3.8440188725930753z" style="fill:rgb(194,159,230)"/><path d="M-7.493695466813707,1.498043435643281L-10.094533788776385,-1.209754108474271L-9.893864796954421,1.7024271836897427z" style="fill:rgb(53,126,231)"/><path d="M2.9401469152329,7.337005693748893L3.935632607159062,9.071519875094085L6.422227385855698,7.431756881419363z" style="fill:rgb(166,64,230)"/><path d="M-10.000839822894918,-4.063810202620198L-7.698928789440487,-1.4759436860894735L-7.604773043855805,-4.390617763996397z" style="fill:rgb(52,151,227)"/><path d="M-4.52600769508327,-7.237128173939069L-7.2152838595867665,-7.129901410905349L-7.604773043855805,-4.390617763996397z" style="fill:rgb(76,176,233)"/><path d="M7.998425231698182,4.342512822587967L5.578783217447337,5.954947785817143L6.422227385855698,7.431756881419363z" style="fill:rgb(187,78,228)"/><path d="M6.894212358849576,-4.971059219569565L7.254770143047361,-6.339810814631795L4.6330470634427225,-7.648931745891878z" style="fill:rgb(175,180,233)"/><path d="M9.725034679388445,1.6208509855579007L7.447085568777653,2.9726352341563467L7.998425231698182,4.342512822587967z" style="fill:rgb(201,102,228)"/><path d="M2.9401469152329,7.337005693748893L0.1876056035238079,8.43346320599045L1.2974631190714105,10.358042524400647z" style="fill:rgb(144,52,229)"/><path d="M-2.5690373157987954,9.20081767478306L-3.5558280268376863,6.7880593505667015L-6.228745845586415,7.152989543996107z" style="fill:rgb(90,58,227)"/><path d="M9.725034679388445,1.6208509855579007L9.436541068193367,0.5714682704462256L7.0264397114670185,1.4474556841576838z" style="fill:rgb(198,113,232)"/><path d="M9.169685996618064,-1.6803769421107184L9.201891696905658,-2.79504799995333L6.685888904699442,-3.4468656539346623z" style="fill:rgb(193,148,234)"/><path d="M-6.996769470301741,4.413134935204526L-7.493695466813707,1.498043435643281L-9.893864796954421,1.7024271836897427z" style="fill:rgb(56,101,229)"/><path d="M7.0264397114670185,1.4474556841576838L9.436541068193367,0.5714682704462256L9.248992654673874,-0.5434317887340826z" style="fill:rgb(195,124,235)"/><path d="M2.9401469152329,7.337005693748893L6.422227385855698,7.431756881419363L5.578783217447337,5.954947785817143z" style="fill:rgb(166,64,230)"/><path d="M-7.493695466813707,1.498043435643281L-7.698928789440487,-1.4759436860894735L-10.094533788776385,-1.209754108474271z" style="fill:rgb(53,126,231)"/><path d="M6.894212358849576,-4.971059219569565L6.685888904699442,-3.4468656539346623L9.201891696905658,-2.79504799995333z" style="fill:rgb(194,159,230)"/><path d="M9.169685996618064,-1.6803769421107184L6.753332721906679,-0.17337741798878673L9.248992654673874,-0.5434317887340826z" style="fill:rgb(194,136,235)"/><path d="M-3.5558280268376863,6.7880593505667015L-6.996769470301741,4.413134935204526L-6.228745845586415,7.152989543996107z" style="fill:rgb(82,79,237)"/><path d="M9.725034679388445,1.6208509855579007L7.0264397114670185,1.4474556841576838L7.447085568777653,2.9726352341563467z" style="fill:rgb(198,113,232)"/><path d="M-1.0439292602061019,-9.336619413094907L-4.52600769508327,-7.237128173939069L-1.6552688757514016,-7.062958050337769z" style="fill:rgb(103,197,231)"/><path d="M1.282929986145176,-6.61370870700164L1.829611458005768,-8.661283214611506L-1.0439292602061019,-9.336619413094907z" style="fill:rgb(127,194,235)"/><path d="M4.171108572858068,-5.9068664204988135L4.6330470634427225,-7.648931745891878L1.829611458005768,-8.661283214611506z" style="fill:rgb(152,188,236)"/><path d="M6.894212358849576,-4.971059219569565L4.6330470634427225,-7.648931745891878L4.171108572858068,-5.9068664204988135z" style="fill:rgb(175,180,233)"/><path d="M-2.5690373157987954,9.20081767478306L0.1876056035238079,8.43346320599045L-0.7392496996217043,6.15809496794571z" style="fill:rgb(113,62,236)"/><path d="M-4.52600769508327,-7.237128173939069L-7.604773043855805,-4.390617763996397L-4.90571702277855,-4.547373241359344z" style="fill:rgb(76,176,233)"/><path d="M9.169685996618064,-1.6803769421107184L6.685888904699442,-3.4468656539346623L6.638354087228368,-1.8264744003101332z" style="fill:rgb(193,148,234)"/><path d="M7.998425231698182,4.342512822587967L4.874292784148234,4.211469133314733L5.578783217447337,5.954947785817143z" style="fill:rgb(181,90,236)"/><path d="M-2.5690373157987954,9.20081767478306L-0.7392496996217043,6.15809496794571L-3.5558280268376863,6.7880593505667015z" style="fill:rgb(113,62,236)"/><path d="M7.998425231698182,4.342512822587967L7.447085568777653,2.9726352341563467L4.874292784148234,4.211469133314733z" style="fill:rgb(181,90,236)"/><path d="M1.282929986145176,-6.61370870700164L-1.0439292602061019,-9.336619413094907L-1.6552688757514016,-7.062958050337769z" style="fill:rgb(127,194,235)"/><path d="M7.0264397114670185,1.4474556841576838L9.248992654673874,-0.5434317887340826L6.753332721906679,-0.17337741798878673z" style="fill:rgb(195,124,235)"/><path d="M9.169685996618064,-1.6803769421107184L6.638354087228368,-1.8264744003101332L6.753332721906679,-0.17337741798878673z" style="fill:rgb(194,136,235)"/><path d="M4.171108572858068,-5.9068664204988135L1.829611458005768,-8.661283214611506L1.282929986145176,-6.61370870700164z" style="fill:rgb(152,188,236)"/><path d="M-0.7392496996217043,6.15809496794571L0.1876056035238079,8.43346320599045L2.9401469152329,7.337005693748893z" style="fill:rgb(136,69,240)"/><path d="M2.9401469152329,7.337005693748893L5.578783217447337,5.954947785817143L4.874292784148234,4.211469133314733z" style="fill:rgb(159,79,241)"/><path d="M-4.996599857755494,-1.6856395051001887L-7.604773043855805,-4.390617763996397L-7.698928789440487,-1.4759436860894735z" style="fill:rgb(74,153,240)"/><path d="M-3.5558280268376863,6.7880593505667015L-4.307800100850621,4.09725674019039L-6.996769470301741,4.413134935204526z" style="fill:rgb(82,79,237)"/><path d="M6.894212358849576,-4.971059219569565L3.9037125159210873,-3.965826214396022L6.685888904699442,-3.4468656539346623z" style="fill:rgb(172,166,240)"/><path d="M7.0264397114670185,1.4474556841576838L4.874292784148234,4.211469133314733L7.447085568777653,2.9726352341563467z" style="fill:rgb(176,104,242)"/><path d="M6.894212358849576,-4.971059219569565L4.171108572858068,-5.9068664204988135L3.9037125159210873,-3.965826214396022z" style="fill:rgb(172,166,240)"/><path d="M-4.7946880588279015,1.2348657174691144L-7.493695466813707,1.498043435643281L-6.996769470301741,4.413134935204526z" style="fill:rgb(77,103,242)"/><path d="M-2.010301888831913,-4.527443460424147L-1.6552688757514016,-7.062958050337769L-4.52600769508327,-7.237128173939069z" style="fill:rgb(99,176,241)"/><path d="M-4.996599857755494,-1.6856395051001887L-4.90571702277855,-4.547373241359344L-7.604773043855805,-4.390617763996397z" style="fill:rgb(74,153,240)"/><path d="M-4.7946880588279015,1.2348657174691144L-7.698928789440487,-1.4759436860894735L-7.493695466813707,1.498043435643281z" style="fill:rgb(74,128,243)"/><path d="M-2.010301888831913,-4.527443460424147L-4.52600769508327,-7.237128173939069L-4.90571702277855,-4.547373241359344z" style="fill:rgb(99,176,241)"/><path d="M2.9401469152329,7.337005693748893L4.874292784148234,4.211469133314733L2.1087656402075488,5.287800193838229z" style="fill:rgb(159,79,241)"/><path d="M3.9037125159210873,-3.965826214396022L6.638354087228368,-1.8264744003101332L6.685888904699442,-3.4468656539346623z" style="fill:rgb(171,151,244)"/><path d="M-0.7392496996217043,6.15809496794571L2.9401469152329,7.337005693748893L2.1087656402075488,5.287800193838229z" style="fill:rgb(136,69,240)"/><path d="M-4.7946880588279015,1.2348657174691144L-6.996769470301741,4.413134935204526L-4.307800100850621,4.09725674019039z" style="fill:rgb(77,103,242)"/><path d="M3.9037125159210873,-3.965826214396022L4.171108572858068,-5.9068664204988135L1.282929986145176,-6.61370870700164z" style="fill:rgb(148,171,245)"/><path d="M-2.010301888831913,-4.527443460424147L1.282929986145176,-6.61370870700164L-1.6552688757514016,-7.062958050337769z" style="fill:rgb(124,175,245)"/><path d="M7.0264397114670185,1.4474556841576838L4.33704363054293,2.2692089748889397L4.874292784148234,4.211469133314733z" style="fill:rgb(176,104,242)"/><path d="M-4.7946880588279015,1.2348657174691144L-4.996599857755494,-1.6856395051001887L-7.698928789440487,-1.4759436860894735z" style="fill:rgb(74,128,243)"/><path d="M7.0264397114670185,1.4474556841576838L6.753332721906679,-0.17337741798878673L3.9881173253013453,0.20447914118692032z" style="fill:rgb(173,119,246)"/><path d="M-1.4459184430616725,3.621290185673196L-3.5558280268376863,6.7880593505667015L-0.7392496996217043,6.15809496794571zM-1.4459184430616725,3.621290185673196L-4.307800100850621,4.09725674019039L-3.5558280268376863,6.7880593505667015z" style="fill:rgb(105,83,245)"/><path d="M6.638354087228368,-1.8264744003101332L3.9881173253013453,0.20447914118692032L6.753332721906679,-0.17337741798878673z" style="fill:rgb(171,135,246)"/><path d="M3.9037125159210873,-3.965826214396022L3.841876158088601,-1.901644969335687L6.638354087228368,-1.8264744003101332z" style="fill:rgb(171,151,244)"/><path d="M3.9037125159210873,-3.965826214396022L1.282929986145176,-6.61370870700164L0.9659233223522703,-4.330934771932437z" style="fill:rgb(148,171,245)"/><path d="M7.0264397114670185,1.4474556841576838L3.9881173253013453,0.20447914118692032L4.33704363054293,2.2692089748889397z" style="fill:rgb(173,119,246)"/><path d="M-2.010301888831913,-4.527443460424147L0.9659233223522703,-4.330934771932437L1.282929986145176,-6.61370870700164z" style="fill:rgb(124,175,245)"/><path d="M-1.4459184430616725,3.621290185673196L-0.7392496996217043,6.15809496794571L2.1087656402075488,5.287800193838229z" style="fill:rgb(129,89,249)"/><path d="M4.874292784148234,4.211469133314733L1.4746734270900004,3.00368561055275L2.1087656402075488,5.287800193838229z" style="fill:rgb(153,96,248)"/><path d="M6.638354087228368,-1.8264744003101332L3.841876158088601,-1.901644969335687L3.9881173253013453,0.20447914118692032z" style="fill:rgb(171,135,246)"/><path d="M-2.094420448399601,-1.8297866921872767L-4.90571702277855,-4.547373241359344L-4.996599857755494,-1.6856395051001887zM-2.094420448399601,-1.8297866921872767L-2.010301888831913,-4.527443460424147L-4.90571702277855,-4.547373241359344z" style="fill:rgb(97,154,248)"/><path d="M4.874292784148234,4.211469133314733L4.33704363054293,2.2692089748889397L1.4746734270900004,3.00368561055275z" style="fill:rgb(153,96,248)"/><path d="M-4.7946880588279015,1.2348657174691144L-4.307800100850621,4.09725674019039L-1.4459184430616725,3.621290185673196z" style="fill:rgb(100,106,250)"/><path d="M-2.094420448399601,-1.8297866921872767L-4.996599857755494,-1.6856395051001887L-4.7946880588279015,1.2348657174691144z" style="fill:rgb(98,130,251)"/><path d="M-1.4459184430616725,3.621290185673196L2.1087656402075488,5.287800193838229L1.4746734270900004,3.00368561055275z" style="fill:rgb(129,89,249)"/><path d="M0.8915734565266639,-1.9028140867839172L3.9037125159210873,-3.965826214396022L0.9659233223522703,-4.330934771932437zM0.8915734565266639,-1.9028140867839172L3.841876158088601,-1.901644969335687L3.9037125159210873,-3.965826214396022z" style="fill:rgb(147,153,250)"/><path d="M-2.094420448399601,-1.8297866921872767L0.9659233223522703,-4.330934771932437L-2.010301888831913,-4.527443460424147z" style="fill:rgb(122,154,252)"/><path d="M-4.7946880588279015,1.2348657174691144L-1.4459184430616725,3.621290185673196L-1.903795256697899,0.922862885118922z" style="fill:rgb(100,106,250)"/><path d="M1.063432199433851,0.5747514886483521L4.33704363054293,2.2692089748889397L3.9881173253013453,0.20447914118692032z" style="fill:rgb(149,114,252)"/><path d="M0.8915734565266639,-1.9028140867839172L3.9881173253013453,0.20447914118692032L3.841876158088601,-1.901644969335687z" style="fill:rgb(147,133,253)"/><path d="M-2.094420448399601,-1.8297866921872767L-4.7946880588279015,1.2348657174691144L-1.903795256697899,0.922862885118922z" style="fill:rgb(98,130,251)"/><path d="M1.063432199433851,0.5747514886483521L1.4746734270900004,3.00368561055275L4.33704363054293,2.2692089748889397z" style="fill:rgb(149,114,252)"/><path d="M-2.094420448399601,-1.8297866921872767L0.8915734565266639,-1.9028140867839172L0.9659233223522703,-4.330934771932437z" style="fill:rgb(122,154,252)"/><path d="M-1.4459184430616725,3.621290185673196L1.4746734270900004,3.00368561055275L1.063432199433851,0.5747514886483521z" style="fill:rgb(125,110,253)"/><path d="M0.8915734565266639,-1.9028140867839172L1.063432199433851,0.5747514886483521L3.9881173253013453,0.20447914118692032z" style="fill:rgb(147,133,253)"/><path d="M-1.4459184430616725,3.621290185673196L1.063432199433851,0.5747514886483521L-1.903795256697899,0.922862885118922z" style="fill:rgb(125,110,253)"/><path d="M-2.094420448399601,-1.8297866921872767L-1.903795256697899,0.922862885118922L1.063432199433851,0.5747514886483521zM-2.094420448399601,-1.8297866921872767L1.063432199433851,0.5747514886483521L0.8915734565266639,-1.9028140867839172z" style="fill:rgb(122,132,254)"/></svg>