<?xml version="1.0" encoding="UTF-8"?>
<!-- Generated by jsxcad -->
<!DOCTYPE svg PUBLIC "-//W3C//DTD SVG 1.1 Tiny//EN" "http://www.w3.org/Graphics/SVG/1.1/DTD/svg11-tiny.dtd">
<svg viewBox="-250 -250 500 500" width="500" height="500" xmlns="http://www.w3.org/2000/svg"><path d="M29.1926247860663,123.1970356584459L-100.81595649875284,-110.4881007797462L26.348219356525153,119.53573074476604z" style="fill:rgb(21,57,142)"/><path d="M-30.891050696261523,-144.75790031111168L83.41240262355046,97.07374657468736L82.48841198584769,92.47929957462128z" style="fill:rgb(246,167,149)"/><path d="M33.002487552283355,126.14172687603394L-97.95233103395965,-107.16424511584997L29.1926247860663,123.1970356584459z" style="fill:rgb(34,46,160)"/><path d="M83.41240262355046,97.07374657468736L-31.215108982347182,-135.3547725680922L83.17924559201732,101.97307200081336z" style="fill:rgb(246,149,167)"/><path d="M37.63899221313232,128.2444338056962L-93.84402657034312,-104.6768550575695L33.002487552283355,126.14172687603394z" style="fill:rgb(51,38,177)"/><path d="M83.17924559201732,101.97307200081336L-33.483488837028226,-130.14719912123482L81.78428792223059,106.98628413229892z" style="fill:rgb(242,130,183)"/><path d="M-82.5216774774344,-102.62340617153494L37.63899221313232,128.2444338056962L42.92596349834678,129.41152861513962z" style="fill:rgb(71,33,192)"/><path d="M81.78428792223059,106.98628413229892L-37.07844016217897,-124.87348632295146L79.27103326842023,111.91333392314183z" style="fill:rgb(233,112,197)"/><path d="M-75.74144187599403,-103.16643543518057L42.92596349834678,129.41152861513962L48.65621769780046,129.58681382440892z" style="fill:rgb(92,32,204)"/><path d="M79.27103326842023,111.91333392314183L-41.86756268632074,-119.74926617952369L75.73112820412199,116.5539201516589z" style="fill:rgb(220,94,208)"/><path d="M-68.56807876662079,-104.75508078077489L48.65621769780046,129.58681382440892L54.6000671532827,128.75544922145616z" style="fill:rgb(115,34,214)"/><path d="M75.73112820412199,116.5539201516589L-47.663223231732545,-114.98784540271149L71.30171337090492,120.71681014605545z" style="fill:rgb(203,77,216)"/><path d="M-47.663223231732545,-114.98784540271149L66.16004861030764,124.22930443717195L71.30171337090492,120.71681014605545z" style="fill:rgb(183,62,221)"/><path d="M-61.29676826269925,-107.33058975913566L54.6000671532827,128.75544922145616L60.51558147576313,126.9458630521226z" style="fill:rgb(139,40,220)"/><path d="M-54.230219534403844,-110.78942179863508L60.51558147576313,126.9458630521226L66.16004861030764,124.22930443717195z" style="fill:rgb(162,50,222)"/><path d="M-100.81595649875284,-110.4881007797462L29.1926247860663,123.1970356584459L-97.95233103395965,-107.16424511584997z" style="fill:rgb(21,57,142)"/><path d="M83.41240262355046,97.07374657468736L-30.891050696261523,-144.75790031111168L-30.346467437924332,-140.2885480453207z" style="fill:rgb(246,167,149)"/><path d="M-97.95233103395965,-107.16424511584997L33.002487552283355,126.14172687603394L-93.84402657034312,-104.6768550575695z" style="fill:rgb(34,46,160)"/><path d="M-31.215108982347182,-135.3547725680922L83.41240262355046,97.07374657468736L-30.346467437924332,-140.2885480453207z" style="fill:rgb(246,149,167)"/><path d="M-93.84402657034312,-104.6768550575695L37.63899221313232,128.2444338056962L-88.63549998935241,-103.13805326659094z" style="fill:rgb(51,38,177)"/><path d="M-33.483488837028226,-130.14719912123482L83.17924559201732,101.97307200081336L-31.215108982347182,-135.3547725680922z" style="fill:rgb(242,130,183)"/><path d="M37.63899221313232,128.2444338056962L-82.5216774774344,-102.62340617153494L-88.63549998935241,-103.13805326659094z" style="fill:rgb(71,33,192)"/><path d="M-37.07844016217897,-124.87348632295146L81.78428792223059,106.98628413229892L-33.483488837028226,-130.14719912123482z" style="fill:rgb(233,112,197)"/><path d="M42.92596349834678,129.41152861513962L-75.74144187599403,-103.16643543518057L-82.5216774774344,-102.62340617153494z" style="fill:rgb(92,32,204)"/><path d="M-41.86756268632074,-119.74926617952369L79.27103326842023,111.91333392314183L-37.07844016217897,-124.87348632295146z" style="fill:rgb(220,94,208)"/><path d="M48.65621769780046,129.58681382440892L-68.56807876662079,-104.75508078077489L-75.74144187599403,-103.16643543518057z" style="fill:rgb(115,34,214)"/><path d="M-47.663223231732545,-114.98784540271149L75.73112820412199,116.5539201516589L-41.86756268632074,-119.74926617952369z" style="fill:rgb(203,77,216)"/><path d="M54.6000671532827,128.75544922145616L-61.29676826269925,-107.33058975913566L-68.56807876662079,-104.75508078077489z" style="fill:rgb(139,40,220)"/><path d="M66.16004861030764,124.22930443717195L-47.663223231732545,-114.98784540271149L-54.230219534403844,-110.78942179863508z" style="fill:rgb(183,62,221)"/><path d="M60.51558147576313,126.9458630521226L-54.230219534403844,-110.78942179863508L-61.29676826269925,-107.33058975913566z" style="fill:rgb(162,50,222)"/><path d="M-84.83136290889408,-143.3950535080394L-88.63549998935241,-103.13805326659094L-78.58968625342264,-147.3407156285828zM-95.13008085678507,-134.07373720055514L-93.84402657034312,-104.6768550575695L-90.41233968412507,-138.92057250482927zM-90.41233968412507,-138.92057250482927L-88.63549998935241,-103.13805326659094L-84.83136290889408,-143.3950535080394zM-98.80776561663038,-129.0256411573274L-97.95233103395965,-107.16424511584997L-95.13008085678507,-134.07373720055514zM-101.3003386664789,-123.95756099867398L-100.81595649875284,-110.4881007797462L-98.80776561663038,-129.0256411573274zM-78.58968625342264,-147.3407156285828L-75.74144187599403,-103.16643543518057L-71.90950994960902,-150.61947394138727zM-102.34419237010738,-114.50665515815285L-101.3003386664789,-123.95756099867398L-102.50046208088914,-119.05596766384839zM-71.90950994960902,-150.61947394138727L-68.56807876662079,-104.75508078077489L-65.02676362722147,-153.11507032586215zM-65.02676362722147,-153.11507032586215L-61.29676826269925,-107.33058975913566L-58.18491714438142,-154.73607994519688zM-101.3003386664789,-123.95756099867398L-102.34419237010738,-114.50665515815285L-100.81595649875284,-110.4881007797462zM-58.18491714438142,-154.73607994519688L-54.230219534403844,-110.78942179863508L-51.628702097106526,-155.41883051471905zM-51.628702097106526,-155.41883051471905L-47.663223231732545,-114.98784540271149L-45.59731138414979,-155.12991805288493zM-98.80776561663038,-129.0256411573274L-100.81595649875284,-110.4881007797462L-97.95233103395965,-107.16424511584997zM-45.59731138414979,-155.12991805288493L-41.86756268632074,-119.74926617952369L-40.31716365743566,-153.86845250042677zM-95.13008085678507,-134.07373720055514L-97.95233103395965,-107.16424511584997L-93.84402657034312,-104.6768550575695zM-40.31716365743566,-153.86845250042677L-37.07844016217897,-124.87348632295146L-35.994129395384384,-151.66782760233525zM-90.41233968412507,-138.92057250482927L-93.84402657034312,-104.6768550575695L-88.63549998935241,-103.13805326659094zM-35.994129395384384,-151.66782760233525L-33.483488837028226,-130.14719912123482L-32.80536763847564,-148.59652295586767zM-78.58968625342264,-147.3407156285828L-88.63549998935241,-103.13805326659094L-82.5216774774344,-102.62340617153494zM-32.80536763847564,-148.59652295586767L-31.215108982347182,-135.3547725680922L-30.891050696261523,-144.75790031111168zM-78.58968625342264,-147.3407156285828L-82.5216774774344,-102.62340617153494L-75.74144187599403,-103.16643543518057zM-71.90950994960902,-150.61947394138727L-75.74144187599403,-103.16643543518057L-68.56807876662079,-104.75508078077489zM-30.891050696261523,-144.75790031111168L-31.215108982347182,-135.3547725680922L-30.346467437924332,-140.2885480453207zM-65.02676362722147,-153.11507032586215L-68.56807876662079,-104.75508078077489L-61.29676826269925,-107.33058975913566zM-32.80536763847564,-148.59652295586767L-33.483488837028226,-130.14719912123482L-31.215108982347182,-135.3547725680922zM-58.18491714438142,-154.73607994519688L-61.29676826269925,-107.33058975913566L-54.230219534403844,-110.78942179863508zM-35.994129395384384,-151.66782760233525L-37.07844016217897,-124.87348632295146L-33.483488837028226,-130.14719912123482zM-51.628702097106526,-155.41883051471905L-54.230219534403844,-110.78942179863508L-47.663223231732545,-114.98784540271149zM-40.31716365743566,-153.86845250042677L-41.86756268632074,-119.74926617952369L-37.07844016217897,-124.87348632295146zM-45.59731138414979,-155.12991805288493L-47.663223231732545,-114.98784540271149L-41.86756268632074,-119.74926617952369z" style="fill:rgb(83,212,212)"/></svg>
