<?xml version="1.0" encoding="UTF-8"?>
<!-- Generated by jsxcad -->
<!DOCTYPE svg PUBLIC "-//W3C//DTD SVG 1.1 Tiny//EN" "http://www.w3.org/Graphics/SVG/1.1/DTD/svg11-tiny.dtd">
<svg baseProfile="tiny" height="111 mm" width="20 mm" viewBox="0 0 20 111" version="1.1" stroke="black" stroke-width=".1" fill="none" xmlns="http://www.w3.org/2000/svg">
<path d="M0 11 L20 11 L20 111 L19.94869 111 L19.89739 111 L19.84582 111 L19.79371 111 L19.74079 111 L19.68675 111 L19.63128 111 L19.57401 111 L19.51455 111 L19.45244 111 L19.38716 111 L19.31811 111 L19.24454 111 L19.16559 111 L19.08019 111 L18.98702 111 L18.8844 111 L18.77022 111 L18.64171 111 L18.49517 111 L18.3256 111 L18.12599 111 L17.88624 111 L17.59119 111 L17.21707 111 L16.72423 111 L16.04134 111 L15.02579 111 L13.34477 111 L10 111 L0 111 z"/>
<path d="M5 10 L5 5 L5 0 L10 0 L15 0 L15 5 L15 10 L10 10 z"/>
</svg>