<?xml version="1.0" encoding="UTF-8"?>
<!-- Generated by jsxcad -->
<!DOCTYPE svg PUBLIC "-//W3C//DTD SVG 1.1 Tiny//EN" "http://www.w3.org/Graphics/SVG/1.1/DTD/svg11-tiny.dtd">
<svg baseProfile="tiny" height="6 mm" width="6 mm" viewBox="0 0 6 6" version="1.1" stroke="black" stroke-width=".1" fill="none" xmlns="http://www.w3.org/2000/svg">
<path d="M1.5 0 L1.5 6 L4.5 6 z"/>
<path d="M1.5 0 L4.5 6 L4.5 0 z"/>
<path d="M6 3 L4.5 0 L4.5 6 z"/>
<path d="M0 3 L1.5 6 L1.5 0 z"/>
<path d="M5.81907 1.97394 L4.5 0 L6 3 z"/>
<path d="M4.5 0 L5.29812 1.07163 L4.5 0.40191 z"/>
<path d="M4.5 0 L4.5 0.40191 L3.52095 0.04557 z"/>
<path d="M4.5 0 L1.5 0 L1.5 0 z"/>
<path d="M4.5 0 L1.5 0 L4.5 0 z"/>
<path d="M5.81907 4.02606 L6 3 L4.5 6 z"/>
<path d="M6 3 L5.81907 1.97394 L5.81907 1.97394 z"/>
<path d="M6 3 L5.81907 1.97394 L6 3 z"/>
<path d="M5.29812 1.07163 L5.81907 1.97394 L5.81907 1.97394 z"/>
<path d="M5.29812 1.07163 L5.81907 1.97394 L5.29812 1.07163 z"/>
<path d="M5.29812 1.07163 L5.29812 1.07163 L4.5 0 z"/>
<path d="M5.29812 1.07163 L4.5 0 L4.5 0 z"/>
<path d="M5.29812 1.07163 L4.5 0 L5.81907 1.97394 z"/>
<path d="M2.47905 0.04557 L1.5 0.40191 L1.5 0 z"/>
<path d="M2.47905 0.04557 L1.5 0 L4.5 0 z"/>
<path d="M2.47905 0.04557 L4.5 0 L3.52095 0.04557 z"/>
<path d="M0.70188 1.07163 L0.70188 1.07163 L1.5 0 z"/>
<path d="M0.70188 1.07163 L1.5 0 L1.5 0 z"/>
<path d="M0.70188 1.07163 L1.5 0 L1.5 0.40191 z"/>
<path d="M0.18093 1.97394 L0 3 L1.5 0 z"/>
<path d="M0.18093 1.97394 L1.5 0 L0.70188 1.07163 z"/>
<path d="M0.18093 1.97394 L0.70188 1.07163 L0.70188 1.07163 z"/>
<path d="M0.18093 1.97394 L0.70188 1.07163 L0.18093 1.97394 z"/>
<path d="M0 3 L0 3 L0.18093 1.97394 z"/>
<path d="M0 3 L0.18093 1.97394 L0.18093 1.97394 z"/>
<path d="M0.18093 4.02606 L0 3 L0 3 z"/>
<path d="M0.18093 4.02606 L0 3 L0.18093 4.02606 z"/>
<path d="M0.18093 4.02606 L1.5 6 L0 3 z"/>
<path d="M1.5 5.59809 L2.47905 5.95443 L1.5 6 z"/>
<path d="M4.5 6 L4.5 6 L1.5 6 z"/>
<path d="M4.5 6 L1.5 6 L1.5 6 z"/>
<path d="M4.5 6 L1.5 6 L2.47905 5.95443 z"/>
<path d="M4.5 6 L2.47905 5.95443 L3.52095 5.95443 z"/>
<path d="M4.5 6 L3.52095 5.95443 L4.5 5.59809 z"/>
<path d="M4.5 6 L4.5 5.59809 L5.29812 4.92837 z"/>
<path d="M5.29812 4.92837 L5.81907 4.02606 L4.5 6 z"/>
<path d="M5.29812 4.92837 L4.5 6 L4.5 6 z"/>
<path d="M5.29812 4.92837 L4.5 6 L5.29812 4.92837 z"/>
<path d="M5.81907 4.02606 L6 3 L6 3 z"/>
<path d="M5.81907 4.02606 L6 3 L5.81907 4.02606 z"/>
<path d="M5.81907 4.02606 L5.81907 4.02606 L5.29812 4.92837 z"/>
<path d="M5.81907 4.02606 L5.29812 4.92837 L5.29812 4.92837 z"/>
<path d="M0.70188 4.92837 L0.18093 4.02606 L0 3 z"/>
<path d="M0.70188 4.92837 L0 3 L0.18093 1.97394 z"/>
<path d="M0.70188 4.92837 L0.18093 1.97394 L0.70188 1.07163 z"/>
<path d="M0.70188 4.92837 L0.70188 1.07163 L1.5 0.40191 z"/>
<path d="M0.70188 4.92837 L1.5 0.40191 L2.47905 0.04557 z"/>
<path d="M0.70188 4.92837 L2.47905 0.04557 L3.52095 0.04557 z"/>
<path d="M0.70188 4.92837 L3.52095 0.04557 L4.5 0.40191 z"/>
<path d="M0.70188 4.92837 L4.5 0.40191 L5.29812 1.07163 z"/>
<path d="M0.70188 4.92837 L5.29812 1.07163 L5.81907 1.97394 z"/>
<path d="M0.70188 4.92837 L5.81907 1.97394 L6 3 z"/>
<path d="M0.70188 4.92837 L6 3 L5.81907 4.02606 z"/>
<path d="M0.70188 4.92837 L5.81907 4.02606 L5.29812 4.92837 z"/>
<path d="M0.70188 4.92837 L5.29812 4.92837 L4.5 5.59809 z"/>
<path d="M0.70188 4.92837 L4.5 5.59809 L3.52095 5.95443 z"/>
<path d="M0.70188 4.92837 L3.52095 5.95443 L2.47905 5.95443 z"/>
<path d="M0.70188 4.92837 L2.47905 5.95443 L1.5 5.59809 z"/>
<path d="M0.70188 4.92837 L1.5 5.59809 L1.5 6 z"/>
<path d="M0.70188 4.92837 L0.18093 4.02606 L0.18093 4.02606 z"/>
<path d="M0.70188 4.92837 L0.18093 4.02606 L0.70188 4.92837 z"/>
<path d="M0.70188 4.92837 L0.70188 4.92837 L1.5 6 z"/>
<path d="M0.70188 4.92837 L1.5 6 L1.5 6 z"/>
<path d="M0.70188 4.92837 L1.5 6 L0.18093 4.02606 z"/>
</svg>