<?xml version="1.0" encoding="UTF-8"?>
<!-- Generated by jsxcad -->
<!DOCTYPE svg PUBLIC "-//W3C//DTD SVG 1.1 Tiny//EN" "http://www.w3.org/Graphics/SVG/1.1/DTD/svg11-tiny.dtd">
<svg baseProfile="tiny" height="100 mm" width="20 mm" viewBox="0 0 20 100" version="1.1" stroke="black" stroke-width=".1" fill="none" xmlns="http://www.w3.org/2000/svg">
<path d="M19.9487 100 L19.9487 0 L19.7953 100 z"/>
<path d="M19.7953 100 L19.9487 0 L19.7953 0 z"/>
<path d="M19.7953 100 L19.7953 0 L19.5414 100 z"/>
<path d="M19.5414 100 L19.7953 0 L19.5414 0 z"/>
<path d="M19.5414 100 L19.5414 0 L19.1896 100 z"/>
<path d="M19.1896 100 L19.5414 0 L19.1896 0 z"/>
<path d="M19.1896 100 L19.1896 0 L18.7435 100 z"/>
<path d="M18.7435 100 L19.1896 0 L18.7435 0 z"/>
<path d="M18.7435 100 L18.7435 0 L18.2076 100 z"/>
<path d="M18.2076 100 L18.7435 0 L18.2076 0 z"/>
<path d="M18.2076 100 L18.2076 0 L17.5876 100 z"/>
<path d="M17.5876 100 L18.2076 0 L17.5876 0 z"/>
<path d="M17.5876 100 L17.5876 0 L16.8897 100 z"/>
<path d="M16.8897 100 L17.5876 0 L16.8897 0 z"/>
<path d="M16.8897 100 L16.8897 0 L16.1211 100 z"/>
<path d="M16.1211 100 L16.8897 0 L16.1211 0 z"/>
<path d="M16.1211 100 L16.1211 0 L15.2896 100 z"/>
<path d="M15.2896 100 L16.1211 0 L15.2896 0 z"/>
<path d="M15.2896 100 L15.2896 0 L14.4039 100 z"/>
<path d="M14.4039 100 L15.2896 0 L14.4039 0 z"/>
<path d="M14.4039 100 L14.4039 0 L13.4731 100 z"/>
<path d="M13.4731 100 L14.4039 0 L13.4731 0 z"/>
<path d="M13.4731 100 L13.4731 0 L12.5065 100 z"/>
<path d="M12.5065 100 L13.4731 0 L12.5065 0 z"/>
<path d="M12.5065 100 L12.5065 0 L11.5143 100 z"/>
<path d="M11.5143 100 L12.5065 0 L11.5143 0 z"/>
<path d="M11.5143 100 L11.5143 0 L10.5065 100 z"/>
<path d="M10.5065 100 L11.5143 0 L10.5065 0 z"/>
<path d="M10.5065 100 L10.5065 0 L9.4935 100 z"/>
<path d="M9.4935 100 L10.5065 0 L9.4935 0 z"/>
<path d="M9.4935 100 L9.4935 0 L8.4857 100 z"/>
<path d="M8.4857 100 L9.4935 0 L8.4857 0 z"/>
<path d="M8.4857 100 L8.4857 0 L7.4935 100 z"/>
<path d="M7.4935 100 L8.4857 0 L7.4935 0 z"/>
<path d="M7.4935 100 L7.4935 0 L6.5269 100 z"/>
<path d="M6.5269 100 L7.4935 0 L6.5269 0 z"/>
<path d="M6.5269 100 L6.5269 0 L5.5961 100 z"/>
<path d="M5.5961 100 L6.5269 0 L5.5961 0 z"/>
<path d="M5.5961 100 L5.5961 0 L4.7104 100 z"/>
<path d="M4.7104 100 L5.5961 0 L4.7104 0 z"/>
<path d="M4.7104 100 L4.7104 0 L3.8789 100 z"/>
<path d="M3.8789 100 L4.7104 0 L3.8789 0 z"/>
<path d="M3.8789 100 L3.8789 0 L3.1103 100 z"/>
<path d="M3.1103 100 L3.8789 0 L3.1103 0 z"/>
<path d="M3.1103 100 L3.1103 0 L2.4124 100 z"/>
<path d="M2.4124 100 L3.1103 0 L2.4124 0 z"/>
<path d="M2.4124 100 L2.4124 0 L1.7924 100 z"/>
<path d="M1.7924 100 L2.4124 0 L1.7924 0 z"/>
<path d="M1.7924 100 L1.7924 0 L1.2565 100 z"/>
<path d="M1.2565 100 L1.7924 0 L1.2565 0 z"/>
<path d="M1.2565 100 L1.2565 0 L0.8104 100 z"/>
<path d="M0.8104 100 L1.2565 0 L0.8104 0 z"/>
<path d="M0.8104 100 L0.8104 0 L0.4586 100 z"/>
<path d="M0.4586 100 L0.8104 0 L0.4586 0 z"/>
<path d="M0.4586 100 L0.4586 0 L0.2047 100 z"/>
<path d="M0.2047 100 L0.4586 0 L0.2047 0 z"/>
<path d="M0.2047 100 L0.2047 0 L0.0513 100 z"/>
<path d="M0.0513 100 L0.2047 0 L0.0513 0 z"/>
<path d="M0.0513 100 L0.0513 0 L0 100 z"/>
<path d="M0 100 L0.0513 0 L0 0 z"/>
<path d="M0 100 L0 0 L0.0513 100 z"/>
<path d="M0.0513 100 L0 0 L0.0513 0 z"/>
<path d="M0.0513 100 L0.0513 0 L0.2047 100 z"/>
<path d="M0.2047 100 L0.0513 0 L0.2047 0 z"/>
<path d="M0.2047 100 L0.2047 0 L0.4586 100 z"/>
<path d="M0.4586 100 L0.2047 0 L0.4586 0 z"/>
<path d="M0.4586 100 L0.4586 0 L0.8104 100 z"/>
<path d="M0.8104 100 L0.4586 0 L0.8104 0 z"/>
<path d="M0.8104 100 L0.8104 0 L1.2565 100 z"/>
<path d="M1.2565 100 L0.8104 0 L1.2565 0 z"/>
<path d="M1.2565 100 L1.2565 0 L1.7924 100 z"/>
<path d="M1.7924 100 L1.2565 0 L1.7924 0 z"/>
<path d="M1.7924 100 L1.7924 0 L2.4124 100 z"/>
<path d="M2.4124 100 L1.7924 0 L2.4124 0 z"/>
<path d="M2.4124 100 L2.4124 0 L3.1103 100 z"/>
<path d="M3.1103 100 L2.4124 0 L3.1103 0 z"/>
<path d="M3.1103 100 L3.1103 0 L3.8789 100 z"/>
<path d="M3.8789 100 L3.1103 0 L3.8789 0 z"/>
<path d="M3.8789 100 L3.8789 0 L4.7104 100 z"/>
<path d="M4.7104 100 L3.8789 0 L4.7104 0 z"/>
<path d="M4.7104 100 L4.7104 0 L5.5961 100 z"/>
<path d="M5.5961 100 L4.7104 0 L5.5961 0 z"/>
<path d="M5.5961 100 L5.5961 0 L6.5269 100 z"/>
<path d="M6.5269 100 L5.5961 0 L6.5269 0 z"/>
<path d="M6.5269 100 L6.5269 0 L7.4935 100 z"/>
<path d="M7.4935 100 L6.5269 0 L7.4935 0 z"/>
<path d="M7.4935 100 L7.4935 0 L8.4857 100 z"/>
<path d="M8.4857 100 L7.4935 0 L8.4857 0 z"/>
<path d="M8.4857 100 L8.4857 0 L9.4935 100 z"/>
<path d="M9.4935 100 L8.4857 0 L9.4935 0 z"/>
<path d="M9.4935 100 L9.4935 0 L10.5065 100 z"/>
<path d="M10.5065 100 L9.4935 0 L10.5065 0 z"/>
<path d="M10.5065 100 L10.5065 0 L11.5143 100 z"/>
<path d="M11.5143 100 L10.5065 0 L11.5143 0 z"/>
<path d="M11.5143 100 L11.5143 0 L12.5065 100 z"/>
<path d="M12.5065 100 L11.5143 0 L12.5065 0 z"/>
<path d="M12.5065 100 L12.5065 0 L13.4731 100 z"/>
<path d="M13.4731 100 L12.5065 0 L13.4731 0 z"/>
<path d="M13.4731 100 L13.4731 0 L14.4039 100 z"/>
<path d="M14.4039 100 L13.4731 0 L14.4039 0 z"/>
<path d="M14.4039 100 L14.4039 0 L15.2896 100 z"/>
<path d="M15.2896 100 L14.4039 0 L15.2896 0 z"/>
<path d="M15.2896 100 L15.2896 0 L16.1211 100 z"/>
<path d="M16.1211 100 L15.2896 0 L16.1211 0 z"/>
<path d="M16.1211 100 L16.1211 0 L16.8897 100 z"/>
<path d="M16.8897 100 L16.1211 0 L16.8897 0 z"/>
<path d="M16.8897 100 L16.8897 0 L17.5876 100 z"/>
<path d="M17.5876 100 L16.8897 0 L17.5876 0 z"/>
<path d="M17.5876 100 L17.5876 0 L18.2076 100 z"/>
<path d="M18.2076 100 L17.5876 0 L18.2076 0 z"/>
<path d="M18.2076 100 L18.2076 0 L18.7435 100 z"/>
<path d="M18.7435 100 L18.2076 0 L18.7435 0 z"/>
<path d="M18.7435 100 L18.7435 0 L19.1896 100 z"/>
<path d="M19.1896 100 L18.7435 0 L19.1896 0 z"/>
<path d="M19.1896 100 L19.1896 0 L19.5414 100 z"/>
<path d="M19.5414 100 L19.1896 0 L19.5414 0 z"/>
<path d="M19.5414 100 L19.5414 0 L19.7953 100 z"/>
<path d="M19.7953 100 L19.5414 0 L19.7953 0 z"/>
<path d="M19.7953 100 L19.7953 0 L19.9487 100 z"/>
<path d="M19.9487 100 L19.7953 0 L19.9487 0 z"/>
<path d="M19.9487 100 L19.9487 0 L20 100 z"/>
<path d="M20 100 L19.9487 0 L20 0 z"/>
<path d="M20 100 L20 0 L19.9487 100 z"/>
<path d="M19.9487 100 L20 0 L19.9487 0 z"/>
<path d="M20 0 L19.9487 0 L19.7953 0 z"/>
<path d="M20 0 L19.7953 0 L19.5414 0 z"/>
<path d="M20 0 L19.5414 0 L19.1896 0 z"/>
<path d="M20 0 L19.1896 0 L18.7435 0 z"/>
<path d="M20 0 L18.7435 0 L18.2076 0 z"/>
<path d="M20 0 L18.2076 0 L17.5876 0 z"/>
<path d="M20 0 L17.5876 0 L16.8897 0 z"/>
<path d="M20 0 L16.8897 0 L16.1211 0 z"/>
<path d="M20 0 L16.1211 0 L15.2896 0 z"/>
<path d="M20 0 L15.2896 0 L14.4039 0 z"/>
<path d="M20 0 L14.4039 0 L13.4731 0 z"/>
<path d="M20 0 L13.4731 0 L12.5065 0 z"/>
<path d="M20 0 L12.5065 0 L11.5143 0 z"/>
<path d="M20 0 L11.5143 0 L10.5065 0 z"/>
<path d="M20 0 L10.5065 0 L9.4935 0 z"/>
<path d="M20 0 L9.4935 0 L8.4857 0 z"/>
<path d="M20 0 L8.4857 0 L7.4935 0 z"/>
<path d="M20 0 L7.4935 0 L6.5269 0 z"/>
<path d="M20 0 L6.5269 0 L5.5961 0 z"/>
<path d="M20 0 L5.5961 0 L4.7104 0 z"/>
<path d="M20 0 L4.7104 0 L3.8789 0 z"/>
<path d="M20 0 L3.8789 0 L3.1103 0 z"/>
<path d="M20 0 L3.1103 0 L2.4124 0 z"/>
<path d="M20 0 L2.4124 0 L1.7924 0 z"/>
<path d="M20 0 L1.7924 0 L1.2565 0 z"/>
<path d="M20 0 L1.2565 0 L0.8104 0 z"/>
<path d="M20 0 L0.8104 0 L0.4586 0 z"/>
<path d="M20 0 L0.4586 0 L0.2047 0 z"/>
<path d="M20 0 L0.2047 0 L0.0513 0 z"/>
<path d="M20 0 L0.0513 0 L0 0 z"/>
<path d="M20 0 L0 0 L0.0513 0 z"/>
<path d="M20 0 L0.0513 0 L0.2047 0 z"/>
<path d="M20 0 L0.2047 0 L0.4586 0 z"/>
<path d="M20 0 L0.4586 0 L0.8104 0 z"/>
<path d="M20 0 L0.8104 0 L1.2565 0 z"/>
<path d="M20 0 L1.2565 0 L1.7924 0 z"/>
<path d="M20 0 L1.7924 0 L2.4124 0 z"/>
<path d="M20 0 L2.4124 0 L3.1103 0 z"/>
<path d="M20 0 L3.1103 0 L3.8789 0 z"/>
<path d="M20 0 L3.8789 0 L4.7104 0 z"/>
<path d="M20 0 L4.7104 0 L5.5961 0 z"/>
<path d="M20 0 L5.5961 0 L6.5269 0 z"/>
<path d="M20 0 L6.5269 0 L7.4935 0 z"/>
<path d="M20 0 L7.4935 0 L8.4857 0 z"/>
<path d="M20 0 L8.4857 0 L9.4935 0 z"/>
<path d="M20 0 L9.4935 0 L10.5065 0 z"/>
<path d="M20 0 L10.5065 0 L11.5143 0 z"/>
<path d="M20 0 L11.5143 0 L12.5065 0 z"/>
<path d="M20 0 L12.5065 0 L13.4731 0 z"/>
<path d="M20 0 L13.4731 0 L14.4039 0 z"/>
<path d="M20 0 L14.4039 0 L15.2896 0 z"/>
<path d="M20 0 L15.2896 0 L16.1211 0 z"/>
<path d="M20 0 L16.1211 0 L16.8897 0 z"/>
<path d="M20 0 L16.8897 0 L17.5876 0 z"/>
<path d="M20 0 L17.5876 0 L18.2076 0 z"/>
<path d="M20 0 L18.2076 0 L18.7435 0 z"/>
<path d="M20 0 L18.7435 0 L19.1896 0 z"/>
<path d="M20 0 L19.1896 0 L19.5414 0 z"/>
<path d="M20 0 L19.5414 0 L19.7953 0 z"/>
<path d="M20 0 L19.7953 0 L19.9487 0 z"/>
<path d="M19.9487 100 L19.7953 100 L19.5414 100 z"/>
<path d="M19.9487 100 L19.5414 100 L19.1896 100 z"/>
<path d="M19.9487 100 L19.1896 100 L18.7435 100 z"/>
<path d="M19.9487 100 L18.7435 100 L18.2076 100 z"/>
<path d="M19.9487 100 L18.2076 100 L17.5876 100 z"/>
<path d="M19.9487 100 L17.5876 100 L16.8897 100 z"/>
<path d="M19.9487 100 L16.8897 100 L16.1211 100 z"/>
<path d="M19.9487 100 L16.1211 100 L15.2896 100 z"/>
<path d="M19.9487 100 L15.2896 100 L14.4039 100 z"/>
<path d="M19.9487 100 L14.4039 100 L13.4731 100 z"/>
<path d="M19.9487 100 L13.4731 100 L12.5065 100 z"/>
<path d="M19.9487 100 L12.5065 100 L11.5143 100 z"/>
<path d="M19.9487 100 L11.5143 100 L10.5065 100 z"/>
<path d="M19.9487 100 L10.5065 100 L9.4935 100 z"/>
<path d="M19.9487 100 L9.4935 100 L8.4857 100 z"/>
<path d="M19.9487 100 L8.4857 100 L7.4935 100 z"/>
<path d="M19.9487 100 L7.4935 100 L6.5269 100 z"/>
<path d="M19.9487 100 L6.5269 100 L5.5961 100 z"/>
<path d="M19.9487 100 L5.5961 100 L4.7104 100 z"/>
<path d="M19.9487 100 L4.7104 100 L3.8789 100 z"/>
<path d="M19.9487 100 L3.8789 100 L3.1103 100 z"/>
<path d="M19.9487 100 L3.1103 100 L2.4124 100 z"/>
<path d="M19.9487 100 L2.4124 100 L1.7924 100 z"/>
<path d="M19.9487 100 L1.7924 100 L1.2565 100 z"/>
<path d="M19.9487 100 L1.2565 100 L0.8104 100 z"/>
<path d="M19.9487 100 L0.8104 100 L0.4586 100 z"/>
<path d="M19.9487 100 L0.4586 100 L0.2047 100 z"/>
<path d="M19.9487 100 L0.2047 100 L0.0513 100 z"/>
<path d="M19.9487 100 L0.0513 100 L0 100 z"/>
<path d="M19.9487 100 L0 100 L0.0513 100 z"/>
<path d="M19.9487 100 L0.0513 100 L0.2047 100 z"/>
<path d="M19.9487 100 L0.2047 100 L0.4586 100 z"/>
<path d="M19.9487 100 L0.4586 100 L0.8104 100 z"/>
<path d="M19.9487 100 L0.8104 100 L1.2565 100 z"/>
<path d="M19.9487 100 L1.2565 100 L1.7924 100 z"/>
<path d="M19.9487 100 L1.7924 100 L2.4124 100 z"/>
<path d="M19.9487 100 L2.4124 100 L3.1103 100 z"/>
<path d="M19.9487 100 L3.1103 100 L3.8789 100 z"/>
<path d="M19.9487 100 L3.8789 100 L4.7104 100 z"/>
<path d="M19.9487 100 L4.7104 100 L5.5961 100 z"/>
<path d="M19.9487 100 L5.5961 100 L6.5269 100 z"/>
<path d="M19.9487 100 L6.5269 100 L7.4935 100 z"/>
<path d="M19.9487 100 L7.4935 100 L8.4857 100 z"/>
<path d="M19.9487 100 L8.4857 100 L9.4935 100 z"/>
<path d="M19.9487 100 L9.4935 100 L10.5065 100 z"/>
<path d="M19.9487 100 L10.5065 100 L11.5143 100 z"/>
<path d="M19.9487 100 L11.5143 100 L12.5065 100 z"/>
<path d="M19.9487 100 L12.5065 100 L13.4731 100 z"/>
<path d="M19.9487 100 L13.4731 100 L14.4039 100 z"/>
<path d="M19.9487 100 L14.4039 100 L15.2896 100 z"/>
<path d="M19.9487 100 L15.2896 100 L16.1211 100 z"/>
<path d="M19.9487 100 L16.1211 100 L16.8897 100 z"/>
<path d="M19.9487 100 L16.8897 100 L17.5876 100 z"/>
<path d="M19.9487 100 L17.5876 100 L18.2076 100 z"/>
<path d="M19.9487 100 L18.2076 100 L18.7435 100 z"/>
<path d="M19.9487 100 L18.7435 100 L19.1896 100 z"/>
<path d="M19.9487 100 L19.1896 100 L19.5414 100 z"/>
<path d="M19.9487 100 L19.5414 100 L19.7953 100 z"/>
<path d="M19.9487 100 L19.7953 100 L19.9487 100 z"/>
<path d="M19.9487 100 L19.9487 100 L20 100 z"/>
</svg>