<?xml version="1.0" encoding="UTF-8"?>
<!-- Generated by jsxcad -->
<!DOCTYPE svg PUBLIC "-//W3C//DTD SVG 1.1 Tiny//EN" "http://www.w3.org/Graphics/SVG/1.1/DTD/svg11-tiny.dtd">
<svg viewBox="-250 -250 500 500" width="500" height="500" xmlns="http://www.w3.org/2000/svg"><path d="M29.849453133933167,121.69480061852063L-92.11486909654505,-98.62202376853985L27.228080969163493,117.99002636327579z" style="fill:rgb(19,60,139)"/><path d="M-26.315589928597216,-131.28506765849178L81.84975439856687,96.1790935946801L80.64274530723229,91.77488860314963z" style="fill:rgb(245,171,144)"/><path d="M33.46740882434263,124.69450692838312L-89.51076677229679,-95.19692679239228L29.849453133933167,121.69480061852063z" style="fill:rgb(32,47,158)"/><path d="M81.84975439856687,96.1790935946801L-25.874839995362393,-122.25213503621502L81.89206131094056,100.93802487193577z" style="fill:rgb(247,153,162)"/><path d="M37.94208802120053,126.85441321646742L-85.64464798481357,-92.59342890695267L33.46740882434263,124.69450692838312z" style="fill:rgb(49,39,175)"/><path d="M81.89206131094056,100.93802487193577L-27.77247858717934,-117.17369675004642L80.7538663807933,105.85533126187464z" style="fill:rgb(243,134,179)"/><path d="M-74.7575536279095,-90.30322771190697L37.94208802120053,126.85441321646742L43.09292496231269,128.0733256643065z" style="fill:rgb(69,33,191)"/><path d="M80.7538663807933,105.85533126187464L-31.019671670413437,-111.99977784880576L78.47083477272214,110.72324041911602z" style="fill:rgb(235,115,194)"/><path d="M-68.17970186023634,-90.74044341835057L43.09292496231269,128.0733256643065L48.70551348597882,128.28987107636715z" style="fill:rgb(91,32,204)"/><path d="M78.47083477272214,110.72324041911602L-35.49067199329351,-106.95422994362013L75.13056236601552,115.33206003061728z" style="fill:rgb(222,96,207)"/><path d="M-61.208694044195006,-92.23687027413953L48.70551348597882,128.28987107636715L54.54086022788231,127.48694448513324z" style="fill:rgb(115,34,214)"/><path d="M75.13056236601552,115.33206003061728L-41.00035384268574,-102.25941308477486L70.87001722550663,119.48044908266965z" style="fill:rgb(205,79,215)"/><path d="M-41.00035384268574,-102.25941308477486L65.87000400056007,122.98579012112512L70.87001722550663,119.48044908266965z" style="fill:rgb(185,63,221)"/><path d="M-54.14890809708188,-94.73376739353864L54.54086022788231,127.48694448513324L60.34669462637133,125.69384866229282z" style="fill:rgb(139,40,220)"/><path d="M-47.31201711518625,-98.12445689640145L60.34669462637133,125.69384866229282L65.87000400056007,122.98579012112512z" style="fill:rgb(163,50,222)"/><path d="M-92.11486909654505,-98.62202376853985L29.849453133933167,121.69480061852063L-89.51076677229679,-95.19692679239228z" style="fill:rgb(19,60,139)"/><path d="M81.84975439856687,96.1790935946801L-26.315589928597216,-131.28506765849178L-25.389358329396643,-127.02089125041289z" style="fill:rgb(245,171,144)"/><path d="M-89.51076677229679,-95.19692679239228L33.46740882434263,124.69450692838312L-85.64464798481357,-92.59342890695267z" style="fill:rgb(32,47,158)"/><path d="M-25.874839995362393,-122.25213503621502L81.84975439856687,96.1790935946801L-25.389358329396643,-127.02089125041289z" style="fill:rgb(247,153,162)"/><path d="M-85.64464798481357,-92.59342890695267L37.94208802120053,126.85441321646742L-80.66086483302762,-90.9341159548675z" style="fill:rgb(49,39,175)"/><path d="M-27.77247858717934,-117.17369675004642L81.89206131094056,100.93802487193577L-25.874839995362393,-122.25213503621502z" style="fill:rgb(243,134,179)"/><path d="M37.94208802120053,126.85441321646742L-74.7575536279095,-90.30322771190697L-80.66086483302762,-90.9341159548675z" style="fill:rgb(69,33,191)"/><path d="M-31.019671670413437,-111.99977784880576L80.7538663807933,105.85533126187464L-27.77247858717934,-117.17369675004642z" style="fill:rgb(235,115,194)"/><path d="M43.09292496231269,128.0733256643065L-68.17970186023634,-90.74044341835057L-74.7575536279095,-90.30322771190697z" style="fill:rgb(91,32,204)"/><path d="M-35.49067199329351,-106.95422994362013L78.47083477272214,110.72324041911602L-31.019671670413437,-111.99977784880576z" style="fill:rgb(222,96,207)"/><path d="M48.70551348597882,128.28987107636715L-61.208694044195006,-92.23687027413953L-68.17970186023634,-90.74044341835057z" style="fill:rgb(115,34,214)"/><path d="M-41.00035384268574,-102.25941308477486L75.13056236601552,115.33206003061728L-35.49067199329351,-106.95422994362013z" style="fill:rgb(205,79,215)"/><path d="M54.54086022788231,127.48694448513324L-54.14890809708188,-94.73376739353864L-61.208694044195006,-92.23687027413953z" style="fill:rgb(139,40,220)"/><path d="M65.87000400056007,122.98579012112512L-41.00035384268574,-102.25941308477486L-47.31201711518625,-98.12445689640145z" style="fill:rgb(185,63,221)"/><path d="M60.34669462637133,125.69384866229282L-47.31201711518625,-98.12445689640145L-54.14890809708188,-94.73376739353864z" style="fill:rgb(163,50,222)"/><path d="M-80.20367365870756,-126.72675501135406L-75.67530186882698,-122.40489169760471L-74.5011242665838,-130.91016252615017zM-85.1061163137736,-122.09392363840738L-75.67530186882698,-122.40489169760471L-80.20367365870756,-126.72675501135406zM-75.67530186882698,-122.40489169760471L-85.1061163137736,-122.09392363840738L-87.65507918403624,-118.8933375458321zM-74.5011242665838,-130.91016252615017L-29.818203850486864,-135.8466587039689L-68.21784336798807,-134.48759527225974zM-68.21784336798807,-134.48759527225974L-29.818203850486864,-135.8466587039689L-61.59218786364646,-137.32441588236364z" style="fill:rgb(83,212,212)"/><path d="M-42.07585332386075,-132.25365575763917L-68.70453387041358,-109.1416460598696L-35.43284875453236,-118.76631158190946z" style="fill:rgb(127,37,217)"/><path d="M-61.59218786364646,-137.32441588236364L-29.818203850486864,-135.8466587039689L-54.87460425701948,-139.31168982717892z" style="fill:rgb(83,212,212)"/><path d="M-68.70453387041358,-109.1416460598696L-42.07585332386075,-132.25365575763917L-75.67530186882698,-122.40489169760471z" style="fill:rgb(127,37,217)"/><path d="M-70.41258558511059,-85.9719730200087L-35.43284875453236,-118.76631158190946L-68.70453387041358,-109.1416460598696zM-54.87460425701948,-139.31168982717892L-29.818203850486864,-135.8466587039689L-48.32056915861636,-140.36943740735956z" style="fill:rgb(83,212,212)"/><path d="M-75.67530186882698,-122.40489169760471L-70.41258558511059,-85.9719730200087L-68.70453387041358,-109.1416460598696z" style="fill:rgb(247,158,158)"/><path d="M-74.5011242665838,-130.91016252615017L-75.67530186882698,-122.40489169760471L-29.818203850486864,-135.8466587039689zM-48.32056915861636,-140.36943740735956L-29.818203850486864,-135.8466587039689L-42.18311203241655,-140.44971864944236zM-42.18311203241655,-140.44971864944236L-29.818203850486864,-135.8466587039689L-36.70488327157172,-139.53920382258036zM-89.01483239850428,-117.18597591622184L-89.92782456138744,-95.74547357997933L-87.65507918403624,-118.8933375458321zM-91.76874396727125,-112.19022128141035L-92.11486909654505,-98.62202376853985L-89.01483239850428,-117.18597591622184zM-93.36979248660576,-102.7154281548948L-91.76874396727125,-112.19022128141035L-93.24589482809083,-107.30141586177767zM-87.65507918403624,-118.8933375458321L-77.5788829848201,-99.29505966285244L-75.67530186882698,-122.40489169760471zM-36.70488327157172,-139.53920382258036L-29.818203850486864,-135.8466587039689L-32.10968477329182,-137.6612268420424zM-91.76874396727125,-112.19022128141035L-93.36979248660576,-102.7154281548948L-92.11486909654505,-98.62202376853985zM-35.43284875453236,-118.76631158190946L-70.41258558511059,-85.9719730200087L-36.32129160603899,-95.63931539001399zM-89.01483239850428,-117.18597591622184L-92.11486909654505,-98.62202376853985L-89.92782456138744,-95.74547357997933z" style="fill:rgb(83,212,212)"/><path d="M-70.41258558511059,-85.9719730200087L-75.67530186882698,-122.40489169760471L-77.5788829848201,-99.29505966285244z" style="fill:rgb(247,158,158)"/><path d="M-87.65507918403624,-118.8933375458321L-89.92782456138744,-95.74547357997933L-77.5788829848201,-99.29505966285244zM-43.14343740635699,-109.19321512958045L-29.818203850486864,-135.8466587039689L-42.07585332386075,-132.25365575763917zM-29.818203850486864,-135.8466587039689L-30.500259215171262,-112.82738289889416L-28.59353272771883,-134.87686644169645z" style="fill:rgb(83,212,212)"/><path d="M-50.13016698951457,-123.07411611409478L-35.43284875453236,-118.76631158190946L-48.875107492458554,-146.05824185595986zM-35.43284875453236,-118.76631158190946L-50.13016698951457,-123.07411611409478L-36.32129160603899,-95.63931539001399z" style="fill:rgb(247,158,158)"/><path d="M-28.59353272771883,-134.87686644169645L-27.77247858717934,-117.17369675004642L-26.315589928597216,-131.28506765849178zM-84.9165661453527,-112.93677460253318L-48.875107492458554,-146.05824185595986L-82.80864066805849,-135.97745301844645zM-89.51076677229679,-95.19692679239228L-77.5788829848201,-99.29505966285244L-89.92782456138744,-95.74547357997933zM-26.315589928597216,-131.28506765849178L-25.874839995362393,-122.25213503621502L-25.389358329396643,-127.02089125041289zM-77.5788829848201,-99.29505966285244L-89.51076677229679,-95.19692679239228L-85.64464798481357,-92.59342890695267z" style="fill:rgb(83,212,212)"/><path d="M-50.13016698951457,-123.07411611409478L-70.41258558511059,-85.9719730200087L-36.32129160603899,-95.63931539001399z" style="fill:rgb(127,37,217)"/><path d="M-26.315589928597216,-131.28506765849178L-27.77247858717934,-117.17369675004642L-25.874839995362393,-122.25213503621502zM-29.818203850486864,-135.8466587039689L-43.14343740635699,-109.19321512958045L-30.500259215171262,-112.82738289889416zM-28.59353272771883,-134.87686644169645L-30.500259215171262,-112.82738289889416L-27.77247858717934,-117.17369675004642zM-77.5788829848201,-99.29505966285244L-85.64464798481357,-92.59342890695267L-80.66086483302762,-90.9341159548675zM-77.5788829848201,-99.29505966285244L-80.66086483302762,-90.9341159548675L-74.7575536279095,-90.30322771190697zM-77.5788829848201,-99.29505966285244L-74.7575536279095,-90.30322771190697L-43.14343740635699,-109.19321512958045z" style="fill:rgb(83,212,212)"/><path d="M-70.41258558511059,-85.9719730200087L-50.13016698951457,-123.07411611409478L-84.9165661453527,-112.93677460253318z" style="fill:rgb(127,37,217)"/><path d="M-48.875107492458554,-146.05824185595986L-84.9165661453527,-112.93677460253318L-50.13016698951457,-123.07411611409478zM-43.14343740635699,-109.19321512958045L-74.7575536279095,-90.30322771190697L-68.17970186023634,-90.74044341835057zM-43.14343740635699,-109.19321512958045L-41.00035384268574,-102.25941308477486L-30.500259215171262,-112.82738289889416zM-30.500259215171262,-112.82738289889416L-35.49067199329351,-106.95422994362013L-31.019671670413437,-111.99977784880576zM-43.14343740635699,-109.19321512958045L-68.17970186023634,-90.74044341835057L-61.208694044195006,-92.23687027413953zM-43.14343740635699,-109.19321512958045L-61.208694044195006,-92.23687027413953L-54.14890809708188,-94.73376739353864zM-43.14343740635699,-109.19321512958045L-47.31201711518625,-98.12445689640145L-41.00035384268574,-102.25941308477486zM-30.500259215171262,-112.82738289889416L-41.00035384268574,-102.25941308477486L-35.49067199329351,-106.95422994362013zM-43.14343740635699,-109.19321512958045L-54.14890809708188,-94.73376739353864L-47.31201711518625,-98.12445689640145z" style="fill:rgb(83,212,212)"/></svg>
