<?xml version="1.0" encoding="UTF-8"?>
<!-- Generated by jsxcad -->
<!DOCTYPE svg PUBLIC "-//W3C//DTD SVG 1.1 Tiny//EN" "http://www.w3.org/Graphics/SVG/1.1/DTD/svg11-tiny.dtd">
<svg baseProfile="tiny" height="115 mm" width="20 mm" viewBox="0 0 20 115" version="1.1" stroke="black" stroke-width=".1" fill="none" xmlns="http://www.w3.org/2000/svg">
<path d="M0 15 L20 15 L20 115 L19.94869 115 L19.89739 115 L19.84582 115 L19.79371 115 L19.74079 115 L19.68675 115 L19.63128 115 L19.57401 115 L19.51455 115 L19.45244 115 L19.38716 115 L19.31811 115 L19.24454 115 L19.16559 115 L19.08019 115 L18.98702 115 L18.8844 115 L18.77022 115 L18.64171 115 L18.49517 115 L18.3256 115 L18.12599 115 L17.88624 115 L17.59119 115 L17.21707 115 L16.72423 115 L16.04134 115 L15.02579 115 L13.34477 115 L10 115 L0 115 z"/>
<path d="M5 10 L5 5 L5 0 L10 0 L15 0 L15 5 L15 10 L10 10 z"/>
</svg>