solid JSxCAD
facet normal 0 0 -1
outer loop
vertex 15 15 -5
vertex 15 -15 -5
vertex -15 -15 -5
endloop
endfacet
facet normal 0 0 -1
outer loop
vertex 15 15 -5
vertex -15 -15 -5
vertex -15 15 -5
endloop
endfacet
facet normal -0.9701425001453319 0 0.24253562503633297
outer loop
vertex -15 -15 5
vertex -10 0 25
vertex -15 15 5
endloop
endfacet
facet normal -1 0 0
outer loop
vertex -15 -15 5
vertex -15 15 5
vertex -15 15 -5
endloop
endfacet
facet normal -1 0 0
outer loop
vertex -15 -15 5
vertex -15 15 -5
vertex -15 -15 -5
endloop
endfacet
facet normal 0 -1 0
outer loop
vertex -15 -15 5
vertex -15 -15 -5
vertex 15 -15 -5
endloop
endfacet
facet normal 0 -1 0
outer loop
vertex -15 -15 5
vertex 15 -15 -5
vertex 15 -15 5
endloop
endfacet
facet normal 0 1 0
outer loop
vertex 15 15 5
vertex 15 15 -5
vertex -15 15 -5
endloop
endfacet
facet normal 0 1 0
outer loop
vertex 15 15 5
vertex -15 15 -5
vertex -15 15 5
endloop
endfacet
facet normal 1 0 0
outer loop
vertex 15 15 5
vertex 15 -15 5
vertex 15 -15 -5
endloop
endfacet
facet normal 1 0 0
outer loop
vertex 15 15 5
vertex 15 -15 -5
vertex 15 15 -5
endloop
endfacet
facet normal -0.2739551047612977 0.8730794733342243 0.4033371217947339
outer loop
vertex -2.5065 9.6808 25
vertex -15 15 5
vertex -3.4731 9.3775 25
endloop
endfacet
facet normal -0.93134496433892 -0.14268282985078556 0.3350196523583465
outer loop
vertex -9.9487 -1.0117 25
vertex -15 -15 5
vertex -9.7953 -2.013 25
endloop
endfacet
facet normal -0.9597952328043423 -0.04866807891950404 0.27644986739071364
outer loop
vertex -9.9487 -1.0117 25
vertex -10 0 25
vertex -15 -15 5
endloop
endfacet
facet normal -0.8942343350586814 -0.23153793358290747 0.38306022935605694
outer loop
vertex -9.5414 -2.9936 25
vertex -9.7953 -2.013 25
vertex -15 -15 5
endloop
endfacet
facet normal -0.850518983558575 -0.3149606088588482 0.4212092988927857
outer loop
vertex -9.5414 -2.9936 25
vertex -15 -15 5
vertex -9.1896 -3.9436 25
endloop
endfacet
facet normal -0.6920784537429955 -0.5356911876662379 0.4837999228208287
outer loop
vertex -7.5876 -6.5137 25
vertex -8.2076 -5.7127 25
vertex -15 -15 5
endloop
endfacet
facet normal -0.6321307595306631 -0.6008772229316942 0.4892415209455162
outer loop
vertex -7.5876 -6.5137 25
vertex -15 -15 5
vertex -6.8897 -7.2479 25
endloop
endfacet
facet normal -0.748623361395846 -0.4666596014563611 0.4709478518275404
outer loop
vertex -8.7435 -4.853 25
vertex -15 -15 5
vertex -8.2076 -5.7127 25
endloop
endfacet
facet normal -0.8016326591287883 -0.39323546210397364 0.4502787482904143
outer loop
vertex -8.7435 -4.853 25
vertex -9.1896 -3.9436 25
vertex -15 -15 5
endloop
endfacet
facet normal -0.43049862883126905 -0.7756156134171174 0.4616181872478445
outer loop
vertex -4.4039 -8.978 25
vertex -5.2896 -8.4864 25
vertex -15 -15 5
endloop
endfacet
facet normal -0.35478186679364565 -0.8266106673630177 0.4368576788796121
outer loop
vertex -4.4039 -8.978 25
vertex -15 -15 5
vertex -3.4731 -9.3775 25
endloop
endfacet
facet normal -0.501602267689559 -0.7208473653367932 0.47830350295152146
outer loop
vertex -6.1211 -7.9078 25
vertex -15 -15 5
vertex -5.2896 -8.4864 25
endloop
endfacet
facet normal -0.5687908841208541 -0.6624832149345178 0.48743504189896186
outer loop
vertex -6.1211 -7.9078 25
vertex -6.8897 -7.2479 25
vertex -15 -15 5
endloop
endfacet
facet normal -0.09629555973619683 -0.9467967327038045 0.30708811783671003
outer loop
vertex -0.5065 -9.9872 25
vertex -1.5143 -9.8847 25
vertex -15 -15 5
endloop
endfacet
facet normal 0 -0.9699962541762676 0.24311986114673972
outer loop
vertex -0.5065 -9.9872 25
vertex -15 -15 5
vertex 15 -15 5
endloop
endfacet
facet normal 0 -0.9699962541762673 0.2431198611467397
outer loop
vertex -0.5065 -9.9872 25
vertex 15 -15 5
vertex 0.5065 -9.9872 25
endloop
endfacet
facet normal -0.18777536351801338 -0.913735731645768 0.3603157303941235
outer loop
vertex -2.5065 -9.6808 25
vertex -15 -15 5
vertex -1.5143 -9.8847 25
endloop
endfacet
facet normal -0.2739551047612977 -0.8730794733342243 0.4033371217947339
outer loop
vertex -2.5065 -9.6808 25
vertex -3.4731 -9.3775 25
vertex -15 -15 5
endloop
endfacet
facet normal 0.9701425001453319 0 0.24253562503633297
outer loop
vertex 10 0 25
vertex 15 -15 5
vertex 15 15 5
endloop
endfacet
facet normal -0.93134496433892 0.14268282985078556 0.3350196523583465
outer loop
vertex -9.9487 1.0117 25
vertex -9.7953 2.013 25
vertex -15 15 5
endloop
endfacet
facet normal -0.9597952328043423 0.04866807891950404 0.27644986739071364
outer loop
vertex -9.9487 1.0117 25
vertex -15 15 5
vertex -10 0 25
endloop
endfacet
facet normal -0.8942343350586814 0.23153793358290747 0.38306022935605694
outer loop
vertex -9.5414 2.9936 25
vertex -15 15 5
vertex -9.7953 2.013 25
endloop
endfacet
facet normal -0.850518983558575 0.3149606088588482 0.4212092988927857
outer loop
vertex -9.5414 2.9936 25
vertex -9.1896 3.9436 25
vertex -15 15 5
endloop
endfacet
facet normal -0.748623361395846 0.4666596014563611 0.4709478518275404
outer loop
vertex -8.7435 4.853 25
vertex -8.2076 5.7127 25
vertex -15 15 5
endloop
endfacet
facet normal -0.8016326591287883 0.39323546210397364 0.4502787482904143
outer loop
vertex -8.7435 4.853 25
vertex -15 15 5
vertex -9.1896 3.9436 25
endloop
endfacet
facet normal -0.6920784537429955 0.5356911876662379 0.4837999228208287
outer loop
vertex -7.5876 6.5137 25
vertex -15 15 5
vertex -8.2076 5.7127 25
endloop
endfacet
facet normal -0.6321307595306631 0.6008772229316942 0.4892415209455162
outer loop
vertex -7.5876 6.5137 25
vertex -6.8897 7.2479 25
vertex -15 15 5
endloop
endfacet
facet normal -0.501602267689559 0.7208473653367932 0.47830350295152146
outer loop
vertex -6.1211 7.9078 25
vertex -5.2896 8.4864 25
vertex -15 15 5
endloop
endfacet
facet normal -0.5687908841208541 0.6624832149345178 0.48743504189896186
outer loop
vertex -6.1211 7.9078 25
vertex -15 15 5
vertex -6.8897 7.2479 25
endloop
endfacet
facet normal -0.43049862883126905 0.7756156134171174 0.4616181872478445
outer loop
vertex -4.4039 8.978 25
vertex -15 15 5
vertex -5.2896 8.4864 25
endloop
endfacet
facet normal -0.35478186679364565 0.8266106673630177 0.4368576788796121
outer loop
vertex -4.4039 8.978 25
vertex -3.4731 9.3775 25
vertex -15 15 5
endloop
endfacet
facet normal -0.18777536351801338 0.913735731645768 0.3603157303941235
outer loop
vertex -1.5143 9.8847 25
vertex -15 15 5
vertex -2.5065 9.6808 25
endloop
endfacet
facet normal -0.09629555973619683 0.9467967327038045 0.30708811783671003
outer loop
vertex -1.5143 9.8847 25
vertex -0.5065 9.9872 25
vertex -15 15 5
endloop
endfacet
facet normal 0 0.9699962541762676 0.24311986114673972
outer loop
vertex 0.5065 9.9872 25
vertex 15 15 5
vertex -15 15 5
endloop
endfacet
facet normal 0 0.9699962541762673 0.2431198611467397
outer loop
vertex 0.5065 9.9872 25
vertex -15 15 5
vertex -0.5065 9.9872 25
endloop
endfacet
facet normal 0.8016326591287883 0.39323546210397364 0.4502787482904143
outer loop
vertex 9.1896 3.9436 25
vertex 15 15 5
vertex 8.7435 4.853 25
endloop
endfacet
facet normal 0.5687908841208541 -0.6624832149345178 0.48743504189896186
outer loop
vertex 6.8897 -7.2479 25
vertex 6.1211 -7.9078 25
vertex 15 -15 5
endloop
endfacet
facet normal 0.6321307595306631 -0.6008772229316942 0.4892415209455162
outer loop
vertex 6.8897 -7.2479 25
vertex 15 -15 5
vertex 7.5876 -6.5137 25
endloop
endfacet
facet normal 0.501602267689559 -0.7208473653367932 0.47830350295152146
outer loop
vertex 5.2896 -8.4864 25
vertex 15 -15 5
vertex 6.1211 -7.9078 25
endloop
endfacet
facet normal 0.43049862883126905 -0.7756156134171174 0.4616181872478445
outer loop
vertex 5.2896 -8.4864 25
vertex 4.4039 -8.978 25
vertex 15 -15 5
endloop
endfacet
facet normal 0.18777536351801338 -0.913735731645768 0.3603157303941235
outer loop
vertex 1.5143 -9.8847 25
vertex 15 -15 5
vertex 2.5065 -9.6808 25
endloop
endfacet
facet normal 0.09629555973619683 -0.9467967327038045 0.30708811783671003
outer loop
vertex 1.5143 -9.8847 25
vertex 0.5065 -9.9872 25
vertex 15 -15 5
endloop
endfacet
facet normal 0.2739551047612977 -0.8730794733342243 0.4033371217947339
outer loop
vertex 3.4731 -9.3775 25
vertex 2.5065 -9.6808 25
vertex 15 -15 5
endloop
endfacet
facet normal 0.35478186679364565 -0.8266106673630177 0.4368576788796121
outer loop
vertex 3.4731 -9.3775 25
vertex 15 -15 5
vertex 4.4039 -8.978 25
endloop
endfacet
facet normal 0.9597952328043423 -0.04866807891950404 0.27644986739071364
outer loop
vertex 9.9487 -1.0117 25
vertex 15 -15 5
vertex 10 0 25
endloop
endfacet
facet normal 0.93134496433892 -0.14268282985078556 0.3350196523583465
outer loop
vertex 9.9487 -1.0117 25
vertex 9.7953 -2.013 25
vertex 15 -15 5
endloop
endfacet
facet normal 0.9597952328043423 0.04866807891950404 0.27644986739071364
outer loop
vertex 9.9487 1.0117 25
vertex 10 0 25
vertex 15 15 5
endloop
endfacet
facet normal 0.93134496433892 0.14268282985078556 0.3350196523583465
outer loop
vertex 9.9487 1.0117 25
vertex 15 15 5
vertex 9.7953 2.013 25
endloop
endfacet
facet normal 0.850518983558575 -0.3149606088588482 0.4212092988927857
outer loop
vertex 9.5414 -2.9936 25
vertex 9.1896 -3.9436 25
vertex 15 -15 5
endloop
endfacet
facet normal 0.8942343350586814 -0.23153793358290747 0.38306022935605694
outer loop
vertex 9.5414 -2.9936 25
vertex 15 -15 5
vertex 9.7953 -2.013 25
endloop
endfacet
facet normal 0.8016326591287883 -0.39323546210397364 0.4502787482904143
outer loop
vertex 8.7435 -4.853 25
vertex 15 -15 5
vertex 9.1896 -3.9436 25
endloop
endfacet
facet normal 0.09629555973619683 0.9467967327038045 0.30708811783671003
outer loop
vertex 1.5143 9.8847 25
vertex 15 15 5
vertex 0.5065 9.9872 25
endloop
endfacet
facet normal 0.18777536351801338 0.913735731645768 0.3603157303941235
outer loop
vertex 1.5143 9.8847 25
vertex 2.5065 9.6808 25
vertex 15 15 5
endloop
endfacet
facet normal 0.35478186679364565 0.8266106673630177 0.4368576788796121
outer loop
vertex 3.4731 9.3775 25
vertex 4.4039 8.978 25
vertex 15 15 5
endloop
endfacet
facet normal 0.2739551047612977 0.8730794733342243 0.4033371217947339
outer loop
vertex 3.4731 9.3775 25
vertex 15 15 5
vertex 2.5065 9.6808 25
endloop
endfacet
facet normal 0.43049862883126905 0.7756156134171174 0.4616181872478445
outer loop
vertex 5.2896 8.4864 25
vertex 15 15 5
vertex 4.4039 8.978 25
endloop
endfacet
facet normal 0.501602267689559 0.7208473653367932 0.47830350295152146
outer loop
vertex 5.2896 8.4864 25
vertex 6.1211 7.9078 25
vertex 15 15 5
endloop
endfacet
facet normal 0.6321307595306631 0.6008772229316942 0.4892415209455162
outer loop
vertex 6.8897 7.2479 25
vertex 7.5876 6.5137 25
vertex 15 15 5
endloop
endfacet
facet normal 0.5687908841208541 0.6624832149345178 0.48743504189896186
outer loop
vertex 6.8897 7.2479 25
vertex 15 15 5
vertex 6.1211 7.9078 25
endloop
endfacet
facet normal 0.6920784537429955 0.5356911876662379 0.4837999228208287
outer loop
vertex 8.2076 5.7127 25
vertex 15 15 5
vertex 7.5876 6.5137 25
endloop
endfacet
facet normal 0.748623361395846 0.4666596014563611 0.4709478518275403
outer loop
vertex 8.2076 5.7127 25
vertex 8.7435 4.853 25
vertex 15 15 5
endloop
endfacet
facet normal 0.850518983558575 0.3149606088588482 0.4212092988927857
outer loop
vertex 9.5414 2.9936 25
vertex 15 15 5
vertex 9.1896 3.9436 25
endloop
endfacet
facet normal 0.8942343350586814 0.23153793358290747 0.38306022935605694
outer loop
vertex 9.5414 2.9936 25
vertex 9.7953 2.013 25
vertex 15 15 5
endloop
endfacet
facet normal 0.748623361395846 -0.4666596014563611 0.4709478518275403
outer loop
vertex 8.2076 -5.7127 25
vertex 15 -15 5
vertex 8.7435 -4.853 25
endloop
endfacet
facet normal 0 0 1
outer loop
vertex 8.2076 -5.7127 25
vertex 8.7435 -4.853 25
vertex 9.1896 -3.9436 25
endloop
endfacet
facet normal 0 0 1
outer loop
vertex 8.2076 -5.7127 25
vertex 9.1896 -3.9436 25
vertex 9.5414 -2.9936 25
endloop
endfacet
facet normal 0 0 1
outer loop
vertex 8.2076 -5.7127 25
vertex 9.5414 -2.9936 25
vertex 9.7953 -2.013 25
endloop
endfacet
facet normal 0 0 1
outer loop
vertex 8.2076 -5.7127 25
vertex 9.7953 -2.013 25
vertex 9.9487 -1.0117 25
endloop
endfacet
facet normal 0 0 1
outer loop
vertex 8.2076 -5.7127 25
vertex 9.9487 -1.0117 25
vertex 10 0 25
endloop
endfacet
facet normal 0 0 1
outer loop
vertex 8.2076 -5.7127 25
vertex 10 0 25
vertex 9.9487 1.0117 25
endloop
endfacet
facet normal 0 0 1
outer loop
vertex 8.2076 -5.7127 25
vertex 9.9487 1.0117 25
vertex 9.7953 2.013 25
endloop
endfacet
facet normal 0 0 1
outer loop
vertex 8.2076 -5.7127 25
vertex 9.7953 2.013 25
vertex 9.5414 2.9936 25
endloop
endfacet
facet normal 0 0 1
outer loop
vertex 8.2076 -5.7127 25
vertex 9.5414 2.9936 25
vertex 9.1896 3.9436 25
endloop
endfacet
facet normal 0 0 1
outer loop
vertex 8.2076 -5.7127 25
vertex 9.1896 3.9436 25
vertex 8.7435 4.853 25
endloop
endfacet
facet normal 0 0 1
outer loop
vertex 8.2076 -5.7127 25
vertex 8.7435 4.853 25
vertex 8.2076 5.7127 25
endloop
endfacet
facet normal 0 0 1
outer loop
vertex 8.2076 -5.7127 25
vertex 8.2076 5.7127 25
vertex 7.5876 6.5137 25
endloop
endfacet
facet normal 0 0 1
outer loop
vertex 8.2076 -5.7127 25
vertex 7.5876 6.5137 25
vertex 6.8897 7.2479 25
endloop
endfacet
facet normal 0 0 1
outer loop
vertex 8.2076 -5.7127 25
vertex 6.8897 7.2479 25
vertex 6.1211 7.9078 25
endloop
endfacet
facet normal 0 0 1
outer loop
vertex 8.2076 -5.7127 25
vertex 6.1211 7.9078 25
vertex 5.2896 8.4864 25
endloop
endfacet
facet normal 0 0 1
outer loop
vertex 8.2076 -5.7127 25
vertex 5.2896 8.4864 25
vertex 4.4039 8.978 25
endloop
endfacet
facet normal 0 0 1
outer loop
vertex 8.2076 -5.7127 25
vertex 4.4039 8.978 25
vertex 3.4731 9.3775 25
endloop
endfacet
facet normal 0 0 1
outer loop
vertex 8.2076 -5.7127 25
vertex 3.4731 9.3775 25
vertex 2.5065 9.6808 25
endloop
endfacet
facet normal 0 0 1
outer loop
vertex 8.2076 -5.7127 25
vertex 2.5065 9.6808 25
vertex 1.5143 9.8847 25
endloop
endfacet
facet normal 0 0 1
outer loop
vertex 8.2076 -5.7127 25
vertex 1.5143 9.8847 25
vertex 0.5065 9.9872 25
endloop
endfacet
facet normal 0 0 1
outer loop
vertex 8.2076 -5.7127 25
vertex 0.5065 9.9872 25
vertex -0.5065 9.9872 25
endloop
endfacet
facet normal 0 0 1
outer loop
vertex 8.2076 -5.7127 25
vertex -0.5065 9.9872 25
vertex -1.5143 9.8847 25
endloop
endfacet
facet normal 0 0 1
outer loop
vertex 8.2076 -5.7127 25
vertex -1.5143 9.8847 25
vertex -2.5065 9.6808 25
endloop
endfacet
facet normal 0 0 1
outer loop
vertex 8.2076 -5.7127 25
vertex -2.5065 9.6808 25
vertex -3.4731 9.3775 25
endloop
endfacet
facet normal 0 0 1
outer loop
vertex 8.2076 -5.7127 25
vertex -3.4731 9.3775 25
vertex -4.4039 8.978 25
endloop
endfacet
facet normal 0 0 1
outer loop
vertex 8.2076 -5.7127 25
vertex -4.4039 8.978 25
vertex -5.2896 8.4864 25
endloop
endfacet
facet normal 0 0 1
outer loop
vertex 8.2076 -5.7127 25
vertex -5.2896 8.4864 25
vertex -6.1211 7.9078 25
endloop
endfacet
facet normal 0 0 1
outer loop
vertex 8.2076 -5.7127 25
vertex -6.1211 7.9078 25
vertex -6.8897 7.2479 25
endloop
endfacet
facet normal 0 0 1
outer loop
vertex 8.2076 -5.7127 25
vertex -6.8897 7.2479 25
vertex -7.5876 6.5137 25
endloop
endfacet
facet normal 0 0 1
outer loop
vertex 8.2076 -5.7127 25
vertex -7.5876 6.5137 25
vertex -8.2076 5.7127 25
endloop
endfacet
facet normal 0 0 1
outer loop
vertex 8.2076 -5.7127 25
vertex -8.2076 5.7127 25
vertex -8.7435 4.853 25
endloop
endfacet
facet normal 0 0 1
outer loop
vertex 8.2076 -5.7127 25
vertex -8.7435 4.853 25
vertex -9.1896 3.9436 25
endloop
endfacet
facet normal 0 0 1
outer loop
vertex 8.2076 -5.7127 25
vertex -9.1896 3.9436 25
vertex -9.5414 2.9936 25
endloop
endfacet
facet normal 0 0 1
outer loop
vertex 8.2076 -5.7127 25
vertex -9.5414 2.9936 25
vertex -9.7953 2.013 25
endloop
endfacet
facet normal 0 0 1
outer loop
vertex 8.2076 -5.7127 25
vertex -9.7953 2.013 25
vertex -9.9487 1.0117 25
endloop
endfacet
facet normal 0 0 1
outer loop
vertex 8.2076 -5.7127 25
vertex -9.9487 1.0117 25
vertex -10 0 25
endloop
endfacet
facet normal 0 0 1
outer loop
vertex 8.2076 -5.7127 25
vertex -10 0 25
vertex -9.9487 -1.0117 25
endloop
endfacet
facet normal 0 0 1
outer loop
vertex 8.2076 -5.7127 25
vertex -9.9487 -1.0117 25
vertex -9.7953 -2.013 25
endloop
endfacet
facet normal 0 0 1
outer loop
vertex 8.2076 -5.7127 25
vertex -9.7953 -2.013 25
vertex -9.5414 -2.9936 25
endloop
endfacet
facet normal 0 0 1
outer loop
vertex 8.2076 -5.7127 25
vertex -9.5414 -2.9936 25
vertex -9.1896 -3.9436 25
endloop
endfacet
facet normal 0 0 1
outer loop
vertex 8.2076 -5.7127 25
vertex -9.1896 -3.9436 25
vertex -8.7435 -4.853 25
endloop
endfacet
facet normal 0 0 1
outer loop
vertex 8.2076 -5.7127 25
vertex -8.7435 -4.853 25
vertex -8.2076 -5.7127 25
endloop
endfacet
facet normal 0 0 1
outer loop
vertex 8.2076 -5.7127 25
vertex -8.2076 -5.7127 25
vertex -7.5876 -6.5137 25
endloop
endfacet
facet normal 0 0 1
outer loop
vertex 8.2076 -5.7127 25
vertex -7.5876 -6.5137 25
vertex -6.8897 -7.2479 25
endloop
endfacet
facet normal 0 0 1
outer loop
vertex 8.2076 -5.7127 25
vertex -6.8897 -7.2479 25
vertex -6.1211 -7.9078 25
endloop
endfacet
facet normal 0 0 1
outer loop
vertex 8.2076 -5.7127 25
vertex -6.1211 -7.9078 25
vertex -5.2896 -8.4864 25
endloop
endfacet
facet normal 0 0 1
outer loop
vertex 8.2076 -5.7127 25
vertex -5.2896 -8.4864 25
vertex -4.4039 -8.978 25
endloop
endfacet
facet normal 0 0 1
outer loop
vertex 8.2076 -5.7127 25
vertex -4.4039 -8.978 25
vertex -3.4731 -9.3775 25
endloop
endfacet
facet normal 0 0 1
outer loop
vertex 8.2076 -5.7127 25
vertex -3.4731 -9.3775 25
vertex -2.5065 -9.6808 25
endloop
endfacet
facet normal 0 0 1
outer loop
vertex 8.2076 -5.7127 25
vertex -2.5065 -9.6808 25
vertex -1.5143 -9.8847 25
endloop
endfacet
facet normal 0 0 1
outer loop
vertex 8.2076 -5.7127 25
vertex -1.5143 -9.8847 25
vertex -0.5065 -9.9872 25
endloop
endfacet
facet normal 0 0 1
outer loop
vertex 8.2076 -5.7127 25
vertex -0.5065 -9.9872 25
vertex 0.5065 -9.9872 25
endloop
endfacet
facet normal 0 0 1
outer loop
vertex 8.2076 -5.7127 25
vertex 0.5065 -9.9872 25
vertex 1.5143 -9.8847 25
endloop
endfacet
facet normal 0 0 1
outer loop
vertex 8.2076 -5.7127 25
vertex 1.5143 -9.8847 25
vertex 2.5065 -9.6808 25
endloop
endfacet
facet normal 0 0 1
outer loop
vertex 8.2076 -5.7127 25
vertex 2.5065 -9.6808 25
vertex 3.4731 -9.3775 25
endloop
endfacet
facet normal 0 0 1
outer loop
vertex 8.2076 -5.7127 25
vertex 3.4731 -9.3775 25
vertex 4.4039 -8.978 25
endloop
endfacet
facet normal 0 0 1
outer loop
vertex 8.2076 -5.7127 25
vertex 4.4039 -8.978 25
vertex 5.2896 -8.4864 25
endloop
endfacet
facet normal 0 0 1
outer loop
vertex 8.2076 -5.7127 25
vertex 5.2896 -8.4864 25
vertex 6.1211 -7.9078 25
endloop
endfacet
facet normal 0 0 1
outer loop
vertex 8.2076 -5.7127 25
vertex 6.1211 -7.9078 25
vertex 6.8897 -7.2479 25
endloop
endfacet
facet normal 0 0 1
outer loop
vertex 8.2076 -5.7127 25
vertex 6.8897 -7.2479 25
vertex 7.5876 -6.5137 25
endloop
endfacet
facet normal 0.6920784537429955 -0.5356911876662379 0.4837999228208287
outer loop
vertex 8.2076 -5.7127 25
vertex 7.5876 -6.5137 25
vertex 15 -15 5
endloop
endfacet
endsolid JSxCAD
