solid JSxCAD
facet normal 0.8660249555150848 -0.5000007764244921 0
outer loop
vertex 2.81907 -1.02606 15
vertex 2.81907 -1.02606 25
vertex 2.29812 -1.92837 15
endloop
endfacet
facet normal 0.8660249555150848 -0.5000007764244921 0
outer loop
vertex 2.29812 -1.92837 15
vertex 2.81907 -1.02606 25
vertex 2.29812 -1.92837 25
endloop
endfacet
facet normal 0.6427976365302772 -0.76603602948627 0
outer loop
vertex 2.29812 -1.92837 15
vertex 2.29812 -1.92837 25
vertex 1.5 -2.59809 15
endloop
endfacet
facet normal 0.6427976365302772 -0.76603602948627 0
outer loop
vertex 1.5 -2.59809 15
vertex 2.29812 -1.92837 25
vertex 1.5 -2.59809 25
endloop
endfacet
facet normal 0.3420158566530247 -0.9396941809960822 0
outer loop
vertex 1.5 -2.59809 15
vertex 1.5 -2.59809 25
vertex 0.52095 -2.95443 15
endloop
endfacet
facet normal 0.3420158566530247 -0.9396941809960822 0
outer loop
vertex 0.52095 -2.95443 15
vertex 1.5 -2.59809 25
vertex 0.52095 -2.95443 25
endloop
endfacet
facet normal 0 -1 0
outer loop
vertex 0.52095 -2.95443 15
vertex 0.52095 -2.95443 25
vertex -0.52095 -2.95443 15
endloop
endfacet
facet normal 0 -1 0
outer loop
vertex -0.52095 -2.95443 15
vertex 0.52095 -2.95443 25
vertex -0.52095 -2.95443 25
endloop
endfacet
facet normal -0.3420158566530247 -0.9396941809960822 0
outer loop
vertex -0.52095 -2.95443 15
vertex -0.52095 -2.95443 25
vertex -1.5 -2.59809 15
endloop
endfacet
facet normal -0.3420158566530247 -0.9396941809960822 0
outer loop
vertex -1.5 -2.59809 15
vertex -0.52095 -2.95443 25
vertex -1.5 -2.59809 25
endloop
endfacet
facet normal -0.6427976365302772 -0.76603602948627 0
outer loop
vertex -1.5 -2.59809 15
vertex -1.5 -2.59809 25
vertex -2.29812 -1.92837 15
endloop
endfacet
facet normal -0.6427976365302772 -0.76603602948627 0
outer loop
vertex -2.29812 -1.92837 15
vertex -1.5 -2.59809 25
vertex -2.29812 -1.92837 25
endloop
endfacet
facet normal -0.8660249555150848 -0.5000007764244921 0
outer loop
vertex -2.29812 -1.92837 15
vertex -2.29812 -1.92837 25
vertex -2.81907 -1.02606 15
endloop
endfacet
facet normal -0.8660249555150848 -0.5000007764244921 0
outer loop
vertex -2.81907 -1.02606 15
vertex -2.29812 -1.92837 25
vertex -2.81907 -1.02606 25
endloop
endfacet
facet normal -0.9848064500564027 -0.17365556693439463 0
outer loop
vertex -2.81907 -1.02606 15
vertex -2.81907 -1.02606 25
vertex -3 0 15
endloop
endfacet
facet normal -0.9848064500564027 -0.17365556693439463 0
outer loop
vertex -3 0 15
vertex -2.81907 -1.02606 25
vertex -3 0 25
endloop
endfacet
facet normal -0.9848064500564027 0.17365556693439463 0
outer loop
vertex -3 0 15
vertex -3 0 25
vertex -2.81907 1.02606 15
endloop
endfacet
facet normal -0.9848064500564027 0.17365556693439463 0
outer loop
vertex -2.81907 1.02606 15
vertex -3 0 25
vertex -2.81907 1.02606 25
endloop
endfacet
facet normal -0.8660249555150848 0.5000007764244921 0
outer loop
vertex -2.81907 1.02606 15
vertex -2.81907 1.02606 25
vertex -2.29812 1.92837 15
endloop
endfacet
facet normal -0.8660249555150848 0.5000007764244921 0
outer loop
vertex -2.29812 1.92837 15
vertex -2.81907 1.02606 25
vertex -2.29812 1.92837 25
endloop
endfacet
facet normal -0.6427976365302772 0.76603602948627 0
outer loop
vertex -2.29812 1.92837 15
vertex -2.29812 1.92837 25
vertex -1.5 2.59809 15
endloop
endfacet
facet normal -0.6427976365302772 0.76603602948627 0
outer loop
vertex -1.5 2.59809 15
vertex -2.29812 1.92837 25
vertex -1.5 2.59809 25
endloop
endfacet
facet normal -0.3420158566530247 0.9396941809960822 0
outer loop
vertex -1.5 2.59809 15
vertex -1.5 2.59809 25
vertex -0.52095 2.95443 15
endloop
endfacet
facet normal -0.3420158566530247 0.9396941809960822 0
outer loop
vertex -0.52095 2.95443 15
vertex -1.5 2.59809 25
vertex -0.52095 2.95443 25
endloop
endfacet
facet normal 0 1 0
outer loop
vertex -0.52095 2.95443 15
vertex -0.52095 2.95443 25
vertex 0.52095 2.95443 15
endloop
endfacet
facet normal 0 1 0
outer loop
vertex 0.52095 2.95443 15
vertex -0.52095 2.95443 25
vertex 0.52095 2.95443 25
endloop
endfacet
facet normal 0.3420158566530247 0.9396941809960822 0
outer loop
vertex 0.52095 2.95443 15
vertex 0.52095 2.95443 25
vertex 1.5 2.59809 15
endloop
endfacet
facet normal 0.3420158566530247 0.9396941809960822 0
outer loop
vertex 1.5 2.59809 15
vertex 0.52095 2.95443 25
vertex 1.5 2.59809 25
endloop
endfacet
facet normal 0.6427976365302772 0.76603602948627 0
outer loop
vertex 1.5 2.59809 15
vertex 1.5 2.59809 25
vertex 2.29812 1.92837 15
endloop
endfacet
facet normal 0.6427976365302772 0.76603602948627 0
outer loop
vertex 2.29812 1.92837 15
vertex 1.5 2.59809 25
vertex 2.29812 1.92837 25
endloop
endfacet
facet normal 0.8660249555150848 0.5000007764244921 0
outer loop
vertex 2.29812 1.92837 15
vertex 2.29812 1.92837 25
vertex 2.81907 1.02606 15
endloop
endfacet
facet normal 0.8660249555150848 0.5000007764244921 0
outer loop
vertex 2.81907 1.02606 15
vertex 2.29812 1.92837 25
vertex 2.81907 1.02606 25
endloop
endfacet
facet normal 0.9848064500564027 0.17365556693439463 0
outer loop
vertex 2.81907 1.02606 15
vertex 2.81907 1.02606 25
vertex 3 0 15
endloop
endfacet
facet normal 0.9848064500564027 0.17365556693439463 0
outer loop
vertex 3 0 15
vertex 2.81907 1.02606 25
vertex 3 0 25
endloop
endfacet
facet normal 0.9848064500564027 -0.17365556693439463 0
outer loop
vertex 3 0 15
vertex 3 0 25
vertex 2.81907 -1.02606 15
endloop
endfacet
facet normal 0.9848064500564027 -0.17365556693439463 0
outer loop
vertex 2.81907 -1.02606 15
vertex 3 0 25
vertex 2.81907 -1.02606 25
endloop
endfacet
facet normal 0 0 1
outer loop
vertex 3 0 25
vertex 2.81907 1.02606 25
vertex 2.29812 1.92837 25
endloop
endfacet
facet normal 0 0 1
outer loop
vertex 3 0 25
vertex 2.29812 1.92837 25
vertex 1.5 2.59809 25
endloop
endfacet
facet normal 0 0 1
outer loop
vertex 3 0 25
vertex 1.5 2.59809 25
vertex 0.52095 2.95443 25
endloop
endfacet
facet normal 0 0 1
outer loop
vertex 3 0 25
vertex 0.52095 2.95443 25
vertex -0.52095 2.95443 25
endloop
endfacet
facet normal 0 0 1
outer loop
vertex 3 0 25
vertex -0.52095 2.95443 25
vertex -1.5 2.59809 25
endloop
endfacet
facet normal 0 0 1
outer loop
vertex 3 0 25
vertex -1.5 2.59809 25
vertex -2.29812 1.92837 25
endloop
endfacet
facet normal 0 0 1
outer loop
vertex 3 0 25
vertex -2.29812 1.92837 25
vertex -2.81907 1.02606 25
endloop
endfacet
facet normal 0 0 1
outer loop
vertex 3 0 25
vertex -2.81907 1.02606 25
vertex -3 0 25
endloop
endfacet
facet normal 0 0 1
outer loop
vertex 3 0 25
vertex -3 0 25
vertex -2.81907 -1.02606 25
endloop
endfacet
facet normal 0 0 1
outer loop
vertex 3 0 25
vertex -2.81907 -1.02606 25
vertex -2.29812 -1.92837 25
endloop
endfacet
facet normal 0 0 1
outer loop
vertex 3 0 25
vertex -2.29812 -1.92837 25
vertex -1.5 -2.59809 25
endloop
endfacet
facet normal 0 0 1
outer loop
vertex 3 0 25
vertex -1.5 -2.59809 25
vertex -0.52095 -2.95443 25
endloop
endfacet
facet normal 0 0 1
outer loop
vertex 3 0 25
vertex -0.52095 -2.95443 25
vertex 0.52095 -2.95443 25
endloop
endfacet
facet normal 0 0 1
outer loop
vertex 3 0 25
vertex 0.52095 -2.95443 25
vertex 1.5 -2.59809 25
endloop
endfacet
facet normal 0 0 1
outer loop
vertex 3 0 25
vertex 1.5 -2.59809 25
vertex 2.29812 -1.92837 25
endloop
endfacet
facet normal 0 0 1
outer loop
vertex 3 0 25
vertex 2.29812 -1.92837 25
vertex 2.81907 -1.02606 25
endloop
endfacet
facet normal 0 0 -1
outer loop
vertex 2.81907 -1.02606 15
vertex 2.29812 -1.92837 15
vertex 1.5 -2.59809 15
endloop
endfacet
facet normal 0 0 -1
outer loop
vertex 2.81907 -1.02606 15
vertex 1.5 -2.59809 15
vertex 0.52095 -2.95443 15
endloop
endfacet
facet normal 0 0 -1
outer loop
vertex 2.81907 -1.02606 15
vertex 0.52095 -2.95443 15
vertex -0.52095 -2.95443 15
endloop
endfacet
facet normal 0 0 -1
outer loop
vertex 2.81907 -1.02606 15
vertex -0.52095 -2.95443 15
vertex -1.5 -2.59809 15
endloop
endfacet
facet normal 0 0 -1
outer loop
vertex 2.81907 -1.02606 15
vertex -1.5 -2.59809 15
vertex -2.29812 -1.92837 15
endloop
endfacet
facet normal 0 0 -1
outer loop
vertex 2.81907 -1.02606 15
vertex -2.29812 -1.92837 15
vertex -2.81907 -1.02606 15
endloop
endfacet
facet normal 0 0 -1
outer loop
vertex 2.81907 -1.02606 15
vertex -2.81907 -1.02606 15
vertex -3 0 15
endloop
endfacet
facet normal 0 0 -1
outer loop
vertex 2.81907 -1.02606 15
vertex -3 0 15
vertex -2.81907 1.02606 15
endloop
endfacet
facet normal 0 0 -1
outer loop
vertex 2.81907 -1.02606 15
vertex -2.81907 1.02606 15
vertex -2.29812 1.92837 15
endloop
endfacet
facet normal 0 0 -1
outer loop
vertex 2.81907 -1.02606 15
vertex -2.29812 1.92837 15
vertex -1.5 2.59809 15
endloop
endfacet
facet normal 0 0 -1
outer loop
vertex 2.81907 -1.02606 15
vertex -1.5 2.59809 15
vertex -0.52095 2.95443 15
endloop
endfacet
facet normal 0 0 -1
outer loop
vertex 2.81907 -1.02606 15
vertex -0.52095 2.95443 15
vertex 0.52095 2.95443 15
endloop
endfacet
facet normal 0 0 -1
outer loop
vertex 2.81907 -1.02606 15
vertex 0.52095 2.95443 15
vertex 1.5 2.59809 15
endloop
endfacet
facet normal 0 0 -1
outer loop
vertex 2.81907 -1.02606 15
vertex 1.5 2.59809 15
vertex 2.29812 1.92837 15
endloop
endfacet
facet normal 0 0 -1
outer loop
vertex 2.81907 -1.02606 15
vertex 2.29812 1.92837 15
vertex 2.81907 1.02606 15
endloop
endfacet
facet normal 0 0 -1
outer loop
vertex 2.81907 -1.02606 15
vertex 2.81907 1.02606 15
vertex 3 0 15
endloop
endfacet
endsolid JSxCAD
