<?xml version="1.0" encoding="UTF-8"?>
<!-- Generated by jsxcad -->
<!DOCTYPE svg PUBLIC "-//W3C//DTD SVG 1.1 Tiny//EN" "http://www.w3.org/Graphics/SVG/1.1/DTD/svg11-tiny.dtd">
<svg baseProfile="tiny" height="10 mm" width="20 mm" viewBox="0 0 20 10" version="1.1" stroke="black" stroke-width=".1" fill="none" xmlns="http://www.w3.org/2000/svg">
<path d="M0 0 L0 0 L10 0 z"/>
<path d="M0 0 L10 0 L10 0 z"/>
<path d="M0 10 L0 0 L0 0 z"/>
<path d="M0 10 L0 0 L0 10 z"/>
<path d="M10 10 L0 10 L0 0 z"/>
<path d="M10 10 L0 0 L10 0 z"/>
<path d="M10 10 L10 0 L0 0 z"/>
<path d="M10 10 L0 0 L0 10 z"/>
<path d="M10 10 L0 10 L0 10 z"/>
<path d="M10 10 L0 10 L10 10 z"/>
<path d="M20 2.40191 L20 2.04557 L10 0 z"/>
<path d="M20 5 L20 6.02606 L10 10 z"/>
<path d="M20 5 L10 10 L10 0 z"/>
<path d="M20 3.07163 L20 2.40191 L10 0 z"/>
<path d="M20 3.07163 L10 0 L20 3.97394 z"/>
<path d="M20 2.40191 L20 3.07163 L10 0 z"/>
<path d="M20 3.97394 L20 5 L10 0 z"/>
<path d="M20 3.97394 L10 0 L20 3.07163 z"/>
<path d="M20 5 L10 10 L20 6.02606 z"/>
<path d="M20 5 L20 3.97394 L10 0 z"/>
<path d="M20 5 L10 0 L10 10 z"/>
<path d="M20 2.04557 L20 2.40191 L10 0 z"/>
<path d="M20 2.04557 L10 0 L10 0 z"/>
<path d="M20 2.04557 L10 0 L20 2.04557 z"/>
<path d="M20 7.59809 L20 7.95443 L10 10 z"/>
<path d="M20 7.95443 L20 7.59809 L10 10 z"/>
<path d="M20 7.95443 L10 10 L10 10 z"/>
<path d="M20 7.95443 L10 10 L20 7.95443 z"/>
<path d="M20 6.92837 L10 10 L20 7.59809 z"/>
<path d="M20 6.92837 L20 6.02606 L10 10 z"/>
<path d="M20 6.92837 L20 6.02606 L20 5 z"/>
<path d="M20 6.92837 L20 5 L20 3.97394 z"/>
<path d="M20 6.92837 L20 3.97394 L20 3.07163 z"/>
<path d="M20 6.92837 L20 3.07163 L20 2.40191 z"/>
<path d="M20 6.92837 L20 2.40191 L20 2.04557 z"/>
<path d="M20 6.92837 L20 2.04557 L20 2.04557 z"/>
<path d="M20 6.92837 L20 2.04557 L20 2.40191 z"/>
<path d="M20 6.92837 L20 2.40191 L20 3.07163 z"/>
<path d="M20 6.92837 L20 3.07163 L20 3.97394 z"/>
<path d="M20 6.92837 L20 3.97394 L20 5 z"/>
<path d="M20 6.92837 L20 5 L20 6.02606 z"/>
<path d="M20 6.92837 L20 6.02606 L20 6.92837 z"/>
<path d="M20 6.92837 L20 6.92837 L20 7.59809 z"/>
<path d="M20 6.92837 L20 7.59809 L20 7.95443 z"/>
<path d="M20 6.92837 L20 7.95443 L20 7.95443 z"/>
<path d="M20 6.92837 L20 7.95443 L20 7.59809 z"/>
<path d="M20 6.92837 L20 7.59809 L10 10 z"/>
<path d="M20 6.92837 L10 10 L20 6.02606 z"/>
</svg>